<?xml version="1.0" encoding="utf-8"?>
<!-- Generator: Adobe Illustrator 26.2.1, SVG Export Plug-In . SVG Version: 6.00 Build 0)  -->
<svg version="1.1" id="Layer_1" xmlns="http://www.w3.org/2000/svg" xmlns:xlink="http://www.w3.org/1999/xlink" x="0px" y="0px"
	 viewBox="0 0 1920 1080" style="enable-background:new 0 0 1920 1080;" xml:space="preserve">
<g>
	<path d="M900.5,156h-52.7c8.3,2.9,17.7,4.4,28.1,4.4C885.1,160.4,893.3,158.9,900.5,156z"/>
	<polygon points="940.1,157.9 940.1,156 924.4,156 924.6,157.9 	"/>
	<path d="M751,156h-56c7.8,2.9,17.2,4.4,28,4.4C733.8,160.4,743.1,158.9,751,156z"/>
	<polygon points="636.7,157.9 636.7,156 621,156 621.2,157.9 	"/>
	<rect x="1127.4" y="156" width="94.6" height="1.9"/>
	<polygon points="1358.8,157.9 1358.8,156 1336.3,156 1337.5,157.9 	"/>
	<path d="M1056.7,156h-52.7c8.3,2.9,17.7,4.4,28.1,4.4C1041.2,160.4,1049.5,158.9,1056.7,156z"/>
	<rect x="1247.3" y="156" width="18.6" height="1.9"/>
	<polygon points="1096.2,157.9 1096.2,156 1080.6,156 1080.7,157.9 	"/>
	<path d="M597.1,156h-52.7c8.3,2.9,17.7,4.4,28.1,4.4C581.7,160.4,589.9,158.9,597.1,156z"/>
	<path d="M156,78c0.1-2.1,0.3-4.1,0.6-6h-21c-0.3,2-0.5,4-0.7,6H156z"/>
	<path d="M159.3,114c-0.6-1.9-1.1-3.9-1.5-6h-21.1c0.4,2.1,0.9,4.1,1.4,6H159.3z"/>
	<path d="M156.7,102c-0.3-1.9-0.5-3.9-0.6-6H135c0.2,2,0.4,4,0.6,6H156.7z"/>
	<path d="M157.6,66c0.4-2.1,0.9-4.1,1.5-6h-21c-0.6,2-1,4-1.5,6H157.6z"/>
	<path d="M228.6,156H176c8.3,2.9,17.7,4.4,28.1,4.4C213.1,160.4,221.4,158.9,228.6,156z"/>
	<path d="M239.6,150c2.4-1.8,4.7-3.8,6.8-6h-30.8c-2.9,0.4-6,0.6-9.3,0.6c-3.9,0-7.6-0.2-11.1-0.6h-39.6c2.4,2.2,5,4.2,7.9,6H239.6z
		"/>
	<polygon points="268.1,157.9 268.1,156 252.5,156 252.7,157.9 	"/>
	<polygon points="268.1,150 268.1,144 251.5,144 252,150 	"/>
	<path d="M176.1,138c-2.8-1.7-5.2-3.6-7.3-6h-23.1c1.3,2.1,2.7,4.1,4.2,6H176.1z"/>
	<polygon points="1797.2,157.9 1798,156 1777.2,156 1777.9,157.9 	"/>
	<path d="M1816.4,60l-2.3,6h19.4c0.7-1.8,1.4-3.8,2.2-6H1816.4z"/>
	<polygon points="1811.8,72 1809.5,78 1828.8,78 1831.1,72 	"/>
	<polygon points="1807.2,84 1804.9,90 1824,90 1826.4,84 	"/>
	<path d="M1821,48l-2.3,6h19.2c0.7-1.9,1.4-3.9,2.2-6H1821z"/>
	<path d="M1795.9,114h18.6l2.4-6h-18.8C1797.4,110,1796.6,112,1795.9,114z"/>
	<path d="M1802.6,96c-0.7,2-1.5,4-2.3,6h19l2.4-6H1802.6z"/>
	<polygon points="1714.1,24 1714.1,30 1747.3,30 1745,24 	"/>
	<polygon points="1714.1,15 1714.1,18 1742.7,18 1741.5,15 	"/>
	<path d="M1737.3,54h19.1l-2.3-6h-19C1735.9,50,1736.6,52.1,1737.3,54z"/>
	<path d="M1714.1,36v6h17.7c-0.1-1.1-0.1-2.1-0.2-3.1h0.2c0.4,1,0.7,2.1,1.1,3.1h18.9l-2.3-6H1714.1z"/>
	<rect x="1660.6" y="156" width="19" height="1.9"/>
	<rect x="1540.2" y="156" width="94.6" height="1.9"/>
	<rect x="1714.1" y="156" width="18.6" height="1.9"/>
	<rect x="1393.8" y="156" width="19" height="1.9"/>
	<rect x="1486.5" y="156" width="18.8" height="1.9"/>
	<path d="M161.3,54c0.9-2.1,1.9-4.1,3.1-6h-21.6c-0.9,1.9-1.8,3.9-2.6,6H161.3z"/>
	<rect x="1842.4" y="120" width="18.6" height="6"/>
	<path d="M1789.6,132c-0.7,1.9-1.3,3.7-1.8,5.3h-0.2c-0.5-1.6-1.1-3.4-1.8-5.3h-18.1l2.4,6h35l2.4-6H1789.6z"/>
	<polygon points="1772.4,144 1774.8,150 1800.3,150 1802.7,144 	"/>
	<rect x="1842.4" y="108" width="18.6" height="6"/>
	<rect x="1660.6" y="144" width="19" height="6"/>
	<rect x="1540.2" y="144" width="94.6" height="6"/>
	<rect x="1660.6" y="15" width="19" height="3"/>
	<rect x="1486.5" y="144" width="18.8" height="6"/>
	<rect x="1393.8" y="144" width="19" height="6"/>
	<rect x="1714.1" y="144" width="18.6" height="6"/>
	<path d="M168.8,42c2.1-2.3,4.5-4.3,7.1-6h-25.7c-1.5,1.9-2.9,3.9-4.2,6H168.8z"/>
	<path d="M1758.2,108l2.4,6h18.7c-0.7-1.9-1.5-3.9-2.2-6H1758.2z"/>
	<path d="M1753.5,96l2.4,6h19c-0.7-1.9-1.5-3.9-2.3-6H1753.5z"/>
	<polygon points="1358.8,144 1328.7,144 1332.5,150 1358.8,150 	"/>
	<rect x="1714.1" y="120" width="18.6" height="6"/>
	<path d="M1074.5,144h-30.8c-2.9,0.4-6,0.6-9.3,0.6c-3.9,0-7.6-0.2-11.1-0.6h-39.6c2.4,2.2,5,4.2,7.9,6h76.2
		C1070.1,148.2,1072.4,146.2,1074.5,144z"/>
	<path d="M769.2,144h-44.3c-0.6,0-1.3,0-1.9,0s-1.3,0-1.9,0h-44.2c2,2.2,4.2,4.2,6.7,6h79C765,148.2,767.2,146.2,769.2,144z"/>
	<polygon points="636.7,144 620,144 620.5,150 636.7,150 	"/>
	<path d="M918.3,144h-30.8c-2.9,0.4-6,0.6-9.3,0.6c-3.9,0-7.6-0.2-11.1-0.6h-39.6c2.4,2.2,5,4.2,7.9,6h76.2
		C913.9,148.2,916.2,146.2,918.3,144z"/>
	<path d="M614.9,144h-30.8c-2.9,0.4-6,0.6-9.3,0.6c-3.9,0-7.6-0.2-11.1-0.6h-39.6c2.4,2.2,5,4.2,7.9,6h76.2
		C610.5,148.2,612.8,146.2,614.9,144z"/>
	<polygon points="940.1,144 923.4,144 923.9,150 940.1,150 	"/>
	<rect x="1127.4" y="144" width="94.6" height="6"/>
	<rect x="1247.3" y="144" width="18.6" height="6"/>
	<polygon points="1096.2,144 1079.6,144 1080.1,150 1096.2,150 	"/>
	<polygon points="1748.7,84 1751.1,90 1770.3,90 1768,84 	"/>
	<rect x="1714.1" y="132" width="18.6" height="6"/>
	<path d="M827.6,30H863c4.2-0.9,8.7-1.3,13.5-1.3c4,0,7.8,0.5,11.2,1.3h35.4c-2.2-2.2-4.7-4.2-7.2-6h-80.8
		C832.4,25.8,829.9,27.8,827.6,30z"/>
	<path d="M983.8,30h35.3c4.2-0.9,8.7-1.3,13.5-1.3c4,0,7.8,0.5,11.2,1.3h35.4c-2.2-2.2-4.7-4.2-7.2-6h-80.8
		C988.6,25.8,986.1,27.8,983.8,30z"/>
	<rect x="1127.4" y="24" width="94.6" height="6"/>
	<polygon points="1247.3,30 1277.2,30 1273.3,24 1247.3,24 	"/>
	<rect x="761.3" y="24" width="19" height="6"/>
	<path d="M155.7,30H191c4.2-0.9,8.7-1.3,13.5-1.3c4,0,7.8,0.5,11.2,1.3h35.4c-2.2-2.2-4.7-4.2-7.2-6h-80.8
		C160.5,25.8,158,27.8,155.7,30z"/>
	<path d="M524.2,30h35.3c4.2-0.9,8.7-1.3,13.5-1.3c4,0,7.8,0.5,11.2,1.3h35.4c-2.2-2.2-4.7-4.2-7.2-6h-80.8
		C529,25.8,526.5,27.8,524.2,30z"/>
	<rect x="1340.2" y="24" width="18.6" height="6"/>
	<rect x="665.8" y="24" width="19" height="6"/>
	<path d="M1714.1,48v6h18.2c-0.1-2-0.1-4-0.2-6H1714.1z"/>
	<polygon points="1744,72 1746.4,78 1765.7,78 1763.4,72 	"/>
	<path d="M1714.1,66h18.5c0-1.8-0.1-3.8-0.1-6h-18.4V66z"/>
	<rect x="1393.8" y="24" width="19" height="6"/>
	<path d="M1739.5,60c0.8,2.2,1.5,4.2,2.2,6h19.3l-2.3-6H1739.5z"/>
	<rect x="1660.6" y="48" width="19" height="6"/>
	<rect x="1660.6" y="36" width="19" height="6"/>
	<rect x="1486.5" y="24" width="18.8" height="6"/>
	<rect x="1540.2" y="24" width="94.6" height="6"/>
	<rect x="1660.6" y="24" width="19" height="6"/>
	<path d="M164.4,126c-1.1-1.9-2.1-3.9-3-6h-21.5c0.8,2.1,1.6,4.1,2.5,6H164.4z"/>
	<path d="M269.2,288h-23c2.5,1.5,4.4,3.5,5.7,6h20C271.2,291.8,270.3,289.8,269.2,288z"/>
	<rect x="529.4" y="216" width="19" height="6"/>
	<path d="M1709.4,245.9l20.5-3.9c-0.2-0.7-0.4-1.3-0.6-2h-22C1708.2,241.9,1708.8,243.9,1709.4,245.9z"/>
	<path d="M768,222c3.5-2.6,7.6-4.6,12.1-6h-31.7c-1.9,1.9-3.6,3.9-5.2,6H768z"/>
	<path d="M1598.3,282h21.1c-0.2-1.9-0.3-3.9-0.4-6H1598C1598,278,1598.2,280,1598.3,282z"/>
	<path d="M1693.5,324c-6.4,3.6-14.5,5.4-24.1,5.4c-11.1,0-20.4-1.6-27.7-5.4h-27.5c1.9,2.2,3.9,4.2,6,6h88.1c1.9-1.8,3.6-3.8,5.1-6
		H1693.5z"/>
	<path d="M1269.9,222h25c-1.6-2.1-3.3-4.1-5.2-6h-31C1263,217.4,1266.7,219.4,1269.9,222z"/>
	<path d="M825.1,222H852c-1.6-2.1-3.2-4.1-5.1-6h-32.9C818.2,217.5,821.9,219.5,825.1,222z"/>
	<path d="M1478.9,222c3.4-2.4,7.6-4.5,12.5-6H1459c-1.9,1.9-3.6,3.9-5.2,6H1478.9z"/>
	<path d="M1210.6,222c3.4-2.4,7.6-4.5,12.5-6h-32.4c-1.9,1.9-3.6,3.9-5.2,6H1210.6z"/>
	<polygon points="1058.9,210 1055.1,204 1032.1,204 1032.1,210 	"/>
	<polygon points="1764.9,210 1761.3,204 1739.5,204 1743.3,210 	"/>
	<polygon points="127.3,336 129.6,342 149.5,342 147.1,336 	"/>
	<path d="M257.6,336c0.8,2.2,1.8,4.1,3,6H282c-1.6-1.9-2.8-3.9-3.9-6H257.6z"/>
	<polygon points="1118.1,336 1121.9,342 1143.6,342 1143.6,336 	"/>
	<path d="M759.5,336c4.4,2.5,9.3,4.5,14.5,6h46.9c5.1-1.5,9.8-3.5,14.2-6H759.5z"/>
	<path d="M1608.4,228c-1.1,1.9-2.2,3.9-3.1,6h21.5c0.9-1.6,1.8-3.1,2.8-4.5c0.4-0.5,0.8-1,1.2-1.5H1608.4z"/>
	<path d="M264.1,210c-3.3-2.6-7.1-4.5-11.2-6h-83v6H264.1z"/>
	<path d="M1201.8,336c4.4,2.5,9.3,4.5,14.5,6h47c5.1-1.5,9.8-3.5,14.1-6H1201.8z"/>
	<polygon points="123.1,276 104.4,276 106.7,282 125.5,282 	"/>
	<path d="M108.7,240H90.5c0.1,0.2,0.1,0.4,0.2,0.6l2.1,5.4h18.3L108.7,240z"/>
	<polygon points="1076.5,270 1097.2,270 1093.4,264 1072.7,264 	"/>
	<path d="M728.6,270H750c0-2.1,0.1-4.1,0.2-6h-21.3C728.7,266,728.6,268,728.6,270z"/>
	<rect x="1032.1" y="264" width="18.6" height="6"/>
	<rect x="1125" y="264" width="18.6" height="6"/>
	<path d="M750.4,282c-0.2-1.9-0.3-3.9-0.3-6h-21.3c0.1,2,0.2,4,0.4,6H750.4z"/>
	<rect x="1032.1" y="276" width="18.6" height="6"/>
	<rect x="1125" y="276" width="18.6" height="6"/>
	<path d="M1192.4,276h-21.4c0.1,2,0.2,4,0.4,6h21.4C1192.6,280.1,1192.5,278.1,1192.4,276z"/>
	<polygon points="1101,276 1080.3,276 1084.1,282 1104.8,282 	"/>
	<rect x="529.4" y="240" width="19" height="6"/>
	<rect x="529.4" y="300" width="19" height="6"/>
	<rect x="438.4" y="300" width="14" height="6"/>
	<path d="M253.9,258h20.2c0.8-1.9,1.4-3.9,1.9-6h-18.9C256.4,254.3,255.2,256.3,253.9,258z"/>
	<rect x="342" y="252" width="19" height="6"/>
	<path d="M1577.4,282c0.2-2,0.3-4,0.4-6h-21.3c-0.1,2.1-0.2,4.1-0.4,6H1577.4z"/>
	<rect x="885.6" y="264" width="111.5" height="6"/>
	<polygon points="997.2,282 997.2,276 885.6,276 885.6,282 904.7,282 904.7,278.7 978.3,278.7 978.3,282 	"/>
	<rect x="438.4" y="240" width="14" height="6"/>
	<rect x="438.4" y="231.4" width="14" height="2.6"/>
	<path d="M846.2,18h58.7c-8.7-3.6-18.4-5.4-28.9-5.4C864.8,12.6,854.8,14.5,846.2,18z"/>
	<rect x="32.4" y="36" width="18.8" height="6"/>
	<rect x="32.4" y="15" width="18.8" height="3"/>
	<rect x="32.4" y="24" width="18.8" height="6"/>
	<path d="M174.3,18H233c-8.7-3.6-18.4-5.4-28.9-5.4C192.9,12.6,182.9,14.5,174.3,18z"/>
	<rect x="32.4" y="72" width="18.8" height="6"/>
	<rect x="32.4" y="48" width="18.8" height="6"/>
	<rect x="32.4" y="84" width="18.8" height="6"/>
	<path d="M542.8,18h58.7c-8.7-3.6-18.4-5.4-28.9-5.4C561.4,12.6,551.4,14.5,542.8,18z"/>
	<rect x="32.4" y="60" width="18.8" height="6"/>
	<path d="M1002.4,18h58.7c-8.7-3.6-18.4-5.4-28.9-5.4C1021,12.6,1011,14.5,1002.4,18z"/>
	<polygon points="1247.3,15 1247.3,18 1269.5,18 1267.6,15 	"/>
	<rect x="1340.2" y="15" width="18.6" height="3"/>
	<rect x="1393.8" y="15" width="19" height="3"/>
	<rect x="1486.5" y="15" width="18.8" height="3"/>
	<rect x="32.4" y="96" width="18.8" height="6"/>
	<rect x="1540.2" y="15" width="94.6" height="3"/>
	<rect x="1127.4" y="15" width="94.6" height="3"/>
	<rect x="761.3" y="15" width="19" height="3"/>
	<rect x="665.8" y="15" width="19" height="3"/>
	<path d="M1842.6,60c-0.1,2.2-0.1,4.2-0.1,6h18.5v-6H1842.6z"/>
	<path d="M1825.6,36l-2.3,6h18.9c0.4-1,0.7-2,1.1-3.1h0.2c-0.1,1-0.1,2-0.2,3.1h17.7v-6H1825.6z"/>
	<path d="M1766.4,246h20.2c-1.6-2.7-2.7-4.7-3.2-5.4l-0.3-0.6h-20.5L1766.4,246z"/>
	<polygon points="1817.9,234 1838.8,234 1842.7,228 1821.5,228 	"/>
	<polygon points="1830.2,24 1827.9,30 1861,30 1861,24 	"/>
	<polygon points="1785.6,276 1789.2,281.6 1789.2,282 1808.3,282 1808.3,281.6 1811.9,276 	"/>
	<polygon points="1715.3,336 1715.8,342 1731.4,342 1731.4,336 	"/>
	<path d="M1628.7,336c4.4,2.5,9.3,4.5,14.5,6h45c4.6-1.5,8.8-3.5,12.6-6H1628.7z"/>
	<rect x="1789.2" y="324" width="19" height="6"/>
	<rect x="32.4" y="108" width="18.8" height="6"/>
	<rect x="1669" y="266.9" width="62.4" height="3.1"/>
	<rect x="32.4" y="132" width="18.8" height="6"/>
	<rect x="1842.4" y="156" width="18.6" height="1.9"/>
	<rect x="32.4" y="144" width="94.6" height="6"/>
	<path d="M1843,48c-0.1,2-0.2,4-0.2,6h18.2v-6H1843z"/>
	<rect x="32.4" y="120" width="18.8" height="6"/>
	<rect x="1842.4" y="144" width="18.6" height="6"/>
	<path d="M1470.1,336c4.4,2.5,9.3,4.5,14.5,6h47c5.1-1.5,9.8-3.5,14.1-6H1470.1z"/>
	<rect x="1842.4" y="84" width="18.6" height="6"/>
	<rect x="1842.4" y="96" width="18.6" height="6"/>
	<rect x="1033.9" y="84" width="62.4" height="6"/>
	<path d="M829.7,108h-21.1c0.4,2.1,0.9,4.1,1.4,6h21.2C830.6,112.1,830.1,110.1,829.7,108z"/>
	<path d="M940.1,108h-19.4c-0.3,2.1-0.6,4.1-1,6h20.4V108z"/>
	<path d="M780.3,110.8V108h-19v2.8c0,1.1-0.1,2.2-0.1,3.2h19.1C780.3,112.9,780.3,111.9,780.3,110.8z"/>
	<path d="M636.7,114v-6h-19.4c-0.3,2.1-0.6,4.1-1,6H636.7z"/>
	<path d="M684.9,110.8V108h-19v2.8c0,1.1,0,2.2,0.1,3.2H685C684.9,112.9,684.9,111.9,684.9,110.8z"/>
	<rect x="1247.3" y="108" width="18.6" height="6"/>
	<rect x="574.3" y="84" width="62.4" height="6"/>
	<rect x="1127.4" y="108" width="18.8" height="6"/>
	<path d="M985.8,108h-21.1c0.4,2.1,0.9,4.1,1.4,6h21.2C986.8,112.1,986.3,110.1,985.8,108z"/>
	<path d="M1096.2,108h-19.4c-0.3,2.1-0.6,4.1-1,6h20.4V108z"/>
	<rect x="1247.3" y="96" width="18.6" height="6"/>
	<path d="M1247.3,78h18.6v-2.4c0-0.7,0-2,0-3.6h-18.6V78z"/>
	<polygon points="1290.9,84 1294.7,90 1315.4,90 1311.6,84 	"/>
	<polygon points="1283.4,72 1287.1,78 1307.8,78 1303.9,72 	"/>
	<path d="M1326.7,108H1306l3.8,6h20.4C1329,111.9,1327.9,109.9,1326.7,108z"/>
	<polygon points="1127.4,72 1127.4,78 1214.2,78 1214.2,77.5 1146.2,77.5 1146.2,72 	"/>
	<rect x="665.8" y="72" width="19" height="6"/>
	<rect x="761.3" y="72" width="19" height="6"/>
	<path d="M806.9,78H828c0.1-2.1,0.3-4.1,0.6-6h-21C807.3,74,807,76,806.9,78z"/>
	<path d="M963,78h21.1c0.1-2.1,0.3-4.1,0.6-6h-21C963.4,74,963.2,76,963,78z"/>
	<path d="M524.6,78c0.1-2.1,0.3-4.1,0.6-6h-21c-0.3,2-0.5,4-0.7,6H524.6z"/>
	<path d="M808.6,66h21c0.4-2.1,0.9-4.1,1.5-6h-21C809.5,62,809,64,808.6,66z"/>
	<path d="M1074.3,61.1l6-1.1h-6.4C1074,60.4,1074.2,60.8,1074.3,61.1z"/>
	<path d="M964.7,66h21c0.4-2.1,0.9-4.1,1.5-6h-21C965.7,62,965.2,64,964.7,66z"/>
	<rect x="761.3" y="60" width="19" height="6"/>
	<path d="M1358.8,108h-18.5c0,1.9,0.1,3.9,0.1,6h18.3V108z"/>
	<rect x="1127.4" y="96" width="18.8" height="6"/>
	<rect x="665.8" y="60" width="19" height="6"/>
	<path d="M505.2,66h21c0.4-2.1,0.9-4.1,1.5-6h-21C506.1,62,505.6,64,505.2,66z"/>
	<path d="M614.7,61.1l6-1.1h-6.4C614.5,60.4,614.6,60.8,614.7,61.1z"/>
	<path d="M918.1,61.1l6-1.1h-6.4C917.9,60.4,918,60.8,918.1,61.1z"/>
	<rect x="1486.5" y="96" width="18.8" height="6"/>
	<rect x="1486.5" y="108" width="18.8" height="6"/>
	<rect x="1393.8" y="84" width="111.5" height="6"/>
	<rect x="1393.8" y="108" width="19" height="6"/>
	<rect x="1127.4" y="60" width="18.8" height="6"/>
	<path d="M1279.8,66h20.3l-3.8-6h-19.9C1277.6,62.2,1278.7,64.2,1279.8,66z"/>
	<path d="M1247.3,66h18.5c0-1.9-0.1-3.9-0.2-6h-18.3V66z"/>
	<rect x="1340.2" y="72" width="18.6" height="6"/>
	<rect x="1340.2" y="84" width="18.6" height="6"/>
	<path d="M604.3,42h24.6c-1.2-2.1-2.5-4.1-4-6h-27.4C600.1,37.8,602.3,39.8,604.3,42z"/>
	<path d="M996.9,132h-23.1c1.3,2.1,2.7,4.1,4.2,6h26.2C1001.5,136.3,999,134.4,996.9,132z"/>
	<rect x="1540.2" y="132" width="18.8" height="6"/>
	<rect x="1127.4" y="132" width="18.8" height="6"/>
	<path d="M1063.9,42h24.6c-1.2-2.1-2.5-4.1-4-6h-27.4C1059.7,37.8,1061.9,39.8,1063.9,42z"/>
	<path d="M840.7,42c2.1-2.3,4.5-4.3,7.1-6h-25.7c-1.5,1.9-2.9,3.9-4.2,6H840.7z"/>
	<path d="M840.7,132h-23.1c1.3,2.1,2.7,4.1,4.2,6h26.2C845.3,136.3,842.9,134.4,840.7,132z"/>
	<path d="M1096.2,102v-6h-62.4v3.5h43.5c0,0.8,0,1.7-0.1,2.5H1096.2z"/>
	<polygon points="1540.2,72 1540.2,78 1627.1,78 1627.1,77.5 1559.1,77.5 1559.1,72 	"/>
	<path d="M537.3,132h-23.1c1.3,2.1,2.7,4.1,4.2,6h26.2C541.9,136.3,539.5,134.4,537.3,132z"/>
	<path d="M525.2,102c-0.3-1.9-0.5-3.9-0.6-6h-21.1c0.2,2,0.4,4,0.6,6H525.2z"/>
	<path d="M268.1,102v-6h-62.4v3.5h43.5c0,0.8,0,1.7-0.1,2.5H268.1z"/>
	<rect x="1842.4" y="132" width="18.6" height="6"/>
	<rect x="32.4" y="156" width="94.6" height="1.9"/>
	<polygon points="1832.5,18 1861,18 1861,15 1833.6,15 	"/>
	<path d="M268.1,126v-6H246c-0.8,2.1-1.6,4.1-2.7,6H268.1z"/>
	<path d="M268.1,138v-6h-28.9c-2,2.3-4.3,4.3-6.9,6H268.1z"/>
	<path d="M1765.3,126h18.3c-0.7-1.9-1.4-3.9-2.1-6H1763L1765.3,126z"/>
	<path d="M524.3,86.5c0-0.8,0-1.6,0-2.5h-21.1c0,0.8,0,1.6,0,2.5c0,1.2,0,2.4,0.1,3.5h21.1C524.3,88.8,524.3,87.7,524.3,86.5z"/>
	<path d="M256.4,36H229c2.5,1.8,4.8,3.8,6.8,6h24.6C259.2,39.9,257.8,37.9,256.4,36z"/>
	<path d="M1812.2,120h-18.4c-0.7,2.1-1.4,4.1-2.1,6h18.1L1812.2,120z"/>
	<polygon points="405.1,120 411.2,126 418.5,126 424.8,120 	"/>
	<rect x="665.8" y="96" width="19" height="6"/>
	<rect x="665.8" y="84" width="19" height="6"/>
	<rect x="761.3" y="84" width="19" height="6"/>
	<path d="M806.6,84c0,0.8,0,1.6,0,2.5c0,1.2,0,2.4,0.1,3.5h21.1c0-1.2,0-2.3,0-3.5c0-0.8,0-1.6,0-2.5H806.6z"/>
	<path d="M940.1,102v-6h-62.4v3.5h43.5c0,0.8,0,1.7-0.1,2.5H940.1z"/>
	<path d="M984.2,96h-21.1c0.2,2,0.4,4,0.6,6h21.1C984.6,100.1,984.4,98.1,984.2,96z"/>
	<rect x="877.7" y="84" width="62.4" height="6"/>
	<rect x="1340.2" y="60" width="18.6" height="6"/>
	<rect x="761.3" y="96" width="19" height="6"/>
	<path d="M828,96h-21.1c0.2,2,0.4,4,0.6,6h21.1C828.4,100.1,828.2,98.1,828,96z"/>
	<path d="M636.7,102v-6h-62.4v3.5h43.5c0,0.8,0,1.7-0.1,2.5H636.7z"/>
	<rect x="1393.8" y="96" width="19" height="6"/>
	<path d="M1340.2,97.3c0,1.1,0,2.8,0,4.7h18.6v-6h-18.6V97.3z"/>
	<rect x="1393.8" y="60" width="19" height="6"/>
	<path d="M1171.2,264c-0.1,2-0.2,4-0.2,6h21.3c0-2,0.1-4,0.2-6H1171.2z"/>
	<path d="M962.8,84c0,0.8,0,1.6,0,2.5c0,1.2,0,2.4,0.1,3.5h21.1c0-1.2,0-2.3,0-3.5c0-0.8,0-1.6,0-2.5H962.8z"/>
	<rect x="1247.3" y="84" width="18.6" height="6"/>
	<path d="M1302.3,102h20.8c-0.1-0.2-0.3-0.4-0.4-0.6l-3.4-5.4h-20.7L1302.3,102z"/>
	<rect x="1127.4" y="84" width="86.8" height="6"/>
	<path d="M155.8,86.5c0-0.8,0-1.6,0-2.5h-21.1c0,0.8,0,1.6,0,2.5c0,1.2,0,2.4,0.1,3.5h21.1C155.8,88.8,155.8,87.7,155.8,86.5z"/>
	<rect x="1660.6" y="120" width="19" height="6"/>
	<rect x="1660.6" y="108" width="19" height="6"/>
	<rect x="1714.1" y="108" width="18.6" height="6"/>
	<rect x="1660.6" y="132" width="19" height="6"/>
	<rect x="1486.5" y="132" width="18.8" height="6"/>
	<rect x="1660.6" y="72" width="19" height="6"/>
	<rect x="1714.1" y="72" width="18.6" height="6"/>
	<rect x="1660.6" y="60" width="19" height="6"/>
	<rect x="1393.8" y="132" width="19" height="6"/>
	<rect x="1714.1" y="84" width="18.6" height="6"/>
	<rect x="1714.1" y="96" width="18.6" height="6"/>
	<polygon points="362.4,126 368.5,120 348.8,120 355,126 	"/>
	<path d="M692.2,132h-22.7c0.8,2.1,1.8,4.1,3,6h26.9C696.7,136.3,694.3,134.3,692.2,132z"/>
	<path d="M636.7,132h-28.9c-2,2.3-4.3,4.3-6.9,6h35.8V132z"/>
	<polygon points="374.7,114 380.8,108 360.9,108 354.8,114 	"/>
	<path d="M1358.8,132h-17.7c0,0.6,0.1,1.1,0.1,1.6h-0.2c-0.3-0.5-0.6-1.1-0.9-1.6h-19l3.8,6h33.9V132z"/>
	<path d="M1096.2,132h-28.9c-2,2.3-4.3,4.3-6.9,6h35.8V132z"/>
	<rect x="1247.3" y="132" width="18.6" height="6"/>
	<path d="M940.1,132h-28.9c-2,2.3-4.3,4.3-6.9,6h35.8V132z"/>
	<path d="M776.6,132h-22.8c-2.1,2.3-4.5,4.3-7.2,6h27C774.7,136.1,775.7,134.1,776.6,132z"/>
	<polygon points="406.6,102 400.5,96 373.2,96 367.1,102 	"/>
	<path d="M265.7,54c-0.7-2.1-1.4-4.1-2.3-6h-23.1c1.2,1.9,2.3,3.9,3.2,6H265.7z"/>
	<rect x="1540.2" y="60" width="18.8" height="6"/>
	<path d="M252.2,60h-6.4c0.1,0.4,0.2,0.8,0.3,1.1L252.2,60z"/>
	<rect x="761.3" y="36" width="19" height="6"/>
	<rect x="665.8" y="36" width="19" height="6"/>
	<rect x="205.8" y="84" width="62.4" height="6"/>
	<path d="M268.1,114v-6h-19.4c-0.3,2.1-0.6,4.1-1,6H268.1z"/>
	<polygon points="363.4,60 353.7,60 348.7,65 349.7,66 369.6,66 	"/>
	<polygon points="381.9,78 375.7,72 355.9,72 362.1,78 	"/>
	<path d="M514.5,42h22.8c2.1-2.3,4.5-4.3,7.1-6h-25.7C517.2,37.9,515.8,39.9,514.5,42z"/>
	<rect x="1393.8" y="36" width="19" height="6"/>
	<rect x="1540.2" y="36" width="18.8" height="6"/>
	<path d="M527.8,114c-0.6-1.9-1.1-3.9-1.5-6h-21.1c0.4,2.1,0.9,4.1,1.4,6H527.8z"/>
	<rect x="1540.2" y="48" width="18.8" height="6"/>
	<path d="M974.1,42h22.8c2.1-2.3,4.5-4.3,7.1-6h-25.7C976.8,37.9,975.4,39.9,974.1,42z"/>
	<path d="M907.7,42h24.6c-1.2-2.1-2.5-4.1-4-6H901C903.5,37.8,905.7,39.8,907.7,42z"/>
	<rect x="1127.4" y="36" width="18.8" height="6"/>
	<rect x="1340.2" y="36" width="18.6" height="6"/>
	<path d="M1247.3,42h17.7c0-0.9-0.1-1.8-0.1-2.7h0.2c0.5,0.9,0.9,1.8,1.4,2.7h18.3l-3.8-6h-33.7V42z"/>
	<rect x="1486.5" y="36" width="18.8" height="6"/>
	<path d="M1358.8,120h-18.1c0.1,2,0.1,4,0.2,6h17.9V120z"/>
	<rect x="1393.8" y="120" width="19" height="6"/>
	<path d="M1333.6,120h-20l3.8,6h19.5C1335.8,124,1334.7,122,1333.6,120z"/>
	<rect x="1127.4" y="120" width="18.8" height="6"/>
	<rect x="1247.3" y="120" width="18.6" height="6"/>
	<rect x="1486.5" y="120" width="18.8" height="6"/>
	<rect x="1660.6" y="96" width="19" height="6"/>
	<rect x="1540.2" y="120" width="18.8" height="6"/>
	<rect x="1540.2" y="96" width="18.8" height="6"/>
	<rect x="1540.2" y="108" width="18.8" height="6"/>
	<path d="M940.1,120h-22.1c-0.8,2.1-1.6,4.1-2.7,6h24.8V120z"/>
	<path d="M636.7,120h-22.1c-0.8,2.1-1.6,4.1-2.7,6h24.8V120z"/>
	<path d="M529.9,120h-21.5c0.8,2.1,1.6,4.1,2.5,6h22C531.8,124.1,530.8,122.1,529.9,120z"/>
	<polygon points="374.5,90 399.3,90 405.4,84 368.3,84 	"/>
	<path d="M1096.2,120h-22.1c-0.8,2.1-1.6,4.1-2.7,6h24.8V120z"/>
	<polygon points="398.9,114 418.8,114 412.7,108 392.8,108 	"/>
	<path d="M989.5,120H968c0.8,2.1,1.6,4.1,2.5,6h22C991.4,124.1,990.4,122.1,989.5,120z"/>
	<rect x="1660.6" y="84" width="19" height="6"/>
	<path d="M833.3,120h-21.5c0.8,2.1,1.6,4.1,2.5,6h22C835.2,124.1,834.2,122.1,833.3,120z"/>
	<path d="M779.7,120h-19.6c-0.6,2.1-1.3,4.1-2.2,6h20.6C779,124.1,779.4,122.1,779.7,120z"/>
	<path d="M686,120h-19.6c0.3,2.1,0.7,4.1,1.2,6h20.6C687.3,124.1,686.5,122.1,686,120z"/>
	<rect x="665.8" y="48" width="19" height="6"/>
	<rect x="761.3" y="48" width="19" height="6"/>
	<path d="M812,54h21.2c0.9-2.1,1.9-4.1,3.1-6h-21.6C813.7,49.9,812.8,51.9,812,54z"/>
	<path d="M915.5,54h22.1c-0.7-2.1-1.4-4.1-2.3-6h-23.1C913.5,49.9,914.6,51.9,915.5,54z"/>
	<path d="M612.1,54h22.1c-0.7-2.1-1.4-4.1-2.3-6h-23.1C610.1,49.9,611.2,51.9,612.1,54z"/>
	<polygon points="423.9,66 424.9,65 419.8,60 410.1,60 404,66 	"/>
	<path d="M968.2,54h21.2c0.9-2.1,1.9-4.1,3.1-6h-21.6C969.8,49.9,969,51.9,968.2,54z"/>
	<polygon points="411.6,78 417.7,72 397.8,72 391.7,78 	"/>
	<path d="M508.6,54h21.2c0.9-2.1,1.9-4.1,3.1-6h-21.6C510.3,49.9,509.4,51.9,508.6,54z"/>
	<rect x="1486.5" y="60" width="18.8" height="6"/>
	<rect x="1540.2" y="84" width="86.8" height="6"/>
	<rect x="1486.5" y="48" width="18.8" height="6"/>
	<path d="M1071.7,54h22.1c-0.7-2.1-1.4-4.1-2.3-6h-23.1C1069.7,49.9,1070.7,51.9,1071.7,54z"/>
	<polygon points="1486.5,77.5 1412.8,77.5 1412.8,72 1393.8,72 1393.8,78 1505.3,78 1505.3,72 1486.5,72 	"/>
	<rect x="1393.8" y="48" width="19" height="6"/>
	<path d="M1247.3,54h18.1c-0.1-2-0.1-4-0.2-6h-17.9V54z"/>
	<rect x="1127.4" y="48" width="18.8" height="6"/>
	<path d="M1273,54h19.4l-3.8-6h-18.9C1270.8,50,1271.9,52,1273,54z"/>
	<rect x="1340.2" y="48" width="18.6" height="6"/>
	<rect x="1842.4" y="72" width="18.6" height="6"/>
	<rect x="478.2" y="444" width="18.8" height="6"/>
	<path d="M288.7,468l-0.6,2.4c-0.3,1.2-0.5,2.4-0.8,3.6h16.9l1.6-6H288.7z"/>
	<path d="M178.5,510h29.7l1.7-6h-16c-0.1,0.5-0.3,1-0.4,1.5h-0.2c-0.1-0.5-0.2-1-0.3-1.5h-16.1L178.5,510z"/>
	<path d="M563.7,510h19.4c-0.3-1.9-0.5-3.9-0.7-6h-19C563.4,506.2,563.6,508.2,563.7,510z"/>
	<path d="M301.1,486l1.6-6H286c-0.5,2.1-0.9,4.1-1.3,6H301.1z"/>
	<path d="M218.6,474l1.7-6h-16.7l-0.7,2.4c-0.3,1.2-0.7,2.4-1,3.6H218.6z"/>
	<polygon points="165.1,384.4 145,384.4 146.5,390 166.4,390 	"/>
	<polygon points="357,444 354.6,450 373,450 375.2,444 	"/>
	<polygon points="294.3,444 292.9,450 310.7,450 312.3,444 	"/>
	<polygon points="361.8,432 359.4,438 377.5,438 379.8,432 	"/>
	<polygon points="291.5,456 290.1,462 307.5,462 309.1,456 	"/>
	<path d="M564.6,516c0.5,2.3,1.1,4.2,1.8,6h20.7c-1.1-1.9-1.9-3.9-2.6-6H564.6z"/>
	<polygon points="433.8,516 436.1,522 455.9,522 453.5,516 	"/>
	<path d="M616.9,522h80.2c4.1-1.6,8-3.6,11.5-6h-91.7V522z"/>
	<path d="M478.2,402H497v-1.6h30.8c7,0,14.5,0,21,1.6h30.3c-1.5-2.3-3.3-4.3-5.2-6h-95.7V402z"/>
	<polygon points="266.8,516 268.6,522 291.5,522 293.1,516 	"/>
	<rect x="616.9" y="504" width="18.8" height="6"/>
	<polygon points="125.5,516 127.8,522 147.6,522 145.2,516 	"/>
	<path d="M106.9,420H88.8c0.7,1.8,1.4,3.6,2,5.3L91,426h18.2L106.9,420z"/>
	<polygon points="180.1,516 181.7,522 204.7,522 206.5,516 	"/>
	<polygon points="370.7,456 352.2,456 349.8,462 368.4,462 	"/>
	<polygon points="444,492 424.5,492 426.8,498 446.4,498 	"/>
	<rect x="478.2" y="492" width="18.8" height="6"/>
	<polygon points="357.1,492 337.7,492 335.3,498 354.8,498 	"/>
	<rect x="478.2" y="480" width="18.8" height="6"/>
	<polygon points="410.9,456 413.2,462 432,462 429.6,456 	"/>
	<path d="M299.5,492h-16.1c-0.5,2.1-0.9,4.1-1.3,6h15.8L299.5,492z"/>
	<polygon points="340.1,486 359.4,486 359.9,484.7 421.7,484.7 422.2,486 441.6,486 439.2,480 342.5,480 	"/>
	<polygon points="406.3,444 408.6,450 427.2,450 424.8,444 	"/>
	<polygon points="415.5,468 415.6,468.4 366,468.4 366.1,468 347.3,468 344.9,474 436.8,474 434.4,468 	"/>
	<polygon points="265,450 263.3,444 245.7,444 247.5,450 	"/>
	<path d="M261.6,438l-1.7-6h-17.6c0.5,2,1.1,4,1.7,6H261.6z"/>
	<path d="M212.1,438h17c0.6-2.1,1.1-4.1,1.6-6h-16.9L212.1,438z"/>
	<path d="M240.6,426h17.5l-1.7-6H239C239.5,421.9,240.1,423.9,240.6,426z"/>
	<polygon points="299.8,420 298.4,426 317.1,426 318.7,420 	"/>
	<path d="M278.3,498c-0.5-1.9-1-3.9-1.6-6h-16.9l1.8,6H278.3z"/>
	<path d="M275.1,486c-0.5-1.9-1.1-3.9-1.6-6h-17.2l1.8,6H275.1z"/>
	<path d="M271.8,474c-0.3-1.2-0.7-2.4-1-3.6l-0.7-2.4h-17.4l1.8,6H271.8z"/>
	<polygon points="295.7,438 313.9,438 315.5,432 297,432 	"/>
	<polygon points="268.4,462 266.7,456 249.2,456 251,462 	"/>
	<rect x="1337" y="336" width="94.6" height="6"/>
	<rect x="1669" y="276" width="62.4" height="6"/>
	<path d="M1597.9,270h21.1c0-2.1,0.1-4.1,0.2-6h-21.1C1598,266,1597.9,268,1597.9,270z"/>
	<path d="M1814.3,240l-0.3,0.6c-1.1,1.8-2.1,3.6-3.2,5.4h20.4l3.8-6H1814.3z"/>
	<path d="M1708.8,306h22.6v-6h-20.7C1710.2,302.1,1709.5,304.1,1708.8,306z"/>
	<path d="M1712.4,288c-0.1,2.1-0.3,4.1-0.6,6h19.6v-6H1712.4z"/>
	<polygon points="1832.4,210 1854.2,210 1858.1,204 1836,204 	"/>
	<polygon points="1825.2,222 1846.5,222 1850.4,216 1828.8,216 	"/>
	<rect x="1789.2" y="300" width="19" height="6"/>
	<path d="M1790.1,252h-19.8l3.8,6h19.5C1792.4,256,1791.2,253.9,1790.1,252z"/>
	<polygon points="1754.9,228 1758.7,234 1779.4,234 1775.8,228 	"/>
	<rect x="478.2" y="432" width="18.8" height="6"/>
	<rect x="1789.2" y="312" width="19" height="6"/>
	<rect x="617.9" y="336" width="94.6" height="6"/>
	<rect x="885.6" y="336" width="19" height="6"/>
	<rect x="342" y="336" width="19" height="6"/>
	<rect x="529.4" y="336" width="19" height="6"/>
	<polygon points="1714.3,324 1714.8,330 1731.4,330 1731.4,324 	"/>
	<rect x="978.3" y="336" width="18.8" height="6"/>
	<path d="M1655.8,198h22.7c-3.6-0.5-7.3-0.7-11.1-0.7C1663.3,197.3,1659.5,197.5,1655.8,198z"/>
	<rect x="1032.1" y="336" width="18.6" height="6"/>
	<path d="M1599.6,252c-0.4,2-0.7,4-0.9,6h21c0.2-2.1,0.5-4.1,0.9-6H1599.6z"/>
	<polygon points="40.1,330 42.4,324 22.7,324 20.3,330 	"/>
	<polygon points="44.7,318 47,312 27.5,312 25.1,318 	"/>
	<polygon points="35.5,342 37.8,336 17.9,336 15.5,342 	"/>
	<polygon points="49.3,306 51.6,300 32.3,300 29.9,306 	"/>
	<rect x="1789.2" y="288" width="19" height="6"/>
	<rect x="1789.2" y="336" width="19" height="6"/>
	<path d="M1807.2,252c-1.1,1.9-2.3,3.9-3.5,6h19.7l3.8-6H1807.2z"/>
	<path d="M1800.3,264c-0.5,0.9-1.1,1.9-1.7,2.9c-0.5-0.9-1.1-1.9-1.6-2.9h-19.1l3.8,6h33.9l3.8-6H1800.3z"/>
	<polygon points="130.3,294 127.9,288 37.1,288 34.7,294 	"/>
	<path d="M1497.2,198h22.9c-3.6-0.5-7.4-0.7-11.3-0.7C1504.7,197.3,1500.8,197.5,1497.2,198z"/>
	<polygon points="96.7,210 94.3,204 70.8,204 68.4,210 	"/>
	<path d="M786.6,198h22.7c-3.6-0.5-7.4-0.7-11.2-0.7C794.1,197.3,790.2,197.5,786.6,198z"/>
	<path d="M1228.9,198h22.9c-3.6-0.5-7.4-0.7-11.3-0.7C1236.4,197.3,1232.6,197.5,1228.9,198z"/>
	<polygon points="58.3,282 60.6,276 41.9,276 39.5,282 	"/>
	<path d="M80.7,222c0.5-1.5,1-3,1.5-4.5h0.2c0.5,1.4,1,2.9,1.6,4.5h17.6l-2.4-6H66l-2.4,6H80.7z"/>
	<path d="M76.4,234c0.8-2.1,1.5-4.1,2.1-6H61.2l-2.4,6H76.4z"/>
	<polygon points="62.9,270 65.1,264 46.8,264 44.4,270 	"/>
	<polygon points="67.4,258 69.7,252 51.6,252 49.2,258 	"/>
	<path d="M72,246l2.1-5.4c0.1-0.2,0.1-0.4,0.2-0.6H56.4l-2.4,6H72z"/>
	<rect x="478.2" y="420" width="18.8" height="6"/>
	<rect x="616.9" y="444" width="18.8" height="6"/>
	<path d="M564.5,414h19.8c-0.5-2.1-1.1-4.1-1.9-6h-22C562,409.6,563.4,411.6,564.5,414z"/>
	<rect x="616.9" y="432" width="18.8" height="6"/>
	<path d="M478.2,384.4v5.6h86.2c-10.9-4.8-24.4-5.6-36.6-5.6H478.2z"/>
	<rect x="616.9" y="420" width="18.8" height="6"/>
	<rect x="616.9" y="408" width="18.8" height="6"/>
	<polygon points="227.1,384.4 225.5,390 247.9,390 246.3,384.4 	"/>
	<polygon points="99.7,402 97.3,396 67.9,396 65.5,402 	"/>
	<polygon points="380.9,384.4 378.6,390 403.2,390 401,384.4 	"/>
	<polygon points="306.8,390 326.7,390 328.1,384.4 308,384.4 	"/>
	<polygon points="142.8,510 140.4,504 120.8,504 123.2,510 	"/>
	<path d="M680.2,510h35.9c2-1.9,3.8-3.9,5.5-6h-25.5C691.8,506.7,686.4,508.8,680.2,510z"/>
	<rect x="478.2" y="516" width="18.8" height="6"/>
	<polygon points="328.1,516 325.7,522 345.7,522 348,516 	"/>
	<rect x="616.9" y="456" width="18.8" height="6"/>
	<polygon points="72.5,384.4 70.3,390 94.9,390 92.6,384.4 	"/>
	<rect x="616.9" y="468" width="18.8" height="6"/>
	<rect x="616.9" y="480" width="18.8" height="6"/>
	<path d="M704.4,496.3c-0.4,0.6-0.8,1.1-1.3,1.7h22.7c1.2-1.9,2.2-3.9,3.2-6h-21.8C706.3,493.5,705.4,494.9,704.4,496.3z"/>
	<rect x="616.9" y="492" width="18.8" height="6"/>
	<path d="M616.9,384.4v5.6h80.4c-8.8-3.6-19.1-5.6-30.6-5.6H616.9z"/>
	<path d="M714.8,456c0,2.1,0,4.1-0.1,6H736c0.1-2,0.2-4,0.2-6H714.8z"/>
	<path d="M714.3,444c0.2,1.9,0.3,3.9,0.4,6H736c-0.1-2-0.3-4-0.5-6H714.3z"/>
	<path d="M712.2,432c0.5,1.9,1,3.9,1.3,6h21.1c-0.4-2-0.8-4-1.4-6H712.2z"/>
	<path d="M714.3,468c-0.2,2.1-0.5,4.1-0.8,6h21.1c0.4-2,0.7-3.9,0.9-6H714.3z"/>
	<path d="M696.1,408c2.7,1.7,5,3.7,6.9,6h22.6c-1.3-2.1-2.7-4.1-4.2-6H696.1z"/>
	<path d="M707.2,420c1.1,1.9,2.1,3.9,3,6h21.2c-0.7-2.1-1.6-4.1-2.5-6H707.2z"/>
	<path d="M616.9,396v6h18.8v-1.6h28.9c5.8,0,11.3,0.6,16.3,1.6h35.2c-2.3-2.2-4.8-4.2-7.4-6H616.9z"/>
	<polygon points="118.5,498 138,498 135.6,492 116.2,492 	"/>
	<path d="M78.1,414c0.7-2,1.4-4,2.1-6H63.1l-2.4,6H78.1z"/>
	<path d="M710.1,486h21.3c0.7-1.9,1.3-3.9,1.8-6h-21.1C711.6,482.1,710.9,484.1,710.1,486z"/>
	<polygon points="64.6,450 66.9,444 48.7,444 46.2,450 	"/>
	<polygon points="69.2,438 71.5,432 53.5,432 51.1,438 	"/>
	<path d="M73.7,426l0.3-0.7c0.7-1.9,1.3-3.6,1.9-5.3H58.3l-2.4,6H73.7z"/>
	<polygon points="60.1,462 62.4,456 43.8,456 41.4,462 	"/>
	<polygon points="128.4,474 126,468 107.2,468 107.3,468.4 57.7,468.4 57.8,468 39,468 36.6,474 	"/>
	<polygon points="46.5,498 48.8,492 29.4,492 27,498 	"/>
	<polygon points="41.9,510 44.2,504 24.6,504 22.2,510 	"/>
	<polygon points="37.3,522 39.6,516 19.8,516 17.4,522 	"/>
	<polygon points="51.1,486 51.6,484.7 113.4,484.7 113.9,486 133.2,486 130.8,480 34.2,480 31.8,486 	"/>
	<path d="M371.4,408l-2.4,6h17.4c0.7-2,1.4-4,2.1-6H371.4z"/>
	<polygon points="352.6,504 332.9,504 330.5,510 350.3,510 	"/>
	<polygon points="227.3,444 210.4,444 208.7,450 225.6,450 	"/>
	<path d="M211.7,498l1.7-6h-16.3c-0.6,2.1-1.1,4.1-1.6,6H211.7z"/>
	<polygon points="222.1,462 223.8,456 207,456 205.3,462 	"/>
	<path d="M215.2,486l1.7-6h-16.5c-0.5,2-1.1,4-1.6,6H215.2z"/>
	<path d="M296.3,504h-15.5c-0.1,0.5-0.2,1-0.3,1.5h-0.2c-0.1-0.5-0.3-1-0.4-1.5h-16.5l1.8,6h29.6L296.3,504z"/>
	<path d="M560.9,480c0.8,1.8,1.4,3.8,1.7,6h19.1c-0.2-2.1-0.6-4.1-1.1-6H560.9z"/>
	<path d="M563.1,492c0,0.5,0,1.1,0,1.7c0,1.5,0,3,0,4.3h18.9c-0.1-1.9-0.1-3.9-0.1-6H563.1z"/>
	<rect x="478.2" y="504" width="18.8" height="6"/>
	<polygon points="448.8,504 429.2,504 431.5,510 451.2,510 	"/>
	<polygon points="301.2,414 320.3,414 321.9,408 302.6,408 	"/>
	<polygon points="404,438 422.4,438 420,432 401.7,432 	"/>
	<path d="M364.2,426h17.9l0.3-0.7c0.7-1.9,1.3-3.6,1.9-5.3h-17.7L364.2,426z"/>
	<polygon points="180.6,450 179.2,444 160.9,444 162.5,450 	"/>
	<path d="M397.1,420c0.7,1.8,1.4,3.6,2,5.3l0.3,0.7h18.2l-2.4-6H397.1z"/>
	<path d="M478.2,468v6H497v-5.8h32.6c13.1,0,21.5,1.7,26.6,5.8h21.9c-1.2-2.2-2.7-4.2-4.5-6H478.2z"/>
	<path d="M218.8,414h16.5c0.3-1.3,0.6-2.6,0.9-3.8h0.2c0.3,1.2,0.6,2.5,1,3.8h17.3l-1.7-6h-32.6L218.8,414z"/>
	<polygon points="177.8,438 176.3,432 157.7,432 159.3,438 	"/>
	<path d="M191.7,498c-0.4-1.8-0.8-3.6-1.3-6h-16.7l1.6,6H191.7z"/>
	<path d="M232.3,426c0.5-2.1,1.1-4.1,1.5-6h-16.7l-1.7,6H232.3z"/>
	<polygon points="156.1,426 174.9,426 173.5,420 154.5,420 	"/>
	<polygon points="114,438 111.7,432 93.3,432 95.6,438 	"/>
	<path d="M86.5,414h17.9l-2.4-6H84.4C85.1,409.9,85.8,411.9,86.5,414z"/>
	<polygon points="118.8,450 116.4,444 97.9,444 100.2,450 	"/>
	<polygon points="172.1,414 170.7,408 151.3,408 152.9,414 	"/>
	<polygon points="123.6,462 121.2,456 102.5,456 104.9,462 	"/>
	<path d="M186.3,474c-0.3-1.1-0.6-2.3-0.8-3.6l-0.6-2.4h-17.6l1.6,6H186.3z"/>
	<polygon points="149.7,402 169.3,402 167.8,396 148.1,396 	"/>
	<path d="M189,486c-0.4-1.8-0.9-3.7-1.4-6h-17.2l1.6,6H189z"/>
	<polygon points="182,456 164.1,456 165.7,462 183.4,462 	"/>
	<polygon points="304,402 323.5,402 325.1,396 305.4,396 	"/>
	<path d="M566.6,432c-0.3,2.2-0.9,4.2-1.6,6h19c0.5-1.9,0.9-3.9,1.2-6H566.6z"/>
	<path d="M566.3,420c0.3,1.8,0.5,3.8,0.6,6h18.6c0-2.1-0.1-4.1-0.3-6H566.3z"/>
	<rect x="169.9" y="336" width="18.8" height="6"/>
	<polygon points="222.1,402 251.3,402 249.6,396 223.8,396 	"/>
	<path d="M561,444c-2.8,2.8-6.4,4.7-10.4,6h27.7c1.3-1.8,2.5-3.8,3.5-6H561z"/>
	<rect x="478.2" y="408" width="18.8" height="6"/>
	<path d="M572.7,456h-94.5v6h86.2c-0.5-0.2-0.9-0.4-1.4-0.6C566.4,460.2,569.7,458.4,572.7,456z"/>
	<polygon points="376.2,396 373.8,402 408,402 405.6,396 	"/>
	<path d="M394.9,414h17.9l-2.4-6h-17.7C393.4,409.9,394.1,411.9,394.9,414z"/>
	<path d="M1122.4,312H1103l3.8,6h18.9C1124.6,316,1123.5,314,1122.4,312z"/>
	<rect x="1032.1" y="300" width="18.6" height="6"/>
	<path d="M1277.1,229.5c1,1.4,2,2.9,2.9,4.5h22.2c-1-2.1-2-4.1-3.2-6h-23.1C1276.3,228.5,1276.7,229,1277.1,229.5z"/>
	<rect x="1337" y="228" width="18.8" height="6"/>
	<rect x="1337" y="252" width="18.8" height="6"/>
	<rect x="1337" y="240" width="18.8" height="6"/>
	<rect x="978.3" y="228" width="18.8" height="6"/>
	<rect x="885.6" y="228" width="19" height="6"/>
	<rect x="1337" y="264" width="18.8" height="6"/>
	<path d="M1032.1,234h18c-0.1-2-0.1-4-0.2-6h-17.8V234z"/>
	<path d="M1055.2,234h19l-3.8-6H1052C1053,229.9,1054.1,232,1055.2,234z"/>
	<rect x="1125" y="228" width="18.6" height="6"/>
	<path d="M1196.3,300h-21.6c0.6,2.1,1.3,4.1,2,6h21.8C1197.7,304.2,1197,302.2,1196.3,300z"/>
	<rect x="1337" y="276" width="18.8" height="6"/>
	<path d="M1305.5,300H1284c-0.7,2.1-1.6,4.1-2.5,6h21.8C1304.1,304.1,1304.8,302.1,1305.5,300z"/>
	<path d="M1115.7,300h-20.3l3.8,6h19.9C1118,304,1116.9,302,1115.7,300z"/>
	<path d="M1143.6,300h-18.3c0.1,2,0.1,4,0.2,6h18.1V300z"/>
	<rect x="1337" y="288" width="18.8" height="6"/>
	<path d="M1440.4,288c0.3,2.1,0.7,4,1.1,6h21.5c-0.4-1.9-0.8-3.9-1.1-6H1440.4z"/>
	<rect x="1337" y="300" width="18.8" height="6"/>
	<path d="M1464.5,300H1443c0.6,2.1,1.3,4.1,2,6h21.8C1465.9,304.2,1465.2,302.2,1464.5,300z"/>
	<path d="M1178.4,234h21.6c1-1.9,2.2-3.7,3.4-5.3c0.2-0.2,0.4-0.5,0.6-0.7h-22.5C1180.4,229.9,1179.4,231.9,1178.4,234z"/>
	<rect x="342" y="312" width="19" height="6"/>
	<rect x="529.4" y="312" width="19" height="6"/>
	<rect x="438.4" y="312" width="14" height="6"/>
	<rect x="342" y="300" width="19" height="6"/>
	<rect x="617.9" y="312" width="18.8" height="6"/>
	<rect x="885.6" y="312" width="19" height="6"/>
	<path d="M858.9,312h-24.5c-1.6,2.1-3.3,4.2-5.3,6H855C856.4,316.1,857.7,314.1,858.9,312z"/>
	<path d="M760.4,313.4c-0.3-0.5-0.7-1-1-1.4H737c1,2.1,2.2,4.1,3.4,6h24C762.9,316.6,761.6,315.1,760.4,313.4z"/>
	<path d="M835.7,234h23c-0.9-2.1-1.9-4.1-2.9-6h-24.4C833,229.9,834.5,231.9,835.7,234z"/>
	<rect x="342" y="288" width="19" height="6"/>
	<rect x="529.4" y="228" width="19" height="6"/>
	<rect x="342" y="228" width="19" height="6"/>
	<rect x="617.9" y="228" width="18.8" height="6"/>
	<path d="M736.1,234h21.5c0.9-1.6,1.8-3.1,2.8-4.5c0.4-0.5,0.8-1,1.2-1.5h-22.4C738,229.9,737,231.9,736.1,234z"/>
	<rect x="438.4" y="252" width="14" height="6"/>
	<rect x="438.4" y="264" width="14" height="6"/>
	<rect x="398.4" y="276" width="93.8" height="6"/>
	<rect x="342" y="240" width="19" height="6"/>
	<rect x="438.4" y="288" width="14" height="6"/>
	<rect x="885.6" y="288" width="19" height="6"/>
	<rect x="617.9" y="288" width="18.8" height="6"/>
	<rect x="1032.1" y="288" width="18.6" height="6"/>
	<path d="M1288.2,264c0.1,1.9,0.2,3.9,0.2,6h21.3c0-2-0.1-4-0.2-6H1288.2z"/>
	<rect x="978.3" y="312" width="18.8" height="6"/>
	<path d="M751.1,288h-21.3c0.3,2.1,0.7,4,1.1,6h21.3C751.7,292.1,751.4,290.1,751.1,288z"/>
	<path d="M1108.6,288h-20.8l3.8,6h20.6C1111,291.9,1109.8,289.9,1108.6,288z"/>
	<path d="M1288.3,276c-0.1,2.1-0.2,4.1-0.4,6h21.3c0.2-2,0.3-4,0.4-6H1288.3z"/>
	<rect x="978.3" y="300" width="18.8" height="6"/>
	<path d="M1193.6,288h-21.4c0.3,2.1,0.7,4,1.1,6h21.5C1194.3,292.1,1193.9,290.1,1193.6,288z"/>
	<path d="M1143.6,288h-18.6c0,1.8,0.1,3.8,0.1,6h18.4V288z"/>
	<rect x="978.3" y="288" width="18.8" height="6"/>
	<rect x="978.3" y="252" width="18.8" height="6"/>
	<path d="M1032.1,258h18.6c0-1.5-0.1-3.6-0.1-6h-18.5V258z"/>
	<path d="M1067.9,256.3l1.1,1.7h20.6l-3.8-6h-20.4C1066.3,253.8,1067.2,255.2,1067.9,256.3z"/>
	<rect x="1125" y="252" width="18.6" height="6"/>
	<rect x="885.6" y="252" width="19" height="6"/>
	<rect x="617.9" y="264" width="86.8" height="6"/>
	<polygon points="636.7,282 636.7,278.7 704.7,278.7 704.7,276 617.9,276 617.9,282 	"/>
	<rect x="617.9" y="252" width="18.8" height="6"/>
	<path d="M729.4,258h21.2c0.2-2.1,0.5-4.1,0.9-6h-21.1C730,254,729.7,256,729.4,258z"/>
	<path d="M1308.4,288h-21.3c-0.3,2.1-0.8,4.1-1.2,6h21.4C1307.6,292,1308,290,1308.4,288z"/>
	<rect x="529.4" y="264" width="19" height="6"/>
	<rect x="529.4" y="276" width="19" height="6"/>
	<rect x="529.4" y="288" width="19" height="6"/>
	<rect x="529.4" y="252" width="19" height="6"/>
	<rect x="617.9" y="240" width="18.8" height="6"/>
	<rect x="617.9" y="300" width="18.8" height="6"/>
	<rect x="885.6" y="300" width="19" height="6"/>
	<path d="M862.7,304.5l-17.4-4.5h-4.5c-0.8,2.1-1.7,4.1-2.7,6H862C862.3,305.5,862.5,305,862.7,304.5z"/>
	<path d="M753.8,300h-21.4c0.6,2.1,1.3,4.1,2,6h21.8C755.3,304.1,754.5,302.1,753.8,300z"/>
	<path d="M1032.1,246h18.3c-0.1-1.9-0.1-3.9-0.2-6h-18.2V246z"/>
	<rect x="1125" y="240" width="18.6" height="6"/>
	<path d="M1174.1,246h21.2c0.6-2.1,1.2-4.1,1.9-6H1176C1175.3,241.9,1174.7,243.9,1174.1,246z"/>
	<path d="M1061.9,246h20l-3.8-6h-19.5C1059.7,242.1,1060.8,244.1,1061.9,246z"/>
	<path d="M1282.9,240c0.8,1.9,1.5,3.9,2.2,6h21.4c-0.6-2.1-1.2-4.1-1.9-6H1282.9z"/>
	<path d="M1286.6,252c0.4,1.9,0.7,3.9,1,6h21.3c-0.3-2-0.6-4-1-6H1286.6z"/>
	<path d="M731.7,246h21.1c0.6-2.1,1.2-4.1,1.9-6h-21.1C732.9,241.9,732.3,243.9,731.7,246z"/>
	<rect x="885.6" y="240" width="19" height="6"/>
	<path d="M840.8,245.9l20.7-3.9c-0.2-0.7-0.4-1.3-0.6-2h-22.1C839.5,241.9,840.2,243.9,840.8,245.9z"/>
	<rect x="978.3" y="240" width="18.8" height="6"/>
	<path d="M274.6,324h-19.3c0.2,2.2,0.4,4.2,0.8,6h19.8C275.3,328.1,274.9,326.1,274.6,324z"/>
	<path d="M1554.9,252c0.4,1.9,0.7,3.9,1,6h21.3c-0.3-2-0.6-4-1-6H1554.9z"/>
	<path d="M1624,240h-21.1c-0.7,1.9-1.3,3.9-1.9,6h21C1622.6,243.9,1623.2,241.9,1624,240z"/>
	<path d="M1551.2,240c0.8,1.9,1.5,3.9,2.2,6h21.4c-0.6-2.1-1.2-4.1-1.9-6H1551.2z"/>
	<path d="M1599,288c0.3,2.1,0.7,4,1.1,6h21.1c-0.4-1.9-0.8-3.9-1.1-6H1599z"/>
	<path d="M1556.4,264c0.1,1.9,0.2,3.9,0.2,6h21.3c0-2-0.1-4-0.2-6H1556.4z"/>
	<path d="M1624.6,210h84.4c-3.1-2.3-6.4-4.3-9.9-6h-64.4C1631,205.7,1627.7,207.7,1624.6,210z"/>
	<path d="M1465.9,210h85.1c-3.1-2.3-6.4-4.3-10-6h-65C1472.4,205.7,1469,207.7,1465.9,210z"/>
	<path d="M1601.6,300c0.6,2.1,1.3,4.1,2,6h21.6c-0.9-1.9-1.6-3.9-2.3-6H1601.6z"/>
	<path d="M1683.2,216c4.1,1.5,7.7,3.5,10.8,6h26.6c-1.5-2.1-3.2-4.1-5-6H1683.2z"/>
	<path d="M1700.2,228c1.6,1.9,3,3.9,4.2,6h22.8c-0.9-2.1-1.8-4.1-2.9-6H1700.2z"/>
	<polygon points="1768.5,216 1747.2,216 1751,222 1772.2,222 	"/>
	<rect x="1032.1" y="324" width="18.6" height="6"/>
	<rect x="978.3" y="324" width="18.8" height="6"/>
	<path d="M850.1,324h-29.3c-6.2,3.4-13.7,5.4-22.8,5.4c-9.6,0-18.1-1.8-25.1-5.4h-28c1.9,2.2,3.9,4.2,6,6h92.9
		C846,328.2,848.1,326.2,850.1,324z"/>
	<rect x="885.6" y="324" width="19" height="6"/>
	<polygon points="1431.6,326.5 1355.8,326.5 1355.8,324 1337,324 1337,330 1431.6,330 	"/>
	<path d="M1560.4,324h-26.9c-6.6,3.6-14.7,5.4-24.8,5.4c-9.4,0-17.7-1.9-24.6-5.4h-28.5c1.9,2.2,3.9,4.2,6,6h92.7
		C1556.5,328.1,1558.5,326.2,1560.4,324z"/>
	<path d="M1731.4,312h-25.5c-1.3,2.2-2.8,4.2-4.6,6h30.1V312z"/>
	<path d="M1292.2,324h-26.9c-6.6,3.6-14.7,5.4-24.8,5.4c-9.4,0-17.7-1.9-24.6-5.4h-28.5c1.9,2.2,3.9,4.2,6,6h92.7
		C1288.2,328.1,1290.3,326.2,1292.2,324z"/>
	<path d="M1609.7,318h23.5c-1.3-1.3-2.5-2.6-3.6-4.1c-0.4-0.6-0.8-1.2-1.2-1.9h-22.1C1607.3,314.1,1608.5,316.1,1609.7,318z"/>
	<polygon points="1143.6,324 1110.6,324 1114.3,330 1143.6,330 	"/>
	<rect x="169.9" y="228" width="18.8" height="6"/>
	<polygon points="120.7,270 118.3,264 99.8,264 102.1,270 	"/>
	<path d="M88.3,234h18.1l-2.4-6H86.1C86.8,230,87.5,232,88.3,234z"/>
	<path d="M254.6,276.7c0.6-0.2,1.2-0.4,1.8-0.7h-86.6v6H264C261.4,279.9,258.4,278.1,254.6,276.7z"/>
	<polygon points="115.9,258 113.5,252 95.1,252 97.5,258 	"/>
	<rect x="1337" y="204" width="18.8" height="6"/>
	<polygon points="139.9,318 137.5,312 118,312 120.3,318 	"/>
	<rect x="169.9" y="300" width="18.8" height="6"/>
	<rect x="169.9" y="288" width="18.8" height="6"/>
	<polygon points="115.7,306 135.1,306 132.7,300 113.4,300 	"/>
	<rect x="885.6" y="204" width="19" height="6"/>
	<rect x="169.9" y="216" width="18.8" height="6"/>
	<rect x="1125" y="204" width="18.6" height="6"/>
	<path d="M1197.7,210h85.1c-3.1-2.3-6.4-4.3-10-6h-65C1204.1,205.7,1200.8,207.7,1197.7,210z"/>
	<rect x="978.3" y="204" width="18.8" height="6"/>
	<path d="M755.3,210h84.8c-3.1-2.3-6.5-4.3-10.1-6h-64.7C761.8,205.7,758.4,207.7,755.3,210z"/>
	<rect x="480.7" y="204" width="116.6" height="6"/>
	<rect x="293.3" y="204" width="116.6" height="6"/>
	<rect x="617.9" y="204" width="94.6" height="6"/>
	<path d="M1471,313.4c-0.4-0.4-0.7-0.9-1.1-1.4h-22.3c1,2.1,2.2,4.1,3.4,6h24.3C1473.8,316.6,1472.3,315.1,1471,313.4z"/>
	<path d="M1444.2,240c-0.7,1.9-1.3,3.9-1.9,6h21.2c0.6-2.1,1.2-4.1,1.9-6H1444.2z"/>
	<path d="M1439.7,282h21.4c-0.2-1.9-0.3-3.9-0.4-6h-21.4C1439.4,278,1439.5,280,1439.7,282z"/>
	<path d="M1567.2,228h-23.1c0.4,0.5,0.8,1,1.2,1.5c1,1.4,2,2.9,2.9,4.5h22.2C1569.4,231.9,1568.4,229.9,1567.2,228z"/>
	<path d="M1441,252c-0.4,2-0.7,4-0.9,6h21.3c0.2-2.1,0.5-4.1,0.9-6H1441z"/>
	<path d="M1439.5,264c-0.1,2-0.2,4-0.2,6h21.3c0-2,0.1-4,0.2-6H1439.5z"/>
	<path d="M1472.2,228h-22.5c-1.1,1.9-2.2,3.9-3.1,6h21.6c1-1.9,2.2-3.7,3.4-5.3C1471.8,228.5,1472,228.2,1472.2,228z"/>
	<rect x="1125" y="216" width="18.6" height="6"/>
	<rect x="1337" y="216" width="18.8" height="6"/>
	<path d="M1538.2,222h25c-1.6-2.1-3.3-4.1-5.2-6h-31C1531.2,217.4,1534.9,219.4,1538.2,222z"/>
	<path d="M1617.6,216c-1.9,1.9-3.6,3.9-5.2,6h24.8c3.5-2.6,7.6-4.6,12.1-6H1617.6z"/>
	<polygon points="1032.1,222 1066.6,222 1062.8,216 1032.1,216 	"/>
	<path d="M1143.6,312h-17.9c0.1,2.1,0.2,4.1,0.3,6h17.6V312z"/>
	<path d="M1202.8,313.4c-0.4-0.4-0.7-0.9-1.1-1.4h-22.3c1,2.1,2.2,4.1,3.4,6h24.3C1205.5,316.6,1204.1,315.1,1202.8,313.4z"/>
	<path d="M1172.7,252c-0.4,2-0.7,4-0.9,6h21.3c0.2-2.1,0.5-4.1,0.9-6H1172.7z"/>
	<path d="M1555.3,288c-0.3,2.1-0.8,4.1-1.2,6h21.4c0.5-2,0.9-4,1.2-6H1555.3z"/>
	<path d="M1300.4,312h-22.4c-0.3,0.5-0.6,1-1,1.4c-1.2,1.7-2.5,3.2-3.8,4.6h23.6C1298.1,316.1,1299.3,314.1,1300.4,312z"/>
	<path d="M1552.3,300c-0.7,2.1-1.6,4.1-2.5,6h21.8c0.8-1.9,1.5-3.9,2.2-6H1552.3z"/>
	<rect x="1337" y="312" width="18.8" height="6"/>
	<path d="M1568.7,312h-22.4c-0.3,0.5-0.6,1-1,1.4c-1.2,1.7-2.5,3.2-3.8,4.6h23.6C1566.4,316.1,1567.6,314.1,1568.7,312z"/>
	<rect x="1032.1" y="312" width="18.6" height="6"/>
	<rect x="169.9" y="252" width="18.8" height="6"/>
	<path d="M274,318c-0.1-1.9-0.2-3.9-0.2-6h-18.9c0,2.2,0.1,4.2,0.1,6H274z"/>
	<path d="M273.6,306c0-2.1-0.2-4.1-0.4-6H254c0.4,1.8,0.6,3.8,0.7,6H273.6z"/>
	<rect x="169.9" y="312" width="18.8" height="6"/>
	<rect x="342" y="276" width="19" height="6"/>
	<rect x="978.3" y="216" width="18.8" height="6"/>
	<rect x="529.4" y="324" width="19" height="6"/>
	<rect x="342" y="264" width="19" height="6"/>
	<polygon points="144.7,330 142.3,324 122.7,324 125,330 	"/>
	<rect x="169.9" y="324" width="18.8" height="6"/>
	<rect x="342" y="324" width="19" height="6"/>
	<rect x="342" y="216" width="19" height="6"/>
	<path d="M250.6,222h22.8c-1-2.2-2.2-4.2-3.5-6h-37.7C239.2,216.6,245.7,218.1,250.6,222z"/>
	<polygon points="617.9,222 636.7,222 636.7,216.3 712.5,216.3 712.5,216 617.9,216 	"/>
	<rect x="885.6" y="216" width="19" height="6"/>
	<polygon points="712.5,326.1 636.7,326.1 636.7,324 617.9,324 617.9,330 712.5,330 	"/>
	<path d="M276.7,234c-0.3-2.1-0.7-4.1-1.2-6h-20.1c0.9,1.7,1.7,3.7,2.2,6H276.7z"/>
	<path d="M265.8,270c1.9-1.8,3.6-3.8,5.1-6h-25.1c-7.6,3.3-17.5,3.7-26.5,3.7h-30.6V264h-18.8v6H265.8z"/>
	<rect x="169.9" y="240" width="18.8" height="6"/>
	<path d="M258.4,246H277c0.1-1.4,0.2-2.8,0.2-4.2c0-0.6,0-1.2,0-1.8h-18.7c0,0.8,0.1,1.7,0.1,2.6C258.6,243.8,258.5,244.9,258.4,246
		z"/>
</g>
</svg>
