<?xml version="1.0" encoding="utf-8"?>
<!-- Generator: Adobe Illustrator 26.2.1, SVG Export Plug-In . SVG Version: 6.00 Build 0)  -->
<svg version="1.1" id="Layer_1" xmlns="http://www.w3.org/2000/svg" xmlns:xlink="http://www.w3.org/1999/xlink" x="0px" y="0px"
	 viewBox="0 0 1920 588" style="enable-background:new 0 0 1920 588;" xml:space="preserve">
<style type="text/css">
	.st0{fill:#FFF000;}
</style>
<g>
	<g>
		
			<rect x="1773.2" y="-884.1" transform="matrix(0.766 -0.6428 0.6428 0.766 524.2869 1102.1683)" class="st0" width="6" height="1430"/>
	</g>
	<g>
		
			<rect x="1764" y="-876.5" transform="matrix(0.7688 -0.6394 0.6394 0.7688 511.7123 1092.5679)" class="st0" width="6" height="1430"/>
	</g>
	<g>
		
			<rect x="1754.7" y="-868.8" transform="matrix(0.7716 -0.6361 0.6361 0.7716 499.2827 1082.9321)" class="st0" width="6" height="1430"/>
	</g>
	<g>
		
			<rect x="1745.5" y="-861.3" transform="matrix(0.7744 -0.6327 0.6327 0.7744 486.998 1073.2626)" class="st0" width="6" height="1430"/>
	</g>
	<g>
		
			<rect x="1736.1" y="-853.7" transform="matrix(0.7771 -0.6293 0.6293 0.7771 474.8581 1063.5609)" class="st0" width="6" height="1430"/>
	</g>
	<g>
		
			<rect x="1726.8" y="-846.2" transform="matrix(0.7799 -0.6259 0.6259 0.7799 462.8629 1053.8286)" class="st0" width="6" height="1430"/>
	</g>
	<g>
		
			<rect x="1717.4" y="-838.7" transform="matrix(0.7826 -0.6225 0.6225 0.7826 451.0125 1044.0671)" class="st0" width="6" height="1430"/>
	</g>
	<g>
		
			<rect x="1708" y="-831.3" transform="matrix(0.7853 -0.6191 0.6191 0.7853 439.3067 1034.2781)" class="st0" width="6" height="1430"/>
	</g>
	<g>
		
			<rect x="1698.5" y="-823.9" transform="matrix(0.788 -0.6157 0.6157 0.788 427.7455 1024.4629)" class="st0" width="6" height="1430"/>
	</g>
	<g>
		
			<rect x="1689" y="-816.6" transform="matrix(0.7907 -0.6122 0.6122 0.7907 416.3287 1014.6232)" class="st0" width="6" height="1430"/>
	</g>
	<g>
		
			<rect x="1679.5" y="-809.2" transform="matrix(0.7934 -0.6088 0.6088 0.7934 405.0562 1004.7603)" class="st0" width="6" height="1430"/>
	</g>
	<g>
		
			<rect x="1669.9" y="-802" transform="matrix(0.796 -0.6053 0.6053 0.796 393.9279 994.876)" class="st0" width="6" height="1430"/>
	</g>
	<g>
		
			<rect x="1660.4" y="-794.8" transform="matrix(0.7986 -0.6018 0.6018 0.7986 382.9436 984.9716)" class="st0" width="6" height="1430"/>
	</g>
	<g>
		
			<rect x="1650.7" y="-787.6" transform="matrix(0.8013 -0.5983 0.5983 0.8013 372.1031 975.0487)" class="st0" width="6" height="1430"/>
	</g>
	<g>
		
			<rect x="1641.1" y="-780.4" transform="matrix(0.8039 -0.5948 0.5948 0.8039 361.4064 965.1088)" class="st0" width="6" height="1430"/>
	</g>
	<g>
		
			<rect x="1631.4" y="-773.3" transform="matrix(0.8064 -0.5913 0.5913 0.8064 350.8531 955.1533)" class="st0" width="6" height="1430"/>
	</g>
	<g>
		
			<rect x="1621.7" y="-766.3" transform="matrix(0.809 -0.5878 0.5878 0.809 340.4431 945.1838)" class="st0" width="6" height="1430"/>
	</g>
	<g>
		
			<rect x="1612" y="-759.3" transform="matrix(0.8116 -0.5842 0.5842 0.8116 330.1761 935.2018)" class="st0" width="6" height="1430"/>
	</g>
	<g>
		
			<rect x="1602.2" y="-752.3" transform="matrix(0.8141 -0.5807 0.5807 0.8141 320.052 925.2087)" class="st0" width="6" height="1430"/>
	</g>
	<g>
		
			<rect x="1592.4" y="-745.4" transform="matrix(0.8166 -0.5771 0.5771 0.8166 310.0704 915.2061)" class="st0" width="6" height="1430"/>
	</g>
	<g>
		
			<rect x="1582.6" y="-738.5" transform="matrix(0.8192 -0.5736 0.5736 0.8192 300.2311 905.1954)" class="st0" width="6" height="1430"/>
	</g>
	<g>
		
			<rect x="1572.7" y="-731.7" transform="matrix(0.8216 -0.57 0.57 0.8216 290.5339 895.1781)" class="st0" width="6" height="1430"/>
	</g>
	<g>
		
			<rect x="1562.8" y="-724.9" transform="matrix(0.8241 -0.5664 0.5664 0.8241 280.9783 885.1557)" class="st0" width="6" height="1430"/>
	</g>
	<g>
		
			<rect x="1552.9" y="-718.1" transform="matrix(0.8266 -0.5628 0.5628 0.8266 271.5642 875.1296)" class="st0" width="6" height="1430"/>
	</g>
	<g>
		
			<rect x="1543" y="-711.4" transform="matrix(0.829 -0.5592 0.5592 0.829 262.2912 865.1014)" class="st0" width="6" height="1430"/>
	</g>
	<g>
		
			<rect x="1533" y="-704.7" transform="matrix(0.8315 -0.5556 0.5556 0.8315 253.159 855.0725)" class="st0" width="6" height="1430"/>
	</g>
	<g>
		
			<rect x="1523" y="-698.1" transform="matrix(0.8339 -0.5519 0.5519 0.8339 244.1672 845.0443)" class="st0" width="6" height="1430"/>
	</g>
	<g>
		
			<rect x="1512.9" y="-691.5" transform="matrix(0.8363 -0.5483 0.5483 0.8363 235.3154 835.0183)" class="st0" width="6" height="1430"/>
	</g>
	<g>
		
			<rect x="1502.9" y="-685" transform="matrix(0.8387 -0.5446 0.5446 0.8387 226.6033 824.996)" class="st0" width="6" height="1430"/>
	</g>
	<g>
		
			<rect x="1492.8" y="-678.5" transform="matrix(0.841 -0.541 0.541 0.841 218.0305 814.9787)" class="st0" width="6" height="1430"/>
	</g>
	<g>
		
			<rect x="1482.7" y="-672.1" transform="matrix(0.8434 -0.5373 0.5373 0.8434 209.5966 804.968)" class="st0" width="6" height="1430"/>
	</g>
	<g>
		
			<rect x="1472.5" y="-665.7" transform="matrix(0.8457 -0.5336 0.5336 0.8457 201.3012 794.9652)" class="st0" width="6" height="1430"/>
	</g>
	<g>
		
			<rect x="1462.3" y="-659.3" transform="matrix(0.848 -0.5299 0.5299 0.848 193.1438 784.9719)" class="st0" width="6" height="1430"/>
	</g>
	<g>
		
			<rect x="1452.1" y="-653" transform="matrix(0.8504 -0.5262 0.5262 0.8504 185.124 774.9893)" class="st0" width="6" height="1430"/>
	</g>
	<g>
		
			<rect x="1441.9" y="-646.7" transform="matrix(0.8526 -0.5225 0.5225 0.8526 177.2414 765.019)" class="st0" width="6" height="1430"/>
	</g>
	<g>
		
			<rect x="1431.6" y="-640.5" transform="matrix(0.8549 -0.5188 0.5188 0.8549 169.4954 755.0624)" class="st0" width="6" height="1430"/>
	</g>
	<g>
		
			<rect x="1421.4" y="-634.3" transform="matrix(0.8572 -0.515 0.515 0.8572 161.8856 745.1208)" class="st0" width="6" height="1430"/>
	</g>
	<g>
		
			<rect x="1411" y="-628.2" transform="matrix(0.8594 -0.5113 0.5113 0.8594 154.4116 735.1956)" class="st0" width="6" height="1430"/>
	</g>
	<g>
		
			<rect x="1400.7" y="-622.1" transform="matrix(0.8616 -0.5075 0.5075 0.8616 147.0727 725.2883)" class="st0" width="6" height="1430"/>
	</g>
	<g>
		
			<rect x="1390.3" y="-616" transform="matrix(0.8638 -0.5038 0.5038 0.8638 139.8685 715.4003)" class="st0" width="6" height="1430"/>
	</g>
	<g>
		<rect x="1379.9" y="-610" transform="matrix(0.866 -0.5 0.5 0.866 132.7984 705.5328)" class="st0" width="6" height="1430"/>
	</g>
	<g>
		
			<rect x="1369.5" y="-604.1" transform="matrix(0.8682 -0.4962 0.4962 0.8682 125.8619 695.6874)" class="st0" width="6" height="1430"/>
	</g>
	<g>
		
			<rect x="1359.1" y="-598.2" transform="matrix(0.8704 -0.4924 0.4924 0.8704 119.0584 685.8654)" class="st0" width="6" height="1430"/>
	</g>
	<g>
		
			<rect x="1348.6" y="-592.3" transform="matrix(0.8725 -0.4886 0.4886 0.8725 112.3874 676.0681)" class="st0" width="6" height="1430"/>
	</g>
	<g>
		
			<rect x="1338.1" y="-586.5" transform="matrix(0.8746 -0.4848 0.4848 0.8746 105.8482 666.2968)" class="st0" width="6" height="1430"/>
	</g>
	<g>
		
			<rect x="1327.6" y="-580.7" transform="matrix(0.8767 -0.481 0.481 0.8767 99.4403 656.553)" class="st0" width="6" height="1430"/>
	</g>
	<g>
		<rect x="1317" y="-575" transform="matrix(0.8788 -0.4772 0.4772 0.8788 93.163 646.838)" class="st0" width="6" height="1430"/>
	</g>
	<g>
		
			<rect x="1306.5" y="-569.3" transform="matrix(0.8809 -0.4733 0.4733 0.8809 87.0158 637.1531)" class="st0" width="6" height="1430"/>
	</g>
	<g>
		
			<rect x="1295.9" y="-563.7" transform="matrix(0.8829 -0.4695 0.4695 0.8829 80.9979 627.4996)" class="st0" width="6" height="1430"/>
	</g>
	<g>
		
			<rect x="1285.3" y="-558.1" transform="matrix(0.885 -0.4656 0.4656 0.885 75.1088 617.879)" class="st0" width="6" height="1430"/>
	</g>
	<g>
		
			<rect x="1274.6" y="-552.6" transform="matrix(0.887 -0.4617 0.4617 0.887 69.3478 608.2924)" class="st0" width="6" height="1430"/>
	</g>
	<g>
		
			<rect x="1263.9" y="-547.1" transform="matrix(0.889 -0.4579 0.4579 0.889 63.7141 598.7412)" class="st0" width="6" height="1430"/>
	</g>
	<g>
		
			<rect x="1253.3" y="-541.6" transform="matrix(0.891 -0.454 0.454 0.891 58.2072 589.2267)" class="st0" width="6" height="1430"/>
	</g>
	<g>
		
			<rect x="1242.5" y="-536.2" transform="matrix(0.893 -0.4501 0.4501 0.893 52.8263 579.7502)" class="st0" width="6" height="1430"/>
	</g>
	<g>
		
			<rect x="1231.8" y="-530.9" transform="matrix(0.8949 -0.4462 0.4462 0.8949 47.5707 570.3129)" class="st0" width="6" height="1430"/>
	</g>
	<g>
		
			<rect x="1221" y="-525.5" transform="matrix(0.8969 -0.4423 0.4423 0.8969 42.4397 560.9162)" class="st0" width="6" height="1430"/>
	</g>
	<g>
		
			<rect x="1210.3" y="-520.3" transform="matrix(0.8988 -0.4384 0.4384 0.8988 37.4325 551.5613)" class="st0" width="6" height="1430"/>
	</g>
	<g>
		
			<rect x="1199.4" y="-515.1" transform="matrix(0.9007 -0.4344 0.4344 0.9007 32.5485 542.2495)" class="st0" width="6" height="1430"/>
	</g>
	<g>
		
			<rect x="1188.6" y="-509.9" transform="matrix(0.9026 -0.4305 0.4305 0.9026 27.7868 532.982)" class="st0" width="6" height="1430"/>
	</g>
	<g>
		
			<rect x="1177.8" y="-504.8" transform="matrix(0.9045 -0.4266 0.4266 0.9045 23.1466 523.7601)" class="st0" width="6" height="1430"/>
	</g>
	<g>
		
			<rect x="1166.9" y="-499.7" transform="matrix(0.9063 -0.4226 0.4226 0.9063 18.6273 514.585)" class="st0" width="6" height="1430"/>
	</g>
	<g>
		
			<rect x="1156" y="-494.7" transform="matrix(0.9081 -0.4187 0.4187 0.9081 14.228 505.4579)" class="st0" width="6" height="1430"/>
	</g>
	<g>
		<rect x="1145.1" y="-489.7" transform="matrix(0.91 -0.4147 0.4147 0.91 9.9478 496.38)" class="st0" width="6" height="1430"/>
	</g>
	<g>
		
			<rect x="1134.1" y="-484.8" transform="matrix(0.9118 -0.4107 0.4107 0.9118 5.7861 487.3526)" class="st0" width="6" height="1430"/>
	</g>
	<g>
		
			<rect x="1123.2" y="-479.9" transform="matrix(0.9135 -0.4067 0.4067 0.9135 1.7419 478.3769)" class="st0" width="6" height="1430"/>
	</g>
	<g>
		
			<rect x="1112.2" y="-475.1" transform="matrix(0.9153 -0.4027 0.4027 0.9153 -2.1856 469.454)" class="st0" width="6" height="1430"/>
	</g>
	<g>
		
			<rect x="1101.2" y="-470.3" transform="matrix(0.9171 -0.3987 0.3987 0.9171 -5.9972 460.5851)" class="st0" width="6" height="1430"/>
	</g>
	<g>
		
			<rect x="1090.2" y="-465.6" transform="matrix(0.9188 -0.3947 0.3947 0.9188 -9.6938 451.7715)" class="st0" width="6" height="1430"/>
	</g>
	<g>
		
			<rect x="1079.1" y="-460.9" transform="matrix(0.9205 -0.3907 0.3907 0.9205 -13.2763 443.0142)" class="st0" width="6" height="1430"/>
	</g>
	<g>
		
			<rect x="1068" y="-456.2" transform="matrix(0.9222 -0.3867 0.3867 0.9222 -16.7455 434.3145)" class="st0" width="6" height="1430"/>
	</g>
	<g>
		
			<rect x="1057" y="-451.6" transform="matrix(0.9239 -0.3827 0.3827 0.9239 -20.1024 425.6734)" class="st0" width="6" height="1430"/>
	</g>
	<g>
		
			<rect x="1045.8" y="-447.1" transform="matrix(0.9255 -0.3786 0.3786 0.9255 -23.3478 417.0921)" class="st0" width="6" height="1430"/>
	</g>
	<g>
		
			<rect x="1034.7" y="-442.6" transform="matrix(0.9272 -0.3746 0.3746 0.9272 -26.4826 408.5717)" class="st0" width="6" height="1430"/>
	</g>
	<g>
		
			<rect x="1023.6" y="-438.1" transform="matrix(0.9288 -0.3706 0.3706 0.9288 -29.5078 400.1134)" class="st0" width="6" height="1430"/>
	</g>
	<g>
		
			<rect x="1012.4" y="-433.7" transform="matrix(0.9304 -0.3665 0.3665 0.9304 -32.4244 391.7183)" class="st0" width="6" height="1430"/>
	</g>
	<g>
		
			<rect x="1001.2" y="-429.4" transform="matrix(0.932 -0.3624 0.3624 0.932 -35.2332 383.3874)" class="st0" width="6" height="1430"/>
	</g>
	<g>
		
			<rect x="990" y="-425.1" transform="matrix(0.9336 -0.3584 0.3584 0.9336 -37.9352 375.1219)" class="st0" width="6" height="1430"/>
	</g>
	<g>
		
			<rect x="978.8" y="-420.8" transform="matrix(0.9351 -0.3543 0.3543 0.9351 -40.5313 366.9227)" class="st0" width="6" height="1430"/>
	</g>
	<g>
		
			<rect x="967.6" y="-416.6" transform="matrix(0.9367 -0.3502 0.3502 0.9367 -43.0227 358.791)" class="st0" width="6" height="1430"/>
	</g>
	<g>
		
			<rect x="956.3" y="-412.5" transform="matrix(0.9382 -0.3461 0.3461 0.9382 -45.4102 350.7279)" class="st0" width="6" height="1430"/>
	</g>
	<g>
		
			<rect x="945" y="-408.4" transform="matrix(0.9397 -0.342 0.342 0.9397 -47.6948 342.7344)" class="st0" width="6" height="1430"/>
	</g>
	<g>
		
			<rect x="933.7" y="-404.3" transform="matrix(0.9412 -0.3379 0.3379 0.9412 -49.8775 334.8115)" class="st0" width="6" height="1430"/>
	</g>
	<g>
		
			<rect x="922.4" y="-400.3" transform="matrix(0.9426 -0.3338 0.3338 0.9426 -51.9594 326.9602)" class="st0" width="6" height="1430"/>
	</g>
	<g>
		
			<rect x="911.1" y="-396.4" transform="matrix(0.9441 -0.3297 0.3297 0.9441 -53.9415 319.1816)" class="st0" width="6" height="1430"/>
	</g>
	<g>
		
			<rect x="899.7" y="-392.5" transform="matrix(0.9455 -0.3256 0.3256 0.9455 -55.8248 311.4767)" class="st0" width="6" height="1430"/>
	</g>
	<g>
		
			<rect x="888.4" y="-388.6" transform="matrix(0.9469 -0.3214 0.3214 0.9469 -57.6103 303.8464)" class="st0" width="6" height="1430"/>
	</g>
	<g>
		
			<rect x="877" y="-384.8" transform="matrix(0.9483 -0.3173 0.3173 0.9483 -59.2992 296.2917)" class="st0" width="6" height="1430"/>
	</g>
	<g>
		
			<rect x="865.6" y="-381" transform="matrix(0.9497 -0.3132 0.3132 0.9497 -60.8924 288.8137)" class="st0" width="6" height="1430"/>
	</g>
	<g>
		
			<rect x="854.2" y="-377.3" transform="matrix(0.9511 -0.309 0.309 0.9511 -62.391 281.4132)" class="st0" width="6" height="1430"/>
	</g>
	<g>
		
			<rect x="842.8" y="-373.7" transform="matrix(0.9524 -0.3049 0.3049 0.9524 -63.7962 274.0913)" class="st0" width="6" height="1430"/>
	</g>
	<g>
		
			<rect x="831.3" y="-370.1" transform="matrix(0.9537 -0.3007 0.3007 0.9537 -65.1089 266.8488)" class="st0" width="6" height="1430"/>
	</g>
	<g>
		
			<rect x="819.9" y="-366.5" transform="matrix(0.955 -0.2965 0.2965 0.955 -66.3304 259.6867)" class="st0" width="6" height="1430"/>
	</g>
	<g>
		
			<rect x="808.4" y="-363" transform="matrix(0.9563 -0.2924 0.2924 0.9563 -67.4616 252.6059)" class="st0" width="6" height="1430"/>
	</g>
	<g>
		
			<rect x="796.9" y="-359.5" transform="matrix(0.9576 -0.2882 0.2882 0.9576 -68.5038 245.6073)" class="st0" width="6" height="1430"/>
	</g>
	<g>
		
			<rect x="785.4" y="-356.1" transform="matrix(0.9588 -0.284 0.284 0.9588 -69.458 238.6917)" class="st0" width="6" height="1430"/>
	</g>
	<g>
		
			<rect x="773.9" y="-352.8" transform="matrix(0.96 -0.2798 0.2798 0.96 -70.3254 231.8602)" class="st0" width="6" height="1430"/>
	</g>
	<g>
		
			<rect x="762.3" y="-349.5" transform="matrix(0.9613 -0.2756 0.2756 0.9613 -71.1071 225.1135)" class="st0" width="6" height="1430"/>
	</g>
	<g>
		
			<rect x="750.8" y="-346.2" transform="matrix(0.9625 -0.2714 0.2714 0.9625 -71.8042 218.4525)" class="st0" width="6" height="1430"/>
	</g>
	<g>
		
			<rect x="739.2" y="-343" transform="matrix(0.9636 -0.2672 0.2672 0.9636 -72.4179 211.8781)" class="st0" width="6" height="1430"/>
	</g>
	<g>
		
			<rect x="727.6" y="-339.8" transform="matrix(0.9648 -0.263 0.263 0.9648 -72.9494 205.391)" class="st0" width="6" height="1430"/>
	</g>
	<g>
		
			<rect x="716" y="-336.7" transform="matrix(0.9659 -0.2588 0.2588 0.9659 -73.3998 198.9922)" class="st0" width="6" height="1430"/>
	</g>
	<g>
		
			<rect x="704.4" y="-333.7" transform="matrix(0.967 -0.2546 0.2546 0.967 -73.7704 192.6823)" class="st0" width="6" height="1430"/>
	</g>
	<g>
		
			<rect x="692.8" y="-330.7" transform="matrix(0.9681 -0.2504 0.2504 0.9681 -74.0622 186.4623)" class="st0" width="6" height="1430"/>
	</g>
	<g>
		
			<rect x="681.2" y="-327.7" transform="matrix(0.9692 -0.2462 0.2462 0.9692 -74.2765 180.3328)" class="st0" width="6" height="1430"/>
	</g>
	<g>
		
			<rect x="669.6" y="-324.8" transform="matrix(0.9703 -0.2419 0.2419 0.9703 -74.4146 174.2948)" class="st0" width="6" height="1430"/>
	</g>
	<g>
		
			<rect x="657.9" y="-322" transform="matrix(0.9713 -0.2377 0.2377 0.9713 -74.4775 168.3488)" class="st0" width="6" height="1430"/>
	</g>
	<g>
		
			<rect x="646.2" y="-319.2" transform="matrix(0.9724 -0.2334 0.2334 0.9724 -74.4665 162.4958)" class="st0" width="6" height="1430"/>
	</g>
	<g>
		
			<rect x="634.5" y="-316.4" transform="matrix(0.9734 -0.2292 0.2292 0.9734 -74.3828 156.7363)" class="st0" width="6" height="1430"/>
	</g>
	<g>
		
			<rect x="622.9" y="-313.7" transform="matrix(0.9744 -0.225 0.225 0.9744 -74.2277 151.0712)" class="st0" width="6" height="1430"/>
	</g>
	<g>
		
			<rect x="611.1" y="-311.1" transform="matrix(0.9753 -0.2207 0.2207 0.9753 -74.0024 145.5012)" class="st0" width="6" height="1430"/>
	</g>
	<g>
		
			<rect x="599.4" y="-308.5" transform="matrix(0.9763 -0.2164 0.2164 0.9763 -73.7081 140.0269)" class="st0" width="6" height="1430"/>
	</g>
	<g>
		
			<rect x="587.7" y="-305.9" transform="matrix(0.9772 -0.2122 0.2122 0.9772 -73.3461 134.649)" class="st0" width="6" height="1430"/>
	</g>
	<g>
		
			<rect x="576" y="-303.4" transform="matrix(0.9781 -0.2079 0.2079 0.9781 -72.9176 129.3682)" class="st0" width="6" height="1430"/>
	</g>
	<g>
		
			<rect x="564.2" y="-301" transform="matrix(0.979 -0.2036 0.2036 0.979 -72.4239 124.1852)" class="st0" width="6" height="1430"/>
	</g>
	<g>
		
			<rect x="552.5" y="-298.6" transform="matrix(0.9799 -0.1994 0.1994 0.9799 -71.8663 119.1007)" class="st0" width="6" height="1430"/>
	</g>
	<g>
		
			<rect x="540.7" y="-296.3" transform="matrix(0.9808 -0.1951 0.1951 0.9808 -71.2459 114.1152)" class="st0" width="6" height="1430"/>
	</g>
	<g>
		
			<rect x="528.9" y="-294" transform="matrix(0.9816 -0.1908 0.1908 0.9816 -70.5642 109.2293)" class="st0" width="6" height="1430"/>
	</g>
	<g>
		
			<rect x="517.1" y="-291.7" transform="matrix(0.9825 -0.1865 0.1865 0.9825 -69.8224 104.4438)" class="st0" width="6" height="1430"/>
	</g>
	<g>
		
			<rect x="505.3" y="-289.5" transform="matrix(0.9833 -0.1822 0.1822 0.9833 -69.0217 99.7591)" class="st0" width="6" height="1430"/>
	</g>
	<g>
		
			<rect x="493.5" y="-287.4" transform="matrix(0.984 -0.1779 0.1779 0.984 -68.1635 95.1759)" class="st0" width="6" height="1430"/>
	</g>
	<g>
		
			<rect x="481.7" y="-285.3" transform="matrix(0.9848 -0.1736 0.1736 0.9848 -67.2491 90.6947)" class="st0" width="6" height="1430"/>
	</g>
	<g>
		
			<rect x="469.9" y="-283.3" transform="matrix(0.9856 -0.1693 0.1693 0.9856 -66.2797 86.3161)" class="st0" width="6" height="1430"/>
	</g>
	<g>
		<rect x="458" y="-281.3" transform="matrix(0.9863 -0.165 0.165 0.9863 -65.2567 82.0407)" class="st0" width="6" height="1430"/>
	</g>
	<g>
		
			<rect x="446.2" y="-279.4" transform="matrix(0.987 -0.1607 0.1607 0.987 -64.1814 77.8689)" class="st0" width="6" height="1430"/>
	</g>
	<g>
		
			<rect x="434.3" y="-277.5" transform="matrix(0.9877 -0.1564 0.1564 0.9877 -63.0551 73.8013)" class="st0" width="6" height="1430"/>
	</g>
	<g>
		
			<rect x="422.5" y="-275.7" transform="matrix(0.9884 -0.1521 0.1521 0.9884 -61.8792 69.8384)" class="st0" width="6" height="1430"/>
	</g>
	<g>
		
			<rect x="410.6" y="-273.9" transform="matrix(0.989 -0.1478 0.1478 0.989 -60.6549 65.9807)" class="st0" width="6" height="1430"/>
	</g>
	<g>
		
			<rect x="398.7" y="-272.2" transform="matrix(0.9897 -0.1435 0.1435 0.9897 -59.3836 62.2286)" class="st0" width="6" height="1430"/>
	</g>
	<g>
		
			<rect x="386.9" y="-270.5" transform="matrix(0.9903 -0.1392 0.1392 0.9903 -58.0667 58.5827)" class="st0" width="6" height="1430"/>
	</g>
	<g>
		
			<rect x="375" y="-268.9" transform="matrix(0.9909 -0.1349 0.1349 0.9909 -56.7054 55.0433)" class="st0" width="6" height="1430"/>
	</g>
	<g>
		
			<rect x="363.1" y="-267.3" transform="matrix(0.9914 -0.1305 0.1305 0.9914 -55.3012 51.6109)" class="st0" width="6" height="1430"/>
	</g>
	<g>
		
			<rect x="351.2" y="-265.8" transform="matrix(0.992 -0.1262 0.1262 0.992 -53.8553 48.286)" class="st0" width="6" height="1430"/>
	</g>
	<g>
		
			<rect x="339.2" y="-264.4" transform="matrix(0.9925 -0.1219 0.1219 0.9925 -52.3692 45.0688)" class="st0" width="6" height="1430"/>
	</g>
	<g>
		
			<rect x="327.3" y="-262.9" transform="matrix(0.9931 -0.1175 0.1175 0.9931 -50.8442 41.96)" class="st0" width="6" height="1430"/>
	</g>
	<g>
		
			<rect x="315.4" y="-261.6" transform="matrix(0.9936 -0.1132 0.1132 0.9936 -49.2816 38.9597)" class="st0" width="6" height="1430"/>
	</g>
	<g>
		
			<rect x="303.5" y="-260.3" transform="matrix(0.9941 -0.1089 0.1089 0.9941 -47.6828 36.0684)" class="st0" width="6" height="1430"/>
	</g>
	<g>
		
			<rect x="291.5" y="-259" transform="matrix(0.9945 -0.1045 0.1045 0.9945 -46.0492 33.2865)" class="st0" width="6" height="1430"/>
	</g>
	<g>
		
			<rect x="279.6" y="-257.8" transform="matrix(0.995 -0.1002 0.1002 0.995 -44.3821 30.6142)" class="st0" width="6" height="1430"/>
	</g>
	<g>
		
			<rect x="267.7" y="-256.7" transform="matrix(0.9954 -9.584575e-02 9.584575e-02 0.9954 -42.683 28.052)" class="st0" width="6" height="1430"/>
	</g>
	<g>
		
			<rect x="255.7" y="-255.6" transform="matrix(0.9958 -9.150162e-02 9.150162e-02 0.9958 -40.9532 25.6)" class="st0" width="6" height="1430"/>
	</g>
	<g>
		
			<rect x="243.8" y="-254.5" transform="matrix(0.9962 -8.715574e-02 8.715574e-02 0.9962 -39.194 23.2587)" class="st0" width="6" height="1430"/>
	</g>
	<g>
		
			<rect x="231.8" y="-253.5" transform="matrix(0.9966 -8.280820e-02 8.280820e-02 0.9966 -37.407 21.0283)" class="st0" width="6" height="1430"/>
	</g>
	<g>
		
			<rect x="219.8" y="-252.6" transform="matrix(0.9969 -7.845910e-02 7.845910e-02 0.9969 -35.5933 18.9091)" class="st0" width="6" height="1430"/>
	</g>
	<g>
		
			<rect x="207.9" y="-251.7" transform="matrix(0.9973 -7.410849e-02 7.410849e-02 0.9973 -33.7546 16.9013)" class="st0" width="6" height="1430"/>
	</g>
	<g>
		
			<rect x="195.9" y="-250.9" transform="matrix(0.9976 -6.975647e-02 6.975647e-02 0.9976 -31.892 15.0051)" class="st0" width="6" height="1430"/>
	</g>
	<g>
		
			<rect x="183.9" y="-250.1" transform="matrix(0.9979 -6.540313e-02 6.540313e-02 0.9979 -30.0071 13.2209)" class="st0" width="6" height="1430"/>
	</g>
	<g>
		
			<rect x="171.9" y="-249.3" transform="matrix(0.9981 -6.104854e-02 6.104854e-02 0.9981 -28.1012 11.5488)" class="st0" width="6" height="1430"/>
	</g>
	<g>
		
			<rect x="160" y="-248.7" transform="matrix(0.9984 -5.669279e-02 5.669279e-02 0.9984 -26.1757 9.9891)" class="st0" width="6" height="1430"/>
	</g>
	<g>
		
			<rect x="148" y="-248" transform="matrix(0.9986 -5.233596e-02 5.233596e-02 0.9986 -24.232 8.5418)" class="st0" width="6" height="1430"/>
	</g>
	<g>
		
			<rect x="136" y="-247.5" transform="matrix(0.9988 -4.797813e-02 4.797813e-02 0.9988 -22.2715 7.2072)" class="st0" width="6" height="1430"/>
	</g>
	<g>
		
			<rect x="124" y="-246.9" transform="matrix(0.999 -4.361939e-02 4.361939e-02 0.999 -20.2957 5.9855)" class="st0" width="6" height="1430"/>
	</g>
	<g>
		
			<rect x="112" y="-246.5" transform="matrix(0.9992 -3.925982e-02 3.925982e-02 0.9992 -18.3058 4.8768)" class="st0" width="6" height="1430"/>
	</g>
	<g>
		
			<rect x="100" y="-246" transform="matrix(0.9994 -3.489950e-02 3.489950e-02 0.9994 -16.3034 3.8812)" class="st0" width="6" height="1430"/>
	</g>
	<g>
		
			<rect x="88" y="-245.7" transform="matrix(0.9995 -3.053851e-02 3.053851e-02 0.9995 -14.2898 2.9988)" class="st0" width="6" height="1430"/>
	</g>
	<g>
		
			<rect x="76" y="-245.4" transform="matrix(0.9997 -2.617695e-02 2.617695e-02 0.9997 -12.2664 2.2298)" class="st0" width="6" height="1430"/>
	</g>
	<g>
		
			<rect x="64" y="-245.1" transform="matrix(0.9998 -2.181488e-02 2.181488e-02 0.9998 -10.2347 1.5742)" class="st0" width="6" height="1430"/>
	</g>
	<g>
		
			<rect x="52" y="-244.9" transform="matrix(0.9998 -1.745241e-02 1.745241e-02 0.9998 -8.196 1.0322)" class="st0" width="6" height="1430"/>
	</g>
	<g>
		
			<rect x="40" y="-244.7" transform="matrix(0.9999 -1.308960e-02 1.308960e-02 0.9999 -6.1518 0.6037)" class="st0" width="6" height="1430"/>
	</g>
	<g>
		
			<rect x="28" y="-244.6" transform="matrix(1 -8.726535e-03 8.726535e-03 1 -4.1035 0.2888)" class="st0" width="6" height="1430"/>
	</g>
	<g>
		
			<rect x="16" y="-244.6" transform="matrix(1 -4.363309e-03 4.363309e-03 1 -2.0524 8.755994e-02)" class="st0" width="6" height="1430"/>
	</g>
	<g>
		<rect x="4" y="-244.6" class="st0" width="6" height="1430"/>
	</g>
</g>
</svg>
