<?xml version="1.0" encoding="UTF-8"?><svg id="a" xmlns="http://www.w3.org/2000/svg" viewBox="0 0 1920 1080"><rect x="1363.05" y="150" width="18.62" height="6"/><path d="M1758.43,114h-21.24c.57,2.07,1.21,4.06,1.91,6h21.48c-.8-1.9-1.52-3.9-2.15-6Z"/><rect x="1631.54" y="66" width="18.83" height="6"/><rect x="1631.54" y="54" width="18.83" height="6"/><rect x="1631.54" y="78" width="18.83" height="6"/><rect x="767.95" y="150" width="18.63" height="6"/><rect x="281.9" y="18" width="19.04" height="6"/><polygon points="1631.54 36 1650.38 36 1650.38 30 1634.83 30 1634.83 24 1650.38 24 1650.38 18 1634.83 18 1634.83 15 1540.24 15 1540.24 18 1631.54 18 1631.54 24 1540.24 24 1540.24 30 1631.54 30 1631.54 36"/><rect x="1631.54" y="102" width="18.83" height="6"/><rect x="1631.54" y="114" width="18.83" height="6"/><rect x="1631.54" y="126" width="18.83" height="6"/><rect x="1363.05" y="138" width="18.62" height="6"/><polygon points="1496.77 92.38 1493.06 96 1486.48 96 1486.48 102 1486.91 102 1480.76 108 1486.48 108 1486.48 114 1474.61 114 1468.52 119.94 1468.58 120 1486.48 120 1486.48 126 1505.31 126 1505.31 120 1488.34 120 1494.49 114 1505.31 114 1505.31 108 1500.64 108 1506.61 102.18 1512.58 108 1532.55 108 1526.44 102 1505.31 102 1505.31 96 1520.34 96 1516.65 92.38 1519.09 90 1505.31 90 1505.31 84 1525.24 84 1531.39 78 1511.51 78 1506.61 82.78 1501.71 78 1505.31 78 1505.31 72 1495.56 72 1489.41 66 1505.31 66 1505.31 60 1486.48 60 1486.48 66 1469.53 66 1475.73 72 1486.48 72 1486.48 77.48 1412.81 77.48 1412.81 72 1393.77 72 1393.77 78 1481.92 78 1488.12 84 1393.77 84 1393.77 90 1494.32 90 1496.77 92.38"/><rect x="1631.54" y="90" width="18.83" height="6"/><rect x="186.47" y="78" width="19.04" height="6"/><path d="M212.87,132c-1.56-1.79-2.9-3.79-4-6h-20.62c.52,2.09,1.15,4.09,1.91,6h22.72Z"/><path d="M348.1,144h39.6c-7.41-.91-13.75-2.85-19-6h-26.22c1.73,2.15,3.61,4.15,5.62,6Z"/><polygon points="1534.86 55.22 1529.96 60 1539.66 60 1534.86 55.22"/><polygon points="1543.69 66 1559.07 66 1559.07 60 1540.24 60 1540.24 66 1523.81 66 1517.66 72 1537.54 72 1543.69 66"/><path d="M383.62,30h-35.35c-1.97,1.87-3.81,3.87-5.51,6h25.67c4.38-2.82,9.49-4.81,15.19-6Z"/><rect x="281.9" y="30" width="19.04" height="6"/><path d="M186.47,36h19.04v-6h-14.47c4.19-.87,8.69-1.32,13.47-1.32,4.04,0,7.77,.47,11.22,1.32h35.42c-2.24-2.21-4.66-4.21-7.24-6h-38.41v-6h27.45c-8.65-3.63-18.43-5.45-28.87-5.45-11.23,0-21.19,1.91-29.8,5.45h12.18v6h-23.34c-2.66,1.81-5.14,3.81-7.43,6h30.78v6Z"/><path d="M421.61,36h27.37c-1.62-2.15-3.37-4.15-5.25-6h-35.42c5.05,1.24,9.48,3.32,13.31,6Z"/><path d="M129.52,48h13.17c-.94,1.94-1.8,3.94-2.58,6h-7.38c.88,1.96,1.63,3.97,2.26,6h3.12c-.56,1.95-1.04,3.96-1.46,6h20.96c.43-2.09,.92-4.09,1.49-6h-17.73l14.47-2.74c-.3-1.11-.64-2.19-.99-3.26h6.42c.91-2.12,1.93-4.12,3.06-6h-11.76c-.91-2.09-1.91-4.1-3.01-6h19.2c2.09-2.3,4.46-4.3,7.1-6h-25.67c-1.51,1.9-2.91,3.91-4.21,6h-20.99c1.69,1.87,3.19,3.89,4.53,6Z"/><path d="M1363.28,60h18.4v-6h-18.21c-.07,2.07-.13,4.1-.18,6Z"/><path d="M118.21,36h27.37c-1.62-2.15-3.37-4.15-5.25-6h-35.42c5.05,1.24,9.48,3.32,13.31,6Z"/><rect x="186.47" y="66" width="19.04" height="6"/><path d="M1007.13,36h18.83v-6h-6.82c4.19-.87,8.69-1.32,13.47-1.32,4.04,0,7.77,.47,11.22,1.32h17.05v6h-3.74c2.51,1.76,4.77,3.78,6.77,6h-3.03v6h7.56c1.22,1.93,2.28,3.93,3.21,6h-10.77v6h13.03c.12,.38,.24,.76,.34,1.14l6.04-1.14h-.58v-6h14.06c-.68-2.08-1.44-4.08-2.29-6h-11.78v-6h8.77c-1.22-2.12-2.55-4.11-3.98-6h-4.79v-4.46h75.76v-1.54h25.74v6h19.04v-6h21.72v-6h-21.72v-6h21.72v-3h-94.59v3h-66.32c-8.65-3.63-18.43-5.45-28.87-5.45-11.23,0-21.19,1.91-29.8,5.45h4.73v6h-15.9c-2.66,1.81-5.14,3.81-7.43,6h23.33v6Zm174.09-18v6h-25.74v-6h25.74Zm-53.82,6v6h-48.13c-2.24-2.21-4.66-4.21-7.24-6h55.37Zm-101.43-6h34.92v6h-34.92v-6Z"/><path d="M860.87,36h18.63v-6h-16.52c4.19-.87,8.69-1.32,13.47-1.32,4.04,0,7.77,.47,11.22,1.32h26.76v6h-13.45c2.51,1.76,4.77,3.78,6.77,6h6.68v6h-2.15c1.21,1.93,2.28,3.93,3.21,6h-1.06v6h3.32c.12,.38,.23,.76,.34,1.14l6.04-1.14h9.34v-6h4.14c-.68-2.08-1.44-4.08-2.29-6h-1.86v-6h-1.15c-1.22-2.12-2.55-4.11-3.98-6h5.13v-6h-10.38c-2.24-2.21-4.66-4.21-7.24-6h17.62v-6h-19.04v6h-34.92v-6h25.4c-8.65-3.63-18.43-5.45-28.87-5.45-11.23,0-21.19,1.91-29.8,5.45h14.65v6h-25.81c-2.66,1.81-5.14,3.81-7.43,6h33.25v6Z"/><path d="M679.64,294h-18.44c.04,1.91,.1,3.94,.16,6h18.28v-6Z"/><path d="M845.72,271.18c0-.4-.02-.79-.02-1.18h-21.34c0,.4,.02,.78,.02,1.18,0,1.65-.04,3.25-.11,4.82h21.34c.07-1.59,.11-3.19,.11-4.82Z"/><path d="M706.97,271.18c0,1.63,.04,3.24,.1,4.82h21.36c-.06-1.58-.11-3.18-.11-4.82,0-.4,.01-.79,.02-1.18h-21.34c0,.39-.02,.78-.02,1.18Z"/><path d="M730.69,294h-21.46c.44,2.06,.94,4.06,1.5,6h21.55c-.58-1.88-1.12-3.88-1.59-6Z"/><path d="M206.64,120c-.48-1.88-.82-3.88-.98-6h-19.11c.09,2.07,.27,4.06,.54,6h19.55Z"/><path d="M679.64,282h-18.63c0,1.39,.02,3.47,.07,6h18.56v-6Z"/><path d="M729.56,288c-.3-1.93-.55-3.93-.74-6h-21.36c.18,2.04,.4,4.05,.68,6h21.43Z"/><path d="M845.17,282h-21.31c-.2,2.07-.47,4.07-.79,6h21.31c.33-1.96,.59-3.96,.8-6Z"/><rect x="568.1" y="270" width="18.63" height="6"/><path d="M586.73,260.36c0-.53,0-1.33-.02-2.36h-18.6v6h18.63v-3.64Z"/><rect x="568.1" y="282" width="18.63" height="6"/><rect x="661.02" y="246" width="18.63" height="6"/><path d="M679.64,306h-18.1c.07,2.04,.14,4.05,.22,6h17.87v-6Z"/><rect x="568.1" y="306" width="18.63" height="6"/><path d="M707.22,264h21.32c.12-2.05,.3-4.06,.53-6h-21.27c-.25,1.97-.44,3.97-.58,6Z"/><path d="M1267.38,294h-19.56c-.29,2.09-.67,4.09-1.14,6h20.7v-6Z"/><path d="M1329.56,258h-19.46l3.85,6h19.06c-1.1-1.93-2.27-3.96-3.45-6Z"/><path d="M1267.38,282h-62.36v2.25h43.53c-.02,1.28-.07,2.53-.14,3.75h18.98v-6Z"/><rect x="1205.01" y="270" width="62.36" height="6"/><path d="M845.47,264c-.14-2.03-.34-4.03-.59-6h-21.28c.24,1.92,.43,3.92,.55,6h21.32Z"/><polygon points="1272.71 199.72 1275.46 204 1297.27 204 1294.69 199.72 1272.71 199.72"/><path d="M1733.36,210h-24.43c-3.07-2.32-6.38-4.31-9.89-6h23.12c-10.26-3.67-22.37-4.28-33.41-4.28h-49.6v4.28h-4.5c-3.62,1.7-6.97,3.72-10.08,6h14.58v6h-21.53c-1.85,1.88-3.57,3.88-5.17,6h24.79c3.53-2.59,7.59-4.59,12.11-6h8.63v-.35h30.76c4.17,0,8.54,0,12.78,.35h-18.31c4.06,1.48,7.65,3.52,10.8,6h25.88c1.95,1.58,3.61,3.55,4.91,6h20.05c-.57-2.16-1.28-4.16-2.12-6h-22.15c-1.53-2.14-3.18-4.14-4.95-6h23.58c-1.72-2.3-3.68-4.3-5.85-6Z"/><path d="M1731.38,342v-6h16.06c-.95-1.89-1.71-3.88-2.31-6h-13.75v-6h12.5c-.28-1.89-.48-3.87-.63-6h-11.87v-6h11.63c-.03-1.63-.05-3.31-.05-5.09,0-.31-.02-.6-.02-.91h-11.55v-6h11.11c-.29-2.11-.72-4.12-1.32-6h-9.79v-6h7.1c-1.37-2.24-3.1-4.24-5.19-6h-1.91v-6h-5.63c3.41-1.4,6.57-3.42,9.35-6h-3.72v-3.11h-62.36v3.11h-29.86v6h29.86v6h-29.86v6h18.83v-4.57h32.65c11.65,0,19.6,1.34,24.83,4.57h-3.06c-.12,2.08-.31,4.08-.58,6h9.38c.96,1.75,1.65,3.74,2.12,6h-12.64c-.52,2.11-1.14,4.12-1.87,6h15.24c.05,.95,.07,1.93,.07,2.95s0,2.07,.01,3.05h-18.25c-1.33,2.21-2.84,4.21-4.55,6h22.93c.08,2.2,.19,4.19,.34,6h-10.29l.51,6h10.54c.41,2.27,.93,4.22,1.58,6h-11.61l.51,6h14.14c.14,.21,.28,.42,.42,.64h20.72l.21-.61-.02-.02h-19.92Z"/><polygon points="1598.93 342 1599.18 342.64 1619.06 342.64 1618.8 342 1598.93 342"/><path d="M65.43,216h.58l-2.41,6h1.82v6h-4.23l-2.41,6h6.64v6h-9.04l-2.41,6h11.45v6h-13.86l-2.41,6h16.27v6h19.04v-6h-17.07l2.27-6h14.8v-6h-12.53l2.06-5.44c.07-.19,.14-.37,.21-.56h10.26v-6h-8.05c.76-2.09,1.47-4.07,2.15-6h5.9v-6h17.07l-2.4-6h-14.67v-.15h48.76v-5.85h-36.49l-2.4-6h38.89v-4.28H16.67v4.28h54.16l-2.41,6H16.67v5.85h48.76v.15Zm15.22,6c.5-1.48,1.01-2.98,1.52-4.51h.21c.46,1.36,.99,2.89,1.56,4.51h-3.29Z"/><rect x="65.43" y="342" width="19.04" height=".64"/><path d="M1879.14,204v-4.28h-116.57v4.28h73.46l-3.63,6h-67.51l-3.63-6h-21.82l3.85,6h19.27v5.85h48.76v.15h17.45l-3.63,6h-13.82v6h10.19l-3.63,6h-6.56v6h2.93l-.34,.56c-1.06,1.79-2.13,3.6-3.21,5.44h.62v6h-4.12c-1.11,1.92-2.26,3.91-3.47,6h7.58v6h-11.03c-.54,.95-1.09,1.9-1.66,2.89-.52-.93-1.08-1.9-1.65-2.89h-19.06l3.85,6h29.54v6h-25.69l3.59,5.59v.41h19.04v-.41l3.59-5.59h18.51v-6h-14.66l3.85-6h10.81v-6h-6.96l3.85-6h3.11v-6h.74l3.85-6h-4.59v-6h8.44l3.85-6h-12.29v-6h16.14l3.85-6h-19.99v-.15h48.76v-5.85h-24.93l3.85-6h21.08Z"/><rect x="1639.15" y="258" width="18.83" height="6"/><path d="M568.1,252h18.49c-.04-1.83-.09-3.85-.15-6h-18.34v6Z"/><path d="M386.11,324c1.72-1.88,3.35-3.88,4.88-6h-25.88c-2.44,2.29-5.19,4.32-8.28,6h-14.79v6h-55.1c2.62,2.24,5.46,4.25,8.51,6h46.58v6h-32.05c7.24,2.03,15.27,3.09,24.07,3.09,8.26,0,15.89-1.05,22.87-3.09h4.14v-6h10.08c3.06-1.76,5.95-3.76,8.65-6h-18.73v-6h25.02Z"/><rect x="568.1" y="294" width="18.63" height="6"/><path d="M612.53,270l3.78,6h1.58v6h2.2l3.78,6h-5.98v6h9.76l3.78,6h-13.54v6h17.33l3.78,6h19.42c-1.09-2.01-2.2-4.01-3.3-6h-18.39v-6h15.02c-1.16-2.05-2.32-4.05-3.47-6h-11.55v-6h7.92c-.4-.65-.81-1.29-1.21-1.92l-2.6-4.08h-4.11v-3.27h68.01v-2.73h-25.09v-6h25.09v-6h-25.09v-6h-18.63v6h-31.65l-3.82-6h11.18v-6h-15.01l-3.82-6h18.83v-6h-18.83v6h-20.01c1.25,2.21,2.42,4.25,3.44,6h16.57v6h-12.92l3.78,6h9.14v6h-5.36Zm48.49,0v6h-24.01l-3.82-6h27.83Z"/><path d="M1267.38,318h-30.05c-2.27,2.37-4.88,4.37-7.81,6h19.99c.24-.32,.49-.63,.71-.96l.08,.96h14.94c-6.56,3.57-14.72,5.37-24.79,5.37-9.44,0-17.71-1.87-24.59-5.37h-28.54c1.85,2.16,3.86,4.16,6.01,6h-37.11c2.62,2.24,5.46,4.25,8.51,6h37.11c4.4,2.52,9.26,4.52,14.54,6h-37.11c7.24,2.03,15.27,3.09,24.07,3.09,7.6,0,14.62-1.04,20.97-3.09h27.53l.05,.64h15.49v-.64h-4.03c5.1-1.49,9.8-3.52,14.11-6h-10.07v-6h18.63c2.19-1.85,4.25-3.85,6.15-6h-24.78v-6Zm-16.05,18h-14.38c2.67-1.75,5.15-3.75,7.42-6h6.45l.51,6Z"/><path d="M616.88,82.17h-62.36v1.83h19.78v6h-19.78v6h19.78v3.52h43.53c-.01,.84-.04,1.66-.07,2.48h18.91v-6h-19.78v-6h19.78v-6h-19.78v-1.83Z"/><path d="M616.88,108v-6h-18.91c-.09,2.08-.25,4.07-.48,6h19.39Z"/><path d="M914.42,84h-34.92v-6h-18.63v6h16.83v6h-16.83v6h16.83v3.52h43.53c-.01,.84-.04,1.66-.07,2.48h-6.73v6h6.25c-.25,2.09-.59,4.09-1.02,6h-5.23v6h3.53c-.76,2.14-1.65,4.14-2.67,6h-.86v6h-3.26c-2,2.32-4.29,4.32-6.87,6h10.13v6h-26.96c-2.93,.42-6.05,.64-9.35,.64-3.92,0-7.6-.22-11.06-.64h12.44v-6h-31.44c-2.75-1.65-5.2-3.65-7.34-6h-23.11c1.3,2.11,2.71,4.11,4.23,6h23.77l3.78,6h-21.93c2.42,2.22,5.04,4.22,7.86,6h17.85l3.78,6h-9.06c8.26,2.88,17.65,4.37,28.14,4.37,9.05,0,17.28-1.48,24.52-4.37h-21.05v-6h31.99c2.45-1.77,4.71-3.78,6.79-6h5.1l.51,6h-9.48v6h9.99l.16,1.92h15.49v-1.92h-6.6v-6h6.6v-6h-6.6v-6h6.6v-6h-6.6v-6h6.6v-6h-6.6v-6h6.6v-6h-6.6v-6h6.6v-6h-6.6v-1.99h73.66v1.99h18.83v-6h-42.06c-.03-1.16-.05-2.34-.05-3.54,0-.83,.02-1.64,.03-2.46h42.08v-6h-41.82c.14-2.07,.33-4.07,.58-6h-21.02c-.27,1.97-.5,3.96-.66,6h-48.63v6Zm-34.92,12v-6h34.92v6h-34.92Zm83.27-12c-.02,.82-.04,1.63-.04,2.46,0,1.2,.03,2.37,.06,3.54h-22.72v-6h22.7Z"/><rect x="860.87" y="66" width="18.63" height="6"/><rect x="1007.13" y="66" width="18.83" height="6"/><rect x="914.42" y="66" width="19.04" height="6"/><path d="M879.49,102h-18.58c.03,1.76,.07,3.8,.11,6h18.47v-6Z"/><polygon points="398.34 84 368.3 84 374.5 90 398.34 90 398.34 96 373.24 96 367.09 102 406.62 102 400.52 96 460.71 96 460.71 90 399.27 90 405.42 84 460.71 84 460.71 82.17 398.34 82.17 398.34 84"/><rect x="1060.89" y="66" width="18.83" height="6"/><rect x="1007.13" y="102" width="18.83" height="6"/><rect x="1181.21" y="102" width="19.04" height="6"/><rect x="1181.21" y="66" width="19.04" height="6"/><path d="M1276.51,102l2.37,6h18.88c-.73-1.94-1.48-3.94-2.26-6h-18.99Z"/><path d="M421.19,156c3.96-1.58,7.61-3.58,10.95-6h-76.17c3.83,2.42,8.02,4.42,12.56,6h52.66Z"/><path d="M1775.13,156h2.06l.76,1.92h19.25l.76-1.92h29.84c3.96-1.58,7.61-3.58,10.95-6h-38.42l2.37-6h-8.39c-7.41-.91-13.75-2.85-19-6h29.76l2.37-6h-17.85c-.67,1.94-1.28,3.73-1.8,5.29h-.21c-.54-1.62-1.15-3.4-1.8-5.29h-17.81c-.83-.91-1.62-1.85-2.36-2.87-.71-1-1.37-2.05-2.01-3.13h-21.99c.99,2.09,2.08,4.09,3.25,6h22.85l2.37,6h-20.99c1.73,2.15,3.61,4.15,5.62,6h17.74l2.37,6h-12.25c3.83,2.42,8.02,4.42,12.56,6Z"/><polygon points="460.71 156 460.71 150 444.54 150 445.06 156 460.71 156"/><polygon points="1318.6 156 1320.97 150 1295.47 150 1297.84 156 1318.6 156"/><path d="M1867.31,84v-1.83h-62.36v1.83h2.23l-2.3,6h.07v6h-2.36c-.75,1.97-1.5,3.98-2.25,6h18.95l2.37-6h20.75v6h6c-.09,2.08-.25,4.07-.48,6h-5.52v6h4.5c-.47,2.11-1.03,4.11-1.7,6h-2.8v6h.13c-1.2,2.19-2.57,4.2-4.12,6h3.99v6h-10.86c-4.67,3.05-10.29,5.05-16.83,6h27.69v6h8.75l.51,6h-9.26v1.92h18.62v-1.92h6.28v-6h-6.28v-6h6.28v-6h-6.28v-6h6.28v-6h-6.28v-6h6.28v-6h-6.28v-6h6.28v-6h-6.28v-6h6.28v-6h-6.28v-6h6.28Zm-21.78,60c1.65-1.76,3.2-3.65,4.62-5.68l.49,5.68h-5.1Zm-3.13-54h-18.38l2.37-6h16.01v6Z"/><path d="M425.54,18h-58.68c-4.02,1.65-7.73,3.67-11.16,6h80.79c-3.4-2.37-7.06-4.37-10.96-6Z"/><path d="M122.14,18H63.46c-4.02,1.65-7.73,3.67-11.16,6h80.79c-3.4-2.37-7.06-4.37-10.96-6Z"/><rect x="1363.05" y="114" width="18.62" height="6"/><polygon points="1482.19 126 1474.86 126 1478.57 129.54 1482.19 126"/><path d="M1363.05,71.55v.45h18.62v-6h-18.54c-.05,2.48-.08,4.44-.08,5.55Z"/><polygon points="1478.36 55.22 1473.56 60 1483.25 60 1478.36 55.22"/><path d="M1290.91,90h-19.14l2.37,6h19.07l-.06-.15-2.24-5.85Z"/><path d="M438.6,120h22.11v-6h-20.4c-.47,2.11-1.03,4.11-1.7,6Z"/><rect x="1631.54" y="42" width="18.83" height="6"/><polygon points="157.31 150 141.14 150 141.66 156 157.31 156 157.31 150"/><path d="M1381.67,42h-17.74c-.09,1.94-.18,3.96-.26,6h18v-6Z"/><path d="M408.11,144h30.82c1.65-1.76,3.2-3.65,4.62-5.68l.49,5.68h16.68v-6h-35.77c-4.67,3.05-10.29,5.05-16.83,6Z"/><rect x="1363.05" y="90" width="18.62" height="6"/><polygon points="1538.35 126 1531.03 126 1534.65 129.54 1538.35 126"/><rect x="1363.05" y="78" width="18.62" height="6"/><rect x="1363.05" y="126" width="18.62" height="6"/><rect x="1363.05" y="102" width="18.62" height="6"/><path d="M879.49,132v-6h-17.92c.08,2.09,.17,4.11,.26,6h17.66Z"/><path d="M860.83,132c-1.08-1.99-2.17-4-3.26-6h-19.53l3.78,6h19.01Z"/><rect x="1007.13" y="126" width="18.83" height="6"/><path d="M1304.32,126h-18.33l2.37,6h18.06c-.64-1.87-1.34-3.87-2.1-6Z"/><rect x="1181.21" y="126" width="19.04" height="6"/><rect x="186.47" y="42" width="19.04" height="6"/><rect x="648.04" y="126" width="18.83" height="6"/><path d="M432.92,48h23.05c-.91-2.09-1.91-4.1-3.01-6h-24.57c1.69,1.87,3.19,3.89,4.53,6Z"/><rect x="281.9" y="54" width="19.04" height="6"/><rect x="281.9" y="42" width="19.04" height="6"/><path d="M359,44.81c.73-.99,1.51-1.91,2.33-2.81h-22.78c-1.19,1.92-2.29,3.92-3.3,6h21.65c.66-1.1,1.36-2.17,2.1-3.19Z"/><rect x="186.47" y="54" width="19.04" height="6"/><rect x="281.9" y="90" width="19.04" height="6"/><rect x="1181.21" y="42" width="19.04" height="6"/><rect x="186.47" y="90" width="19.04" height="6"/><rect x="281.9" y="78" width="19.04" height="6"/><rect x="281.9" y="66" width="19.04" height="6"/><rect x="860.87" y="42" width="18.63" height="6"/><rect x="1007.13" y="42" width="18.83" height="6"/><rect x="186.47" y="102" width="19.04" height="6"/><path d="M790.38,48h18.9l-3.82-6h-18.3c1.01,1.92,2.1,3.94,3.22,6Z"/><polygon points="1267.03 78 1269.4 84 1288.61 84 1286.31 78 1267.03 78"/><path d="M1281.25,114l2.37,6h18.56c-.69-1.92-1.42-3.92-2.19-6h-18.74Z"/><rect x="1181.21" y="54" width="19.04" height="6"/><rect x="1181.21" y="114" width="19.04" height="6"/><path d="M460.71,102h-18.91c-.09,2.08-.25,4.07-.48,6h19.39v-6Z"/><path d="M879.49,114h-18.32c.05,1.97,.11,3.98,.18,6h18.14v-6Z"/><rect x="1007.13" y="114" width="18.83" height="6"/><path d="M350.31,108c-.4-1.93-.74-3.93-1.01-6h-21.11c.27,2.05,.6,4.05,.99,6h21.13Z"/><rect x="281.9" y="102" width="19.04" height="6"/><path d="M327.25,90c.06,2.04,.16,4.04,.31,6h21.11c-.15-1.94-.25-3.94-.3-6h-21.12Z"/><path d="M300.87,114h-19.11c-.17,2.12-.5,4.12-.99,6h19.56c.27-1.94,.45-3.93,.54-6Z"/><path d="M348.61,78h-21.09c-.15,1.97-.24,3.97-.29,6h21.12c.04-2.06,.12-4.06,.25-6Z"/><path d="M338.25,132h23.11c-.83-.91-1.62-1.85-2.36-2.87-.71-1-1.37-2.05-2.01-3.13h5.39l6.15-6h-14.55c-.8-1.9-1.52-3.9-2.15-6h-21.24c.57,2.07,1.21,4.06,1.91,6h16.26l6.28,6h-20.04c.99,2.09,2.08,4.09,3.25,6Z"/><path d="M431.81,132h28.9v-6h-24.78c-1.2,2.19-2.57,4.2-4.12,6Z"/><path d="M299.16,126h-20.64c-1.11,2.21-2.47,4.21-4.04,6h22.75c.76-1.91,1.39-3.91,1.92-6Z"/><rect x="1007.13" y="54" width="18.83" height="6"/><path d="M350.18,66h19.41l-6.15-6h-9.69l-5.04,5.02,1.01,.98h-20.49c-.41,1.96-.76,3.96-1.04,6h21.02c.27-2.08,.6-4.08,.99-6Z"/><path d="M797.01,60h13.03c-.56,1.95-1.04,3.96-1.46,6h-8.15c1.35,2.33,2.5,4.27,3.31,5.55l.28,.45h3.51c-.27,1.97-.5,3.96-.66,6h.93l3.78,6h-4.99c-.02,.82-.04,1.63-.04,2.46,0,1.2,.03,2.37,.06,3.54h8.76l3.78,6h-12.23c.16,2.05,.37,4.04,.63,6h15.38l3.78,6h-18.17c.41,2.06,.88,4.06,1.41,6h20.54l3.78,6h19.99c-1.13-2.03-2.26-4.04-3.39-6h-19.69c-.57-1.92-1.08-3.91-1.51-6h17.71c-1.24-2.09-2.47-4.1-3.68-6h-15.04c-.26-1.94-.47-3.93-.62-6h11.85l-3.82-6h-8.33c-.03-1.16-.05-2.34-.05-3.54,0-.83,.02-1.64,.03-2.46h4.52l-3.82-6h-.44c.14-2.07,.33-4.07,.58-6h-3.97l-3.82-6h8.78c.43-2.09,.92-4.09,1.49-6h-14.09l-3.82-6h20.09c.91-2.12,1.93-4.12,3.06-6h-21.65c-.94,1.94-1.8,3.94-2.58,6h-18.36c1.14,2.06,2.26,4.08,3.34,6Z"/><rect x="860.87" y="54" width="18.63" height="6"/><path d="M438.39,60h6.38l14.47-2.74c-.3-1.11-.64-2.19-.99-3.26h-22.13c.88,1.96,1.63,3.97,2.26,6Z"/><path d="M353.84,54h-21.17c-.73,1.95-1.41,3.94-1.99,6h20.99c.63-2.11,1.36-4.1,2.17-6Z"/><rect x="320.41" y="426" width="19.04" height="6"/><rect x="178.84" y="426" width="18.63" height="6"/><polygon points="523.38 426 525.69 432 544 432 541.6 426 523.38 426"/><polygon points="339.45 486 320.41 486 320.41 492 337.71 492 335.31 498 320.41 498 320.41 504 332.9 504 330.49 510 320.41 510 320.41 516 328.08 516 325.68 522 320.41 522 320.41 527.36 339.45 527.36 339.45 522 345.67 522 347.96 516 339.45 516 339.45 510 350.26 510 352.55 504 339.45 504 339.45 498 354.85 498 357.14 492 339.45 492 339.45 486"/><rect x="320.41" y="474" width="19.04" height="6"/><rect x="232.3" y="474" width="19.04" height="6"/><path d="M724.49,450h11.52c-.11-2.03-.27-4.04-.5-6h-11.02v-6h10.09c-.38-2.05-.84-4.05-1.36-6h-8.74v-6h6.87c-.74-2.06-1.56-4.07-2.47-6h-4.4v-6h1.19c-1.28-2.1-2.67-4.1-4.17-6h2.99v-6h-8.42c-2.29-2.19-4.78-4.19-7.44-6h15.87v-6h-19.04v6h-20.65v-6h12.56c-8.84-3.61-19.08-5.55-30.64-5.55h-49.81v5.55h-48.68v6h-38.62l-2.4-6h37.21c-10.89-4.83-24.41-5.55-36.64-5.55h-49.6v5.55h24.49l-2.41,6h-22.08v6h18.83v-1.63h30.76c6.97,0,14.48,0,21.05,1.63h30.33c-1.53-2.28-3.28-4.27-5.23-6h42.98v6h.08v6h-.08v6h.08v6h-.08v6h.08v6h-.08v6h.08v6h-.08v6h.08v6h-.08v6h.08v6h-.08v6h.08v6h-.08v6h.08v6h-.08v6h.08v6h-.08v6h.08v6h-.08v6h.08v5.36h19.04v-5.36h61.09c4.13-1.64,7.96-3.64,11.49-6h15.88v-6h-8.36c1.96-1.86,3.79-3.86,5.48-6h2.88v-6h1.29c1.16-1.91,2.22-3.92,3.19-6h-4.48v-6h6.94c.69-1.94,1.29-3.94,1.83-6h-8.77v-6h10.11c.36-1.96,.68-3.95,.92-6h-11.02v-6h11.52c.11-1.97,.18-3.96,.18-6h-11.7v-6Zm-9.77,12h-9.27v6h8.85c-.21,2.09-.47,4.1-.8,6h-8.05v6h6.7c-.58,2.1-1.25,4.1-2.03,6h-4.67v6h1.72c-.85,1.48-1.78,2.92-2.79,4.33-.4,.57-.83,1.13-1.28,1.67h2.34v6h-9.29c-4.33,2.73-9.7,4.76-15.95,6h25.25v6h-69.42v-6h-.29v-6h.29v-6h-.29v-6h.29v-6h-.29v-6h.29v-6h-.29v-6h.29v-6h-.29v-6h.29v-6h-.29v-6h.29v-6h-.29v-6h.29v-6h-.29v-6h.29v-6h-.29v-6h.29v-6h-.29v-1.63h28.88c5.85,0,11.3,.55,16.25,1.63h24.57v6h-9.32c2.69,1.72,5.03,3.72,6.94,6h2.38v6h1.73c1.12,1.92,2.11,3.91,2.98,6h-4.71v6h6.75c.52,1.9,.97,3.89,1.33,6h-8.08v6h8.87c.18,1.91,.32,3.9,.4,6h-9.28v6h9.4c0,2.09-.05,4.08-.13,6Z"/><rect x="320.41" y="414" width="19.04" height="6"/><path d="M518.89,414c.72,1.99,1.46,4.02,2.21,6h18.1l-2.4-6h-17.91Z"/><rect x="65.43" y="318" width="19.04" height="6"/><rect x="232.3" y="498" width="19.04" height="6"/><path d="M197.46,486h-8.42c-.4-1.76-.86-3.74-1.38-6h9.8v-6h-11.2c-.27-1.15-.55-2.34-.85-3.6l-.57-2.4h12.62v-6h-14.04l-1.42-6h15.45v-6h-16.87l-1.42-6h18.29v-6h-18.63v6h-17.95l1.6,6h16.35v6h-14.75l1.6,6h13.15v4.72c0,.38,0,.8,0,1.28h-11.55l1.6,6h10.04c.03,1.84,.08,3.86,.13,6h-8.57l1.6,6h7.13c.06,1.99,.12,4.01,.19,6h-5.73l1.6,6h-17.66l3.78,6h15.48l1.6,6h-13.3l3.78,6h11.12l1.6,6h-8.94l3.38,5.36h21.35v-5.36h7.29l1.74-6h-9.02v-6h10.76l1.74-6h-12.49v-6h14.23l1.74-6h-15.96v-6Zm-17.82,12c.08,1.78,.16,3.48,.24,5.06h-.21c-.91-1.68-1.82-3.37-2.75-5.06h2.72Zm13.93,7.51h-.21c-.12-.53-.23-1.03-.34-1.51h.95c-.14,.52-.27,1.03-.4,1.51Zm1.98-7.51h-3.85c-.38-1.76-.79-3.65-1.31-6h6.76c-.55,2.08-1.09,4.09-1.6,6Z"/><rect x="1811.33" y="282" width="19.04" height="6"/><polygon points="891.04 468 909.88 468 909.88 463.46 977.89 463.46 977.89 462 891.04 462 891.04 468"/><polygon points="909.88 510 891.04 510 891.04 516 985.64 516 985.64 510.82 909.88 510.82 909.88 510"/><polygon points="767.04 390 746.66 390 748.89 396 769.12 396 767.04 390"/><polygon points="846.05 396 866.28 396 868.51 390 848.14 390 846.05 396"/><rect x="1811.33" y="318" width="19.04" height="6"/><rect x="1811.33" y="330" width="19.04" height="6"/><rect x="65.43" y="330" width="19.04" height="6"/><rect x="1811.33" y="306" width="19.04" height="6"/><rect x="1811.33" y="342" width="19.04" height=".64"/><rect x="1811.33" y="294" width="19.04" height="6"/><polygon points="548.8 444 546.4 438 527.99 438 530.29 444 548.8 444"/><rect x="320.41" y="450" width="19.04" height="6"/><rect x="320.41" y="462" width="19.04" height="6"/><rect x="85.92" y="522" width="18.63" height="5.36"/><rect x="320.41" y="438" width="19.04" height="6"/><path d="M793.57,466.31l-1.5-4.31h-18.62l2.23,6h18.48c-.2-.56-.39-1.12-.59-1.69Z"/><polygon points="339.45 408 339.45 402 323.46 402 325.06 396 376.23 396 373.82 402 407.98 402 405.58 396 388.21 396 388.21 390 403.18 390 400.96 384.45 380.87 384.45 378.64 390 326.65 390 328.13 384.45 308.04 384.45 306.76 390 271.65 390 271.65 396 305.37 396 303.98 402 320.41 402 320.41 408 302.6 408 301.21 414 320.26 414 321.86 408 339.45 408"/><path d="M140.35,438h-20.46c.71,1.2,1.33,2.22,1.82,3l1.89,3h20.58l-3.82-6Z"/><rect x="232.3" y="486" width="19.04" height="6"/><polygon points="841.88 408 861.82 408 864.05 402 843.97 402 841.88 408"/><polygon points="829.37 444 848.43 444 850.66 438 831.45 438 829.37 444"/><polygon points="833.54 432 852.89 432 855.12 426 835.62 426 833.54 432"/><rect x="408.87" y="522" width="19.04" height="5.36"/><rect x="178.84" y="390" width="18.63" height="6"/><rect x="408.87" y="390" width="19.04" height="6"/><path d="M821.61,466.31c-.2,.57-.4,1.13-.59,1.69h18.48l2.23-6h-18.62l-1.5,4.31Z"/><polygon points="793.53 516 821.65 516 823.88 510 791.29 510 793.53 516"/><rect x="705.44" y="522" width="19.04" height="5.36"/><polygon points="797.75 527.36 817.42 527.36 819.42 522 795.76 522 797.75 527.36"/><path d="M808.72,504h17.4l2.23-6h-17.62c-.83,2.47-1.5,4.48-2.01,6Z"/><rect x="32.37" y="390" width="19.04" height="6"/><path d="M816.85,480h18.19l2.23-6h-18.35c-.72,2.08-1.41,4.08-2.08,6Z"/><path d="M812.75,492h17.83l2.23-6h-18.02c-.73,2.14-1.41,4.15-2.04,6Z"/><polygon points="825.19 456 843.96 456 846.2 450 827.28 450 825.19 456"/><polygon points="837.71 420 857.35 420 859.59 414 839.8 414 837.71 420"/><rect x="891.04" y="450" width="86.85" height="6"/><rect x="891.04" y="474" width="18.83" height="6"/><rect x="891.04" y="522" width="94.59" height="5.36"/><rect x="891.04" y="498" width="18.83" height="6"/><rect x="891.04" y="438" width="18.83" height="6"/><rect x="891.04" y="486" width="18.83" height="6"/><rect x="891.04" y="402" width="18.83" height="6"/><rect x="891.04" y="390" width="94.59" height="6"/><rect x="891.04" y="414" width="18.83" height="6"/><rect x="891.04" y="426" width="18.83" height="6"/><rect x="32.37" y="426" width="19.04" height="6"/><rect x="32.37" y="402" width="19.04" height="6"/><rect x="32.37" y="414" width="19.04" height="6"/><path d="M796.26,474h-18.35l2.23,6h18.22c-.67-1.91-1.36-3.91-2.09-6Z"/><polygon points="452.12 516 433.81 516 436.13 522 449.71 522 447.56 527.36 467.65 527.36 469.7 522 455.95 522 453.55 516 471.99 516 474.29 510 454.52 510 452.12 516"/><rect x="408.87" y="510" width="19.04" height="6"/><path d="M804.59,498h-17.76l2.23,6h17.59c-.54-1.57-1.23-3.58-2.06-6Z"/><polygon points="787.89 450 768.98 450 771.21 456 789.98 456 787.89 450"/><rect x="178.84" y="414" width="18.63" height="6"/><path d="M800.44,486h-18.07l2.23,6h17.92c-.64-1.85-1.33-3.85-2.08-6Z"/><polygon points="151.82 456 148 450 127.38 450 131.16 456 151.82 456"/><polygon points="134.94 462 138.72 468 159.47 468 155.65 462 134.94 462"/><path d="M166.85,480c-1.21-2.07-2.41-4.08-3.59-6h-20.76l3.78,6h20.57Z"/><polygon points="783.72 438 764.51 438 766.75 444 785.81 444 783.72 438"/><path d="M106.49,414c1.04,1.95,2.14,3.97,3.25,6h19.14l-3.82-6h-18.56Z"/><path d="M136.53,432l-3.82-6h-19.65c1.17,2.1,2.3,4.12,3.37,6h20.11Z"/><path d="M170.29,486h-20.23l3.78,6h19.8c-1.12-2.02-2.23-4.03-3.35-6Z"/><rect x="232.3" y="510" width="19.04" height="6"/><rect x="85.92" y="462" width="18.63" height="6"/><rect x="85.92" y="486" width="18.63" height="6"/><rect x="85.92" y="510" width="18.63" height="6"/><rect x="85.92" y="498" width="18.63" height="6"/><rect x="232.3" y="522" width="19.04" height="5.36"/><polygon points="775.38 414 755.59 414 757.82 420 777.46 420 775.38 414"/><polygon points="771.21 402 751.12 402 753.36 408 773.29 408 771.21 402"/><polygon points="779.55 426 760.05 426 762.28 432 781.64 432 779.55 426"/><rect x="178.84" y="402" width="18.63" height="6"/><rect x="568.1" y="342" width="18.63" height=".64"/><polygon points="1520.86 252 1538.97 252 1541.24 246 1523.27 246 1520.86 252"/><rect x="1427.99" y="234" width="14.02" height="6"/><path d="M1545.72,234h-17.63l-2.41,6h17.83c.79-2.12,1.52-4.11,2.21-6Z"/><path d="M1265.33,240c-.63-2.07-1.34-4.08-2.13-6h-22.83c1.14,1.93,2.13,3.94,2.99,6h21.97Z"/><polygon points="1491.97 324 1511.72 324 1514.01 318 1494.38 318 1491.97 324"/><polygon points="1516.05 264 1534.42 264 1536.69 258 1518.45 258 1516.05 264"/><polygon points="1518.6 306 1499.2 306 1496.79 312 1516.31 312 1518.6 306"/><path d="M1108.85,240c-.74-2.06-1.56-4.06-2.47-6h-22.19c1.1,1.9,2.11,3.9,3,6h21.65Z"/><rect x="1427.99" y="318" width="14.02" height="4.83"/><rect x="1427.99" y="306" width="14.02" height="6"/><polygon points="1511.23 276 1529.87 276 1532.14 270 1513.64 270 1511.23 276"/><polygon points="1609.21 318 1589.63 318 1591.96 324 1611.61 324 1609.21 318"/><path d="M361.1,222c2.34,1.79,4.45,3.81,6.32,6h24.42c-1.17-2.11-2.44-4.11-3.81-6h-26.92Z"/><rect x="421.63" y="222" width="19.04" height="6"/><path d="M300.43,318h-23.98c1.38,2.12,2.88,4.12,4.49,6h28.05c-3.21-1.64-6.08-3.64-8.56-6Z"/><rect x="661.02" y="222" width="18.63" height="6"/><path d="M514.34,216h15.09v6h-15.09v6h15.09v6h-15.09v6h15.09v6h-15.09v6h15.09v6h-15.09v4.2h-73.66v-4.2h11.7v-6h-11.7v-6h11.7v-6h-11.7v-6h11.7v-2.63h-14.02v2.63h-16.72v6h16.72v6h-16.72v6h16.72v6h-16.72v6h16.72v6h-16.72v6h-23.25v6h23.25v6h16.72v6h-16.72v6h16.72v6h-16.72v6h16.72v6h-16.72v6h19.04v-6h11.7v-6h-11.7v-6h11.7v-6h-11.7v-6h11.7v-6h-11.7v-6h51.46v-6h37.29v6h-15.09v6h15.09v6h-15.09v6h15.09v6h-15.09v6h15.09v6h-15.09v6h15.09v6h-15.09v6h15.09v6h-15.09v.64h18.83v-.64h15.3v-6h-15.3v-6h15.3v-6h-15.3v-6h15.3v-6h-15.3v-6h15.3v-6h-15.3v-6h15.3v-6h-15.3v-6h15.3v-6h-15.3v-6h15.3v-6h-15.3v-6h15.3v-6h-15.3v-6h15.3v-6h-15.3v-6h15.3v-6h-15.3v-6h15.3v-6h-15.3v-6h34.92v6h30.67l-3.82-6h2.29v-6h-6.11l-2.73-4.28h-20.3v4.28h-34.92v-4.28h-18.83v4.28h-33.67v6h33.67v6Zm15.09,54h-77.05v-6h77.05v6Z"/><path d="M606.42,228l-3.82-6h-34.5v6h17.75c-.06-1.36-.11-2.69-.17-3.98h.21c.66,1.26,1.37,2.6,2.1,3.98h18.43Z"/><path d="M1322.58,246h-16.08c-.56-2.05-1.19-4.05-1.9-6h14.44l-3.63-6h-13.28c-.96-2.07-2.02-4.07-3.16-6h12.82l-3.63-6h-13.22c-1.61-2.12-3.33-4.12-5.19-6h14.78l-3.63-6h-18.11c-3.1-2.28-6.45-4.3-10.05-6h-37.7c-6.27-3.01-13.18-5.01-20.57-6h-22.65c-7.81,1-14.88,3.04-21.17,6h37.11c-3.62,1.7-6.97,3.72-10.08,6h-37.11c-2.48,1.83-4.8,3.83-6.95,6h31.73c5.51-1.73,11.68-2.6,18.41-2.6,5.75,0,10.89,.94,15.45,2.6h-28.48c-1.85,1.88-3.57,3.88-5.17,6h25.07c3.41-2.39,7.56-4.48,12.46-6h28.55c-2.08-2.19-4.32-4.19-6.71-6h34.37l3.85,6h-24.42c4.22,1.42,7.95,3.43,11.21,6h17.07l3.85,6h-14.94c.39,.5,.79,1.01,1.16,1.53,1.03,1.43,1.98,2.92,2.88,4.47h14.76l3.85,6h-15.61c.81,1.9,1.52,3.91,2.15,6h17.3l3.85,6h-19.64c.39,1.92,.72,3.92,.99,6h21.28c-.26-2.03-.57-4.04-.96-6h18.16c-1.27-2.19-2.47-4.24-3.5-6Z"/><path d="M736.01,234h-21.58c-.89,1.94-1.7,3.94-2.44,6h21.29c.82-2.14,1.72-4.15,2.73-6Z"/><path d="M708.73,252h21.24c.39-2.08,.85-4.08,1.37-6h-21.21c-.53,1.96-1,3.95-1.4,6Z"/><path d="M821.1,246c.58,1.91,1.09,3.91,1.51,6h21.31c-.4-2.05-.89-4.04-1.42-6h-21.4Z"/><path d="M1112.17,252c-.4-2.05-.89-4.04-1.42-6h-21.4c.58,1.91,1.09,3.91,1.51,6h21.31Z"/><path d="M1161.2,306h-17.56v-6h15.26c-.62-1.91-1.16-3.91-1.63-6h-13.63v-6h12.51c-.29-1.93-.52-3.93-.7-6h-11.81v-6h11.45c-.06-1.58-.09-3.17-.09-4.82,0-.4,.01-.78,.01-1.18h-11.37v-6h11.56c.12-2.07,.28-4.07,.5-6h-12.06v-6h12.96c.39-2.09,.85-4.08,1.39-6h-14.35v-6h16.34c.84-2.12,1.8-4.12,2.85-6h-19.19v-6h-18.63v6h16.31c-.89,1.94-1.7,3.94-2.44,6h-13.87v6h12c-.53,1.96-1,3.95-1.4,6h-10.61v6h9.67c-.25,1.97-.44,3.97-.58,6h-9.09v6h8.87c0,.39-.02,.78-.02,1.18,0,1.63,.04,3.24,.1,4.82h-8.94v6h9.33c.18,2.04,.4,4.05,.68,6h-9.95c.03,1.8,.07,3.83,.12,6h10.92c.44,2.06,.94,4.06,1.5,6h-12.26c.06,1.98,.12,4,.19,6h14.09c.8,2.08,1.69,4.08,2.65,6h-16.52c.09,2.11,.18,4.13,.28,6h17.6v-6h20.79c-1.19-1.87-2.26-3.87-3.23-6Z"/><path d="M1241.88,312h25.5v-6h-22.57c-.84,2.15-1.82,4.15-2.93,6Z"/><rect x="661.02" y="234" width="18.63" height="6"/><path d="M381.31,300l-4.12-1.05c-.13,.35-.26,.7-.39,1.05h4.51Z"/><path d="M398.02,306h-23.91c-1.09,2.09-2.32,4.1-3.71,6h24.47c1.12-1.92,2.17-3.92,3.15-6Z"/><rect x="568.1" y="318" width="18.63" height="6"/><path d="M1011.34,318h-14.17v-6h8.8c-1.13-1.67-2.22-3.69-3.22-6h-5.58v-6h3.36c-.58-1.88-1.12-3.88-1.59-6h-1.76v-6h.63c-.3-1.93-.55-3.93-.74-6h.11v-6h-.5c-.06-1.58-.11-3.18-.11-4.82,0-.4,.01-.79,.02-1.18h.59v-6h-.39c.12-2.05,.3-4.06,.53-6h-.13v-6h1.04c.39-2.08,.85-4.08,1.37-6h-2.41v-6h4.35c.82-2.14,1.72-4.15,2.73-6h-7.08v-6h11.08c1.77-2.1,3.97-4.14,6.62-6h-17.71v-6h30.17c5.22-1.62,11.27-2.6,18.19-2.6s12.36,.88,17.45,2.6h31.02c-2.15-2.17-4.47-4.17-6.95-6h-28.1l-3.82-6h21.87c-6.25-2.96-13.25-5-20.96-6h-22.86c-7.81,1-14.88,3.04-21.17,6h20.09v6h-30.17c-2.48,1.83-4.8,3.83-6.95,6h-16.64v6h11.48c-1.44,1.91-2.78,3.91-4.01,6h-7.47v6h4.34c-.89,1.94-1.7,3.94-2.44,6h-1.9v6h.03c-.53,1.96-1,3.95-1.4,6h1.36v6h-2.3c-.25,1.97-.44,3.97-.58,6h-83.66v-6h12.87v-6h-12.87v-6h12.87v-6h-12.87v-6h12.87v-6h-12.87v-6h12.87v-6h-12.87v-6h12.87v-6h-12.87v-4.28h-18.83v4.28h12.66v6h-12.66v6h12.66v6h-12.66v6h12.66v6h-12.66v6h12.66v6h-12.66v6h12.66v6h-12.66v6h12.66v6h-12.66v6h12.66v6h-12.66v6h12.66v6h-12.66v6h12.66v6h-12.66v6h12.66v6h-12.66v6h12.66v6h-12.66v6h12.66v6h-12.66v.64h94.59v-.64h-62.88v-6h62.88v-6h-62.88v-6h-12.87v-6h12.87v-6h-12.87v-6h12.87v-6h-12.87v-6h12.87v-6h-12.87v-6h12.87v-3.27h73.66v3.27h-2.64c.18,2.04,.4,4.05,.68,6h1.96v6h-.86c.44,2.06,.94,4.06,1.5,6h-.64v6h2.65c.8,2.08,1.69,4.08,2.65,6h-5.3v6h8.73c1.38,2.12,2.88,4.12,4.49,6h-13.23v6h18.83v-6h22.93c-3.24-1.64-6.16-3.66-8.76-6Zm-119.54-42v-6h83.44c0,.39-.02,.78-.02,1.18,0,1.63,.04,3.24,.1,4.82h-83.51Z"/><path d="M661.67,318h-18.9l3.78,6h33.09v-6h-17.6c0,.11,.01,.23,.02,.34h-.21c-.06-.11-.12-.23-.18-.34Z"/><path d="M1069.48,324h26.92c1.67-1.89,3.22-3.89,4.66-6h-23.59c-2.35,2.37-5,4.37-7.99,6Z"/><path d="M1169.25,318h-23.53c1.38,2.12,2.88,4.12,4.49,6h27.49c-3.17-1.6-5.99-3.59-8.45-6Z"/><path d="M568.1,234v6h18.17c-.06-1.98-.13-3.99-.2-6h-17.98Z"/><path d="M614.07,240l-3.82-6h-19.02c1.09,2,2.2,4.02,3.3,6h19.55Z"/><rect x="65.43" y="306" width="19.04" height="6"/><path d="M394.75,234h-23.02c1.16,1.93,2.17,3.94,3.03,6h22.15c-.64-2.07-1.35-4.08-2.15-6Z"/><path d="M248.49,336v-6h-59.79v-6h-15.97v-6h15.97v-6h-15.97v-6h15.97v-6h-15.97v-6h15.97v-6h-15.97v-6h91.27c-2.55-2.14-5.64-3.92-9.38-5.31,.62-.21,1.23-.44,1.84-.69h-15.72v-6h23.87c0,.39-.02,.78-.02,1.18,0,1.63,.04,3.24,.1,4.82h21.34c-.05-1.57-.09-3.17-.09-4.82,0-.4,.01-.78,.01-1.18h-20.15c1.89-1.75,3.6-3.76,5.09-6h15.24c.11-2.07,.27-4.07,.48-6h-12.52c.79-1.89,1.44-3.89,1.95-6h11.43c.38-2.09,.82-4.08,1.34-6h-11.79c.13-1.37,.2-2.78,.2-4.22,0-.61-.03-1.19-.05-1.78h13.59c.83-2.12,1.77-4.12,2.81-6h-16.85c-.27-2.13-.66-4.13-1.16-6h22.05c1.87-2.27,4-4.27,6.37-6h-24.79c-1.44,1.91-2.78,3.91-4.01,6h-19.67c.92,1.74,1.66,3.73,2.19,6h14.35c-.89,1.94-1.7,3.94-2.44,6h-11.1c.05,.84,.07,1.7,.07,2.6,0,1.19-.07,2.32-.17,3.4h9.33c-.53,1.96-1,3.95-1.4,6h-9.18c-.8,2.33-1.92,4.31-3.3,6h11.54c-.25,1.97-.44,3.97-.58,6h-19.1c-7.6,3.35-17.47,3.71-26.49,3.71h-30.55v-3.71h52.05v-1.8h-68.01v-4.2h15.97v-6h-15.97v-6h15.97v-6h-15.97v-6h15.97v-6h-15.97v-6h15.97v-6h43.54c6.93,.57,13.51,2.07,18.37,6h22.84c-1-2.21-2.18-4.2-3.52-6h-21.44v-6h15.59c-3.32-2.6-7.12-4.54-11.2-6h-4.39v-4.28h-94.59v4.28h15.97v6h-15.97v6h15.97v6h-15.97v6h15.97v6h-15.97v6h15.97v6h-15.97v6h15.97v6h-15.97v6h15.97v6h-15.97v6h15.97v6h-15.97v6h15.97v6h-15.97v6h15.97v6h-15.97v6h15.97v6h-15.97v6h15.97v6h-15.97v6h15.97v6h-15.97v.64h94.59v-.64h-59.79v-6h59.79Z"/><rect x="421.63" y="342" width="19.04" height=".64"/><polygon points="65.43 300 84.48 300 84.48 294 130.33 294 127.93 288 84.48 288 84.48 282 65.43 282 65.43 288 37.13 288 34.72 294 65.43 294 65.43 300"/><rect x="65.43" y="270" width="19.04" height="6"/><path d="M1746.31,246h-18.6c-.22,2.21-.63,4.21-1.25,6h18.87c.46-1.92,.79-3.92,.98-6Z"/><path d="M1715.03,264h25.15c1.23-1.85,2.3-3.85,3.2-6h-20.22c-2.16,2.65-4.94,4.59-8.13,6Z"/><path d="M1746.01,234h-18.82c-.86-2.09-1.83-4.09-2.87-6h-24.16c1.57,1.89,2.97,3.9,4.2,6h22.62c.42,1.82,.7,3.81,.82,6h-20.45c.8,1.92,1.49,3.88,2.05,5.86l20.51-3.88c-.18-.67-.39-1.33-.59-1.98h17.13c-.06-2.11-.2-4.11-.45-6Z"/><polygon points="1396.81 199.72 1374.63 199.72 1372.04 204 1394.07 204 1396.81 199.72"/><path d="M1230.01,222c2.28,1.79,4.33,3.81,6.15,6h24.16c-1.15-2.11-2.39-4.11-3.74-6h-26.58Z"/><rect x="1639.15" y="306" width="18.83" height="6"/><rect x="1639.15" y="294" width="18.83" height="6"/><polygon points="1614.01 330 1594.28 330 1596.61 336 1616.41 336 1614.01 330"/><rect x="1639.15" y="246" width="18.83" height="6"/><rect x="568.1" y="330" width="18.63" height="6"/><rect x="1639.15" y="234" width="18.83" height="6"/><rect x="1639.15" y="222" width="18.83" height="6"/><rect x="421.63" y="199.72" width="19.04" height="4.28"/><rect x="421.63" y="210" width="19.04" height="6"/><polygon points="1382.52 222 1361.16 222 1357.53 228 1378.67 228 1382.52 222"/><polygon points="1390.22 210 1368.41 210 1364.78 216 1386.37 216 1390.22 210"/><path d="M1173.25,222h-24.79c-1.44,1.91-2.78,3.91-4.01,6h22.43c1.87-2.27,4-4.27,6.37-6Z"/><path d="M1074.19,222c2.2,1.74,4.2,3.74,5.97,6h23.06c-1.24-2.09-2.59-4.09-4.04-6h-25Z"/><rect x="421.63" y="330" width="19.04" height="6"/><path d="M1221.98,156h-21.72v-6h21.72v-6h-21.72v-6h-19.04v6h-25.74v-2.62h-75.76v-3.38h16.51v-6h-16.51v-6h16.51v-6h-16.51v-6h16.51v-6h-16.51v-6h16.51v-6h-16.51v-1.99h68.01v-4.01h33.48v6h19.04v-6h13.98v-6h-13.98v-6h13.98v-.52h-68.01v-5.48h-18.83v6h-66.5v6h-27.02v6h27.02v6h-27.02v3.52h43.53c-.01,.84-.04,1.66-.07,2.48h-16.44v6h15.96c-.25,2.09-.59,4.09-1.02,6h-14.94v6h13.24c-.76,2.14-1.65,4.14-2.67,6h-10.57v6h6.45c-2,2.32-4.29,4.32-6.87,6h.42v6h-17.25c-2.93,.42-6.05,.64-9.35,.64-3.92,0-7.6-.22-11.06-.64h2.73v-6h-18.83v6h-23.5c2.42,2.22,5.04,4.22,7.86,6h15.63v6h-3.07c8.26,2.88,17.65,4.37,28.14,4.37,9.05,0,17.28-1.48,24.52-4.37h-30.76v-6h34.92v6h19.7l.16,1.92h15.49v-1.92h31.16v1.92h94.59v-1.92Zm-40.77-78v6h-33.48v-6h33.48Zm-84.98,6h31.16v6h-31.16v-6Zm-28.57,66c2.45-1.77,4.71-3.78,6.79-6h5.1l.51,6h-12.41Zm28.57,0v-6h31.16v6h-31.16Zm59.24,6v-6h25.74v6h-25.74Z"/><rect x="1393.77" y="156" width="19.04" height="1.92"/><path d="M1634.83,156h25.74v1.92h19.04v-1.92h34.51v1.92h18.62v-1.92h-6.61v-6h6.61v-6h-6.61v-2.21h-75.76v-3.79h-18.83v6h-91.31v6h91.31v6h-91.31v1.92h94.59v-1.92Zm79.29-12v6h-34.51v-6h34.51Zm-79.29,0h25.74v6h-25.74v-6Z"/><rect x="1486.48" y="156" width="18.83" height="1.92"/><polygon points="1358.84 156 1336.29 156 1337.5 157.92 1358.84 157.92 1358.84 156"/><path d="M1247.3,157.92h18.62v-1.92h-12.54v-6h12.54v-6h-12.54v-6h12.54v-6h-12.54v-6h12.54v-6h-12.54v-6h12.54v-6h-12.54v-6h12.54v-6h-12.54v-6h12.54v-6h-12.54v-6h12.54v-2.36c0-.73-.01-1.99-.04-3.64h17.48l3.78,6h20.6l-3.82-6h-19.91l-2.3-6h18.39l-3.82-6h-16.86l-2.3-6h15.34l-3.82-6h-13.81l-2.3-6h12.29l-3.82-6h-10.76l-2.3-6h9.23l-3.82-6h-7.71l-2.3-6h6.18l-1.91-3h-20.3v3h-12.54v6h12.54v6h-12.54v6h12.54v6h-12.54v6h12.54v6h-12.54v6h12.54v6h-12.54v6h12.54v6h-12.54v6h12.54v6h-12.54v6h12.54v6h-12.54v6h12.54v6h-12.54v6h12.54v6h-12.54v6h12.54v6h-12.54v6h12.54v6h-12.54v6h12.54v1.92Zm32.47-91.92h-14.02c-.04-1.85-.09-3.88-.15-6h10.75c1.22,2.17,2.38,4.21,3.42,6Zm-6.76-12h-7.58c-.06-1.99-.13-4-.2-6h4.5c1.08,1.99,2.18,4.01,3.28,6Zm-8.01-12c-.04-.92-.08-1.82-.12-2.7h.21c.45,.87,.93,1.77,1.42,2.7h-1.51Zm-12.5,0h1.17c.72,2.02,1.44,4.03,2.15,6h-3.06c-.08-2.04-.17-4.06-.26-6Zm.48,12h5c.75,2.08,1.48,4.09,2.18,6h-7c-.05-1.9-.11-3.93-.18-6Zm.33,12h9.06c.79,2.1,1.5,3.99,2.11,5.55l.18,.45h-11.27v-.45c0-1.11-.03-3.07-.08-5.55Z"/><path d="M722.96,160.37c10.8,0,20.15-1.49,28-4.37h-8.32v-6h19.86c2.49-1.78,4.74-3.78,6.72-6h17.36v-6h-12.96c1.13-1.89,2.13-3.88,2.98-6h9.99v-6h-8.06c.49-1.92,.88-3.92,1.17-6h6.9v-6h-6.35c.05-1.07,.08-2.15,.08-3.25v-2.75h6.28v-6h-6.28v-6h6.28v-6h-6.28v-6h6.28v-6h-6.28v-6h6.23c-.03-1.65-.07-3.69-.12-6h-6.11v-6h5.96c-.05-1.93-.11-3.95-.18-6h-5.78v-6h5.58c-.07-2.04-.15-4.05-.23-6h-5.35v-6h21.33l-3.82-6h-17.51v-6h13.69l-3.82-6h-9.86v-3h-19.04v3h6.69v6h-6.69v6h6.69v6h-6.69v6h6.69v6h-6.69v6h6.69v6h-6.69v6h6.69v6h-6.69v6h6.69v6h-6.69v6h6.69v6h-6.69v6h6.69v6h-6.69v2.75c0,1.11-.06,2.19-.14,3.25h6.84v6h-7.83c-.56,2.15-1.31,4.15-2.25,6h10.07v6h-14.12c-2.06,2.35-4.48,4.35-7.18,6h21.29v6h-25.32v-2.62h-75.76v-3.38h-18.83v6h28.79c1.97,2.22,4.2,4.22,6.68,6h-35.47v6h46.96c7.82,2.88,17.15,4.37,27.95,4.37Zm1.92-16.37c-.64,.02-1.28,.03-1.92,.03s-1.28-.01-1.92-.03h3.84Z"/><polygon points="636.66 157.92 636.66 156 621.01 156 621.17 157.92 636.66 157.92"/><polygon points="1744.98 24 1714.12 24 1714.12 30 1747.28 30 1744.98 24"/><path d="M1835.65,60h-19.28l-2.3,6h19.36c.69-1.83,1.42-3.82,2.22-6Z"/><polygon points="1741.53 15 1714.12 15 1714.12 18 1742.68 18 1741.53 15"/><rect x="1486.48" y="15" width="18.83" height="3"/><rect x="1660.57" y="15" width="19.04" height="3"/><path d="M1731.7,38.89h.21c.37,1.04,.74,2.08,1.11,3.11h12.13c-1.19,1.92-2.29,3.92-3.3,6h-6.69c.74,2.05,1.46,4.05,2.16,6h1.95c-.73,1.95-1.41,3.94-1.99,6h2.22c.79,2.15,1.53,4.16,2.21,6h-5.9c-.41,1.96-.76,3.96-1.04,6h9.23l2.37,6h-12.26c-.15,1.97-.24,3.97-.29,6h14.91l2.37,6h-17.27c.06,2.04,.16,4.04,.31,6h19.33l2.37,6h-21.06c.27,2.05,.6,4.05,.99,6h21.13c-.4-1.93-.74-3.93-1.01-6h18.95c-.74-1.95-1.5-3.95-2.29-6h-17.28c-.15-1.94-.25-3.94-.3-6h15.29l-2.3-6h-13c.04-2.06,.12-4.06,.25-6h10.45l-2.3-6h-7.57c.27-2.08,.6-4.08,.99-6h4.28l-2.3-6h-.5c.63-2.11,1.36-4.1,2.17-6h-3.98l-2.3-6h9.33c.66-1.1,1.36-2.17,2.1-3.19,.73-.99,1.51-1.91,2.33-2.81h-16.06l-2.3-6h25.46c4.38-2.82,9.49-4.81,15.19-6h-35.35c-1.97,1.87-3.81,3.87-5.51,6h-35.24v6h17.74c-.05-1.07-.1-2.11-.16-3.11Z"/><path d="M134.95,78h21.09c.14-2.07,.33-4.07,.58-6h-21.02c-.27,1.97-.5,3.96-.66,6Z"/><polygon points="1809.48 78 1828.76 78 1831.13 72 1811.78 72 1809.48 78"/><path d="M1791.66,126h18.14l2.37-6h-18.39c-.74,2.07-1.45,4.08-2.12,6Z"/><path d="M1816.91,108h-18.8c-.74,2.02-1.47,4.02-2.18,6h18.61l2.37-6Z"/><rect x="1714.12" y="132" width="18.62" height="6"/><rect x="1714.12" y="120" width="18.62" height="6"/><path d="M1783.67,126c-.67-1.9-1.39-3.9-2.15-6h-18.56l2.37,6h18.33Z"/><path d="M1758.23,108l2.37,6h18.74c-.71-1.93-1.45-3.93-2.23-6h-18.88Z"/><rect x="1393.77" y="144" width="19.04" height="6"/><polygon points="1358.84 144 1328.73 144 1332.51 150 1358.84 150 1358.84 144"/><rect x="1486.48" y="144" width="18.83" height="6"/><rect x="1393.77" y="15" width="19.04" height="3"/><rect x="1660.57" y="48" width="19.04" height="6"/><rect x="1660.57" y="36" width="19.04" height="6"/><rect x="1660.57" y="24" width="19.04" height="6"/><path d="M1732.11,48h-18v6h18.21c-.07-1.98-.14-4-.22-6Z"/><path d="M1732.51,60h-18.4v6h18.54c-.04-1.77-.09-3.8-.15-6Z"/><rect x="1393.77" y="24" width="19.04" height="6"/><rect x="1486.48" y="24" width="18.83" height="6"/><path d="M1669.43,329.37c-11.11,0-20.38-1.65-27.74-5.37h16.29v-6h-18.83v6h-24.94c1.85,2.16,3.86,4.16,6.01,6h18.94v6h-10.42c4.4,2.52,9.26,4.52,14.54,6h-4.12v.64h18.83v-.64h30.32c4.58-1.48,8.8-3.49,12.63-6h-42.96v-6h50.38c1.86-1.84,3.57-3.84,5.14-6h-19.99c-6.45,3.57-14.49,5.37-24.08,5.37Z"/><path d="M1619.45,282c-.17-1.94-.29-3.94-.36-6h-21.14c.08,2.05,.21,4.04,.39,6h21.11Z"/><path d="M1609.71,318h23.53c-1.29-1.27-2.49-2.64-3.58-4.15-.43-.6-.84-1.22-1.24-1.85h-21.61l-2.4-6h20.79c-.86-1.89-1.62-3.9-2.3-6h-20.88l-2.4-6h-24.2c.46-1.95,.86-3.96,1.19-6h20.61l-2.4-6h-17.41c.2-1.97,.35-3.97,.44-6h14.58l-2.4-6h-12.08c-.02-2.03-.1-4.03-.23-6h9.91l-2.4-6h-8.1c-.26-2.03-.57-4.04-.96-6h6.66l-2.4-6h-5.68c-.56-2.05-1.19-4.05-1.9-6h5.18l-2.4-6h-5.25c-.96-2.07-2.02-4.07-3.16-6h6.02l-2.4-6h-7.65c-1.61-2.12-3.33-4.12-5.19-6h10.44l-2.4-6h-15c-3.1-2.28-6.45-4.3-10.05-6h22.65l-1.71-4.28h-20.09l-1.72,4.28h-64.12c-3.62,1.7-6.97,3.72-10.08,6h71.79l-2.41,6h-8.33c4.22,1.42,7.95,3.43,11.21,6h-5.28l-2.41,6h13.66c.39,.5,.79,1.01,1.16,1.53,1.03,1.43,1.98,2.92,2.88,4.47h9.37c.76,2.06,1.53,4.08,2.27,6h-8.64c.81,1.9,1.52,3.91,2.15,6h8.79l2.3,6h-9.58c.39,1.92,.72,3.92,.99,6h10.9l2.3,6h-12.65c.12,1.93,.18,3.93,.2,6h14.75l2.3,6h-17.14c-.08,2.06-.22,4.06-.41,6h19.85l.63,1.63h-49.6l.62-1.63h-18.77l-2.41,6h48.89c-.35,2.08-.77,4.08-1.25,6h-50.05l-2.41,6h19.29v-.03h61.75v.03h18.97c.6,2.06,1.27,4.07,2.01,6h-18.64l2.32,6h18.97c1.05,2.09,2.19,4.1,3.43,6Zm-61.85-90c.71-2.02,1.4-4,2.08-6h3.29c.66,1.89,1.38,3.92,2.13,6h-7.5Z"/><path d="M90.54,240c.07,.18,.14,.37,.21,.56l2.09,5.44h18.29l-2.4-6h-18.2Z"/><polygon points="127.32 336 129.64 342 149.52 342 147.12 336 127.32 336"/><polygon points="125.53 282 123.13 276 104.36 276 106.66 282 125.53 282"/><path d="M282.01,342c-1.56-1.93-2.82-3.91-3.87-6h-20.5c.8,2.17,1.8,4.09,3.04,6h21.33Z"/><path d="M774,342h-21.62c7.24,2.03,15.27,3.09,24.07,3.09,8.33,0,15.98-1.07,22.9-3.09h21.59c5.09-1.48,9.84-3.49,14.23-6h-21.71c3.06-1.77,5.92-3.77,8.56-6h21.8c2.22-1.84,4.32-3.84,6.29-6h-21.94c1.67-1.89,3.22-3.89,4.66-6h22.17c1.37-1.9,2.67-3.91,3.88-6h-22.41c1.03-1.93,1.98-3.93,2.84-6h22.72c.24-.51,.49-1.02,.72-1.54l-17.44-4.46h-3.8c.63-1.95,1.19-3.95,1.68-6h-21.36c-.52,2.09-1.12,4.09-1.8,6h20.78c-.77,2.05-1.66,4.06-2.68,6h-20.62c-1.04,2.12-2.18,4.12-3.43,6h20.34c-1.57,2.15-3.33,4.16-5.29,6h-19.88c-2.35,2.37-5,4.37-7.99,6h19.59c-6.19,3.37-13.72,5.37-22.76,5.37-9.63,0-18.15-1.83-25.08-5.37h-21.13c-3.24-1.64-6.16-3.66-8.76-6h21.32c-1.48-1.4-2.83-2.91-4.02-4.56-.33-.47-.65-.96-.97-1.44h-21.7c-1.13-1.67-2.22-3.69-3.22-6h21.62c-.87-1.9-1.66-3.89-2.34-6h-21.43c.6,2.06,1.27,4.07,2.01,6h-21.62c.8,2.08,1.69,4.08,2.65,6h21.62c1.05,2.09,2.19,4.1,3.43,6h-21.62c1.38,2.12,2.88,4.12,4.49,6h21.62c1.85,2.16,3.86,4.16,6.01,6h-21.62c2.62,2.24,5.46,4.25,8.51,6h21.62c4.4,2.52,9.26,4.52,14.54,6Z"/><path d="M1629.67,229.53c.39-.53,.8-1.03,1.21-1.53h-22.43c-1.13,1.93-2.18,3.93-3.13,6h21.51c.88-1.56,1.82-3.06,2.84-4.47Z"/><rect x="1336.96" y="204" width="18.83" height="6"/><rect x="1032.1" y="264" width="18.62" height="6"/><path d="M749.95,270c.02-2.06,.07-4.06,.18-6h-21.29c-.13,1.97-.2,3.97-.22,6h21.34Z"/><polygon points="1121.89 342 1143.64 342 1143.64 336 1118.11 336 1121.89 342"/><rect x="1032.1" y="276" width="18.62" height="6"/><path d="M750.03,276h-21.34c.08,2.05,.21,4.04,.39,6h21.3c-.16-1.94-.28-3.94-.35-6Z"/><rect x="342.05" y="252" width="19.04" height="6"/><path d="M1471.65,228.71c.19-.24,.4-.48,.6-.71h-22.45c-1.13,1.93-2.18,3.93-3.13,6h21.58c1.04-1.92,2.17-3.69,3.4-5.29Z"/><path d="M32.37,90h-8.52c.06,2.04,.16,4.04,.31,6h8.21v6h-7.58c.27,2.05,.6,4.05,.99,6h6.59v6h-5.18c.57,2.07,1.21,4.06,1.91,6h3.27v6h-.77c.99,2.09,2.08,4.09,3.25,6h-2.48v6h6.71c1.73,2.15,3.61,4.15,5.62,6h-12.33v6h20.2c3.83,2.42,8.02,4.42,12.56,6H32.37v1.92H126.96v-1.92h-9.17c3.96-1.58,7.61-3.58,10.95-6h-1.78v-6h8.57c1.65-1.76,3.2-3.65,4.62-5.68l.49,5.68h14.9c2.42,2.22,5.04,4.22,7.86,6h40.76c3.37,2.41,7.2,4.42,11.49,6h-39.69c8.26,2.88,17.65,4.37,28.14,4.37,9.05,0,17.28-1.48,24.52-4.37h23.87l.16,1.92h15.49v-1.92h3.47c4.31-1.58,8.16-3.59,11.54-6h-15.01v-6h21.73c1.65-1.85,3.11-3.85,4.4-6h-26.12v-6h-28.9c-2,2.32-4.29,4.32-6.87,6h34.93c-6.15,3.76-13.74,5.73-21.78,6h-3.84c-8.03-.27-15.59-2.24-21.7-6h-26.89c1.28,2.15,2.73,4.15,4.37,6h18.07c-2.93,.42-6.05,.64-9.35,.64-3.92,0-7.6-.22-11.06-.64h-37.82v-6h18.83c-2.75-1.65-5.2-3.65-7.34-6h-11.48v-6h7.11c-1.11-1.88-2.11-3.87-3.01-6h-4.1v-6h1.95c-.57-1.92-1.08-3.91-1.51-6h-.44v-6h-.58c-.26-1.94-.47-3.93-.62-6h1.2v-6h-1.5c-.03-1.16-.05-2.34-.05-3.54,0-.83,.02-1.64,.03-2.46h1.52v-1.83h-62.36v1.83h39.72c-.02,.82-.04,1.63-.04,2.46,0,1.2,.03,2.37,.06,3.54h-39.74v6h40.05c.16,2.05,.37,4.04,.63,6h2.78c-.09,2.08-.25,4.07-.48,6h-1.31c.41,2.06,.88,4.06,1.41,6h-1.11c-.47,2.11-1.03,4.11-1.7,6h4.73c.76,2.08,1.59,4.08,2.5,6h-9.9c-1.2,2.19-2.57,4.2-4.12,6h17.27c1.3,2.11,2.71,4.11,4.23,6h-28.37c-4.67,3.05-10.29,5.05-16.83,6h-20.41c-7.41-.91-13.75-2.85-19-6h-14.1v-6h6.75c-.83-.91-1.62-1.85-2.36-2.87-.71-1-1.37-2.05-2.01-3.13h-2.38v-6h-.63c-.8-1.9-1.52-3.9-2.15-6h2.78v-6h-4.29c-.4-1.93-.74-3.93-1.01-6h5.31v-6h-5.93c-.15-1.94-.25-3.94-.3-6h6.23v-6h-6.25c.04-2.06,.12-4.06,.25-6h5.99v-6h-5.41c.27-2.08,.6-4.08,.99-6h4.42v-6h-2.93c.63-2.11,1.36-4.1,2.17-6h.76v-6h2.3c.66-1.1,1.36-2.17,2.1-3.19,.73-.99,1.51-1.91,2.33-2.81h-6.72v-6h13.82c4.38-2.82,9.49-4.81,15.19-6h-29.01v-6h-18.83v6h12.5c-1.97,1.87-3.81,3.87-5.51,6h-6.99v6h2.78c-1.19,1.92-2.29,3.92-3.3,6h.52v6h-3.1c-.73,1.95-1.41,3.94-1.99,6h5.09v6h-6.55c-.41,1.96-.76,3.96-1.04,6h7.59v6h-8.25c-.15,1.97-.24,3.97-.29,6h8.54v6Zm213.99,54h5.1l.51,6h-12.41c2.45-1.77,4.71-3.78,6.79-6Z"/><rect x="32.37" y="15" width="18.83" height="3"/><path d="M1192.81,282c-.18-1.94-.31-3.95-.39-6h-21.36c.08,2.05,.21,4.04,.39,6h21.37Z"/><path d="M1827.87,30h-12.95c5.05,1.24,9.48,3.32,13.3,6h-2.65l-2.3,6h11.72c1.69,1.87,3.19,3.89,4.53,6h-18.55l-2.3,6h19.16c.68-1.88,1.4-3.89,2.16-6h3.04c-.08,2-.15,4.02-.22,6h-.08c.88,1.96,1.63,3.97,2.26,6h-2.36c-.06,2.2-.11,4.23-.15,6h18.54v-6h-9.65l14.47-2.74c-.3-1.11-.64-2.19-.99-3.26h-3.83v-6h1.55c-.91-2.09-1.91-4.1-3.01-6h1.46v-6h-5.44c-1.62-2.15-3.37-4.15-5.25-6h10.69v-6h-17.93c-3.4-2.37-7.06-4.37-10.96-6h-58.68c-4.02,1.65-7.73,3.67-11.16,6h67.86l-2.3,6Zm14.27,12c.36-1.02,.73-2.05,1.11-3.11h.21c-.05,1-.11,2.04-.16,3.11h-1.16Z"/><path d="M1783.38,240.56l-.34-.56h-20.49l3.85,6h20.18c-1.56-2.66-2.74-4.66-3.2-5.44Z"/><rect x="1842.4" y="72" width="18.62" height="6"/><path d="M987.35,114c-.57-1.92-1.08-3.91-1.51-6h-21.13c.41,2.06,.88,4.06,1.41,6h21.24Z"/><rect x="1127.39" y="108" width="18.83" height="6"/><rect x="1393.77" y="108" width="19.04" height="6"/><path d="M1358.84,108h-18.47c.04,1.9,.09,3.92,.15,6h18.32v-6Z"/><path d="M614.34,60c.12,.38,.23,.76,.34,1.14l6.04-1.14h-6.38Z"/><polygon points="392.76 108 398.91 114 418.83 114 412.73 108 392.76 108"/><path d="M987.2,60h-20.99c-.56,1.95-1.04,3.96-1.46,6h20.96c.43-2.09,.92-4.09,1.49-6Z"/><rect x="1127.39" y="60" width="18.83" height="6"/><polygon points="1540.24 72 1540.24 78 1627.08 78 1627.08 77.48 1559.07 77.48 1559.07 72 1540.24 72"/><rect x="1540.24" y="132" width="18.83" height="6"/><path d="M1004.23,138c-2.75-1.65-5.2-3.65-7.34-6h-23.11c1.3,2.11,2.71,4.11,4.23,6h26.22Z"/><rect x="1127.39" y="132" width="18.83" height="6"/><rect x="1393.77" y="60" width="19.04" height="6"/><polygon points="411.21 126 418.53 126 424.81 120 405.06 120 411.21 126"/><path d="M503.14,86.46c0,1.2,.03,2.37,.06,3.54h-19.78c.06,2.04,.16,4.04,.31,6h19.78c.16,2.05,.37,4.04,.63,6h-19.78c.27,2.05,.6,4.05,.99,6h19.78c.41,2.06,.88,4.06,1.41,6h-19.78c.57,2.07,1.21,4.06,1.91,6h19.78c.76,2.08,1.59,4.08,2.5,6h-19.78c.99,2.09,2.08,4.09,3.25,6h19.78c1.3,2.11,2.71,4.11,4.23,6h-19.78c1.73,2.15,3.61,4.15,5.62,6h19.78c2.42,2.22,5.04,4.22,7.86,6h-19.78c3.83,2.42,8.02,4.42,12.56,6h19.78c8.26,2.88,17.65,4.37,28.14,4.37,9.05,0,17.28-1.48,24.52-4.37h-19.78c3.96-1.58,7.61-3.58,10.95-6h12.41l.51,6h15.65v-6h-8.79c2.45-1.77,4.71-3.78,6.79-6h2v-6h19.78v-6h-19.78v-6h19.78v-6h-19.78v-6h19.78v-6h-19.39c-.25,2.09-.59,4.09-1.02,6h-19.78c-.47,2.11-1.03,4.11-1.7,6h19.78c-.76,2.14-1.65,4.14-2.67,6h-19.78c-1.2,2.19-2.57,4.2-4.12,6h19.78c-2,2.32-4.29,4.32-6.87,6h-19.78c-4.67,3.05-10.29,5.05-16.83,6h19.78c-2.93,.42-6.05,.64-9.35,.64-3.92,0-7.6-.22-11.06-.64h-19.78c-7.41-.91-13.75-2.85-19-6h19.78c-2.75-1.65-5.2-3.65-7.34-6h-19.78c-.83-.91-1.62-1.85-2.36-2.87-.71-1-1.37-2.05-2.01-3.13h19.78c-1.11-1.88-2.11-3.87-3.01-6h-19.78c-.8-1.9-1.52-3.9-2.15-6h19.78c-.57-1.92-1.08-3.91-1.51-6h-19.78c-.4-1.93-.74-3.93-1.01-6h19.78c-.26-1.94-.47-3.93-.62-6h-19.78c-.15-1.94-.25-3.94-.3-6h19.78c-.03-1.16-.05-2.34-.05-3.54,0-.83,.02-1.64,.03-2.46h-19.78c.04-2.06,.12-4.06,.25-6h19.78c.14-2.07,.33-4.07,.58-6h-19.78c.27-2.08,.6-4.08,.99-6h19.78c.43-2.09,.92-4.09,1.49-6h-19.78c.63-2.11,1.36-4.1,2.17-6h19.78c.91-2.12,1.93-4.12,3.06-6h-19.78c.66-1.1,1.36-2.17,2.1-3.19,.73-.99,1.51-1.91,2.33-2.81h19.78c2.09-2.3,4.46-4.3,7.1-6h-19.78c4.38-2.82,9.49-4.81,15.19-6h19.78c4.19-.87,8.69-1.32,13.47-1.32,4.04,0,7.77,.47,11.22,1.32h-19.78c5.05,1.24,9.48,3.32,13.31,6h19.78c2.51,1.76,4.77,3.78,6.77,6h-19.78c1.69,1.87,3.19,3.89,4.53,6h19.78c1.21,1.93,2.28,3.93,3.21,6h-19.78c.88,1.96,1.63,3.97,2.26,6h6.38l14.47-2.74c-.3-1.11-.64-2.19-.99-3.26h19.78c-.68-2.08-1.44-4.08-2.29-6h-19.78c-.91-2.09-1.91-4.1-3.01-6h19.78c-1.22-2.12-2.55-4.11-3.98-6h-19.78c-1.62-2.15-3.37-4.15-5.25-6h19.78c-2.24-2.21-4.66-4.21-7.24-6h-19.78c-3.4-2.37-7.06-4.37-10.96-6h19.78c-8.65-3.63-18.43-5.45-28.87-5.45-11.23,0-21.19,1.91-29.8,5.45h-19.78c-4.02,1.65-7.73,3.67-11.16,6h19.78c-2.66,1.81-5.14,3.81-7.43,6h-19.78c-1.97,1.87-3.81,3.87-5.51,6h19.78c-1.51,1.9-2.91,3.91-4.21,6h-19.78c-1.19,1.92-2.29,3.92-3.3,6h19.78c-.94,1.94-1.8,3.94-2.58,6h-19.78c-.73,1.95-1.41,3.94-1.99,6h19.78c-.56,1.95-1.04,3.96-1.46,6h-19.78c-.41,1.96-.76,3.96-1.04,6h19.78c-.27,1.97-.5,3.96-.66,6h-19.78c-.15,1.97-.24,3.97-.29,6h19.78c-.02,.82-.04,1.63-.04,2.46Zm96.58,51.86l.49,5.68h-5.1c1.65-1.76,3.2-3.65,4.62-5.68Z"/><polygon points="1861.03 15 1833.61 15 1832.46 18 1861.03 18 1861.03 15"/><path d="M268.14,96h-62.36v3.52h43.53c-.01,.84-.04,1.66-.07,2.48h18.91v-6Z"/><path d="M847.78,36h-25.67c-1.51,1.9-2.91,3.91-4.21,6h22.78c2.09-2.3,4.46-4.3,7.1-6Z"/><path d="M235.82,42h24.57c-1.22-2.12-2.55-4.11-3.98-6h-27.37c2.51,1.76,4.77,3.78,6.77,6Z"/><path d="M1302.27,102h18.71c-.74,1.99-1.48,4-2.21,6h-12.71l3.78,6h6.75c-.74,2.04-1.46,4.05-2.15,6h-.82l3.78,6h-5.08c-.75,2.13-1.44,4.14-2.08,6h10.94l3.78,6h-34.22l2.37,6h30.25l2.37-6h33.13v-6h-17.66c.03,.55,.05,1.09,.08,1.62h-.21c-.29-.54-.58-1.08-.88-1.62h-12.1l2.37-6h6.46c-1.1-2.01-2.21-4.02-3.31-6h-.78l2.37-6h-4.97c-1.18-2.05-2.34-4.06-3.5-6h10.84l2.37-6h-16.89c-.13-.21-.27-.43-.4-.64l-3.42-5.36h-20.73l3.78,6Z"/><path d="M963.09,96c.16,2.05,.37,4.04,.63,6h21.11c-.26-1.94-.47-3.93-.62-6h-21.11Z"/><rect x="1127.39" y="96" width="18.83" height="6"/><polygon points="1294.71 90 1315.4 90 1311.58 84 1290.93 84 1294.71 90"/><rect x="1393.77" y="96" width="19.04" height="6"/><path d="M1340.22,97.28c0,1.15,.02,2.77,.05,4.72h18.58v-6h-16.54l2.37-6h14.17v-6h-11.8l2.37-6h9.43v-6h-7.06l.18-.45c.65-1.65,1.35-3.5,2.12-5.55h4.76v-6h-2.54c.68-1.86,1.41-3.86,2.18-6h.36v-6h1.79c.68-1.91,1.39-3.9,2.14-6h-3.94v-6h22.83v-6h-22.83v-6h22.83v-6h-22.83v-3h-18.63v3h12.89l-2.3,6h-10.59v6h8.29l-2.3,6h-6v6h3.7l-2.3,6h-1.4v6h-.9l-2.3,6h3.2v6h-5.5l-2.3,6h7.79v6h-10.09l-2.3,6h12.39v6h-14.69l-2.24,5.85s-.04,.1-.06,.15h16.99v1.28Z"/><polygon points="374.67 114 380.82 108 360.94 108 354.79 114 374.67 114"/><rect x="1714.12" y="72" width="18.62" height="6"/><rect x="1714.12" y="84" width="18.62" height="6"/><rect x="1714.12" y="96" width="18.62" height="6"/><rect x="1660.57" y="120" width="19.04" height="6"/><rect x="1660.57" y="108" width="19.04" height="6"/><rect x="1714.12" y="108" width="18.62" height="6"/><rect x="1660.57" y="72" width="19.04" height="6"/><rect x="1540.24" y="48" width="18.83" height="6"/><rect x="1660.57" y="60" width="19.04" height="6"/><rect x="1660.57" y="132" width="19.04" height="6"/><rect x="1540.24" y="36" width="18.83" height="6"/><path d="M669.5,132c.84,2.12,1.83,4.11,2.95,6h26.89c-2.68-1.65-5.08-3.65-7.12-6h-22.72Z"/><rect x="1486.48" y="132" width="18.83" height="6"/><rect x="1393.77" y="132" width="19.04" height="6"/><path d="M1003.96,36h-25.67c-1.51,1.9-2.91,3.91-4.21,6h22.78c2.09-2.3,4.46-4.3,7.1-6Z"/><rect x="205.77" y="84" width="62.36" height="6"/><polygon points="381.89 78 375.74 72 355.91 72 362.1 78 381.89 78"/><path d="M245.82,60c.12,.38,.23,.76,.34,1.14l6.04-1.14h-6.38Z"/><path d="M243.56,54h22.13c-.68-2.08-1.44-4.08-2.29-6h-23.05c1.21,1.93,2.28,3.93,3.21,6Z"/><path d="M243.36,126h24.78v-6h-22.11c-.76,2.14-1.65,4.14-2.67,6Z"/><path d="M268.14,108h-19.39c-.25,2.09-.59,4.09-1.02,6h20.4v-6Z"/><rect x="1127.39" y="36" width="18.83" height="6"/><rect x="1393.77" y="36" width="19.04" height="6"/><rect x="1486.48" y="36" width="18.83" height="6"/><rect x="1540.24" y="108" width="18.83" height="6"/><polygon points="1540.24 126 1559.07 126 1559.07 120 1544.63 120 1544.7 119.94 1538.65 114 1518.73 114 1524.88 120 1540.24 120 1540.24 126"/><rect x="1393.77" y="120" width="19.04" height="6"/><rect x="1540.24" y="96" width="18.83" height="6"/><path d="M1358.84,126v-6h-18.14c.07,2.02,.14,4.04,.21,6h17.92Z"/><rect x="1660.57" y="96" width="19.04" height="6"/><rect x="1540.24" y="84" width="86.85" height="6"/><rect x="1660.57" y="84" width="19.04" height="6"/><path d="M833.33,120h-21.48c.76,2.08,1.59,4.08,2.5,6h21.98c-1.11-1.88-2.11-3.87-3.01-6Z"/><path d="M667.6,126h20.62c-.92-1.85-1.67-3.85-2.22-6h-19.12v-6h18.14c-.08-1.06-.14-2.13-.14-3.25v-2.75h-18v-6h18v-6h-18v-1.99h68.01v-4.01h-50.02v-6h50.02v-6h-50.02v-6h-18v-6h18v-6h-18v-6h18v-6h-18v-6h18v-6h-18v-4.46h75.76v-1.54h-57.76v-6h57.76v-6h-57.76v-3h-19.04v3h-17.79v6h17.79v6h-17.79v6h17.79v6h-17.79v6h17.79v6h-17.79v6h17.79v6h-17.79v6h17.79v6h-17.79v6h17.79v6h-17.79v6h17.79v6h-17.79v6h17.79v2.75c0,1.1,.03,2.18,.08,3.25h-17.86v6h18.4c.28,2.08,.67,4.08,1.16,6Z"/><rect x="1127.39" y="120" width="18.83" height="6"/><path d="M992.51,126c-1.11-1.88-2.11-3.87-3.01-6h-21.48c.76,2.08,1.59,4.08,2.5,6h21.98Z"/><polygon points="636.66 144 619.98 144 620.5 150 636.66 150 636.66 144"/><rect x="1486.48" y="48" width="18.83" height="6"/><polygon points="424.88 65.02 419.84 60 410.14 60 403.99 66 423.87 66 424.88 65.02"/><polygon points="391.69 78 411.57 78 417.72 72 397.84 72 391.69 78"/><rect x="1393.77" y="48" width="19.04" height="6"/><path d="M992.43,48h-21.65c-.94,1.94-1.8,3.94-2.58,6h21.17c.91-2.12,1.93-4.12,3.06-6Z"/><rect x="1127.39" y="48" width="18.83" height="6"/><path d="M130.84,480h-26.29v-6h23.9l-2.4-6h-18.89l.14,.36H57.69l.14-.36h-6.41v-6h8.69l2.27-6h-10.96v-6h13.23l2.27-6h-15.51v-6h17.78l2.27-6h-18l-2.41,6h-18.69v6h16.29l-2.41,6h-13.88v6h11.47l-2.41,6h-9.06v6h6.66l-2.41,6h-4.25v6h1.84l-2.41,6h.57v6h-2.97l-2.41,6h5.38v6h-7.79l-2.41,6h10.2v6h-12.6l-2.41,6h15.01v5.36h19.04v-5.36h-14.06l2.3-6h11.77v-6h-9.47l2.3-6h7.18v-6h-4.88l2.3-6h2.59v-6h-.29l.5-1.31h61.74l.51,1.31h19.37l-2.4-6Zm-79.43,0v-6h34.51v6H51.41Z"/><path d="M202.99,470.4c-.32,1.17-.65,2.37-.99,3.6h16.63l1.74-6h-16.71l-.67,2.4Z"/><path d="M288.16,470.4c-.27,1.21-.54,2.41-.81,3.6h16.92l1.6-6h-17.15l-.55,2.4Z"/><polygon points="292.88 450 310.66 450 312.26 444 294.27 444 292.88 450"/><polygon points="290.11 462 307.47 462 309.06 456 291.49 456 290.11 462"/><path d="M284.67,486h16.39l1.6-6h-16.66c-.46,2.05-.9,4.05-1.33,6Z"/><polygon points="125.49 516 127.81 522 147.63 522 145.23 516 125.49 516"/><polygon points="349.75 462 368.42 462 370.69 456 352.16 456 349.75 462"/><polygon points="145.02 384.45 146.5 390 166.42 390 165.11 384.45 145.02 384.45"/><path d="M584.53,516h-6.95l-2.4-6h7.91c-.32-1.88-.55-3.88-.72-6h-9.6l-2.4-6h11.68c-.05-1.9-.08-3.89-.08-6h-14l-2.4-6h16.1c-.23-2.11-.6-4.11-1.11-6h-17.38l-2.4-6h17.43c-1.18-2.21-2.66-4.22-4.48-6h-15.35l-2.4-6h8.37c-.47-.2-.93-.4-1.43-.58,3.51-1.18,6.8-3.01,9.73-5.42h-19.07l-2.4-6h27.13c1.34-1.83,2.53-3.84,3.53-6h-20.8c-2.79,2.85-6.39,4.75-10.45,6h-18.01l2.3,6h-40.17l2.27-6h.02v-6h2.26l2.27-6h-4.53v-6h6.8l2.27-6h-9.08v-6h11.3c.77-2.09,1.48-4.08,2.16-6h-13.46v-6h15.56c.65-1.9,1.3-3.81,1.95-5.79h.21c.58,1.71,1.27,3.68,2.01,5.79h17.66l-2.4-6h-34.15l-2.41,6h-17.27v6h14.86l-2.41,6h-12.45v6h10.05l-2.41,6h-7.64v6h5.23l-2.41,6h-2.83v6h.42l-2.41,6h1.99v6h-4.4l-2.41,6h6.8v6h-9.21l-2.41,6h11.62v6h-14.03l-2.41,6h16.43v6h-18.84l-2.41,6h19.65l2.3-6h18.13v-6h-15.84l2.3-6h13.54v-6h63.85c.79,1.77,1.36,3.76,1.73,6h-16.37l2.32,6h14.58c.01,.55,.02,1.1,.02,1.67,0,1.52,0,2.96,.03,4.33h-12.31l2.32,6h10.14c.1,2.2,.23,4.19,.41,6h-8.22l2.32,6h6.79c.48,2.26,1.08,4.21,1.84,6h-6.31l2.08,5.36h19.88l-2.14-5.36h7.15c-1.06-1.9-1.92-3.88-2.6-6Zm-92.08-54h44.75l2.3,6h-49.33l2.27-6Zm4.56,12v-5.85h32.65c13.08,0,21.51,1.69,26.64,5.85h-59.29Z"/><polygon points="268.59 522 291.48 522 293.07 516 266.83 516 268.59 522"/><path d="M270.79,470.4l-.68-2.4h-17.37l1.76,6h17.31c-.33-1.17-.66-2.37-1.01-3.6Z"/><path d="M443.95,492h-16.05v-6h13.65l-2.4-6h-11.25v-6h8.85l-2.4-6h-6.45v-6h4.05l-2.4-6h-1.65v-6h-.74l-2.4-6h3.14v-6h-5.54l-2.4-6h7.94v-6h-10.34l-2.4-6h12.74v-6h-15.14l-2.4-6h17.53v-6h-19.04v6h-16.15c.67,1.91,1.4,3.94,2.15,6h14v6h-11.8c.68,1.81,1.35,3.59,2.01,5.28l.28,.72h9.51v6h-7.21l2.3,6h4.91v6h-2.61l2.3,6h.3v6h2l2.3,6h-4.3v6h6.61l.14,.36h-49.6l.14-.36h-18.8l-2.41,6h63.93v6h-66.34l-2.41,6h19.32l.5-1.31h61.74l.51,1.31h-13.32v6h15.64l2.32,6h-17.97v6h19.04v-6h18.44l-2.4-6Z"/><path d="M282.04,498h15.83l1.6-6h-16.12c-.46,2.09-.9,4.1-1.31,6Z"/><path d="M276.71,492h-16.92l1.76,6h16.73c-.49-1.9-1.01-3.9-1.57-6Z"/><polygon points="375.24 444 356.97 444 354.57 450 372.96 450 375.24 444"/><path d="M273.47,480h-17.21l1.76,6h17.08c-.51-1.9-1.06-3.91-1.63-6Z"/><polygon points="295.66 438 313.86 438 315.46 432 297.05 432 295.66 438"/><polygon points="298.43 426 317.06 426 318.66 420 299.82 420 298.43 426"/><path d="M1678.47,198c-3.61-.48-7.33-.73-11.13-.73-4.01,0-7.84,.25-11.52,.73h22.65Z"/><polygon points="379.79 432 361.79 432 359.38 438 377.51 438 379.79 432"/><path d="M266.69,456h-15.34v-6h13.64l-1.71-6h-11.93v-6h10.22l-1.71-6h-8.51v-6h6.8l-1.71-6h-5.09v-6h3.38l-1.71-6h-1.67v-6h-.04l-1.71-6h1.75v-6h-3.46l-1.58-5.55h-19.25l-1.56,5.55h6.8v6h-8.48l-1.68,6h10.16v6h-11.84l-1.68,6h13.52v6h-15.2l-1.68,6h16.85c.54-2.07,1.05-4.06,1.55-6h5.21c.51,1.94,1.04,3.94,1.6,6h-8.32v6h9.96c.55,1.98,1.11,3.98,1.69,6h-11.64v6h13.39l1.76,6h-15.15v6h16.91l1.76,6h-18.67v6h19.04v-6h17.05l-1.71-6Zm-31.37-42c.32-1.3,.64-2.58,.94-3.83h.21c.31,1.22,.64,2.5,.99,3.83h-2.14Z"/><path d="M212.06,438h16.96c.58-2.06,1.12-4.05,1.65-6h-16.93l-1.68,6Z"/><rect x="978.34" y="336" width="18.83" height="6"/><path d="M1508.69,197.27c-4.01,0-7.84,.25-11.52,.73h22.86c-3.63-.47-7.4-.73-11.34-.73Z"/><polygon points="1775.78 228 1754.85 228 1758.7 234 1779.41 234 1775.78 228"/><polygon points="1772.15 222 1768.53 216 1747.15 216 1751 222 1772.15 222"/><path d="M1240.45,197.27c-4.01,0-7.84,.25-11.52,.73h22.86c-3.63-.47-7.4-.73-11.34-.73Z"/><path d="M1790.08,252h-19.83l3.85,6h19.46c-1.18-2.03-2.36-4.07-3.48-6Z"/><path d="M1620.6,252h-20.98c-.38,1.96-.68,3.97-.94,6h21.02c.24-2.08,.54-4.08,.9-6Z"/><path d="M1619.2,264h-21.09c-.13,1.97-.2,3.97-.22,6h21.13c.02-2.06,.08-4.06,.19-6Z"/><rect x="1789.24" y="324" width="19.04" height="6"/><rect x="1789.24" y="300" width="19.04" height="6"/><rect x="1789.24" y="312" width="19.04" height="6"/><rect x="1789.24" y="288" width="19.04" height="6"/><polygon points="39.54 282 58.31 282 60.58 276 41.95 276 39.54 282"/><polygon points="65.13 264 46.76 264 44.35 270 62.86 270 65.13 264"/><polygon points="47.02 312 27.5 312 25.09 318 44.72 318 47.02 312"/><polygon points="32.32 300 29.91 306 49.31 306 51.61 300 32.32 300"/><polygon points="37.84 336 17.87 336 15.46 342 35.54 342 37.84 336"/><polygon points="20.28 330 40.13 330 42.43 324 22.69 324 20.28 330"/><rect x="1789.24" y="336" width="19.04" height="6"/><path d="M560.37,408c1.64,1.62,3.02,3.61,4.09,6h19.76c-.5-2.15-1.12-4.15-1.88-6h-21.97Z"/><path d="M80.22,408h-17.12l-2.41,6h17.44c.72-2.04,1.41-4.02,2.09-6Z"/><rect x="478.18" y="516" width="18.83" height="6"/><polygon points="140.43 504 120.84 504 123.17 510 142.83 510 140.43 504"/><path d="M74.01,425.28c.69-1.86,1.34-3.6,1.95-5.28h-17.68l-2.41,6h17.86l.27-.72Z"/><polygon points="135.64 492 116.19 492 118.52 498 138.04 498 135.64 492"/><path d="M280.42,505.51h-.21c-.13-.5-.26-1-.39-1.51h-16.51l1.76,6h29.6l1.6-6h-15.53c-.11,.51-.22,1.02-.33,1.51Z"/><path d="M198.76,486h16.41l1.74-6h-16.53c-.54,1.99-1.08,4-1.62,6Z"/><rect x="478.18" y="504" width="18.83" height="6"/><polygon points="205.34 462 222.11 462 223.84 456 207.02 456 205.34 462"/><path d="M388.54,408h-17.12l-2.41,6h17.44c.72-2.04,1.41-4.02,2.09-6Z"/><polygon points="208.7 450 225.58 450 227.31 444 210.38 444 208.7 450"/><path d="M382.33,425.28c.69-1.86,1.34-3.6,1.95-5.28h-17.68l-2.41,6h17.86l.27-.72Z"/><polygon points="176.34 432 157.69 432 159.29 438 177.76 438 176.34 432"/><polygon points="174.92 426 173.51 420 154.5 420 156.09 426 174.92 426"/><polygon points="448.75 504 429.16 504 431.48 510 451.15 510 448.75 504"/><path d="M1192.53,264h-21.32c-.13,1.97-.2,3.97-.22,6h21.34c.02-2.04,.08-4.05,.2-6Z"/><polygon points="151.3 408 152.9 414 172.09 414 170.67 408 151.3 408"/><polygon points="148.1 396 149.7 402 169.26 402 167.84 396 148.1 396"/><path d="M123.64,462l-2.4-6h-16.7v-6h14.3l-2.4-6h-11.91c-.01-1.37-.05-3.45-.1-6h9.61l-2.4-6h-7.36c-.05-1.91-.1-3.93-.17-6h5.12l-2.4-6h-2.91c-.07-2.02-.14-4.03-.22-6h.73l-2.4-6h19.18l-3.82-6h-17.75l-2.4-6h16.32l-3.82-6h-14.9l-2.22-5.55h-20.09l-2.23,5.55h15.6v6h-18.01l-2.41,6h20.41v6h-1.52c.67,1.91,1.4,3.94,2.15,6h-.62v6h2.83c.68,1.81,1.35,3.59,2.01,5.28l.28,.72h-5.11v6h7.42l2.3,6h-9.72v6h12.02l2.3,6h-14.32v6h16.63l2.3,6h18.79Z"/><path d="M585.2,420h-18.92c.34,1.82,.54,3.82,.6,6h18.65c-.02-2.1-.12-4.1-.32-6Z"/><path d="M564.99,438h19.04c.52-1.91,.92-3.91,1.17-6h-18.61c-.31,2.23-.85,4.23-1.6,6Z"/><path d="M1032.1,228v6h17.98c-.07-2.03-.15-4.04-.22-6h-17.75Z"/><path d="M1074.24,234l-3.82-6h-18.43c1.03,1.93,2.12,3.95,3.23,6h19.02Z"/><path d="M1198.5,306c-.8-1.82-1.54-3.82-2.22-6h-21.55c.6,2.06,1.27,4.07,2.01,6h21.76Z"/><rect x="1032.1" y="300" width="18.62" height="6"/><path d="M1281.49,306h21.8c.81-1.94,1.55-3.94,2.2-6h-21.48c-.75,2.1-1.59,4.1-2.52,6Z"/><path d="M1464.52,300h-21.55c.6,2.06,1.27,4.07,2.01,6h21.76c-.8-1.82-1.54-3.82-2.22-6Z"/><path d="M1461.8,288h-19.79v-3.96h39.76v-2.04h-20.72c-.18-1.94-.31-3.95-.39-6h21.11v-5.64h-39.76v-.36h18.56c.02-2.04,.08-4.05,.2-6h-18.76v-6h19.29c.24-2.06,.55-4.07,.91-6h-20.19v-6h-14.02v6h12.98c-.38,1.96-.68,3.97-.94,6h-12.04v6h11.46c-.13,1.97-.2,3.97-.22,6h-11.24v.36h-39.97v5.64h51.28c.08,2.05,.21,4.04,.39,6h-51.67v2.04h39.97v3.96h12.38c.3,2.06,.68,4.05,1.09,6h-13.48v6h14.02v-6h20.91c-.43-1.91-.8-3.91-1.13-6Z"/><rect x="342.05" y="312" width="19.04" height="6"/><rect x="342.05" y="300" width="19.04" height="6"/><rect x="342.05" y="288" width="19.04" height="6"/><rect x="617.89" y="312" width="18.83" height="6"/><rect x="617.89" y="228" width="18.83" height="6"/><rect x="342.05" y="240" width="19.04" height="6"/><rect x="342.05" y="228" width="19.04" height="6"/><path d="M751.05,288h-21.3c.3,2.06,.68,4.05,1.09,6h21.3c-.43-1.92-.8-3.92-1.1-6Z"/><rect x="1032.1" y="288" width="18.62" height="6"/><path d="M1194.68,294c-.43-1.91-.8-3.91-1.13-6h-21.43c.3,2.06,.68,4.05,1.09,6h21.46Z"/><path d="M1285.81,294h21.36c.46-1.95,.86-3.96,1.19-6h-21.31c-.35,2.08-.77,4.08-1.25,6Z"/><path d="M1068.97,258h20.57l-3.82-6h-20.4c1.03,1.76,1.91,3.23,2.57,4.28l1.09,1.72Z"/><path d="M1032.1,258h18.6c-.02-1.55-.06-3.6-.11-6h-18.49v6Z"/><path d="M1287.85,282h21.31c.2-1.97,.35-3.97,.44-6h-21.34c-.08,2.06-.22,4.06-.41,6Z"/><path d="M751.47,252h-21.12c-.38,1.96-.68,3.97-.94,6h21.2c.23-2.08,.52-4.08,.86-6Z"/><path d="M754.76,240h-21.14c-.69,1.95-1.32,3.95-1.87,6h21.07c.57-2.1,1.21-4.1,1.95-6Z"/><path d="M1288.15,264c.12,1.93,.18,3.93,.2,6h21.34c-.02-2.03-.1-4.03-.23-6h-21.32Z"/><path d="M1174.12,246h21.21c.57-2.11,1.22-4.1,1.94-6h-21.29c-.69,1.95-1.32,3.95-1.87,6Z"/><path d="M1171.79,258h21.27c.24-2.06,.55-4.07,.91-6h-21.24c-.38,1.96-.68,3.97-.94,6Z"/><path d="M860.89,240h-20.29c-.74-2.06-1.56-4.06-2.47-6h20.61c-.87-2.09-1.85-4.09-2.91-6h-20.86c-1.24-2.09-2.59-4.09-4.04-6h21.08c-1.56-2.14-3.25-4.14-5.05-6h-21.21c-2.15-2.17-4.47-4.17-6.95-6h21.33c-3.13-2.32-6.5-4.31-10.07-6h-21.3c-6.25-2.96-13.25-5-20.96-6h21.45c-3.63-.48-7.36-.73-11.17-.73-4.01,0-7.84,.25-11.52,.73h-21.62c-7.81,1-14.88,3.04-21.17,6h21.62c-3.62,1.7-6.97,3.72-10.08,6h-21.62c-2.48,1.83-4.8,3.83-6.95,6h21.62c-1.85,1.88-3.57,3.88-5.17,6h-21.62c-1.44,1.91-2.78,3.91-4.01,6h21.62c-1.13,1.93-2.18,3.93-3.13,6h21.52c.87-1.56,1.8-3.06,2.83-4.47,.39-.53,.8-1.03,1.21-1.53h-21.6c1.77-2.1,3.97-4.14,6.62-6h21.34c3.53-2.59,7.59-4.59,12.11-6h-20.99c5.22-1.62,11.27-2.6,18.19-2.6s12.36,.88,17.45,2.6h19.33c4.12,1.48,7.8,3.52,11.03,6h-19.15c2.2,1.74,4.2,3.74,5.97,6h19.5c1.61,1.89,3.05,3.9,4.31,6h-19.77c1.1,1.9,2.11,3.9,3,6h19.8c.8,1.92,1.48,3.88,2.02,5.86l20.72-3.88c-.18-.67-.39-1.33-.59-1.98Z"/><path d="M1032.1,246h18.34c-.05-1.92-.11-3.94-.17-6h-18.17v6Z"/><path d="M1081.89,246l-3.82-6h-19.55c1.15,2.08,2.28,4.1,3.36,6h20.02Z"/><path d="M1203.4,228.71c.19-.24,.4-.48,.6-.71h-22.45c-1.13,1.93-2.18,3.93-3.13,6h21.58c1.04-1.92,2.17-3.69,3.4-5.29Z"/><path d="M1623.98,240h-21.1c-.69,1.95-1.32,3.95-1.87,6h20.97c.58-2.1,1.24-4.1,1.99-6Z"/><rect x="1125.01" y="204" width="18.63" height="6"/><path d="M1491.33,216h-32.36c-1.85,1.88-3.57,3.88-5.17,6h25.07c3.41-2.39,7.56-4.48,12.46-6Z"/><path d="M1508.69,329.37c-9.44,0-17.71-1.87-24.59-5.37h-28.54c1.85,2.16,3.86,4.16,6.01,6h28l-2.41,6h-17.08c4.4,2.52,9.26,4.52,14.54,6h.13l-.26,.64h20.09l.24-.64h26.76c5.1-1.49,9.8-3.52,14.11-6h-38.57l2.3-6h44.84c2.19-1.85,4.25-3.85,6.15-6h-26.92c-6.56,3.57-14.72,5.37-24.79,5.37Z"/><path d="M1050.72,324h-18.62v6h-34.53c2.62,2.24,5.46,4.25,8.51,6h26.01v6h-11.48c7.24,2.03,15.27,3.09,24.07,3.09,8.33,0,15.98-1.07,22.9-3.09h-16.87v-6h30.98c3.06-1.77,5.92-3.77,8.56-6h-39.54v-6Z"/><polygon points="1114.33 330 1143.64 330 1143.64 324 1110.55 324 1114.33 330"/><path d="M1621.26,294c-.43-1.92-.81-3.92-1.12-6h-21.13c.3,2.06,.68,4.05,1.09,6h21.15Z"/><path d="M1355.79,324h-11.51v-6h11.51v-6h-11.51v-6h11.51v-6h-11.51v-6h11.51v-6h-11.51v-6h11.51v-6h-7.92l3.85-6h4.07v-6h-.22l3.85-6h-3.63v-6h7.48l3.85-6h-11.33v-6h15.18l3.85-6h-19.03v-6h-18.83v6h16.94l-3.63,6h-13.31v6h9.76c-1.14,1.94-2.3,3.93-3.5,6h-6.26v6h2.8c-1.1,1.91-2.24,3.9-3.44,6h.65v6h-19.16l3.85,6h15.31v6h-11.72v6h11.72v6h-11.72v6h11.72v6h-11.72v6h11.72v6h-11.72v6h11.72v6h-11.72v6h11.72v6h-11.72v.64h19.04v-.64h87.27v-6h-87.27v-6h87.27v-3.49h-75.76v-2.51Z"/><rect x="978.34" y="204" width="18.83" height="6"/><polygon points="113.37 300 115.7 306 135.13 306 132.73 300 113.37 300"/><polygon points="118.02 312 120.35 318 139.92 318 137.52 312 118.02 312"/><polygon points="124.99 330 144.72 330 142.32 324 122.67 324 124.99 330"/><path d="M293.29,210h-1.98c-2.48,1.83-4.8,3.83-6.95,6h31.73c5.51-1.73,11.68-2.6,18.4-2.6,5.75,0,10.94,.94,15.58,2.6h-8.02v6h19.04v-6h21.88c-2.12-2.19-4.41-4.19-6.84-6h33.72v-6h-43.79c-6.37-3.01-13.38-5.01-20.81-6h-22.69c-7.81,1-14.88,3.04-21.17,6h-8.1v6Z"/><polygon points="95.15 252 97.45 258 115.94 258 113.54 252 95.15 252"/><polygon points="99.75 264 102.06 270 120.73 270 118.34 264 99.75 264"/><path d="M86.08,228c.71,1.98,1.45,4,2.19,6h18.07l-2.4-6h-17.86Z"/><polygon points="617.89 216 617.89 222 636.72 222 636.72 216.26 712.48 216.26 712.48 216 679.64 216 679.64 210 712.48 210 712.48 204 679.64 204 679.64 199.72 661.02 199.72 661.02 204 617.89 204 617.89 210 661.02 210 661.02 216 617.89 216"/><path d="M1442.36,246h21.21c.57-2.11,1.22-4.1,1.94-6h-21.29c-.69,1.95-1.32,3.95-1.87,6Z"/><polygon points="1062.77 216 1032.1 216 1032.1 222 1066.59 222 1062.77 216"/><rect x="1125.01" y="216" width="18.63" height="6"/><rect x="1336.96" y="216" width="18.83" height="6"/><path d="M1207.1,318c-1.56-1.4-3.01-2.92-4.32-4.56-.35-.45-.71-.93-1.05-1.44h-22.33c1.05,2.09,2.19,4.1,3.43,6h24.28Z"/><path d="M1549.73,306h21.8c.81-1.94,1.55-3.94,2.2-6h-21.48c-.75,2.1-1.59,4.1-2.52,6Z"/><path d="M1122.41,312h-17.71c1.03-1.93,1.98-3.93,2.84-6h11.57c-1.12-2.03-2.25-4.03-3.37-6h-6c.63-1.95,1.19-3.95,1.68-6h.85c-1.23-2.08-2.44-4.09-3.63-6h3.97c.33-1.96,.59-3.96,.8-6h-8.58l-3.82-6h12.84c.07-1.59,.11-3.19,.11-4.82,0-.4-.02-.79-.02-1.18h-16.76l-3.82-6h20.35c-.14-2.03-.34-4.03-.59-6h-21.28c.24,1.92,.43,3.92,.55,6h-19.65l3.78,6h16.07c0,.4,.02,.78,.02,1.18,0,1.65-.04,3.25-.11,4.82h-12.2l3.78,6h8.01c-.2,2.07-.47,4.07-.79,6h-3.44l3.78,6h-1.59c-.52,2.09-1.12,4.09-1.8,6h7.17l3.78,6h-13.48c-1.04,2.12-2.18,4.12-3.43,6h20.69l3.78,6h18.9c-1.07-1.99-2.16-3.99-3.26-6Z"/><path d="M1471.02,313.44c-.35-.45-.71-.93-1.05-1.44h-22.33c1.05,2.09,2.19,4.1,3.43,6h24.28c-1.56-1.4-3.01-2.92-4.32-4.56Z"/><path d="M1545.31,313.44c-1.17,1.65-2.46,3.16-3.84,4.56h23.59c1.31-1.91,2.52-3.92,3.63-6h-22.4c-.32,.49-.65,.97-.98,1.44Z"/><path d="M1277.07,313.44c-1.17,1.65-2.46,3.16-3.84,4.56h23.59c1.31-1.91,2.52-3.92,3.63-6h-22.4c-.32,.49-.65,.97-.98,1.44Z"/><rect x="1032.1" y="312" width="18.62" height="6"/><path d="M254.96,318h19c-.13-1.89-.2-3.89-.25-6h21.72c-1.22-1.87-2.32-3.87-3.31-6h-18.49c-.03-2.09-.18-4.09-.44-6h16.59c-.62-1.91-1.16-3.91-1.63-6h-16.28c-.68-2.15-1.57-4.16-2.7-6h17.87c-.28-1.93-.51-3.93-.68-6h-21.3c.18,2.04,.4,4.05,.68,6h-19.59c2.51,1.55,4.39,3.53,5.74,6h14.94c.44,2.06,.94,4.06,1.5,6h-14.32c.38,1.82,.61,3.82,.72,6h15.61c.8,2.08,1.69,4.08,2.65,6h-18.18c.02,2.16,.06,4.16,.12,6Z"/><path d="M275.84,330c-.53-1.88-.94-3.87-1.25-6h-19.28c.19,2.24,.44,4.22,.76,6h19.78Z"/><polygon points="712.48 330 712.48 326.1 636.72 326.1 636.72 324 617.89 324 617.89 330 650.34 330 654.12 336 617.89 336 617.89 342 657.9 342 658.3 342.64 679.64 342.64 679.64 342 712.48 342 712.48 336 679.64 336 679.64 330 712.48 330"/><rect x="342.05" y="276" width="19.04" height="6"/><rect x="342.05" y="264" width="19.04" height="6"/></svg>