<?xml version="1.0" encoding="utf-8"?>
<!-- Generator: Adobe Illustrator 26.2.1, SVG Export Plug-In . SVG Version: 6.00 Build 0)  -->
<svg version="1.1" id="Layer_1" xmlns="http://www.w3.org/2000/svg" xmlns:xlink="http://www.w3.org/1999/xlink" x="0px" y="0px"
	 viewBox="0 0 1872 1152" style="enable-background:new 0 0 1872 1152;" xml:space="preserve">
<style type="text/css">
	.st0{fill:#FFFFFF;}
</style>
<circle class="st0" cx="306" cy="126" r="81"/>
<circle class="st0" cx="306" cy="486" r="81"/>
<circle class="st0" cx="126" cy="486" r="81"/>
<circle class="st0" cx="306" cy="666" r="81"/>
<circle class="st0" cx="306" cy="846" r="81"/>
<circle class="st0" cx="306" cy="1026" r="81"/>
<circle class="st0" cx="126" cy="1026" r="81"/>
<circle class="st0" cx="486" cy="1026" r="81"/>
<circle class="st0" cx="846" cy="306" r="81"/>
<circle class="st0" cx="1386" cy="306" r="81"/>
<circle class="st0" cx="846" cy="486" r="81"/>
<circle class="st0" cx="1026" cy="306" r="81"/>
<circle class="st0" cx="1206" cy="486" r="81"/>
<circle class="st0" cx="846" cy="666" r="81"/>
<circle class="st0" cx="1206" cy="666" r="81"/>
<circle class="st0" cx="846" cy="846" r="81"/>
<circle class="st0" cx="1206" cy="846" r="81"/>
<circle class="st0" cx="846" cy="1026" r="81"/>
<circle class="st0" cx="1206" cy="1026" r="81"/>
<circle class="st0" cx="1566" cy="486" r="81"/>
<circle class="st0" cx="1566" cy="666" r="81"/>
<circle class="st0" cx="1566" cy="846" r="81"/>
<circle class="st0" cx="1566" cy="1026" r="81"/>
</svg>
