<?xml version="1.0" encoding="utf-8"?>
<!-- Generator: Adobe Illustrator 26.2.1, SVG Export Plug-In . SVG Version: 6.00 Build 0)  -->
<svg version="1.1" id="Layer_1" xmlns="http://www.w3.org/2000/svg" xmlns:xlink="http://www.w3.org/1999/xlink" x="0px" y="0px"
	 viewBox="0 0 1872 1152" style="enable-background:new 0 0 1872 1152;" xml:space="preserve">
<style type="text/css">
	.st0{fill:#FFFFFF;}
</style>
<path class="st0" d="M101.6,77h12.6v86.9h50.7V175h-63.3V77z M260.6,126c0-29.7,16.4-50.7,46.5-50.7c20,0,36.4,10.2,41.9,30.7
	l-13.7,2.7C332,97,323,86.4,307.3,86.4c-11.2,0-20.2,3.6-25.5,11.1c-4.8,6.7-7.1,16-7.1,28.6c0,12.7,2.4,22.4,7.1,29.3
	c5.3,7.6,14.3,10.6,26.6,10.6c18.6,0,28.6-10.4,28.8-30.9h-29.1v-11.9h41.7V175h-10.4l-1.1-13.4c-6.7,9.9-17.6,15.1-31.4,15.1
	C277.4,176.7,260.6,158.6,260.6,126z M80.6,306c0-29.7,16.4-50.7,46.5-50.7c20,0,36.4,10.2,41.9,30.7l-13.7,2.7
	c-3.2-11.6-12.2-22.3-27.9-22.3c-11.2,0-20.2,3.6-25.5,11.1c-4.8,6.7-7.1,16-7.1,28.6c0,12.7,2.4,22.4,7.1,29.3
	c5.3,7.6,14.3,10.6,26.6,10.6c18.6,0,28.6-10.4,28.8-30.9h-29.1v-11.9h41.7V355h-10.4l-1.1-13.4c-6.7,9.9-17.6,15.1-31.4,15.1
	C97.4,356.7,80.6,338.6,80.6,306z M267.7,322.7V257h12.7v65.7c0,15.5,11.9,22.8,25.5,22.8s25.6-7.3,25.6-22.8V257h12.7v65.7
	c0,22-13.4,34-38.4,34S267.7,344.6,267.7,322.7z M440.6,306c0-29.7,16.4-50.7,46.5-50.7c20,0,36.4,10.2,41.9,30.7l-13.7,2.7
	c-3.2-11.6-12.2-22.3-27.9-22.3c-11.2,0-20.2,3.6-25.5,11.1c-4.8,6.7-7.1,16-7.1,28.6c0,12.7,2.4,22.4,7.1,29.3
	c5.3,7.6,14.3,10.6,26.6,10.6c18.6,0,28.6-10.4,28.8-30.9h-29.1v-11.9h41.7V355h-10.4l-1.1-13.4c-6.7,9.9-17.6,15.1-31.4,15.1
	C457.4,356.7,440.6,338.6,440.6,306z M620.6,306c0-29.7,16.4-50.7,46.5-50.7c20,0,36.4,10.2,41.9,30.7l-13.7,2.7
	c-3.2-11.6-12.2-22.3-27.9-22.3c-11.2,0-20.2,3.6-25.5,11.1c-4.8,6.7-7.1,16-7.1,28.6c0,12.7,2.4,22.4,7.1,29.3
	c5.3,7.6,14.3,10.6,26.6,10.6c18.6,0,28.6-10.4,28.8-30.9h-29.1v-11.9h41.7V355h-10.4l-1.1-13.4c-6.7,9.9-17.6,15.1-31.4,15.1
	C637.4,356.7,620.6,338.6,620.6,306z M816.9,257h63.3v11.3h-50.7v31.5H875v11.3h-45.5v32.5h50.7V355h-63.3V257z M121.2,437h13.4
	l38.2,98h-13.3l-11.1-29.3h-41.3L96.2,535H82.8L121.2,437z M144.4,494.5L133.3,465c-2-5.2-4.2-11.6-5.6-15.8h-0.1
	c-1.7,5.2-3.2,9.7-5.5,15.8l-10.9,29.5H144.4z M246.2,437h13.4l13.6,58.9c3.8,16.4,3.9,17.8,5.3,24.1h0.1c1.5-6,4.2-16.2,6.3-24.1
	l16.1-58.9H314l16.4,58.9c2.9,10.6,4.8,17.9,6.3,24.1h0.1c1.3-6,3.1-14.6,5.2-24.1l13.3-58.9h13.4l-25.5,98h-13.3l-16.5-57.7
	c-2.4-8.3-4.5-16.5-6-22.7h-0.1c-1.5,6.4-3.4,13.9-5.9,22.8L285.1,535h-13.4L246.2,437z M481.2,437h13.4l38.2,98h-13.3l-11.1-29.3
	h-41.3L456.2,535h-13.4L481.2,437z M504.4,494.5L493.3,465c-2-5.2-4.2-11.6-5.6-15.8h-0.1c-1.7,5.2-3.2,9.7-5.5,15.8l-10.9,29.5
	H504.4z M631.3,437h33.2c17.4,0,38.6,2.2,38.6,28.8c0,12.2-6.6,21-15.1,23.9c9.2,3.5,12.7,10.6,12.7,20.7c0,11.3,0.8,18.1,5.6,24.1
	l-0.1,0.4h-13.9c-3.2-4.9-4.2-9.5-4.2-23.1c0-13-5.2-17.5-22.4-17.5h-21.8V535h-12.6V437z M664.3,483.6c12,0,26.3-1,26.3-17.2
	c0-18.5-14.3-18.5-26.2-18.5h-20.6v35.7H664.3z M120.1,673c9.1-5.9,23.9-12.6,23.9-26.5c0-11.3-5.7-17.6-16.7-17.6
	c-16.7,0-18.5,13.4-18.5,20.7l-12.5-2c-0.1-11.8,6.6-29.3,31.5-29.3c17.4,0,28.6,11.1,28.6,28.3c0,16.4-12.7,24.9-23.9,31.9
	c-11.2,6.9-23.2,14.1-25.8,25.3h49.8V715h-64C94.4,691.8,107,681.3,120.1,673z M271.4,667.5c0-28.8,11.2-49.1,34.6-49.1
	s34.7,20.4,34.7,49.1c0,29-11.3,49.1-34.7,49.1C283.5,716.7,271.4,699.9,271.4,667.5z M327.3,667.5c0-24.6-4.1-38.4-21.3-38.4
	c-17.1,0-21.1,13.7-21.1,38.4c0,25.3,4.3,38.6,21.1,38.6C322.9,706.2,327.3,692.2,327.3,667.5z M480.1,673
	c9.1-5.9,23.9-12.6,23.9-26.5c0-11.3-5.7-17.6-16.7-17.6c-16.7,0-18.5,13.4-18.5,20.7l-12.5-2c-0.1-11.8,6.6-29.3,31.5-29.3
	c17.4,0,28.6,11.1,28.6,28.3c0,16.4-12.7,24.9-23.9,31.9c-11.2,6.9-23.2,14.1-25.8,25.3h49.8V715h-64
	C454.4,691.8,467,681.3,480.1,673z M631.4,667.5c0-28.8,11.2-49.1,34.6-49.1s34.7,20.4,34.7,49.1c0,29-11.3,49.1-34.7,49.1
	C643.5,716.7,631.4,699.9,631.4,667.5z M687.3,667.5c0-24.6-4.1-38.4-21.3-38.4c-17.1,0-21.1,13.7-21.1,38.4
	c0,25.3,4.3,38.6,21.1,38.6C682.9,706.2,687.3,692.2,687.3,667.5z M809,437h33.3c29.7,0,46.5,19.5,46.5,49c0,30.7-17.4,49-46.5,49
	H809V437z M840.9,524.1c12.7,0,22.1-3.8,26.6-10.4c4.9-7,7-15,7-27.7c0-12.9-2.1-20.6-7-27.6c-4.8-6.9-14.4-10.5-26.6-10.5h-19.3
	v76.2H840.9z M988.7,257h13.6l36.8,59.2c3.9,6.3,8.3,14.4,12.3,22.1h0.1c-0.4-8.1-0.7-20.9-0.7-24.9V257h12.5v98H1049l-36.4-59.2
	c-2.2-3.6-8.3-14.7-12-22.1h-0.1c0.4,9.4,0.7,22.3,0.7,24.9V355h-12.5V257z M1168.7,257h12.7v42.8h49.3V257h12.6v98h-12.6v-43.8
	h-49.3V355h-12.7V257z M1356.9,257h63.3v11.3h-50.7v31.5h45.5v11.3h-45.5v32.5h50.7V355h-63.3V257z M1559.6,257h12.7v98h-12.7V257z
	 M1696.9,257h18.3l20.7,55.4c4.6,12.3,8,22,10.1,28.4h0.1c2.1-6.4,6.2-18.2,9.9-28.4l20.7-55.4h18.3v98h-12.5v-59.2
	c0-2.9,0.3-14.4,0.7-22.4h-0.1c-3.6,10.5-6.2,17.6-8,22.4l-22.8,59.2h-12.9l-22.8-59.2c-1.8-4.8-4.9-13.6-8-22.4h-0.1
	c0.4,8,0.7,19.5,0.7,22.4V355h-12.5V257z"/>
</svg>
