<?xml version="1.0" encoding="utf-8"?>
<!-- Generator: Adobe Illustrator 26.2.1, SVG Export Plug-In . SVG Version: 6.00 Build 0)  -->
<svg version="1.1" id="Layer_1" xmlns="http://www.w3.org/2000/svg" xmlns:xlink="http://www.w3.org/1999/xlink" x="0px" y="0px"
	 viewBox="0 0 1920 1080" style="enable-background:new 0 0 1920 1080;" xml:space="preserve">
<g>
	<path d="M1452,429.8c1-0.1,2-0.1,3-0.1v-30.8c-1,0-2,0.1-3,0.1v4c-1-0.2-2-0.5-3-0.7v33.3c1,0.4,2,0.9,3,1.3V429.8z"/>
	<path d="M1443,430.7c1-0.1,2-0.2,3-0.3v-31c-1,0.1-2,0.2-3,0.2v1.5c-1-0.2-2-0.3-3-0.5v31.9c1,0.3,2,0.6,3,0.9V430.7z"/>
	<path d="M1479,431.8c1,0.2,2,0.5,3,0.7v-31.9c-1-0.2-2-0.3-3-0.4v13.1c-1-0.5-2-1-3-1.5v43.4c1,1.2,2,2.4,3,3.6V431.8z"/>
	<path d="M1470,430.2c1,0.1,2,0.3,3,0.4v-31.2c-1-0.1-2-0.2-3-0.2v9.7c-1-0.4-2-0.8-3-1.2v38.7c1,0.8,2,1.7,3,2.6V430.2z"/>
	<path d="M1488,434.4c1,0.4,2,0.7,3,1.2v-33.3c-1-0.2-2-0.4-3-0.6v17c-1-0.7-2-1.3-3-1.9v50.9c1.1,1.8,2.1,3.6,3,5.4V434.4z"/>
	<path d="M1461,429.7c1,0,2,0,3,0.1v-30.8c-1,0-2,0-3-0.1v6.7c-1-0.3-2-0.6-3-0.9v35.5c1,0.6,2,1.2,3,1.9V429.7z"/>
	<path d="M1344,418.3c-1,0.6-2,1.3-3,2v49.3c1-1.8,1.9-3.5,3-5.2V418.3z"/>
	<path d="M1362,408.9c-1,0.4-2,0.8-3,1.3v37.2c1-0.8,2-1.5,3-2.3v191.6c-1-0.7-2-1.4-3-2.2v36.3c1,0.4,2,0.8,3,1.2v-28.4
		c1,1.1,2,2.2,3,3.2V435.7c-1,1.1-2,2.2-3,3.3V408.9z"/>
	<path d="M1353,413.1c-1,0.5-2,1.1-3,1.6v41.4c1-1.1,2-2.2,3-3.3v176.3c-1-1.1-2-2.2-3-3.3v40.8c1,0.5,2,1,3,1.5V632
		c1,1.4,2,2.8,3,4.2V446.6c-1,1.4-2,2.8-3,4.3V413.1z"/>
	<rect x="1494" y="531.8" width="3" height="33.1"/>
	<polygon points="1422,565 1425,565 1425,531.8 1422,531.8 1422,458.5 1419,449.7 1419,552 1422,560.3 	"/>
	<rect x="1476" y="531.8" width="3" height="33.1"/>
	<rect x="1485" y="531.8" width="3" height="33.1"/>
	<path d="M1497,491.3v-53c1,0.5,2,1.1,3,1.6v-35.3c-1-0.3-2-0.6-3-0.9v21.5c-1-0.8-2-1.6-3-2.4v64.8c0.4,1.3,0.8,2.7,1.2,4
		L1497,491.3z"/>
	<path d="M1443,649.1c-1,0.2-2,0.4-3,0.5v29.6c1-0.2,2-0.4,3-0.6v1.9c1,0.1,2,0.2,3,0.2v-30.2c-1-0.1-2-0.2-3-0.3V649.1z"/>
	<rect x="1467" y="531.8" width="3" height="33.1"/>
	<path d="M1072.3,403.5h-1.3h-3h-3h-3h-2.2v30.8h2.2v151.3l-3-7.7v94.9l1.4,3.7h1.6v-21.7c1,0.9,2,1.9,3,2.7V434.3h3h3v174.4l-3-7.7
		v75.5h3v-14.2c1,0.7,2,1.3,3,2v-61.9c-1.1-4.9-1.7-10.3-1.7-16V403.5z"/>
	<path d="M1506,443.8c1,0.7,2,1.5,3,2.2v-38.4c-1-0.4-2-0.7-3-1.1v27.2c-1-1-2-2-3-3v59.5l3-0.6V443.8z"/>
	<path d="M1209,614.2c-0.9,2-1.9,3.9-3,5.7v48.3c1-0.5,2-1.1,3-1.6v10h3v-31.6h-3V614.2z"/>
	<path d="M1200,628c-1,1.1-2,2.1-3,3.1v41.2c1-0.4,2-0.8,3-1.2v5.5h3v-31.6h-3V628z"/>
	<path d="M921,531.8h-3v-37.6l-3,7.7v36.5h-3v-6.6h-3v-14.6l-3,7.7v13.5h-3v-6.6h-3v8.4l-3,7.7v-9.5h-3v-6.6h-3v31.4l-3,7.7v95.2
		l3-8v22.2c1-0.1,2-0.2,3-0.4v-29.7c-1,0.1-2,0.2-3,0.3V565h3v-0.4h3v77.4l3-8V565h3v-0.4h3v53.3l3-8V565h3v-0.4h3V595h3v-30h3v-0.4
		h2.7v-26.1H921V531.8z"/>
	<polygon points="954,563.8 951,563.8 951,595 954,595 954,565 957,565 957,531.8 954,531.8 	"/>
	<polygon points="945,563.8 942,563.8 942,595 945,595 945,565 948,565 948,531.8 945,531.8 	"/>
	<path d="M1107,677.5c1,0.2,2,0.4,3,0.6v-34.2c-1-0.4-2-0.8-3-1.3V677.5z"/>
	<path d="M1116,679.2c1,0.2,2,0.3,3,0.5v-32.7c-1-0.3-2-0.6-3-0.9V679.2z"/>
	<path d="M1125,680.3c1,0.1,2,0.2,3,0.2v-31.8c-1-0.2-2-0.3-3-0.5V680.3z"/>
	<path d="M1290,506.8c-1.8,10.5-2.7,21.6-2.7,33.2c0,12.6,0.9,24.3,2.7,35.3v-20.9h3v-31.6h-3V506.8z"/>
	<path d="M1098,675.2c1,0.3,2,0.6,3,0.9v-36.5c-1-0.6-2-1.2-3-1.9V675.2z"/>
	<path d="M1191,636.1c-1,0.7-2,1.4-3,2.1v37.2c1-0.3,2-0.6,3-0.9v2.1h3v-31.6h-3V636.1z"/>
	<path d="M1089,654.9l-3-7.7v29.3h3V672c1,0.4,2,0.8,3,1.2v-40.1c-1-0.9-2-1.8-3-2.8V654.9z"/>
	<path d="M1080,631.8l-3-7.7v52.4h3v-8.7c1,0.5,2,1,3,1.5v-46.2c-1.1-1.5-2.1-3.1-3-4.8V631.8z"/>
	<path d="M1764,467c1.1,1.7,2.1,3.5,3,5.3v-54c-1-0.6-2-1.3-3-1.9v-13h-3v31.6h3V467z"/>
	<path d="M1755,644.9h-3v31.6h3v-10.2c1-0.6,2-1.2,3-1.9V631c-1,1-2,1.9-3,2.8V644.9z"/>
	<path d="M1764,644.9h-3v31.6h3v-16.4c1-0.8,2-1.6,3-2.4v-38c-1,1.5-1.9,3-3,4.4V644.9z"/>
	<path d="M1773,644.9h-3v31.6h3V652c1-1,2-2.1,3-3.2v-50.1c-0.9,3.1-1.9,6.1-3,8.9V644.9z"/>
	<path d="M1773,486.5c0.6,1.7,1.1,3.4,1.6,5.1l1.4-0.3V425c-1-0.8-2-1.6-3-2.4v-19.1h-3v31.6h3V486.5z"/>
	<path d="M1737,644.9h-3v31.6h3v-1.8c1-0.4,2-0.7,3-1.1v-30.2c-1,0.5-2,0.9-3,1.3V644.9z"/>
	<path d="M1746,644.9h-3v31.6h3V671c1-0.5,2-1,3-1.5v-31.2c-1,0.7-2,1.3-3,1.9V644.9z"/>
	<path d="M1593,635.6c1,1.3,2,2.6,3,3.9V443.2c-1,1.3-2,2.7-3,4V635.6z"/>
	<path d="M1584,621.2c1,1.8,2,3.6,3,5.4V456.5c-1,1.8-2,3.6-3,5.4V621.2z"/>
	<path d="M1578,475.1c-1.1,2.7-2.1,5.5-3,8.4v116c0.9,2.9,1.9,5.8,3,8.5v-1.7c0.4-0.9,0.8-1.8,1.2-2.7l-1.2-0.3V475.1z"/>
	<path d="M1524,531.8h-3v-8.4l-3,8.8V628c-1,1-2,1.9-3,2.9v-99.1h-3V550l-3,8.8v77c-1,0.7-2,1.4-3,2.1V531.8h-3v44.6
		c-1,3.1-2,6-3,8.9v56.2c-1,0.5-2,1-3,1.5v-45.7c-0.9,3.3-1.9,6.4-3,9.4v-3.5c-1.1,3.2-2.1,6.3-3,9.1v33.2c-1,0.4-2,0.7-3,1.1V619
		c-1,1.6-1.9,3.1-3,4.5v7.1c-1,3-1.7,5.2-2.1,6.4h-0.4c-0.2-0.5-0.3-1-0.5-1.5v12.8c-1,0.2-2,0.5-3,0.7v-18.5c-1,1-2,1.9-3,2.8
		v-15.8c-0.9-2.7-1.9-5.7-3-8.9v41.4c-1,0.1-2,0.3-3,0.4v-12.4c-1,0.7-2,1.3-3,1.9v-49c-1-2.8-2-5.8-3-8.8V651c-1,0-2,0.1-3,0.1
		v-7.9c-1,0.5-2,0.9-3,1.3V565h3v-33.1h-3v32.8c-0.5-1.6-1.1-3.1-1.6-4.7l-1.4-4.1v95.3c-1,0-2-0.1-3-0.1v-4.2c-1,0.3-2,0.6-3,0.9
		v29.7c1-0.3,2-0.5,3-0.8v4.6c1,0,2,0.1,3,0.1v-29.9l3,8.3v15.1c1-0.4,2-0.7,3-1.1v7.7c1,0,2,0,3,0V676l0.2,0.5h2.8v-5.6
		c1-0.5,2-1,3-1.5v11.4c1-0.1,2-0.1,3-0.2v-4.1h3v-10.4c1-0.6,2-1.3,3-1.9v15.8c1-0.1,2-0.3,3-0.4v-3h3v-16.7c1-0.8,2-1.6,3-2.5
		v21.2c1-0.2,2-0.4,3-0.6v-1.4h3v-24.9c1-1.1,2-2.1,3-3.3v28.1c1-0.3,2-0.5,3-0.8v0.8h0.8l2.2-5.9v-29.8c0.4-0.6,0.8-1.1,1.2-1.7
		l1.8,21.8v12.9c1-0.3,2-0.7,3-1.1V654l3-8.3v30.8h3v-6.2c1-0.4,2-0.9,3-1.3v-39.8l3-8.3v55.6h3V666c1-0.5,2-1.1,3-1.7v-47.2
		c-1,1.4-2,2.7-3,4.1V531.8z"/>
	<path d="M1533,482.7c-0.9-3.2-1.9-6.4-3-9.4v11.6l3-0.6V482.7z"/>
	<path d="M1524,461.6c1,1.4,2,2.9,3,4.4v-49.6c-1-0.6-2-1.2-3-1.7v44.7c-1-1.9-2-3.7-3-5.5v32.8l3-0.6V461.6z"/>
	<path d="M1533,531.8h-3v-34.9l-3,8.8v98.7l3-8.3v80.4h3v-15.9c1-0.7,2-1.3,3-2v-57.7c-0.9,2.1-1.9,4.2-3,6.3V531.8z"/>
	<path d="M1569,509.1c-1.5,9.9-2.3,20.2-2.3,30.9c0,11.7,0.8,22.7,2.3,33V509.1z"/>
	<path d="M1299,474.2c-1.1,2.7-2.1,5.4-3,8.2v118.1c0.9,2.8,1.9,5.6,3,8.3V474.2z"/>
	<path d="M1308,455.9c-1,1.7-2,3.5-3,5.3v-57.7h-1.1v273h1.1v-54.6c1,1.8,2,3.6,3,5.3V455.9z"/>
	<path d="M1515,451.2c1,1,2,2,3,3.1v-42.8c-1-0.5-2-0.9-3-1.4v34.4c-1-1.4-2-2.7-3-4v47.8l3-0.6V451.2z"/>
	<path d="M1602,646.3c1,1,2,2,3,3V433.1c-1,1-2,2-3,3.1V646.3z"/>
	<path d="M1341,661.4c1,0.6,2,1.3,3,1.9v-45.8c-1.1-1.7-2-3.5-3-5.3V661.4z"/>
	<path d="M1746,446.1c1,0.8,2,1.7,3,2.6v-39.9c-1-0.4-2-0.8-3-1.2v-4.1h-3v31.6h3V446.1z"/>
	<path d="M1737,439.9c1,0.6,2,1.2,3,1.9v-36.3c-1-0.3-2-0.6-3-0.9v-1h-3v31.6h3V439.9z"/>
	<path d="M1728,435.5c1,0.4,2,0.9,3,1.3v-33.9c-1-0.2-2-0.5-3-0.7v1.3h-3v31.6h3V435.5z"/>
	<path d="M1755,454.8c1,1.2,2,2.4,3,3.6V413c-1-0.5-2-1-3-1.5v-8h-3v31.6h3V454.8z"/>
	<polygon points="702,503 705,500 705,475.2 702,472.2 	"/>
	<path d="M453,401.5c-1-0.2-2-0.4-3-0.6v32.3c1,0.3,2,0.6,3,1v-0.1c1,0,2,0.1,3,0.1v-30.3c-1,0-2-0.1-3-0.1V401.5z"/>
	<path d="M462,403.6c-1-0.3-2-0.5-3-0.8v33.8c1,0.5,2,1,3,1.5v-3.6c1,0.1,2,0.2,3,0.3v-30.4c-1-0.1-2-0.2-3-0.2V403.6z"/>
	<path d="M444,400c-1-0.1-2-0.2-3-0.4V431c1,0.2,2,0.4,3,0.6v2.3c1,0,2,0,3,0v-30.4c-1,0-2,0-3,0V400z"/>
	<path d="M435,399.2c-1-0.1-2-0.1-3-0.2v30.9c1,0.1,2,0.2,3,0.3v3.8h3v-30.4h-3V399.2z"/>
	<path d="M453,531.8h-3V565h3v-1.3c1,0,2,0.1,3,0.2v-30.9c-1,0.1-2,0.1-3,0.2V531.8z"/>
	<path d="M462,531.8h-3V565h3v-0.7c1,0.1,2,0.2,3,0.4v-32.5c-1,0.1-2,0.2-3,0.3V531.8z"/>
	<path d="M444,531.8h-3V565h3v-1.5c1,0,2,0,3,0v-30.2c-1,0-2,0-3,0V531.8z"/>
	<path d="M432,681c1-0.1,2-0.1,3-0.2V651c-1,0-2,0.1-3,0.1V681z"/>
	<path d="M441,680.2c1-0.1,2-0.3,3-0.4v-29.7c-1,0.1-2,0.2-3,0.3V680.2z"/>
	<path d="M450,678.8c1-0.2,2-0.4,3-0.6v-29.6c-1,0.2-2,0.4-3,0.6V678.8z"/>
	<path d="M477,669.8c1-0.5,2-1,3-1.6v-31.7c-1,0.7-2,1.4-3,2.1V669.8z"/>
	<path d="M459,676.7c1-0.3,2-0.6,3-0.9V646c-1,0.3-2,0.7-3,1V676.7z"/>
	<path d="M468,673.7c1-0.4,2-0.8,3-1.2v-30.4c-1,0.5-2,1-3,1.5V673.7z"/>
	<polygon points="120,403.5 117,403.5 117,676.5 120,676.5 120,642.8 123,634.7 123,541 120,548.7 	"/>
	<rect x="180" y="645.7" width="3" height="30.8"/>
	<rect x="207" y="645.7" width="3" height="30.8"/>
	<rect x="189" y="645.7" width="3" height="30.8"/>
	<rect x="216" y="645.7" width="3" height="30.8"/>
	<rect x="198" y="645.7" width="3" height="30.8"/>
	<path d="M540,480.3v4.2l1.1-0.2C540.8,482.9,540.4,481.6,540,480.3z"/>
	<rect x="261" y="645.7" width="3" height="30.8"/>
	<path d="M426,398.8c-0.5,0-1,0-1.5,0c-0.5,0-1,0-1.5,0v4.7h-3h-3V399c-1,0-2,0.1-3,0.2v4.4h-3h-3v-3.9c-1,0.1-2,0.2-3,0.3v3.6h-3
		h-3v-2.7c-1,0.2-2,0.3-3,0.5v2.2h-3h-3v-1c-1,0.2-2,0.5-3,0.7V436c1-0.4,2-0.7,3-1.1v-1h3v99.4h-3v30h3v18.8
		c0.3,15.1,0.9,33.9,1.6,47.9h-0.4c-0.4-0.8-0.8-1.6-1.2-2.3v48.8h3v2.5c1,0.2,2,0.3,3,0.5v-30.9c-1-0.2-2-0.4-3-0.7V433.1
		c1-0.3,2-0.5,3-0.7v1.5h3v99.4h-3v30h3v113.1h3v3.7c1,0.1,2,0.2,3,0.3V650c-1-0.1-2-0.3-3-0.4V431.2c1-0.2,2-0.3,3-0.5v3.2h3v99.4
		h-3v30h3v113.1h3v4.4c1,0.1,2,0.1,3,0.1v-30.2c-1-0.1-2-0.1-3-0.2V430.1c1-0.1,2-0.2,3-0.2v4h3v99.4h-3v30h3v113.1h3v4.7
		c0.5,0,1,0,1.5,0c0.5,0,1,0,1.5,0v-30c-1,0-2,0-3-0.1V429.7c0.8,0,1.5,0,2.3,0c0.2,0,0.5,0,0.7,0v4.3h3v-30.4h-3V398.8z"/>
	<rect x="171" y="645.7" width="3" height="30.8"/>
	<path d="M309,614.3V468.8c-1.1,2.4-2.1,4.7-3,7.2v5.8l-3-4.8v61.9l3,4.9v63.3C306.9,609.5,307.9,611.9,309,614.3z"/>
	<path d="M300,587.2v-91.7c-1.2,5.2-2.2,10.5-3,15.9v-44.1l-3-4.8v61.8l3,4.9v41.4C297.8,576.3,298.8,581.8,300,587.2z"/>
	<path d="M342,485.2c0.9-2.7,1.9-5.4,3-7.9V423c-1,0.8-2,1.5-3,2.3V485.2z"/>
	<path d="M333,525.2l-3-4.8v62.4l3,4.9V649c1,0.9,2,1.9,3,2.8v-84.1c-1-8.6-1.6-17.8-1.6-27.7c0-9.8,0.5-18.8,1.6-27.2v-82.3
		c-1,1-2,1.9-3,2.9V525.2z"/>
	<path d="M318,630.8V452.2c-1,1.6-2,3.2-3,4.9v39.1l-3-4.8v62.1l3,4.9v67.6C316,627.6,317,629.2,318,630.8z"/>
	<path d="M324,510.7l-3-4.8v62.3l3,4.9v66.1c1,1.2,2,2.4,3,3.6V440c-1,1.2-2,2.4-3,3.7V510.7z"/>
	<path d="M828,674.7c1,0.3,2,0.6,3,0.9v-32.8c-1-0.4-2-0.9-3-1.4V674.7z"/>
	<path d="M810,628.1V453.9c1-1,2-2,3-3v-38.8c-1,0.5-2,1-3,1.5v-10.1h-3v134.9h-3v26.1h3v111.9h3v-8.8c1,0.5,2,1,3,1.4v-38
		C812,630.2,811,629.2,810,628.1z"/>
	<path d="M885,399.1c-1-0.1-2-0.1-3-0.1v30.9c1,0.1,2,0.2,3,0.3V399.1z"/>
	<polygon points="435,531.8 432,531.8 432,565 435,565 435,563.4 438,563.4 438,533.4 435,533.4 	"/>
	<path d="M840,402.6c-1,0.2-2,0.5-3,0.7v32.7c1-0.4,2-0.7,3-1.1V402.6z"/>
	<path d="M849,400.8c-1,0.2-2,0.3-3,0.5v31.8c1-0.3,2-0.5,3-0.7V400.8z"/>
	<path d="M831,405c-1,0.3-2,0.6-3,1v34.2c1-0.5,2-1,3-1.5V405z"/>
	<path d="M846,678.9c1,0.2,2,0.3,3,0.5v-30.9c-1-0.2-2-0.4-3-0.7V678.9z"/>
	<path d="M837,677.1c1,0.2,2,0.4,3,0.7v-31.6c-1-0.3-2-0.6-3-1V677.1z"/>
	<path d="M855,655.2l-3,7.7v13.6h3v3.6c1,0.1,2,0.2,3,0.3v-30.5c-1-0.1-2-0.3-3-0.4V655.2z"/>
	<path d="M858,399.7c-1,0.1-2,0.2-3,0.3v31.3c1-0.2,2-0.3,3-0.5V399.7z"/>
	<path d="M954,649.5c1-1.1,2-2.3,3-3.5v-57.9c-0.8,4.5-1.8,8.7-3,12.7V649.5z"/>
	<path d="M945,658.2c1-0.9,2-1.7,3-2.6v-40c-0.9,1.8-1.9,3.5-3,5.1V658.2z"/>
	<polygon points="972,563.8 969,563.8 969,595 972,595 972,676.5 975,676.5 975,531.8 972,531.8 	"/>
	<polygon points="963,563.8 960,563.8 960,595 963,595 963,649 965.3,676.5 966,676.5 966,531.8 963,531.8 	"/>
	<path d="M936,664.8c1-0.7,2-1.3,3-2v-34.3c-1,1.1-2,2.1-3,3.1V664.8z"/>
	<path d="M927,669.9c1-0.5,2-1,3-1.6v-31.6c-1,0.7-2,1.4-3,2.1V669.9z"/>
	<path d="M909,676.8c1-0.3,2-0.6,3-0.9v-29.8c-1,0.3-2,0.7-3,1V676.8z"/>
	<path d="M900,678.9c1-0.2,2-0.4,3-0.6v-29.6c-1,0.2-2,0.4-3,0.6V678.9z"/>
	<path d="M918,673.8c1-0.4,2-0.8,3-1.2v-30.4c-1,0.5-2,1-3,1.4V673.8z"/>
	<path d="M921,434.3h3v-30.8h-3v2.8c-1-0.3-2-0.7-3-1v36.1c1,0.7,2,1.3,3,2V434.3z"/>
	<path d="M972,488l3-0.6v-40c-1-1.4-2-2.9-3-4.2V488z"/>
	<path d="M912,434.3h3v-30.8h-3v0c-1-0.3-2-0.5-3-0.8v33.8c1,0.5,2,0.9,3,1.4V434.3z"/>
	<path d="M867,399c-1,0-2,0.1-3,0.2v31c1-0.1,2-0.2,3-0.2V399z"/>
	<polygon points="594,611 594,611 597,608 597,570.9 594,573.9 	"/>
	<polygon points="585,602.2 588,605.1 588,579.9 585,582.9 	"/>
	<polygon points="576,593.3 579,596.3 579,588.9 576,591.9 	"/>
	<polygon points="612,593 615,590 615,552.9 612,555.9 	"/>
	<polygon points="630,575 633,572 633,508.4 630,505.4 	"/>
	<polygon points="603,602 606,599 606,561.9 603,564.9 	"/>
	<path d="M543,531.8h-3v144.7h3h3v-17.9c-1.2-3.2-2.2-6.6-3-10.1V531.8z"/>
	<polygon points="576,488.4 579,491.4 579,484 576,487 	"/>
	<polygon points="585,497.4 588,500.4 588,474.8 585,477.8 	"/>
	<path d="M534,531.8h-3v144.7h3h3v-91.7c-0.8-2.8-1.8-5.6-3-8.1V531.8z"/>
	<polygon points="621,584 624,581 624,543.9 621,546.9 	"/>
	<polygon points="621,533.1 624,536.1 624,499.4 621,496.4 	"/>
	<polygon points="612,524.2 615,527.2 615,490.4 612,487.4 	"/>
	<polygon points="594,506.3 597,509.3 597,472.4 594,469.4 	"/>
	<polygon points="603,515.2 606,518.2 606,481.4 603,478.4 	"/>
	<path d="M750,496.7c-1.2,5.4-2.3,11-3,16.8v54.9c0.7,6.1,1.8,11.9,3,17.5v-21.3h3v-26.1h-3V496.7z"/>
	<path d="M759,469.4c-1.1,2.4-2.1,4.8-3,7.3v129.6c0.9,2.5,1.9,5,3,7.4v-49.1h3v-26.1h-3V469.4z"/>
	<path d="M876,429.6v-30.8c-0.4,0-0.8,0-1.2,0c-0.6,0-1.2,0-1.8,0v30.8c0.9,0,1.7,0,2.6,0C875.7,429.6,875.9,429.6,876,429.6z"/>
	<path d="M786,515.1v-84.3c-1,1-2,1.9-3,2.9v215c1,1,2,1.9,3,2.8v-86.2c-0.9-7.9-1.3-16.3-1.3-25.3
		C784.7,531.1,785.1,522.8,786,515.1z"/>
	<path d="M768,452.6c-1,1.6-2,3.3-3,5v167.9c1,1.7,2,3.3,3,4.9v-65.8h3v-26.1h-3V452.6z"/>
	<path d="M777,440.3c-1,1.2-2,2.5-3,3.7v194.7c1,1.2,2,2.5,3,3.6v-77.8h3v-26.1h-3V440.3z"/>
	<polygon points="711,598.8 714,595.8 714,589.4 711,586.4 	"/>
	<polygon points="693,512 696,509 696,471.9 693,474.9 	"/>
	<polygon points="711,494 714,491 714,484.4 711,481.4 	"/>
	<polygon points="702,607.6 705,604.6 705,580.3 702,577.3 	"/>
	<polygon points="693,605.4 696,608.4 696,571.2 693,568.2 	"/>
	<rect x="1299" y="403.5" width="3" height="31.6"/>
	<rect x="1290" y="403.5" width="3" height="31.6"/>
	<rect x="1281" y="522.8" width="3" height="31.6"/>
	<rect x="1254" y="522.8" width="3" height="31.6"/>
	<rect x="1263" y="522.8" width="3" height="31.6"/>
	<rect x="1272" y="522.8" width="3" height="31.6"/>
	<polygon points="1272,403.5 1272,435.1 1275,435.1 1275,434.3 1277.1,434.3 1277.1,403.5 1275,403.5 	"/>
	<path d="M1245,403.5h-3h-3h-3h-3h-3h-3h-3h-3h-3h-3h-3h-3v31.6h3v-0.8h3v228.5c1-0.7,2-1.4,3-2.2v15.9h3v-31.6h-3v-90.5h3v-31.6h-3
		v-87.8h3v-0.8h3v221.3c1-1,2-1.9,3-3v23.9h3v-31.6h-3v-90.5h3v-31.6h-3v-87.8h3v-0.8h3v211.2c1-1.4,2-2.9,3-4.3v-86.8h3v-31.6h-3
		v-87.8h3v-0.8h3v195.6c1.1-2.6,2.1-5.2,3-7.9v-67.5h3v-31.6h-3v-87.8h3v-0.8h3v-30.8h-3H1245z"/>
	<polygon points="1263,403.5 1263,435.1 1266,435.1 1266,434.3 1269,434.3 1269,403.5 1266,403.5 	"/>
	<polygon points="1254,403.5 1254,435.1 1257,435.1 1257,434.3 1260,434.3 1260,403.5 1257,403.5 	"/>
	<rect x="1281" y="403.5" width="3" height="31.6"/>
	<path d="M1569,623c1-1.6,2-3.3,3-5v-16.3l-3-0.8V623z"/>
	<path d="M1542,654c1-0.8,2-1.7,3-2.5v-56.9l-3-0.8V654z"/>
	<path d="M1560,635.8c1-1.3,2-2.6,3-3.9v-32.6l-3-0.8V635.8z"/>
	<path d="M1551,645.9c1-1,2-2.1,3-3.1V597l-3-0.8V645.9z"/>
	<rect x="1209" y="522.8" width="3" height="31.6"/>
	<rect x="1200" y="522.8" width="3" height="31.6"/>
	<rect x="1191" y="522.8" width="3" height="31.6"/>
	<rect x="1308" y="403.5" width="2.9" height="31.6"/>
	<rect x="1290" y="644.9" width="3" height="31.6"/>
	<rect x="1299" y="644.9" width="3" height="31.6"/>
	<rect x="1308" y="644.9" width="2.9" height="31.6"/>
	<rect x="1263" y="644.9" width="3" height="31.6"/>
	<rect x="1281" y="644.9" width="3" height="31.6"/>
	<rect x="1254" y="644.9" width="3" height="31.6"/>
	<rect x="1272" y="644.9" width="3" height="31.6"/>
	<rect x="1236" y="644.9" width="3" height="31.6"/>
	<rect x="1245" y="644.9" width="3" height="31.6"/>
	<path d="M1812,403.5v78c-0.9-3.1-1.9-6.2-3-9.2V485l3-0.6v47.4h-3v144.7h3h3v-273H1812z"/>
	<path d="M1803,458.7c-1-1.9-2-3.7-3-5.4v33.5l3-0.6v45.7h-3v113.1h-3V435.1h3v-31.6h-3h-3v40.6c-1-1.3-2-2.6-3-3.9v48.3l3-0.6v43.9
		h-3v113.1h-3v-90.5h0.2v-31.6h-0.2v-87.8h3v-31.6h-3h-3v29.8c-1-1-2-2-3-3v-26.8h-3v31.6h3v55.1l3-0.6v42.2h-3v-9h-3h-3v9h-3v-9h-3
		h-3v9h-3v-9h-3h-3v9h-3v-9h-3h-3v9h-3v-9h-3h-3v9h-3v-9h-3h-3v9h-3v-9h-3h-3v9h-3v-9h-3h-3v9h-3v-9h-3h-3v9h-3v-9h-3h-3v31.6h3h3
		V565h3v-10.5h3h3V565h3v-10.5h3h3V565h3v-10.5h3h3V565h3v-10.5h3h3V565h3v-10.5h3h3V565h3v-10.5h3h3V565h3v-10.5h3h3V565h3v-10.5h3
		h3V565h3v-10.5h3h3v86.8c0.5-0.7,1-1.5,1.5-2.2l1.5,17.6v19.9h3h3h3h3h3h3h3v-273h-3V458.7z"/>
	<path d="M1344,616.1c1,2,2,4,3,6V461c-1,2-2,4-3,6V616.1z"/>
	<path d="M1536,422.3c-1-0.7-2-1.5-3-2.2v56.7c1.1,2.4,2.1,4.9,3,7.4v95.3l3-8.3v-101l-3,8.8V422.3z"/>
	<path d="M1623,418.5c-1,0.7-2,1.3-3,2v49.7c1-1.8,1.9-3.6,3-5.3v151.9c-1.1-1.7-2-3.6-3-5.4v49.8c1,0.6,2,1.3,3,1.9v13.4h3v-273h-3
		V418.5z"/>
	<path d="M1614,425c-1,0.8-2,1.6-3,2.5v66.8c0.9-3.5,1.9-6.9,3-10.1v112.9c-1.1-3.3-2.1-6.8-3-10.4v68c1,0.8,2,1.6,3,2.4v19.5h3
		v-273h-3V425z"/>
	<path d="M1416,651.1c-1,0-2-0.1-3-0.1v30.2c1,0,2,0,3,0v-5.3c1,0.3,2,0.5,3,0.8v-32.5c-1-0.4-2-0.8-3-1.3V651.1z"/>
	<path d="M1425,651.1c-1,0-2,0-3,0.1v30c1,0,2-0.1,3-0.1V678c1,0.2,2,0.4,3,0.6v-31.4c-1-0.3-2-0.6-3-0.9V651.1z"/>
	<path d="M1434,650.5c-1,0.1-2,0.2-3,0.3v29.7c1-0.1,2-0.2,3-0.3v-0.6c1,0.1,2,0.3,3,0.4v-30.7c-1-0.2-2-0.4-3-0.6V650.5z"/>
	<path d="M1380,645.5c-1-0.3-2-0.7-3-1.1v32.2c1,0.2,2,0.5,3,0.7v-17.9c1,0.7,2,1.4,3,2v-49.9c-1.1-2-2.1-4.1-3-6.2V645.5z"/>
	<path d="M1389,648c-1-0.2-2-0.5-3-0.7v31.3c1,0.2,2,0.3,3,0.5v-14c1,0.5,2,1.1,3,1.6v-41.5c-1-1.2-2-2.5-3-3.8V648z"/>
	<path d="M1407,650.6c-1-0.1-2-0.2-3-0.3v30.4c1,0.1,2,0.1,3,0.2v-7.8c1,0.3,2,0.7,3,1v-34.3c-1-0.6-2-1.2-3-1.8V650.6z"/>
	<path d="M1398,649.7c-1-0.1-2-0.3-3-0.5v30.7c1,0.1,2,0.2,3,0.3v-10.7c1,0.4,2,0.9,3,1.3v-37c-1-0.8-2-1.7-3-2.5V649.7z"/>
	<path d="M1434,432.2c1-0.2,2-0.4,3-0.6v-31.4c-1,0.1-2,0.3-3,0.4v-0.9c-1-0.1-2-0.2-3-0.3v31.2c1,0.2,2,0.3,3,0.5V432.2z"/>
	<path d="M1425,434.6c1-0.3,2-0.6,3-0.9v-32c-1,0.2-2,0.4-3,0.6V399c-1-0.1-2-0.1-3-0.1v30.8c1,0,2,0.1,3,0.2V434.6z"/>
	<path d="M1416,438.1c1-0.5,2-0.9,3-1.3v-33c-1,0.3-2,0.6-3,0.9v-5.8c-1,0-2,0-3,0v30.9c1,0,2-0.1,3-0.1V438.1z"/>
	<path d="M1371,641.9c-1-0.5-2-1-3-1.5v33.7c1,0.3,2,0.6,3,0.9v-22.6c1,0.9,2,1.7,3,2.5v-67.7c-1.2-5-2.2-10.2-3-15.8V641.9z"/>
	<path d="M1545,429.8c-1-0.9-2-1.8-3-2.7v63.8l3-0.6v64.5l3-8.3V443.8l-3,8.8V429.8z"/>
	<path d="M471,531.8h-3V565h3v0.7c1,0.2,2,0.4,3,0.6v-35.6c-1,0.2-2,0.4-3,0.6V531.8z"/>
	<polygon points="111,666.9 114,658.9 114,564 111,571.7 	"/>
	<polygon points="75,676.5 78,676.5 78,656 75,663.7 	"/>
	<polygon points="93,676.5 96,676.5 96,610 93,617.7 	"/>
	<polygon points="102,676.5 105,676.5 105,587 102,594.7 	"/>
	<path d="M552,676.5h3v-1.8c-1.1-1.4-2.1-2.8-3-4.2V676.5z"/>
	<polygon points="84,676.5 87,676.5 87,633 84,640.7 	"/>
	<path d="M471,406.4c-1-0.4-2-0.7-3-1v36.2c1,0.7,2,1.3,3,2v-8c1,0.2,2,0.3,3,0.5v-30.8c-1-0.1-2-0.2-3-0.4V406.4z"/>
	<rect x="426" y="533.4" width="3" height="30"/>
	<polygon points="255,600.6 258,608.5 258,515.6 255,507.9 	"/>
	<rect x="210" y="563.8" width="3" height="31.2"/>
	<rect x="192" y="563.8" width="3" height="31.2"/>
	<rect x="201" y="563.8" width="3" height="31.2"/>
	<polygon points="273,645.7 270,645.7 270,676.5 273,676.5 273,648.2 276,656.1 276,561.8 273,554.1 	"/>
	<polygon points="309,676.5 312,676.5 312,654.1 309,646.4 	"/>
	<polygon points="264,624.4 267,632.3 267,538.7 264,531 	"/>
	<polygon points="318,676.5 320.7,676.5 318,669.5 	"/>
	<polygon points="300,676.5 303,676.5 303,631 300,623.3 	"/>
	<rect x="183" y="563.8" width="3" height="31.2"/>
	<polygon points="291,645.7 288,645.7 288,676.5 291,676.5 294,676.5 294,607.9 291,600.2 	"/>
	<polygon points="282,645.7 279,645.7 279,676.5 282,676.5 282,672 283.7,676.5 285,676.5 285,584.8 282,577.2 	"/>
	<path d="M210,479.5c0.3,0.7,0.5,1.4,0.8,2l2.2,6v-84h-3V479.5z"/>
	<rect x="174" y="563.8" width="3" height="31.2"/>
	<rect x="165" y="563.8" width="3" height="31.2"/>
	<polygon points="174,410.7 174,496.5 177,488.4 177,403.5 176.8,403.5 	"/>
	<path d="M183,472c1-2.9,2-5.7,3-8.5v-60h-3V472z"/>
	<polygon points="165,520.9 168,512.8 168,426.1 165,433.7 	"/>
	<path d="M192,445.9c0.9-2.8,1.8-5.6,2.8-8.5h0.2v-33.9h-3V445.9z"/>
	<path d="M201,454.5c1,2.8,2,5.6,3,8.5v-59.5h-3V454.5z"/>
	<rect x="858" y="538.4" width="3" height="26.1"/>
	<polygon points="852,538.4 849.6,538.4 849.6,463.9 849,463.9 849,638.7 849.6,638.7 849.6,564.6 852,564.6 	"/>
	<rect x="867" y="538.4" width="3" height="26.1"/>
	<rect x="840" y="463.9" width="3" height="174.7"/>
	<rect x="831" y="463.9" width="3" height="174.7"/>
	<polygon points="823.4,538.4 822,538.4 822,564.6 823.4,564.6 823.4,638.7 825,638.7 825,463.9 823.4,463.9 	"/>
	<rect x="876" y="538.4" width="3" height="26.1"/>
	<polygon points="888,538.4 885,538.4 885,531.8 882,531.8 882,565 885,565 885,564.6 888,564.6 	"/>
	<path d="M894,434.3h3v-30.8h-3V400c-1-0.1-2-0.2-3-0.4V431c1,0.2,2,0.4,3,0.6V434.3z"/>
	<path d="M903,434.3h3v-30.8h-3v-2.1c-1-0.2-2-0.4-3-0.6v32.2c1,0.3,2,0.6,3,1V434.3z"/>
	<polygon points="732,403.5 732,434.3 735,434.3 738,434.3 738,403.5 735,403.5 	"/>
	<rect x="777" y="403.5" width="3" height="30.8"/>
	<polygon points="714,403.5 714,434.3 717,434.3 720,434.3 720,403.5 717,403.5 	"/>
	<polygon points="723,403.5 723,434.3 726,434.3 729,434.3 729,403.5 726,403.5 	"/>
	<rect x="768" y="403.5" width="3" height="30.8"/>
	<rect x="759" y="403.5" width="3" height="30.8"/>
	<path d="M384,533.4h-2.4v-99.4h2.4v-30.4h-3v1.4c-1,0.3-2,0.6-3,0.9V440c1-0.5,2-1,3-1.5V643c-1-0.4-2-0.9-3-1.4v-41.8
		c-1-1.8-2-3.6-3-5.4V403.5h-3v4.5c-1,0.4-2,0.8-3,1.2v36.4c1-0.7,2-1.4,3-2.1v194.7c-1-0.6-2-1.3-3-2v-52.5c-1-1.7-2-3.5-3-5.2
		v-175h-3v8.4c-1,0.5-2,1-3,1.5v40.1c1-1,2-2,3-3v180.8c-1-0.9-2-1.9-3-2.9v-59.8c0,0-0.1-0.1-0.1-0.1l-2.9-4.7V403.5h-3v13.4
		c-1,0.6-2,1.2-3,1.9v46.8c1-1.6,2-3.1,3-4.6V621c-1-1.5-2-3.1-3-4.7v-62.1l-3-4.8V403.5h-1.5v273h1.5v-64.4l3,4.9v45.9
		c1,0.6,2,1.2,3,1.8v11.9h3v-49.8l3,4.9v36.2c1,0.5,2,1,3,1.4v7.3h3v-35.2l3,4.9v25.5c1,0.4,2,0.8,3,1.1v3.6h3V656l3,4.9v14
		c1,0.3,2,0.6,3,0.9v0.8h0.6V563.4h2.4V533.4z"/>
	<path d="M543,508.4c1.4-4.6,2.4-9.5,3-14.7v-21.7c-0.6-6-1.6-11.4-3-16.4V508.4z"/>
	<path d="M516,436.2c-1-1.1-2-2.2-3-3.2v-29.5h-3v11.9c-1-0.5-2-1-3-1.4v13.2c-1-0.9-2-1.7-3-2.5v-21.2h-3v8.1c-1-0.4-2-0.7-3-1v9.6
		c-1-0.7-2-1.4-3-2v-14.6h-3v5.3c-1-0.3-2-0.5-3-0.7v6.5c-1-0.6-2-1.1-3-1.6v-9.4h-3v3.3c-1-0.2-2-0.4-3-0.5v3.7c-1-0.4-2-0.9-3-1.3
		v39.7c1,0.9,2,1.9,3,2.8v-13.7c1,0.3,2,0.6,3,0.9v89.8c-1,0.3-2,0.7-3,1v2.6h-3V565h3v3.1c1,0.4,2,0.7,3,1.1v107.3h3v-11.9
		c1-0.7,2-1.3,3-2v-34.4c-1,1.1-2,2.2-3,3.2V565h3v7.4c1.1,0.7,2.1,1.4,3,2.2v102h3v-18.6c1-0.9,2-1.7,3-2.6V615
		c-0.9,1.8-1.9,3.5-3,5.2V565h3v16.3c1.2,1.8,2.2,3.7,3,5.8v89.5h3v-27.3c1-1.1,2-2.3,3-3.5v6c0.8,4.6,1.7,8.4,3,12v12.9h3v-24l2,24
		h1v-0.8c0.2,0.3,0.3,0.5,0.5,0.8h2.5V558.3c-1-0.7-2-1.4-3-2V545c1-0.6,2-1.3,3-2V420.8c-1-0.7-2-1.4-3-2V436.2z M492,524.2
		c-1,0.6-2,1.1-3,1.6v6h-3v-73.9c1,1.3,2,2.6,3,4v-21c1,0.5,2,1,3,1.6V524.2z M501,517.2c-0.9,1-2,1.9-3,2.8v11.8h-3v-60.2
		c1.1,2,2.1,4.1,3,6.2v-30.9c1,0.9,2.1,1.9,3,3V517.2z M507,586.4c-0.8,4.8-1.8,9.2-3,13.5V565h3V586.4z M510,552.9
		c-1-0.5-2-0.9-3-1.4v-2c1-0.4,2-0.8,3-1.3V552.9z M510,500.7c-0.8,2.9-1.8,5.5-3,8v23.2h-3v-40.4l3-0.6v-31.5
		c1.2,2.7,2.2,5.6,3,8.8V500.7z M516,531.8h-3v-42.1l3-0.6V531.8z"/>
	<path d="M534,464.1c-0.9-2.1-2-4.1-3-6.1v28.2l3-0.6v41.8c1.1-1.6,2.1-3.2,3-4.8v-81.7c-0.9-1.7-1.9-3.3-3-4.9V464.1z"/>
	<path d="M525,425.6v22.2c-1-1.5-2-2.9-3-4.3v44.3l3-0.6v44.5h-3v144.7h3h3V566.9c-0.9-1.2-1.9-2.3-3-3.4V538c1-1,2-2,3-3V428.6
		C527,427.6,526,426.6,525,425.6z"/>
	<path d="M996,403.5h-3v128.3h-3v32h-3v-83.5c0.2,0.4,0.3,0.8,0.5,1.2l2.5,6.8v-3.8l1.4-0.3c-0.4-1.7-0.9-3.3-1.4-4.9v-75.8h-3h-3
		v60c-0.9-2.1-2-4.1-3-6v-54h-3h-3v30.8h3v21.1c1,2.8,2,5.6,3,8.5v22.4l3-0.6v46.1h-3v32h-3V595h3v81.5h3h3V595h3v81.5h3h3V595h3
		v-31.2h-3v-59.5l3,8v-88.2l-3-7.7V403.5z"/>
	<path d="M933,403.5h-3v6.3c-1-0.4-2-0.9-3-1.3v39.6c1,0.9,2,1.8,3,2.8v-16.6h3V403.5z"/>
	<path d="M1059,403.5h-3h-3v159.1l-3-7.7V649l3,7.9v-12.6c1,1.3,2,2.7,3,3.9v-214h3V403.5z"/>
	<path d="M1050,403.5h-3h-3v136l-3-7.7v93.4l3,7.9v-5.4c0.9,2.3,1.9,4.5,3,6.6V434.3h3V403.5z"/>
	<path d="M1041,403.5h-3h-1.2v182.9c0,6.3,0.4,12.3,1.2,18V434.3h3V403.5z"/>
	<rect x="1020" y="403.5" width="3" height="30.8"/>
	<polygon points="1014,403.5 1011,403.5 1011,676.5 1014,676.5 1014,595 1017,595 1017,563.8 1014,563.8 1014,552.4 1017,560.4 
		1017,470.3 1014,462.6 	"/>
	<rect x="1029" y="403.5" width="3" height="30.8"/>
	<polygon points="1005,403.5 1002,403.5 1002,676.5 1005,676.5 1005,595 1008,595 1008,563.8 1005,563.8 1005,528.4 1008,536.4 
		1008,447.2 1005,439.5 	"/>
	<path d="M1563,451.7c-1-1.6-2-3.1-3-4.6v40.4l3-0.6v18.3l3-8.3v-93.4h-3V451.7z"/>
	<path d="M1575,403.5h-3v66c-0.9-2.3-1.9-4.6-3-6.8v23l3-0.6v-4.8l3-8.3V403.5z"/>
	<path d="M1554,439.2c-1-1.2-2-2.3-3-3.4v53.4l3-0.6V530l3-8.3V417.3l-3,8.8V439.2z"/>
	<path d="M1314,403.5h-3v273h3v-40.4c1,1.3,2,2.6,3,3.9V442.8c-1,1.3-2,2.6-3,4V403.5z"/>
	<path d="M1332,493c0.9-3.4,1.9-6.7,3-9.8v-58.5c-1,0.8-2,1.6-3,2.5v-23.7h-3v273h3v-21.6c1,0.8,2,1.6,3,2.3v-59.2
		c-1.1-3.2-2.1-6.6-3-10.1V493z"/>
	<path d="M1323,403.5h-3v273h3v-29.8c1,1,2,2,3,3V432.7c-1,1-2,2-3,3.1V403.5z"/>
	<polygon points="1593,403.5 1590,403.5 1590,430.8 1593,422.5 	"/>
	<polygon points="1584,403.5 1581,403.5 1581,455.6 1584,447.3 	"/>
	<polygon points="1431,565 1434,565 1434,531.8 1431,531.8 1431,485.1 1428,476.2 1428,576.8 1431,585.1 	"/>
	<path d="M1413,535.4V432l-3-8.8v-16.5c-1,0.4-2,0.7-3,1.1v-8.6c-1,0.1-2,0.1-3,0.2v6.1l-0.7-1.9h-2.3v6.7c-1,0.4-2,0.9-3,1.4v-11.7
		c-1,0.1-2,0.2-3,0.4v3.3h-3v11.2c-1,0.6-2,1.1-3,1.7v-15.2c-1,0.2-2,0.4-3,0.6v1.8h-3v16.7c-1,0.7-2,1.4-3,2.1v-19.3
		c-1,0.2-2,0.5-3,0.8v-0.3h-3v23.6c-1,0.9-2,1.7-3,2.6v-24.1c-1,0.3-2,0.7-3,1v-3.1h-2.9l2.9,7.9v29.8c1-0.6,2-1.1,3-1.6v69.2
		c0.8-5.5,1.8-10.7,3-15.6V428l3,8.3v0.6c1-0.4,2-0.8,3-1.2v39.9c0.9-2.1,1.9-4.1,3-6.1v-16.7l3,8.3v-27.3c1-0.3,2-0.6,3-0.8v26.8
		c1-1.3,2-2.6,3-3.8v21.6l3,8.3v-54.2c1-0.2,2-0.4,3-0.5v18.7c1-0.9,2-1.7,3-2.5v55.1l3,8.3v-80.3c1-0.1,2-0.2,3-0.3V443
		c1-0.6,2-1.2,3-1.8v86L1413,535.4z"/>
	<polygon points="1440,565 1443,565 1443,531.8 1440,531.8 1440,511.6 1437,502.7 1437,601.6 1440,609.9 	"/>
	<polygon points="1449,565 1452,565 1452,531.8 1449,531.8 1449,538.1 1446,529.3 1446,626.4 1449,634.7 	"/>
	<path d="M927,471.3l-3,7.7V595h3v-30h3v-33.1h-3V471.3z M927,563.8h-1.2l1.2-3.2V563.8z"/>
	<path d="M963,403.5h-3h-3V427c-1-0.9-2-1.7-3-2.5v-21h-0.5l-2.5,6.4v-6.4h-3V420c-1-0.7-2-1.4-3-2v7.3l-3,7.7v-29.4h-3v10.8
		c-1-0.6-2-1.1-3-1.6v35.6l-3,7.7v88.5l3-8.1v27.5h-3V595h3v-30h3v-33.1h-3v-74.3c1,1.3,2,2.6,3,3.9v-27.2h3v85.7l3-8.1v-40.9
		c1.1,2,2.1,4,3,6.1v-42.9h3v61.4l3-8.1v3.9l3-0.6v-56.6h3v36.8c1-2.9,2-5.8,3-8.5v27.1l3-0.6v-53.3c-1-1.1-2-2.2-3-3.2V403.5z"/>
	<path d="M969,445c0.8-2.5,1.6-5,2.5-7.5h0.4c0,0.1,0.1,0.3,0.1,0.4v-34.4h-3h-3v30.8h3V445z"/>
	<path d="M882,586.2l-3,7.7v82.6h3v4.5c1,0,2-0.1,3-0.2V651c-1,0-2,0.1-3,0.1V586.2z"/>
	<path d="M864,632.2l-3,7.7v36.6h3v4.4c1,0.1,2,0.1,3,0.1v-30.2c-1-0.1-2-0.1-3-0.2V632.2z"/>
	<path d="M873,609.2l-3,7.7v59.6h3v4.7c0.6,0,1.2,0,1.8,0c0.4,0,0.8,0,1.2,0v-30c-1,0-2,0-3-0.1V609.2z"/>
	<polygon points="1683,554.4 1683,522.8 1680,522.8 1677,522.8 1677,554.4 1680,554.4 	"/>
	<polygon points="1692,554.4 1692,522.8 1689,522.8 1686,522.8 1686,554.4 1689,554.4 	"/>
	<polygon points="1674,554.4 1674,522.8 1671,522.8 1668,522.8 1668,554.4 1671,554.4 	"/>
	<polygon points="1665,554.4 1665,522.8 1662,522.8 1659,522.8 1659,554.4 1662,554.4 	"/>
	<path d="M1665,433.8c1-0.3,2-0.6,3-0.8v-31.8c-1,0.2-2,0.4-3,0.6v1.7h-3v31.6h3V433.8z"/>
	<path d="M1674,431.7c1-0.2,2-0.4,3-0.5v-31.3c-1,0.1-2,0.2-3,0.4v3.2h-3v31.6h3V431.7z"/>
	<path d="M1683,430.4c1-0.1,2-0.2,3-0.3v-30.9c-1,0.1-2,0.1-3,0.2v4.2h-3v31.6h3V430.4z"/>
	<path d="M1692,429.7c1,0,2-0.1,3-0.1v-30.8c-1,0-2,0-3,0v4.6h-3v31.6h3V429.7z"/>
	<path d="M1701,429.7c1,0,2,0.1,3,0.2V399c-1,0-2-0.1-3-0.1v4.6h-3v31.6h3V429.7z"/>
	<path d="M1719,432.4c1,0.3,2,0.6,3,0.9V401c-1-0.2-2-0.3-3-0.5v3h-3v31.6h3V432.4z"/>
	<path d="M1710,430.6c1,0.1,2,0.3,3,0.5v-31.3c-1-0.1-2-0.2-3-0.3v4.1h-3v31.6h3V430.6z"/>
	<path d="M1728,644.9h-3v31.6h3v0.9c1-0.3,2-0.5,3-0.8v-29.7c-1,0.3-2,0.6-3,0.9V644.9z"/>
	<path d="M1701,644.9h-3v31.6h3v4.6c1,0,2-0.1,3-0.1v-29.9c-1,0-2,0-3,0.1V644.9z"/>
	<path d="M1710,644.9h-3v31.6h3v4c1-0.1,2-0.2,3-0.3v-29.7c-1,0.1-2,0.2-3,0.3V644.9z"/>
	<path d="M1719,644.9h-3v31.6h3v2.8c1-0.2,2-0.4,3-0.6v-29.6c-1,0.2-2,0.4-3,0.5V644.9z"/>
	<rect x="1779" y="644.9" width="3" height="31.6"/>
	<path d="M1656,437c1-0.4,2-0.8,3-1.2v-32.7c-1,0.3-2,0.5-3,0.8v-0.4h-3v119.3h-3v31.6h3v122.1h3v0.1c1,0.2,2,0.5,3,0.7v-31.9
		c-1-0.3-2-0.7-3-1.1V437z"/>
	<path d="M1692,644.9h-3v31.6h3v4.6c1,0,2,0,3,0v-30.1c-1,0-2-0.1-3-0.1V644.9z"/>
	<path d="M1674,644.9h-3v31.6h3v3.4c1,0.1,2,0.2,3,0.3v-30.6c-1-0.1-2-0.3-3-0.5V644.9z"/>
	<path d="M1683,644.9h-3v31.6h3v4.2c1,0.1,2,0.1,3,0.2v-30.3c-1-0.1-2-0.2-3-0.3V644.9z"/>
	<path d="M1665,644.9h-3v31.6h3v2c1,0.2,2,0.4,3,0.5v-31.1c-1-0.2-2-0.5-3-0.7V644.9z"/>
	<path d="M1647,441.4c1-0.6,2-1.1,3-1.6v-34.1c-1,0.3-2,0.7-3,1v-3.3h-3h-3v5.6c-1,0.4-2,0.9-3,1.3v-6.9h-3h-3v9.8
		c-1,0.5-2,1.1-3,1.6v-11.4h-2.7v273h2.7v-10c1,0.5,2,1,3,1.5v8.5h3h3v-5.8c1,0.4,2,0.8,3,1.2v4.6h3h3V674c1,0.3,2,0.6,3,0.9v-33.2
		c-1-0.5-2-1-3-1.5V441.4z M1632,628.8c-1-1.1-2-2.2-3-3.4V456.5c1-1.2,2-2.3,3-3.4V628.8z M1641,636.5c-1-0.7-2-1.5-3-2.2V447.7
		c1-0.8,2-1.6,3-2.3V636.5z"/>
	<path d="M270,423.8l-3-4.8v58.2c1,1.9,2,3.7,3,5.6V423.8z"/>
	<path d="M261,409.4l-3-4.8v55.7c1,1.9,2,3.8,3,5.7V409.4z"/>
	<polygon points="693,403.5 690,403.5 687,403.5 687,480.9 684,483.9 684,521 687,518 687,562.2 684,559.1 684,596.4 687,599.4 
		687,676.5 690,676.5 690,434.3 693,434.3 	"/>
	<polygon points="234,403.5 231,403.5 231,446.4 228,438.7 228,527.5 231,535.5 231,563.8 228,563.8 228,595 231,595 231,676.5 
		234,676.5 237,676.5 237,645.7 234,645.7 	"/>
	<polygon points="252,403.5 249,403.5 249,492.5 246,484.8 246,595 249,595 249,676.5 252,676.5 255,676.5 255,645.7 252,645.7 	"/>
	<polygon points="243,403.5 240,403.5 240,469.5 237,461.8 237,551.6 240,559.6 240,563.8 237,563.8 237,595 240,595 240,676.5 
		243,676.5 246,676.5 246,645.7 243,645.7 	"/>
	<path d="M342,539.7l-3-4.8v62.6l3,4.9v54.4c1,0.8,2,1.5,3,2.2v-54.8c-1.1-2.6-2.1-5.3-3-8.1V539.7z"/>
	<polygon points="756,403.5 753,403.5 750,403.5 750,434.3 753,434.3 756,434.3 	"/>
	<polygon points="747,403.5 744,403.5 741,403.5 741,434.3 744,434.3 747,434.3 	"/>
	<polygon points="711,403.5 708,403.5 705,403.5 705,434.3 708,434.3 711,434.3 	"/>
	<polygon points="702,403.5 699,403.5 696,403.5 696,434.3 699,434.3 702,434.3 	"/>
	<polygon points="225,403.5 222,403.5 222,423.3 219,415.6 219,503.5 222,511.5 222,563.8 219,563.8 219,595 222,595 222,676.5 
		225,676.5 228,676.5 228,645.7 225,645.7 	"/>
	<path d="M279,438.3l-3-4.8v60.2c1,1.9,2,3.7,3,5.4V438.3z"/>
	<path d="M1188,403.5h-3h-3v31.6h3v87.8h-3v31.6h3v90.5h-3v-3.4c-1,0.5-2,1-3,1.4V403.5h-3h-3v31.6h3v87.8h-3v31.6h3v90.5h-3v0.4
		c-1,0.3-2,0.7-3,1V403.5h-3h-3v244.3c-1,0.2-2,0.4-3,0.6V403.5h-3h-3v245.8c-1,0.1-2,0.2-3,0.3V403.5h-3h-3v246.4
		c-0.9,0-1.8,0-2.7,0c-0.1,0-0.2,0-0.3,0v31.2c0.1,0,0.2,0,0.3,0c0.9,0,1.8,0,2.7,0v-4.6h3V434.3h1.7v242.2h1.3v4.5c1,0,2-0.1,3-0.1
		v-4.3h3h3v3.9c1-0.1,2-0.2,3-0.3v-3.6h3h3v2.8c1-0.2,2-0.3,3-0.5v-2.3h3h3v1.2c1-0.2,2-0.5,3-0.7v-0.4h3h1.2V434.3h1.8V403.5z"/>
	<polygon points="1095,676.5 1097.4,676.5 1095,670.3 	"/>
	<path d="M1338,482.1c-1.1,3.3-2.1,6.7-3,10.1v98.3c0.9,3.6,1.9,7,3,10.4v75.6h1.3v-273h-1.3V482.1z"/>
	<polygon points="1599,406 1599.9,403.5 1599,403.5 	"/>
	<polygon points="162,403.5 159,403.5 159,449.1 156,456.7 156,545.2 159,537.1 159,563.8 156,563.8 156,595 159,595 159,676.5 
		162,676.5 165,676.5 165,645.7 162,645.7 	"/>
	<path d="M387,616.4c-1-1.9-2-3.7-3-5.6v59.8l3,4.9v1.7c1,0.2,2,0.4,3,0.7v-31.6c-1-0.3-2-0.6-3-1V616.4z"/>
	<path d="M153,403.5h-3v68.6l-3,7.7v-76.2h-3h-3V495l-3,7.7v-99.2h-3h-3V518l-3,7.7V403.5h-3v273h3v-57.8l3-8v65.9h3h3V595h3v81.5h3
		h3V595h3v81.5h3h3v-30.8h-3V403.5z M150,563.8h-0.9l0.9-2.3V563.8z"/>
	<path d="M288,452.8l-3-4.8v61.6c0.4,0.7,0.8,1.4,1.2,2l1.8,2.9V452.8z"/>
	<rect x="1131" y="403.5" width="3" height="30.8"/>
	<path d="M1143,403.5h-3h-3v246.3c-1-0.1-2-0.1-3-0.2v31.4c1,0,2,0.1,3,0.1v-4.6h3V434.3h3V403.5z"/>
	<polygon points="1107,403.5 1104,403.5 1101,403.5 1101,434.3 1104,434.3 1107,434.3 	"/>
	<polygon points="1098,434.3 1098,403.5 1095,403.5 1092,403.5 1092,434.3 1095,434.3 	"/>
	<rect x="1113" y="403.5" width="3" height="30.8"/>
	<polygon points="1206,403.5 1203,403.5 1200,403.5 1200,435.1 1203,435.1 1203,434.3 1206,434.3 	"/>
	<polygon points="1197,403.5 1194,403.5 1191,403.5 1191,435.1 1194,435.1 1194,434.3 1197,434.3 	"/>
	<rect x="1122" y="403.5" width="3" height="30.8"/>
	<polygon points="1032,601.4 1035,609.3 1035,516.4 1032,508.7 	"/>
	<polygon points="1089,434.3 1089,403.5 1086,403.5 1083,403.5 1083,434.3 1086,434.3 	"/>
	<polygon points="1080,434.3 1080,403.5 1077,403.5 1074,403.5 1074,434.3 1077,434.3 	"/>
	<polygon points="1023,595 1026,595 1026,493.3 1023,485.6 	"/>
	<polygon points="684,403.5 681,403.5 678,403.5 678,489.9 675,492.9 675,530 678,527 678,553.1 675,550.1 675,587.4 678,590.4 
		678,676.5 681,676.5 681,434.3 684,434.3 	"/>
	<polygon points="630,403.5 627,403.5 624,403.5 624,434.3 627,434.3 630,434.3 	"/>
	<polygon points="612,403.5 609,403.5 606,403.5 606,434.3 609,434.3 612,434.3 	"/>
	<polygon points="621,403.5 618,403.5 615,403.5 615,434.3 618,434.3 621,434.3 	"/>
	<polygon points="603,403.5 600,403.5 597,403.5 597,434.3 600,434.3 603,434.3 	"/>
	<polygon points="594,403.5 591,403.5 588,403.5 588,434.3 591,434.3 594,434.3 	"/>
	<polygon points="585,403.5 582,403.5 579,403.5 579,434.3 582,434.3 585,434.3 	"/>
	<polygon points="648,403.5 645,403.5 642,403.5 642,434.3 645,434.3 645,676.5 648,676.5 648,560.4 651,563.4 651,516.9 648,519.9 
			"/>
	<path d="M675,403.5h-3h-3v95.4l-3,3v-98.4h-3h-3v104.4l-3,3V403.5h-3h-3v30.8h3v242.2h3V569.4l3,3v104.1h3h3v-98.1l3,3v95.1h3
		V434.3h3V403.5z M669,544l-3-3v-2l3-3V544z"/>
	<polygon points="639,403.5 636,403.5 633,403.5 633,434.3 636,434.3 636,676.5 639,676.5 639,566 642,563 642,517.4 639,514.4 	"/>
	<polygon points="576,403.5 573,403.5 570,403.5 570,434.3 573,434.3 576,434.3 	"/>
	<rect x="546" y="403.5" width="3" height="30.8"/>
	<rect x="564" y="403.5" width="3" height="30.8"/>
	<path d="M792,486.1c0.9-2.8,1.9-5.5,3-8.1v-54.8c-1,0.8-2,1.5-3,2.3v-22h-3v134.9h-3v26.1h3v111.9h3v-20c1,0.8,2,1.5,3,2.2v-55.3
		c-1.1-2.7-2.1-5.5-3-8.4V486.1z"/>
	<rect x="555" y="403.5" width="3" height="30.8"/>
	<path d="M819,445.8c1-0.7,2-1.4,3-2.1v-35.6c-1,0.4-2,0.8-3,1.2v-5.8h-3v134.9h-3v26.1h3v111.9h3v-4.9c1,0.4,2,0.8,3,1.1v-34.7
		c-1-0.6-2-1.3-3-2V445.8z"/>
	<path d="M801,466c1-1.6,2-3.2,3-4.7V417c-1,0.6-2,1.3-3,1.9v-15.4h-3v134.9h-3v26.1h3v111.9h3v-13.8c1,0.6,2,1.2,3,1.8v-43.9
		c-1-1.5-2-3.2-3-4.8V466z"/>
</g>
</svg>
