<?xml version="1.0" encoding="utf-8"?>
<!-- Generator: Adobe Illustrator 26.2.1, SVG Export Plug-In . SVG Version: 6.00 Build 0)  -->
<svg version="1.1" id="Layer_1" xmlns="http://www.w3.org/2000/svg" xmlns:xlink="http://www.w3.org/1999/xlink" x="0px" y="0px"
	 viewBox="0 0 1920 1620" style="enable-background:new 0 0 1920 1620;" xml:space="preserve">
<style type="text/css">
	.st0{fill:#FFFFFF;}
</style>
<path class="st0" d="M4,810h2v270H4H2H0V810V540V270h2v270h2V810z M12,540h-2V270H8V0H6H4H2v270h2v270h2v270h2v270h2h2h2V810h-2V540
	z M20,540h-2V270h-2V0h-2h-2h-2v270h2v270h2v270h2v270h2h2h2V810h-2V540z M28,540h-2V270h-2V0h-2h-2h-2v270h2v270h2v270h2v270h2h2h2
	V810h-2V540z M36,540h-2V270h-2V0h-2h-2h-2v270h2v270h2v270h2v270h2h2h2V810h-2V540z M44,540h-2V270h-2V0h-2h-2h-2v270h2v270h2v270
	h2v270h2h2h2V810h-2V540z M52,540h-2V270h-2V0h-2h-2h-2v270h2v270h2v270h2v270h2h2h2V810h-2V540z M60,540h-2V270h-2V0h-2h-2h-2v270
	h2v270h2v270h2v270h2h2h2V810h-2V540z M68,540h-2V270h-2V0h-2h-2h-2v270h2v270h2v270h2v270h2h2h2V810h-2V540z M76,540h-2V270h-2V0
	h-2h-2h-2v270h2v270h2v270h2v270h2h2h2V810h-2V540z M84,540h-2V270h-2V0h-2h-2h-2v270h2v270h2v270h2v270h2h2h2V810h-2V540z M92,540
	h-2V270h-2V0h-2h-2h-2v270h2v270h2v270h2v270h2h2h2V810h-2V540z M100,540h-2V270h-2V0h-2h-2h-2v270h2v270h2v270h2v270h2h2h2V810h-2
	V540z M108,540h-2V270h-2V0h-2h-2h-2v270h2v270h2v270h2v270h2h2h2V810h-2V540z M116,540h-2V270h-2V0h-2h-2h-2v270h2v270h2v270h2v270
	h2h2h2V810h-2V540z M124,540h-2V270h-2V0h-2h-2h-2v270h2v270h2v270h2v270h2h2h2V810h-2V540z M132,540h-2V270h-2V0h-2h-2h-2v270h2
	v270h2v270h2v270h2h2h2V810h-2V540z M140,540h-2V270h-2V0h-2h-2h-2v270h2v270h2v270h2v270h2h2h2V810h-2V540z M148,540h-2V270h-2V0
	h-2h-2h-2v270h2v270h2v270h2v270h2h2h2V810h-2V540z M156,540h-2V270h-2V0h-2h-2h-2v270h2v270h2v270h2v270h2h2h2V810h-2V540z
	 M164,540h-2V270h-2V0h-2h-2h-2v270h2v270h2v270h2v270h2h2h2V810h-2V540z M172,540h-2V270h-2V0h-2h-2h-2v270h2v270h2v270h2v270h2h2
	h2V810h-2V540z M180,540h-2V270h-2V0h-2h-2h-2v270h2v270h2v270h2v270h2h2h2V810h-2V540z M188,540h-2V270h-2V0h-2h-2h-2v270h2v270h2
	v270h2v270h2h2h2V810h-2V540z M196,540h-2V270h-2V0h-2h-2h-2v270h2v270h2v270h2v270h2h2h2V810h-2V540z M204,540h-2V270h-2V0h-2h-2
	h-2v270h2v270h2v270h2v270h2h2h2V810h-2V540z M212,540h-2V270h-2V0h-2h-2h-2v270h2v270h2v270h2v270h2h2h2V810h-2V540z M220,540h-2
	V270h-2V0h-2h-2h-2v270h2v270h2v270h2v270h2h2h2V810h-2V540z M228,540h-2V270h-2V0h-2h-2h-2v270h2v270h2v270h2v270h2h2h2V810h-2V540
	z M236,540h-2V270h-2V0h-2h-2h-2v270h2v270h2v270h2v270h2h2h2V810h-2V540z M244,540h-2V270h-2V0h-2h-2h-2v270h2v270h2v270h2v270h2h2
	h2V810h-2V540z M252,540h-2V270h-2V0h-2h-2h-2v270h2v270h2v270h2v270h2h2h2V810h-2V540z M260,540h-2V270h-2V0h-2h-2h-2v270h2v270h2
	v270h2v270h2h2h2V810h-2V540z M268,540h-2V270h-2V0h-2h-2h-2v270h2v270h2v270h2v270h2h2h2V810h-2V540z M276,540h-2V270h-2V0h-2h-2
	h-2v270h2v270h2v270h2v270h2h2h2V810h-2V540z M284,540h-2V270h-2V0h-2h-2h-2v270h2v270h2v270h2v270h2h2h2V810h-2V540z M292,540h-2
	V270h-2V0h-2h-2h-2v270h2v270h2v270h2v270h2h2h2V810h-2V540z M300,540h-2V270h-2V0h-2h-2h-2v270h2v270h2v270h2v270h2h2h2V810h-2V540
	z M308,540h-2V270h-2V0h-2h-2h-2v270h2v270h2v270h2v270h2h2h2V810h-2V540z M316,540h-2V270h-2V0h-2h-2h-2v270h2v270h2v270h2v270h2h2
	h2V810h-2V540z M324,540h-2V270h-2V0h-2h-2h-2v270h2v270h2v270h2v270h2h2h2V810h-2V540z M332,540h-2V270h-2V0h-2h-2h-2v270h2v270h2
	v270h2v270h2h2h2V810h-2V540z M340,540h-2V270h-2V0h-2h-2h-2v270h2v270h2v270h2v270h2h2h2V810h-2V540z M348,540h-2V270h-2V0h-2h-2
	h-2v270h2v270h2v270h2v270h2h2h2V810h-2V540z M356,540h-2V270h-2V0h-2h-2h-2v270h2v270h2v270h2v270h2h2h2V810h-2V540z M364,540h-2
	V270h-2V0h-2h-2h-2v270h2v270h2v270h2v270h2h2h2V810h-2V540z M372,540h-2V270h-2V0h-2h-2h-2v270h2v270h2v270h2v270h2h2h2V810h-2V540
	z M380,540h-2V270h-2V0h-2h-2h-2v270h2v270h2v270h2v270h2h2h2V810h-2V540z M388,540h-2V270h-2V0h-2h-2h-2v270h2v270h2v270h2v270h2h2
	h2V810h-2V540z M396,540h-2V270h-2V0h-2h-2h-2v270h2v270h2v270h2v270h2h2h2V810h-2V540z M404,540h-2V270h-2V0h-2h-2h-2v270h2v270h2
	v270h2v270h2h2h2V810h-2V540z M412,540h-2V270h-2V0h-2h-2h-2v270h2v270h2v270h2v270h2h2h2V810h-2V540z M420,540h-2V270h-2V0h-2h-2
	h-2v270h2v270h2v270h2v270h2h2h2V810h-2V540z M428,540h-2V270h-2V0h-2h-2h-2v270h2v270h2v270h2v270h2h2h2V810h-2V540z M436,540h-2
	V270h-2V0h-2h-2h-2v270h2v270h2v270h2v270h2h2h2V810h-2V540z M444,540h-2V270h-2V0h-2h-2h-2v270h2v270h2v270h2v270h2h2h2V810h-2V540
	z M452,540h-2V270h-2V0h-2h-2h-2v270h2v270h2v270h2v270h2h2h2V810h-2V540z M460,540h-2V270h-2V0h-2h-2h-2v270h2v270h2v270h2v270h2h2
	h2V810h-2V540z M468,540h-2V270h-2V0h-2h-2h-2v270h2v270h2v270h2v270h2h2h2V810h-2V540z M476,540h-2V270h-2V0h-2h-2h-2v270h2v270h2
	v270h2v270h2h2h2V810h-2V540z M484,540h-2V270h-2V0h-2h-2h-2v270h2v270h2v270h2v270h2h2h2V810h-2V540z M492,540h-2V270h-2V0h-2h-2
	h-2v270h2v270h2v270h2v270h2h2h2V810h-2V540z M500,540h-2V270h-2V0h-2h-2h-2v270h2v270h2v270h2v270h2h2h2V810h-2V540z M508,540h-2
	V270h-2V0h-2h-2h-2v270h2v270h2v270h2v270h2h2h2V810h-2V540z M516,540h-2V270h-2V0h-2h-2h-2v270h2v270h2v270h2v270h2h2h2V810h-2V540
	z M524,540h-2V270h-2V0h-2h-2h-2v270h2v270h2v270h2v270h2h2h2V810h-2V540z M532,540h-2V270h-2V0h-2h-2h-2v270h2v270h2v270h2v270h2h2
	h2V810h-2V540z M540,540h-2V270h-2V0h-2h-2h-2v270h2v270h2v270h2v270h2h2h2V810h-2V540z M548,540h-2V270h-2V0h-2h-2h-2v270h2v270h2
	v270h2v270h2h2h2V810h-2V540z M556,540h-2V270h-2V0h-2h-2h-2v270h2v270h2v270h2v270h2h2h2V810h-2V540z M564,540h-2V270h-2V0h-2h-2
	h-2v270h2v270h2v270h2v270h2h2h2V810h-2V540z M572,540h-2V270h-2V0h-2h-2h-2v270h2v270h2v270h2v270h2h2h2V810h-2V540z M580,540h-2
	V270h-2V0h-2h-2h-2v270h2v270h2v270h2v270h2h2h2V810h-2V540z M588,540h-2V270h-2V0h-2h-2h-2v270h2v270h2v270h2v270h2h2h2V810h-2V540
	z M596,540h-2V270h-2V0h-2h-2h-2v270h2v270h2v270h2v270h2h2h2V810h-2V540z M604,540h-2V270h-2V0h-2h-2h-2v270h2v270h2v270h2v270h2h2
	h2V810h-2V540z M612,540h-2V270h-2V0h-2h-2h-2v270h2v270h2v270h2v270h2h2h2V810h-2V540z M620,540h-2V270h-2V0h-2h-2h-2v270h2v270h2
	v270h2v270h2h2h2V810h-2V540z M628,540h-2V270h-2V0h-2h-2h-2v270h2v270h2v270h2v270h2h2h2V810h-2V540z M636,540h-2V270h-2V0h-2h-2
	h-2v270h2v270h2v270h2v270h2h2h2V810h-2V540z M644,540h-2V270h-2V0h-2h-2h-2v270h2v270h2v270h2v270h2h2h2V810h-2V540z M652,540h-2
	V270h-2V0h-2h-2h-2v270h2v270h2v270h2v270h2h2h2V810h-2V540z M660,540h-2V270h-2V0h-2h-2h-2v270h2v270h2v270h2v270h2h2h2V810h-2V540
	z M668,540h-2V270h-2V0h-2h-2h-2v270h2v270h2v270h2v270h2h2h2V810h-2V540z M676,540h-2V270h-2V0h-2h-2h-2v270h2v270h2v270h2v270h2h2
	h2V810h-2V540z M684,540h-2V270h-2V0h-2h-2h-2v270h2v270h2v270h2v270h2h2h2V810h-2V540z M692,540h-2V270h-2V0h-2h-2h-2v270h2v270h2
	v270h2v270h2h2h2V810h-2V540z M700,540h-2V270h-2V0h-2h-2h-2v270h2v270h2v270h2v270h2h2h2V810h-2V540z M708,540h-2V270h-2V0h-2h-2
	h-2v270h2v270h2v270h2v270h2h2h2V810h-2V540z M716,540h-2V270h-2V0h-2h-2h-2v270h2v270h2v270h2v270h2h2h2V810h-2V540z M724,540h-2
	V270h-2V0h-2h-2h-2v270h2v270h2v270h2v270h2h2h2V810h-2V540z M732,540h-2V270h-2V0h-2h-2h-2v270h2v270h2v270h2v270h2h2h2V810h-2V540
	z M740,540h-2V270h-2V0h-2h-2h-2v270h2v270h2v270h2v270h2h2h2V810h-2V540z M748,540h-2V270h-2V0h-2h-2h-2v270h2v270h2v270h2v270h2h2
	h2V810h-2V540z M756,540h-2V270h-2V0h-2h-2h-2v270h2v270h2v270h2v270h2h2h2V810h-2V540z M764,540h-2V270h-2V0h-2h-2h-2v270h2v270h2
	v270h2v270h2h2h2V810h-2V540z M772,540h-2V270h-2V0h-2h-2h-2v270h2v270h2v270h2v270h2h2h2V810h-2V540z M780,540h-2V270h-2V0h-2h-2
	h-2v270h2v270h2v270h2v270h2h2h2V810h-2V540z M788,540h-2V270h-2V0h-2h-2h-2v270h2v270h2v270h2v270h2h2h2V810h-2V540z M796,540h-2
	V270h-2V0h-2h-2h-2v270h2v270h2v270h2v270h2h2h2V810h-2V540z M804,540h-2V270h-2V0h-2h-2h-2v270h2v270h2v270h2v270h2h2h2V810h-2V540
	z M812,540h-2V270h-2V0h-2h-2h-2v270h2v270h2v270h2v270h2h2h2V810h-2V540z M820,540h-2V270h-2V0h-2h-2h-2v270h2v270h2v270h2v270h2h2
	h2V810h-2V540z M828,540h-2V270h-2V0h-2h-2h-2v270h2v270h2v270h2v270h2h2h2V810h-2V540z M836,540h-2V270h-2V0h-2h-2h-2v270h2v270h2
	v270h2v270h2h2h2V810h-2V540z M844,540h-2V270h-2V0h-2h-2h-2v270h2v270h2v270h2v270h2h2h2V810h-2V540z M852,540h-2V270h-2V0h-2h-2
	h-2v270h2v270h2v270h2v270h2h2h2V810h-2V540z M860,540h-2V270h-2V0h-2h-2h-2v270h2v270h2v270h2v270h2h2h2V810h-2V540z M868,540h-2
	V270h-2V0h-2h-2h-2v270h2v270h2v270h2v270h2h2h2V810h-2V540z M876,540h-2V270h-2V0h-2h-2h-2v270h2v270h2v270h2v270h2h2h2V810h-2V540
	z M884,540h-2V270h-2V0h-2h-2h-2v270h2v270h2v270h2v270h2h2h2V810h-2V540z M892,540h-2V270h-2V0h-2h-2h-2v270h2v270h2v270h2v270h2h2
	h2V810h-2V540z M900,540h-2V270h-2V0h-2h-2h-2v270h2v270h2v270h2v270h2h2h2V810h-2V540z M908,540h-2V270h-2V0h-2h-2h-2v270h2v270h2
	v270h2v270h2h2h2V810h-2V540z M916,540h-2V270h-2V0h-2h-2h-2v270h2v270h2v270h2v270h2h2h2V810h-2V540z M924,540h-2V270h-2V0h-2h-2
	h-2v270h2v270h2v270h2v270h2h2h2V810h-2V540z M932,540h-2V270h-2V0h-2h-2h-2v270h2v270h2v270h2v270h2h2h2V810h-2V540z M940,540h-2
	V270h-2V0h-2h-2h-2v270h2v270h2v270h2v270h2h2h2V810h-2V540z M948,540h-2V270h-2V0h-2h-2h-2v270h2v270h2v270h2v270h2h2h2V810h-2V540
	z M956,540h-2V270h-2V0h-2h-2h-2v270h2v270h2v270h2v270h2h2h2V810h-2V540z M964,540h-2V270h-2V0h-2h-2h-2v270h2v270h2v270h2v270h2h2
	h2V810h-2V540z M972,540h-2V270h-2V0h-2h-2h-2v270h2v270h2v270h2v270h2h2h2V810h-2V540z M980,540h-2V270h-2V0h-2h-2h-2v270h2v270h2
	v270h2v270h2h2h2V810h-2V540z M988,540h-2V270h-2V0h-2h-2h-2v270h2v270h2v270h2v270h2h2h2V810h-2V540z M996,540h-2V270h-2V0h-2h-2
	h-2v270h2v270h2v270h2v270h2h2h2V810h-2V540z M1004,540h-2V270h-2V0h-2h-2h-2v270h2v270h2v270h2v270h2h2h2V810h-2V540z M1012,540h-2
	V270h-2V0h-2h-2h-2v270h2v270h2v270h2v270h2h2h2V810h-2V540z M1020,540h-2V270h-2V0h-2h-2h-2v270h2v270h2v270h2v270h2h2h2V810h-2
	V540z M1028,540h-2V270h-2V0h-2h-2h-2v270h2v270h2v270h2v270h2h2h2V810h-2V540z M1036,540h-2V270h-2V0h-2h-2h-2v270h2v270h2v270h2
	v270h2h2h2V810h-2V540z M1044,540h-2V270h-2V0h-2h-2h-2v270h2v270h2v270h2v270h2h2h2V810h-2V540z M1052,540h-2V270h-2V0h-2h-2h-2
	v270h2v270h2v270h2v270h2h2h2V810h-2V540z M1060,540h-2V270h-2V0h-2h-2h-2v270h2v270h2v270h2v270h2h2h2V810h-2V540z M1068,540h-2
	V270h-2V0h-2h-2h-2v270h2v270h2v270h2v270h2h2h2V810h-2V540z M1076,540h-2V270h-2V0h-2h-2h-2v270h2v270h2v270h2v270h2h2h2V810h-2
	V540z M1084,540h-2V270h-2V0h-2h-2h-2v270h2v270h2v270h2v270h2h2h2V810h-2V540z M1092,540h-2V270h-2V0h-2h-2h-2v270h2v270h2v270h2
	v270h2h2h2V810h-2V540z M1100,540h-2V270h-2V0h-2h-2h-2v270h2v270h2v270h2v270h2h2h2V810h-2V540z M1108,540h-2V270h-2V0h-2h-2h-2
	v270h2v270h2v270h2v270h2h2h2V810h-2V540z M1116,540h-2V270h-2V0h-2h-2h-2v270h2v270h2v270h2v270h2h2h2V810h-2V540z M1124,540h-2
	V270h-2V0h-2h-2h-2v270h2v270h2v270h2v270h2h2h2V810h-2V540z M1132,540h-2V270h-2V0h-2h-2h-2v270h2v270h2v270h2v270h2h2h2V810h-2
	V540z M1140,540h-2V270h-2V0h-2h-2h-2v270h2v270h2v270h2v270h2h2h2V810h-2V540z M1148,540h-2V270h-2V0h-2h-2h-2v270h2v270h2v270h2
	v270h2h2h2V810h-2V540z M1156,540h-2V270h-2V0h-2h-2h-2v270h2v270h2v270h2v270h2h2h2V810h-2V540z M1164,540h-2V270h-2V0h-2h-2h-2
	v270h2v270h2v270h2v270h2h2h2V810h-2V540z M1172,540h-2V270h-2V0h-2h-2h-2v270h2v270h2v270h2v270h2h2h2V810h-2V540z M1180,540h-2
	V270h-2V0h-2h-2h-2v270h2v270h2v270h2v270h2h2h2V810h-2V540z M1188,540h-2V270h-2V0h-2h-2h-2v270h2v270h2v270h2v270h2h2h2V810h-2
	V540z M1196,540h-2V270h-2V0h-2h-2h-2v270h2v270h2v270h2v270h2h2h2V810h-2V540z M1204,540h-2V270h-2V0h-2h-2h-2v270h2v270h2v270h2
	v270h2h2h2V810h-2V540z M1212,540h-2V270h-2V0h-2h-2h-2v270h2v270h2v270h2v270h2h2h2V810h-2V540z M1220,540h-2V270h-2V0h-2h-2h-2
	v270h2v270h2v270h2v270h2h2h2V810h-2V540z M1228,540h-2V270h-2V0h-2h-2h-2v270h2v270h2v270h2v270h2h2h2V810h-2V540z M1236,540h-2
	V270h-2V0h-2h-2h-2v270h2v270h2v270h2v270h2h2h2V810h-2V540z M1244,540h-2V270h-2V0h-2h-2h-2v270h2v270h2v270h2v270h2h2h2V810h-2
	V540z M1252,540h-2V270h-2V0h-2h-2h-2v270h2v270h2v270h2v270h2h2h2V810h-2V540z M1260,540h-2V270h-2V0h-2h-2h-2v270h2v270h2v270h2
	v270h2h2h2V810h-2V540z M1268,540h-2V270h-2V0h-2h-2h-2v270h2v270h2v270h2v270h2h2h2V810h-2V540z M1276,540h-2V270h-2V0h-2h-2h-2
	v270h2v270h2v270h2v270h2h2h2V810h-2V540z M1284,540h-2V270h-2V0h-2h-2h-2v270h2v270h2v270h2v270h2h2h2V810h-2V540z M1292,540h-2
	V270h-2V0h-2h-2h-2v270h2v270h2v270h2v270h2h2h2V810h-2V540z M1300,540h-2V270h-2V0h-2h-2h-2v270h2v270h2v270h2v270h2h2h2V810h-2
	V540z M1308,540h-2V270h-2V0h-2h-2h-2v270h2v270h2v270h2v270h2h2h2V810h-2V540z M1316,540h-2V270h-2V0h-2h-2h-2v270h2v270h2v270h2
	v270h2h2h2V810h-2V540z M1324,540h-2V270h-2V0h-2h-2h-2v270h2v270h2v270h2v270h2h2h2V810h-2V540z M1332,540h-2V270h-2V0h-2h-2h-2
	v270h2v270h2v270h2v270h2h2h2V810h-2V540z M1340,540h-2V270h-2V0h-2h-2h-2v270h2v270h2v270h2v270h2h2h2V810h-2V540z M1348,540h-2
	V270h-2V0h-2h-2h-2v270h2v270h2v270h2v270h2h2h2V810h-2V540z M1356,540h-2V270h-2V0h-2h-2h-2v270h2v270h2v270h2v270h2h2h2V810h-2
	V540z M1364,540h-2V270h-2V0h-2h-2h-2v270h2v270h2v270h2v270h2h2h2V810h-2V540z M1372,540h-2V270h-2V0h-2h-2h-2v270h2v270h2v270h2
	v270h2h2h2V810h-2V540z M1380,540h-2V270h-2V0h-2h-2h-2v270h2v270h2v270h2v270h2h2h2V810h-2V540z M1388,540h-2V270h-2V0h-2h-2h-2
	v270h2v270h2v270h2v270h2h2h2V810h-2V540z M1396,540h-2V270h-2V0h-2h-2h-2v270h2v270h2v270h2v270h2h2h2V810h-2V540z M1404,540h-2
	V270h-2V0h-2h-2h-2v270h2v270h2v270h2v270h2h2h2V810h-2V540z M1412,540h-2V270h-2V0h-2h-2h-2v270h2v270h2v270h2v270h2h2h2V810h-2
	V540z M1420,540h-2V270h-2V0h-2h-2h-2v270h2v270h2v270h2v270h2h2h2V810h-2V540z M1428,540h-2V270h-2V0h-2h-2h-2v270h2v270h2v270h2
	v270h2h2h2V810h-2V540z M1436,540h-2V270h-2V0h-2h-2h-2v270h2v270h2v270h2v270h2h2h2V810h-2V540z M1444,540h-2V270h-2V0h-2h-2h-2
	v270h2v270h2v270h2v270h2h2h2V810h-2V540z M1452,540h-2V270h-2V0h-2h-2h-2v270h2v270h2v270h2v270h2h2h2V810h-2V540z M1460,540h-2
	V270h-2V0h-2h-2h-2v270h2v270h2v270h2v270h2h2h2V810h-2V540z M1468,540h-2V270h-2V0h-2h-2h-2v270h2v270h2v270h2v270h2h2h2V810h-2
	V540z M1476,540h-2V270h-2V0h-2h-2h-2v270h2v270h2v270h2v270h2h2h2V810h-2V540z M1484,540h-2V270h-2V0h-2h-2h-2v270h2v270h2v270h2
	v270h2h2h2V810h-2V540z M1492,540h-2V270h-2V0h-2h-2h-2v270h2v270h2v270h2v270h2h2h2V810h-2V540z M1500,540h-2V270h-2V0h-2h-2h-2
	v270h2v270h2v270h2v270h2h2h2V810h-2V540z M1508,540h-2V270h-2V0h-2h-2h-2v270h2v270h2v270h2v270h2h2h2V810h-2V540z M1516,540h-2
	V270h-2V0h-2h-2h-2v270h2v270h2v270h2v270h2h2h2V810h-2V540z M1524,540h-2V270h-2V0h-2h-2h-2v270h2v270h2v270h2v270h2h2h2V810h-2
	V540z M1532,540h-2V270h-2V0h-2h-2h-2v270h2v270h2v270h2v270h2h2h2V810h-2V540z M1540,540h-2V270h-2V0h-2h-2h-2v270h2v270h2v270h2
	v270h2h2h2V810h-2V540z M1548,540h-2V270h-2V0h-2h-2h-2v270h2v270h2v270h2v270h2h2h2V810h-2V540z M1556,540h-2V270h-2V0h-2h-2h-2
	v270h2v270h2v270h2v270h2h2h2V810h-2V540z M1564,540h-2V270h-2V0h-2h-2h-2v270h2v270h2v270h2v270h2h2h2V810h-2V540z M1572,540h-2
	V270h-2V0h-2h-2h-2v270h2v270h2v270h2v270h2h2h2V810h-2V540z M1580,540h-2V270h-2V0h-2h-2h-2v270h2v270h2v270h2v270h2h2h2V810h-2
	V540z M1588,540h-2V270h-2V0h-2h-2h-2v270h2v270h2v270h2v270h2h2h2V810h-2V540z M1596,540h-2V270h-2V0h-2h-2h-2v270h2v270h2v270h2
	v270h2h2h2V810h-2V540z M1604,540h-2V270h-2V0h-2h-2h-2v270h2v270h2v270h2v270h2h2h2V810h-2V540z M1612,540h-2V270h-2V0h-2h-2h-2
	v270h2v270h2v270h2v270h2h2h2V810h-2V540z M1620,540h-2V270h-2V0h-2h-2h-2v270h2v270h2v270h2v270h2h2h2V810h-2V540z M1628,540h-2
	V270h-2V0h-2h-2h-2v270h2v270h2v270h2v270h2h2h2V810h-2V540z M1636,540h-2V270h-2V0h-2h-2h-2v270h2v270h2v270h2v270h2h2h2V810h-2
	V540z M1644,540h-2V270h-2V0h-2h-2h-2v270h2v270h2v270h2v270h2h2h2V810h-2V540z M1652,540h-2V270h-2V0h-2h-2h-2v270h2v270h2v270h2
	v270h2h2h2V810h-2V540z M1660,540h-2V270h-2V0h-2h-2h-2v270h2v270h2v270h2v270h2h2h2V810h-2V540z M1668,540h-2V270h-2V0h-2h-2h-2
	v270h2v270h2v270h2v270h2h2h2V810h-2V540z M1676,540h-2V270h-2V0h-2h-2h-2v270h2v270h2v270h2v270h2h2h2V810h-2V540z M1684,540h-2
	V270h-2V0h-2h-2h-2v270h2v270h2v270h2v270h2h2h2V810h-2V540z M1692,540h-2V270h-2V0h-2h-2h-2v270h2v270h2v270h2v270h2h2h2V810h-2
	V540z M1700,540h-2V270h-2V0h-2h-2h-2v270h2v270h2v270h2v270h2h2h2V810h-2V540z M1708,540h-2V270h-2V0h-2h-2h-2v270h2v270h2v270h2
	v270h2h2h2V810h-2V540z M1716,540h-2V270h-2V0h-2h-2h-2v270h2v270h2v270h2v270h2h2h2V810h-2V540z M1724,540h-2V270h-2V0h-2h-2h-2
	v270h2v270h2v270h2v270h2h2h2V810h-2V540z M1732,540h-2V270h-2V0h-2h-2h-2v270h2v270h2v270h2v270h2h2h2V810h-2V540z M1740,540h-2
	V270h-2V0h-2h-2h-2v270h2v270h2v270h2v270h2h2h2V810h-2V540z M1748,540h-2V270h-2V0h-2h-2h-2v270h2v270h2v270h2v270h2h2h2V810h-2
	V540z M1756,540h-2V270h-2V0h-2h-2h-2v270h2v270h2v270h2v270h2h2h2V810h-2V540z M1764,540h-2V270h-2V0h-2h-2h-2v270h2v270h2v270h2
	v270h2h2h2V810h-2V540z M1772,540h-2V270h-2V0h-2h-2h-2v270h2v270h2v270h2v270h2h2h2V810h-2V540z M1780,540h-2V270h-2V0h-2h-2h-2
	v270h2v270h2v270h2v270h2h2h2V810h-2V540z M1788,540h-2V270h-2V0h-2h-2h-2v270h2v270h2v270h2v270h2h2h2V810h-2V540z M1796,540h-2
	V270h-2V0h-2h-2h-2v270h2v270h2v270h2v270h2h2h2V810h-2V540z M1804,540h-2V270h-2V0h-2h-2h-2v270h2v270h2v270h2v270h2h2h2V810h-2
	V540z M1812,540h-2V270h-2V0h-2h-2h-2v270h2v270h2v270h2v270h2h2h2V810h-2V540z M1820,540h-2V270h-2V0h-2h-2h-2v270h2v270h2v270h2
	v270h2h2h2V810h-2V540z M1828,540h-2V270h-2V0h-2h-2h-2v270h2v270h2v270h2v270h2h2h2V810h-2V540z M1836,540h-2V270h-2V0h-2h-2h-2
	v270h2v270h2v270h2v270h2h2h2V810h-2V540z M1844,540h-2V270h-2V0h-2h-2h-2v270h2v270h2v270h2v270h2h2h2V810h-2V540z M1852,540h-2
	V270h-2V0h-2h-2h-2v270h2v270h2v270h2v270h2h2h2V810h-2V540z M1860,540h-2V270h-2V0h-2h-2h-2v270h2v270h2v270h2v270h2h2h2V810h-2
	V540z M1868,540h-2V270h-2V0h-2h-2h-2v270h2v270h2v270h2v270h2h2h2V810h-2V540z M1876,540h-2V270h-2V0h-2h-2h-2v270h2v270h2v270h2
	v270h2h2h2V810h-2V540z M1884,540h-2V270h-2V0h-2h-2h-2v270h2v270h2v270h2v270h2h2h2V810h-2V540z M1892,540h-2V270h-2V0h-2h-2h-2
	v270h2v270h2v270h2v270h2h2h2V810h-2V540z M1900,540h-2V270h-2V0h-2h-2h-2v270h2v270h2v270h2v270h2h2h2V810h-2V540z M1908,540h-2
	V270h-2V0h-2h-2h-2v270h2v270h2v270h2v270h2h2h2V810h-2V540z M1916,540h-2V270h-2V0h-2h-2h-2v270h2v270h2v270h2v270h2h2h2V810h-2
	V540z M1914,0v270h2v270h2v270h2V540V270V0H1914z M0,1620h6v-540H0V1620z M8,1620h6v-540H8V1620z M16,1620h6v-540h-6V1620z M24,1620
	h6v-540h-6V1620z M32,1620h6v-540h-6V1620z M40,1620h6v-540h-6V1620z M48,1620h6v-540h-6V1620z M56,1620h6v-540h-6V1620z M64,1620h6
	v-540h-6V1620z M72,1620h6v-540h-6V1620z M80,1620h6v-540h-6V1620z M88,1620h6v-540h-6V1620z M96,1620h6v-540h-6V1620z M104,1620h6
	v-540h-6V1620z M112,1620h6v-540h-6V1620z M120,1620h6v-540h-6V1620z M128,1620h6v-540h-6V1620z M136,1620h6v-540h-6V1620z
	 M144,1620h6v-540h-6V1620z M152,1620h6v-540h-6V1620z M160,1620h6v-540h-6V1620z M168,1620h6v-540h-6V1620z M176,1620h6v-540h-6
	V1620z M184,1620h6v-540h-6V1620z M192,1620h6v-540h-6V1620z M200,1620h6v-540h-6V1620z M208,1620h6v-540h-6V1620z M216,1620h6v-540
	h-6V1620z M224,1620h6v-540h-6V1620z M232,1620h6v-540h-6V1620z M240,1620h6v-540h-6V1620z M248,1620h6v-540h-6V1620z M256,1620h6
	v-540h-6V1620z M264,1620h6v-540h-6V1620z M272,1620h6v-540h-6V1620z M280,1620h6v-540h-6V1620z M288,1620h6v-540h-6V1620z
	 M296,1620h6v-540h-6V1620z M304,1620h6v-540h-6V1620z M312,1620h6v-540h-6V1620z M320,1620h6v-540h-6V1620z M328,1620h6v-540h-6
	V1620z M336,1620h6v-540h-6V1620z M344,1620h6v-540h-6V1620z M352,1620h6v-540h-6V1620z M360,1620h6v-540h-6V1620z M368,1620h6v-540
	h-6V1620z M376,1620h6v-540h-6V1620z M384,1620h6v-540h-6V1620z M392,1620h6v-540h-6V1620z M400,1620h6v-540h-6V1620z M408,1620h6
	v-540h-6V1620z M416,1620h6v-540h-6V1620z M424,1620h6v-540h-6V1620z M432,1620h6v-540h-6V1620z M440,1620h6v-540h-6V1620z
	 M448,1620h6v-540h-6V1620z M456,1620h6v-540h-6V1620z M464,1620h6v-540h-6V1620z M472,1620h6v-540h-6V1620z M480,1620h6v-540h-6
	V1620z M488,1620h6v-540h-6V1620z M496,1620h6v-540h-6V1620z M504,1620h6v-540h-6V1620z M512,1620h6v-540h-6V1620z M520,1620h6v-540
	h-6V1620z M528,1620h6v-540h-6V1620z M536,1620h6v-540h-6V1620z M544,1620h6v-540h-6V1620z M552,1620h6v-540h-6V1620z M560,1620h6
	v-540h-6V1620z M568,1620h6v-540h-6V1620z M576,1620h6v-540h-6V1620z M584,1620h6v-540h-6V1620z M592,1620h6v-540h-6V1620z
	 M600,1620h6v-540h-6V1620z M608,1620h6v-540h-6V1620z M616,1620h6v-540h-6V1620z M624,1620h6v-540h-6V1620z M632,1620h6v-540h-6
	V1620z M640,1620h6v-540h-6V1620z M648,1620h6v-540h-6V1620z M656,1620h6v-540h-6V1620z M664,1620h6v-540h-6V1620z M672,1620h6v-540
	h-6V1620z M680,1620h6v-540h-6V1620z M688,1620h6v-540h-6V1620z M696,1620h6v-540h-6V1620z M704,1620h6v-540h-6V1620z M712,1620h6
	v-540h-6V1620z M720,1620h6v-540h-6V1620z M728,1620h6v-540h-6V1620z M736,1620h6v-540h-6V1620z M744,1620h6v-540h-6V1620z
	 M752,1620h6v-540h-6V1620z M760,1620h6v-540h-6V1620z M768,1620h6v-540h-6V1620z M776,1620h6v-540h-6V1620z M784,1620h6v-540h-6
	V1620z M792,1620h6v-540h-6V1620z M800,1620h6v-540h-6V1620z M808,1620h6v-540h-6V1620z M816,1620h6v-540h-6V1620z M824,1620h6v-540
	h-6V1620z M832,1620h6v-540h-6V1620z M840,1620h6v-540h-6V1620z M848,1620h6v-540h-6V1620z M856,1620h6v-540h-6V1620z M864,1620h6
	v-540h-6V1620z M872,1620h6v-540h-6V1620z M880,1620h6v-540h-6V1620z M888,1620h6v-540h-6V1620z M896,1620h6v-540h-6V1620z
	 M904,1620h6v-540h-6V1620z M912,1620h6v-540h-6V1620z M920,1620h6v-540h-6V1620z M928,1620h6v-540h-6V1620z M936,1620h6v-540h-6
	V1620z M944,1620h6v-540h-6V1620z M952,1620h6v-540h-6V1620z M960,1620h6v-540h-6V1620z M968,1620h6v-540h-6V1620z M976,1620h6v-540
	h-6V1620z M984,1620h6v-540h-6V1620z M992,1620h6v-540h-6V1620z M1000,1620h6v-540h-6V1620z M1008,1620h6v-540h-6V1620z M1016,1620
	h6v-540h-6V1620z M1024,1620h6v-540h-6V1620z M1032,1620h6v-540h-6V1620z M1040,1620h6v-540h-6V1620z M1048,1620h6v-540h-6V1620z
	 M1056,1620h6v-540h-6V1620z M1064,1620h6v-540h-6V1620z M1072,1620h6v-540h-6V1620z M1080,1620h6v-540h-6V1620z M1088,1620h6v-540
	h-6V1620z M1096,1620h6v-540h-6V1620z M1104,1620h6v-540h-6V1620z M1112,1620h6v-540h-6V1620z M1120,1620h6v-540h-6V1620z
	 M1128,1620h6v-540h-6V1620z M1136,1620h6v-540h-6V1620z M1144,1620h6v-540h-6V1620z M1152,1620h6v-540h-6V1620z M1160,1620h6v-540
	h-6V1620z M1168,1620h6v-540h-6V1620z M1176,1620h6v-540h-6V1620z M1184,1620h6v-540h-6V1620z M1192,1620h6v-540h-6V1620z
	 M1200,1620h6v-540h-6V1620z M1208,1620h6v-540h-6V1620z M1216,1620h6v-540h-6V1620z M1224,1620h6v-540h-6V1620z M1232,1620h6v-540
	h-6V1620z M1240,1620h6v-540h-6V1620z M1248,1620h6v-540h-6V1620z M1256,1620h6v-540h-6V1620z M1264,1620h6v-540h-6V1620z
	 M1272,1620h6v-540h-6V1620z M1280,1620h6v-540h-6V1620z M1288,1620h6v-540h-6V1620z M1296,1620h6v-540h-6V1620z M1304,1620h6v-540
	h-6V1620z M1312,1620h6v-540h-6V1620z M1320,1620h6v-540h-6V1620z M1328,1620h6v-540h-6V1620z M1336,1620h6v-540h-6V1620z
	 M1344,1620h6v-540h-6V1620z M1352,1620h6v-540h-6V1620z M1360,1620h6v-540h-6V1620z M1368,1620h6v-540h-6V1620z M1376,1620h6v-540
	h-6V1620z M1384,1620h6v-540h-6V1620z M1392,1620h6v-540h-6V1620z M1400,1620h6v-540h-6V1620z M1408,1620h6v-540h-6V1620z
	 M1416,1620h6v-540h-6V1620z M1424,1620h6v-540h-6V1620z M1432,1620h6v-540h-6V1620z M1440,1620h6v-540h-6V1620z M1448,1620h6v-540
	h-6V1620z M1456,1620h6v-540h-6V1620z M1464,1620h6v-540h-6V1620z M1472,1620h6v-540h-6V1620z M1480,1620h6v-540h-6V1620z
	 M1488,1620h6v-540h-6V1620z M1496,1620h6v-540h-6V1620z M1504,1620h6v-540h-6V1620z M1512,1620h6v-540h-6V1620z M1520,1620h6v-540
	h-6V1620z M1528,1620h6v-540h-6V1620z M1536,1620h6v-540h-6V1620z M1544,1620h6v-540h-6V1620z M1552,1620h6v-540h-6V1620z
	 M1560,1620h6v-540h-6V1620z M1568,1620h6v-540h-6V1620z M1576,1620h6v-540h-6V1620z M1584,1620h6v-540h-6V1620z M1592,1620h6v-540
	h-6V1620z M1600,1620h6v-540h-6V1620z M1608,1620h6v-540h-6V1620z M1616,1620h6v-540h-6V1620z M1624,1620h6v-540h-6V1620z
	 M1632,1620h6v-540h-6V1620z M1640,1620h6v-540h-6V1620z M1648,1620h6v-540h-6V1620z M1656,1620h6v-540h-6V1620z M1664,1620h6v-540
	h-6V1620z M1672,1620h6v-540h-6V1620z M1680,1620h6v-540h-6V1620z M1688,1620h6v-540h-6V1620z M1696,1620h6v-540h-6V1620z
	 M1704,1620h6v-540h-6V1620z M1712,1620h6v-540h-6V1620z M1720,1620h6v-540h-6V1620z M1728,1620h6v-540h-6V1620z M1736,1620h6v-540
	h-6V1620z M1744,1620h6v-540h-6V1620z M1752,1620h6v-540h-6V1620z M1760,1620h6v-540h-6V1620z M1768,1620h6v-540h-6V1620z
	 M1776,1620h6v-540h-6V1620z M1784,1620h6v-540h-6V1620z M1792,1620h6v-540h-6V1620z M1800,1620h6v-540h-6V1620z M1808,1620h6v-540
	h-6V1620z M1816,1620h6v-540h-6V1620z M1824,1620h6v-540h-6V1620z M1832,1620h6v-540h-6V1620z M1840,1620h6v-540h-6V1620z
	 M1848,1620h6v-540h-6V1620z M1856,1620h6v-540h-6V1620z M1864,1620h6v-540h-6V1620z M1872,1620h6v-540h-6V1620z M1880,1620h6v-540
	h-6V1620z M1888,1620h6v-540h-6V1620z M1896,1620h6v-540h-6V1620z M1904,1620h6v-540h-6V1620z M1912,1620h6v-540h-6V1620z"/>
</svg>
