<?xml version="1.0" encoding="utf-8"?>
<!-- Generator: Adobe Illustrator 26.2.1, SVG Export Plug-In . SVG Version: 6.00 Build 0)  -->
<svg version="1.1" id="Layer_1" xmlns="http://www.w3.org/2000/svg" xmlns:xlink="http://www.w3.org/1999/xlink" x="0px" y="0px"
	 viewBox="0 0 1920 1080" style="enable-background:new 0 0 1920 1080;" xml:space="preserve">
<g>
	<rect x="1631.5" y="78" width="18.8" height="6"/>
	<rect x="1363" y="150" width="18.6" height="6"/>
	<rect x="1234.8" y="150" width="18.6" height="6"/>
	<rect x="1631.5" y="150" width="94.6" height="6"/>
	<path d="M1763.6,126h-22c1,2.1,2.1,4.1,3.3,6h23.1c-0.8-0.9-1.6-1.9-2.4-2.9C1764.9,128.1,1764.2,127.1,1763.6,126z"/>
	<path d="M1845.2,120h22.1v-6h-20.4C1846.4,116.1,1845.9,118.1,1845.2,120z"/>
	<path d="M1847.9,108h19.4v-6h-18.9C1848.3,104.1,1848.2,106.1,1847.9,108z"/>
	<path d="M1749.1,138c1.7,2.1,3.6,4.2,5.6,6h39.6c-7.4-0.9-13.8-2.8-19-6H1749.1z"/>
	<rect x="1060.9" y="150" width="94.6" height="6"/>
	<path d="M58,132c-0.8-0.9-1.6-1.9-2.4-2.9c-0.7-1-1.4-2-2-3.1h-22c1,2.1,2.1,4.1,3.3,6H58z"/>
	<path d="M157.3,108v-6h-18.9c-0.1,2.1-0.2,4.1-0.5,6H157.3z"/>
	<path d="M157.3,132v-6h-24.8c-1.2,2.2-2.6,4.2-4.1,6H157.3z"/>
	<path d="M157.3,120v-6h-20.4c-0.5,2.1-1,4.1-1.7,6H157.3z"/>
	<rect x="94.9" y="90" width="62.4" height="6"/>
	<rect x="94.9" y="82.2" width="62.4" height="1.8"/>
	<rect x="1007.1" y="150" width="18.8" height="6"/>
	<rect x="914.4" y="150" width="19" height="6"/>
	<path d="M135.5,144c1.7-1.8,3.2-3.6,4.6-5.7l0.5,5.7h16.7v-6h-35.8c-4.7,3.1-10.3,5.1-16.8,6H135.5z"/>
	<rect x="767.9" y="150" width="18.6" height="6"/>
	<rect x="648" y="150" width="94.6" height="6"/>
	<path d="M45.3,96c-0.1-1.9-0.2-3.9-0.3-6H23.8c0.1,2,0.2,4,0.3,6H45.3z"/>
	<path d="M48.3,60c0.6-2.1,1.4-4.1,2.2-6H29.3c-0.7,1.9-1.4,3.9-2,6H48.3z"/>
	<path d="M53.5,48c0.7-1.1,1.4-2.2,2.1-3.2c0.7-1,1.5-1.9,2.3-2.8H35.1c-1.2,1.9-2.3,3.9-3.3,6H53.5z"/>
	<rect x="1631.5" y="66" width="18.8" height="6"/>
	<path d="M45.8,72c0.3-2.1,0.6-4.1,1-6h-21c-0.4,2-0.8,4-1,6H45.8z"/>
	<rect x="186.5" y="18" width="19" height="6"/>
	<rect x="281.9" y="18" width="19" height="6"/>
	<path d="M45,84c0-2.1,0.1-4.1,0.3-6H24.1c-0.2,2-0.2,4-0.3,6H45z"/>
	<path d="M50.6,120c-0.8-1.9-1.5-3.9-2.2-6H27.2c0.6,2.1,1.2,4.1,1.9,6H50.6z"/>
	<path d="M46.9,108c-0.4-1.9-0.7-3.9-1-6H24.8c0.3,2,0.6,4.1,1,6H46.9z"/>
	<rect x="186.5" y="78" width="19" height="6"/>
	<rect x="648" y="18" width="94.6" height="6"/>
	<polygon points="1381.7,24 1381.7,18 1353.1,18 1350.8,24 	"/>
	<path d="M1754.9,30c-2,1.9-3.8,3.9-5.5,6h25.7c4.4-2.8,9.5-4.8,15.2-6H1754.9z"/>
	<rect x="1631.5" y="30" width="18.8" height="6"/>
	<rect x="1631.5" y="54" width="18.8" height="6"/>
	<path d="M1760.4,54h-21.2c-0.7,1.9-1.4,3.9-2,6h21C1758.9,57.9,1759.6,55.9,1760.4,54z"/>
	<rect x="1007.1" y="18" width="18.8" height="6"/>
	<rect x="860.9" y="18" width="18.6" height="6"/>
	<path d="M212.9,132c-1.6-1.8-2.9-3.8-4-6h-20.6c0.5,2.1,1.2,4.1,1.9,6H212.9z"/>
	<rect x="1181.2" y="18" width="19" height="6"/>
	<rect x="1060.9" y="18" width="94.6" height="6"/>
	<rect x="1181.2" y="150" width="19" height="6"/>
	<path d="M1734.8,102c0.3,2,0.6,4.1,1,6h21.1c-0.4-1.9-0.7-3.9-1-6H1734.8z"/>
	<polygon points="1523.8,66 1517.7,72 1537.5,72 1543.7,66 	"/>
	<polygon points="1325.7,138 1290.7,138 1293.1,144 1323.3,144 	"/>
	<rect x="1363" y="138" width="18.6" height="6"/>
	<rect x="1631.5" y="126" width="18.8" height="6"/>
	<path d="M1758.4,114h-21.2c0.6,2.1,1.2,4.1,1.9,6h21.5C1759.8,118.1,1759.1,116.1,1758.4,114z"/>
	<polygon points="1511.5,78 1506.6,82.8 1501.7,78 1481.9,78 1488.1,84 1525.2,84 1531.4,78 	"/>
	<polygon points="1494.3,90 1496.8,92.4 1493.1,96 1520.3,96 1516.7,92.4 1519.1,90 	"/>
	<rect x="1631.5" y="90" width="18.8" height="6"/>
	<rect x="1631.5" y="102" width="18.8" height="6"/>
	<rect x="1631.5" y="114" width="18.8" height="6"/>
	<rect x="1234.8" y="138" width="18.6" height="6"/>
	<rect x="767.9" y="138" width="18.6" height="6"/>
	<polygon points="879.5,138 845.6,138 849.4,144 879.5,144 	"/>
	<path d="M524.9,138h-26.2c1.7,2.1,3.6,4.2,5.6,6h39.6C536.5,143.1,530.1,141.2,524.9,138z"/>
	<path d="M368.7,138h-26.2c1.7,2.1,3.6,4.2,5.6,6h39.6C380.3,143.1,373.9,141.2,368.7,138z"/>
	<polygon points="742.6,141.4 666.9,141.4 666.9,138 648,138 648,144 742.6,144 	"/>
	<rect x="914.4" y="138" width="19" height="6"/>
	<polygon points="1155.5,141.4 1079.7,141.4 1079.7,138 1060.9,138 1060.9,144 1155.5,144 	"/>
	<rect x="1181.2" y="138" width="19" height="6"/>
	<rect x="1007.1" y="138" width="18.8" height="6"/>
	<path d="M1363.3,60h18.4v-6h-18.2C1363.4,56.1,1363.3,58.1,1363.3,60z"/>
	<path d="M421.6,36H449c-1.6-2.1-3.4-4.1-5.3-6h-35.4C413.4,31.2,417.8,33.3,421.6,36z"/>
	<polygon points="1530,60 1539.7,60 1534.9,55.2 	"/>
	<path d="M342.8,36h25.7c4.4-2.8,9.5-4.8,15.2-6h-35.3C346.3,31.9,344.5,33.9,342.8,36z"/>
	<polygon points="648,36 666.9,36 666.9,31.5 742.6,31.5 742.6,30 648,30 	"/>
	<path d="M498.9,36h25.7c4.4-2.8,9.5-4.8,15.2-6h-35.3C502.5,31.9,500.6,33.9,498.9,36z"/>
	<path d="M577.8,36h27.4c-1.6-2.1-3.4-4.1-5.3-6h-35.4C569.5,31.2,574,33.3,577.8,36z"/>
	<path d="M152.6,48c-0.9-2.1-1.9-4.1-3-6H125c1.7,1.9,3.2,3.9,4.5,6H152.6z"/>
	<path d="M141.4,60l14.5-2.7c-0.3-1.1-0.6-2.2-1-3.3h-22.1c0.9,2,1.6,4,2.3,6H141.4z"/>
	<rect x="186.5" y="30" width="19" height="6"/>
	<path d="M118.2,36h27.4c-1.6-2.1-3.4-4.1-5.3-6h-35.4C110,31.2,114.4,33.3,118.2,36z"/>
	<rect x="281.9" y="30" width="19" height="6"/>
	<polygon points="1234.8,36 1270.2,36 1267.9,30 1234.8,30 	"/>
	<rect x="1181.2" y="30" width="19" height="6"/>
	<polygon points="1348.5,30 1346.2,36 1381.7,36 1381.7,30 	"/>
	<rect x="186.5" y="66" width="19" height="6"/>
	<polygon points="1060.9,36 1079.7,36 1079.7,31.5 1155.5,31.5 1155.5,30 1060.9,30 	"/>
	<rect x="914.4" y="30" width="19" height="6"/>
	<rect x="860.9" y="30" width="18.6" height="6"/>
	<rect x="1007.1" y="30" width="18.8" height="6"/>
	<polygon points="767.9,36 801.6,36 797.8,30 767.9,30 	"/>
	<rect x="914.4" y="18" width="19" height="6"/>
	<path d="M728.8,282h-21.4c0.2,2,0.4,4.1,0.7,6h21.4C729.3,286.1,729,284.1,728.8,282z"/>
	<rect x="873" y="282" width="18.8" height="6"/>
	<path d="M845.2,282h-21.3c-0.2,2.1-0.5,4.1-0.8,6h21.3C844.7,286,845,284,845.2,282z"/>
	<path d="M586.4,246h-18.3v6h18.5C586.5,250.2,586.5,248.1,586.4,246z"/>
	<rect x="661" y="270" width="18.6" height="6"/>
	<path d="M1155.5,282h-21.1c0.2,2,0.4,4.1,0.7,6h21.1C1155.9,286.1,1155.6,284.1,1155.5,282z"/>
	<path d="M1092.6,271.2c0,1.6,0,3.2-0.1,4.8h21.3c0.1-1.6,0.1-3.2,0.1-4.8c0-0.4,0-0.8,0-1.2h-21.3
		C1092.6,270.4,1092.6,270.8,1092.6,271.2z"/>
	<path d="M824.4,271.2c0,1.6,0,3.2-0.1,4.8h21.3c0.1-1.6,0.1-3.2,0.1-4.8c0-0.4,0-0.8,0-1.2h-21.3
		C824.4,270.4,824.4,270.8,824.4,271.2z"/>
	<path d="M1155,270h-21.1c0,0.4,0,0.8,0,1.2c0,1.6,0,3.2,0.1,4.8h21.1c-0.1-1.6-0.1-3.2-0.1-4.8C1155,270.8,1155,270.4,1155,270z"/>
	<path d="M1113.4,282h-21.3c-0.2,2.1-0.5,4.1-0.8,6h21.3C1112.9,286,1113.2,284,1113.4,282z"/>
	<path d="M997.1,282h-21.4c0.2,2,0.4,4.1,0.7,6h21.4C997.5,286.1,997.3,284.1,997.1,282z"/>
	<path d="M1306.3,252h19.8c-1.3-2.2-2.5-4.2-3.5-6h-20.2L1306.3,252z"/>
	<path d="M648.3,294h-20.6l3.8,6h20.3C650.6,298,649.4,295.9,648.3,294z"/>
	<rect x="568.1" y="294" width="18.6" height="6"/>
	<path d="M1363.3,252l3.8-6h-20.4c-1.1,1.9-2.3,3.9-3.5,6H1363.3z"/>
	<rect x="514.3" y="246" width="18.8" height="6"/>
	<path d="M679.6,282H661v0c0,1.4,0,3.5,0.1,6h18.6V282z"/>
	<rect x="873" y="270" width="18.8" height="6"/>
	<rect x="661" y="258" width="18.6" height="6"/>
	<path d="M996.6,271.2c0-0.4,0-0.8,0-1.2h-21.3c0,0.4,0,0.8,0,1.2c0,1.6,0,3.2,0.1,4.8h21.4C996.6,274.4,996.6,272.8,996.6,271.2z"
		/>
	<rect x="661" y="246" width="18.6" height="6"/>
	<path d="M707,270c0,0.4,0,0.8,0,1.2c0,1.6,0,3.2,0.1,4.8h21.4c-0.1-1.6-0.1-3.2-0.1-4.8c0-0.4,0-0.8,0-1.2H707z"/>
	<path d="M1157.3,294h-21.1c0.4,2.1,0.9,4.1,1.5,6h21.3C1158.3,298.1,1157.7,296.1,1157.3,294z"/>
	<path d="M1111.4,294h-21.4c-0.5,2.1-1.1,4.1-1.8,6h21.5C1110.4,298,1110.9,296.1,1111.4,294z"/>
	<path d="M1267.4,294h-19.6c-0.3,2.1-0.7,4.1-1.1,6h20.7V294z"/>
	<path d="M843.2,294h-21.4c-0.5,2.1-1.1,4.1-1.8,6h21.5C842.1,298,842.7,296.1,843.2,294z"/>
	<path d="M1091.8,258c0.2,1.9,0.4,3.9,0.6,6h21.3c-0.1-2-0.3-4-0.6-6H1091.8z"/>
	<path d="M998.9,294h-21.5c0.4,2.1,0.9,4.1,1.5,6h21.6C999.9,298.1,999.4,296.1,998.9,294z"/>
	<path d="M1329.6,258h-19.5l3.8,6h19.1C1331.9,262.1,1330.7,260,1329.6,258z"/>
	<path d="M1134.7,258c-0.2,2-0.4,4-0.6,6h21.1c0.1-2.1,0.3-4.1,0.5-6H1134.7z"/>
	<path d="M1205,282v2.2h43.5c0,1.3-0.1,2.5-0.1,3.8h19v-6H1205z"/>
	<rect x="1205" y="270" width="62.4" height="6"/>
	<rect x="873" y="294" width="18.8" height="6"/>
	<path d="M707.2,264h21.3c0.1-2.1,0.3-4.1,0.5-6h-21.3C707.5,260,707.3,262,707.2,264z"/>
	<path d="M824.2,264h21.3c-0.1-2-0.3-4-0.6-6h-21.3C823.8,259.9,824,261.9,824.2,264z"/>
	<path d="M730.7,294h-21.5c0.4,2.1,0.9,4.1,1.5,6h21.6C731.7,298.1,731.2,296.1,730.7,294z"/>
	<path d="M975.5,264h21.3c0.1-2.1,0.3-4.1,0.5-6H976C975.8,260,975.6,262,975.5,264z"/>
	<rect x="873" y="258" width="18.8" height="6"/>
	<path d="M644.6,288c-0.4-0.6-0.8-1.3-1.2-1.9l-2.6-4.1h-20.7l3.8,6H644.6z"/>
	<path d="M679.6,294h-18.4c0,1.9,0.1,3.9,0.2,6h18.3V294z"/>
	<polygon points="637,276 633.2,270 612.5,270 616.3,276 	"/>
	<polygon points="608.8,264 629.4,264 625.5,258 605,258 	"/>
	<rect x="873" y="210" width="18.8" height="6"/>
	<rect x="153.9" y="342" width="94.6" height="0.6"/>
	<rect x="514.3" y="282" width="18.8" height="6"/>
	<path d="M1730.4,342.6h20.7l0.2-0.6c0,0,0,0,0,0H1730C1730.1,342.2,1730.2,342.4,1730.4,342.6z"/>
	<rect x="1811.3" y="318" width="19" height="6"/>
	<rect x="153.9" y="199.7" width="94.6" height="4.3"/>
	<rect x="1762.6" y="199.7" width="116.6" height="4.3"/>
	<rect x="153.9" y="210" width="94.6" height="6"/>
	<path d="M1077,204c-6.3-3-13.3-5-21-6h-22.9c-7.8,1-14.9,3-21.2,6H1077z"/>
	<polygon points="1294.7,199.7 1272.7,199.7 1275.5,204 1297.3,204 	"/>
	<path d="M808.8,204c-6.3-3-13.3-5-21-6h-22.9c-7.8,1-14.9,3-21.2,6H808.8z"/>
	<polygon points="1599.2,342.6 1619.1,342.6 1618.8,342 1598.9,342 	"/>
	<path d="M1735.8,66c-0.4,2-0.8,4-1,6h21c0.3-2.1,0.6-4.1,1-6H1735.8z"/>
	<rect x="1804.9" y="90" width="62.4" height="6"/>
	<path d="M1733.8,84h21.1c0-2.1,0.1-4.1,0.3-6h-21.1C1734,80,1733.9,82,1733.8,84z"/>
	<polygon points="1851.1,150 1851.7,156 1867.3,156 1867.3,150 	"/>
	<rect x="1811.3" y="222" width="19" height="6"/>
	<path d="M1831.5,138c-4.7,3.1-10.3,5.1-16.8,6h30.8c1.7-1.8,3.2-3.6,4.6-5.7l0.5,5.7h16.7v-6H1831.5z"/>
	<rect x="65.4" y="342" width="19" height="0.6"/>
	<polygon points="84.5,216 84.5,215.9 133.2,215.9 133.2,210 16.7,210 16.7,215.9 65.4,215.9 65.4,216 	"/>
	<path d="M1835,42c1.7,1.9,3.2,3.9,4.5,6h23.1c-0.9-2.1-1.9-4.1-3-6H1835z"/>
	<path d="M1773.5,18c-4,1.7-7.7,3.7-11.2,6h80.8c-3.4-2.4-7.1-4.4-11-6H1773.5z"/>
	<path d="M1639.1,288h18.8v-4.6h32.6c11.6,0,19.6,1.3,24.8,4.6h23c-1.4-2.2-3.1-4.2-5.2-6h-94.1V288z"/>
	<path d="M1528.1,234l-2.4,6h17.8c0.8-2.1,1.5-4.1,2.2-6H1528.1z"/>
	<path d="M809.2,318c-2.3,2.4-5,4.4-8,6h26.9c1.7-1.9,3.2-3.9,4.7-6H809.2z"/>
	<polygon points="568.1,210 568.1,216 598.8,216 594.9,210 	"/>
	<path d="M365.1,318c-2.4,2.3-5.2,4.3-8.3,6h29.3c1.7-1.9,3.3-3.9,4.9-6H365.1z"/>
	<path d="M743.1,318h-24.3c1.4,2.1,2.9,4.1,4.5,6h28.5C748.6,322.4,745.7,320.3,743.1,318z"/>
	<path d="M585.9,228c-0.1-1.4-0.1-2.7-0.2-4h0.2c0.7,1.3,1.4,2.6,2.1,4h18.4l-3.8-6h-34.5v6H585.9z"/>
	<rect x="421.6" y="306" width="19" height="6"/>
	<path d="M1532.9,222l-2.4,6h17.4c0.7-2,1.4-4,2.1-6H1532.9z"/>
	<rect x="514.3" y="306" width="18.8" height="6"/>
	<rect x="1428" y="234" width="14" height="6"/>
	<polygon points="1388,282 1388,284 1428,284 1428,288 1442,288 1442,284 1481.8,284 1481.8,282 	"/>
	<path d="M285.9,271.2c0-0.4,0-0.8,0-1.2h-21.3c0,0.4,0,0.8,0,1.2c0,1.6,0,3.2,0.1,4.8H286C286,274.4,285.9,272.8,285.9,271.2z"/>
	<rect x="1639.1" y="306" width="18.8" height="6"/>
	<path d="M1724.1,309c0,1.1,0,2.1,0,3h18.9c0-1.6-0.1-3.3-0.1-5.1c0-0.3,0-0.6,0-0.9H1724C1724.1,307,1724.1,307.9,1724.1,309z"/>
	<rect x="1639.1" y="258" width="18.8" height="6"/>
	<path d="M117.8,156c4-1.6,7.6-3.6,10.9-6H52.6c3.8,2.4,8,4.4,12.6,6H117.8z"/>
	<path d="M1639.1,216h18.8v-0.4h30.8c4.2,0,8.5,0,12.8,0.4h37.7c-1.7-2.3-3.7-4.3-5.9-6h-94.2V216z"/>
	<path d="M1267.4,318h-30.1c-2.3,2.4-4.9,4.4-7.8,6h20c0.2-0.3,0.5-0.6,0.7-1l0.1,1h17.1V318z"/>
	<rect x="873" y="199.7" width="18.8" height="4.3"/>
	<rect x="661" y="199.7" width="18.6" height="4.3"/>
	<path d="M204.2,150c3.4,2.4,7.2,4.4,11.5,6h56c4.3-1.6,8.2-3.6,11.5-6H204.2z"/>
	<rect x="648" y="78" width="86.8" height="6"/>
	<rect x="554.5" y="82.2" width="62.4" height="1.8"/>
	<rect x="554.5" y="90" width="62.4" height="6"/>
	<path d="M843.7,102h-20.8l3.8,6h20.7C846.1,105.9,844.9,103.9,843.7,102z"/>
	<polygon points="811.6,84 832.2,84 828.4,78 807.8,78 	"/>
	<path d="M506.5,108c-0.4-1.9-0.7-3.9-1-6h-21.1c0.3,2,0.6,4.1,1,6H506.5z"/>
	<rect x="767.9" y="102" width="18.6" height="6"/>
	<rect x="860.9" y="78" width="18.6" height="6"/>
	<rect x="648" y="102" width="18.8" height="6"/>
	<path d="M616.9,102H598c-0.1,2.1-0.2,4.1-0.5,6h19.4V102z"/>
	<rect x="767.9" y="78" width="18.6" height="6"/>
	<polygon points="734.9,90 648,90 648,96 666.9,96 666.9,94 734.9,94 	"/>
	<rect x="767.9" y="90" width="18.6" height="6"/>
	<rect x="1060.9" y="78" width="86.8" height="6"/>
	<polygon points="836,90 815.4,90 819.1,96 839.9,96 	"/>
	<polygon points="1026,96 1026,90 914.4,90 914.4,96 933.5,96 933.5,94 1007.1,94 1007.1,96 	"/>
	<rect x="914.4" y="78" width="111.5" height="6"/>
	<rect x="1181.2" y="78" width="19" height="6"/>
	<rect x="1181.2" y="90" width="19" height="6"/>
	<path d="M206.6,120c-0.5-1.9-0.8-3.9-1-6h-19.1c0.1,2.1,0.3,4.1,0.5,6H206.6z"/>
	<polygon points="1079.7,94 1147.7,94 1147.7,90 1060.9,90 1060.9,96 1079.7,96 	"/>
	<path d="M483.7,96h21.1c-0.1-1.9-0.2-3.9-0.3-6h-21.1C483.5,92,483.6,94,483.7,96z"/>
	<rect x="648" y="66" width="18.8" height="6"/>
	<path d="M767.9,72h18.6c0-1.7-0.1-3.7-0.1-6h-18.5V72z"/>
	<rect x="1007.1" y="66" width="18.8" height="6"/>
	<rect x="914.4" y="66" width="19" height="6"/>
	<rect x="860.9" y="66" width="18.6" height="6"/>
	<path d="M803.7,71.6L804,72h20.6l-3.8-6h-20.3C801.8,68.3,802.9,70.3,803.7,71.6z"/>
	<rect x="398.3" y="90" width="62.4" height="6"/>
	<path d="M484.4,72h21c0.3-2.1,0.6-4.1,1-6h-21C485,68,484.6,70,484.4,72z"/>
	<rect x="398.3" y="82.2" width="62.4" height="1.8"/>
	<path d="M460.7,108v-6h-18.9c-0.1,2.1-0.2,4.1-0.5,6H460.7z"/>
	<rect x="1234.8" y="90" width="18.6" height="6"/>
	<rect x="1060.9" y="66" width="18.8" height="6"/>
	<rect x="1181.2" y="102" width="19" height="6"/>
	<rect x="1007.1" y="102" width="18.8" height="6"/>
	<rect x="914.4" y="102" width="19" height="6"/>
	<rect x="1234.8" y="102" width="18.6" height="6"/>
	<rect x="1060.9" y="102" width="18.8" height="6"/>
	<rect x="1181.2" y="66" width="19" height="6"/>
	<path d="M1295.5,102h-19l2.4,6h18.9C1297,106.1,1296.3,104.1,1295.5,102z"/>
	<rect x="1234.8" y="78" width="18.6" height="6"/>
	<path d="M879.5,102h-18.6c0,1.8,0.1,3.8,0.1,6h18.5V102z"/>
	<path d="M504.5,84c0-2.1,0.1-4.1,0.3-6h-21.1c-0.2,2-0.2,4-0.3,6H504.5z"/>
	<path d="M1762.6,150c3.8,2.4,8,4.4,12.6,6h52.7c4-1.6,7.6-3.6,10.9-6H1762.6z"/>
	<path d="M1838.4,132h28.9v-6h-24.8C1841.3,128.2,1840,130.2,1838.4,132z"/>
	<polygon points="1295.5,150 1297.8,156 1318.6,156 1321,150 	"/>
	<path d="M1734.2,96h21.1c-0.1-1.9-0.2-3.9-0.3-6h-21.1C1733.9,92,1734,94,1734.2,96z"/>
	<path d="M1745.2,42c-1.2,1.9-2.3,3.9-3.3,6h21.6c0.7-1.1,1.4-2.2,2.1-3.2c0.7-1,1.5-1.9,2.3-2.8H1745.2z"/>
	<polygon points="444.5,150 445.1,156 460.7,156 460.7,150 	"/>
	<rect x="1631.5" y="18" width="18.8" height="6"/>
	<path d="M512.1,150c3.8,2.4,8,4.4,12.6,6h52.7c4-1.6,7.6-3.6,10.9-6H512.1z"/>
	<polygon points="600.7,150 601.2,156 616.9,156 616.9,150 	"/>
	<polygon points="853.2,150 856.9,156 879.5,156 879.5,150 	"/>
	<polygon points="794,24 790.2,18 767.9,18 767.9,24 	"/>
	<rect x="1804.9" y="82.2" width="62.4" height="1.8"/>
	<polygon points="1265.6,24 1263.3,18 1234.8,18 1234.8,24 	"/>
	<path d="M1828.2,36h27.4c-1.6-2.1-3.4-4.1-5.3-6h-35.4C1820,31.2,1824.4,33.3,1828.2,36z"/>
	<path d="M65,36c4.4-2.8,9.5-4.8,15.2-6H44.9c-2,1.9-3.8,3.9-5.5,6H65z"/>
	<path d="M1845,60h6.4l14.5-2.7c-0.3-1.1-0.6-2.2-1-3.3h-22.1C1843.6,56,1844.4,58,1845,60z"/>
	<path d="M65.3,138H39.1c1.7,2.1,3.6,4.2,5.6,6h39.6C76.9,143.1,70.5,141.2,65.3,138z"/>
	<path d="M592.7,24c-3.4-2.4-7.1-4.4-11-6H523c-4,1.7-7.7,3.7-11.2,6H592.7z"/>
	<path d="M356,150c3.8,2.4,8,4.4,12.6,6h52.7c4-1.6,7.6-3.6,10.9-6H356z"/>
	<path d="M133.1,24c-3.4-2.4-7.1-4.4-11-6H63.5c-4,1.7-7.7,3.7-11.2,6H133.1z"/>
	<path d="M436.5,24c-3.4-2.4-7.1-4.4-11-6h-58.7c-4,1.7-7.7,3.7-11.2,6H436.5z"/>
	<path d="M460.7,138h-35.8c-4.7,3.1-10.3,5.1-16.8,6h30.8c1.7-1.8,3.2-3.6,4.6-5.7l0.5,5.7h16.7V138z"/>
	<polygon points="1474.6,114 1468.5,119.9 1468.6,120 1488.3,120 1494.5,114 	"/>
	<polygon points="1482.2,126 1474.9,126 1478.6,129.5 	"/>
	<polygon points="1524.9,120 1544.6,120 1544.7,119.9 1538.7,114 1518.7,114 	"/>
	<rect x="1363" y="114" width="18.6" height="6"/>
	<path d="M1363,71.6V72h18.6v-6h-18.5C1363.1,68.5,1363,70.4,1363,71.6z"/>
	<path d="M1135.6,252h21c0.4-2.1,0.9-4.1,1.4-6h-21C1136.5,248,1136,250,1135.6,252z"/>
	<path d="M1234.8,72h18.6v-0.4c0-1.1,0-3.1-0.1-5.6h-18.5V72z"/>
	<polygon points="1473.6,60 1483.3,60 1478.4,55.2 	"/>
	<path d="M332.5,120H354c-0.8-1.9-1.5-3.9-2.2-6h-21.2C331.2,116.1,331.8,118.1,332.5,120z"/>
	<path d="M460.7,114h-20.4c-0.5,2.1-1,4.1-1.7,6h22.1V114z"/>
	<path d="M1314.4,120h18.4l2.4-6h-18.6C1315.8,116,1315.1,118,1314.4,120z"/>
	<path d="M1363.7,48h18v-6h-17.7C1363.8,43.9,1363.8,46,1363.7,48z"/>
	<polygon points="1495.6,72 1489.4,66 1469.5,66 1475.7,72 	"/>
	<rect x="1631.5" y="42" width="18.8" height="6"/>
	<polygon points="141.1,150 141.7,156 157.3,156 157.3,150 	"/>
	<polygon points="1631.5,138 1631.5,144 1726.1,144 1726.1,141.8 1650.4,141.8 1650.4,138 	"/>
	<path d="M220,138h-26.9c1.3,2.1,2.7,4.2,4.4,6h44.2C233.7,143.7,226.1,141.8,220,138z"/>
	<path d="M616.9,138h-35.8c-4.7,3.1-10.3,5.1-16.8,6h30.8c1.7-1.8,3.2-3.6,4.6-5.7l0.5,5.7h16.7V138z"/>
	<path d="M267.3,138c-6.1,3.8-13.7,5.7-21.8,6h44.3c1.6-1.8,3.1-3.9,4.4-6H267.3z"/>
	<path d="M1274.1,96h19.1c0-0.1,0-0.1-0.1-0.2l-2.2-5.8h-19.1L1274.1,96z"/>
	<rect x="860.9" y="90" width="18.6" height="6"/>
	<path d="M1332.4,72h19.4l0.2-0.4c0.6-1.6,1.4-3.5,2.1-5.6h-19.4L1332.4,72z"/>
	<rect x="1181.2" y="42" width="19" height="6"/>
	<rect x="1363" y="90" width="18.6" height="6"/>
	<polygon points="1486.9,102 1480.8,108 1500.6,108 1506.6,102.2 1512.6,108 1532.5,108 1526.4,102 	"/>
	<rect x="1363" y="102" width="18.6" height="6"/>
	<polygon points="1531,126 1534.7,129.5 1538.4,126 	"/>
	<path d="M1339.3,54l-2.3,6h19.3c0.7-1.9,1.4-3.9,2.2-6H1339.3z"/>
	<path d="M1234.8,48h18c-0.1-2-0.2-4.1-0.3-6h-17.7V48z"/>
	<path d="M1255.8,48h19l-2.3-6h-18.9C1254.4,44,1255.1,46,1255.8,48z"/>
	<path d="M1343.9,42l-2.3,6h19c0.7-1.9,1.4-3.9,2.1-6H1343.9z"/>
	<rect x="1363" y="78" width="18.6" height="6"/>
	<rect x="914.4" y="126" width="19" height="6"/>
	<rect x="1060.9" y="126" width="18.8" height="6"/>
	<rect x="1007.1" y="126" width="18.8" height="6"/>
	<path d="M857.6,126H838l3.8,6h19C859.7,130,858.7,128,857.6,126z"/>
	<path d="M879.5,126h-17.9c0.1,2.1,0.2,4.1,0.3,6h17.7V126z"/>
	<path d="M1304.3,126H1286l2.4,6h18.1C1305.8,130.1,1305.1,128.1,1304.3,126z"/>
	<path d="M1330.5,126h-18.1c-0.7,2.1-1.4,4.1-2.1,6h17.9L1330.5,126z"/>
	<rect x="1363" y="126" width="18.6" height="6"/>
	<rect x="1181.2" y="126" width="19" height="6"/>
	<rect x="1234.8" y="126" width="18.6" height="6"/>
	<rect x="281.9" y="78" width="19" height="6"/>
	<rect x="281.9" y="54" width="19" height="6"/>
	<rect x="186.5" y="54" width="19" height="6"/>
	<rect x="281.9" y="42" width="19" height="6"/>
	<rect x="186.5" y="42" width="19" height="6"/>
	<rect x="281.9" y="66" width="19" height="6"/>
	<rect x="186.5" y="102" width="19" height="6"/>
	<path d="M335.3,48h21.6c0.7-1.1,1.4-2.2,2.1-3.2c0.7-1,1.5-1.9,2.3-2.8h-22.8C337.4,43.9,336.3,45.9,335.3,48z"/>
	<rect x="186.5" y="90" width="19" height="6"/>
	<rect x="767.9" y="126" width="18.6" height="6"/>
	<rect x="281.9" y="90" width="19" height="6"/>
	<path d="M790.4,48h18.9l-3.8-6h-18.3C788.2,43.9,789.3,45.9,790.4,48z"/>
	<rect x="860.9" y="42" width="18.6" height="6"/>
	<rect x="914.4" y="42" width="19" height="6"/>
	<rect x="1060.9" y="42" width="18.8" height="6"/>
	<rect x="1007.1" y="42" width="18.8" height="6"/>
	<path d="M491.4,48h21.6c0.7-1.1,1.4-2.2,2.1-3.2c0.7-1,1.5-1.9,2.3-2.8h-22.8C493.5,43.9,492.4,45.9,491.4,48z"/>
	<path d="M767.9,48h17.9c-0.1-2-0.2-4.1-0.2-6h-17.7V48z"/>
	<path d="M589.1,48h23.1c-0.9-2.1-1.9-4.1-3-6h-24.6C586.3,43.9,587.8,45.9,589.1,48z"/>
	<path d="M432.9,48H456c-0.9-2.1-1.9-4.1-3-6h-24.6C430.1,43.9,431.6,45.9,432.9,48z"/>
	<rect x="648" y="42" width="18.8" height="6"/>
	<path d="M297.2,132c0.8-1.9,1.4-3.9,1.9-6h-20.6c-1.1,2.2-2.5,4.2-4,6H297.2z"/>
	<path d="M1262.4,66c0.8,2.1,1.5,4,2.1,5.6l0.2,0.4h19.4l-2.3-6H1262.4z"/>
	<rect x="1007.1" y="54" width="18.8" height="6"/>
	<path d="M1300,114h-18.7l2.4,6h18.6C1301.5,118.1,1300.8,116.1,1300,114z"/>
	<path d="M1325.5,90l-2.2,5.8c0,0,0,0.1-0.1,0.2h19.1l2.4-6H1325.5z"/>
	<path d="M1321,102c-0.7,2-1.5,4-2.2,6h18.8l2.4-6H1321z"/>
	<polygon points="1269.4,84 1288.6,84 1286.3,78 1267,78 	"/>
	<path d="M1258,54c0.8,2.1,1.5,4.1,2.2,6h19.3l-2.3-6H1258z"/>
	<rect x="1181.2" y="54" width="19" height="6"/>
	<rect x="1060.9" y="54" width="18.8" height="6"/>
	<path d="M1234.8,60h18.4c-0.1-1.9-0.1-3.9-0.2-6h-18.2V60z"/>
	<polygon points="1330.1,78 1327.8,84 1347,84 1349.4,78 	"/>
	<rect x="767.9" y="114" width="18.6" height="6"/>
	<path d="M850.9,114h-20.4l3.8,6h20C853.1,118,852,116,850.9,114z"/>
	<rect x="648" y="114" width="18.8" height="6"/>
	<path d="M879.5,114h-18.3c0.1,2,0.1,4,0.2,6h18.1V114z"/>
	<path d="M616.9,114h-20.4c-0.5,2.1-1,4.1-1.7,6h22.1V114z"/>
	<rect x="914.4" y="114" width="19" height="6"/>
	<rect x="1060.9" y="114" width="18.8" height="6"/>
	<rect x="1181.2" y="114" width="19" height="6"/>
	<rect x="1007.1" y="114" width="18.8" height="6"/>
	<rect x="1234.8" y="114" width="18.6" height="6"/>
	<rect x="914.4" y="54" width="19" height="6"/>
	<path d="M300.3,120c0.3-1.9,0.5-3.9,0.5-6h-19.1c-0.2,2.1-0.5,4.1-1,6H300.3z"/>
	<rect x="281.9" y="102" width="19" height="6"/>
	<path d="M348.7,96c-0.1-1.9-0.2-3.9-0.3-6h-21.1c0.1,2,0.2,4,0.3,6H348.7z"/>
	<path d="M508,114h-21.2c0.6,2.1,1.2,4.1,1.9,6h21.5C509.4,118.1,508.6,116.1,508,114z"/>
	<path d="M350.3,108c-0.4-1.9-0.7-3.9-1-6h-21.1c0.3,2,0.6,4.1,1,6H350.3z"/>
	<path d="M460.7,126h-24.8c-1.2,2.2-2.6,4.2-4.1,6h28.9V126z"/>
	<path d="M515.2,129.1c-0.7-1-1.4-2-2-3.1h-22c1,2.1,2.1,4.1,3.3,6h23.1C516.7,131.1,515.9,130.1,515.2,129.1z"/>
	<path d="M616.9,126h-24.8c-1.2,2.2-2.6,4.2-4.1,6h28.9V126z"/>
	<path d="M348.4,84c0-2.1,0.1-4.1,0.3-6h-21.1c-0.2,2-0.2,4-0.3,6H348.4z"/>
	<path d="M359,129.1c-0.7-1-1.4-2-2-3.1h-22c1,2.1,2.1,4.1,3.3,6h23.1C360.5,131.1,359.7,130.1,359,129.1z"/>
	<rect x="648" y="54" width="18.8" height="6"/>
	<path d="M349.2,72c0.3-2.1,0.6-4.1,1-6h-21c-0.4,2-0.8,4-1,6H349.2z"/>
	<path d="M797,60h19.9l-3.8-6h-19.4C794.8,56.1,795.9,58.1,797,60z"/>
	<path d="M767.9,60h18.3c-0.1-1.9-0.1-4-0.2-6h-18.1V60z"/>
	<rect x="860.9" y="54" width="18.6" height="6"/>
	<rect x="648" y="126" width="18.8" height="6"/>
	<path d="M438.4,60h6.4l14.5-2.7c-0.3-1.1-0.6-2.2-1-3.3h-22.1C437,56,437.8,58,438.4,60z"/>
	<path d="M330.7,60h21c0.6-2.1,1.4-4.1,2.2-6h-21.2C331.9,55.9,331.3,57.9,330.7,60z"/>
	<path d="M486.9,60h21c0.6-2.1,1.4-4.1,2.2-6h-21.2C488.1,55.9,487.4,57.9,486.9,60z"/>
	<path d="M594.6,60h6.4l14.5-2.7c-0.3-1.1-0.6-2.2-1-3.3h-22.1C593.2,56,593.9,58,594.6,60z"/>
	<path d="M679.6,318H662c0,0.1,0,0.2,0,0.3h-0.2c-0.1-0.1-0.1-0.2-0.2-0.3h-18.9l3.8,6h33.1V318z"/>
	<rect x="408.9" y="426" width="19" height="6"/>
	<rect x="320.4" y="426" width="19" height="6"/>
	<rect x="232.3" y="426" width="19" height="6"/>
	<polygon points="485.8,432 503.8,432 506.1,426 488.2,426 	"/>
	<polygon points="525.7,432 544,432 541.6,426 523.4,426 	"/>
	<rect x="65.4" y="270" width="19" height="6"/>
	<rect x="617" y="426" width="19" height="6"/>
	<path d="M197.5,492v-6h-18.2c0.1,2,0.1,4,0.2,6H197.5z"/>
	<rect x="178.8" y="450" width="18.6" height="6"/>
	<rect x="178.8" y="438" width="18.6" height="6"/>
	<rect x="178.8" y="426" width="18.6" height="6"/>
	<polygon points="483.5,486 464.2,486 461.7,492 481.2,492 	"/>
	<rect x="408.9" y="486" width="19" height="6"/>
	<rect x="617" y="438" width="19" height="6"/>
	<polygon points="565.6,486 546.2,486 548.5,492 568,492 	"/>
	<rect x="232.3" y="474" width="19" height="6"/>
	<rect x="320.4" y="486" width="19" height="6"/>
	<rect x="617" y="462" width="19" height="6"/>
	<rect x="617" y="486" width="19" height="6"/>
	<rect x="617" y="450" width="19" height="6"/>
	<rect x="617" y="474" width="19" height="6"/>
	<rect x="320.4" y="474" width="19" height="6"/>
	<rect x="705.4" y="414" width="19" height="6"/>
	<rect x="617" y="414" width="19" height="6"/>
	<rect x="705.4" y="462" width="19" height="6"/>
	<rect x="705.4" y="450" width="19" height="6"/>
	<rect x="705.4" y="438" width="19" height="6"/>
	<rect x="705.4" y="426" width="19" height="6"/>
	<rect x="232.3" y="486" width="19" height="6"/>
	<path d="M521.1,420h18.1l-2.4-6h-17.9C519.6,416,520.4,418,521.1,420z"/>
	<rect x="320.4" y="414" width="19" height="6"/>
	<path d="M490.6,420h17.7c0.8-2.1,1.5-4.1,2.2-6H493L490.6,420z"/>
	<rect x="408.9" y="414" width="19" height="6"/>
	<rect x="320.4" y="498" width="19" height="6"/>
	<polygon points="478.9,498 459.3,498 456.9,504 476.6,504 	"/>
	<rect x="408.9" y="498" width="19" height="6"/>
	<rect x="232.3" y="498" width="19" height="6"/>
	<rect x="705.4" y="474" width="19" height="6"/>
	<rect x="705.4" y="498" width="19" height="6"/>
	<rect x="705.4" y="486" width="19" height="6"/>
	<polygon points="570.4,498 550.9,498 553.2,504 572.8,504 	"/>
	<rect x="617" y="498" width="19" height="6"/>
	<rect x="65.4" y="318" width="19" height="6"/>
	<rect x="32.4" y="522" width="19" height="5.4"/>
	<polygon points="529.6,396 527.2,390 502.7,390 500.3,396 	"/>
	<polygon points="113.6,396 109.8,390 85.9,390 85.9,396 	"/>
	<rect x="1811.3" y="234" width="19" height="6"/>
	<polygon points="891,462 891,468 909.9,468 909.9,463.5 977.9,463.5 977.9,462 	"/>
	<rect x="85.9" y="522" width="18.6" height="5.4"/>
	<rect x="320.4" y="402" width="19" height="6"/>
	<polygon points="769.1,396 767,390 746.7,390 748.9,396 	"/>
	<polygon points="562.2,527.4 582.1,527.4 580,522 560.2,522 	"/>
	<polygon points="866.3,396 868.5,390 848.1,390 846.1,396 	"/>
	<rect x="1811.3" y="246" width="19" height="6"/>
	<rect x="232.3" y="414" width="19" height="6"/>
	<rect x="65.4" y="306" width="19" height="6"/>
	<rect x="65.4" y="294" width="19" height="6"/>
	<rect x="65.4" y="330" width="19" height="6"/>
	<rect x="65.4" y="282" width="19" height="6"/>
	<rect x="1811.3" y="258" width="19" height="6"/>
	<rect x="1811.3" y="270" width="19" height="6"/>
	<rect x="232.3" y="462" width="19" height="6"/>
	<rect x="1811.3" y="330" width="19" height="6"/>
	<rect x="1811.3" y="342" width="19" height="0.6"/>
	<rect x="1811.3" y="282" width="19" height="6"/>
	<polygon points="528,438 530.3,444 548.8,444 546.4,438 	"/>
	<polygon points="481,444 499.3,444 501.5,438 483.4,438 	"/>
	<polygon points="532.6,450 534.9,456 553.6,456 551.2,450 	"/>
	<rect x="408.9" y="474" width="19" height="6"/>
	<polygon points="537.2,462 539.5,468 558.4,468 556,462 	"/>
	<rect x="320.4" y="438" width="19" height="6"/>
	<rect x="408.9" y="438" width="19" height="6"/>
	<rect x="232.3" y="438" width="19" height="6"/>
	<rect x="232.3" y="450" width="19" height="6"/>
	<rect x="408.9" y="462" width="19" height="6"/>
	<rect x="320.4" y="450" width="19" height="6"/>
	<path d="M197.5,462h-18.6v4.7c0,0.4,0,0.8,0,1.3h18.6V462z"/>
	<polygon points="560.8,474 469,474 466.6,480 563.2,480 	"/>
	<path d="M140.4,438h-20.5c0.7,1.2,1.3,2.2,1.8,3l1.9,3h20.6L140.4,438z"/>
	<path d="M775.7,468h18.5c-0.2-0.6-0.4-1.1-0.6-1.7l-1.5-4.3h-18.6L775.7,468z"/>
	<rect x="617" y="402" width="19" height="6"/>
	<polygon points="473.8,462 471.4,468 490.2,468 492.4,462 	"/>
	<rect x="408.9" y="450" width="19" height="6"/>
	<rect x="320.4" y="462" width="19" height="6"/>
	<polygon points="478.6,450 476.2,456 494.7,456 497,450 	"/>
	<path d="M197.5,480v-6h-18.5c0,1.8,0.1,3.9,0.1,6H197.5z"/>
	<polygon points="831.5,438 829.4,444 848.4,444 850.7,438 	"/>
	<path d="M818.9,474c-0.7,2.1-1.4,4.1-2.1,6H835l2.2-6H818.9z"/>
	<polygon points="835.6,426 833.5,432 852.9,432 855.1,426 	"/>
	<polygon points="827.3,450 825.2,456 844,456 846.2,450 	"/>
	<path d="M823.1,462l-1.5,4.3c-0.2,0.6-0.4,1.1-0.6,1.7h18.5l2.2-6H823.1z"/>
	<polygon points="839.8,414 837.7,420 857.4,420 859.6,414 	"/>
	<rect x="408.9" y="390" width="19" height="6"/>
	<rect x="568.2" y="390" width="116.6" height="6"/>
	<polygon points="844,402 841.9,408 861.8,408 864,402 	"/>
	<rect x="705.4" y="390" width="19" height="6"/>
	<rect x="891" y="498" width="18.8" height="6"/>
	<rect x="617" y="522" width="19" height="5.4"/>
	<rect x="705.4" y="522" width="19" height="5.4"/>
	<polygon points="817.4,527.4 819.4,522 795.8,522 797.8,527.4 	"/>
	<rect x="408.9" y="522" width="19" height="5.4"/>
	<polygon points="469.7,522 449.7,522 447.6,527.4 467.6,527.4 	"/>
	<rect x="891" y="486" width="18.8" height="6"/>
	<path d="M812.7,492h17.8l2.2-6h-18C814.1,488.1,813.4,490.1,812.7,492z"/>
	<rect x="271.6" y="390" width="116.6" height="6"/>
	<polygon points="891,510 891,516 985.6,516 985.6,510.8 909.9,510.8 909.9,510 	"/>
	<rect x="891" y="522" width="94.6" height="5.4"/>
	<rect x="32.4" y="414" width="19" height="6"/>
	<rect x="891" y="474" width="18.8" height="6"/>
	<rect x="891" y="450" width="86.8" height="6"/>
	<rect x="32.4" y="510" width="19" height="6"/>
	<rect x="891" y="438" width="18.8" height="6"/>
	<rect x="32.4" y="498" width="19" height="6"/>
	<rect x="232.3" y="390" width="19" height="6"/>
	<rect x="891" y="402" width="18.8" height="6"/>
	<rect x="891" y="426" width="18.8" height="6"/>
	<rect x="891" y="390" width="94.6" height="6"/>
	<rect x="891" y="414" width="18.8" height="6"/>
	<rect x="32.4" y="486" width="19" height="6"/>
	<rect x="32.4" y="390" width="19" height="6"/>
	<rect x="32.4" y="402" width="19" height="6"/>
	<rect x="320.4" y="522" width="19" height="5.4"/>
	<rect x="178.8" y="390" width="18.6" height="6"/>
	<rect x="32.4" y="438" width="19" height="6"/>
	<rect x="32.4" y="426" width="19" height="6"/>
	<rect x="32.4" y="450" width="19" height="6"/>
	<rect x="32.4" y="462" width="19" height="6"/>
	<rect x="32.4" y="474" width="19" height="6"/>
	<path d="M103.9,420c-0.1-2-0.1-4-0.2-6H85.9v6H103.9z"/>
	<rect x="705.4" y="510" width="19" height="6"/>
	<rect x="617" y="510" width="19" height="6"/>
	<rect x="408.9" y="510" width="19" height="6"/>
	<polygon points="474.3,510 454.5,510 452.1,516 472,516 	"/>
	<polygon points="769,450 771.2,456 790,456 787.9,450 	"/>
	<polygon points="575.2,510 555.5,510 557.8,516 577.6,516 	"/>
	<path d="M810.7,498c-0.8,2.5-1.5,4.5-2,6h17.4l2.2-6H810.7z"/>
	<path d="M782.4,486l2.2,6h17.9c-0.6-1.9-1.3-3.9-2.1-6H782.4z"/>
	<path d="M777.9,474l2.2,6h18.2c-0.7-1.9-1.4-3.9-2.1-6H777.9z"/>
	<path d="M789.1,504h17.6c-0.5-1.6-1.2-3.6-2.1-6h-17.8L789.1,504z"/>
	<polygon points="823.9,510 791.3,510 793.5,516 821.6,516 	"/>
	<path d="M166.8,480c-1.2-2.1-2.4-4.1-3.6-6h-20.8l3.8,6H166.8z"/>
	<polygon points="151.8,456 148,450 127.4,450 131.2,456 	"/>
	<polygon points="159.5,468 155.6,462 134.9,462 138.7,468 	"/>
	<path d="M136.5,432l-3.8-6H113c1.2,2.1,2.3,4.1,3.4,6H136.5z"/>
	<path d="M109.7,420h19.1l-3.8-6h-18.6C107.5,415.9,108.6,418,109.7,420z"/>
	<rect x="232.3" y="510" width="19" height="6"/>
	<rect x="320.4" y="510" width="19" height="6"/>
	<path d="M173.6,492c-1.1-2-2.2-4-3.3-6h-20.2l3.8,6H173.6z"/>
	<polygon points="197.5,516 197.5,510 165.2,510 169,516 	"/>
	<path d="M197.5,504v-6h-17.8c0.1,1.8,0.2,3.5,0.2,5.1h-0.2c-0.9-1.7-1.8-3.4-2.7-5.1h-19.3l3.8,6H197.5z"/>
	<rect x="232.3" y="522" width="19" height="5.4"/>
	<rect x="85.9" y="450" width="18.6" height="6"/>
	<polygon points="764.5,438 766.7,444 785.8,444 783.7,438 	"/>
	<path d="M104.3,432c0-1.9-0.1-3.9-0.2-6H85.9v6H104.3z"/>
	<rect x="85.9" y="474" width="18.6" height="6"/>
	<path d="M104.5,444c0-1.4,0-3.4-0.1-6H85.9v6H104.5z"/>
	<rect x="85.9" y="510" width="18.6" height="6"/>
	<polygon points="197.5,527.4 197.5,522 172.7,522 176.1,527.4 	"/>
	<rect x="178.8" y="414" width="18.6" height="6"/>
	<rect x="85.9" y="486" width="18.6" height="6"/>
	<rect x="85.9" y="498" width="18.6" height="6"/>
	<rect x="85.9" y="462" width="18.6" height="6"/>
	<polygon points="755.6,414 757.8,420 777.5,420 775.4,414 	"/>
	<polygon points="751.1,402 753.4,408 773.3,408 771.2,402 	"/>
	<rect x="705.4" y="402" width="19" height="6"/>
	<polygon points="760.1,426 762.3,432 781.6,432 779.6,426 	"/>
	<rect x="408.9" y="402" width="19" height="6"/>
	<rect x="178.8" y="402" width="18.6" height="6"/>
	<rect x="232.3" y="402" width="19" height="6"/>
	<polygon points="85.9,408 121.2,408 117.4,402 85.9,402 	"/>
	<path d="M495.4,408h17.1c0.7-1.9,1.3-3.8,2-5.8h0.2c0.6,1.7,1.3,3.7,2,5.8h17.7l-2.4-6h-34.2L495.4,408z"/>
	<rect x="153.9" y="234" width="18.8" height="6"/>
	<path d="M1169.2,318h-23.5c1.4,2.1,2.9,4.1,4.5,6h27.5C1174.5,322.4,1171.7,320.4,1169.2,318z"/>
	<path d="M1101.1,318h-23.6c-2.3,2.4-5,4.4-8,6h26.9C1098.1,322.1,1099.6,320.1,1101.1,318z"/>
	<rect x="568.1" y="318" width="18.6" height="6"/>
	<rect x="1325.2" y="318" width="19" height="6"/>
	<rect x="873" y="318" width="18.8" height="6"/>
	<path d="M1011.3,318h-24.3c1.4,2.1,2.9,4.1,4.5,6h28.5C1016.9,322.4,1013.9,320.3,1011.3,318z"/>
	<polygon points="1609.2,318 1589.6,318 1592,324 1611.6,324 	"/>
	<polygon points="1585,306 1587.3,312 1606.8,312 1604.4,306 	"/>
	<rect x="1428" y="318" width="14" height="4.8"/>
	<polygon points="1514,318 1494.4,318 1492,324 1511.7,324 	"/>
	<rect x="421.6" y="294" width="19" height="6"/>
	<rect x="421.6" y="270" width="111.5" height="6"/>
	<polygon points="533.2,264 533.2,258 514.3,258 514.3,262.2 440.7,262.2 440.7,258 421.6,258 421.6,264 	"/>
	<rect x="421.6" y="246" width="19" height="6"/>
	<path d="M374.8,240h22.1c-0.6-2.1-1.3-4.1-2.1-6h-23C372.9,235.9,373.9,237.9,374.8,240z"/>
	<rect x="421.6" y="282" width="19" height="6"/>
	<polygon points="1496.8,312 1516.3,312 1518.6,306 1499.2,306 	"/>
	<rect x="421.6" y="318" width="19" height="6"/>
	<path d="M394.9,312c1.1-1.9,2.2-3.9,3.1-6h-23.9c-1.1,2.1-2.3,4.1-3.7,6H394.9z"/>
	<path d="M381.3,300l-4.1-1.1c-0.1,0.4-0.3,0.7-0.4,1.1H381.3z"/>
	<rect x="514.3" y="318" width="18.8" height="6"/>
	<polygon points="1364.8,216 1386.4,216 1390.2,210 1368.4,210 	"/>
	<path d="M1080.2,228h23.1c-1.2-2.1-2.6-4.1-4-6h-25C1076.4,223.7,1078.4,225.7,1080.2,228z"/>
	<path d="M1144.4,228h22.4c1.9-2.3,4-4.3,6.4-6h-24.8C1147,223.9,1145.7,225.9,1144.4,228z"/>
	<path d="M1236.2,228h24.2c-1.1-2.1-2.4-4.1-3.7-6H1230C1232.3,223.8,1234.3,225.8,1236.2,228z"/>
	<polygon points="1290.9,228 1311.8,228 1308.2,222 1287,222 	"/>
	<polygon points="1378.7,228 1382.5,222 1361.2,222 1357.5,228 	"/>
	<path d="M726.7,216h32.4c5.2-1.6,11.3-2.6,18.2-2.6c6.6,0,12.4,0.9,17.4,2.6h31c-2.2-2.2-4.5-4.2-7-6h-85.1
		C731.2,211.8,728.9,213.8,726.7,216z"/>
	<rect x="421.6" y="234" width="19" height="6"/>
	<rect x="661" y="210" width="18.6" height="6"/>
	<rect x="873" y="222" width="18.8" height="6"/>
	<rect x="1428" y="306" width="14" height="6"/>
	<path d="M985.8,228h22.5c1.8-2.1,4-4.1,6.6-6h-25.1C988.4,223.9,987,225.9,985.8,228z"/>
	<polygon points="1518.5,258 1516,264 1534.4,264 1536.7,258 	"/>
	<polygon points="1532.1,270 1513.6,270 1511.2,276 1529.9,276 	"/>
	<polygon points="1442,270.4 1442,270 1428,270 1428,270.4 1388,270.4 1388,276 1481.8,276 1481.8,270.4 	"/>
	<rect x="1428" y="294" width="14" height="6"/>
	<polygon points="1523.3,246 1520.9,252 1539,252 1541.2,246 	"/>
	<path d="M1553.2,222c0.7,1.9,1.4,3.9,2.1,6h17.9l-2.4-6H1553.2z"/>
	<polygon points="1537.7,210 1535.3,216 1568.4,216 1566,210 	"/>
	<path d="M1557.6,234c0.8,2.1,1.5,4.1,2.3,6h18.2l-2.4-6H1557.6z"/>
	<polygon points="1580.4,246 1562.1,246 1564.4,252 1582.8,252 	"/>
	<path d="M594.5,240h19.5l-3.8-6h-19C592.3,236,593.4,238,594.5,240z"/>
	<path d="M1161.2,306h-21.6c0.8,2.1,1.7,4.1,2.7,6h22.1C1163.2,310.1,1162.2,308.1,1161.2,306z"/>
	<path d="M734.5,306h-21.8c0.8,2.1,1.7,4.1,2.7,6h22.3C736.6,310.3,735.5,308.3,734.5,306z"/>
	<path d="M679.6,306h-18.1c0.1,2,0.1,4.1,0.2,6h17.9V306z"/>
	<rect x="568.1" y="306" width="18.6" height="6"/>
	<rect x="514.3" y="294" width="18.8" height="6"/>
	<path d="M839.3,306h-21.8c-1,2.1-2.2,4.1-3.4,6h22.4C837.5,310.1,838.4,308.1,839.3,306z"/>
	<path d="M1002.7,306H981c0.8,2.1,1.7,4.1,2.7,6h22.3C1004.8,310.3,1003.8,308.3,1002.7,306z"/>
	<rect x="568.1" y="282" width="18.6" height="6"/>
	<path d="M1107.5,306h-21.8c-1,2.1-2.2,4.1-3.4,6h22.4C1105.7,310.1,1106.7,308.1,1107.5,306z"/>
	<rect x="873" y="306" width="18.8" height="6"/>
	<path d="M655.1,306h-19.9l3.8,6h19.4C657.3,310,656.2,308,655.1,306z"/>
	<path d="M822.6,252h21.3c-0.4-2-0.9-4-1.4-6h-21.4C821.7,247.9,822.2,249.9,822.6,252z"/>
	<path d="M714.4,234c-0.9,1.9-1.7,3.9-2.4,6h21.3c0.8-2.1,1.7-4.1,2.7-6H714.4z"/>
	<path d="M708.7,252H730c0.4-2.1,0.8-4.1,1.4-6h-21.2C709.6,248,709.1,250,708.7,252z"/>
	<path d="M977,252h21.2c0.4-2.1,0.8-4.1,1.4-6h-21.2C977.8,248,977.4,250,977,252z"/>
	<rect x="873" y="246" width="18.8" height="6"/>
	<path d="M586.7,264v-3.6c0-0.5,0-1.3,0-2.4h-18.6v6H586.7z"/>
	<rect x="661" y="234" width="18.6" height="6"/>
	<path d="M621.7,252l-3.8-6h-20c1.3,2.2,2.4,4.3,3.4,6H621.7z"/>
	<rect x="568.1" y="270" width="18.6" height="6"/>
	<polygon points="568.1,199.7 568.1,204 591.1,204 588.4,199.7 	"/>
	<path d="M1087.2,240h21.7c-0.7-2.1-1.6-4.1-2.5-6h-22.2C1085.3,235.9,1086.3,237.9,1087.2,240z"/>
	<rect x="873" y="234" width="18.8" height="6"/>
	<path d="M1267.4,306h-22.6c-0.8,2.1-1.8,4.1-2.9,6h25.5V306z"/>
	<path d="M980.2,240h21.3c0.8-2.1,1.7-4.1,2.7-6h-21.6C981.8,235.9,981,237.9,980.2,240z"/>
	<rect x="514.3" y="234" width="18.8" height="6"/>
	<path d="M1138.9,240h21.1c0.8-2.1,1.8-4.1,2.9-6h-21.5C1140.4,235.9,1139.6,237.9,1138.9,240z"/>
	<path d="M1243.4,240h22c-0.6-2.1-1.3-4.1-2.1-6h-22.8C1241.5,235.9,1242.5,237.9,1243.4,240z"/>
	<path d="M586.3,240c-0.1-2-0.1-4-0.2-6h-18v6H586.3z"/>
	<rect x="661" y="222" width="18.6" height="6"/>
	<path d="M805.9,222c2.2,1.7,4.2,3.7,6,6H835c-1.2-2.1-2.6-4.1-4-6H805.9z"/>
	<path d="M717.6,228H740c1.8-2.1,4-4.1,6.6-6h-25.1C720.1,223.9,718.8,225.9,717.6,228z"/>
	<path d="M819,240h21.7c-0.7-2.1-1.6-4.1-2.5-6h-22.2C817.1,235.9,818.1,237.9,819,240z"/>
	<rect x="1325.2" y="282" width="19" height="6"/>
	<polygon points="1298.6,240 1319,240 1315.4,234 1294.7,234 	"/>
	<rect x="1325.2" y="294" width="19" height="6"/>
	<rect x="1325.2" y="306" width="19" height="6"/>
	<polygon points="1317.8,270 1321.7,276 1347.9,276 1351.7,270 	"/>
	<path d="M1339.8,258c-1.1,1.9-2.2,3.9-3.4,6h19.3l3.8-6H1339.8z"/>
	<rect x="1428" y="246" width="14" height="6"/>
	<polygon points="1350.3,240 1371,240 1374.8,234 1353.9,234 	"/>
	<rect x="1428" y="258" width="14" height="6"/>
	<path d="M367.4,228h24.4c-1.2-2.1-2.4-4.1-3.8-6h-26.9C363.4,223.8,365.5,225.8,367.4,228z"/>
	<rect x="568.1" y="342" width="18.6" height="0.6"/>
	<rect x="514.3" y="342" width="18.8" height="0.6"/>
	<polygon points="1267.4,342.6 1267.4,342 1251.8,342 1251.9,342.6 	"/>
	<polygon points="679.6,342.6 679.6,342 657.9,342 658.3,342.6 	"/>
	<path d="M356.9,342H310c7.2,2,15.3,3.1,24.1,3.1C342.3,345.1,350,344,356.9,342z"/>
	<path d="M1067.6,342h-47c7.2,2,15.3,3.1,24.1,3.1C1053,345.1,1060.7,344,1067.6,342z"/>
	<path d="M799.4,342h-47c7.2,2,15.3,3.1,24.1,3.1C784.8,345.1,792.4,344,799.4,342z"/>
	<path d="M1224.3,342h-45c7.2,2,15.3,3.1,24.1,3.1C1210.9,345.1,1218,344,1224.3,342z"/>
	<rect x="153.9" y="330" width="94.6" height="6"/>
	<rect x="873" y="342" width="94.6" height="0.6"/>
	<rect x="421.6" y="342" width="19" height="0.6"/>
	<rect x="153.9" y="246" width="18.8" height="6"/>
	<polygon points="240.7,264 240.7,262.2 172.7,262.2 172.7,258 153.9,258 153.9,264 	"/>
	<path d="M1090.9,252h21.3c-0.4-2-0.9-4-1.4-6h-21.4C1089.9,247.9,1090.4,249.9,1090.9,252z"/>
	<rect x="153.9" y="222" width="18.8" height="6"/>
	<path d="M284.4,216h31.7c5.5-1.7,11.7-2.6,18.4-2.6c5.7,0,10.9,0.9,15.6,2.6H383c-2.1-2.2-4.4-4.2-6.8-6h-84.8
		C288.8,211.8,286.5,213.8,284.4,216z"/>
	<rect x="153.9" y="270" width="86.8" height="6"/>
	<rect x="153.9" y="318" width="18.8" height="6"/>
	<rect x="153.9" y="306" width="18.8" height="6"/>
	<rect x="153.9" y="294" width="18.8" height="6"/>
	<rect x="153.9" y="282" width="18.8" height="6"/>
	<path d="M1170.7,204h64.4c-6.3-3-13.2-5-20.6-6h-22.7C1184,199,1176.9,201,1170.7,204z"/>
	<path d="M366.1,204c-6.4-3-13.4-5-20.8-6h-22.7c-7.8,1-14.9,3-21.2,6H366.1z"/>
	<rect x="1325.2" y="342" width="19" height="0.6"/>
	<rect x="421.6" y="210" width="19" height="6"/>
	<path d="M1727,234c0.4,1.8,0.7,3.8,0.8,6h18.7c-0.1-2.1-0.2-4.1-0.4-6H1727z"/>
	<path d="M1719.9,222c1.9,1.6,3.6,3.5,4.9,6h20.1c-0.6-2.2-1.3-4.2-2.1-6H1719.9z"/>
	<rect x="65.4" y="222" width="19" height="6"/>
	<rect x="65.4" y="246" width="19" height="6"/>
	<rect x="65.4" y="234" width="19" height="6"/>
	<path d="M1727.7,246c-0.2,2.2-0.6,4.2-1.2,6h18.9c0.5-1.9,0.8-3.9,1-6H1727.7z"/>
	<rect x="16.7" y="199.7" width="116.6" height="4.3"/>
	<polygon points="1762.6,215.9 1811.3,215.9 1811.3,216 1830.4,216 1830.4,215.9 1879.1,215.9 1879.1,210 1762.6,210 	"/>
	<path d="M1723.2,258c-2.2,2.7-4.9,4.6-8.1,6h25.1c1.2-1.8,2.3-3.9,3.2-6H1723.2z"/>
	<path d="M1724.3,318c0.1,2.2,0.2,4.2,0.3,6h19.3c-0.3-1.9-0.5-3.9-0.6-6H1724.3z"/>
	<rect x="1639.1" y="342" width="18.8" height="0.6"/>
	<polygon points="1504.8,342 1484.8,342 1484.5,342.6 1504.6,342.6 	"/>
	<path d="M1725.3,330c0.4,2.3,0.9,4.2,1.6,6h20.5c-0.9-1.9-1.7-3.9-2.3-6H1725.3z"/>
	<path d="M1723.3,300h19.2c-0.3-2.1-0.7-4.1-1.3-6h-20C1722.2,295.7,1722.8,297.7,1723.3,300z"/>
	<path d="M1639.1,270v6h86.6c3.4-1.4,6.6-3.4,9.3-6H1639.1z"/>
	<rect x="1811.3" y="306" width="19" height="6"/>
	<rect x="1811.3" y="294" width="19" height="6"/>
	<path d="M1090.3,330h-92.7c2.6,2.2,5.5,4.2,8.5,6h75.6C1084.8,334.2,1087.6,332.2,1090.3,330z"/>
	<rect x="514.3" y="330" width="18.8" height="6"/>
	<path d="M295.4,312c-1.2-1.9-2.3-3.9-3.3-6h-21.8c0.8,2.1,1.7,4.1,2.7,6H295.4z"/>
	<rect x="568.1" y="330" width="18.6" height="6"/>
	<path d="M309,324c-3.2-1.6-6.1-3.6-8.6-6h-24c1.4,2.1,2.9,4.1,4.5,6H309z"/>
	<path d="M371.2,336c3.1-1.8,5.9-3.8,8.6-6H287c2.6,2.2,5.5,4.2,8.5,6H371.2z"/>
	<rect x="421.6" y="330" width="19" height="6"/>
	<polygon points="679.6,330 650.3,330 654.1,336 679.6,336 	"/>
	<path d="M1244.4,330h-88.1c2.6,2.2,5.5,4.2,8.5,6h72.2C1239.6,334.2,1242.1,332.2,1244.4,330z"/>
	<rect x="514.3" y="199.7" width="18.8" height="4.3"/>
	<path d="M822,330h-92.7c2.6,2.2,5.5,4.2,8.5,6h75.6C816.5,334.2,819.4,332.2,822,330z"/>
	<rect x="873" y="330" width="94.6" height="6"/>
	<rect x="65.4" y="258" width="19" height="6"/>
	<path d="M275.2,228h22.4c1.9-2.3,4-4.3,6.4-6h-24.8C277.8,223.9,276.4,225.9,275.2,228z"/>
	<rect x="421.6" y="222" width="19" height="6"/>
	<rect x="514.3" y="210" width="18.8" height="6"/>
	<path d="M289.8,300c-0.6-1.9-1.2-3.9-1.6-6h-21.3c0.4,2.1,0.9,4.1,1.5,6H289.8z"/>
	<rect x="514.3" y="222" width="18.8" height="6"/>
	<path d="M290.8,240c0.8-2.1,1.8-4.1,2.8-6h-21.5c-0.9,1.9-1.7,3.9-2.4,6H290.8z"/>
	<path d="M286.1,264c0.1-2.1,0.3-4.1,0.5-6h-21.2c-0.2,2-0.4,4-0.6,6H286.1z"/>
	<path d="M287.1,288c-0.3-1.9-0.5-3.9-0.7-6h-21.3c0.2,2,0.4,4.1,0.7,6H287.1z"/>
	<path d="M287.5,252c0.4-2.1,0.8-4.1,1.3-6h-21.1c-0.5,2-1,4-1.4,6H287.5z"/>
	<rect x="1639.1" y="246" width="18.8" height="6"/>
	<rect x="1639.1" y="222" width="18.8" height="6"/>
	<path d="M1639.1,199.7v4.3h83c-10.3-3.7-22.4-4.3-33.4-4.3H1639.1z"/>
	<polygon points="1566.7,258 1569,264 1587.6,264 1585.2,258 	"/>
	<polygon points="1267.4,330 1250.8,330 1251.3,336 1267.4,336 	"/>
	<rect x="421.6" y="199.7" width="19" height="4.3"/>
	<polygon points="1541.8,199.7 1540.1,204 1563.6,204 1561.9,199.7 	"/>
	<path d="M995,216h32.4c5.2-1.6,11.3-2.6,18.2-2.6c6.6,0,12.4,0.9,17.4,2.6h31c-2.2-2.2-4.5-4.2-7-6h-85.1
		C999.4,211.8,997.1,213.8,995,216z"/>
	<polygon points="1372,204 1394.1,204 1396.8,199.7 1374.6,199.7 	"/>
	<path d="M1153.6,216h31.7c5.5-1.7,11.7-2.6,18.4-2.6c5.7,0,10.9,0.9,15.5,2.6h32.4c-2.1-2.2-4.3-4.2-6.7-6h-84.4
		C1158.1,211.8,1155.8,213.8,1153.6,216z"/>
	<polygon points="1304.5,216 1300.9,210 1279.3,210 1283.2,216 	"/>
	<rect x="1639.1" y="234" width="18.8" height="6"/>
	<polygon points="1614,330 1594.3,330 1596.6,336 1616.4,336 	"/>
	<polygon points="1509.4,330 1489.6,330 1487.2,336 1507.1,336 	"/>
	<rect x="1325.2" y="330" width="19" height="6"/>
	<rect x="1639.1" y="330" width="18.8" height="6"/>
	<rect x="1639.1" y="318" width="18.8" height="6"/>
	<polygon points="1501.6,300 1520.9,300 1520.9,300 1582.6,300 1582.7,300 1602,300 1599.6,294 1504,294 	"/>
	<polygon points="1575.9,282 1576.6,283.6 1527,283.6 1527.6,282 1508.8,282 1506.4,288 1597.2,288 1594.8,282 	"/>
	<polygon points="1571.3,270 1573.6,276 1592.4,276 1590,270 	"/>
	<rect x="1639.1" y="294" width="18.8" height="6"/>
</g>
</svg>
