<?xml version="1.0" encoding="utf-8"?>
<!-- Generator: Adobe Illustrator 26.2.1, SVG Export Plug-In . SVG Version: 6.00 Build 0)  -->
<svg version="1.1" id="Layer_1" xmlns="http://www.w3.org/2000/svg" xmlns:xlink="http://www.w3.org/1999/xlink" x="0px" y="0px"
	 viewBox="0 0 1920 1080" style="enable-background:new 0 0 1920 1080;" xml:space="preserve">
<style type="text/css">
	.st0{fill:#FFFFFF;}
</style>
<path class="st0" d="M4,810h2v270H4H2H0V810V540V270h2v270h2V810z M12,540h-2V270H8V0H6H4H2v270h2v270h2v270h2v270h2h2h2V810h-2V540
	z M20,540h-2V270h-2V0h-2h-2h-2v270h2v270h2v270h2v270h2h2h2V810h-2V540z M28,540h-2V270h-2V0h-2h-2h-2v270h2v270h2v270h2v270h2h2h2
	V810h-2V540z M36,540h-2V270h-2V0h-2h-2h-2v270h2v270h2v270h2v270h2h2h2V810h-2V540z M44,540h-2V270h-2V0h-2h-2h-2v270h2v270h2v270
	h2v270h2h2h2V810h-2V540z M52,540h-2V270h-2V0h-2h-2h-2v270h2v270h2v270h2v270h2h2h2V810h-2V540z M60,540h-2V270h-2V0h-2h-2h-2v270
	h2v270h2v270h2v270h2h2h2V810h-2V540z M68,540h-2V270h-2V0h-2h-2h-2v270h2v270h2v270h2v270h2h2h2V810h-2V540z M76,540h-2V270h-2V0
	h-2h-2h-2v270h2v270h2v270h2v270h2h2h2V810h-2V540z M84,540h-2V270h-2V0h-2h-2h-2v270h2v270h2v270h2v270h2h2h2V810h-2V540z M92,540
	h-2V270h-2V0h-2h-2h-2v270h2v270h2v270h2v270h2h2h2V810h-2V540z M100,540h-2V270h-2V0h-2h-2h-2v270h2v270h2v270h2v270h2h2h2V810h-2
	V540z M108,540h-2V270h-2V0h-2h-2h-2v270h2v270h2v270h2v270h2h2h2V810h-2V540z M116,540h-2V270h-2V0h-2h-2h-2v270h2v270h2v270h2v270
	h2h2h2V810h-2V540z M124,540h-2V270h-2V0h-2h-2h-2v270h2v270h2v270h2v270h2h2h2V810h-2V540z M132,540h-2V270h-2V0h-2h-2h-2v270h2
	v270h2v270h2v270h2h2h2V810h-2V540z M140,540h-2V270h-2V0h-2h-2h-2v270h2v270h2v270h2v270h2h2h2V810h-2V540z M148,540h-2V270h-2V0
	h-2h-2h-2v270h2v270h2v270h2v270h2h2h2V810h-2V540z M156,540h-2V270h-2V0h-2h-2h-2v270h2v270h2v270h2v270h2h2h2V810h-2V540z
	 M164,540h-2V270h-2V0h-2h-2h-2v270h2v270h2v270h2v270h2h2h2V810h-2V540z M172,540h-2V270h-2V0h-2h-2h-2v270h2v270h2v270h2v270h2h2
	h2V810h-2V540z M180,540h-2V270h-2V0h-2h-2h-2v270h2v270h2v270h2v270h2h2h2V810h-2V540z M188,540h-2V270h-2V0h-2h-2h-2v270h2v270h2
	v270h2v270h2h2h2V810h-2V540z M196,540h-2V270h-2V0h-2h-2h-2v270h2v270h2v270h2v270h2h2h2V810h-2V540z M204,540h-2V270h-2V0h-2h-2
	h-2v270h2v270h2v270h2v270h2h2h2V810h-2V540z M212,540h-2V270h-2V0h-2h-2h-2v270h2v270h2v270h2v270h2h2h2V810h-2V540z M220,540h-2
	V270h-2V0h-2h-2h-2v270h2v270h2v270h2v270h2h2h2V810h-2V540z M228,540h-2V270h-2V0h-2h-2h-2v270h2v270h2v270h2v270h2h2h2V810h-2V540
	z M236,540h-2V270h-2V0h-2h-2h-2v270h2v270h2v270h2v270h2h2h2V810h-2V540z M244,540h-2V270h-2V0h-2h-2h-2v270h2v270h2v270h2v270h2h2
	h2V810h-2V540z M252,540h-2V270h-2V0h-2h-2h-2v270h2v270h2v270h2v270h2h2h2V810h-2V540z M260,540h-2V270h-2V0h-2h-2h-2v270h2v270h2
	v270h2v270h2h2h2V810h-2V540z M268,540h-2V270h-2V0h-2h-2h-2v270h2v270h2v270h2v270h2h2h2V810h-2V540z M276,540h-2V270h-2V0h-2h-2
	h-2v270h2v270h2v270h2v270h2h2h2V810h-2V540z M284,540h-2V270h-2V0h-2h-2h-2v270h2v270h2v270h2v270h2h2h2V810h-2V540z M292,540h-2
	V270h-2V0h-2h-2h-2v270h2v270h2v270h2v270h2h2h2V810h-2V540z M300,540h-2V270h-2V0h-2h-2h-2v270h2v270h2v270h2v270h2h2h2V810h-2V540
	z M308,540h-2V270h-2V0h-2h-2h-2v270h2v270h2v270h2v270h2h2h2V810h-2V540z M316,540h-2V270h-2V0h-2h-2h-2v270h2v270h2v270h2v270h2h2
	h2V810h-2V540z M324,540h-2V270h-2V0h-2h-2h-2v270h2v270h2v270h2v270h2h2h2V810h-2V540z M332,540h-2V270h-2V0h-2h-2h-2v270h2v270h2
	v270h2v270h2h2h2V810h-2V540z M340,540h-2V270h-2V0h-2h-2h-2v270h2v270h2v270h2v270h2h2h2V810h-2V540z M348,540h-2V270h-2V0h-2h-2
	h-2v270h2v270h2v270h2v270h2h2h2V810h-2V540z M356,540h-2V270h-2V0h-2h-2h-2v270h2v270h2v270h2v270h2h2h2V810h-2V540z M364,540h-2
	V270h-2V0h-2h-2h-2v270h2v270h2v270h2v270h2h2h2V810h-2V540z M372,540h-2V270h-2V0h-2h-2h-2v270h2v270h2v270h2v270h2h2h2V810h-2V540
	z M380,540h-2V270h-2V0h-2h-2h-2v270h2v270h2v270h2v270h2h2h2V810h-2V540z M388,540h-2V270h-2V0h-2h-2h-2v270h2v270h2v270h2v270h2h2
	h2V810h-2V540z M396,540h-2V270h-2V0h-2h-2h-2v270h2v270h2v270h2v270h2h2h2V810h-2V540z M404,540h-2V270h-2V0h-2h-2h-2v270h2v270h2
	v270h2v270h2h2h2V810h-2V540z M412,540h-2V270h-2V0h-2h-2h-2v270h2v270h2v270h2v270h2h2h2V810h-2V540z M420,540h-2V270h-2V0h-2h-2
	h-2v270h2v270h2v270h2v270h2h2h2V810h-2V540z M428,540h-2V270h-2V0h-2h-2h-2v270h2v270h2v270h2v270h2h2h2V810h-2V540z M436,540h-2
	V270h-2V0h-2h-2h-2v270h2v270h2v270h2v270h2h2h2V810h-2V540z M444,540h-2V270h-2V0h-2h-2h-2v270h2v270h2v270h2v270h2h2h2V810h-2V540
	z M452,540h-2V270h-2V0h-2h-2h-2v270h2v270h2v270h2v270h2h2h2V810h-2V540z M460,540h-2V270h-2V0h-2h-2h-2v270h2v270h2v270h2v270h2h2
	h2V810h-2V540z M468,540h-2V270h-2V0h-2h-2h-2v270h2v270h2v270h2v270h2h2h2V810h-2V540z M476,540h-2V270h-2V0h-2h-2h-2v270h2v270h2
	v270h2v270h2h2h2V810h-2V540z M484,540h-2V270h-2V0h-2h-2h-2v270h2v270h2v270h2v270h2h2h2V810h-2V540z M492,540h-2V270h-2V0h-2h-2
	h-2v270h2v270h2v270h2v270h2h2h2V810h-2V540z M500,540h-2V270h-2V0h-2h-2h-2v270h2v270h2v270h2v270h2h2h2V810h-2V540z M508,540h-2
	V270h-2V0h-2h-2h-2v270h2v270h2v270h2v270h2h2h2V810h-2V540z M516,540h-2V270h-2V0h-2h-2h-2v270h2v270h2v270h2v270h2h2h2V810h-2V540
	z M524,540h-2V270h-2V0h-2h-2h-2v270h2v270h2v270h2v270h2h2h2V810h-2V540z M532,540h-2V270h-2V0h-2h-2h-2v270h2v270h2v270h2v270h2h2
	h2V810h-2V540z M540,540h-2V270h-2V0h-2h-2h-2v270h2v270h2v270h2v270h2h2h2V810h-2V540z M548,540h-2V270h-2V0h-2h-2h-2v270h2v270h2
	v270h2v270h2h2h2V810h-2V540z M556,540h-2V270h-2V0h-2h-2h-2v270h2v270h2v270h2v270h2h2h2V810h-2V540z M564,540h-2V270h-2V0h-2h-2
	h-2v270h2v270h2v270h2v270h2h2h2V810h-2V540z M572,540h-2V270h-2V0h-2h-2h-2v270h2v270h2v270h2v270h2h2h2V810h-2V540z M580,540h-2
	V270h-2V0h-2h-2h-2v270h2v270h2v270h2v270h2h2h2V810h-2V540z M588,540h-2V270h-2V0h-2h-2h-2v270h2v270h2v270h2v270h2h2h2V810h-2V540
	z M596,540h-2V270h-2V0h-2h-2h-2v270h2v270h2v270h2v270h2h2h2V810h-2V540z M604,540h-2V270h-2V0h-2h-2h-2v270h2v270h2v270h2v270h2h2
	h2V810h-2V540z M612,540h-2V270h-2V0h-2h-2h-2v270h2v270h2v270h2v270h2h2h2V810h-2V540z M620,540h-2V270h-2V0h-2h-2h-2v270h2v270h2
	v270h2v270h2h2h2V810h-2V540z M628,540h-2V270h-2V0h-2h-2h-2v270h2v270h2v270h2v270h2h2h2V810h-2V540z M636,540h-2V270h-2V0h-2h-2
	h-2v270h2v270h2v270h2v270h2h2h2V810h-2V540z M644,540h-2V270h-2V0h-2h-2h-2v270h2v270h2v270h2v270h2h2h2V810h-2V540z M652,540h-2
	V270h-2V0h-2h-2h-2v270h2v270h2v270h2v270h2h2h2V810h-2V540z M660,540h-2V270h-2V0h-2h-2h-2v270h2v270h2v270h2v270h2h2h2V810h-2V540
	z M668,540h-2V270h-2V0h-2h-2h-2v270h2v270h2v270h2v270h2h2h2V810h-2V540z M676,540h-2V270h-2V0h-2h-2h-2v270h2v270h2v270h2v270h2h2
	h2V810h-2V540z M684,540h-2V270h-2V0h-2h-2h-2v270h2v270h2v270h2v270h2h2h2V810h-2V540z M692,540h-2V270h-2V0h-2h-2h-2v270h2v270h2
	v270h2v270h2h2h2V810h-2V540z M700,540h-2V270h-2V0h-2h-2h-2v270h2v270h2v270h2v270h2h2h2V810h-2V540z M708,540h-2V270h-2V0h-2h-2
	h-2v270h2v270h2v270h2v270h2h2h2V810h-2V540z M716,540h-2V270h-2V0h-2h-2h-2v270h2v270h2v270h2v270h2h2h2V810h-2V540z M724,540h-2
	V270h-2V0h-2h-2h-2v270h2v270h2v270h2v270h2h2h2V810h-2V540z M732,540h-2V270h-2V0h-2h-2h-2v270h2v270h2v270h2v270h2h2h2V810h-2V540
	z M740,540h-2V270h-2V0h-2h-2h-2v270h2v270h2v270h2v270h2h2h2V810h-2V540z M748,540h-2V270h-2V0h-2h-2h-2v270h2v270h2v270h2v270h2h2
	h2V810h-2V540z M756,540h-2V270h-2V0h-2h-2h-2v270h2v270h2v270h2v270h2h2h2V810h-2V540z M764,540h-2V270h-2V0h-2h-2h-2v270h2v270h2
	v270h2v270h2h2h2V810h-2V540z M772,540h-2V270h-2V0h-2h-2h-2v270h2v270h2v270h2v270h2h2h2V810h-2V540z M780,540h-2V270h-2V0h-2h-2
	h-2v270h2v270h2v270h2v270h2h2h2V810h-2V540z M788,540h-2V270h-2V0h-2h-2h-2v270h2v270h2v270h2v270h2h2h2V810h-2V540z M796,540h-2
	V270h-2V0h-2h-2h-2v270h2v270h2v270h2v270h2h2h2V810h-2V540z M804,540h-2V270h-2V0h-2h-2h-2v270h2v270h2v270h2v270h2h2h2V810h-2V540
	z M812,540h-2V270h-2V0h-2h-2h-2v270h2v270h2v270h2v270h2h2h2V810h-2V540z M820,540h-2V270h-2V0h-2h-2h-2v270h2v270h2v270h2v270h2h2
	h2V810h-2V540z M828,540h-2V270h-2V0h-2h-2h-2v270h2v270h2v270h2v270h2h2h2V810h-2V540z M836,540h-2V270h-2V0h-2h-2h-2v270h2v270h2
	v270h2v270h2h2h2V810h-2V540z M844,540h-2V270h-2V0h-2h-2h-2v270h2v270h2v270h2v270h2h2h2V810h-2V540z M852,540h-2V270h-2V0h-2h-2
	h-2v270h2v270h2v270h2v270h2h2h2V810h-2V540z M860,540h-2V270h-2V0h-2h-2h-2v270h2v270h2v270h2v270h2h2h2V810h-2V540z M868,540h-2
	V270h-2V0h-2h-2h-2v270h2v270h2v270h2v270h2h2h2V810h-2V540z M876,540h-2V270h-2V0h-2h-2h-2v270h2v270h2v270h2v270h2h2h2V810h-2V540
	z M884,540h-2V270h-2V0h-2h-2h-2v270h2v270h2v270h2v270h2h2h2V810h-2V540z M892,540h-2V270h-2V0h-2h-2h-2v270h2v270h2v270h2v270h2h2
	h2V810h-2V540z M900,540h-2V270h-2V0h-2h-2h-2v270h2v270h2v270h2v270h2h2h2V810h-2V540z M908,540h-2V270h-2V0h-2h-2h-2v270h2v270h2
	v270h2v270h2h2h2V810h-2V540z M916,540h-2V270h-2V0h-2h-2h-2v270h2v270h2v270h2v270h2h2h2V810h-2V540z M924,540h-2V270h-2V0h-2h-2
	h-2v270h2v270h2v270h2v270h2h2h2V810h-2V540z M932,540h-2V270h-2V0h-2h-2h-2v270h2v270h2v270h2v270h2h2h2V810h-2V540z M940,540h-2
	V270h-2V0h-2h-2h-2v270h2v270h2v270h2v270h2h2h2V810h-2V540z M948,540h-2V270h-2V0h-2h-2h-2v270h2v270h2v270h2v270h2h2h2V810h-2V540
	z M956,540h-2V270h-2V0h-2h-2h-2v270h2v270h2v270h2v270h2h2h2V810h-2V540z M964,540h-2V270h-2V0h-2h-2h-2v270h2v270h2v270h2v270h2h2
	h2V810h-2V540z M972,540h-2V270h-2V0h-2h-2h-2v270h2v270h2v270h2v270h2h2h2V810h-2V540z M980,540h-2V270h-2V0h-2h-2h-2v270h2v270h2
	v270h2v270h2h2h2V810h-2V540z M988,540h-2V270h-2V0h-2h-2h-2v270h2v270h2v270h2v270h2h2h2V810h-2V540z M996,540h-2V270h-2V0h-2h-2
	h-2v270h2v270h2v270h2v270h2h2h2V810h-2V540z M1004,540h-2V270h-2V0h-2h-2h-2v270h2v270h2v270h2v270h2h2h2V810h-2V540z M1012,540h-2
	V270h-2V0h-2h-2h-2v270h2v270h2v270h2v270h2h2h2V810h-2V540z M1020,540h-2V270h-2V0h-2h-2h-2v270h2v270h2v270h2v270h2h2h2V810h-2
	V540z M1028,540h-2V270h-2V0h-2h-2h-2v270h2v270h2v270h2v270h2h2h2V810h-2V540z M1036,540h-2V270h-2V0h-2h-2h-2v270h2v270h2v270h2
	v270h2h2h2V810h-2V540z M1044,540h-2V270h-2V0h-2h-2h-2v270h2v270h2v270h2v270h2h2h2V810h-2V540z M1052,540h-2V270h-2V0h-2h-2h-2
	v270h2v270h2v270h2v270h2h2h2V810h-2V540z M1060,540h-2V270h-2V0h-2h-2h-2v270h2v270h2v270h2v270h2h2h2V810h-2V540z M1068,540h-2
	V270h-2V0h-2h-2h-2v270h2v270h2v270h2v270h2h2h2V810h-2V540z M1076,540h-2V270h-2V0h-2h-2h-2v270h2v270h2v270h2v270h2h2h2V810h-2
	V540z M1084,540h-2V270h-2V0h-2h-2h-2v270h2v270h2v270h2v270h2h2h2V810h-2V540z M1092,540h-2V270h-2V0h-2h-2h-2v270h2v270h2v270h2
	v270h2h2h2V810h-2V540z M1100,540h-2V270h-2V0h-2h-2h-2v270h2v270h2v270h2v270h2h2h2V810h-2V540z M1108,540h-2V270h-2V0h-2h-2h-2
	v270h2v270h2v270h2v270h2h2h2V810h-2V540z M1116,540h-2V270h-2V0h-2h-2h-2v270h2v270h2v270h2v270h2h2h2V810h-2V540z M1124,540h-2
	V270h-2V0h-2h-2h-2v270h2v270h2v270h2v270h2h2h2V810h-2V540z M1132,540h-2V270h-2V0h-2h-2h-2v270h2v270h2v270h2v270h2h2h2V810h-2
	V540z M1140,540h-2V270h-2V0h-2h-2h-2v270h2v270h2v270h2v270h2h2h2V810h-2V540z M1148,540h-2V270h-2V0h-2h-2h-2v270h2v270h2v270h2
	v270h2h2h2V810h-2V540z M1156,540h-2V270h-2V0h-2h-2h-2v270h2v270h2v270h2v270h2h2h2V810h-2V540z M1164,540h-2V270h-2V0h-2h-2h-2
	v270h2v270h2v270h2v270h2h2h2V810h-2V540z M1172,540h-2V270h-2V0h-2h-2h-2v270h2v270h2v270h2v270h2h2h2V810h-2V540z M1180,540h-2
	V270h-2V0h-2h-2h-2v270h2v270h2v270h2v270h2h2h2V810h-2V540z M1188,540h-2V270h-2V0h-2h-2h-2v270h2v270h2v270h2v270h2h2h2V810h-2
	V540z M1196,540h-2V270h-2V0h-2h-2h-2v270h2v270h2v270h2v270h2h2h2V810h-2V540z M1204,540h-2V270h-2V0h-2h-2h-2v270h2v270h2v270h2
	v270h2h2h2V810h-2V540z M1212,540h-2V270h-2V0h-2h-2h-2v270h2v270h2v270h2v270h2h2h2V810h-2V540z M1220,540h-2V270h-2V0h-2h-2h-2
	v270h2v270h2v270h2v270h2h2h2V810h-2V540z M1228,540h-2V270h-2V0h-2h-2h-2v270h2v270h2v270h2v270h2h2h2V810h-2V540z M1236,540h-2
	V270h-2V0h-2h-2h-2v270h2v270h2v270h2v270h2h2h2V810h-2V540z M1244,540h-2V270h-2V0h-2h-2h-2v270h2v270h2v270h2v270h2h2h2V810h-2
	V540z M1252,540h-2V270h-2V0h-2h-2h-2v270h2v270h2v270h2v270h2h2h2V810h-2V540z M1260,540h-2V270h-2V0h-2h-2h-2v270h2v270h2v270h2
	v270h2h2h2V810h-2V540z M1268,540h-2V270h-2V0h-2h-2h-2v270h2v270h2v270h2v270h2h2h2V810h-2V540z M1276,540h-2V270h-2V0h-2h-2h-2
	v270h2v270h2v270h2v270h2h2h2V810h-2V540z M1284,540h-2V270h-2V0h-2h-2h-2v270h2v270h2v270h2v270h2h2h2V810h-2V540z M1292,540h-2
	V270h-2V0h-2h-2h-2v270h2v270h2v270h2v270h2h2h2V810h-2V540z M1300,540h-2V270h-2V0h-2h-2h-2v270h2v270h2v270h2v270h2h2h2V810h-2
	V540z M1308,540h-2V270h-2V0h-2h-2h-2v270h2v270h2v270h2v270h2h2h2V810h-2V540z M1316,540h-2V270h-2V0h-2h-2h-2v270h2v270h2v270h2
	v270h2h2h2V810h-2V540z M1324,540h-2V270h-2V0h-2h-2h-2v270h2v270h2v270h2v270h2h2h2V810h-2V540z M1332,540h-2V270h-2V0h-2h-2h-2
	v270h2v270h2v270h2v270h2h2h2V810h-2V540z M1340,540h-2V270h-2V0h-2h-2h-2v270h2v270h2v270h2v270h2h2h2V810h-2V540z M1348,540h-2
	V270h-2V0h-2h-2h-2v270h2v270h2v270h2v270h2h2h2V810h-2V540z M1356,540h-2V270h-2V0h-2h-2h-2v270h2v270h2v270h2v270h2h2h2V810h-2
	V540z M1364,540h-2V270h-2V0h-2h-2h-2v270h2v270h2v270h2v270h2h2h2V810h-2V540z M1372,540h-2V270h-2V0h-2h-2h-2v270h2v270h2v270h2
	v270h2h2h2V810h-2V540z M1380,540h-2V270h-2V0h-2h-2h-2v270h2v270h2v270h2v270h2h2h2V810h-2V540z M1388,540h-2V270h-2V0h-2h-2h-2
	v270h2v270h2v270h2v270h2h2h2V810h-2V540z M1396,540h-2V270h-2V0h-2h-2h-2v270h2v270h2v270h2v270h2h2h2V810h-2V540z M1404,540h-2
	V270h-2V0h-2h-2h-2v270h2v270h2v270h2v270h2h2h2V810h-2V540z M1412,540h-2V270h-2V0h-2h-2h-2v270h2v270h2v270h2v270h2h2h2V810h-2
	V540z M1420,540h-2V270h-2V0h-2h-2h-2v270h2v270h2v270h2v270h2h2h2V810h-2V540z M1428,540h-2V270h-2V0h-2h-2h-2v270h2v270h2v270h2
	v270h2h2h2V810h-2V540z M1436,540h-2V270h-2V0h-2h-2h-2v270h2v270h2v270h2v270h2h2h2V810h-2V540z M1444,540h-2V270h-2V0h-2h-2h-2
	v270h2v270h2v270h2v270h2h2h2V810h-2V540z M1452,540h-2V270h-2V0h-2h-2h-2v270h2v270h2v270h2v270h2h2h2V810h-2V540z M1460,540h-2
	V270h-2V0h-2h-2h-2v270h2v270h2v270h2v270h2h2h2V810h-2V540z M1468,540h-2V270h-2V0h-2h-2h-2v270h2v270h2v270h2v270h2h2h2V810h-2
	V540z M1476,540h-2V270h-2V0h-2h-2h-2v270h2v270h2v270h2v270h2h2h2V810h-2V540z M1484,540h-2V270h-2V0h-2h-2h-2v270h2v270h2v270h2
	v270h2h2h2V810h-2V540z M1492,540h-2V270h-2V0h-2h-2h-2v270h2v270h2v270h2v270h2h2h2V810h-2V540z M1500,540h-2V270h-2V0h-2h-2h-2
	v270h2v270h2v270h2v270h2h2h2V810h-2V540z M1508,540h-2V270h-2V0h-2h-2h-2v270h2v270h2v270h2v270h2h2h2V810h-2V540z M1516,540h-2
	V270h-2V0h-2h-2h-2v270h2v270h2v270h2v270h2h2h2V810h-2V540z M1524,540h-2V270h-2V0h-2h-2h-2v270h2v270h2v270h2v270h2h2h2V810h-2
	V540z M1532,540h-2V270h-2V0h-2h-2h-2v270h2v270h2v270h2v270h2h2h2V810h-2V540z M1540,540h-2V270h-2V0h-2h-2h-2v270h2v270h2v270h2
	v270h2h2h2V810h-2V540z M1548,540h-2V270h-2V0h-2h-2h-2v270h2v270h2v270h2v270h2h2h2V810h-2V540z M1556,540h-2V270h-2V0h-2h-2h-2
	v270h2v270h2v270h2v270h2h2h2V810h-2V540z M1564,540h-2V270h-2V0h-2h-2h-2v270h2v270h2v270h2v270h2h2h2V810h-2V540z M1572,540h-2
	V270h-2V0h-2h-2h-2v270h2v270h2v270h2v270h2h2h2V810h-2V540z M1580,540h-2V270h-2V0h-2h-2h-2v270h2v270h2v270h2v270h2h2h2V810h-2
	V540z M1588,540h-2V270h-2V0h-2h-2h-2v270h2v270h2v270h2v270h2h2h2V810h-2V540z M1596,540h-2V270h-2V0h-2h-2h-2v270h2v270h2v270h2
	v270h2h2h2V810h-2V540z M1604,540h-2V270h-2V0h-2h-2h-2v270h2v270h2v270h2v270h2h2h2V810h-2V540z M1612,540h-2V270h-2V0h-2h-2h-2
	v270h2v270h2v270h2v270h2h2h2V810h-2V540z M1620,540h-2V270h-2V0h-2h-2h-2v270h2v270h2v270h2v270h2h2h2V810h-2V540z M1628,540h-2
	V270h-2V0h-2h-2h-2v270h2v270h2v270h2v270h2h2h2V810h-2V540z M1636,540h-2V270h-2V0h-2h-2h-2v270h2v270h2v270h2v270h2h2h2V810h-2
	V540z M1644,540h-2V270h-2V0h-2h-2h-2v270h2v270h2v270h2v270h2h2h2V810h-2V540z M1652,540h-2V270h-2V0h-2h-2h-2v270h2v270h2v270h2
	v270h2h2h2V810h-2V540z M1660,540h-2V270h-2V0h-2h-2h-2v270h2v270h2v270h2v270h2h2h2V810h-2V540z M1668,540h-2V270h-2V0h-2h-2h-2
	v270h2v270h2v270h2v270h2h2h2V810h-2V540z M1676,540h-2V270h-2V0h-2h-2h-2v270h2v270h2v270h2v270h2h2h2V810h-2V540z M1684,540h-2
	V270h-2V0h-2h-2h-2v270h2v270h2v270h2v270h2h2h2V810h-2V540z M1692,540h-2V270h-2V0h-2h-2h-2v270h2v270h2v270h2v270h2h2h2V810h-2
	V540z M1700,540h-2V270h-2V0h-2h-2h-2v270h2v270h2v270h2v270h2h2h2V810h-2V540z M1708,540h-2V270h-2V0h-2h-2h-2v270h2v270h2v270h2
	v270h2h2h2V810h-2V540z M1716,540h-2V270h-2V0h-2h-2h-2v270h2v270h2v270h2v270h2h2h2V810h-2V540z M1724,540h-2V270h-2V0h-2h-2h-2
	v270h2v270h2v270h2v270h2h2h2V810h-2V540z M1732,540h-2V270h-2V0h-2h-2h-2v270h2v270h2v270h2v270h2h2h2V810h-2V540z M1740,540h-2
	V270h-2V0h-2h-2h-2v270h2v270h2v270h2v270h2h2h2V810h-2V540z M1748,540h-2V270h-2V0h-2h-2h-2v270h2v270h2v270h2v270h2h2h2V810h-2
	V540z M1756,540h-2V270h-2V0h-2h-2h-2v270h2v270h2v270h2v270h2h2h2V810h-2V540z M1764,540h-2V270h-2V0h-2h-2h-2v270h2v270h2v270h2
	v270h2h2h2V810h-2V540z M1772,540h-2V270h-2V0h-2h-2h-2v270h2v270h2v270h2v270h2h2h2V810h-2V540z M1780,540h-2V270h-2V0h-2h-2h-2
	v270h2v270h2v270h2v270h2h2h2V810h-2V540z M1788,540h-2V270h-2V0h-2h-2h-2v270h2v270h2v270h2v270h2h2h2V810h-2V540z M1796,540h-2
	V270h-2V0h-2h-2h-2v270h2v270h2v270h2v270h2h2h2V810h-2V540z M1804,540h-2V270h-2V0h-2h-2h-2v270h2v270h2v270h2v270h2h2h2V810h-2
	V540z M1812,540h-2V270h-2V0h-2h-2h-2v270h2v270h2v270h2v270h2h2h2V810h-2V540z M1820,540h-2V270h-2V0h-2h-2h-2v270h2v270h2v270h2
	v270h2h2h2V810h-2V540z M1828,540h-2V270h-2V0h-2h-2h-2v270h2v270h2v270h2v270h2h2h2V810h-2V540z M1836,540h-2V270h-2V0h-2h-2h-2
	v270h2v270h2v270h2v270h2h2h2V810h-2V540z M1844,540h-2V270h-2V0h-2h-2h-2v270h2v270h2v270h2v270h2h2h2V810h-2V540z M1852,540h-2
	V270h-2V0h-2h-2h-2v270h2v270h2v270h2v270h2h2h2V810h-2V540z M1860,540h-2V270h-2V0h-2h-2h-2v270h2v270h2v270h2v270h2h2h2V810h-2
	V540z M1868,540h-2V270h-2V0h-2h-2h-2v270h2v270h2v270h2v270h2h2h2V810h-2V540z M1876,540h-2V270h-2V0h-2h-2h-2v270h2v270h2v270h2
	v270h2h2h2V810h-2V540z M1884,540h-2V270h-2V0h-2h-2h-2v270h2v270h2v270h2v270h2h2h2V810h-2V540z M1892,540h-2V270h-2V0h-2h-2h-2
	v270h2v270h2v270h2v270h2h2h2V810h-2V540z M1900,540h-2V270h-2V0h-2h-2h-2v270h2v270h2v270h2v270h2h2h2V810h-2V540z M1908,540h-2
	V270h-2V0h-2h-2h-2v270h2v270h2v270h2v270h2h2h2V810h-2V540z M1916,540h-2V270h-2V0h-2h-2h-2v270h2v270h2v270h2v270h2h2h2V810h-2
	V540z M1914,0v270h2v270h2v270h2V540V270V0H1914z"/>
</svg>
