<?xml version="1.0" encoding="utf-8"?>
<!-- Generator: Adobe Illustrator 26.2.1, SVG Export Plug-In . SVG Version: 6.00 Build 0)  -->
<svg version="1.1" id="Layer_1" xmlns="http://www.w3.org/2000/svg" xmlns:xlink="http://www.w3.org/1999/xlink" x="0px" y="0px"
	 viewBox="0 0 1920 1080" style="enable-background:new 0 0 1920 1080;" xml:space="preserve">
<style type="text/css">
	.st0{fill:#FF0000;}
</style>
<g>
	<path class="st0" d="M1305.6,459.4c0.1,1,0.1,2,0.1,3h33.8c0-1,0-2-0.1-3H1305.6z"/>
	<path class="st0" d="M1305.7,465.4c0,1-0.1,2-0.2,3h33.9c0-1,0.1-2,0.1-3H1305.7z"/>
	<path class="st0" d="M1337.6,444.4c-0.2-1-0.5-2-0.7-3h-34.7c0.4,1,0.7,2,1,3H1337.6z"/>
	<path class="st0" d="M1210.4,472.2c0-0.2,0-0.5,0-0.8h-4.8L1210.4,472.2z"/>
	<path class="st0" d="M1299.4,435.4c0.5,1,1,2,1.5,3h35.1c-0.3-1-0.6-2-0.9-3H1299.4z"/>
	<path class="st0" d="M1391.9,456.4c0.3-1,0.6-2,0.9-3h-34.4c-0.3,1-0.6,2-1,3H1391.9z"/>
	<path class="st0" d="M1363.1,441.4c-0.4,1-0.9,2-1.3,3h34.6c0.5-1,1-2,1.5-3H1363.1z"/>
	<path class="st0" d="M1360.6,447.4c-0.4,1-0.7,2-1.1,3h34.4c0.4-1,0.8-2,1.2-3H1360.6z"/>
	<path class="st0" d="M1275.5,513.4c-1.4,1-2.8,2-4.2,3h47.7c0.9-1,1.7-2,2.6-3H1275.5z"/>
	<path class="st0" d="M1305.2,471.4c-0.2,1-0.3,2-0.6,3h34.3c0.1-1,0.2-2,0.3-3H1305.2z"/>
	<path class="st0" d="M1283,507.4c-1.2,1-2.4,2-3.6,3h44.6c0.7-1,1.5-2,2.2-3H1283z"/>
	<path class="st0" d="M1294.6,495.4c-0.8,1-1.6,2-2.5,3h39.4c0.5-1,1-2,1.4-3H1294.6z"/>
	<path class="st0" d="M1257.4,525.4c-1.7,1-3.3,2-4.9,3h54.1c1.2-1,2.3-2,3.4-3H1257.4z"/>
	<path class="st0" d="M1289.4,501.4c-1,1-2,2-3,3h41.8c0.6-1,1.2-2,1.8-3H1289.4z"/>
	<path class="st0" d="M1303.9,477.4c-0.3,1-0.6,2-1,3h35c0.2-1,0.4-2,0.6-3H1303.9z"/>
	<path class="st0" d="M1298.6,489.4c-0.6,1-1.2,2-1.9,3h37.5c0.4-1,0.8-2,1.1-3H1298.6z"/>
	<path class="st0" d="M1301.7,483.4c-0.4,1-0.9,2-1.4,3h36.1c0.3-1,0.6-2,0.8-3H1301.7z"/>
	<path class="st0" d="M1221.4,432.4c0.8-1,1.6-2,2.6-3h-39.2c-0.5,1-0.9,2-1.4,3H1221.4z"/>
	<path class="st0" d="M1217.5,438.4c0.5-1,1.1-2,1.8-3h-37.1c-0.4,1-0.7,2-1.1,3H1217.5z"/>
	<path class="st0" d="M1247.5,531.4c-1.7,1-3.3,2-4.8,3h56.4c1.3-1,2.6-2,3.9-3H1247.5z"/>
	<path class="st0" d="M1186.3,426.4h40.8c1.3-1.1,2.6-2.1,4-3H1188C1187.4,424.4,1186.8,425.4,1186.3,426.4z"/>
	<path class="st0" d="M1288.5,423.4c1.3,0.9,2.6,1.9,3.8,3h39.1c-0.5-1-1-2-1.6-3H1288.5z"/>
	<path class="st0" d="M1210.8,462.4c0.1-1,0.2-2,0.3-3h-34.4c-0.1,1-0.1,2-0.2,3H1210.8z"/>
	<path class="st0" d="M1211.6,456.4c0.2-1,0.4-2,0.6-3h-34.7c-0.1,1-0.3,2-0.4,3H1211.6z"/>
	<path class="st0" d="M1338.6,450.4c-0.1-1-0.3-2-0.5-3h-34.2c0.2,1,0.5,2,0.6,3H1338.6z"/>
	<path class="st0" d="M1214.8,444.4c0.4-1,0.8-2,1.2-3h-35.9c-0.3,1-0.6,2-0.8,3H1214.8z"/>
	<path class="st0" d="M1212.9,450.4c0.3-1,0.6-2,0.9-3h-35.2c-0.2,1-0.4,2-0.6,3H1212.9z"/>
	<path class="st0" d="M1297.5,432.4h36.5c-0.4-1-0.8-2-1.2-3h-37.6C1296.1,430.4,1296.8,431.4,1297.5,432.4z"/>
	<path class="st0" d="M1364.5,438.4h35.2c0.6-1,1.3-2,2-3H1366C1365.4,436.4,1364.9,437.4,1364.5,438.4z"/>
	<path class="st0" d="M1529.2,459.4h-34.4c0.3,1,0.5,2,0.7,3h34.4C1529.8,461.4,1529.5,460.4,1529.2,459.4z"/>
	<path class="st0" d="M1339.3,456.4c-0.1-1-0.2-2-0.3-3h-33.9c0.1,1,0.2,2,0.3,3H1339.3z"/>
	<path class="st0" d="M1493.1,453.4c0.3,1,0.6,2,0.9,3h34.3c-0.3-1-0.6-2-1-3H1493.1z"/>
	<path class="st0" d="M1391.1,459.4h-34.5c-0.3,1-0.6,2-0.8,3h34.5C1390.6,461.4,1390.9,460.4,1391.1,459.4z"/>
	<path class="st0" d="M1484.3,435.4c0.7,1,1.4,2,2,3h35c-0.5-1-1-2-1.5-3H1484.3z"/>
	<path class="st0" d="M1490.9,447.4c0.4,1,0.8,2,1.2,3h34.2c-0.4-1-0.7-2-1.1-3H1490.9z"/>
	<path class="st0" d="M1488,441.4c0.5,1,1,2,1.5,3h34.4c-0.4-1-0.8-2-1.3-3H1488z"/>
	<path class="st0" d="M1213.1,555.4c-1.2,1-2.3,2-3.5,3h52.7c1.6-1,3.2-2,4.8-3H1213.1z"/>
	<rect x="398.3" y="597.4" class="st0" width="34.2" height="3"/>
	<rect x="398.3" y="603.4" class="st0" width="34.2" height="3"/>
	<rect x="398.3" y="591.4" class="st0" width="34.2" height="3"/>
	<rect x="398.3" y="585.4" class="st0" width="34.2" height="3"/>
	<rect x="527.1" y="603.4" class="st0" width="35.3" height="3"/>
	<rect x="527.1" y="621.4" class="st0" width="35.3" height="3"/>
	<rect x="527.1" y="615.4" class="st0" width="35.3" height="3"/>
	<rect x="527.1" y="609.4" class="st0" width="35.3" height="3"/>
	<rect x="527.1" y="561.4" class="st0" width="35.3" height="3"/>
	<rect x="527.1" y="627.4" class="st0" width="35.3" height="3"/>
	<rect x="527.1" y="549.4" class="st0" width="35.3" height="3"/>
	<rect x="527.1" y="555.4" class="st0" width="35.3" height="3"/>
	<rect x="398.3" y="579.4" class="st0" width="34.2" height="3"/>
	<rect x="527.1" y="543.4" class="st0" width="35.3" height="3"/>
	<rect x="398.3" y="573.4" class="st0" width="34.2" height="3"/>
	<rect x="527.1" y="567.4" class="st0" width="35.3" height="3"/>
	<rect x="527.1" y="573.4" class="st0" width="35.3" height="3"/>
	<path class="st0" d="M1228.9,543.4c-1.4,1-2.9,2-4.3,3h56.9c1.5-1,3.1-2,4.6-3H1228.9z"/>
	<path class="st0" d="M1200.3,567.4c-0.9,1-1.8,2-2.7,3h46.6c1.4-1,2.9-2,4.3-3H1200.3z"/>
	<path class="st0" d="M1356.8,585.4c0.3,1,0.6,2,0.9,3h35.1c-0.3-1-0.6-2-0.9-3H1356.8z"/>
	<path class="st0" d="M1353.8,573.4c0.2,1,0.4,2,0.7,3h35.2c-0.2-1-0.4-2-0.6-3H1353.8z"/>
	<path class="st0" d="M1355.2,579.4c0.2,1,0.5,2,0.8,3h35.1c-0.3-1-0.5-2-0.7-3H1355.2z"/>
	<path class="st0" d="M1192.6,576.4h43.5c1.3-1,2.6-2,3.9-3h-45C1194.2,574.4,1193.4,575.4,1192.6,576.4z"/>
	<path class="st0" d="M1206.3,561.4c-1,1-2.1,2-3.1,3h49.7c1.5-1,3.1-2,4.6-3H1206.3z"/>
	<path class="st0" d="M1238,537.4c-1.5,1-3.1,2-4.6,3h57.3c1.4-1,2.9-2,4.3-3H1238z"/>
	<path class="st0" d="M1186.5,468.4h23.9c0-1,0.1-2,0.1-3h-34c0,0.5,0,1,0,1.4L1186.5,468.4z"/>
	<rect x="1039.8" y="621.4" class="st0" width="38.4" height="3"/>
	<rect x="527.1" y="633.4" class="st0" width="35.3" height="3"/>
	<rect x="1039.8" y="627.4" class="st0" width="38.4" height="3"/>
	<rect x="1039.8" y="615.4" class="st0" width="38.4" height="3"/>
	<path class="st0" d="M737.8,627.4H601.5c0.9,1,1.8,2,2.8,3h130.8C736.1,629.4,737,628.4,737.8,627.4z"/>
	<path class="st0" d="M1360.8,597.4c0.4,1,0.8,2,1.2,3h35.7c-0.5-1-1-2-1.5-3H1360.8z"/>
	<path class="st0" d="M1174.5,609.4c-0.4,1-0.7,2-1,3h33.4c0.4-1,0.8-2,1.2-3H1174.5z"/>
	<path class="st0" d="M1399.4,603.4h-36.1c0.5,1,0.9,2,1.4,3h36.6C1400.7,605.4,1400,604.4,1399.4,603.4z"/>
	<path class="st0" d="M1176.8,603.4c-0.4,1-0.8,2-1.2,3h33.9c0.5-1,1.1-2,1.6-3H1176.8z"/>
	<rect x="398.3" y="633.4" class="st0" width="34.2" height="3"/>
	<path class="st0" d="M1491.9,591.4c-0.4,1-0.8,2-1.2,3h34.5c0.4-1,0.8-2,1.1-3H1491.9z"/>
	<path class="st0" d="M1493.8,585.4c-0.3,1-0.6,2-0.9,3h34.5c0.3-1,0.7-2,1-3H1493.8z"/>
	<path class="st0" d="M1351.7,561.4c0.1,1,0.3,2,0.5,3h35.6c-0.1-1-0.3-2-0.4-3H1351.7z"/>
	<path class="st0" d="M1486.1,603.4c-0.6,1-1.3,2-2,3h35.7c0.5-1,1-2,1.5-3H1486.1z"/>
	<path class="st0" d="M1497.7,567.4c-0.2,1-0.3,2-0.5,3h35c0.2-1,0.4-2,0.6-3H1497.7z"/>
	<path class="st0" d="M1353.2,570.4h35.4c-0.2-1-0.3-2-0.5-3h-35.5C1352.8,568.4,1353,569.4,1353.2,570.4z"/>
	<path class="st0" d="M1518.3,609.4h-36.4c-0.9,1-1.8,2.1-2.7,3h37.4C1517.2,611.4,1517.7,610.4,1518.3,609.4z"/>
	<path class="st0" d="M1495.4,579.4c-0.2,1-0.5,2-0.8,3h34.6c0.3-1,0.6-2,0.8-3H1495.4z"/>
	<path class="st0" d="M1496.7,573.4c-0.2,1-0.4,2-0.6,3h34.8c0.2-1,0.5-2,0.7-3H1496.7z"/>
	<path class="st0" d="M1489.3,597.4c-0.5,1-1,2-1.5,3h34.9c0.4-1,0.9-2,1.3-3H1489.3z"/>
	<path class="st0" d="M1366.2,609.4c0.5,1,1.1,2,1.6,3h38.4c-0.9-0.9-1.8-2-2.7-3H1366.2z"/>
	<path class="st0" d="M1169.4,627.4c-0.2,1-0.4,2-0.6,3H1340v-3H1169.4z"/>
	<path class="st0" d="M607.4,633.4c1.1,1,2.3,2,3.5,3h117.6c1.2-1,2.4-2,3.5-3H607.4z"/>
	<path class="st0" d="M996.1,633.4h-118c1.1,1,2.2,2,3.3,3h111.2C993.8,635.4,995,634.4,996.1,633.4z"/>
	<rect x="1039.8" y="633.4" class="st0" width="38.4" height="3"/>
	<path class="st0" d="M1369.6,615.4c0.6,1,1.3,2,1.9,3h42.2c-1.5-0.9-2.9-1.9-4.2-3H1369.6z"/>
	<path class="st0" d="M1419.5,621.4h-45.8c0.7,1,1.5,2,2.3,3h53.3C1425.7,623.7,1422.5,622.7,1419.5,621.4z"/>
	<path class="st0" d="M1170.8,621.4c-0.3,1-0.5,2-0.7,3H1340v-3H1170.8z"/>
	<path class="st0" d="M1340,633.4h-171.7c-0.2,1-0.3,2-0.5,3H1340V633.4z"/>
	<path class="st0" d="M1349.6,501.4c-0.1,1-0.1,2-0.2,3h36.3c0-1,0.1-2,0.1-3H1349.6z"/>
	<path class="st0" d="M1350.7,489.4c-0.1,1-0.2,2-0.3,3h35.9c0.1-1,0.1-2,0.2-3H1350.7z"/>
	<path class="st0" d="M1350.1,495.4c-0.1,1-0.2,2-0.3,3h36.1c0-1,0.1-2,0.2-3H1350.1z"/>
	<path class="st0" d="M1352.5,477.4c-0.2,1-0.3,2-0.5,3h35.4c0.1-1,0.2-2,0.4-3H1352.5z"/>
	<path class="st0" d="M1351.5,483.4c-0.1,1-0.3,2-0.4,3h35.6c0.1-1,0.2-2,0.3-3H1351.5z"/>
	<path class="st0" d="M1530.8,465.4h-34.6c0.2,1,0.4,2,0.6,3h34.7C1531.3,467.4,1531.1,466.4,1530.8,465.4z"/>
	<path class="st0" d="M1353.7,471.4c-0.2,1-0.4,2-0.6,3h35.1c0.1-1,0.3-2,0.5-3H1353.7z"/>
	<path class="st0" d="M1355.1,465.4c-0.2,1-0.5,2-0.7,3h34.8c0.2-1,0.4-2,0.6-3H1355.1z"/>
	<path class="st0" d="M1349.1,531.4c0,1,0.1,2,0.1,3h36.4c0-1,0-2-0.1-3H1349.1z"/>
	<path class="st0" d="M1349.2,507.4c0,1-0.1,2-0.1,3h36.4c0-1,0-2,0.1-3H1349.2z"/>
	<path class="st0" d="M1350.9,555.4c0.1,1,0.3,2,0.4,3h35.8c-0.1-1-0.2-2-0.3-3H1350.9z"/>
	<path class="st0" d="M1349.7,543.4c0.1,1,0.2,2,0.2,3h36.1c-0.1-1-0.1-2-0.2-3H1349.7z"/>
	<path class="st0" d="M1350.2,549.4c0.1,1,0.2,2,0.3,3h36c-0.1-1-0.2-2-0.2-3H1350.2z"/>
	<path class="st0" d="M1349.4,537.4c0.1,1,0.1,2,0.2,3h36.3c0-1-0.1-2-0.1-3H1349.4z"/>
	<path class="st0" d="M1349,513.4c0,1,0,2-0.1,3h36.5c0-1,0-2,0-3H1349z"/>
	<path class="st0" d="M1349,525.4c0,1,0,2,0.1,3h36.5c0-1,0-2,0-3H1349z"/>
	<path class="st0" d="M1385.4,519.4h-36.5c0,0.5,0,0.9,0,1.4s0,1.1,0,1.6h36.5c0-0.5,0-1.1,0-1.6S1385.4,519.9,1385.4,519.4z"/>
	<path class="st0" d="M851.2,468.4h31.2c0.2-1,0.5-2,0.7-3h-31.3C851.6,466.4,851.4,467.4,851.2,468.4z"/>
	<rect x="398.3" y="549.4" class="st0" width="34.2" height="3"/>
	<path class="st0" d="M441.9,504.4c0.6-1,1.3-2.1,2-3h-45.6v3H441.9z"/>
	<path class="st0" d="M433.7,528.4c0.2-1,0.3-2,0.5-3h-35.9v3H433.7z"/>
	<path class="st0" d="M438.7,510.4c0.5-1,1-2,1.5-3h-41.9v3H438.7z"/>
	<path class="st0" d="M436.4,516.4c0.3-1,0.7-2,1.1-3h-39.2v3H436.4z"/>
	<path class="st0" d="M432.5,546.4v-1.7c0-0.5,0-0.9,0-1.3h-34.2v3H432.5z"/>
	<path class="st0" d="M1581.4,459.4H1547c-0.1,1-0.1,2-0.2,3h34.2C1581.2,461.4,1581.3,460.4,1581.4,459.4z"/>
	<path class="st0" d="M432.6,540.4c0-1,0.1-2,0.1-3h-34.4v3H432.6z"/>
	<path class="st0" d="M434.8,522.4c0.2-1,0.5-2,0.8-3h-37.2v3H434.8z"/>
	<path class="st0" d="M610.8,474.4h115.6c-1.3-1-2.6-2-3.9-3H614.7C613.4,472.4,612.1,473.4,610.8,474.4z"/>
	<path class="st0" d="M441.4,474.4h104.3c-1.1-1-2.1-2-3.3-3h-98.2C443.2,472.4,442.3,473.4,441.4,474.4z"/>
	<rect x="398.3" y="471.4" class="st0" width="34.2" height="3"/>
	<path class="st0" d="M881.1,474.4c0.2-1,0.4-2,0.6-3h-31.1c-0.2,1-0.4,2-0.5,3H881.1z"/>
	<rect x="398.3" y="477.4" class="st0" width="34.2" height="3"/>
	<path class="st0" d="M452.8,492.4c1.5-1.1,3.1-2.1,4.7-3h-59.2v3H452.8z"/>
	<path class="st0" d="M446.3,498.4c0.9-1.1,1.9-2.1,2.9-3h-50.9v3H446.3z"/>
	<rect x="398.3" y="483.4" class="st0" width="34.2" height="3"/>
	<rect x="398.3" y="615.4" class="st0" width="34.2" height="3"/>
	<rect x="398.3" y="627.4" class="st0" width="34.2" height="3"/>
	<rect x="398.3" y="621.4" class="st0" width="34.2" height="3"/>
	<path class="st0" d="M372.2,612.4v-3h-45c-0.8,1.1-1.6,2.1-2.5,3H372.2z"/>
	<rect x="398.3" y="609.4" class="st0" width="34.2" height="3"/>
	<path class="st0" d="M724.5,639.4H615c1.5,1.1,3.1,2.1,4.7,3h100C721.3,641.5,722.9,640.5,724.5,639.4z"/>
	<path class="st0" d="M562.5,534.4c0-1,0-2,0-3h-35.3c0,1,0,2,0,3H562.5z"/>
	<rect x="527.1" y="639.4" class="st0" width="35.3" height="3"/>
	<rect x="398.3" y="639.4" class="st0" width="34.2" height="3"/>
	<rect x="398.3" y="567.4" class="st0" width="34.2" height="3"/>
	<rect x="398.3" y="555.4" class="st0" width="34.2" height="3"/>
	<path class="st0" d="M372.2,576.4v-3h-34c-0.1,1-0.1,2-0.2,3H372.2z"/>
	<rect x="398.3" y="561.4" class="st0" width="34.2" height="3"/>
	<path class="st0" d="M372.2,582.4v-3h-34.5c-0.1,1-0.2,2-0.4,3H372.2z"/>
	<path class="st0" d="M372.2,600.4v-3h-38.6c-0.4,1-0.8,2-1.2,3H372.2z"/>
	<path class="st0" d="M372.2,606.4v-3H331c-0.5,1-1.1,2-1.7,3H372.2z"/>
	<path class="st0" d="M372.2,588.4v-3h-35.4c-0.2,1-0.4,2-0.6,3H372.2z"/>
	<path class="st0" d="M372.2,594.4v-3h-36.7c-0.3,1-0.6,2-0.9,3H372.2z"/>
	<path class="st0" d="M432.9,534.4c0.1-1,0.2-2,0.3-3h-34.9v3H432.9z"/>
	<path class="st0" d="M752.6,600.4c0.3-1,0.6-2,0.9-3h-33.8c-0.4,1-0.8,2-1.2,3H752.6z"/>
	<path class="st0" d="M562.5,540.4v-3h-35.3c0,0.4,0,0.8,0,1.3v1.7H562.5z"/>
	<path class="st0" d="M698.6,489.4c1.6,0.9,3.1,1.9,4.6,3h39.3c-0.7-1-1.3-2-2-3H698.6z"/>
	<path class="st0" d="M619.1,594.4c-0.3-1-0.6-2-0.9-3h-36.1c0.3,1,0.6,2,0.9,3H619.1z"/>
	<path class="st0" d="M860.9,609.4c0.5,1,1,2,1.5,3h35.9c-1-1-1.9-2-2.8-3H860.9z"/>
	<path class="st0" d="M901.8,615.4h-37.7c0.6,1,1.2,2,1.8,3h40.3C904.7,617.5,903.2,616.5,901.8,615.4z"/>
	<path class="st0" d="M581.3,588.4h36.1c-0.2-1-0.5-2-0.7-3h-36.2C580.8,586.4,581,587.4,581.3,588.4z"/>
	<path class="st0" d="M747.7,612.4c0.5-1,1-2,1.4-3h-35.9c-0.8,1-1.7,2-2.6,3H747.7z"/>
	<path class="st0" d="M744.4,618.4c0.6-1,1.2-2,1.8-3h-38.6c-1.3,1.1-2.6,2.1-4.1,3H744.4z"/>
	<path class="st0" d="M646.3,486.4c4-1.4,8.4-2.4,13.1-3h-57.9c0,0.1-0.1,0.1-0.1,0.2c-0.8,0.9-1.6,1.9-2.4,2.8H646.3z"/>
	<path class="st0" d="M886.8,504.4h114c-1-1-2-2-3-3H889.7C888.7,502.4,887.7,503.4,886.8,504.4z"/>
	<path class="st0" d="M755.7,588.4c0.1-0.5,0.2-1,0.3-1.5l-18.9-1.5h-14.4c-0.2,1-0.3,2-0.5,3H755.7z"/>
	<path class="st0" d="M437,480.4h113.9c-0.7-1-1.5-2-2.4-3H439.1C438.4,478.4,437.7,479.4,437,480.4z"/>
	<path class="st0" d="M558.2,495.4h-41.6c1,1,1.8,2,2.6,3h39.9C558.8,497.4,558.5,496.4,558.2,495.4z"/>
	<path class="st0" d="M552.9,483.4H435.2c-0.5,1-1.1,2-1.6,3h30.7c6.5-2.2,12.8-2.8,17.6-2.8c6.6,0,14,0.1,21.2,2.8h51.5
		C554.1,485.4,553.5,484.4,552.9,483.4z"/>
	<path class="st0" d="M1186.3,585.4c-0.6,1-1.3,2-1.9,3h38.4c1-1,2-2,3-3H1186.3z"/>
	<path class="st0" d="M858.2,603.4c0.4,1,0.8,2,1.3,3h33.6c-0.7-1-1.4-2-2-3H858.2z"/>
	<path class="st0" d="M641.5,621.4h-45c0.8,1,1.6,2,2.4,3h50.6C646.7,623.6,644,622.6,641.5,621.4z"/>
	<path class="st0" d="M750.4,606.4c0.4-1,0.8-2,1.1-3H717c-0.5,1-1.1,2-1.7,3H750.4z"/>
	<path class="st0" d="M846.2,537.4c0,1,0.1,2,0.1,3h41.2c0.4-1,0.9-2,1.4-3H846.2z"/>
	<path class="st0" d="M846.4,543.4c0,1,0.1,2,0.2,3h38.7c0.3-1,0.7-2,1-3H846.4z"/>
	<path class="st0" d="M846.8,549.4c0.1,1,0.1,2,0.2,3h36.7c0.2-1,0.4-2,0.7-3H846.8z"/>
	<path class="st0" d="M846.1,531.4c0,1,0,2,0,3h44.4c0.6-1,1.3-2,1.9-3H846.1z"/>
	<path class="st0" d="M756.7,531.4h-33.5c0.1,1,0.2,2,0.3,3h33.7C757.1,533.4,756.9,532.4,756.7,531.4z"/>
	<path class="st0" d="M744.3,495.4h-37.6c1,0.9,2,1.9,2.9,3h36.3C745.4,497.4,744.9,496.4,744.3,495.4z"/>
	<path class="st0" d="M747.5,501.4h-35.4c0.5,0.6,0.9,1.3,1.4,1.9c0.2,0.3,0.5,0.7,0.7,1.1h34.7
		C748.4,503.4,747.9,502.4,747.5,501.4z"/>
	<path class="st0" d="M847.3,555.4c0.1,1,0.2,2,0.3,3h35.2c0.1-1,0.3-2,0.4-3H847.3z"/>
	<path class="st0" d="M853.1,588.4h31.6c-0.3-1-0.5-2-0.7-3h-31.7C852.6,586.4,852.8,587.4,853.1,588.4z"/>
	<path class="st0" d="M1020.2,591.4h-32.3c-0.3,1-0.6,2-0.9,3h32.4C1019.7,593.4,1020,592.4,1020.2,591.4z"/>
	<path class="st0" d="M855.9,597.4c0.4,1,0.7,2,1.1,3h32.4c-0.5-1-1-2-1.5-3H855.9z"/>
	<path class="st0" d="M989.3,585.4c-0.2,1-0.4,2-0.6,3h32.2c0.2-1,0.4-2,0.6-3H989.3z"/>
	<path class="st0" d="M854,591.4c0.3,1,0.6,2,0.9,3h31.7c-0.4-1-0.7-2-1.1-3H854z"/>
	<path class="st0" d="M847.9,561.4c0.1,1,0.2,2,0.4,3h34c0-1,0.1-2,0.2-3H847.9z"/>
	<path class="st0" d="M850.9,579.4c0.2,1,0.4,2,0.7,3h31.8c-0.2-1-0.3-2-0.5-3H850.9z"/>
	<path class="st0" d="M882.2,567.4h-33.5c0.1,1,0.3,2,0.5,3h33c0-0.7,0-1.4,0-2.1C882.2,568,882.2,567.7,882.2,567.4z"/>
	<path class="st0" d="M849.7,573.4c0.2,1,0.4,2,0.6,3h32.3c-0.1-1-0.2-2-0.2-3H849.7z"/>
	<path class="st0" d="M755.1,591.4h-33.5c-0.3,1-0.5,2-0.8,3h33.6C754.6,593.4,754.9,592.4,755.1,591.4z"/>
	<path class="st0" d="M1057,657.4c-0.2,1-0.3,2-0.5,3h20.9c0.1-1,0.3-2,0.4-3H1057z"/>
	<path class="st0" d="M1053.3,669.4c-0.6,1.1-1.2,2.1-1.9,3h22.9c0.4-1,0.7-2,1.1-3H1053.3z"/>
	<path class="st0" d="M1055.7,663.4c-0.3,1.1-0.7,2.1-1,3h21.5c0.3-1,0.5-2,0.7-3H1055.7z"/>
	<path class="st0" d="M872.5,627.4c0.9,1,1.7,2,2.6,3h124.1c1-1,1.9-2,2.8-3H872.5z"/>
	<path class="st0" d="M1057.6,651.4c0,1-0.1,2-0.2,3h20.7c0.1-1,0.1-2,0.1-3H1057.6z"/>
	<path class="st0" d="M1727.2,612.4h40.5c-1-1-1.9-2-2.8-3h-39.1C1726.2,610.4,1726.7,611.4,1727.2,612.4z"/>
	<path class="st0" d="M1570.4,408.4h118.5c-1-1-2.1-2-3.2-3h-111.8C1572.6,406.4,1571.5,407.4,1570.4,408.4z"/>
	<path class="st0" d="M1637.1,519.4c-1.6,1-3.1,2-4.7,3h51.1c1-1,2-2,3-3H1637.1z"/>
	<path class="st0" d="M1590.8,549.4c-1.3,1-2.6,2-3.9,3h55.3c0.9-0.5,1.7-1.1,2.6-1.6c0.8-0.5,1.5-0.9,2.3-1.4H1590.8z"/>
	<path class="st0" d="M1859,575.5c0,0.3,0,0.6,0,0.9h33.8c0-0.4,0-0.8,0-1.3c0-0.6,0-1.2,0-1.7H1859
		C1858.9,574.1,1859,574.8,1859,575.5z"/>
	<path class="st0" d="M1848.7,459.6c0,0.9,0,1.9-0.1,2.8h33.5c0-0.8,0.1-1.6,0.1-2.4c0-0.2,0-0.4,0-0.6h-33.4
		C1848.7,459.5,1848.7,459.5,1848.7,459.6z"/>
	<path class="st0" d="M1048.7,675.4c-1.3,1.2-2.7,2.2-4.1,3h26.9c0.6-1,1.1-2,1.6-3H1048.7z"/>
	<rect x="145" y="383.6" class="st0" width="34.6" height="0.8"/>
	<path class="st0" d="M1737.3,627.4c0.9,1,1.8,2,2.8,3h131.1c1-1,2-2,2.9-3H1737.3z"/>
	<path class="st0" d="M1040.2,681.4v3h27.1c0.8-1,1.6-2,2.3-3H1040.2z"/>
	<path class="st0" d="M1040.2,687.4v3h20.8c1.2-0.9,2.4-1.9,3.5-3H1040.2z"/>
	<path class="st0" d="M1040.2,693.4v3h10.3c2.1-0.9,4.2-1.9,6.1-3H1040.2z"/>
	<path class="st0" d="M61.8,573.4H27.2v1.7c0,0.4,0,0.8,0,1.3h34.7C61.8,575.4,61.8,574.4,61.8,573.4z"/>
	<path class="st0" d="M1323.9,414.4c-0.8-1-1.6-2-2.5-3h-124.3c-0.9,1-1.8,2-2.7,3H1323.9z"/>
	<path class="st0" d="M1369.2,429.4c-0.6,1-1.1,2-1.7,3h36.4c0.9-1,1.8-2.1,2.8-3H1369.2z"/>
	<path class="st0" d="M372.2,570.4v-3h-33.8c0,1,0,2-0.1,3H372.2z"/>
	<path class="st0" d="M1200.1,408.4h118.5c-1-1-2.1-2-3.2-3h-111.8C1202.4,406.4,1201.2,407.4,1200.1,408.4z"/>
	<path class="st0" d="M1220.6,549.4c-1.3,1-2.6,2-3.9,3h55.3c0.9-0.5,1.7-1.1,2.6-1.6c0.8-0.5,1.5-0.9,2.3-1.4H1220.6z"/>
	<path class="st0" d="M1172.5,615.4c-0.3,1-0.6,2-0.9,3h33.4c0.3-1,0.5-2,0.8-3H1172.5z"/>
	<path class="st0" d="M330.5,633.4H223.7c1,1,2,2,3.1,3h100.9C328.7,635.4,329.6,634.4,330.5,633.4z"/>
	<path class="st0" d="M1266.9,519.4c-1.6,1-3.1,2-4.7,3h51.1c1-1,2-2,3-3H1266.9z"/>
	<path class="st0" d="M651.6,456.4h33.6c-5.4-0.9-11-1.3-16.6-1.3C662.8,455.1,657.1,455.5,651.6,456.4z"/>
	<path class="st0" d="M1500.6,520.8c0,0.5,0,1.1,0,1.6h36.5c0-0.5,0-1.1,0-1.6s0-0.9,0-1.4h-36.5
		C1500.6,519.9,1500.6,520.3,1500.6,520.8z"/>
	<path class="st0" d="M1542.7,615.4c-0.3,1-0.6,2-0.9,3h33.4c0.3-1,0.5-2,0.8-3H1542.7z"/>
	<path class="st0" d="M1556.5,585.4c-0.6,1-1.3,2-1.9,3h38.4c1-1,2-2,3-3H1556.5z"/>
	<path class="st0" d="M179.6,576.4v-3H145v1.4c0,0.5,0,1.1,0,1.6H179.6z"/>
	<rect x="338.4" y="645.4" class="st0" width="33.8" height="3"/>
	<rect x="398.3" y="459.6" class="st0" width="34.2" height="2.8"/>
	<path class="st0" d="M706.3,462.4c-2.7-1.1-5.5-2.1-8.3-3h-59.2c-2.8,0.9-5.5,1.9-8.2,3H706.3z"/>
	<path class="st0" d="M562.4,528.4c0-1,0-2-0.1-3h-35.4c0,1,0.1,2,0.1,3H562.4z"/>
	<path class="st0" d="M1166.7,645.4c-0.1,1-0.2,2-0.3,3H1340v-3H1166.7z"/>
	<path class="st0" d="M1182.7,591.4c-0.5,1-1.1,2-1.6,3h36.4c0.8-1,1.7-2,2.5-3H1182.7z"/>
	<path class="st0" d="M989.8,582.4h32.2c0.2-1,0.3-2,0.4-3h-32.2C990,580.4,989.9,581.4,989.8,582.4z"/>
	<path class="st0" d="M1190.4,579.4c-0.7,1-1.4,2-2.1,3h40.7c1.1-1,2.3-2,3.5-3H1190.4z"/>
	<path class="st0" d="M629.4,612.4c-0.9-1-1.7-1.9-2.5-3h-37.8c0.5,1,1,2,1.6,3H629.4z"/>
	<path class="st0" d="M990.7,561.4c0,1,0.1,2,0.1,3h32.3c0-1,0-2-0.1-3H990.7z"/>
	<path class="st0" d="M990.7,573.4c-0.1,1-0.1,2-0.2,3h32.3c0.1-1,0.2-2,0.2-3H990.7z"/>
	<path class="st0" d="M985.9,597.4c-0.4,1-0.8,2-1.3,3h32.9c0.4-1,0.7-2,1-3H985.9z"/>
	<path class="st0" d="M989.4,549.4c0.2,1,0.4,2,0.5,3h32.4c-0.1-1-0.3-2-0.4-3H989.4z"/>
	<path class="st0" d="M990.9,567.4c0,1,0,2,0,3h32.3c0-1,0.1-2,0.1-3H990.9z"/>
	<path class="st0" d="M990.3,555.4c0.1,1,0.2,2,0.3,3h32.3c-0.1-1-0.2-2-0.3-3H990.3z"/>
	<path class="st0" d="M1006.7,621.4h-44.8c-3.3,1.3-7,2.3-10.9,3h53.5C1005.2,623.4,1006,622.4,1006.7,621.4z"/>
	<path class="st0" d="M751.2,510.4c-0.4-1-0.7-2-1.1-3h-34.2c0.5,1,1,2,1.4,3H751.2z"/>
	<path class="st0" d="M912.2,621.4H868c0.7,1,1.4,2,2.2,3h52C918.5,623.7,915.2,622.7,912.2,621.4z"/>
	<path class="st0" d="M636.3,618.4c-1.4-0.9-2.7-1.9-3.9-3h-40c0.6,1,1.3,2,2,3H636.3z"/>
	<path class="st0" d="M972.7,615.4c-1.4,1.1-2.9,2.1-4.5,3h40.6c0.6-1,1.2-2,1.8-3H972.7z"/>
	<rect x="1039.8" y="609.4" class="st0" width="38.4" height="3"/>
	<path class="st0" d="M983,603.4c-0.6,1-1.2,2-1.9,3h34c0.4-1,0.8-2,1.2-3H983z"/>
	<path class="st0" d="M978.9,609.4c-0.9,1.1-1.8,2-2.8,3h36.1c0.5-1,1-2,1.5-3H978.9z"/>
	<path class="st0" d="M1215.1,597.4h-35.6c-0.5,1-1,2-1.4,3h34.9C1213.7,599.4,1214.4,598.4,1215.1,597.4z"/>
	<path class="st0" d="M922.3,483.4c-3.2,0.8-6.3,1.8-9.4,3h61c-3.1-1.2-6.2-2.2-9.5-3H922.3z"/>
	<path class="st0" d="M604.3,480.4H733c-1-1-2-2-3.1-3H607.4C606.4,478.4,605.3,479.4,604.3,480.4z"/>
	<path class="st0" d="M560.4,504.4c-0.2-1-0.4-2-0.6-3h-38.5c0.6,1,1.1,2,1.6,3H560.4z"/>
	<path class="st0" d="M849.6,477.4c-0.2,1-0.3,2-0.5,3H880c0.2-1,0.3-2,0.5-3H849.6z"/>
	<path class="st0" d="M557.2,492.4c-0.4-1-0.8-2-1.2-3h-46.8c1.4,0.9,2.8,1.9,4.1,3H557.2z"/>
	<path class="st0" d="M561.3,510.4c-0.1-1-0.3-2-0.4-3h-36.8c0.3,1,0.7,2,0.9,3H561.3z"/>
	<path class="st0" d="M987.9,543.4c0.3,1,0.6,2,0.8,3h32.6c-0.2-1-0.4-2-0.6-3H987.9z"/>
	<path class="st0" d="M561.9,516.4c-0.1-1-0.2-2-0.3-3h-35.9c0.2,1,0.4,2,0.5,3H561.9z"/>
	<path class="st0" d="M562.2,522.4c0-1-0.1-2-0.1-3h-35.5c0.1,1,0.2,2,0.2,3H562.2z"/>
	<path class="st0" d="M971.7,519.4c1.3,0.9,2.5,1.9,3.7,3h37.9c-0.5-1-1-2-1.6-3H971.7z"/>
	<path class="st0" d="M978.3,525.4c0.8,1,1.7,2,2.4,3h35.3c-0.4-1-0.8-2-1.3-3H978.3z"/>
	<path class="st0" d="M982.7,531.4c0.6,1,1.2,2,1.7,3h33.8c-0.3-1-0.7-2-1-3H982.7z"/>
	<path class="st0" d="M906.3,489.4c-1.8,0.9-3.5,1.9-5.2,3h85c-1.7-1.1-3.5-2.1-5.3-3H906.3z"/>
	<path class="st0" d="M985.8,537.4c0.4,1,0.8,2,1.2,3h33c-0.3-1-0.5-2-0.8-3H985.8z"/>
	<path class="st0" d="M896.7,495.4c-1.3,1-2.5,2-3.8,3h101.5c-1.2-1-2.5-2-3.8-3H896.7z"/>
	<path class="st0" d="M884.2,507.4c-0.8,1-1.6,2-2.3,3h49.4c1.9-0.2,3.9-0.2,6-0.2c2.3,0,4.5,0.1,6.7,0.2h61.9c-0.8-1-1.6-2-2.4-3
		H884.2z"/>
	<path class="st0" d="M959.6,513.4c2.5,0.8,4.9,1.8,7.1,3h43.2c-0.6-1-1.3-2-1.9-3H959.6z"/>
	<path class="st0" d="M742.4,621.4H698c-2.6,1.2-5.4,2.2-8.5,3h50.8C741,623.4,741.7,622.4,742.4,621.4z"/>
	<path class="st0" d="M848.7,483.4c-0.1,1-0.3,2-0.4,3h30.9c0.1-1,0.2-2,0.4-3H848.7z"/>
	<path class="st0" d="M692.2,486.4h46.1c-0.8-1-1.6-2-2.5-3h-56.4C684,484,688.3,485,692.2,486.4z"/>
	<path class="st0" d="M848,489.4c-0.1,1-0.2,2-0.3,3h30.9c0.1-1,0.2-2,0.3-3H848z"/>
	<path class="st0" d="M847.4,495.4c-0.1,1-0.2,2-0.3,3h31c0.1-1,0.1-2,0.2-3H847.4z"/>
	<path class="st0" d="M627.8,498.4c0.9-1,1.9-2,3-3h-38.2c-0.6,1-1.2,2-1.8,3H627.8z"/>
	<path class="st0" d="M623.6,504.4c0.2-0.4,0.4-0.7,0.6-1.1c0.4-0.7,0.8-1.3,1.3-1.9h-36.3c-0.5,1-1,2-1.5,3H623.6z"/>
	<path class="st0" d="M634.5,492.4c1.5-1.1,3.2-2.1,4.9-3h-42.8c-0.7,1-1.4,2-2.1,3H634.5z"/>
	<path class="st0" d="M847,501.4c-0.1,1-0.1,2-0.2,3h31.1c0-1,0.1-2,0.1-3H847z"/>
	<path class="st0" d="M620.5,510.4c0.4-1,0.9-2,1.4-3h-35.5c-0.4,1-0.8,2-1.2,3H620.5z"/>
	<path class="st0" d="M846.1,525.4c0,1,0,2,0,3l0,0h48.6c0.8-1,1.7-2,2.7-3H846.1z"/>
	<path class="st0" d="M846.6,507.4c-0.1,1-0.1,2-0.1,3h31.2c0-1,0-2,0.1-3H846.6z"/>
	<path class="st0" d="M754.8,522.4c-0.3-1-0.5-2-0.8-3h-33.4c0.3,1,0.6,2,0.8,3H754.8z"/>
	<path class="st0" d="M753.2,516.4c-0.3-1-0.6-2-1-3h-33.7c0.4,1,0.7,2,1.1,3H753.2z"/>
	<path class="st0" d="M756.2,528.4c-0.2-1-0.4-2-0.6-3h-33.4c0.2,1,0.4,2,0.6,3H756.2z"/>
	<path class="st0" d="M846.2,519.4c0,1,0,2,0,3h54.4c1.2-1.1,2.6-2.1,3.9-3H846.2z"/>
	<path class="st0" d="M846.3,516.4h31.4c0-1,0-2,0-3h-31.3C846.3,514.4,846.3,515.4,846.3,516.4z"/>
	<path class="st0" d="M879.9,513.4c-0.6,1-1.3,2-1.9,3h31.5c2.2-1.2,4.6-2.2,7.1-3H879.9z"/>
	<path class="st0" d="M758.8,552.4c0-1-0.1-2-0.1-3H577.5c0,1,0,2-0.1,3H758.8z"/>
	<path class="st0" d="M614.9,570.4c-0.1-1-0.1-2-0.1-3H578c0.1,1,0.1,2,0.2,3H614.9z"/>
	<rect x="527.1" y="585.4" class="st0" width="35.3" height="3"/>
	<rect x="527.1" y="579.4" class="st0" width="35.3" height="3"/>
	<path class="st0" d="M615.4,576.4c-0.1-1-0.2-2-0.3-3h-36.5c0.1,1,0.2,2,0.4,3H615.4z"/>
	<path class="st0" d="M616.2,582.4c-0.2-1-0.3-2-0.5-3h-36.3c0.2,1,0.4,2,0.5,3H616.2z"/>
	<rect x="527.1" y="591.4" class="st0" width="35.3" height="3"/>
	<path class="st0" d="M620.2,597.4h-36.3c0.3,1,0.7,2,1.1,3h36.4C621,599.4,620.6,598.4,620.2,597.4z"/>
	<rect x="527.1" y="597.4" class="st0" width="35.3" height="3"/>
	<path class="st0" d="M624.7,606.4c-0.6-1-1.2-2-1.8-3h-36.8c0.4,1,0.9,2,1.4,3H624.7z"/>
	<path class="st0" d="M615.1,534.4c0-0.9,0.1-2,0.2-3h-36c-0.2,1-0.3,2-0.5,3H615.1z"/>
	<path class="st0" d="M615.7,528.4c0.1-1,0.3-2,0.5-3h-35.6c-0.2,1-0.4,2-0.6,3H615.7z"/>
	<path class="st0" d="M616.8,522.4c0.2-1,0.4-2,0.7-3h-35.4c-0.3,1-0.5,2-0.8,3H616.8z"/>
	<path class="st0" d="M758,540.4c-0.1-1-0.2-2-0.4-3H578.5c-0.1,1-0.2,2-0.3,3H758z"/>
	<path class="st0" d="M758.9,558.4c0-1,0-2,0-3H577.5c0,1,0,2,0,3H758.9z"/>
	<path class="st0" d="M758.6,546.4c-0.1-1-0.1-2-0.2-3H577.9c-0.1,1-0.1,2-0.2,3H758.6z"/>
	<path class="st0" d="M758.7,564.4c0.1-1,0.1-2,0.1-3H577.6c0,1,0.1,2,0.1,3H758.7z"/>
	<path class="st0" d="M618.3,516.4c0.3-1,0.7-2,1-3H584c-0.4,1-0.7,2-1,3H618.3z"/>
	<path class="st0" d="M1358.6,591.4c0.3,1,0.7,2,1,3h35.3c-0.4-1-0.8-2-1.2-3H1358.6z"/>
	<path class="st0" d="M1730.1,429.4c-0.5,1-1,2-1.4,3h38c0.8-1,1.6-2,2.5-3H1730.1z"/>
	<path class="st0" d="M1733.5,423.4c-0.6,1-1.2,2-1.8,3h40.5c1.2-1.1,2.5-2.1,3.8-3H1733.5z"/>
	<path class="st0" d="M1727.4,435.4c-0.4,1-0.8,2-1.1,3h36.6c0.5-1,1.1-2,1.8-3H1727.4z"/>
	<path class="st0" d="M1737.7,417.4c-0.8,1-1.5,2-2.2,3h45.6c2.4-1.2,5.1-2.2,7.9-3H1737.7z"/>
	<path class="st0" d="M1567.4,411.4c-0.9,1-1.8,2-2.7,3h129.5c-0.8-1-1.6-2-2.5-3H1567.4z"/>
	<path class="st0" d="M1595.2,393.4c-2.5,0.9-4.9,1.9-7.1,3h84.2c-2.1-1.1-4.3-2.1-6.6-3H1595.2z"/>
	<path class="st0" d="M1653.5,420.4h44.9c-0.6-1-1.3-2-2-3h-51.7C1647.9,418.1,1650.8,419.1,1653.5,420.4z"/>
	<path class="st0" d="M1582.4,399.4c-1.6,1-3.2,2-4.6,3h104.1c-1.4-1-2.8-2.1-4.3-3H1582.4z"/>
	<path class="st0" d="M1725.3,441.4c-0.3,1-0.6,2-0.9,3h35.7c0.4-1,0.8-2,1.3-3H1725.3z"/>
	<path class="st0" d="M1674.1,477.4c-0.3,1-0.6,2-1,3h35c0.2-1,0.4-2,0.6-3H1674.1z"/>
	<path class="st0" d="M1672,483.4c-0.4,1-0.9,2-1.4,3h36.1c0.3-1,0.6-2,0.8-3H1672z"/>
	<path class="st0" d="M1675.4,471.4c-0.2,1-0.3,2-0.6,3h34.3c0.1-1,0.2-2,0.3-3H1675.4z"/>
	<path class="st0" d="M1605.2,390.4h51.4c-7.5-2-15.6-3-24.3-3C1622.2,387.4,1613.2,388.5,1605.2,390.4z"/>
	<path class="st0" d="M1668.9,489.4c-0.6,1-1.2,2-1.9,3h37.5c0.4-1,0.8-2,1.1-3H1668.9z"/>
	<path class="st0" d="M1721.8,459.4c-0.1,1-0.2,2-0.2,3h34.3c0.1-1,0.2-2,0.4-3H1721.8z"/>
	<path class="st0" d="M1722.5,453.4c-0.2,1-0.3,2-0.4,3h34.6c0.2-1,0.4-2,0.6-3H1722.5z"/>
	<path class="st0" d="M1723.7,447.4c-0.2,1-0.4,2-0.6,3h35.1c0.3-1,0.6-2,0.9-3H1723.7z"/>
	<path class="st0" d="M1721.4,465.4c0,0.2,0,0.4,0,0.7l14.9,2.3h19.2c0-0.9,0-1.9,0.1-3H1721.4z"/>
	<rect x="145" y="459.4" class="st0" width="34.6" height="3"/>
	<rect x="145" y="441.4" class="st0" width="34.6" height="3"/>
	<rect x="145" y="423.4" class="st0" width="34.6" height="3"/>
	<rect x="145" y="435.4" class="st0" width="34.6" height="3"/>
	<rect x="145" y="429.4" class="st0" width="34.6" height="3"/>
	<rect x="145" y="447.4" class="st0" width="34.6" height="3"/>
	<rect x="145" y="465.4" class="st0" width="34.6" height="3"/>
	<rect x="145" y="453.4" class="st0" width="34.6" height="3"/>
	<path class="st0" d="M1664.8,495.4c-0.8,1-1.6,2-2.5,3h39.4c0.5-1,1-2,1.4-3H1664.8z"/>
	<path class="st0" d="M980.8,396.4c-2-1.1-4.1-2.1-6.3-3h-69.3c-2.4,0.9-4.7,1.9-7,3H980.8z"/>
	<path class="st0" d="M915.1,390.4h50.7c-7.1-1.9-15.1-3-23.9-3C932,387.4,923.2,388.4,915.1,390.4z"/>
	<rect x="145" y="393.4" class="st0" width="34.6" height="3"/>
	<path class="st0" d="M1418.7,390.4h48.1c-7.4-2-15.4-3-24-3S1426.2,388.4,1418.7,390.4z"/>
	<path class="st0" d="M1234.9,390.4h51.4c-7.5-2-15.6-3-24.3-3C1252,387.4,1243,388.5,1234.9,390.4z"/>
	<rect x="145" y="405.4" class="st0" width="34.6" height="3"/>
	<rect x="145" y="411.4" class="st0" width="34.6" height="3"/>
	<rect x="145" y="399.4" class="st0" width="34.6" height="3"/>
	<rect x="145" y="417.4" class="st0" width="34.6" height="3"/>
	<path class="st0" d="M1627.6,525.4c-1.7,1-3.3,2-4.9,3h54.1c1.2-1,2.3-2,3.4-3H1627.6z"/>
	<rect x="1039.8" y="645.4" class="st0" width="38.4" height="3"/>
	<path class="st0" d="M961.1,651.4h-49.7c7.3,1.8,15.4,2.8,24.4,2.8C945.1,654.2,953.5,653.2,961.1,651.4z"/>
	<path class="st0" d="M301.3,651.4H255c7.3,1.9,15.4,2.8,24.4,2.8C287.3,654.2,294.6,653.2,301.3,651.4z"/>
	<path class="st0" d="M695.9,651.4h-53.2c8.1,1.9,16.8,2.8,26.3,2.8C678.7,654.2,687.7,653.2,695.9,651.4z"/>
	<path class="st0" d="M1659.6,501.4c-1,1-2,2-3,3h41.8c0.6-1,1.2-2,1.8-3H1659.6z"/>
	<path class="st0" d="M1538.5,633.4c-0.2,1-0.3,2-0.5,3h172.2v-3H1538.5z"/>
	<path class="st0" d="M1536.9,645.4c-0.1,1-0.2,2-0.3,3h173.6v-3H1536.9z"/>
	<path class="st0" d="M1539.6,627.4c-0.2,1-0.4,2-0.6,3h171.2v-3H1539.6z"/>
	<path class="st0" d="M1537.6,639.4c-0.1,1-0.3,2-0.4,3h173v-3H1537.6z"/>
	<path class="st0" d="M309.9,648.4c2.1-0.9,4.1-1.9,6-3h-76.5c2.1,1.1,4.2,2.1,6.4,3H309.9z"/>
	<path class="st0" d="M173.9,612.4c0.4-1,0.7-2,1.1-3h-37c-0.6,1-1.3,2-2.1,3H173.9z"/>
	<path class="st0" d="M171.3,618.4c0.5-1,1-2,1.4-3h-39.5c-1.1,1.1-2.3,2.1-3.7,3H171.3z"/>
	<path class="st0" d="M167.9,624.4c0.6-1,1.2-2,1.8-3h-45.9c-4,1.6-8.7,2.7-14.2,3H167.9z"/>
	<path class="st0" d="M175.9,606.4c0.3-1,0.6-2,0.8-3h-35.9c-0.4,1-0.8,2-1.3,3H175.9z"/>
	<path class="st0" d="M1541,621.4c-0.3,1-0.5,2-0.7,3h169.9v-3H1541z"/>
	<path class="st0" d="M320.7,642.4c1.3-0.9,2.6-1.9,3.8-3h-94.2c1.3,1.1,2.7,2.1,4.1,3H320.7z"/>
	<path class="st0" d="M264.2,621.4h-48.9c0.5,1,1,2,1.6,3h56C270,623.8,267.1,622.8,264.2,621.4z"/>
	<path class="st0" d="M332.8,630.4c0.7-1,1.4-2,2-3h-116c0.7,1,1.4,2,2.2,3H332.8z"/>
	<path class="st0" d="M1466.1,651.4h-47.7c7.6,1.8,15.7,2.8,24.4,2.8C1451.1,654.2,1458.9,653.2,1466.1,651.4z"/>
	<path class="st0" d="M1617.8,531.4c-1.7,1-3.3,2-4.8,3h56.4c1.3-1,2.6-2,3.9-3H1617.8z"/>
	<path class="st0" d="M1608.2,537.4c-1.5,1-3.1,2-4.6,3h57.3c1.4-1,2.9-2,4.3-3H1608.2z"/>
	<path class="st0" d="M1781.4,621.4h-48.8c0.7,1,1.5,2,2.2,3h56.3C1787.7,623.7,1784.4,622.7,1781.4,621.4z"/>
	<path class="st0" d="M1583.3,555.4c-1.2,1-2.3,2-3.5,3h52.7c1.6-1,3.2-2,4.8-3H1583.3z"/>
	<path class="st0" d="M1645.8,513.4c-1.4,1-2.8,2-4.2,3h47.7c0.9-1,1.7-2,2.6-3H1645.8z"/>
	<rect x="145" y="471.4" class="st0" width="34.6" height="3"/>
	<path class="st0" d="M1653.3,507.4c-1.2,1-2.4,2-3.6,3h44.6c0.7-1,1.5-2,2.2-3H1653.3z"/>
	<path class="st0" d="M1576.6,561.4c-1,1-2.1,2-3.1,3h49.7c1.5-1,3.1-2,4.6-3H1576.6z"/>
	<path class="st0" d="M1599.2,543.4c-1.4,1-2.9,2-4.3,3h56.9c1.5-1,3.1-2,4.6-3H1599.2z"/>
	<path class="st0" d="M1721.4,597.4c0.3,1,0.6,2,0.9,3h36.4c-0.5-1-1-2-1.5-3H1721.4z"/>
	<path class="st0" d="M1720,591.4c0.2,1,0.4,2,0.7,3h35.3c-0.4-1-0.8-2-1.1-3H1720z"/>
	<path class="st0" d="M1723.3,603.4c0.4,1,0.8,2,1.2,3h38c-0.7-1-1.4-2-2-3H1723.3z"/>
	<path class="st0" d="M1739.3,567.4l-20.1,3h31.9c0-1-0.1-2-0.1-3H1739.3z"/>
	<path class="st0" d="M1728.8,615.4c0.6,1,1.2,2,1.8,3h44.9c-1.5-0.9-3-1.9-4.4-3H1728.8z"/>
	<path class="st0" d="M1718,573.4c0,1,0,2,0.1,3h33.5c-0.1-1-0.2-2-0.3-3H1718z"/>
	<path class="st0" d="M1718.3,579.4c0.1,1,0.2,2,0.3,3h33.9c-0.2-1-0.4-2-0.5-3H1718.3z"/>
	<path class="st0" d="M1718.9,585.4c0.1,1,0.3,2,0.4,3h34.5c-0.3-1-0.5-2-0.8-3H1718.9z"/>
	<path class="st0" d="M1749.5,405.4c-1.2,1-2.4,2-3.5,3h116.7c-1.1-1-2.1-2-3.3-3H1749.5z"/>
	<path class="st0" d="M1847.3,543.4c1,0.9,1.9,1.9,2.7,3h37.7c-0.4-1-0.8-2-1.2-3H1847.3z"/>
	<path class="st0" d="M1821,531.4c4.1,0.7,8,1.7,11.6,3h49.2c-0.6-1-1.3-2-2-3H1821z"/>
	<path class="st0" d="M1835,489.4c-1.3,1.1-2.8,2.1-4.3,3h41.1c0.7-1,1.3-2,2-3H1835z"/>
	<path class="st0" d="M1839.1,537.4c1.6,0.9,3.2,1.9,4.6,3h41.3c-0.5-1-1-2-1.6-3H1839.1z"/>
	<path class="st0" d="M1785.3,525.4v3h92.1c-0.9-1-1.7-2-2.7-3H1785.3z"/>
	<path class="st0" d="M1785.3,501.4v3h75.4c1.2-1,2.3-2,3.4-3H1785.3z"/>
	<path class="st0" d="M1824.9,495.4c-2.9,1.3-6,2.3-9.2,3h51.3c0.9-1,1.8-2,2.6-3H1824.9z"/>
	<path class="st0" d="M1785.3,507.4v3h66.3c1.7-0.9,3.4-1.9,5-3H1785.3z"/>
	<path class="st0" d="M1785.3,513.4v3h78.2c-1.9-1.1-3.8-2.1-5.9-3H1785.3z"/>
	<path class="st0" d="M1785.3,519.4v3h86.4c-1.2-1.1-2.4-2-3.7-3H1785.3z"/>
	<path class="st0" d="M1857.1,591.4c-0.3,1-0.5,2-0.9,3h34.6c0.2-1,0.4-2,0.6-3H1857.1z"/>
	<path class="st0" d="M1858.3,585.4c-0.1,1-0.3,2-0.5,3h34.1c0.1-1,0.3-2,0.4-3H1858.3z"/>
	<path class="st0" d="M1855.2,597.4c-0.4,1-0.9,2-1.3,3h35.4c0.3-1,0.6-2,0.8-3H1855.2z"/>
	<path class="st0" d="M1852.2,549.4c0.6,1,1.2,2,1.8,3h35.8c-0.3-1-0.6-2-0.9-3H1852.2z"/>
	<path class="st0" d="M1858.9,579.4c-0.1,1-0.1,2-0.2,3h33.9c0.1-1,0.1-2,0.2-3H1858.9z"/>
	<path class="st0" d="M1855.3,555.4c0.4,1,0.8,2,1.1,3h34.7c-0.2-1-0.4-2-0.7-3H1855.3z"/>
	<path class="st0" d="M1857.3,561.4c0.2,1,0.5,2,0.6,3h34.1c-0.1-1-0.3-2-0.4-3H1857.3z"/>
	<rect x="145" y="477.4" class="st0" width="34.6" height="3"/>
	<path class="st0" d="M1758.1,399.4c-1.6,1-3.1,1.9-4.6,3h102.2c-1.5-1.1-3-2.1-4.5-3H1758.1z"/>
	<path class="st0" d="M1742.9,411.4c-0.9,1-1.9,2-2.8,3H1868c-0.8-1-1.6-2-2.5-3H1742.9z"/>
	<path class="st0" d="M177.5,600.4c0.2-1,0.4-2,0.6-3h-35.3c-0.2,1-0.5,2-0.8,3H177.5z"/>
	<path class="st0" d="M1819.1,417.4c2.9,0.8,5.6,1.8,8.1,3h45c-0.6-1-1.3-2-1.9-3H1819.1z"/>
	<path class="st0" d="M1840.9,483.4c-0.8,1-1.7,2-2.6,3h37.3c0.5-1,1-2,1.5-3H1840.9z"/>
	<path class="st0" d="M1832.3,423.4c1.3,0.9,2.5,1.9,3.7,3h39.3c-0.5-1-1-2-1.5-3H1832.3z"/>
	<rect x="145" y="387.4" class="st0" width="34.6" height="3"/>
	<path class="st0" d="M1770.4,393.4c-2.3,0.9-4.6,1.9-6.8,3h82.1c-2.2-1.1-4.5-2.1-6.9-3H1770.4z"/>
	<path class="st0" d="M1779.8,390.4h49.4c-8-2-16.5-3-25.3-3C1795.4,387.4,1787.3,388.5,1779.8,390.4z"/>
	<path class="st0" d="M1852.2,603.4c-0.6,1-1.3,2-2,3h36.9c0.4-1,0.8-2,1.1-3H1852.2z"/>
	<path class="st0" d="M1848.4,453.4c0.1,1,0.2,2,0.2,3h33.4c0-1-0.1-2-0.2-3H1848.4z"/>
	<path class="st0" d="M1847.1,471.4c-0.3,1-0.6,2-1,3h34.2c0.3-1,0.5-2,0.7-3H1847.1z"/>
	<path class="st0" d="M1848.3,465.4c-0.1,1-0.3,2-0.5,3h33.7c0.2-1,0.3-2,0.4-3H1848.3z"/>
	<path class="st0" d="M1844.7,477.4c-0.5,1-1.1,2-1.7,3h35.3c0.4-1,0.7-2,1.1-3H1844.7z"/>
	<path class="st0" d="M1845.8,441.4c0.3,1,0.7,2,1,3h34.1c-0.2-1-0.4-2-0.6-3H1845.8z"/>
	<path class="st0" d="M1843.1,435.4c0.5,1,1,2,1.5,3h35c-0.3-1-0.6-2-0.8-3H1843.1z"/>
	<path class="st0" d="M1838.9,429.4c0.8,1,1.6,2,2.3,3h36.6c-0.4-1-0.7-2-1.1-3H1838.9z"/>
	<path class="st0" d="M1847.5,447.4c0.2,1,0.4,2,0.5,3h33.6c-0.1-1-0.2-2-0.4-3H1847.5z"/>
	<path class="st0" d="M1858.5,567.4c0.1,1,0.2,2,0.3,3h33.9c-0.1-1-0.1-2-0.2-3H1858.5z"/>
	<path class="st0" d="M62.8,588.4c-0.1-1-0.3-2-0.4-3H27.6c0.1,1,0.2,2,0.3,3H62.8z"/>
	<rect x="27.2" y="555.4" class="st0" width="34.6" height="3"/>
	<rect x="145" y="543.4" class="st0" width="34.6" height="3"/>
	<rect x="145" y="537.4" class="st0" width="34.6" height="3"/>
	<path class="st0" d="M61.8,570.4c0-0.2,0-0.4,0-0.6v-2.4H27.2v3H61.8z"/>
	<rect x="27.2" y="561.4" class="st0" width="34.6" height="3"/>
	<path class="st0" d="M62.2,582.4c-0.1-1-0.1-2-0.2-3H27.2c0,1,0.1,2,0.2,3H62.2z"/>
	<rect x="145" y="531.4" class="st0" width="34.6" height="3"/>
	<rect x="145" y="549.4" class="st0" width="34.6" height="3"/>
	<rect x="145" y="495.4" class="st0" width="34.6" height="3"/>
	<rect x="145" y="489.4" class="st0" width="34.6" height="3"/>
	<rect x="145" y="483.4" class="st0" width="34.6" height="3"/>
	<rect x="145" y="501.4" class="st0" width="34.6" height="3"/>
	<rect x="145" y="525.4" class="st0" width="34.6" height="3"/>
	<rect x="145" y="519.4" class="st0" width="34.6" height="3"/>
	<rect x="145" y="513.4" class="st0" width="34.6" height="3"/>
	<rect x="145" y="507.4" class="st0" width="34.6" height="3"/>
	<path class="st0" d="M63.9,594.4c-0.2-1-0.4-2-0.6-3h-35c0.1,1,0.3,2,0.5,3H63.9z"/>
	<path class="st0" d="M1778.9,651.4c7.8,1.8,16.2,2.8,25.3,2.8c9.1,0,17.9-0.9,26.1-2.8H1778.9z"/>
	<path class="st0" d="M1761.5,645.4c2.3,1.1,4.7,2.1,7.3,3h72.3c2.6-0.9,5.2-1.9,7.6-3H1761.5z"/>
	<path class="st0" d="M129.2,651.4H80.4c7.4,1.8,15.5,2.8,24.3,2.8C113.9,654.2,122,653.2,129.2,651.4z"/>
	<path class="st0" d="M1750.9,639.4c1.5,1,3.1,2.1,4.7,3h99.1c1.7-0.9,3.4-1.9,5.1-3H1750.9z"/>
	<path class="st0" d="M138.6,648.4c2.3-0.9,4.5-1.9,6.6-3H64.1c2.2,1.1,4.4,2.1,6.7,3H138.6z"/>
	<path class="st0" d="M1841.4,615.4c-1.5,1.1-3,2.1-4.6,3h44.2c0.6-1,1.2-2,1.8-3H1841.4z"/>
	<path class="st0" d="M1743.2,633.4c1.2,1,2.4,2,3.6,3h117.3c1.3-1,2.5-2,3.8-3H1743.2z"/>
	<path class="st0" d="M1830.3,621.4c-3.4,1.3-7,2.3-10.9,3h57.3c0.8-1,1.6-2,2.3-3H1830.3z"/>
	<path class="st0" d="M68.3,606.4c-0.5-1-1-2-1.4-3h-36c0.3,1,0.6,2,0.9,3H68.3z"/>
	<path class="st0" d="M1847.9,609.4c-0.9,1.1-1.9,2-2.9,3h39.4c0.5-1,1-2,1.4-3H1847.9z"/>
	<path class="st0" d="M79.4,618.4c-1.5-0.9-2.8-1.9-4.1-3H35.2c0.5,1,1,2,1.5,3H79.4z"/>
	<path class="st0" d="M72.4,612.4c-0.8-1-1.6-2-2.3-3H32.7c0.4,1,0.8,2,1.2,3H72.4z"/>
	<path class="st0" d="M150.3,642.4c1.5-1,2.9-2,4.2-3h-100c1.4,1,2.8,2.1,4.3,3H150.3z"/>
	<path class="st0" d="M65.6,600.4c-0.3-1-0.7-2-0.9-3H29.3c0.2,1,0.4,2,0.7,3H65.6z"/>
	<path class="st0" d="M158,636.4c1.1-1,2.1-2,3-3H47.6c1,1,2.1,2,3.2,3H158z"/>
	<path class="st0" d="M101,624.4c-6-0.3-11.1-1.4-15.4-3H38.4c0.6,1,1.2,2,1.9,3H101z"/>
	<path class="st0" d="M163.6,630.4c0.8-1,1.6-2,2.3-3H42.5c0.8,1,1.6,2,2.4,3H163.6z"/>
	<rect x="338.4" y="531.4" class="st0" width="33.8" height="3"/>
	<path class="st0" d="M246.2,600.4c-0.3-1-0.6-2-0.8-3H209c0.1,1,0.2,2,0.4,3H246.2z"/>
	<path class="st0" d="M248.6,606.4c-0.5-1-1-2-1.4-3h-37.4c0.2,1,0.4,2,0.6,3H248.6z"/>
	<path class="st0" d="M244.1,588.4c-0.1-1-0.1-2-0.2-3h-35.7c0,1,0.1,2,0.1,3H244.1z"/>
	<rect x="338.4" y="627.4" class="st0" width="33.8" height="3"/>
	<path class="st0" d="M252.6,612.4c-0.8-1-1.6-2-2.3-3H211c0.2,1,0.5,2,0.8,3H252.6z"/>
	<rect x="338.4" y="621.4" class="st0" width="33.8" height="3"/>
	<path class="st0" d="M259.2,618.4c-1.2-0.9-2.5-1.9-3.7-3h-42.7c0.4,1,0.7,2,1.1,3H259.2z"/>
	<path class="st0" d="M336.7,624.4c0.5-1,1.1-2,1.6-3h-26c-3.1,1.4-6.3,2.4-9.4,3H336.7z"/>
	<path class="st0" d="M372.2,615.4h-50.5c-1.3,1.1-2.6,2.1-4,3h54.5V615.4z"/>
	<path class="st0" d="M244.8,594.4c-0.2-1-0.3-2-0.4-3h-36c0.1,1,0.1,2,0.2,3H244.8z"/>
	<path class="st0" d="M243.8,582.4c0-1,0-2-0.1-3H208c0,1,0,2,0,3H243.8z"/>
	<rect x="338.4" y="561.4" class="st0" width="33.8" height="3"/>
	<rect x="338.4" y="549.4" class="st0" width="33.8" height="3"/>
	<rect x="338.4" y="543.4" class="st0" width="33.8" height="3"/>
	<rect x="338.4" y="555.4" class="st0" width="33.8" height="3"/>
	<rect x="208" y="561.4" class="st0" width="35.7" height="3"/>
	<path class="st0" d="M243.7,576.4c0-1,0-2,0-3H208c0,1,0,2,0,3H243.7z"/>
	<rect x="208" y="567.4" class="st0" width="35.7" height="3"/>
	<path class="st0" d="M1547,603.4c-0.4,1-0.8,2-1.2,3h33.9c0.5-1,1.1-2,1.6-3H1547z"/>
	<path class="st0" d="M1482.4,645.4h-80.6c2.2,1.1,4.5,2.1,6.9,3h66.9C1477.9,647.5,1480.2,646.5,1482.4,645.4z"/>
	<path class="st0" d="M1384.3,633.4c1.1,1,2.3,2,3.5,3h108.5c1.2-1,2.3-2,3.5-3H1384.3z"/>
	<path class="st0" d="M1391.7,639.4c1.5,1.1,3,2.1,4.6,3h91.5c1.6-0.9,3.1-1.9,4.6-3H1391.7z"/>
	<path class="st0" d="M1465.9,621.4c-3,1.3-6.2,2.3-9.7,3h52.1c0.8-1,1.6-2,2.4-3H1465.9z"/>
	<path class="st0" d="M1378.4,627.4c0.9,1,1.8,2,2.8,3h121.7c1-1,1.9-2,2.8-3H1378.4z"/>
	<rect x="338.4" y="537.4" class="st0" width="33.8" height="3"/>
	<path class="st0" d="M1544.7,609.4c-0.4,1-0.7,2-1,3h33.4c0.4-1,0.8-2,1.2-3H1544.7z"/>
	<path class="st0" d="M1475.8,615.4c-1.3,1.1-2.7,2.1-4.2,3h41.1c0.7-1,1.3-2,2-3H1475.8z"/>
	<rect x="527.1" y="645.4" class="st0" width="35.3" height="3"/>
	<rect x="398.3" y="645.4" class="st0" width="34.2" height="3"/>
	<rect x="338.4" y="633.4" class="st0" width="33.8" height="3"/>
	<rect x="338.4" y="639.4" class="st0" width="33.8" height="3"/>
	<path class="st0" d="M713.9,645.4h-88.5c2.3,1.1,4.7,2.1,7.2,3h74C709.1,647.5,711.5,646.5,713.9,645.4z"/>
	<path class="st0" d="M978.2,645.4H895c2.2,1.1,4.4,2.1,6.8,3h69.3C973.6,647.5,975.9,646.5,978.2,645.4z"/>
	<rect x="1039.8" y="639.4" class="st0" width="38.4" height="3"/>
	<path class="st0" d="M885.2,639.4c1.4,1,2.9,2,4.5,3h94.2c1.6-1,3.2-2,4.7-3H885.2z"/>
	<path class="st0" d="M1340,639.4h-172.6c-0.1,1-0.3,2-0.4,3h173V639.4z"/>
	<path class="st0" d="M1013.2,438.4c-0.3-1-0.6-2-1-3h-34c0.5,1,1.1,2,1.5,3H1013.2z"/>
	<path class="st0" d="M1011.2,432.4c-0.4-1-0.8-2-1.2-3h-35.8c0.8,1,1.6,2,2.3,3H1011.2z"/>
	<path class="st0" d="M1004.2,456.4l12.5-2.1c0-0.3-0.1-0.6-0.1-0.9h-32.2c0.2,1,0.3,2,0.5,3H1004.2z"/>
	<path class="st0" d="M962.6,420.4h42.9c-0.6-1-1.2-2-1.9-3h-49.4C957.2,418.1,960,419.2,962.6,420.4z"/>
	<path class="st0" d="M1236.7,420.4c2.8-1.2,5.9-2.3,9.2-3H1192c-0.7,1-1.5,2-2.1,3H1236.7z"/>
	<path class="st0" d="M1008.6,426.4c-0.5-1-1-2-1.5-3h-39.5c1.3,0.9,2.5,1.9,3.6,3H1008.6z"/>
	<path class="st0" d="M1549.8,597.4c-0.5,1-1,2-1.4,3h34.9c0.7-1,1.4-2,2.1-3H1549.8z"/>
	<path class="st0" d="M1016.1,450.4c-0.2-1-0.4-2-0.6-3H983c0.3,1,0.5,2,0.7,3H1016.1z"/>
	<path class="st0" d="M1014.9,444.4c-0.2-1-0.5-2-0.8-3h-33c0.4,1,0.7,2,1.1,3H1014.9z"/>
	<path class="st0" d="M1283.3,420.4h44.9c-0.6-1-1.3-2-2-3h-51.7C1277.6,418.1,1280.6,419.1,1283.3,420.4z"/>
	<path class="st0" d="M1552.4,435.4c-0.4,1-0.7,2-1.1,3h36.4c0.5-1,1.1-2,1.8-3H1552.4z"/>
	<path class="st0" d="M1550.4,441.4c-0.3,1-0.6,2-0.8,3h35.5c0.4-1,0.8-2,1.2-3H1550.4z"/>
	<path class="st0" d="M1555,429.4c-0.5,1-0.9,2-1.4,3h38c0.8-1,1.6-2,2.6-3H1555z"/>
	<path class="st0" d="M1548.8,447.4c-0.2,1-0.4,2-0.6,3h34.9c0.3-1,0.6-2,0.9-3H1548.8z"/>
	<path class="st0" d="M1481.9,432.4h36.3c-0.6-1-1.1-2-1.7-3h-37.4C1480.1,430.3,1481.1,431.4,1481.9,432.4z"/>
	<path class="st0" d="M1371,426.4h39.2c1.4-1.1,2.8-2.1,4.4-3h-41.5C1372.3,424.4,1371.7,425.4,1371,426.4z"/>
	<path class="st0" d="M1377.4,417.4c-0.8,1-1.6,2-2.3,3h45.6c3.6-1.4,7.5-2.4,11.7-3H1377.4z"/>
	<path class="st0" d="M1471.3,423.4c1.5,0.9,3,1.9,4.4,3h39c-0.6-1-1.3-2-2-3H1471.3z"/>
	<path class="st0" d="M447.5,468.4h91.1c-1.5-1.1-3-2.1-4.5-3h-82.6C450.1,466.3,448.8,467.3,447.5,468.4z"/>
	<rect x="338.4" y="483.4" class="st0" width="33.8" height="3"/>
	<rect x="338.4" y="501.4" class="st0" width="33.8" height="3"/>
	<rect x="338.4" y="495.4" class="st0" width="33.8" height="3"/>
	<rect x="338.4" y="489.4" class="st0" width="33.8" height="3"/>
	<rect x="338.4" y="507.4" class="st0" width="33.8" height="3"/>
	<rect x="338.4" y="513.4" class="st0" width="33.8" height="3"/>
	<rect x="338.4" y="525.4" class="st0" width="33.8" height="3"/>
	<rect x="338.4" y="519.4" class="st0" width="33.8" height="3"/>
	<path class="st0" d="M1547.7,453.4c-0.1,1-0.3,2-0.4,3h34.5c0.2-1,0.4-2,0.6-3H1547.7z"/>
	<path class="st0" d="M986.5,459.4h-1.3c0,0.1,0,0.1,0,0.2L986.5,459.4z"/>
	<path class="st0" d="M718,468.4c-1.7-1.1-3.5-2.1-5.3-3h-88.4c-1.8,0.9-3.5,1.9-5.2,3H718z"/>
	<path class="st0" d="M852.5,462.4h31.4c0.3-1,0.6-2,0.9-3h-31.6C853,460.4,852.8,461.4,852.5,462.4z"/>
	<rect x="338.4" y="477.4" class="st0" width="33.8" height="3"/>
	<rect x="398.3" y="465.4" class="st0" width="34.2" height="3"/>
	<rect x="338.4" y="471.4" class="st0" width="33.8" height="3"/>
	<rect x="338.4" y="465.4" class="st0" width="33.8" height="3"/>
	<rect x="338.4" y="459.6" class="st0" width="33.8" height="2.8"/>
	<path class="st0" d="M1498.5,561.4c-0.1,1-0.2,2-0.4,3h35.3c0.2-1,0.4-2,0.5-3H1498.5z"/>
	<path class="st0" d="M508.8,456.4c-5.5-0.9-11.4-1.3-17.8-1.3c-5.9,0-11.3,0.5-16.3,1.3H508.8z"/>
	<rect x="208" y="483.4" class="st0" width="35.7" height="3"/>
	<path class="st0" d="M891.3,444.4c0.6-1,1.1-2,1.7-3h-33.9c-0.4,1-0.8,2-1.2,3H891.3z"/>
	<path class="st0" d="M1552.9,591.4c-0.5,1-1.1,2-1.6,3h36.4c0.8-1,1.7-2,2.5-3H1552.9z"/>
	<path class="st0" d="M528.5,462.4c-2.4-1.1-4.9-2.1-7.5-3h-57.6c-2.4,0.9-4.7,1.9-6.8,3H528.5z"/>
	<rect x="208" y="459.6" class="st0" width="35.7" height="2.8"/>
	<rect x="208" y="471.4" class="st0" width="35.7" height="3"/>
	<rect x="208" y="477.4" class="st0" width="35.7" height="3"/>
	<rect x="208" y="465.4" class="st0" width="35.7" height="3"/>
	<path class="st0" d="M885.9,456.4c0.4-1,0.7-2,1.1-3h-32.1c-0.3,1-0.6,2-0.9,3H885.9z"/>
	<path class="st0" d="M996.4,408.4c-1-1-2-2-3-3H884.3c-1.2,1-2.3,2-3.5,3H996.4z"/>
	<path class="st0" d="M1001.4,414.4c-0.8-1-1.5-2-2.4-3H877.8c-0.9,1-1.8,2-2.7,3H1001.4z"/>
	<path class="st0" d="M888.2,402.4h101.7c-1.3-1-2.7-2.1-4.1-3h-93C891.2,400.3,889.7,401.3,888.2,402.4z"/>
	<path class="st0" d="M1311.6,402.4c-1.4-1-2.8-2.1-4.3-3h-95.1c-1.6,1-3.2,2-4.6,3H1311.6z"/>
	<path class="st0" d="M916.7,420.4c3-1.3,6.1-2.3,9.5-3h-53.7c-0.8,1-1.5,2-2.2,3H916.7z"/>
	<path class="st0" d="M895,438.4c0.7-1,1.5-2,2.2-3h-35.5c-0.5,1-0.9,2-1.4,3H895z"/>
	<path class="st0" d="M899.8,432.4c1-1,2-2,3-3h-38.1c-0.5,1-1.1,2-1.6,3H899.8z"/>
	<path class="st0" d="M906.4,426.4c1.4-1.1,2.9-2.1,4.5-3h-42.5c-0.6,1-1.3,2-1.9,3H906.4z"/>
	<rect x="208" y="537.4" class="st0" width="35.7" height="3"/>
	<rect x="145" y="555.4" class="st0" width="34.6" height="3"/>
	<rect x="208" y="489.4" class="st0" width="35.7" height="3"/>
	<rect x="208" y="543.4" class="st0" width="35.7" height="3"/>
	<rect x="208" y="549.4" class="st0" width="35.7" height="3"/>
	<rect x="208" y="555.4" class="st0" width="35.7" height="3"/>
	<rect x="145" y="567.4" class="st0" width="34.6" height="3"/>
	<path class="st0" d="M179.2,588.4c0.1-1,0.1-2,0.2-3h-34.8c-0.1,1-0.2,2-0.3,3H179.2z"/>
	<path class="st0" d="M179.5,582.4c0-0.8,0-1.6,0-2.3v-0.7h-34.6c0,1-0.1,2-0.1,3H179.5z"/>
	<rect x="145" y="561.4" class="st0" width="34.6" height="3"/>
	<rect x="208" y="507.4" class="st0" width="35.7" height="3"/>
	<rect x="208" y="501.4" class="st0" width="35.7" height="3"/>
	<path class="st0" d="M1217.8,396.4h84.2c-2.1-1.1-4.3-2.1-6.6-3h-70.5C1222.5,394.3,1220.1,395.3,1217.8,396.4z"/>
	<rect x="208" y="513.4" class="st0" width="35.7" height="3"/>
	<rect x="208" y="495.4" class="st0" width="35.7" height="3"/>
	<rect x="208" y="531.4" class="st0" width="35.7" height="3"/>
	<rect x="208" y="519.4" class="st0" width="35.7" height="3"/>
	<rect x="208" y="525.4" class="st0" width="35.7" height="3"/>
	<path class="st0" d="M888.3,450.4c0.4-1,0.9-2,1.4-3h-32.9c-0.3,1-0.7,2-1,3H888.3z"/>
	<path class="st0" d="M1500.4,531.4c0,1,0,2-0.1,3h36.3c0-1,0.1-2,0.1-3H1500.4z"/>
	<path class="st0" d="M1500.4,507.4c0,1,0,2,0.1,3h36.4c0-1-0.1-2-0.1-3H1500.4z"/>
	<path class="st0" d="M1500.5,525.4c0,1,0,2,0,3h36.4c0-1,0-2,0.1-3H1500.5z"/>
	<path class="st0" d="M1500.2,501.4c0,1,0.1,2,0.1,3h36.3c-0.1-1-0.1-2-0.2-3H1500.2z"/>
	<path class="st0" d="M1500.5,513.4c0,1,0,2,0,3h36.5c0-1,0-2-0.1-3H1500.5z"/>
	<path class="st0" d="M1498.9,483.4c0.1,1,0.2,2,0.3,3h35.6c-0.1-1-0.3-2-0.4-3H1498.9z"/>
	<path class="st0" d="M1499.9,495.4c0.1,1,0.1,2,0.2,3h36.1c-0.1-1-0.2-2-0.3-3H1499.9z"/>
	<path class="st0" d="M1499.5,489.4c0.1,1,0.2,2,0.2,3h35.9c-0.1-1-0.2-2-0.3-3H1499.5z"/>
	<path class="st0" d="M1498.2,477.4c0.1,1,0.3,2,0.4,3h35.3c-0.2-1-0.3-2-0.5-3H1498.2z"/>
	<path class="st0" d="M1409.6,393.4c-2.3,0.9-4.5,1.9-6.6,3h79.6c-2.1-1.1-4.4-2.1-6.6-3H1409.6z"/>
	<path class="st0" d="M1570.6,567.4c-0.9,1-1.8,2-2.7,3h46.6c1.4-1,2.9-2,4.3-3H1570.6z"/>
	<path class="st0" d="M178.5,594.4c0.1-1,0.3-2,0.4-3h-35c-0.2,1-0.3,2-0.5,3H178.5z"/>
	<path class="st0" d="M1560.6,579.4c-0.7,1-1.4,2-2.1,3h40.7c1.1-1,2.3-2,3.5-3H1560.6z"/>
	<path class="st0" d="M1500.3,537.4c0,1-0.1,2-0.1,3h36.2c0.1-1,0.1-2,0.2-3H1500.3z"/>
	<path class="st0" d="M1499.2,555.4c-0.1,1-0.2,2-0.3,3h35.6c0.1-1,0.3-2,0.4-3H1499.2z"/>
	<path class="st0" d="M1500,543.4c-0.1,1-0.1,2-0.2,3h36c0.1-1,0.2-2,0.3-3H1500z"/>
	<path class="st0" d="M1499.6,549.4c-0.1,1-0.2,2-0.2,3h35.8c0.1-1,0.2-2,0.3-3H1499.6z"/>
	<path class="st0" d="M1565.3,573.4c-0.8,1-1.6,2-2.4,3h43.5c1.3-1,2.6-2,3.9-3H1565.3z"/>
	<path class="st0" d="M1556.5,426.4h40.8c1.3-1.1,2.6-2.1,4-3h-43.1C1557.7,424.4,1557.1,425.4,1556.5,426.4z"/>
	<path class="st0" d="M1562.3,417.4c-0.7,1-1.5,2-2.1,3h46.8c2.8-1.2,5.9-2.3,9.2-3H1562.3z"/>
	<path class="st0" d="M1465.1,420.4h45.5c-0.8-1-1.5-2-2.3-3h-55C1457.5,418,1461.5,419,1465.1,420.4z"/>
	<path class="st0" d="M1658.8,423.4c1.3,0.9,2.6,1.9,3.8,3h39.1c-0.5-1-1-2-1.6-3H1658.8z"/>
	<path class="st0" d="M1389.3,405.4c-1.2,1-2.3,2-3.4,3h113.9c-1.1-1-2.3-2-3.5-3H1389.3z"/>
	<path class="st0" d="M1497.4,471.4c0.2,1,0.3,2,0.5,3h35c-0.2-1-0.4-2-0.6-3H1497.4z"/>
	<path class="st0" d="M1665.5,429.4c0.8,1,1.6,2,2.3,3h36.5c-0.4-1-0.8-2-1.2-3H1665.5z"/>
	<path class="st0" d="M1382.8,411.4c-1,1-1.9,2-2.8,3h125.7c-0.9-1-1.9-2-2.8-3H1382.8z"/>
	<path class="st0" d="M1397.7,399.4c-1.5,0.9-3,1.9-4.5,3h99.2c-1.5-1.1-3-2.1-4.5-3H1397.7z"/>
	<path class="st0" d="M1709.8,465.4H1676c0,1-0.1,2-0.2,3h33.9C1709.8,467.4,1709.8,466.4,1709.8,465.4z"/>
	<path class="st0" d="M1675.9,459.4c0.1,1,0.1,2,0.1,3h33.8c0-1,0-2-0.1-3H1675.9z"/>
	<path class="st0" d="M1546.8,465.4c0,0.5,0,1,0,1.4l9.9,1.6h23.9c0-1,0.1-2,0.1-3H1546.8z"/>
	<path class="st0" d="M1575.8,471.4l4.8,0.8c0-0.2,0-0.5,0-0.8H1575.8z"/>
	<path class="st0" d="M1672.4,441.4c0.4,1,0.7,2,1,3h34.4c-0.2-1-0.5-2-0.7-3H1672.4z"/>
	<path class="st0" d="M1669.7,435.4c0.5,1,1,2,1.5,3h35.1c-0.3-1-0.6-2-0.9-3H1669.7z"/>
	<path class="st0" d="M1675.3,453.4c0.1,1,0.2,2,0.3,3h33.9c-0.1-1-0.2-2-0.3-3H1675.3z"/>
	<path class="st0" d="M1674.2,447.4c0.2,1,0.5,2,0.6,3h34c-0.1-1-0.3-2-0.5-3H1674.2z"/>
</g>
</svg>
