<?xml version="1.0" encoding="utf-8"?>
<!-- Generator: Adobe Illustrator 26.2.1, SVG Export Plug-In . SVG Version: 6.00 Build 0)  -->
<svg version="1.1" id="Layer_1" xmlns="http://www.w3.org/2000/svg" xmlns:xlink="http://www.w3.org/1999/xlink" x="0px" y="0px"
	 viewBox="0 0 1920 1080" style="enable-background:new 0 0 1920 1080;" xml:space="preserve">
<style type="text/css">
	.st0{fill:#E5E5E5;}
</style>
<path class="st0" d="M75,714c55.5,0,55.5,72,111,72c55.5,0,55.5-72,111-72c55.5,0,55.5,72,111,72c55.5,0,55.5-72,111-72
	c55.5,0,55.5,72,111,72c55.5,0,55.5-72,111-72c55.5,0,55.5,72,111,72c55.5,0,55.5-72,111-72c55.5,0,55.5,72,111,72s55.5-72,111-72
	c55.5,0,55.5,72,111,72s55.5-72,111-72c55.5,0,55.5,72,111,72c55.5,0,55.5-72,111-72c55.5,0,55.5,72,111,72c55.5,0,55.5-72,111-72
	c36.5,0,49,31.1,69,52.4V0H0v772.2C23.8,751.3,35,714,75,714z"/>
<g>
	<rect x="1443" y="666" class="st0" width="6" height="414"/>
	<rect x="1272" y="666" class="st0" width="6" height="414"/>
	<rect x="1299" y="666" class="st0" width="6" height="414"/>
	<rect x="1308" y="666" class="st0" width="6" height="414"/>
	<rect x="1263" y="666" class="st0" width="6" height="414"/>
	<rect x="1290" y="666" class="st0" width="6" height="414"/>
	<rect x="1218" y="666" class="st0" width="6" height="414"/>
	<rect x="1227" y="666" class="st0" width="6" height="414"/>
	<rect x="1254" y="666" class="st0" width="6" height="414"/>
	<rect x="1317" y="666" class="st0" width="6" height="414"/>
	<rect x="1236" y="666" class="st0" width="6" height="414"/>
	<rect x="1245" y="666" class="st0" width="6" height="414"/>
	<rect x="1281" y="666" class="st0" width="6" height="414"/>
	<rect x="1407" y="666" class="st0" width="6" height="414"/>
	<rect x="1398" y="666" class="st0" width="6" height="414"/>
	<rect x="1416" y="666" class="st0" width="6" height="414"/>
	<rect x="1434" y="666" class="st0" width="6" height="414"/>
	<rect x="1389" y="666" class="st0" width="6" height="414"/>
	<rect x="1425" y="666" class="st0" width="6" height="414"/>
	<rect x="1353" y="666" class="st0" width="6" height="414"/>
	<rect x="1344" y="666" class="st0" width="6" height="414"/>
	<rect x="1326" y="666" class="st0" width="6" height="414"/>
	<rect x="1335" y="666" class="st0" width="6" height="414"/>
	<rect x="1380" y="666" class="st0" width="6" height="414"/>
	<rect x="1362" y="666" class="st0" width="6" height="414"/>
	<rect x="1371" y="666" class="st0" width="6" height="414"/>
	<rect x="1209" y="666" class="st0" width="6" height="414"/>
	<rect x="1047" y="666" class="st0" width="6" height="414"/>
	<rect x="1038" y="666" class="st0" width="6" height="414"/>
	<rect x="1056" y="666" class="st0" width="6" height="414"/>
	<rect x="1083" y="666" class="st0" width="6" height="414"/>
	<rect x="966" y="666" class="st0" width="6" height="414"/>
	<rect x="1065" y="666" class="st0" width="6" height="414"/>
	<rect x="1029" y="666" class="st0" width="6" height="414"/>
	<rect x="993" y="666" class="st0" width="6" height="414"/>
	<rect x="984" y="666" class="st0" width="6" height="414"/>
	<rect x="975" y="666" class="st0" width="6" height="414"/>
	<rect x="1020" y="666" class="st0" width="6" height="414"/>
	<rect x="1002" y="666" class="st0" width="6" height="414"/>
	<rect x="1011" y="666" class="st0" width="6" height="414"/>
	<rect x="1146" y="666" class="st0" width="6" height="414"/>
	<rect x="1092" y="666" class="st0" width="6" height="414"/>
	<rect x="1155" y="666" class="st0" width="6" height="414"/>
	<rect x="1173" y="666" class="st0" width="6" height="414"/>
	<rect x="1164" y="666" class="st0" width="6" height="414"/>
	<rect x="1191" y="666" class="st0" width="6" height="414"/>
	<rect x="1182" y="666" class="st0" width="6" height="414"/>
	<rect x="1200" y="666" class="st0" width="6" height="414"/>
	<rect x="1110" y="666" class="st0" width="6" height="414"/>
	<rect x="1101" y="666" class="st0" width="6" height="414"/>
	<rect x="1128" y="666" class="st0" width="6" height="414"/>
	<rect x="1137" y="666" class="st0" width="6" height="414"/>
	<rect x="1119" y="666" class="st0" width="6" height="414"/>
	<rect x="1074" y="666" class="st0" width="6" height="414"/>
	<rect x="1776" y="666" class="st0" width="6" height="414"/>
	<rect x="1767" y="666" class="st0" width="6" height="414"/>
	<rect x="1749" y="666" class="st0" width="6" height="414"/>
	<rect x="1758" y="666" class="st0" width="6" height="414"/>
	<rect x="1785" y="666" class="st0" width="6" height="414"/>
	<rect x="1794" y="666" class="st0" width="6" height="414"/>
	<rect x="1704" y="666" class="st0" width="6" height="414"/>
	<rect x="1452" y="666" class="st0" width="6" height="414"/>
	<rect x="1695" y="666" class="st0" width="6" height="414"/>
	<rect x="1740" y="666" class="st0" width="6" height="414"/>
	<rect x="1713" y="666" class="st0" width="6" height="414"/>
	<rect x="1722" y="666" class="st0" width="6" height="414"/>
	<rect x="1731" y="666" class="st0" width="6" height="414"/>
	<rect x="1686" y="666" class="st0" width="6" height="414"/>
	<rect x="1884" y="666" class="st0" width="6" height="414"/>
	<rect x="1866" y="666" class="st0" width="6" height="414"/>
	<rect x="1875" y="666" class="st0" width="6" height="414"/>
	<rect x="1893" y="666" class="st0" width="6" height="414"/>
	<rect x="1902" y="666" class="st0" width="6" height="414"/>
	<rect x="1812" y="666" class="st0" width="6" height="414"/>
	<rect x="1911" y="666" class="st0" width="6" height="414"/>
	<rect x="1830" y="666" class="st0" width="6" height="414"/>
	<rect x="1857" y="666" class="st0" width="6" height="414"/>
	<rect x="1821" y="666" class="st0" width="6" height="414"/>
	<rect x="1839" y="666" class="st0" width="6" height="414"/>
	<rect x="1848" y="666" class="st0" width="6" height="414"/>
	<rect x="1803" y="666" class="st0" width="6" height="414"/>
	<rect x="1524" y="666" class="st0" width="6" height="414"/>
	<rect x="1533" y="666" class="st0" width="6" height="414"/>
	<rect x="1515" y="666" class="st0" width="6" height="414"/>
	<rect x="1551" y="666" class="st0" width="6" height="414"/>
	<rect x="1542" y="666" class="st0" width="6" height="414"/>
	<rect x="1506" y="666" class="st0" width="6" height="414"/>
	<rect x="1677" y="666" class="st0" width="6" height="414"/>
	<rect x="1560" y="666" class="st0" width="6" height="414"/>
	<rect x="1497" y="666" class="st0" width="6" height="414"/>
	<rect x="1461" y="666" class="st0" width="6" height="414"/>
	<rect x="1488" y="666" class="st0" width="6" height="414"/>
	<rect x="1479" y="666" class="st0" width="6" height="414"/>
	<rect x="1470" y="666" class="st0" width="6" height="414"/>
	<rect x="1569" y="666" class="st0" width="6" height="414"/>
	<rect x="1641" y="666" class="st0" width="6" height="414"/>
	<rect x="1632" y="666" class="st0" width="6" height="414"/>
	<rect x="1650" y="666" class="st0" width="6" height="414"/>
	<rect x="1659" y="666" class="st0" width="6" height="414"/>
	<rect x="1668" y="666" class="st0" width="6" height="414"/>
	<rect x="1623" y="666" class="st0" width="6" height="414"/>
	<rect x="1614" y="666" class="st0" width="6" height="414"/>
	<rect x="1578" y="666" class="st0" width="6" height="414"/>
	<rect x="1587" y="666" class="st0" width="6" height="414"/>
	<rect x="1596" y="666" class="st0" width="6" height="414"/>
	<rect x="1605" y="666" class="st0" width="6" height="414"/>
	<rect x="183" y="666" class="st0" width="6" height="414"/>
	<rect x="327" y="666" class="st0" width="6" height="414"/>
	<rect x="309" y="666" class="st0" width="6" height="414"/>
	<rect x="318" y="666" class="st0" width="6" height="414"/>
	<rect x="336" y="666" class="st0" width="6" height="414"/>
	<rect x="354" y="666" class="st0" width="6" height="414"/>
	<rect x="345" y="666" class="st0" width="6" height="414"/>
	<rect x="363" y="666" class="st0" width="6" height="414"/>
	<rect x="300" y="666" class="st0" width="6" height="414"/>
	<rect x="264" y="666" class="st0" width="6" height="414"/>
	<rect x="255" y="666" class="st0" width="6" height="414"/>
	<rect x="273" y="666" class="st0" width="6" height="414"/>
	<rect x="282" y="666" class="st0" width="6" height="414"/>
	<rect x="291" y="666" class="st0" width="6" height="414"/>
	<rect x="471" y="666" class="st0" width="6" height="414"/>
	<rect x="444" y="666" class="st0" width="6" height="414"/>
	<rect x="372" y="666" class="st0" width="6" height="414"/>
	<rect x="435" y="666" class="st0" width="6" height="414"/>
	<rect x="426" y="666" class="st0" width="6" height="414"/>
	<rect x="462" y="666" class="st0" width="6" height="414"/>
	<rect x="246" y="666" class="st0" width="6" height="414"/>
	<rect x="453" y="666" class="st0" width="6" height="414"/>
	<rect x="381" y="666" class="st0" width="6" height="414"/>
	<rect x="417" y="666" class="st0" width="6" height="414"/>
	<rect x="390" y="666" class="st0" width="6" height="414"/>
	<rect x="408" y="666" class="st0" width="6" height="414"/>
	<rect x="399" y="666" class="st0" width="6" height="414"/>
	<rect x="210" y="666" class="st0" width="6" height="414"/>
	<rect x="57" y="666" class="st0" width="6" height="414"/>
	<rect x="66" y="666" class="st0" width="6" height="414"/>
	<rect x="84" y="666" class="st0" width="6" height="414"/>
	<rect x="75" y="666" class="st0" width="6" height="414"/>
	<rect x="93" y="666" class="st0" width="6" height="414"/>
	<rect x="111" y="666" class="st0" width="6" height="414"/>
	<rect x="102" y="666" class="st0" width="6" height="414"/>
	<rect x="12" y="666" class="st0" width="6" height="414"/>
	<rect x="3" y="666" class="st0" width="6" height="414"/>
	<rect x="48" y="666" class="st0" width="6" height="414"/>
	<rect x="21" y="666" class="st0" width="6" height="414"/>
	<rect x="30" y="666" class="st0" width="6" height="414"/>
	<rect x="39" y="666" class="st0" width="6" height="414"/>
	<rect x="219" y="666" class="st0" width="6" height="414"/>
	<rect x="480" y="666" class="st0" width="6" height="414"/>
	<rect x="201" y="666" class="st0" width="6" height="414"/>
	<rect x="174" y="666" class="st0" width="6" height="414"/>
	<rect x="192" y="666" class="st0" width="6" height="414"/>
	<rect x="237" y="666" class="st0" width="6" height="414"/>
	<rect x="228" y="666" class="st0" width="6" height="414"/>
	<rect x="120" y="666" class="st0" width="6" height="414"/>
	<rect x="138" y="666" class="st0" width="6" height="414"/>
	<rect x="129" y="666" class="st0" width="6" height="414"/>
	<rect x="165" y="666" class="st0" width="6" height="414"/>
	<rect x="156" y="666" class="st0" width="6" height="414"/>
	<rect x="147" y="666" class="st0" width="6" height="414"/>
	<rect x="570" y="666" class="st0" width="6" height="414"/>
	<rect x="804" y="666" class="st0" width="6" height="414"/>
	<rect x="786" y="666" class="st0" width="6" height="414"/>
	<rect x="795" y="666" class="st0" width="6" height="414"/>
	<rect x="813" y="666" class="st0" width="6" height="414"/>
	<rect x="840" y="666" class="st0" width="6" height="414"/>
	<rect x="831" y="666" class="st0" width="6" height="414"/>
	<rect x="489" y="666" class="st0" width="6" height="414"/>
	<rect x="741" y="666" class="st0" width="6" height="414"/>
	<rect x="723" y="666" class="st0" width="6" height="414"/>
	<rect x="732" y="666" class="st0" width="6" height="414"/>
	<rect x="777" y="666" class="st0" width="6" height="414"/>
	<rect x="768" y="666" class="st0" width="6" height="414"/>
	<rect x="759" y="666" class="st0" width="6" height="414"/>
	<rect x="750" y="666" class="st0" width="6" height="414"/>
	<rect x="930" y="666" class="st0" width="6" height="414"/>
	<rect x="903" y="666" class="st0" width="6" height="414"/>
	<rect x="912" y="666" class="st0" width="6" height="414"/>
	<rect x="921" y="666" class="st0" width="6" height="414"/>
	<rect x="939" y="666" class="st0" width="6" height="414"/>
	<rect x="948" y="666" class="st0" width="6" height="414"/>
	<rect x="858" y="666" class="st0" width="6" height="414"/>
	<rect x="894" y="666" class="st0" width="6" height="414"/>
	<rect x="867" y="666" class="st0" width="6" height="414"/>
	<rect x="849" y="666" class="st0" width="6" height="414"/>
	<rect x="876" y="666" class="st0" width="6" height="414"/>
	<rect x="885" y="666" class="st0" width="6" height="414"/>
	<rect x="822" y="666" class="st0" width="6" height="414"/>
	<rect x="561" y="666" class="st0" width="6" height="414"/>
	<rect x="957" y="666" class="st0" width="6" height="414"/>
	<rect x="552" y="666" class="st0" width="6" height="414"/>
	<rect x="714" y="666" class="st0" width="6" height="414"/>
	<rect x="543" y="666" class="st0" width="6" height="414"/>
	<rect x="579" y="666" class="st0" width="6" height="414"/>
	<rect x="534" y="666" class="st0" width="6" height="414"/>
	<rect x="597" y="666" class="st0" width="6" height="414"/>
	<rect x="498" y="666" class="st0" width="6" height="414"/>
	<rect x="507" y="666" class="st0" width="6" height="414"/>
	<rect x="525" y="666" class="st0" width="6" height="414"/>
	<rect x="516" y="666" class="st0" width="6" height="414"/>
	<rect x="588" y="666" class="st0" width="6" height="414"/>
	<rect x="678" y="666" class="st0" width="6" height="414"/>
	<rect x="687" y="666" class="st0" width="6" height="414"/>
	<rect x="669" y="666" class="st0" width="6" height="414"/>
	<rect x="660" y="666" class="st0" width="6" height="414"/>
	<rect x="696" y="666" class="st0" width="6" height="414"/>
	<rect x="705" y="666" class="st0" width="6" height="414"/>
	<rect x="651" y="666" class="st0" width="6" height="414"/>
	<rect x="615" y="666" class="st0" width="6" height="414"/>
	<rect x="624" y="666" class="st0" width="6" height="414"/>
	<rect x="633" y="666" class="st0" width="6" height="414"/>
	<rect x="606" y="666" class="st0" width="6" height="414"/>
	<rect x="642" y="666" class="st0" width="6" height="414"/>
</g>
<g>
	<path d="M1302.2,480c0.1,1,0.1,2,0.1,3h33.8c0-1,0-2-0.1-3H1302.2z"/>
	<path d="M1302.3,486c0,1-0.1,2-0.2,3h33.9c0-1,0.1-2,0.1-3H1302.3z"/>
	<path d="M1334.2,465c-0.2-1-0.5-2-0.7-3h-34.7c0.4,1,0.7,2,1,3H1334.2z"/>
	<path d="M1207,492.8c0-0.2,0-0.5,0-0.8h-4.8L1207,492.8z"/>
	<path d="M1296,456c0.5,1,1,2,1.5,3h35.1c-0.3-1-0.6-2-0.9-3H1296z"/>
	<path d="M1388.5,477c0.3-1,0.6-2,0.9-3h-34.4c-0.3,1-0.6,2-1,3H1388.5z"/>
	<path d="M1359.7,462c-0.4,1-0.9,2-1.3,3h34.6c0.5-1,1-2,1.5-3H1359.7z"/>
	<path d="M1357.2,468c-0.4,1-0.7,2-1.1,3h34.4c0.4-1,0.8-2,1.2-3H1357.2z"/>
	<path d="M1272.1,534c-1.4,1-2.8,2-4.2,3h47.7c0.9-1,1.7-2,2.6-3H1272.1z"/>
	<path d="M1301.8,492c-0.2,1-0.3,2-0.6,3h34.3c0.1-1,0.2-2,0.3-3H1301.8z"/>
	<path d="M1279.6,528c-1.2,1-2.4,2-3.6,3h44.6c0.7-1,1.5-2,2.2-3H1279.6z"/>
	<path d="M1291.2,516c-0.8,1-1.6,2-2.5,3h39.4c0.5-1,1-2,1.4-3H1291.2z"/>
	<path d="M1254,546c-1.7,1-3.3,2-4.9,3h54.1c1.2-1,2.3-2,3.4-3H1254z"/>
	<path d="M1286,522c-1,1-2,2-3,3h41.8c0.6-1,1.2-2,1.8-3H1286z"/>
	<path d="M1300.5,498c-0.3,1-0.6,2-1,3h35c0.2-1,0.4-2,0.6-3H1300.5z"/>
	<path d="M1295.2,510c-0.6,1-1.2,2-1.9,3h37.5c0.4-1,0.8-2,1.1-3H1295.2z"/>
	<path d="M1298.3,504c-0.4,1-0.9,2-1.4,3h36.1c0.3-1,0.6-2,0.8-3H1298.3z"/>
	<path d="M1218,453c0.8-1,1.6-2,2.6-3h-39.2c-0.5,1-0.9,2-1.4,3H1218z"/>
	<path d="M1214.1,459c0.5-1,1.1-2,1.8-3h-37.1c-0.4,1-0.7,2-1.1,3H1214.1z"/>
	<path d="M1244.1,552c-1.7,1-3.3,2-4.8,3h56.4c1.3-1,2.6-2,3.9-3H1244.1z"/>
	<path d="M1182.9,447h40.8c1.3-1.1,2.6-2.1,4-3h-43.1C1184,445,1183.4,446,1182.9,447z"/>
	<path d="M1285.1,444c1.3,0.9,2.6,1.9,3.8,3h39.1c-0.5-1-1-2-1.6-3H1285.1z"/>
	<path d="M1207.4,483c0.1-1,0.2-2,0.3-3h-34.4c-0.1,1-0.1,2-0.2,3H1207.4z"/>
	<path d="M1208.2,477c0.2-1,0.4-2,0.6-3h-34.7c-0.1,1-0.3,2-0.4,3H1208.2z"/>
	<path d="M1335.2,471c-0.1-1-0.3-2-0.5-3h-34.2c0.2,1,0.5,2,0.6,3H1335.2z"/>
	<path d="M1211.4,465c0.4-1,0.8-2,1.2-3h-35.9c-0.3,1-0.6,2-0.8,3H1211.4z"/>
	<path d="M1209.5,471c0.3-1,0.6-2,0.9-3h-35.2c-0.2,1-0.4,2-0.6,3H1209.5z"/>
	<path d="M1294.1,453h36.5c-0.4-1-0.8-2-1.2-3h-37.6C1292.7,451,1293.4,452,1294.1,453z"/>
	<path d="M1361.1,459h35.2c0.6-1,1.3-2,2-3h-35.7C1362,457,1361.5,458,1361.1,459z"/>
	<path d="M1525.8,480h-34.4c0.3,1,0.5,2,0.7,3h34.4C1526.4,482,1526.1,481,1525.8,480z"/>
	<path d="M1335.9,477c-0.1-1-0.2-2-0.3-3h-33.9c0.1,1,0.2,2,0.3,3H1335.9z"/>
	<path d="M1489.7,474c0.3,1,0.6,2,0.9,3h34.3c-0.3-1-0.6-2-1-3H1489.7z"/>
	<path d="M1387.7,480h-34.5c-0.3,1-0.6,2-0.8,3h34.5C1387.2,482,1387.5,481,1387.7,480z"/>
	<path d="M1480.9,456c0.7,1,1.4,2,2,3h35c-0.5-1-1-2-1.5-3H1480.9z"/>
	<path d="M1487.5,468c0.4,1,0.8,2,1.2,3h34.2c-0.4-1-0.7-2-1.1-3H1487.5z"/>
	<path d="M1484.6,462c0.5,1,1,2,1.5,3h34.4c-0.4-1-0.8-2-1.3-3H1484.6z"/>
	<path d="M1209.7,576c-1.2,1-2.3,2-3.5,3h52.7c1.6-1,3.2-2,4.8-3H1209.7z"/>
	<rect x="394.9" y="618" width="34.2" height="3"/>
	<rect x="394.9" y="624" width="34.2" height="3"/>
	<rect x="394.9" y="612" width="34.2" height="3"/>
	<rect x="394.9" y="606" width="34.2" height="3"/>
	<rect x="523.7" y="624" width="35.3" height="3"/>
	<rect x="523.7" y="642" width="35.3" height="3"/>
	<rect x="523.7" y="636" width="35.3" height="3"/>
	<rect x="523.7" y="630" width="35.3" height="3"/>
	<rect x="523.7" y="582" width="35.3" height="3"/>
	<rect x="523.7" y="648" width="35.3" height="3"/>
	<rect x="523.7" y="570" width="35.3" height="3"/>
	<rect x="523.7" y="576" width="35.3" height="3"/>
	<rect x="394.9" y="600" width="34.2" height="3"/>
	<rect x="523.7" y="564" width="35.3" height="3"/>
	<rect x="394.9" y="594" width="34.2" height="3"/>
	<rect x="523.7" y="588" width="35.3" height="3"/>
	<rect x="523.7" y="594" width="35.3" height="3"/>
	<path d="M1225.5,564c-1.4,1-2.9,2-4.3,3h56.9c1.5-1,3.1-2,4.6-3H1225.5z"/>
	<path d="M1196.9,588c-0.9,1-1.8,2-2.7,3h46.6c1.4-1,2.9-2,4.3-3H1196.9z"/>
	<path d="M1353.4,606c0.3,1,0.6,2,0.9,3h35.1c-0.3-1-0.6-2-0.9-3H1353.4z"/>
	<path d="M1350.4,594c0.2,1,0.4,2,0.7,3h35.2c-0.2-1-0.4-2-0.6-3H1350.4z"/>
	<path d="M1351.8,600c0.2,1,0.5,2,0.8,3h35.1c-0.3-1-0.5-2-0.7-3H1351.8z"/>
	<path d="M1189.2,597h43.5c1.3-1,2.6-2,3.9-3h-45C1190.8,595,1190,596,1189.2,597z"/>
	<path d="M1202.9,582c-1,1-2.1,2-3.1,3h49.7c1.5-1,3.1-2,4.6-3H1202.9z"/>
	<path d="M1234.6,558c-1.5,1-3.1,2-4.6,3h57.3c1.4-1,2.9-2,4.3-3H1234.6z"/>
	<path d="M1183.1,489h23.9c0-1,0.1-2,0.1-3h-34c0,0.5,0,1,0,1.4L1183.1,489z"/>
	<rect x="1036.4" y="642" width="38.4" height="3"/>
	<rect x="523.7" y="654" width="35.3" height="3"/>
	<rect x="1036.4" y="648" width="38.4" height="3"/>
	<rect x="1036.4" y="636" width="38.4" height="3"/>
	<path d="M734.4,648H598.1c0.9,1,1.8,2,2.8,3h130.8C732.7,650,733.6,649,734.4,648z"/>
	<path d="M1357.4,618c0.4,1,0.8,2,1.2,3h35.7c-0.5-1-1-2-1.5-3H1357.4z"/>
	<path d="M1171.1,630c-0.4,1-0.7,2-1,3h33.4c0.4-1,0.8-2,1.2-3H1171.1z"/>
	<path d="M1396,624h-36.1c0.5,1,0.9,2,1.4,3h36.6C1397.3,626,1396.6,625,1396,624z"/>
	<path d="M1173.4,624c-0.4,1-0.8,2-1.2,3h33.9c0.5-1,1.1-2,1.6-3H1173.4z"/>
	<rect x="394.9" y="654" width="34.2" height="3"/>
	<path d="M1488.5,612c-0.4,1-0.8,2-1.2,3h34.5c0.4-1,0.8-2,1.1-3H1488.5z"/>
	<path d="M1490.4,606c-0.3,1-0.6,2-0.9,3h34.5c0.3-1,0.7-2,1-3H1490.4z"/>
	<path d="M1348.3,582c0.1,1,0.3,2,0.5,3h35.6c-0.1-1-0.3-2-0.4-3H1348.3z"/>
	<path d="M1482.7,624c-0.6,1-1.3,2-2,3h35.7c0.5-1,1-2,1.5-3H1482.7z"/>
	<path d="M1494.3,588c-0.2,1-0.3,2-0.5,3h35c0.2-1,0.4-2,0.6-3H1494.3z"/>
	<path d="M1349.8,591h35.4c-0.2-1-0.3-2-0.5-3h-35.5C1349.4,589,1349.6,590,1349.8,591z"/>
	<path d="M1514.9,630h-36.4c-0.9,1-1.8,2.1-2.7,3h37.4C1513.8,632,1514.3,631,1514.9,630z"/>
	<path d="M1492,600c-0.2,1-0.5,2-0.8,3h34.6c0.3-1,0.6-2,0.8-3H1492z"/>
	<path d="M1493.3,594c-0.2,1-0.4,2-0.6,3h34.8c0.2-1,0.5-2,0.7-3H1493.3z"/>
	<path d="M1485.9,618c-0.5,1-1,2-1.5,3h34.9c0.4-1,0.9-2,1.3-3H1485.9z"/>
	<path d="M1362.8,630c0.5,1,1.1,2,1.6,3h38.4c-0.9-0.9-1.8-2-2.7-3H1362.8z"/>
	<path d="M1166,648c-0.2,1-0.4,2-0.6,3h171.2v-3H1166z"/>
	<path d="M604,654c1.1,1,2.3,2,3.5,3h117.6c1.2-1,2.4-2,3.5-3H604z"/>
	<path d="M992.7,654h-118c1.1,1,2.2,2,3.3,3h111.2C990.4,656,991.6,655,992.7,654z"/>
	<rect x="1036.4" y="654" width="38.4" height="3"/>
	<path d="M1366.2,636c0.6,1,1.3,2,1.9,3h42.2c-1.5-0.9-2.9-1.9-4.2-3H1366.2z"/>
	<path d="M1416.1,642h-45.8c0.7,1,1.5,2,2.3,3h53.3C1422.3,644.3,1419.1,643.3,1416.1,642z"/>
	<path d="M1167.4,642c-0.3,1-0.5,2-0.7,3h169.9v-3H1167.4z"/>
	<path d="M1336.6,654h-171.7c-0.2,1-0.3,2-0.5,3h172.2V654z"/>
	<path d="M1346.2,522c-0.1,1-0.1,2-0.2,3h36.3c0-1,0.1-2,0.1-3H1346.2z"/>
	<path d="M1347.3,510c-0.1,1-0.2,2-0.3,3h35.9c0.1-1,0.1-2,0.2-3H1347.3z"/>
	<path d="M1346.7,516c-0.1,1-0.2,2-0.3,3h36.1c0-1,0.1-2,0.2-3H1346.7z"/>
	<path d="M1349.1,498c-0.2,1-0.3,2-0.5,3h35.4c0.1-1,0.2-2,0.4-3H1349.1z"/>
	<path d="M1348.1,504c-0.1,1-0.3,2-0.4,3h35.6c0.1-1,0.2-2,0.3-3H1348.1z"/>
	<path d="M1527.4,486h-34.6c0.2,1,0.4,2,0.6,3h34.7C1527.9,488,1527.7,487,1527.4,486z"/>
	<path d="M1350.3,492c-0.2,1-0.4,2-0.6,3h35.1c0.1-1,0.3-2,0.5-3H1350.3z"/>
	<path d="M1351.7,486c-0.2,1-0.5,2-0.7,3h34.8c0.2-1,0.4-2,0.6-3H1351.7z"/>
	<path d="M1345.7,552c0,1,0.1,2,0.1,3h36.4c0-1,0-2-0.1-3H1345.7z"/>
	<path d="M1345.8,528c0,1-0.1,2-0.1,3h36.4c0-1,0-2,0.1-3H1345.8z"/>
	<path d="M1347.5,576c0.1,1,0.3,2,0.4,3h35.8c-0.1-1-0.2-2-0.3-3H1347.5z"/>
	<path d="M1346.3,564c0.1,1,0.2,2,0.2,3h36.1c-0.1-1-0.1-2-0.2-3H1346.3z"/>
	<path d="M1346.8,570c0.1,1,0.2,2,0.3,3h36c-0.1-1-0.2-2-0.2-3H1346.8z"/>
	<path d="M1346,558c0.1,1,0.1,2,0.2,3h36.3c0-1-0.1-2-0.1-3H1346z"/>
	<path d="M1345.6,534c0,1,0,2-0.1,3h36.5c0-1,0-2,0-3H1345.6z"/>
	<path d="M1345.6,546c0,1,0,2,0.1,3h36.5c0-1,0-2,0-3H1345.6z"/>
	<path d="M1382,540h-36.5c0,0.5,0,0.9,0,1.4c0,0.5,0,1.1,0,1.6h36.5c0-0.5,0-1.1,0-1.6C1382,540.9,1382,540.5,1382,540z"/>
	<path d="M847.8,489H879c0.2-1,0.5-2,0.7-3h-31.3C848.2,487,848,488,847.8,489z"/>
	<rect x="394.9" y="570" width="34.2" height="3"/>
	<path d="M438.5,525c0.6-1,1.3-2.1,2-3h-45.6v3H438.5z"/>
	<path d="M430.3,549c0.2-1,0.3-2,0.5-3h-35.9v3H430.3z"/>
	<path d="M435.3,531c0.5-1,1-2,1.5-3h-41.9v3H435.3z"/>
	<path d="M433,537c0.3-1,0.7-2,1.1-3h-39.2v3H433z"/>
	<path d="M429.1,567v-1.7c0-0.5,0-0.9,0-1.3h-34.2v3H429.1z"/>
	<path d="M1578,480h-34.4c-0.1,1-0.1,2-0.2,3h34.2C1577.8,482,1577.9,481,1578,480z"/>
	<path d="M429.2,561c0-1,0.1-2,0.1-3h-34.4v3H429.2z"/>
	<path d="M431.4,543c0.2-1,0.5-2,0.8-3h-37.2v3H431.4z"/>
	<path d="M607.4,495h115.6c-1.3-1-2.6-2-3.9-3H611.3C610,493,608.7,494,607.4,495z"/>
	<path d="M438,495h104.3c-1.1-1-2.1-2-3.3-3h-98.2C439.8,493,438.9,494,438,495z"/>
	<rect x="394.9" y="492" width="34.2" height="3"/>
	<path d="M877.7,495c0.2-1,0.4-2,0.6-3h-31.1c-0.2,1-0.4,2-0.5,3H877.7z"/>
	<rect x="394.9" y="498" width="34.2" height="3"/>
	<path d="M449.4,513c1.5-1.1,3.1-2.1,4.7-3h-59.2v3H449.4z"/>
	<path d="M442.9,519c0.9-1.1,1.9-2.1,2.9-3h-50.9v3H442.9z"/>
	<rect x="394.9" y="504" width="34.2" height="3"/>
	<rect x="394.9" y="636" width="34.2" height="3"/>
	<rect x="394.9" y="648" width="34.2" height="3"/>
	<rect x="394.9" y="642" width="34.2" height="3"/>
	<path d="M368.8,633v-3h-45c-0.8,1.1-1.6,2.1-2.5,3H368.8z"/>
	<rect x="394.9" y="630" width="34.2" height="3"/>
	<path d="M721.1,660H611.6c1.5,1.1,3.1,2.1,4.7,3h100C717.9,662.1,719.5,661.1,721.1,660z"/>
	<path d="M559.1,555c0-1,0-2,0-3h-35.3c0,1,0,2,0,3H559.1z"/>
	<rect x="523.7" y="660" width="35.3" height="3"/>
	<rect x="394.9" y="660" width="34.2" height="3"/>
	<rect x="394.9" y="588" width="34.2" height="3"/>
	<rect x="394.9" y="576" width="34.2" height="3"/>
	<path d="M368.8,597v-3h-34c-0.1,1-0.1,2-0.2,3H368.8z"/>
	<rect x="394.9" y="582" width="34.2" height="3"/>
	<path d="M368.8,603v-3h-34.5c-0.1,1-0.2,2-0.4,3H368.8z"/>
	<path d="M368.8,621v-3h-38.6c-0.4,1-0.8,2-1.2,3H368.8z"/>
	<path d="M368.8,627v-3h-41.2c-0.5,1-1.1,2-1.7,3H368.8z"/>
	<path d="M368.8,609v-3h-35.4c-0.2,1-0.4,2-0.6,3H368.8z"/>
	<path d="M368.8,615v-3h-36.7c-0.3,1-0.6,2-0.9,3H368.8z"/>
	<path d="M429.5,555c0.1-1,0.2-2,0.3-3h-34.9v3H429.5z"/>
	<path d="M749.2,621c0.3-1,0.6-2,0.9-3h-33.8c-0.4,1-0.8,2-1.2,3H749.2z"/>
	<path d="M559.1,561v-3h-35.3c0,0.4,0,0.8,0,1.3v1.7H559.1z"/>
	<path d="M695.2,510c1.6,0.9,3.1,1.9,4.6,3h39.3c-0.7-1-1.3-2-2-3H695.2z"/>
	<path d="M615.7,615c-0.3-1-0.6-2-0.9-3h-36.1c0.3,1,0.6,2,0.9,3H615.7z"/>
	<path d="M857.5,630c0.5,1,1,2,1.5,3h35.9c-1-1-1.9-2-2.8-3H857.5z"/>
	<path d="M898.4,636h-37.7c0.6,1,1.2,2,1.8,3h40.3C901.3,638.1,899.8,637.1,898.4,636z"/>
	<path d="M577.9,609H614c-0.2-1-0.5-2-0.7-3h-36.2C577.4,607,577.6,608,577.9,609z"/>
	<path d="M744.3,633c0.5-1,1-2,1.4-3h-35.9c-0.8,1-1.7,2-2.6,3H744.3z"/>
	<path d="M741,639c0.6-1,1.2-2,1.8-3h-38.6c-1.3,1.1-2.6,2.1-4.1,3H741z"/>
	<path d="M642.9,507c4-1.4,8.4-2.4,13.1-3h-57.9c0,0.1-0.1,0.1-0.1,0.2c-0.8,0.9-1.6,1.9-2.4,2.8H642.9z"/>
	<path d="M883.4,525h114c-1-1-2-2-3-3H886.3C885.3,523,884.3,524,883.4,525z"/>
	<path d="M752.3,609c0.1-0.5,0.2-1,0.3-1.5l-18.9-1.5h-14.4c-0.2,1-0.3,2-0.5,3H752.3z"/>
	<path d="M433.6,501h113.9c-0.7-1-1.5-2-2.4-3H435.7C435,499,434.3,500,433.6,501z"/>
	<path d="M554.8,516h-41.6c1,1,1.8,2,2.6,3h39.9C555.4,518,555.1,517,554.8,516z"/>
	<path d="M549.5,504H431.8c-0.5,1-1.1,2-1.6,3h30.7c6.5-2.2,12.8-2.8,17.6-2.8c6.6,0,14,0.1,21.2,2.8h51.5
		C550.7,506,550.1,505,549.5,504z"/>
	<path d="M1182.9,606c-0.6,1-1.3,2-1.9,3h38.4c1-1,2-2,3-3H1182.9z"/>
	<path d="M854.8,624c0.4,1,0.8,2,1.3,3h33.6c-0.7-1-1.4-2-2-3H854.8z"/>
	<path d="M638.1,642h-45c0.8,1,1.6,2,2.4,3h50.6C643.3,644.2,640.6,643.2,638.1,642z"/>
	<path d="M747,627c0.4-1,0.8-2,1.1-3h-34.5c-0.5,1-1.1,2-1.7,3H747z"/>
	<path d="M842.8,558c0,1,0.1,2,0.1,3h41.2c0.4-1,0.9-2,1.4-3H842.8z"/>
	<path d="M843,564c0,1,0.1,2,0.2,3h38.7c0.3-1,0.7-2,1-3H843z"/>
	<path d="M843.4,570c0.1,1,0.1,2,0.2,3h36.7c0.2-1,0.4-2,0.7-3H843.4z"/>
	<path d="M842.7,552c0,1,0,2,0,3h44.4c0.6-1,1.3-2,1.9-3H842.7z"/>
	<path d="M753.3,552h-33.5c0.1,1,0.2,2,0.3,3h33.7C753.7,554,753.5,553,753.3,552z"/>
	<path d="M740.9,516h-37.6c1,0.9,2,1.9,2.9,3h36.3C742,518,741.5,517,740.9,516z"/>
	<path d="M744.1,522h-35.4c0.5,0.6,0.9,1.3,1.4,1.9c0.2,0.3,0.5,0.7,0.7,1.1h34.7C745,524,744.5,523,744.1,522z"/>
	<path d="M843.9,576c0.1,1,0.2,2,0.3,3h35.2c0.1-1,0.3-2,0.4-3H843.9z"/>
	<path d="M849.7,609h31.6c-0.3-1-0.5-2-0.7-3h-31.7C849.2,607,849.4,608,849.7,609z"/>
	<path d="M1016.8,612h-32.3c-0.3,1-0.6,2-0.9,3h32.4C1016.3,614,1016.6,613,1016.8,612z"/>
	<path d="M852.5,618c0.4,1,0.7,2,1.1,3H886c-0.5-1-1-2-1.5-3H852.5z"/>
	<path d="M985.9,606c-0.2,1-0.4,2-0.6,3h32.2c0.2-1,0.4-2,0.6-3H985.9z"/>
	<path d="M850.6,612c0.3,1,0.6,2,0.9,3h31.7c-0.4-1-0.7-2-1.1-3H850.6z"/>
	<path d="M844.5,582c0.1,1,0.2,2,0.4,3h34c0-1,0.1-2,0.2-3H844.5z"/>
	<path d="M847.5,600c0.2,1,0.4,2,0.7,3H880c-0.2-1-0.3-2-0.5-3H847.5z"/>
	<path d="M878.8,588h-33.5c0.1,1,0.3,2,0.5,3h33c0-0.7,0-1.4,0-2.1C878.8,588.6,878.8,588.3,878.8,588z"/>
	<path d="M846.3,594c0.2,1,0.4,2,0.6,3h32.3c-0.1-1-0.2-2-0.2-3H846.3z"/>
	<path d="M751.7,612h-33.5c-0.3,1-0.5,2-0.8,3H751C751.2,614,751.5,613,751.7,612z"/>
	<path d="M1053.6,678c-0.2,1-0.3,2-0.5,3h20.9c0.1-1,0.3-2,0.4-3H1053.6z"/>
	<path d="M1049.9,690c-0.6,1.1-1.2,2.1-1.9,3h22.9c0.4-1,0.7-2,1.1-3H1049.9z"/>
	<path d="M1052.3,684c-0.3,1.1-0.7,2.1-1,3h21.5c0.3-1,0.5-2,0.7-3H1052.3z"/>
	<path d="M869.1,648c0.9,1,1.7,2,2.6,3h124.1c1-1,1.9-2,2.8-3H869.1z"/>
	<path d="M1054.2,672c0,1-0.1,2-0.2,3h20.7c0.1-1,0.1-2,0.1-3H1054.2z"/>
	<path d="M1723.8,633h40.5c-1-1-1.9-2-2.8-3h-39.1C1722.8,631,1723.3,632,1723.8,633z"/>
	<path d="M1567,429h118.5c-1-1-2.1-2-3.2-3h-111.8C1569.2,427,1568.1,428,1567,429z"/>
	<path d="M1633.7,540c-1.6,1-3.1,2-4.7,3h51.1c1-1,2-2,3-3H1633.7z"/>
	<path d="M1587.4,570c-1.3,1-2.6,2-3.9,3h55.3c0.9-0.5,1.7-1.1,2.6-1.6c0.8-0.5,1.5-0.9,2.3-1.4H1587.4z"/>
	<path d="M1855.6,596.1c0,0.3,0,0.6,0,0.9h33.8c0-0.4,0-0.8,0-1.3c0-0.6,0-1.2,0-1.7h-33.8C1855.5,594.7,1855.6,595.4,1855.6,596.1z
		"/>
	<path d="M1845.3,480.2c0,0.9,0,1.9-0.1,2.8h33.5c0-0.8,0.1-1.6,0.1-2.4c0-0.2,0-0.4,0-0.6h-33.4
		C1845.3,480.1,1845.3,480.1,1845.3,480.2z"/>
	<path d="M1045.3,696c-1.3,1.2-2.7,2.2-4.1,3h26.9c0.6-1,1.1-2,1.6-3H1045.3z"/>
	<rect x="141.6" y="404.2" width="34.6" height="0.8"/>
	<path d="M1733.9,648c0.9,1,1.8,2,2.8,3h131.1c1-1,2-2,2.9-3H1733.9z"/>
	<path d="M1036.8,702v3h27.1c0.8-1,1.6-2,2.3-3H1036.8z"/>
	<path d="M1036.8,708v3h20.8c1.2-0.9,2.4-1.9,3.5-3H1036.8z"/>
	<path d="M1036.8,714v3h10.3c2.1-0.9,4.2-1.9,6.1-3H1036.8z"/>
	<path d="M58.4,594H23.8v1.7c0,0.4,0,0.8,0,1.3h34.7C58.4,596,58.4,595,58.4,594z"/>
	<path d="M1320.5,435c-0.8-1-1.6-2-2.5-3h-124.3c-0.9,1-1.8,2-2.7,3H1320.5z"/>
	<path d="M1365.8,450c-0.6,1-1.1,2-1.7,3h36.4c0.9-1,1.8-2.1,2.8-3H1365.8z"/>
	<path d="M368.8,591v-3h-33.8c0,1,0,2-0.1,3H368.8z"/>
	<path d="M1196.7,429h118.5c-1-1-2.1-2-3.2-3h-111.8C1199,427,1197.8,428,1196.7,429z"/>
	<path d="M1217.2,570c-1.3,1-2.6,2-3.9,3h55.3c0.9-0.5,1.7-1.1,2.6-1.6c0.8-0.5,1.5-0.9,2.3-1.4H1217.2z"/>
	<path d="M1169.1,636c-0.3,1-0.6,2-0.9,3h33.4c0.3-1,0.5-2,0.8-3H1169.1z"/>
	<path d="M327.1,654H220.3c1,1,2,2,3.1,3h100.9C325.3,656,326.2,655,327.1,654z"/>
	<path d="M1263.5,540c-1.6,1-3.1,2-4.7,3h51.1c1-1,2-2,3-3H1263.5z"/>
	<path d="M648.2,477h33.6c-5.4-0.9-11-1.3-16.6-1.3C659.4,475.7,653.7,476.1,648.2,477z"/>
	<path d="M1497.2,541.4c0,0.5,0,1.1,0,1.6h36.5c0-0.5,0-1.1,0-1.6c0-0.5,0-0.9,0-1.4h-36.5C1497.2,540.5,1497.2,540.9,1497.2,541.4z
		"/>
	<path d="M1539.3,636c-0.3,1-0.6,2-0.9,3h33.4c0.3-1,0.5-2,0.8-3H1539.3z"/>
	<path d="M1553.1,606c-0.6,1-1.3,2-1.9,3h38.4c1-1,2-2,3-3H1553.1z"/>
	<path d="M176.2,597v-3h-34.6v1.4c0,0.5,0,1.1,0,1.6H176.2z"/>
	<rect x="335" y="666" width="33.8" height="3"/>
	<rect x="394.9" y="480.2" width="34.2" height="2.8"/>
	<path d="M702.9,483c-2.7-1.1-5.5-2.1-8.3-3h-59.2c-2.8,0.9-5.5,1.9-8.2,3H702.9z"/>
	<path d="M559,549c0-1,0-2-0.1-3h-35.4c0,1,0.1,2,0.1,3H559z"/>
	<path d="M1163.3,666c-0.1,1-0.2,2-0.3,3h173.6v-3H1163.3z"/>
	<path d="M1179.3,612c-0.5,1-1.1,2-1.6,3h36.4c0.8-1,1.7-2,2.5-3H1179.3z"/>
	<path d="M986.4,603h32.2c0.2-1,0.3-2,0.4-3h-32.2C986.6,601,986.5,602,986.4,603z"/>
	<path d="M1187,600c-0.7,1-1.4,2-2.1,3h40.7c1.1-1,2.3-2,3.5-3H1187z"/>
	<path d="M626,633c-0.9-1-1.7-1.9-2.5-3h-37.8c0.5,1,1,2,1.6,3H626z"/>
	<path d="M987.3,582c0,1,0.1,2,0.1,3h32.3c0-1,0-2-0.1-3H987.3z"/>
	<path d="M987.3,594c-0.1,1-0.1,2-0.2,3h32.3c0.1-1,0.2-2,0.2-3H987.3z"/>
	<path d="M982.5,618c-0.4,1-0.8,2-1.3,3h32.9c0.4-1,0.7-2,1-3H982.5z"/>
	<path d="M986,570c0.2,1,0.4,2,0.5,3h32.4c-0.1-1-0.3-2-0.4-3H986z"/>
	<path d="M987.5,588c0,1,0,2,0,3h32.3c0-1,0.1-2,0.1-3H987.5z"/>
	<path d="M986.9,576c0.1,1,0.2,2,0.3,3h32.3c-0.1-1-0.2-2-0.3-3H986.9z"/>
	<path d="M1003.3,642h-44.8c-3.3,1.3-7,2.3-10.9,3h53.5C1001.8,644,1002.6,643,1003.3,642z"/>
	<path d="M747.8,531c-0.4-1-0.7-2-1.1-3h-34.2c0.5,1,1,2,1.4,3H747.8z"/>
	<path d="M908.8,642h-44.2c0.7,1,1.4,2,2.2,3h52C915.1,644.3,911.8,643.3,908.8,642z"/>
	<path d="M632.9,639c-1.4-0.9-2.7-1.9-3.9-3h-40c0.6,1,1.3,2,2,3H632.9z"/>
	<path d="M969.3,636c-1.4,1.1-2.9,2.1-4.5,3h40.6c0.6-1,1.2-2,1.8-3H969.3z"/>
	<rect x="1036.4" y="630" width="38.4" height="3"/>
	<path d="M979.6,624c-0.6,1-1.2,2-1.9,3h34c0.4-1,0.8-2,1.2-3H979.6z"/>
	<path d="M975.5,630c-0.9,1.1-1.8,2-2.8,3h36.1c0.5-1,1-2,1.5-3H975.5z"/>
	<path d="M1211.7,618h-35.6c-0.5,1-1,2-1.4,3h34.9C1210.3,620,1211,619,1211.7,618z"/>
	<path d="M918.9,504c-3.2,0.8-6.3,1.8-9.4,3h61c-3.1-1.2-6.2-2.2-9.5-3H918.9z"/>
	<path d="M600.9,501h128.7c-1-1-2-2-3.1-3H604C603,499,601.9,500,600.9,501z"/>
	<path d="M557,525c-0.2-1-0.4-2-0.6-3h-38.5c0.6,1,1.1,2,1.6,3H557z"/>
	<path d="M846.2,498c-0.2,1-0.3,2-0.5,3h30.9c0.2-1,0.3-2,0.5-3H846.2z"/>
	<path d="M553.8,513c-0.4-1-0.8-2-1.2-3h-46.8c1.4,0.9,2.8,1.9,4.1,3H553.8z"/>
	<path d="M557.9,531c-0.1-1-0.3-2-0.4-3h-36.8c0.3,1,0.7,2,0.9,3H557.9z"/>
	<path d="M984.5,564c0.3,1,0.6,2,0.8,3h32.6c-0.2-1-0.4-2-0.6-3H984.5z"/>
	<path d="M558.5,537c-0.1-1-0.2-2-0.3-3h-35.9c0.2,1,0.4,2,0.5,3H558.5z"/>
	<path d="M558.8,543c0-1-0.1-2-0.1-3h-35.5c0.1,1,0.2,2,0.2,3H558.8z"/>
	<path d="M968.3,540c1.3,0.9,2.5,1.9,3.7,3h37.9c-0.5-1-1-2-1.6-3H968.3z"/>
	<path d="M974.9,546c0.8,1,1.7,2,2.4,3h35.3c-0.4-1-0.8-2-1.3-3H974.9z"/>
	<path d="M979.3,552c0.6,1,1.2,2,1.7,3h33.8c-0.3-1-0.7-2-1-3H979.3z"/>
	<path d="M902.9,510c-1.8,0.9-3.5,1.9-5.2,3h85c-1.7-1.1-3.5-2.1-5.3-3H902.9z"/>
	<path d="M982.4,558c0.4,1,0.8,2,1.2,3h33c-0.3-1-0.5-2-0.8-3H982.4z"/>
	<path d="M893.3,516c-1.3,1-2.5,2-3.8,3H991c-1.2-1-2.5-2-3.8-3H893.3z"/>
	<path d="M880.8,528c-0.8,1-1.6,2-2.3,3h49.4c1.9-0.2,3.9-0.2,6-0.2c2.3,0,4.5,0.1,6.7,0.2h61.9c-0.8-1-1.6-2-2.4-3H880.8z"/>
	<path d="M956.2,534c2.5,0.8,4.9,1.8,7.1,3h43.2c-0.6-1-1.3-2-1.9-3H956.2z"/>
	<path d="M739,642h-44.4c-2.6,1.2-5.4,2.2-8.5,3h50.8C737.6,644,738.3,643,739,642z"/>
	<path d="M845.3,504c-0.1,1-0.3,2-0.4,3h30.9c0.1-1,0.2-2,0.4-3H845.3z"/>
	<path d="M688.8,507h46.1c-0.8-1-1.6-2-2.5-3H676C680.6,504.6,684.9,505.6,688.8,507z"/>
	<path d="M844.6,510c-0.1,1-0.2,2-0.3,3h30.9c0.1-1,0.2-2,0.3-3H844.6z"/>
	<path d="M844,516c-0.1,1-0.2,2-0.3,3h31c0.1-1,0.1-2,0.2-3H844z"/>
	<path d="M624.4,519c0.9-1,1.9-2,3-3h-38.2c-0.6,1-1.2,2-1.8,3H624.4z"/>
	<path d="M620.2,525c0.2-0.4,0.4-0.7,0.6-1.1c0.4-0.7,0.8-1.3,1.3-1.9h-36.3c-0.5,1-1,2-1.5,3H620.2z"/>
	<path d="M631.1,513c1.5-1.1,3.2-2.1,4.9-3h-42.8c-0.7,1-1.4,2-2.1,3H631.1z"/>
	<path d="M843.6,522c-0.1,1-0.1,2-0.2,3h31.1c0-1,0.1-2,0.1-3H843.6z"/>
	<path d="M617.1,531c0.4-1,0.9-2,1.4-3H583c-0.4,1-0.8,2-1.2,3H617.1z"/>
	<path d="M842.7,546c0,1,0,2,0,3c0,0,0,0,0,0h48.6c0.8-1,1.7-2,2.7-3H842.7z"/>
	<path d="M843.2,528c-0.1,1-0.1,2-0.1,3h31.2c0-1,0-2,0.1-3H843.2z"/>
	<path d="M751.4,543c-0.3-1-0.5-2-0.8-3h-33.4c0.3,1,0.6,2,0.8,3H751.4z"/>
	<path d="M749.8,537c-0.3-1-0.6-2-1-3h-33.7c0.4,1,0.7,2,1.1,3H749.8z"/>
	<path d="M752.8,549c-0.2-1-0.4-2-0.6-3h-33.4c0.2,1,0.4,2,0.6,3H752.8z"/>
	<path d="M842.8,540c0,1,0,2,0,3h54.4c1.2-1.1,2.6-2.1,3.9-3H842.8z"/>
	<path d="M842.9,537h31.4c0-1,0-2,0-3h-31.3C842.9,535,842.9,536,842.9,537z"/>
	<path d="M876.5,534c-0.6,1-1.3,2-1.9,3h31.5c2.2-1.2,4.6-2.2,7.1-3H876.5z"/>
	<path d="M755.4,573c0-1-0.1-2-0.1-3H574.1c0,1,0,2-0.1,3H755.4z"/>
	<path d="M611.5,591c-0.1-1-0.1-2-0.1-3h-36.8c0.1,1,0.1,2,0.2,3H611.5z"/>
	<rect x="523.7" y="606" width="35.3" height="3"/>
	<rect x="523.7" y="600" width="35.3" height="3"/>
	<path d="M612,597c-0.1-1-0.2-2-0.3-3h-36.5c0.1,1,0.2,2,0.4,3H612z"/>
	<path d="M612.8,603c-0.2-1-0.3-2-0.5-3H576c0.2,1,0.4,2,0.5,3H612.8z"/>
	<rect x="523.7" y="612" width="35.3" height="3"/>
	<path d="M616.8,618h-36.3c0.3,1,0.7,2,1.1,3h36.4C617.6,620,617.2,619,616.8,618z"/>
	<rect x="523.7" y="618" width="35.3" height="3"/>
	<path d="M621.3,627c-0.6-1-1.2-2-1.8-3h-36.8c0.4,1,0.9,2,1.4,3H621.3z"/>
	<path d="M611.7,555c0-0.9,0.1-2,0.2-3h-36c-0.2,1-0.3,2-0.5,3H611.7z"/>
	<path d="M612.3,549c0.1-1,0.3-2,0.5-3h-35.6c-0.2,1-0.4,2-0.6,3H612.3z"/>
	<path d="M613.4,543c0.2-1,0.4-2,0.7-3h-35.4c-0.3,1-0.5,2-0.8,3H613.4z"/>
	<path d="M754.6,561c-0.1-1-0.2-2-0.4-3H575.1c-0.1,1-0.2,2-0.3,3H754.6z"/>
	<path d="M755.5,579c0-1,0-2,0-3H574.1c0,1,0,2,0,3H755.5z"/>
	<path d="M755.2,567c-0.1-1-0.1-2-0.2-3H574.5c-0.1,1-0.1,2-0.2,3H755.2z"/>
	<path d="M755.3,585c0.1-1,0.1-2,0.1-3H574.2c0,1,0.1,2,0.1,3H755.3z"/>
	<path d="M614.9,537c0.3-1,0.7-2,1-3h-35.3c-0.4,1-0.7,2-1,3H614.9z"/>
	<path d="M1355.2,612c0.3,1,0.7,2,1,3h35.3c-0.4-1-0.8-2-1.2-3H1355.2z"/>
	<path d="M1726.7,450c-0.5,1-1,2-1.4,3h38c0.8-1,1.6-2,2.5-3H1726.7z"/>
	<path d="M1730.1,444c-0.6,1-1.2,2-1.8,3h40.5c1.2-1.1,2.5-2.1,3.8-3H1730.1z"/>
	<path d="M1724,456c-0.4,1-0.8,2-1.1,3h36.6c0.5-1,1.1-2,1.8-3H1724z"/>
	<path d="M1734.3,438c-0.8,1-1.5,2-2.2,3h45.6c2.4-1.2,5.1-2.2,7.9-3H1734.3z"/>
	<path d="M1564,432c-0.9,1-1.8,2-2.7,3h129.5c-0.8-1-1.6-2-2.5-3H1564z"/>
	<path d="M1591.8,414c-2.5,0.9-4.9,1.9-7.1,3h84.2c-2.1-1.1-4.3-2.1-6.6-3H1591.8z"/>
	<path d="M1650.1,441h44.9c-0.6-1-1.3-2-2-3h-51.7C1644.5,438.7,1647.4,439.7,1650.1,441z"/>
	<path d="M1579,420c-1.6,1-3.2,2-4.6,3h104.1c-1.4-1-2.8-2.1-4.3-3H1579z"/>
	<path d="M1721.9,462c-0.3,1-0.6,2-0.9,3h35.7c0.4-1,0.8-2,1.3-3H1721.9z"/>
	<path d="M1670.7,498c-0.3,1-0.6,2-1,3h35c0.2-1,0.4-2,0.6-3H1670.7z"/>
	<path d="M1668.6,504c-0.4,1-0.9,2-1.4,3h36.1c0.3-1,0.6-2,0.8-3H1668.6z"/>
	<path d="M1672,492c-0.2,1-0.3,2-0.6,3h34.3c0.1-1,0.2-2,0.3-3H1672z"/>
	<path d="M1601.8,411h51.4c-7.5-2-15.6-3-24.3-3C1618.8,408,1609.8,409.1,1601.8,411z"/>
	<path d="M1665.5,510c-0.6,1-1.2,2-1.9,3h37.5c0.4-1,0.8-2,1.1-3H1665.5z"/>
	<path d="M1718.4,480c-0.1,1-0.2,2-0.2,3h34.3c0.1-1,0.2-2,0.4-3H1718.4z"/>
	<path d="M1719.1,474c-0.2,1-0.3,2-0.4,3h34.6c0.2-1,0.4-2,0.6-3H1719.1z"/>
	<path d="M1720.3,468c-0.2,1-0.4,2-0.6,3h35.1c0.3-1,0.6-2,0.9-3H1720.3z"/>
	<path d="M1718,486c0,0.2,0,0.4,0,0.7l14.9,2.3h19.2c0-0.9,0-1.9,0.1-3H1718z"/>
	<rect x="141.6" y="480" width="34.6" height="3"/>
	<rect x="141.6" y="462" width="34.6" height="3"/>
	<rect x="141.6" y="444" width="34.6" height="3"/>
	<rect x="141.6" y="456" width="34.6" height="3"/>
	<rect x="141.6" y="450" width="34.6" height="3"/>
	<rect x="141.6" y="468" width="34.6" height="3"/>
	<rect x="141.6" y="486" width="34.6" height="3"/>
	<rect x="141.6" y="474" width="34.6" height="3"/>
	<path d="M1661.4,516c-0.8,1-1.6,2-2.5,3h39.4c0.5-1,1-2,1.4-3H1661.4z"/>
	<path d="M977.4,417c-2-1.1-4.1-2.1-6.3-3h-69.3c-2.4,0.9-4.7,1.9-7,3H977.4z"/>
	<path d="M911.7,411h50.7c-7.1-1.9-15.1-3-23.9-3C928.6,408,919.8,409,911.7,411z"/>
	<rect x="141.6" y="414" width="34.6" height="3"/>
	<path d="M1415.3,411h48.1c-7.4-2-15.4-3-24-3C1430.8,408,1422.8,409,1415.3,411z"/>
	<path d="M1231.5,411h51.4c-7.5-2-15.6-3-24.3-3C1248.6,408,1239.6,409.1,1231.5,411z"/>
	<rect x="141.6" y="426" width="34.6" height="3"/>
	<rect x="141.6" y="432" width="34.6" height="3"/>
	<rect x="141.6" y="420" width="34.6" height="3"/>
	<rect x="141.6" y="438" width="34.6" height="3"/>
	<path d="M1624.2,546c-1.7,1-3.3,2-4.9,3h54.1c1.2-1,2.3-2,3.4-3H1624.2z"/>
	<rect x="1036.4" y="666" width="38.4" height="3"/>
	<path d="M957.7,672H908c7.3,1.8,15.4,2.8,24.4,2.8C941.7,674.8,950.1,673.8,957.7,672z"/>
	<path d="M297.9,672h-46.3c7.3,1.9,15.4,2.8,24.4,2.8C283.9,674.8,291.2,673.8,297.9,672z"/>
	<path d="M692.5,672h-53.2c8.1,1.9,16.8,2.8,26.3,2.8C675.3,674.8,684.3,673.8,692.5,672z"/>
	<path d="M1656.2,522c-1,1-2,2-3,3h41.8c0.6-1,1.2-2,1.8-3H1656.2z"/>
	<path d="M1535.1,654c-0.2,1-0.3,2-0.5,3h172.2v-3H1535.1z"/>
	<path d="M1533.5,666c-0.1,1-0.2,2-0.3,3h173.6v-3H1533.5z"/>
	<path d="M1536.2,648c-0.2,1-0.4,2-0.6,3h171.2v-3H1536.2z"/>
	<path d="M1534.2,660c-0.1,1-0.3,2-0.4,3h173v-3H1534.2z"/>
	<path d="M306.5,669c2.1-0.9,4.1-1.9,6-3h-76.5c2.1,1.1,4.2,2.1,6.4,3H306.5z"/>
	<path d="M170.5,633c0.4-1,0.7-2,1.1-3h-37c-0.6,1-1.3,2-2.1,3H170.5z"/>
	<path d="M167.9,639c0.5-1,1-2,1.4-3h-39.5c-1.1,1.1-2.3,2.1-3.7,3H167.9z"/>
	<path d="M164.5,645c0.6-1,1.2-2,1.8-3h-45.9c-4,1.6-8.7,2.7-14.2,3H164.5z"/>
	<path d="M172.5,627c0.3-1,0.6-2,0.8-3h-35.9c-0.4,1-0.8,2-1.3,3H172.5z"/>
	<path d="M1537.6,642c-0.3,1-0.5,2-0.7,3h169.9v-3H1537.6z"/>
	<path d="M317.3,663c1.3-0.9,2.6-1.9,3.8-3h-94.2c1.3,1.1,2.7,2.1,4.1,3H317.3z"/>
	<path d="M260.8,642h-48.9c0.5,1,1,2,1.6,3h56C266.6,644.4,263.7,643.4,260.8,642z"/>
	<path d="M329.4,651c0.7-1,1.4-2,2-3H215.4c0.7,1,1.4,2,2.2,3H329.4z"/>
	<path d="M1462.7,672H1415c7.6,1.8,15.7,2.8,24.4,2.8C1447.7,674.8,1455.5,673.8,1462.7,672z"/>
	<path d="M1614.4,552c-1.7,1-3.3,2-4.8,3h56.4c1.3-1,2.6-2,3.9-3H1614.4z"/>
	<path d="M1604.8,558c-1.5,1-3.1,2-4.6,3h57.3c1.4-1,2.9-2,4.3-3H1604.8z"/>
	<path d="M1778,642h-48.8c0.7,1,1.5,2,2.2,3h56.3C1784.3,644.3,1781,643.3,1778,642z"/>
	<path d="M1579.9,576c-1.2,1-2.3,2-3.5,3h52.7c1.6-1,3.2-2,4.8-3H1579.9z"/>
	<path d="M1642.4,534c-1.4,1-2.8,2-4.2,3h47.7c0.9-1,1.7-2,2.6-3H1642.4z"/>
	<rect x="141.6" y="492" width="34.6" height="3"/>
	<path d="M1649.9,528c-1.2,1-2.4,2-3.6,3h44.6c0.7-1,1.5-2,2.2-3H1649.9z"/>
	<path d="M1573.2,582c-1,1-2.1,2-3.1,3h49.7c1.5-1,3.1-2,4.6-3H1573.2z"/>
	<path d="M1595.8,564c-1.4,1-2.9,2-4.3,3h56.9c1.5-1,3.1-2,4.6-3H1595.8z"/>
	<path d="M1718,618c0.3,1,0.6,2,0.9,3h36.4c-0.5-1-1-2-1.5-3H1718z"/>
	<path d="M1716.6,612c0.2,1,0.4,2,0.7,3h35.3c-0.4-1-0.8-2-1.1-3H1716.6z"/>
	<path d="M1719.9,624c0.4,1,0.8,2,1.2,3h38c-0.7-1-1.4-2-2-3H1719.9z"/>
	<path d="M1735.9,588l-20.1,3h31.9c0-1-0.1-2-0.1-3H1735.9z"/>
	<path d="M1725.4,636c0.6,1,1.2,2,1.8,3h44.9c-1.5-0.9-3-1.9-4.4-3H1725.4z"/>
	<path d="M1714.6,594c0,1,0,2,0.1,3h33.5c-0.1-1-0.2-2-0.3-3H1714.6z"/>
	<path d="M1714.9,600c0.1,1,0.2,2,0.3,3h33.9c-0.2-1-0.4-2-0.5-3H1714.9z"/>
	<path d="M1715.5,606c0.1,1,0.3,2,0.4,3h34.5c-0.3-1-0.5-2-0.8-3H1715.5z"/>
	<path d="M1746.1,426c-1.2,1-2.4,2-3.5,3h116.7c-1.1-1-2.1-2-3.3-3H1746.1z"/>
	<path d="M1843.9,564c1,0.9,1.9,1.9,2.7,3h37.7c-0.4-1-0.8-2-1.2-3H1843.9z"/>
	<path d="M1817.6,552c4.1,0.7,8,1.7,11.6,3h49.2c-0.6-1-1.3-2-2-3H1817.6z"/>
	<path d="M1831.6,510c-1.3,1.1-2.8,2.1-4.3,3h41.1c0.7-1,1.3-2,2-3H1831.6z"/>
	<path d="M1835.7,558c1.6,0.9,3.2,1.9,4.6,3h41.3c-0.5-1-1-2-1.6-3H1835.7z"/>
	<path d="M1781.9,546v3h92.1c-0.9-1-1.7-2-2.7-3H1781.9z"/>
	<path d="M1781.9,522v3h75.4c1.2-1,2.3-2,3.4-3H1781.9z"/>
	<path d="M1821.5,516c-2.9,1.3-6,2.3-9.2,3h51.3c0.9-1,1.8-2,2.6-3H1821.5z"/>
	<path d="M1781.9,528v3h66.3c1.7-0.9,3.4-1.9,5-3H1781.9z"/>
	<path d="M1781.9,534v3h78.2c-1.9-1.1-3.8-2.1-5.9-3H1781.9z"/>
	<path d="M1781.9,540v3h86.4c-1.2-1.1-2.4-2-3.7-3H1781.9z"/>
	<path d="M1853.7,612c-0.3,1-0.5,2-0.9,3h34.6c0.2-1,0.4-2,0.6-3H1853.7z"/>
	<path d="M1854.9,606c-0.1,1-0.3,2-0.5,3h34.1c0.1-1,0.3-2,0.4-3H1854.9z"/>
	<path d="M1851.8,618c-0.4,1-0.9,2-1.3,3h35.4c0.3-1,0.6-2,0.8-3H1851.8z"/>
	<path d="M1848.8,570c0.6,1,1.2,2,1.8,3h35.8c-0.3-1-0.6-2-0.9-3H1848.8z"/>
	<path d="M1855.5,600c-0.1,1-0.1,2-0.2,3h33.9c0.1-1,0.1-2,0.2-3H1855.5z"/>
	<path d="M1851.9,576c0.4,1,0.8,2,1.1,3h34.7c-0.2-1-0.4-2-0.7-3H1851.9z"/>
	<path d="M1853.9,582c0.2,1,0.5,2,0.6,3h34.1c-0.1-1-0.3-2-0.4-3H1853.9z"/>
	<rect x="141.6" y="498" width="34.6" height="3"/>
	<path d="M1754.7,420c-1.6,1-3.1,1.9-4.6,3h102.2c-1.5-1.1-3-2.1-4.5-3H1754.7z"/>
	<path d="M1739.5,432c-0.9,1-1.9,2-2.8,3h127.9c-0.8-1-1.6-2-2.5-3H1739.5z"/>
	<path d="M174.1,621c0.2-1,0.4-2,0.6-3h-35.3c-0.2,1-0.5,2-0.8,3H174.1z"/>
	<path d="M1815.7,438c2.9,0.8,5.6,1.8,8.1,3h45c-0.6-1-1.3-2-1.9-3H1815.7z"/>
	<path d="M1837.5,504c-0.8,1-1.7,2-2.6,3h37.3c0.5-1,1-2,1.5-3H1837.5z"/>
	<path d="M1828.9,444c1.3,0.9,2.5,1.9,3.7,3h39.3c-0.5-1-1-2-1.5-3H1828.9z"/>
	<rect x="141.6" y="408" width="34.6" height="3"/>
	<path d="M1767,414c-2.3,0.9-4.6,1.9-6.8,3h82.1c-2.2-1.1-4.5-2.1-6.9-3H1767z"/>
	<path d="M1776.4,411h49.4c-8-2-16.5-3-25.3-3C1792,408,1783.9,409.1,1776.4,411z"/>
	<path d="M1848.8,624c-0.6,1-1.3,2-2,3h36.9c0.4-1,0.8-2,1.1-3H1848.8z"/>
	<path d="M1845,474c0.1,1,0.2,2,0.2,3h33.4c0-1-0.1-2-0.2-3H1845z"/>
	<path d="M1843.7,492c-0.3,1-0.6,2-1,3h34.2c0.3-1,0.5-2,0.7-3H1843.7z"/>
	<path d="M1844.9,486c-0.1,1-0.3,2-0.5,3h33.7c0.2-1,0.3-2,0.4-3H1844.9z"/>
	<path d="M1841.3,498c-0.5,1-1.1,2-1.7,3h35.3c0.4-1,0.7-2,1.1-3H1841.3z"/>
	<path d="M1842.4,462c0.3,1,0.7,2,1,3h34.1c-0.2-1-0.4-2-0.6-3H1842.4z"/>
	<path d="M1839.7,456c0.5,1,1,2,1.5,3h35c-0.3-1-0.6-2-0.8-3H1839.7z"/>
	<path d="M1835.5,450c0.8,1,1.6,2,2.3,3h36.6c-0.4-1-0.7-2-1.1-3H1835.5z"/>
	<path d="M1844.1,468c0.2,1,0.4,2,0.5,3h33.6c-0.1-1-0.2-2-0.4-3H1844.1z"/>
	<path d="M1855.1,588c0.1,1,0.2,2,0.3,3h33.9c-0.1-1-0.1-2-0.2-3H1855.1z"/>
	<path d="M59.4,609c-0.1-1-0.3-2-0.4-3H24.2c0.1,1,0.2,2,0.3,3H59.4z"/>
	<rect x="23.8" y="576" width="34.6" height="3"/>
	<rect x="141.6" y="564" width="34.6" height="3"/>
	<rect x="141.6" y="558" width="34.6" height="3"/>
	<path d="M58.4,591c0-0.2,0-0.4,0-0.6V588H23.8v3H58.4z"/>
	<rect x="23.8" y="582" width="34.6" height="3"/>
	<path d="M58.8,603c-0.1-1-0.1-2-0.2-3H23.8c0,1,0.1,2,0.2,3H58.8z"/>
	<rect x="141.6" y="552" width="34.6" height="3"/>
	<rect x="141.6" y="570" width="34.6" height="3"/>
	<rect x="141.6" y="516" width="34.6" height="3"/>
	<rect x="141.6" y="510" width="34.6" height="3"/>
	<rect x="141.6" y="504" width="34.6" height="3"/>
	<rect x="141.6" y="522" width="34.6" height="3"/>
	<rect x="141.6" y="546" width="34.6" height="3"/>
	<rect x="141.6" y="540" width="34.6" height="3"/>
	<rect x="141.6" y="534" width="34.6" height="3"/>
	<rect x="141.6" y="528" width="34.6" height="3"/>
	<path d="M60.5,615c-0.2-1-0.4-2-0.6-3h-35c0.1,1,0.3,2,0.5,3H60.5z"/>
	<path d="M1775.5,672c7.8,1.8,16.2,2.8,25.3,2.8c9.1,0,17.9-0.9,26.1-2.8H1775.5z"/>
	<path d="M1758.1,666c2.3,1.1,4.7,2.1,7.3,3h72.3c2.6-0.9,5.2-1.9,7.6-3H1758.1z"/>
	<path d="M125.8,672H77c7.4,1.8,15.5,2.8,24.3,2.8C110.5,674.8,118.6,673.8,125.8,672z"/>
	<path d="M1747.5,660c1.5,1,3.1,2.1,4.7,3h99.1c1.7-0.9,3.4-1.9,5.1-3H1747.5z"/>
	<path d="M135.2,669c2.3-0.9,4.5-1.9,6.6-3H60.7c2.2,1.1,4.4,2.1,6.7,3H135.2z"/>
	<path d="M1838,636c-1.5,1.1-3,2.1-4.6,3h44.2c0.6-1,1.2-2,1.8-3H1838z"/>
	<path d="M1739.8,654c1.2,1,2.4,2,3.6,3h117.3c1.3-1,2.5-2,3.8-3H1739.8z"/>
	<path d="M1826.9,642c-3.4,1.3-7,2.3-10.9,3h57.3c0.8-1,1.6-2,2.3-3H1826.9z"/>
	<path d="M64.9,627c-0.5-1-1-2-1.4-3h-36c0.3,1,0.6,2,0.9,3H64.9z"/>
	<path d="M1844.5,630c-0.9,1.1-1.9,2-2.9,3h39.4c0.5-1,1-2,1.4-3H1844.5z"/>
	<path d="M76,639c-1.5-0.9-2.8-1.9-4.1-3H31.8c0.5,1,1,2,1.5,3H76z"/>
	<path d="M69,633c-0.8-1-1.6-2-2.3-3H29.3c0.4,1,0.8,2,1.2,3H69z"/>
	<path d="M146.9,663c1.5-1,2.9-2,4.2-3h-100c1.4,1,2.8,2.1,4.3,3H146.9z"/>
	<path d="M62.2,621c-0.3-1-0.7-2-0.9-3H25.9c0.2,1,0.4,2,0.7,3H62.2z"/>
	<path d="M154.6,657c1.1-1,2.1-2,3-3H44.2c1,1,2.1,2,3.2,3H154.6z"/>
	<path d="M97.6,645c-6-0.3-11.1-1.4-15.4-3H35c0.6,1,1.2,2,1.9,3H97.6z"/>
	<path d="M160.2,651c0.8-1,1.6-2,2.3-3H39.1c0.8,1,1.6,2,2.4,3H160.2z"/>
	<rect x="335" y="552" width="33.8" height="3"/>
	<path d="M242.8,621c-0.3-1-0.6-2-0.8-3h-36.4c0.1,1,0.2,2,0.4,3H242.8z"/>
	<path d="M245.2,627c-0.5-1-1-2-1.4-3h-37.4c0.2,1,0.4,2,0.6,3H245.2z"/>
	<path d="M240.7,609c-0.1-1-0.1-2-0.2-3h-35.7c0,1,0.1,2,0.1,3H240.7z"/>
	<rect x="335" y="648" width="33.8" height="3"/>
	<path d="M249.2,633c-0.8-1-1.6-2-2.3-3h-39.3c0.2,1,0.5,2,0.8,3H249.2z"/>
	<rect x="335" y="642" width="33.8" height="3"/>
	<path d="M255.8,639c-1.2-0.9-2.5-1.9-3.7-3h-42.7c0.4,1,0.7,2,1.1,3H255.8z"/>
	<path d="M333.3,645c0.5-1,1.1-2,1.6-3h-26c-3.1,1.4-6.3,2.4-9.4,3H333.3z"/>
	<path d="M368.8,636h-50.5c-1.3,1.1-2.6,2.1-4,3h54.5V636z"/>
	<path d="M241.4,615c-0.2-1-0.3-2-0.4-3H205c0.1,1,0.1,2,0.2,3H241.4z"/>
	<path d="M240.4,603c0-1,0-2-0.1-3h-35.7c0,1,0,2,0,3H240.4z"/>
	<rect x="335" y="582" width="33.8" height="3"/>
	<rect x="335" y="570" width="33.8" height="3"/>
	<rect x="335" y="564" width="33.8" height="3"/>
	<rect x="335" y="576" width="33.8" height="3"/>
	<rect x="204.6" y="582" width="35.7" height="3"/>
	<path d="M240.3,597c0-1,0-2,0-3h-35.7c0,1,0,2,0,3H240.3z"/>
	<rect x="204.6" y="588" width="35.7" height="3"/>
	<path d="M1543.6,624c-0.4,1-0.8,2-1.2,3h33.9c0.5-1,1.1-2,1.6-3H1543.6z"/>
	<path d="M1479,666h-80.6c2.2,1.1,4.5,2.1,6.9,3h66.9C1474.5,668.1,1476.8,667.1,1479,666z"/>
	<path d="M1380.9,654c1.1,1,2.3,2,3.5,3h108.5c1.2-1,2.3-2,3.5-3H1380.9z"/>
	<path d="M1388.3,660c1.5,1.1,3,2.1,4.6,3h91.5c1.6-0.9,3.1-1.9,4.6-3H1388.3z"/>
	<path d="M1462.5,642c-3,1.3-6.2,2.3-9.7,3h52.1c0.8-1,1.6-2,2.4-3H1462.5z"/>
	<path d="M1375,648c0.9,1,1.8,2,2.8,3h121.7c1-1,1.9-2,2.8-3H1375z"/>
	<rect x="335" y="558" width="33.8" height="3"/>
	<path d="M1541.3,630c-0.4,1-0.7,2-1,3h33.4c0.4-1,0.8-2,1.2-3H1541.3z"/>
	<path d="M1472.4,636c-1.3,1.1-2.7,2.1-4.2,3h41.1c0.7-1,1.3-2,2-3H1472.4z"/>
	<rect x="523.7" y="666" width="35.3" height="3"/>
	<rect x="394.9" y="666" width="34.2" height="3"/>
	<rect x="335" y="654" width="33.8" height="3"/>
	<rect x="335" y="660" width="33.8" height="3"/>
	<path d="M710.5,666h-88.5c2.3,1.1,4.7,2.1,7.2,3h74C705.7,668.1,708.1,667.1,710.5,666z"/>
	<path d="M974.8,666h-83.2c2.2,1.1,4.4,2.1,6.8,3h69.3C970.2,668.1,972.5,667.1,974.8,666z"/>
	<rect x="1036.4" y="660" width="38.4" height="3"/>
	<path d="M881.8,660c1.4,1,2.9,2,4.5,3h94.2c1.6-1,3.2-2,4.7-3H881.8z"/>
	<path d="M1336.6,660H1164c-0.1,1-0.3,2-0.4,3h173V660z"/>
	<path d="M1009.8,459c-0.3-1-0.6-2-1-3h-34c0.5,1,1.1,2,1.5,3H1009.8z"/>
	<path d="M1007.8,453c-0.4-1-0.8-2-1.2-3h-35.8c0.8,1,1.6,2,2.3,3H1007.8z"/>
	<path d="M1000.8,477l12.5-2.1c0-0.3-0.1-0.6-0.1-0.9H981c0.2,1,0.3,2,0.5,3H1000.8z"/>
	<path d="M959.2,441h42.9c-0.6-1-1.2-2-1.9-3h-49.4C953.8,438.7,956.6,439.8,959.2,441z"/>
	<path d="M1233.3,441c2.8-1.2,5.9-2.3,9.2-3h-53.9c-0.7,1-1.5,2-2.1,3H1233.3z"/>
	<path d="M1005.2,447c-0.5-1-1-2-1.5-3h-39.5c1.3,0.9,2.5,1.9,3.6,3H1005.2z"/>
	<path d="M1546.4,618c-0.5,1-1,2-1.4,3h34.9c0.7-1,1.4-2,2.1-3H1546.4z"/>
	<path d="M1012.7,471c-0.2-1-0.4-2-0.6-3h-32.5c0.3,1,0.5,2,0.7,3H1012.7z"/>
	<path d="M1011.5,465c-0.2-1-0.5-2-0.8-3h-33c0.4,1,0.7,2,1.1,3H1011.5z"/>
	<path d="M1279.9,441h44.9c-0.6-1-1.3-2-2-3h-51.7C1274.2,438.7,1277.2,439.7,1279.9,441z"/>
	<path d="M1549,456c-0.4,1-0.7,2-1.1,3h36.4c0.5-1,1.1-2,1.8-3H1549z"/>
	<path d="M1547,462c-0.3,1-0.6,2-0.8,3h35.5c0.4-1,0.8-2,1.2-3H1547z"/>
	<path d="M1551.6,450c-0.5,1-0.9,2-1.4,3h38c0.8-1,1.6-2,2.6-3H1551.6z"/>
	<path d="M1545.4,468c-0.2,1-0.4,2-0.6,3h34.9c0.3-1,0.6-2,0.9-3H1545.4z"/>
	<path d="M1478.5,453h36.3c-0.6-1-1.1-2-1.7-3h-37.4C1476.7,450.9,1477.7,452,1478.5,453z"/>
	<path d="M1367.6,447h39.2c1.4-1.1,2.8-2.1,4.4-3h-41.5C1368.9,445,1368.3,446,1367.6,447z"/>
	<path d="M1374,438c-0.8,1-1.6,2-2.3,3h45.6c3.6-1.4,7.5-2.4,11.7-3H1374z"/>
	<path d="M1467.9,444c1.5,0.9,3,1.9,4.4,3h39c-0.6-1-1.3-2-2-3H1467.9z"/>
	<path d="M444.1,489h91.1c-1.5-1.1-3-2.1-4.5-3h-82.6C446.7,486.9,445.4,487.9,444.1,489z"/>
	<rect x="335" y="504" width="33.8" height="3"/>
	<rect x="335" y="522" width="33.8" height="3"/>
	<rect x="335" y="516" width="33.8" height="3"/>
	<rect x="335" y="510" width="33.8" height="3"/>
	<rect x="335" y="528" width="33.8" height="3"/>
	<rect x="335" y="534" width="33.8" height="3"/>
	<rect x="335" y="546" width="33.8" height="3"/>
	<rect x="335" y="540" width="33.8" height="3"/>
	<path d="M1544.3,474c-0.1,1-0.3,2-0.4,3h34.5c0.2-1,0.4-2,0.6-3H1544.3z"/>
	<path d="M983.1,480h-1.3c0,0.1,0,0.1,0,0.2L983.1,480z"/>
	<path d="M714.6,489c-1.7-1.1-3.5-2.1-5.3-3h-88.4c-1.8,0.9-3.5,1.9-5.2,3H714.6z"/>
	<path d="M849.1,483h31.4c0.3-1,0.6-2,0.9-3h-31.6C849.6,481,849.4,482,849.1,483z"/>
	<rect x="335" y="498" width="33.8" height="3"/>
	<rect x="394.9" y="486" width="34.2" height="3"/>
	<rect x="335" y="492" width="33.8" height="3"/>
	<rect x="335" y="486" width="33.8" height="3"/>
	<rect x="335" y="480.2" width="33.8" height="2.8"/>
	<path d="M1495.1,582c-0.1,1-0.2,2-0.4,3h35.3c0.2-1,0.4-2,0.5-3H1495.1z"/>
	<path d="M505.4,477c-5.5-0.9-11.4-1.3-17.8-1.3c-5.9,0-11.3,0.5-16.3,1.3H505.4z"/>
	<rect x="204.6" y="504" width="35.7" height="3"/>
	<path d="M887.9,465c0.6-1,1.1-2,1.7-3h-33.9c-0.4,1-0.8,2-1.2,3H887.9z"/>
	<path d="M1549.5,612c-0.5,1-1.1,2-1.6,3h36.4c0.8-1,1.7-2,2.5-3H1549.5z"/>
	<path d="M525.1,483c-2.4-1.1-4.9-2.1-7.5-3H460c-2.4,0.9-4.7,1.9-6.8,3H525.1z"/>
	<rect x="204.6" y="480.2" width="35.7" height="2.8"/>
	<rect x="204.6" y="492" width="35.7" height="3"/>
	<rect x="204.6" y="498" width="35.7" height="3"/>
	<rect x="204.6" y="486" width="35.7" height="3"/>
	<path d="M882.5,477c0.4-1,0.7-2,1.1-3h-32.1c-0.3,1-0.6,2-0.9,3H882.5z"/>
	<path d="M993,429c-1-1-2-2-3-3H880.9c-1.2,1-2.3,2-3.5,3H993z"/>
	<path d="M998,435c-0.8-1-1.5-2-2.4-3H874.4c-0.9,1-1.8,2-2.7,3H998z"/>
	<path d="M884.8,423h101.7c-1.3-1-2.7-2.1-4.1-3h-93C887.8,420.9,886.3,421.9,884.8,423z"/>
	<path d="M1308.2,423c-1.4-1-2.8-2.1-4.3-3h-95.1c-1.6,1-3.2,2-4.6,3H1308.2z"/>
	<path d="M913.3,441c3-1.3,6.1-2.3,9.5-3h-53.7c-0.8,1-1.5,2-2.2,3H913.3z"/>
	<path d="M891.6,459c0.7-1,1.5-2,2.2-3h-35.5c-0.5,1-0.9,2-1.4,3H891.6z"/>
	<path d="M896.4,453c1-1,2-2,3-3h-38.1c-0.5,1-1.1,2-1.6,3H896.4z"/>
	<path d="M903,447c1.4-1.1,2.9-2.1,4.5-3h-42.5c-0.6,1-1.3,2-1.9,3H903z"/>
	<rect x="204.6" y="558" width="35.7" height="3"/>
	<rect x="141.6" y="576" width="34.6" height="3"/>
	<rect x="204.6" y="510" width="35.7" height="3"/>
	<rect x="204.6" y="564" width="35.7" height="3"/>
	<rect x="204.6" y="570" width="35.7" height="3"/>
	<rect x="204.6" y="576" width="35.7" height="3"/>
	<rect x="141.6" y="588" width="34.6" height="3"/>
	<path d="M175.8,609c0.1-1,0.1-2,0.2-3h-34.8c-0.1,1-0.2,2-0.3,3H175.8z"/>
	<path d="M176.1,603c0-0.8,0-1.6,0-2.3V600h-34.6c0,1-0.1,2-0.1,3H176.1z"/>
	<rect x="141.6" y="582" width="34.6" height="3"/>
	<rect x="204.6" y="528" width="35.7" height="3"/>
	<rect x="204.6" y="522" width="35.7" height="3"/>
	<path d="M1214.4,417h84.2c-2.1-1.1-4.3-2.1-6.6-3h-70.5C1219.1,414.9,1216.7,415.9,1214.4,417z"/>
	<rect x="204.6" y="534" width="35.7" height="3"/>
	<rect x="204.6" y="516" width="35.7" height="3"/>
	<rect x="204.6" y="552" width="35.7" height="3"/>
	<rect x="204.6" y="540" width="35.7" height="3"/>
	<rect x="204.6" y="546" width="35.7" height="3"/>
	<path d="M884.9,471c0.4-1,0.9-2,1.4-3h-32.9c-0.3,1-0.7,2-1,3H884.9z"/>
	<path d="M1497,552c0,1,0,2-0.1,3h36.3c0-1,0.1-2,0.1-3H1497z"/>
	<path d="M1497,528c0,1,0,2,0.1,3h36.4c0-1-0.1-2-0.1-3H1497z"/>
	<path d="M1497.1,546c0,1,0,2,0,3h36.4c0-1,0-2,0.1-3H1497.1z"/>
	<path d="M1496.8,522c0,1,0.1,2,0.1,3h36.3c-0.1-1-0.1-2-0.2-3H1496.8z"/>
	<path d="M1497.1,534c0,1,0,2,0,3h36.5c0-1,0-2-0.1-3H1497.1z"/>
	<path d="M1495.5,504c0.1,1,0.2,2,0.3,3h35.6c-0.1-1-0.3-2-0.4-3H1495.5z"/>
	<path d="M1496.5,516c0.1,1,0.1,2,0.2,3h36.1c-0.1-1-0.2-2-0.3-3H1496.5z"/>
	<path d="M1496.1,510c0.1,1,0.2,2,0.2,3h35.9c-0.1-1-0.2-2-0.3-3H1496.1z"/>
	<path d="M1494.8,498c0.1,1,0.3,2,0.4,3h35.3c-0.2-1-0.3-2-0.5-3H1494.8z"/>
	<path d="M1406.2,414c-2.3,0.9-4.5,1.9-6.6,3h79.6c-2.1-1.1-4.4-2.1-6.6-3H1406.2z"/>
	<path d="M1567.2,588c-0.9,1-1.8,2-2.7,3h46.6c1.4-1,2.9-2,4.3-3H1567.2z"/>
	<path d="M175.1,615c0.1-1,0.3-2,0.4-3h-35c-0.2,1-0.3,2-0.5,3H175.1z"/>
	<path d="M1557.2,600c-0.7,1-1.4,2-2.1,3h40.7c1.1-1,2.3-2,3.5-3H1557.2z"/>
	<path d="M1496.9,558c0,1-0.1,2-0.1,3h36.2c0.1-1,0.1-2,0.2-3H1496.9z"/>
	<path d="M1495.8,576c-0.1,1-0.2,2-0.3,3h35.6c0.1-1,0.3-2,0.4-3H1495.8z"/>
	<path d="M1496.6,564c-0.1,1-0.1,2-0.2,3h36c0.1-1,0.2-2,0.3-3H1496.6z"/>
	<path d="M1496.2,570c-0.1,1-0.2,2-0.2,3h35.8c0.1-1,0.2-2,0.3-3H1496.2z"/>
	<path d="M1561.9,594c-0.8,1-1.6,2-2.4,3h43.5c1.3-1,2.6-2,3.9-3H1561.9z"/>
	<path d="M1553.1,447h40.8c1.3-1.1,2.6-2.1,4-3h-43.1C1554.3,445,1553.7,446,1553.1,447z"/>
	<path d="M1558.9,438c-0.7,1-1.5,2-2.1,3h46.8c2.8-1.2,5.9-2.3,9.2-3H1558.9z"/>
	<path d="M1461.7,441h45.5c-0.8-1-1.5-2-2.3-3h-55C1454.1,438.6,1458.1,439.6,1461.7,441z"/>
	<path d="M1655.4,444c1.3,0.9,2.6,1.9,3.8,3h39.1c-0.5-1-1-2-1.6-3H1655.4z"/>
	<path d="M1385.9,426c-1.2,1-2.3,2-3.4,3h113.9c-1.1-1-2.3-2-3.5-3H1385.9z"/>
	<path d="M1494,492c0.2,1,0.3,2,0.5,3h35c-0.2-1-0.4-2-0.6-3H1494z"/>
	<path d="M1662.1,450c0.8,1,1.6,2,2.3,3h36.5c-0.4-1-0.8-2-1.2-3H1662.1z"/>
	<path d="M1379.4,432c-1,1-1.9,2-2.8,3h125.7c-0.9-1-1.9-2-2.8-3H1379.4z"/>
	<path d="M1394.3,420c-1.5,0.9-3,1.9-4.5,3h99.2c-1.5-1.1-3-2.1-4.5-3H1394.3z"/>
	<path d="M1706.4,486h-33.8c0,1-0.1,2-0.2,3h33.9C1706.4,488,1706.4,487,1706.4,486z"/>
	<path d="M1672.5,480c0.1,1,0.1,2,0.1,3h33.8c0-1,0-2-0.1-3H1672.5z"/>
	<path d="M1543.4,486c0,0.5,0,1,0,1.4l9.9,1.6h23.9c0-1,0.1-2,0.1-3H1543.4z"/>
	<path d="M1572.4,492l4.8,0.8c0-0.2,0-0.5,0-0.8H1572.4z"/>
	<path d="M1669,462c0.4,1,0.7,2,1,3h34.4c-0.2-1-0.5-2-0.7-3H1669z"/>
	<path d="M1666.3,456c0.5,1,1,2,1.5,3h35.1c-0.3-1-0.6-2-0.9-3H1666.3z"/>
	<path d="M1671.9,474c0.1,1,0.2,2,0.3,3h33.9c-0.1-1-0.2-2-0.3-3H1671.9z"/>
	<path d="M1670.8,468c0.2,1,0.5,2,0.6,3h34c-0.1-1-0.3-2-0.5-3H1670.8z"/>
</g>
</svg>
