<?xml version="1.0" encoding="utf-8"?>
<!-- Generator: Adobe Illustrator 26.2.1, SVG Export Plug-In . SVG Version: 6.00 Build 0)  -->
<svg version="1.1" id="Layer_1" xmlns="http://www.w3.org/2000/svg" xmlns:xlink="http://www.w3.org/1999/xlink" x="0px" y="0px"
	 viewBox="0 0 1920 3240" style="enable-background:new 0 0 1920 3240;" xml:space="preserve">
<style type="text/css">
	.st0{fill:#FFFFFF;}
</style>
<path class="st0" d="M4,2430h2v810H4H2H0v-810v-810V810h2v810h2V2430z M12,1620h-2V810H8V0H6H4H2v810h2v810h2v810h2v810h2h2h2v-810
	h-2V1620z M20,1620h-2V810h-2V0h-2h-2h-2v810h2v810h2v810h2v810h2h2h2v-810h-2V1620z M28,1620h-2V810h-2V0h-2h-2h-2v810h2v810h2v810
	h2v810h2h2h2v-810h-2V1620z M36,1620h-2V810h-2V0h-2h-2h-2v810h2v810h2v810h2v810h2h2h2v-810h-2V1620z M44,1620h-2V810h-2V0h-2h-2
	h-2v810h2v810h2v810h2v810h2h2h2v-810h-2V1620z M52,1620h-2V810h-2V0h-2h-2h-2v810h2v810h2v810h2v810h2h2h2v-810h-2V1620z M60,1620
	h-2V810h-2V0h-2h-2h-2v810h2v810h2v810h2v810h2h2h2v-810h-2V1620z M68,1620h-2V810h-2V0h-2h-2h-2v810h2v810h2v810h2v810h2h2h2v-810
	h-2V1620z M76,1620h-2V810h-2V0h-2h-2h-2v810h2v810h2v810h2v810h2h2h2v-810h-2V1620z M84,1620h-2V810h-2V0h-2h-2h-2v810h2v810h2v810
	h2v810h2h2h2v-810h-2V1620z M92,1620h-2V810h-2V0h-2h-2h-2v810h2v810h2v810h2v810h2h2h2v-810h-2V1620z M100,1620h-2V810h-2V0h-2h-2
	h-2v810h2v810h2v810h2v810h2h2h2v-810h-2V1620z M108,1620h-2V810h-2V0h-2h-2h-2v810h2v810h2v810h2v810h2h2h2v-810h-2V1620z
	 M116,1620h-2V810h-2V0h-2h-2h-2v810h2v810h2v810h2v810h2h2h2v-810h-2V1620z M124,1620h-2V810h-2V0h-2h-2h-2v810h2v810h2v810h2v810
	h2h2h2v-810h-2V1620z M132,1620h-2V810h-2V0h-2h-2h-2v810h2v810h2v810h2v810h2h2h2v-810h-2V1620z M140,1620h-2V810h-2V0h-2h-2h-2
	v810h2v810h2v810h2v810h2h2h2v-810h-2V1620z M148,1620h-2V810h-2V0h-2h-2h-2v810h2v810h2v810h2v810h2h2h2v-810h-2V1620z M156,1620
	h-2V810h-2V0h-2h-2h-2v810h2v810h2v810h2v810h2h2h2v-810h-2V1620z M164,1620h-2V810h-2V0h-2h-2h-2v810h2v810h2v810h2v810h2h2h2v-810
	h-2V1620z M172,1620h-2V810h-2V0h-2h-2h-2v810h2v810h2v810h2v810h2h2h2v-810h-2V1620z M180,1620h-2V810h-2V0h-2h-2h-2v810h2v810h2
	v810h2v810h2h2h2v-810h-2V1620z M188,1620h-2V810h-2V0h-2h-2h-2v810h2v810h2v810h2v810h2h2h2v-810h-2V1620z M196,1620h-2V810h-2V0
	h-2h-2h-2v810h2v810h2v810h2v810h2h2h2v-810h-2V1620z M204,1620h-2V810h-2V0h-2h-2h-2v810h2v810h2v810h2v810h2h2h2v-810h-2V1620z
	 M212,1620h-2V810h-2V0h-2h-2h-2v810h2v810h2v810h2v810h2h2h2v-810h-2V1620z M220,1620h-2V810h-2V0h-2h-2h-2v810h2v810h2v810h2v810
	h2h2h2v-810h-2V1620z M228,1620h-2V810h-2V0h-2h-2h-2v810h2v810h2v810h2v810h2h2h2v-810h-2V1620z M236,1620h-2V810h-2V0h-2h-2h-2
	v810h2v810h2v810h2v810h2h2h2v-810h-2V1620z M244,1620h-2V810h-2V0h-2h-2h-2v810h2v810h2v810h2v810h2h2h2v-810h-2V1620z M252,1620
	h-2V810h-2V0h-2h-2h-2v810h2v810h2v810h2v810h2h2h2v-810h-2V1620z M260,1620h-2V810h-2V0h-2h-2h-2v810h2v810h2v810h2v810h2h2h2v-810
	h-2V1620z M268,1620h-2V810h-2V0h-2h-2h-2v810h2v810h2v810h2v810h2h2h2v-810h-2V1620z M276,1620h-2V810h-2V0h-2h-2h-2v810h2v810h2
	v810h2v810h2h2h2v-810h-2V1620z M284,1620h-2V810h-2V0h-2h-2h-2v810h2v810h2v810h2v810h2h2h2v-810h-2V1620z M292,1620h-2V810h-2V0
	h-2h-2h-2v810h2v810h2v810h2v810h2h2h2v-810h-2V1620z M300,1620h-2V810h-2V0h-2h-2h-2v810h2v810h2v810h2v810h2h2h2v-810h-2V1620z
	 M308,1620h-2V810h-2V0h-2h-2h-2v810h2v810h2v810h2v810h2h2h2v-810h-2V1620z M316,1620h-2V810h-2V0h-2h-2h-2v810h2v810h2v810h2v810
	h2h2h2v-810h-2V1620z M324,1620h-2V810h-2V0h-2h-2h-2v810h2v810h2v810h2v810h2h2h2v-810h-2V1620z M332,1620h-2V810h-2V0h-2h-2h-2
	v810h2v810h2v810h2v810h2h2h2v-810h-2V1620z M340,1620h-2V810h-2V0h-2h-2h-2v810h2v810h2v810h2v810h2h2h2v-810h-2V1620z M348,1620
	h-2V810h-2V0h-2h-2h-2v810h2v810h2v810h2v810h2h2h2v-810h-2V1620z M356,1620h-2V810h-2V0h-2h-2h-2v810h2v810h2v810h2v810h2h2h2v-810
	h-2V1620z M364,1620h-2V810h-2V0h-2h-2h-2v810h2v810h2v810h2v810h2h2h2v-810h-2V1620z M372,1620h-2V810h-2V0h-2h-2h-2v810h2v810h2
	v810h2v810h2h2h2v-810h-2V1620z M380,1620h-2V810h-2V0h-2h-2h-2v810h2v810h2v810h2v810h2h2h2v-810h-2V1620z M388,1620h-2V810h-2V0
	h-2h-2h-2v810h2v810h2v810h2v810h2h2h2v-810h-2V1620z M396,1620h-2V810h-2V0h-2h-2h-2v810h2v810h2v810h2v810h2h2h2v-810h-2V1620z
	 M404,1620h-2V810h-2V0h-2h-2h-2v810h2v810h2v810h2v810h2h2h2v-810h-2V1620z M412,1620h-2V810h-2V0h-2h-2h-2v810h2v810h2v810h2v810
	h2h2h2v-810h-2V1620z M420,1620h-2V810h-2V0h-2h-2h-2v810h2v810h2v810h2v810h2h2h2v-810h-2V1620z M428,1620h-2V810h-2V0h-2h-2h-2
	v810h2v810h2v810h2v810h2h2h2v-810h-2V1620z M436,1620h-2V810h-2V0h-2h-2h-2v810h2v810h2v810h2v810h2h2h2v-810h-2V1620z M444,1620
	h-2V810h-2V0h-2h-2h-2v810h2v810h2v810h2v810h2h2h2v-810h-2V1620z M452,1620h-2V810h-2V0h-2h-2h-2v810h2v810h2v810h2v810h2h2h2v-810
	h-2V1620z M460,1620h-2V810h-2V0h-2h-2h-2v810h2v810h2v810h2v810h2h2h2v-810h-2V1620z M468,1620h-2V810h-2V0h-2h-2h-2v810h2v810h2
	v810h2v810h2h2h2v-810h-2V1620z M476,1620h-2V810h-2V0h-2h-2h-2v810h2v810h2v810h2v810h2h2h2v-810h-2V1620z M484,1620h-2V810h-2V0
	h-2h-2h-2v810h2v810h2v810h2v810h2h2h2v-810h-2V1620z M492,1620h-2V810h-2V0h-2h-2h-2v810h2v810h2v810h2v810h2h2h2v-810h-2V1620z
	 M500,1620h-2V810h-2V0h-2h-2h-2v810h2v810h2v810h2v810h2h2h2v-810h-2V1620z M508,1620h-2V810h-2V0h-2h-2h-2v810h2v810h2v810h2v810
	h2h2h2v-810h-2V1620z M516,1620h-2V810h-2V0h-2h-2h-2v810h2v810h2v810h2v810h2h2h2v-810h-2V1620z M524,1620h-2V810h-2V0h-2h-2h-2
	v810h2v810h2v810h2v810h2h2h2v-810h-2V1620z M532,1620h-2V810h-2V0h-2h-2h-2v810h2v810h2v810h2v810h2h2h2v-810h-2V1620z M540,1620
	h-2V810h-2V0h-2h-2h-2v810h2v810h2v810h2v810h2h2h2v-810h-2V1620z M548,1620h-2V810h-2V0h-2h-2h-2v810h2v810h2v810h2v810h2h2h2v-810
	h-2V1620z M556,1620h-2V810h-2V0h-2h-2h-2v810h2v810h2v810h2v810h2h2h2v-810h-2V1620z M564,1620h-2V810h-2V0h-2h-2h-2v810h2v810h2
	v810h2v810h2h2h2v-810h-2V1620z M572,1620h-2V810h-2V0h-2h-2h-2v810h2v810h2v810h2v810h2h2h2v-810h-2V1620z M580,1620h-2V810h-2V0
	h-2h-2h-2v810h2v810h2v810h2v810h2h2h2v-810h-2V1620z M588,1620h-2V810h-2V0h-2h-2h-2v810h2v810h2v810h2v810h2h2h2v-810h-2V1620z
	 M596,1620h-2V810h-2V0h-2h-2h-2v810h2v810h2v810h2v810h2h2h2v-810h-2V1620z M604,1620h-2V810h-2V0h-2h-2h-2v810h2v810h2v810h2v810
	h2h2h2v-810h-2V1620z M612,1620h-2V810h-2V0h-2h-2h-2v810h2v810h2v810h2v810h2h2h2v-810h-2V1620z M620,1620h-2V810h-2V0h-2h-2h-2
	v810h2v810h2v810h2v810h2h2h2v-810h-2V1620z M628,1620h-2V810h-2V0h-2h-2h-2v810h2v810h2v810h2v810h2h2h2v-810h-2V1620z M636,1620
	h-2V810h-2V0h-2h-2h-2v810h2v810h2v810h2v810h2h2h2v-810h-2V1620z M644,1620h-2V810h-2V0h-2h-2h-2v810h2v810h2v810h2v810h2h2h2v-810
	h-2V1620z M652,1620h-2V810h-2V0h-2h-2h-2v810h2v810h2v810h2v810h2h2h2v-810h-2V1620z M660,1620h-2V810h-2V0h-2h-2h-2v810h2v810h2
	v810h2v810h2h2h2v-810h-2V1620z M668,1620h-2V810h-2V0h-2h-2h-2v810h2v810h2v810h2v810h2h2h2v-810h-2V1620z M676,1620h-2V810h-2V0
	h-2h-2h-2v810h2v810h2v810h2v810h2h2h2v-810h-2V1620z M684,1620h-2V810h-2V0h-2h-2h-2v810h2v810h2v810h2v810h2h2h2v-810h-2V1620z
	 M692,1620h-2V810h-2V0h-2h-2h-2v810h2v810h2v810h2v810h2h2h2v-810h-2V1620z M700,1620h-2V810h-2V0h-2h-2h-2v810h2v810h2v810h2v810
	h2h2h2v-810h-2V1620z M708,1620h-2V810h-2V0h-2h-2h-2v810h2v810h2v810h2v810h2h2h2v-810h-2V1620z M716,1620h-2V810h-2V0h-2h-2h-2
	v810h2v810h2v810h2v810h2h2h2v-810h-2V1620z M724,1620h-2V810h-2V0h-2h-2h-2v810h2v810h2v810h2v810h2h2h2v-810h-2V1620z M732,1620
	h-2V810h-2V0h-2h-2h-2v810h2v810h2v810h2v810h2h2h2v-810h-2V1620z M740,1620h-2V810h-2V0h-2h-2h-2v810h2v810h2v810h2v810h2h2h2v-810
	h-2V1620z M748,1620h-2V810h-2V0h-2h-2h-2v810h2v810h2v810h2v810h2h2h2v-810h-2V1620z M756,1620h-2V810h-2V0h-2h-2h-2v810h2v810h2
	v810h2v810h2h2h2v-810h-2V1620z M764,1620h-2V810h-2V0h-2h-2h-2v810h2v810h2v810h2v810h2h2h2v-810h-2V1620z M772,1620h-2V810h-2V0
	h-2h-2h-2v810h2v810h2v810h2v810h2h2h2v-810h-2V1620z M780,1620h-2V810h-2V0h-2h-2h-2v810h2v810h2v810h2v810h2h2h2v-810h-2V1620z
	 M788,1620h-2V810h-2V0h-2h-2h-2v810h2v810h2v810h2v810h2h2h2v-810h-2V1620z M796,1620h-2V810h-2V0h-2h-2h-2v810h2v810h2v810h2v810
	h2h2h2v-810h-2V1620z M804,1620h-2V810h-2V0h-2h-2h-2v810h2v810h2v810h2v810h2h2h2v-810h-2V1620z M812,1620h-2V810h-2V0h-2h-2h-2
	v810h2v810h2v810h2v810h2h2h2v-810h-2V1620z M820,1620h-2V810h-2V0h-2h-2h-2v810h2v810h2v810h2v810h2h2h2v-810h-2V1620z M828,1620
	h-2V810h-2V0h-2h-2h-2v810h2v810h2v810h2v810h2h2h2v-810h-2V1620z M836,1620h-2V810h-2V0h-2h-2h-2v810h2v810h2v810h2v810h2h2h2v-810
	h-2V1620z M844,1620h-2V810h-2V0h-2h-2h-2v810h2v810h2v810h2v810h2h2h2v-810h-2V1620z M852,1620h-2V810h-2V0h-2h-2h-2v810h2v810h2
	v810h2v810h2h2h2v-810h-2V1620z M860,1620h-2V810h-2V0h-2h-2h-2v810h2v810h2v810h2v810h2h2h2v-810h-2V1620z M868,1620h-2V810h-2V0
	h-2h-2h-2v810h2v810h2v810h2v810h2h2h2v-810h-2V1620z M876,1620h-2V810h-2V0h-2h-2h-2v810h2v810h2v810h2v810h2h2h2v-810h-2V1620z
	 M884,1620h-2V810h-2V0h-2h-2h-2v810h2v810h2v810h2v810h2h2h2v-810h-2V1620z M892,1620h-2V810h-2V0h-2h-2h-2v810h2v810h2v810h2v810
	h2h2h2v-810h-2V1620z M900,1620h-2V810h-2V0h-2h-2h-2v810h2v810h2v810h2v810h2h2h2v-810h-2V1620z M908,1620h-2V810h-2V0h-2h-2h-2
	v810h2v810h2v810h2v810h2h2h2v-810h-2V1620z M916,1620h-2V810h-2V0h-2h-2h-2v810h2v810h2v810h2v810h2h2h2v-810h-2V1620z M924,1620
	h-2V810h-2V0h-2h-2h-2v810h2v810h2v810h2v810h2h2h2v-810h-2V1620z M932,1620h-2V810h-2V0h-2h-2h-2v810h2v810h2v810h2v810h2h2h2v-810
	h-2V1620z M940,1620h-2V810h-2V0h-2h-2h-2v810h2v810h2v810h2v810h2h2h2v-810h-2V1620z M948,1620h-2V810h-2V0h-2h-2h-2v810h2v810h2
	v810h2v810h2h2h2v-810h-2V1620z M956,1620h-2V810h-2V0h-2h-2h-2v810h2v810h2v810h2v810h2h2h2v-810h-2V1620z M964,1620h-2V810h-2V0
	h-2h-2h-2v810h2v810h2v810h2v810h2h2h2v-810h-2V1620z M972,1620h-2V810h-2V0h-2h-2h-2v810h2v810h2v810h2v810h2h2h2v-810h-2V1620z
	 M980,1620h-2V810h-2V0h-2h-2h-2v810h2v810h2v810h2v810h2h2h2v-810h-2V1620z M988,1620h-2V810h-2V0h-2h-2h-2v810h2v810h2v810h2v810
	h2h2h2v-810h-2V1620z M996,1620h-2V810h-2V0h-2h-2h-2v810h2v810h2v810h2v810h2h2h2v-810h-2V1620z M1004,1620h-2V810h-2V0h-2h-2h-2
	v810h2v810h2v810h2v810h2h2h2v-810h-2V1620z M1012,1620h-2V810h-2V0h-2h-2h-2v810h2v810h2v810h2v810h2h2h2v-810h-2V1620z M1020,1620
	h-2V810h-2V0h-2h-2h-2v810h2v810h2v810h2v810h2h2h2v-810h-2V1620z M1028,1620h-2V810h-2V0h-2h-2h-2v810h2v810h2v810h2v810h2h2h2
	v-810h-2V1620z M1036,1620h-2V810h-2V0h-2h-2h-2v810h2v810h2v810h2v810h2h2h2v-810h-2V1620z M1044,1620h-2V810h-2V0h-2h-2h-2v810h2
	v810h2v810h2v810h2h2h2v-810h-2V1620z M1052,1620h-2V810h-2V0h-2h-2h-2v810h2v810h2v810h2v810h2h2h2v-810h-2V1620z M1060,1620h-2
	V810h-2V0h-2h-2h-2v810h2v810h2v810h2v810h2h2h2v-810h-2V1620z M1068,1620h-2V810h-2V0h-2h-2h-2v810h2v810h2v810h2v810h2h2h2v-810
	h-2V1620z M1076,1620h-2V810h-2V0h-2h-2h-2v810h2v810h2v810h2v810h2h2h2v-810h-2V1620z M1084,1620h-2V810h-2V0h-2h-2h-2v810h2v810h2
	v810h2v810h2h2h2v-810h-2V1620z M1092,1620h-2V810h-2V0h-2h-2h-2v810h2v810h2v810h2v810h2h2h2v-810h-2V1620z M1100,1620h-2V810h-2V0
	h-2h-2h-2v810h2v810h2v810h2v810h2h2h2v-810h-2V1620z M1108,1620h-2V810h-2V0h-2h-2h-2v810h2v810h2v810h2v810h2h2h2v-810h-2V1620z
	 M1116,1620h-2V810h-2V0h-2h-2h-2v810h2v810h2v810h2v810h2h2h2v-810h-2V1620z M1124,1620h-2V810h-2V0h-2h-2h-2v810h2v810h2v810h2
	v810h2h2h2v-810h-2V1620z M1132,1620h-2V810h-2V0h-2h-2h-2v810h2v810h2v810h2v810h2h2h2v-810h-2V1620z M1140,1620h-2V810h-2V0h-2h-2
	h-2v810h2v810h2v810h2v810h2h2h2v-810h-2V1620z M1148,1620h-2V810h-2V0h-2h-2h-2v810h2v810h2v810h2v810h2h2h2v-810h-2V1620z
	 M1156,1620h-2V810h-2V0h-2h-2h-2v810h2v810h2v810h2v810h2h2h2v-810h-2V1620z M1164,1620h-2V810h-2V0h-2h-2h-2v810h2v810h2v810h2
	v810h2h2h2v-810h-2V1620z M1172,1620h-2V810h-2V0h-2h-2h-2v810h2v810h2v810h2v810h2h2h2v-810h-2V1620z M1180,1620h-2V810h-2V0h-2h-2
	h-2v810h2v810h2v810h2v810h2h2h2v-810h-2V1620z M1188,1620h-2V810h-2V0h-2h-2h-2v810h2v810h2v810h2v810h2h2h2v-810h-2V1620z
	 M1196,1620h-2V810h-2V0h-2h-2h-2v810h2v810h2v810h2v810h2h2h2v-810h-2V1620z M1204,1620h-2V810h-2V0h-2h-2h-2v810h2v810h2v810h2
	v810h2h2h2v-810h-2V1620z M1212,1620h-2V810h-2V0h-2h-2h-2v810h2v810h2v810h2v810h2h2h2v-810h-2V1620z M1220,1620h-2V810h-2V0h-2h-2
	h-2v810h2v810h2v810h2v810h2h2h2v-810h-2V1620z M1228,1620h-2V810h-2V0h-2h-2h-2v810h2v810h2v810h2v810h2h2h2v-810h-2V1620z
	 M1236,1620h-2V810h-2V0h-2h-2h-2v810h2v810h2v810h2v810h2h2h2v-810h-2V1620z M1244,1620h-2V810h-2V0h-2h-2h-2v810h2v810h2v810h2
	v810h2h2h2v-810h-2V1620z M1252,1620h-2V810h-2V0h-2h-2h-2v810h2v810h2v810h2v810h2h2h2v-810h-2V1620z M1260,1620h-2V810h-2V0h-2h-2
	h-2v810h2v810h2v810h2v810h2h2h2v-810h-2V1620z M1268,1620h-2V810h-2V0h-2h-2h-2v810h2v810h2v810h2v810h2h2h2v-810h-2V1620z
	 M1276,1620h-2V810h-2V0h-2h-2h-2v810h2v810h2v810h2v810h2h2h2v-810h-2V1620z M1284,1620h-2V810h-2V0h-2h-2h-2v810h2v810h2v810h2
	v810h2h2h2v-810h-2V1620z M1292,1620h-2V810h-2V0h-2h-2h-2v810h2v810h2v810h2v810h2h2h2v-810h-2V1620z M1300,1620h-2V810h-2V0h-2h-2
	h-2v810h2v810h2v810h2v810h2h2h2v-810h-2V1620z M1308,1620h-2V810h-2V0h-2h-2h-2v810h2v810h2v810h2v810h2h2h2v-810h-2V1620z
	 M1316,1620h-2V810h-2V0h-2h-2h-2v810h2v810h2v810h2v810h2h2h2v-810h-2V1620z M1324,1620h-2V810h-2V0h-2h-2h-2v810h2v810h2v810h2
	v810h2h2h2v-810h-2V1620z M1332,1620h-2V810h-2V0h-2h-2h-2v810h2v810h2v810h2v810h2h2h2v-810h-2V1620z M1340,1620h-2V810h-2V0h-2h-2
	h-2v810h2v810h2v810h2v810h2h2h2v-810h-2V1620z M1348,1620h-2V810h-2V0h-2h-2h-2v810h2v810h2v810h2v810h2h2h2v-810h-2V1620z
	 M1356,1620h-2V810h-2V0h-2h-2h-2v810h2v810h2v810h2v810h2h2h2v-810h-2V1620z M1364,1620h-2V810h-2V0h-2h-2h-2v810h2v810h2v810h2
	v810h2h2h2v-810h-2V1620z M1372,1620h-2V810h-2V0h-2h-2h-2v810h2v810h2v810h2v810h2h2h2v-810h-2V1620z M1380,1620h-2V810h-2V0h-2h-2
	h-2v810h2v810h2v810h2v810h2h2h2v-810h-2V1620z M1388,1620h-2V810h-2V0h-2h-2h-2v810h2v810h2v810h2v810h2h2h2v-810h-2V1620z
	 M1396,1620h-2V810h-2V0h-2h-2h-2v810h2v810h2v810h2v810h2h2h2v-810h-2V1620z M1404,1620h-2V810h-2V0h-2h-2h-2v810h2v810h2v810h2
	v810h2h2h2v-810h-2V1620z M1412,1620h-2V810h-2V0h-2h-2h-2v810h2v810h2v810h2v810h2h2h2v-810h-2V1620z M1420,1620h-2V810h-2V0h-2h-2
	h-2v810h2v810h2v810h2v810h2h2h2v-810h-2V1620z M1428,1620h-2V810h-2V0h-2h-2h-2v810h2v810h2v810h2v810h2h2h2v-810h-2V1620z
	 M1436,1620h-2V810h-2V0h-2h-2h-2v810h2v810h2v810h2v810h2h2h2v-810h-2V1620z M1444,1620h-2V810h-2V0h-2h-2h-2v810h2v810h2v810h2
	v810h2h2h2v-810h-2V1620z M1452,1620h-2V810h-2V0h-2h-2h-2v810h2v810h2v810h2v810h2h2h2v-810h-2V1620z M1460,1620h-2V810h-2V0h-2h-2
	h-2v810h2v810h2v810h2v810h2h2h2v-810h-2V1620z M1468,1620h-2V810h-2V0h-2h-2h-2v810h2v810h2v810h2v810h2h2h2v-810h-2V1620z
	 M1476,1620h-2V810h-2V0h-2h-2h-2v810h2v810h2v810h2v810h2h2h2v-810h-2V1620z M1484,1620h-2V810h-2V0h-2h-2h-2v810h2v810h2v810h2
	v810h2h2h2v-810h-2V1620z M1492,1620h-2V810h-2V0h-2h-2h-2v810h2v810h2v810h2v810h2h2h2v-810h-2V1620z M1500,1620h-2V810h-2V0h-2h-2
	h-2v810h2v810h2v810h2v810h2h2h2v-810h-2V1620z M1508,1620h-2V810h-2V0h-2h-2h-2v810h2v810h2v810h2v810h2h2h2v-810h-2V1620z
	 M1516,1620h-2V810h-2V0h-2h-2h-2v810h2v810h2v810h2v810h2h2h2v-810h-2V1620z M1524,1620h-2V810h-2V0h-2h-2h-2v810h2v810h2v810h2
	v810h2h2h2v-810h-2V1620z M1532,1620h-2V810h-2V0h-2h-2h-2v810h2v810h2v810h2v810h2h2h2v-810h-2V1620z M1540,1620h-2V810h-2V0h-2h-2
	h-2v810h2v810h2v810h2v810h2h2h2v-810h-2V1620z M1548,1620h-2V810h-2V0h-2h-2h-2v810h2v810h2v810h2v810h2h2h2v-810h-2V1620z
	 M1556,1620h-2V810h-2V0h-2h-2h-2v810h2v810h2v810h2v810h2h2h2v-810h-2V1620z M1564,1620h-2V810h-2V0h-2h-2h-2v810h2v810h2v810h2
	v810h2h2h2v-810h-2V1620z M1572,1620h-2V810h-2V0h-2h-2h-2v810h2v810h2v810h2v810h2h2h2v-810h-2V1620z M1580,1620h-2V810h-2V0h-2h-2
	h-2v810h2v810h2v810h2v810h2h2h2v-810h-2V1620z M1588,1620h-2V810h-2V0h-2h-2h-2v810h2v810h2v810h2v810h2h2h2v-810h-2V1620z
	 M1596,1620h-2V810h-2V0h-2h-2h-2v810h2v810h2v810h2v810h2h2h2v-810h-2V1620z M1604,1620h-2V810h-2V0h-2h-2h-2v810h2v810h2v810h2
	v810h2h2h2v-810h-2V1620z M1612,1620h-2V810h-2V0h-2h-2h-2v810h2v810h2v810h2v810h2h2h2v-810h-2V1620z M1620,1620h-2V810h-2V0h-2h-2
	h-2v810h2v810h2v810h2v810h2h2h2v-810h-2V1620z M1628,1620h-2V810h-2V0h-2h-2h-2v810h2v810h2v810h2v810h2h2h2v-810h-2V1620z
	 M1636,1620h-2V810h-2V0h-2h-2h-2v810h2v810h2v810h2v810h2h2h2v-810h-2V1620z M1644,1620h-2V810h-2V0h-2h-2h-2v810h2v810h2v810h2
	v810h2h2h2v-810h-2V1620z M1652,1620h-2V810h-2V0h-2h-2h-2v810h2v810h2v810h2v810h2h2h2v-810h-2V1620z M1660,1620h-2V810h-2V0h-2h-2
	h-2v810h2v810h2v810h2v810h2h2h2v-810h-2V1620z M1668,1620h-2V810h-2V0h-2h-2h-2v810h2v810h2v810h2v810h2h2h2v-810h-2V1620z
	 M1676,1620h-2V810h-2V0h-2h-2h-2v810h2v810h2v810h2v810h2h2h2v-810h-2V1620z M1684,1620h-2V810h-2V0h-2h-2h-2v810h2v810h2v810h2
	v810h2h2h2v-810h-2V1620z M1692,1620h-2V810h-2V0h-2h-2h-2v810h2v810h2v810h2v810h2h2h2v-810h-2V1620z M1700,1620h-2V810h-2V0h-2h-2
	h-2v810h2v810h2v810h2v810h2h2h2v-810h-2V1620z M1708,1620h-2V810h-2V0h-2h-2h-2v810h2v810h2v810h2v810h2h2h2v-810h-2V1620z
	 M1716,1620h-2V810h-2V0h-2h-2h-2v810h2v810h2v810h2v810h2h2h2v-810h-2V1620z M1724,1620h-2V810h-2V0h-2h-2h-2v810h2v810h2v810h2
	v810h2h2h2v-810h-2V1620z M1732,1620h-2V810h-2V0h-2h-2h-2v810h2v810h2v810h2v810h2h2h2v-810h-2V1620z M1740,1620h-2V810h-2V0h-2h-2
	h-2v810h2v810h2v810h2v810h2h2h2v-810h-2V1620z M1748,1620h-2V810h-2V0h-2h-2h-2v810h2v810h2v810h2v810h2h2h2v-810h-2V1620z
	 M1756,1620h-2V810h-2V0h-2h-2h-2v810h2v810h2v810h2v810h2h2h2v-810h-2V1620z M1764,1620h-2V810h-2V0h-2h-2h-2v810h2v810h2v810h2
	v810h2h2h2v-810h-2V1620z M1772,1620h-2V810h-2V0h-2h-2h-2v810h2v810h2v810h2v810h2h2h2v-810h-2V1620z M1780,1620h-2V810h-2V0h-2h-2
	h-2v810h2v810h2v810h2v810h2h2h2v-810h-2V1620z M1788,1620h-2V810h-2V0h-2h-2h-2v810h2v810h2v810h2v810h2h2h2v-810h-2V1620z
	 M1796,1620h-2V810h-2V0h-2h-2h-2v810h2v810h2v810h2v810h2h2h2v-810h-2V1620z M1804,1620h-2V810h-2V0h-2h-2h-2v810h2v810h2v810h2
	v810h2h2h2v-810h-2V1620z M1812,1620h-2V810h-2V0h-2h-2h-2v810h2v810h2v810h2v810h2h2h2v-810h-2V1620z M1820,1620h-2V810h-2V0h-2h-2
	h-2v810h2v810h2v810h2v810h2h2h2v-810h-2V1620z M1828,1620h-2V810h-2V0h-2h-2h-2v810h2v810h2v810h2v810h2h2h2v-810h-2V1620z
	 M1836,1620h-2V810h-2V0h-2h-2h-2v810h2v810h2v810h2v810h2h2h2v-810h-2V1620z M1844,1620h-2V810h-2V0h-2h-2h-2v810h2v810h2v810h2
	v810h2h2h2v-810h-2V1620z M1852,1620h-2V810h-2V0h-2h-2h-2v810h2v810h2v810h2v810h2h2h2v-810h-2V1620z M1860,1620h-2V810h-2V0h-2h-2
	h-2v810h2v810h2v810h2v810h2h2h2v-810h-2V1620z M1868,1620h-2V810h-2V0h-2h-2h-2v810h2v810h2v810h2v810h2h2h2v-810h-2V1620z
	 M1876,1620h-2V810h-2V0h-2h-2h-2v810h2v810h2v810h2v810h2h2h2v-810h-2V1620z M1884,1620h-2V810h-2V0h-2h-2h-2v810h2v810h2v810h2
	v810h2h2h2v-810h-2V1620z M1892,1620h-2V810h-2V0h-2h-2h-2v810h2v810h2v810h2v810h2h2h2v-810h-2V1620z M1900,1620h-2V810h-2V0h-2h-2
	h-2v810h2v810h2v810h2v810h2h2h2v-810h-2V1620z M1908,1620h-2V810h-2V0h-2h-2h-2v810h2v810h2v810h2v810h2h2h2v-810h-2V1620z
	 M1916,1620h-2V810h-2V0h-2h-2h-2v810h2v810h2v810h2v810h2h2h2v-810h-2V1620z M1914,0v810h2v810h2v810h2v-810V810V0H1914z"/>
</svg>
