<?xml version="1.0" encoding="utf-8"?>
<!-- Generator: Adobe Illustrator 26.2.1, SVG Export Plug-In . SVG Version: 6.00 Build 0)  -->
<svg version="1.1" id="Layer_1" xmlns="http://www.w3.org/2000/svg" xmlns:xlink="http://www.w3.org/1999/xlink" x="0px" y="0px"
	 viewBox="0 0 1920 1080" style="enable-background:new 0 0 1920 1080;" xml:space="preserve">
<g>
	<rect x="956.9" y="123" width="16.8" height="3"/>
	<rect x="915.8" y="123" width="17.4" height="3"/>
	<rect x="956.9" y="129" width="16.8" height="3"/>
	<path d="M766.1,123h-18c0.4,1,0.9,2,1.4,3H768C767.3,125.1,766.7,124.1,766.1,123z"/>
	<path d="M724.7,123h-23.3c-0.9,1.1-1.8,2.1-2.9,3h26.2V123z"/>
	<rect x="852.4" y="123" width="16.8" height="3"/>
	<path d="M829.8,123h-16.9c-0.5,1.1-1.2,2.1-1.9,3h17.6C829,125,829.4,124,829.8,123z"/>
	<rect x="1020.3" y="129" width="17.4" height="3"/>
	<rect x="1327.4" y="129" width="17.2" height="3"/>
	<rect x="427" y="69" width="17.6" height="3"/>
	<rect x="1266.4" y="129" width="17.2" height="3"/>
	<polygon points="1506.7,129 1489.2,129 1490.3,132 1507.9,132 	"/>
	<path d="M1139.2,129h-18.8c-1.3,1.2-2.8,2.2-4.5,3h21.5C1138,131.1,1138.6,130.1,1139.2,129z"/>
	<rect x="1164.5" y="129" width="16.8" height="3"/>
	<rect x="1206" y="129" width="16.6" height="3"/>
	<path d="M405.6,102v-3h-17.2c-0.1,1-0.2,2-0.4,3H405.6z"/>
	<path d="M405.6,96v-3h-16.8c0,1-0.1,2-0.1,3H405.6z"/>
	<rect x="427" y="87" width="17.6" height="3"/>
	<rect x="491.1" y="75" width="16.6" height="3"/>
	<rect x="491.1" y="81" width="16.6" height="3"/>
	<rect x="427" y="81" width="17.6" height="3"/>
	<path d="M507.7,123h-20.1c-0.6,1.1-1.2,2.1-1.8,3h21.9V123z"/>
	<path d="M551,123h-18.4c0.5,1,1.1,2,1.7,3h19.4C552.7,125.1,551.8,124.1,551,123z"/>
	<path d="M405.6,108v-3h-18c-0.2,1-0.4,2-0.7,3H405.6z"/>
	<path d="M659.5,123h-18.4c0.5,1,1.1,2,1.7,3h19.4C661.2,125.1,660.3,124.1,659.5,123z"/>
	<path d="M616.2,123h-23.3c-0.9,1.1-1.8,2.1-2.9,3h26.2V123z"/>
	<path d="M405.6,120v-3h-22.2c-0.6,1.1-1.2,2.1-1.8,3H405.6z"/>
	<path d="M405.6,114v-3H386c-0.3,1-0.7,2.1-1.1,3H405.6z"/>
	<rect x="349.9" y="87" width="55.7" height="3"/>
	<path d="M1283.3,66h14.1c2.6-1.1,5.4-1.7,8.7-1.7c2.4,0,6.4,0.1,10.4,1.7h24.4c-0.5-1.1-1.1-2.1-1.7-3h-53.8
		C1284.5,64,1283.9,65,1283.3,66z"/>
	<path d="M402.4,48c-0.4-1-0.8-2-1.2-3h-20.7c0.6,1,1.2,2,1.7,3H402.4z"/>
	<path d="M881.1,54h35.3c-3.1-1.5-6.5-2.5-10.4-3h-15.4C887.1,51.6,883.9,52.6,881.1,54z"/>
	<rect x="956.9" y="51" width="16.8" height="3"/>
	<path d="M1222.9,66h13.5c2.5-1.1,5.4-1.7,8.6-1.7c2.4,0,6.4,0.1,10.4,1.7h24.1c-0.6-1.1-1.2-2.1-1.8-3h-53.1
		C1223.9,64,1223.4,65.1,1222.9,66z"/>
	<path d="M295.3,42h19.9c0.8-1.1,1.7-2.1,2.6-3h-20.7C296.5,40,295.9,41,295.3,42z"/>
	<path d="M375.8,39c0.9,1,1.8,2,2.6,3h21.4c-0.5-1-1.1-2-1.7-3H375.8z"/>
	<rect x="427" y="57" width="17.6" height="3"/>
	<path d="M311.5,48c0.5-1,1.1-2,1.7-3h-19.4c-0.5,1-0.9,2-1.4,3H311.5z"/>
	<rect x="427" y="63" width="17.6" height="3"/>
	<path d="M388.8,57h-3c0.1,0.2,0.1,0.4,0.2,0.5L388.8,57z"/>
	<path d="M309,54c0.4-1,0.7-2,1.2-3h-18.9c-0.4,1-0.7,2-1,3H309z"/>
	<path d="M404.3,54c-0.3-1-0.6-2-0.9-3h-19.8c0.4,1,0.8,2,1.2,3h19.3H404.3z"/>
	<path d="M1579.2,78h13.4l-0.7-3h-13.2C1578.8,76,1579,77,1579.2,78z"/>
	<polygon points="1613.4,99 1612.5,102 1629,102 1630,99 	"/>
	<path d="M1651.9,117c-0.1,1-0.2,2-0.3,3h17.2c0.1-1.1,0.2-2.1,0.4-3H1651.9z"/>
	<polygon points="1615.2,93 1614.3,96 1631,96 1632,93 	"/>
	<polygon points="1424.6,66 1440.8,66 1441.9,63 1425.7,63 	"/>
	<polygon points="1617,87 1616.1,90 1633,90 1634,87 	"/>
	<path d="M1651.7,123c0.1,1,0.2,2,0.3,3h17.7c-0.4-0.9-0.6-1.9-0.7-3H1651.7z"/>
	<path d="M1619.9,129h-14.8c-0.1,0.4-0.2,0.7-0.3,1.1c-0.1-0.4-0.2-0.7-0.2-1.1h-13l0.8,3h26.5L1619.9,129z"/>
	<polygon points="1566.5,69 1565.8,72 1591.1,72 1590.4,69 	"/>
	<polygon points="1516,66 1533.6,66 1532.7,63 1515,63 	"/>
	<polygon points="1618.8,81 1617.9,84 1635,84 1636,81 	"/>
	<polygon points="1465.7,66 1482.2,66 1481,63 1464.5,63 	"/>
	<path d="M1565.4,129H1552c-0.1,0.4-0.2,0.7-0.2,1.1c-0.1-0.4-0.2-0.7-0.3-1.1H1537l1,3h26.6L1565.4,129z"/>
	<polygon points="1620.6,75 1619.7,78 1637,78 1638,75 	"/>
	<polygon points="1417.5,129 1399.9,129 1398.7,132 1416.4,132 	"/>
	<rect x="1164.5" y="123" width="16.8" height="3"/>
	<rect x="956.9" y="117" width="16.8" height="3"/>
	<rect x="1206" y="123" width="16.6" height="3"/>
	<rect x="1020.3" y="117" width="17.4" height="3"/>
	<path d="M1078.2,123h-18c0.4,1,0.9,2,1.4,3h18.5C1079.4,125.1,1078.8,124.1,1078.2,123z"/>
	<rect x="1266.4" y="123" width="17.2" height="3"/>
	<rect x="1020.3" y="123" width="17.4" height="3"/>
	<path d="M1141.9,123H1125c-0.5,1.1-1.2,2.1-1.9,3h17.6C1141.1,125,1141.5,124,1141.9,123z"/>
	<path d="M1566.9,123h-13.6c-0.2,1-0.5,2-0.7,3h13.5L1566.9,123z"/>
	<path d="M1622,123h-15.2c-0.3,1-0.5,2-0.8,3h15L1622,123z"/>
	<path d="M1603.3,123H1590l0.8,3h13.1C1603.8,125,1603.5,124,1603.3,123z"/>
	<path d="M1549.9,123H1535l1,3h14.6C1550.4,125,1550.1,124,1549.9,123z"/>
	<polygon points="1504.4,123 1486.9,123 1488,126 1505.6,126 	"/>
	<polygon points="1419.8,123 1402.3,123 1401.1,126 1418.7,126 	"/>
	<rect x="1327.4" y="123" width="17.2" height="3"/>
	<path d="M445.3,120c-0.2-1-0.3-2-0.5-3h-17.7c0.1,1,0.1,2,0.2,3H445.3z"/>
	<path d="M507.7,117h-17.9c-0.3,1.1-0.6,2.1-0.9,3h18.8V117z"/>
	<path d="M548,117h-17.9c0.4,1,0.7,2,1.2,3h18C548.8,119.1,548.4,118.1,548,117z"/>
	<path d="M444.6,114c0-1-0.1-2-0.1-3H427c0,1,0,2,0,3H444.6z"/>
	<path d="M444.5,108c0-0.1,0-0.2,0-0.4V105H427v3H444.5z"/>
	<rect x="427" y="99" width="17.6" height="3"/>
	<path d="M831.5,117H815c-0.2,1.1-0.5,2.1-0.9,3h16.6C831,119,831.2,118,831.5,117z"/>
	<path d="M763.8,117H746c0.3,1,0.6,2,0.9,3h17.8C764.4,119.1,764.1,118.1,763.8,117z"/>
	<rect x="915.8" y="117" width="17.4" height="3"/>
	<rect x="852.4" y="117" width="16.8" height="3"/>
	<path d="M724.7,117H705c-0.5,1-1,2.1-1.6,3h21.3V117z"/>
	<path d="M616.2,117h-19.7c-0.5,1-1,2.1-1.6,3h21.3V117z"/>
	<path d="M656.5,117h-17.9c0.4,1,0.7,2,1.2,3h18C657.3,119.1,656.8,118.1,656.5,117z"/>
	<path d="M1072.4,60h57c-1.4-1.1-2.8-2.1-4.3-3h-48.6C1075.1,57.9,1073.7,58.9,1072.4,60z"/>
	<rect x="491.1" y="69" width="16.6" height="3"/>
	<rect x="1164.5" y="57" width="16.8" height="3"/>
	<path d="M978.1,60h51.4c-1.1-1.1-2.3-2.1-3.6-3h-44.7C980.1,57.9,979.1,58.9,978.1,60z"/>
	<rect x="1164.5" y="52.7" width="16.8" height="1.3"/>
	<rect x="956.9" y="57" width="16.8" height="3"/>
	<rect x="1206" y="63" width="16.6" height="3"/>
	<rect x="1206" y="57" width="16.6" height="3"/>
	<path d="M1206,72h22.7c0.8-1,1.7-1.9,2.6-2.7c0.1-0.1,0.3-0.2,0.4-0.3H1206V72z"/>
	<rect x="491.1" y="52.7" width="16.6" height="1.3"/>
	<rect x="491.1" y="57" width="16.6" height="3"/>
	<rect x="491.1" y="63" width="16.6" height="3"/>
	<rect x="427" y="52.7" width="17.6" height="1.3"/>
	<path d="M1608.3,117c-0.3,1-0.5,2-0.8,3h15.5l1-3H1608.3z"/>
	<rect x="852.4" y="57" width="16.8" height="3"/>
	<path d="M873.6,60H925c-1.1-1.1-2.3-2.1-3.6-3h-44.8C875.5,57.9,874.5,58.9,873.6,60z"/>
	<path d="M1582.4,93c0.3,1.1,0.5,2.2,0.7,3h14l-0.7-3H1582.4z"/>
	<path d="M1581.1,87c0.2,1,0.4,2.1,0.6,3h13.8l-0.7-3H1581.1z"/>
	<polygon points="1583.8,99 1584.6,102 1598.5,102 1597.8,99 	"/>
	<path d="M1609.9,111c-0.3,1-0.6,2-0.8,3h15.8l1-3H1609.9z"/>
	<path d="M1611.6,105c-0.3,1-0.6,2-0.9,3h16.2l1-3H1611.6z"/>
	<path d="M1579.8,81c0.2,1,0.4,2,0.6,3h13.6l-0.7-3H1579.8z"/>
	<path d="M1321.7,69.5c0.8,0.8,1.5,1.6,2.1,2.5h19.1c-0.3-1-0.6-2.1-1-3h-20.8C1321.4,69.2,1321.6,69.3,1321.7,69.5z"/>
	<polygon points="1467.9,72 1484.5,72 1483.3,69 1466.8,69 	"/>
	<polygon points="1422.2,72 1438.6,72 1439.7,69 1423.4,69 	"/>
	<polygon points="1517,69 1518,72 1535.3,72 1534.5,69 	"/>
	<path d="M1562.8,84h13.5c0.2-1,0.4-2,0.6-3h-13.3L1562.8,84z"/>
	<polygon points="1520,78 1537.1,78 1536.2,75 1519,75 	"/>
	<path d="M1565,75l-0.8,3h13.1c0.2-1,0.4-2,0.6-3H1565z"/>
	<rect x="1164.5" y="33" width="16.8" height="2.1"/>
	<path d="M595.1,135h-53.5c1.2,1.1,2.4,2.1,3.7,3h46.6C593,137.1,594,136.1,595.1,135z"/>
	<path d="M703.5,135H650c1.2,1.1,2.4,2.1,3.7,3h46.6C701.4,137.1,702.5,136.1,703.5,135z"/>
	<rect x="491.1" y="135" width="16.6" height="3"/>
	<rect x="599.4" y="135" width="16.8" height="3"/>
	<rect x="491.1" y="141" width="16.6" height="3"/>
	<path d="M371.3,144c2-0.9,4-1.9,5.8-3h-61.5c2.1,1.1,4.3,2.1,6.6,3H371.3z"/>
	<path d="M484.4,141h-46.7c1.4,1.1,2.9,2.2,4.5,3h37.9C481.7,143.1,483.1,142.1,484.4,141z"/>
	<rect x="707.8" y="135" width="16.8" height="3"/>
	<rect x="956.9" y="141" width="16.8" height="3"/>
	<rect x="915.8" y="141" width="17.4" height="3"/>
	<rect x="1020.3" y="141" width="17.4" height="3"/>
	<rect x="852.4" y="135" width="16.8" height="3"/>
	<path d="M823.1,135h-67.5c0.9,1.1,1.9,2.1,2.9,3h61.7C821.2,137.1,822.2,136.1,823.1,135z"/>
	<path d="M384.7,135h-78c1.3,1.1,2.6,2.1,3.9,3h70.6C382.5,137.1,383.6,136.1,384.7,135z"/>
	<path d="M226.5,120v-3h-22.2c-0.6,1.1-1.2,2.1-1.8,3H226.5z"/>
	<polygon points="226.5,138 226.5,135 211.7,135 212,138 	"/>
	<path d="M226.5,96v-3h-16.8c0,1-0.1,2-0.1,3H226.5z"/>
	<rect x="170.8" y="87" width="55.7" height="3"/>
	<rect x="170.8" y="76.8" width="55.7" height="1.2"/>
	<path d="M305.3,78c0-1,0.1-2,0.1-3h-18.8c-0.1,1-0.1,2-0.1,3H305.3z"/>
	<path d="M305.5,72c0.1-1,0.2-2,0.3-3H287c-0.1,1-0.2,2-0.3,3H305.5z"/>
	<rect x="170.8" y="81" width="55.7" height="3"/>
	<path d="M226.5,102v-3h-17.2c-0.1,1-0.2,2-0.4,3H226.5z"/>
	<path d="M208.3,132c0.8-1,1.6-2,2.3-3h-17.8c-2.1,1.2-4.5,2.2-7,3H208.3z"/>
	<polygon points="226.5,129 211.2,129 211.5,132 226.5,132 	"/>
	<path d="M1128.6,141h-54.3c1.6,1.1,3.4,2.2,5.2,3h43.9C1125.2,143.1,1127,142.1,1128.6,141z"/>
	<path d="M226.5,114v-3h-19.6c-0.3,1-0.7,2.1-1.1,3H226.5z"/>
	<path d="M226.5,108v-3h-18c-0.2,1-0.4,2-0.7,3H226.5z"/>
	<path d="M1757.5,81v3h19c0.3-1.1,0.7-2.1,1.1-3H1757.5z"/>
	<path d="M1660.5,63c-0.7,0.9-1.3,2-1.9,3h21.8c3.4-1.6,8-2.3,13.7-2.3c4.8,0,9,0.8,12.1,2.3h21.3c-0.5-1.1-1.1-2.1-1.7-3H1660.5z"
		/>
	<rect x="1757.5" y="63" width="16.8" height="3"/>
	<path d="M1710.4,69c0.3,0.3,0.5,0.6,0.7,0.9c0.5,0.7,0.9,1.4,1.2,2.1h17.2c-0.2-1-0.5-2.1-0.9-3H1710.4z"/>
	<rect x="1757.5" y="57" width="16.8" height="3"/>
	<rect x="1164.5" y="141" width="16.8" height="3"/>
	<path d="M1757.5,87v3h17.7c0.2-1.1,0.4-2.1,0.6-3H1757.5z"/>
	<path d="M1757.5,75v3h21.5c0.6-1.1,1.3-2.1,2-3H1757.5z"/>
	<rect x="427" y="75" width="17.6" height="3"/>
	<path d="M1435.1,39l-1.2,3h15.6c0.4-1,0.7-2,1-3H1435.1z"/>
	<rect x="1757.5" y="52.7" width="16.8" height="1.3"/>
	<path d="M1432.8,45l-1.2,3h15.8c0.4-1,0.7-2,1.1-3H1432.8z"/>
	<path d="M1437.5,33l-1.2,3h15.3c0.3-1,0.7-2,1-3H1437.5z"/>
	<path d="M1429.3,54h16l0.5-1.3c0.2-0.6,0.4-1.1,0.6-1.7h-15.9L1429.3,54z"/>
	<path d="M1460.7,52.7l0.5,1.3h16.3l-1.2-3H1460C1460.3,51.6,1460.5,52.1,1460.7,52.7z"/>
	<path d="M1713.9,78h16.5c-0.1-1-0.2-2-0.3-3h-16.7C1713.6,75.9,1713.8,76.9,1713.9,78z"/>
	<polygon points="1395.2,141 1394,144 1411.9,144 1413.1,141 	"/>
	<path d="M1707.9,141h-47.5c1.4,1.1,2.9,2.1,4.4,3h38.6C1705,143.1,1706.5,142.1,1707.9,141z"/>
	<rect x="1327.4" y="141" width="17.2" height="3"/>
	<path d="M1715,135c0.2,1.1,0.5,2.1,0.8,3h25.7l-0.1-3H1715z"/>
	<rect x="1206" y="141" width="16.6" height="3"/>
	<rect x="1266.4" y="141" width="17.2" height="3"/>
	<rect x="1757.5" y="135" width="16.8" height="3"/>
	<rect x="1757.5" y="111" width="16.8" height="3"/>
	<rect x="1757.5" y="105" width="16.8" height="3"/>
	<rect x="1757.5" y="117" width="16.8" height="3"/>
	<path d="M1757.5,93v3h17c0.1-1,0.2-2,0.3-3H1757.5z"/>
	<rect x="1757.5" y="129" width="16.8" height="3"/>
	<rect x="1757.5" y="123" width="16.8" height="3"/>
	<path d="M306.2,66c0.1-1,0.3-2,0.5-3H288c-0.2,1-0.4,2-0.5,3H306.2z"/>
	<rect x="956.9" y="135" width="16.8" height="3"/>
	<rect x="1020.3" y="135" width="17.4" height="3"/>
	<rect x="1164.5" y="135" width="16.8" height="3"/>
	<path d="M1135.2,135h-67.5c0.9,1.1,1.9,2.1,2.9,3h61.7C1133.3,137.1,1134.3,136.1,1135.2,135z"/>
	<rect x="915.8" y="135" width="17.4" height="3"/>
	<path d="M827.1,129h-18.8c-1.3,1.2-2.8,2.2-4.5,3h21.5C825.9,131.1,826.5,130.1,827.1,129z"/>
	<rect x="915.8" y="129" width="17.4" height="3"/>
	<rect x="852.4" y="129" width="16.8" height="3"/>
	<polygon points="1509.1,135 1491.4,135 1492.6,138 1510.2,138 	"/>
	<polygon points="1563.9,135 1539,135 1540,138 1563.2,138 	"/>
	<polygon points="1415.3,135 1397.6,135 1396.4,138 1414.2,138 	"/>
	<rect x="1266.4" y="135" width="17.2" height="3"/>
	<rect x="1327.4" y="135" width="17.2" height="3"/>
	<rect x="1206" y="135" width="16.6" height="3"/>
	<path d="M305.6,90c-0.1-1-0.1-2-0.2-3h-18.9c0.1,1,0.1,2,0.2,3H305.6z"/>
	<path d="M507.7,129h-24.5c-1.4,1.3-2.9,2.3-4.5,3h28.9v-3H507.7z"/>
	<path d="M306.2,96c-0.1-1-0.3-2-0.4-3H287c0.1,1,0.2,2,0.4,3H306.2z"/>
	<path d="M307.3,102c-0.2-1-0.4-2-0.6-3h-18.9c0.2,1,0.4,2,0.6,3H307.3z"/>
	<polygon points="1617.9,135 1593.2,135 1594,138 1616.9,138 	"/>
	<rect x="349.9" y="76.8" width="55.7" height="1.2"/>
	<rect x="349.9" y="81" width="55.7" height="3"/>
	<path d="M309,108c-0.3-1-0.6-2-0.9-3h-18.9c0.3,1,0.5,2,0.8,3H309z"/>
	<path d="M389.8,129H372c-2.1,1.2-4.5,2.2-7,3h22.4C388.2,131.1,389,130.1,389.8,129z"/>
	<polygon points="405.6,129 390.4,129 390.6,132 405.6,132 	"/>
	<polygon points="405.6,138 405.6,135 390.9,135 391.1,138 	"/>
	<path d="M311.4,114c-0.5-1-0.9-2-1.3-3h-19.2c0.4,1,0.7,2,1.1,3H311.4z"/>
	<path d="M320.7,126c-1.2-0.9-2.3-1.9-3.3-3h-20.8c0.6,1,1.3,2,2,3H320.7z"/>
	<path d="M314.9,120c-0.1-0.1-0.1-0.1-0.2-0.2c-0.6-0.9-1.2-1.8-1.8-2.8h-19.7c0.5,1,1,2,1.5,3H314.9z"/>
	<path d="M1664.6,99c-1.6,0.9-3.1,1.9-4.4,3h42.2l11.8-2.6v2.6h16.3v-3H1664.6z"/>
	<rect x="956.9" y="39" width="16.8" height="3"/>
	<polygon points="1426.9,60 1443,60 1444.1,57 1428.1,57 	"/>
	<rect x="956.9" y="33" width="16.8" height="3"/>
	<path d="M1304.8,51c-3.8,0.6-6.8,1.7-9.3,3h33.7c-2.8-1.4-6-2.5-9.6-3H1304.8z"/>
	<path d="M1730.5,123h-19.1c-0.6,1.1-1.3,2.1-2,3h21.1l0,0V123z"/>
	<path d="M372.7,36h23.6c-0.7-1-1.5-2-2.2-3h-25.6C369.9,33.9,371.3,34.9,372.7,36z"/>
	<rect x="956.9" y="45" width="16.8" height="3"/>
	<path d="M225,54h0.1c-0.3-1-0.6-2-0.9-3h-19.8c0.4,1,0.8,2,1.2,3H225z"/>
	<path d="M223.3,48c-0.4-1-0.8-2-1.2-3h-20.7c0.6,1,1.2,2,1.7,3H223.3z"/>
	<path d="M209.7,57h-3c0.1,0.2,0.1,0.4,0.2,0.5L209.7,57z"/>
	<path d="M193.5,36h23.6c-0.7-1-1.5-2-2.2-3h-25.6C190.8,33.9,192.2,34.9,193.5,36z"/>
	<path d="M220.7,42c-0.5-1-1.1-2-1.7-3h-22.3c0.9,1,1.8,2,2.6,3H220.7z"/>
	<rect x="427" y="93" width="17.6" height="3"/>
	<path d="M1290.3,57.5c-0.9,0.8-1.8,1.6-2.6,2.5h49.1c-0.9-1.1-2-2.1-3.1-3H1291C1290.8,57.2,1290.5,57.4,1290.3,57.5z"/>
	<path d="M308.1,57h-18.7c-0.3,1-0.5,2-0.8,3h18.7C307.5,59,307.8,58,308.1,57z"/>
	<polygon points="1713.8,87 1698.2,90 1730.5,90 1730.5,87 	"/>
	<path d="M1682.8,93c-3.8,0.7-7.8,1.7-11.6,3h59.2v-3H1682.8z"/>
	<rect x="1714.3" y="105" width="16.3" height="3"/>
	<path d="M1714.3,111c0,1-0.1,2-0.2,3h16.4v-3H1714.3z"/>
	<path d="M1713.6,117c-0.2,1-0.5,2-0.9,3h17.8v-3H1713.6z"/>
	<polygon points="1624.2,63 1623.3,66 1641,66 1642,63 	"/>
	<path d="M1654.8,81.7l16.5,2.2c0-1,0-2,0.1-2.9h-16.5C1654.8,81.2,1654.8,81.4,1654.8,81.7z"/>
	<polygon points="1570.6,52.7 1570.3,54 1586.7,54 1586.3,52.7 	"/>
	<polygon points="1531.8,60 1530.9,57 1513,57 1514,60 	"/>
	<polygon points="1463.4,60 1479.8,60 1478.6,57 1462.3,57 	"/>
	<polygon points="1621.5,72 1639,72 1640,69 1622.4,69 	"/>
	<path d="M1655.5,75c-0.2,1-0.3,2-0.4,3h16.7c0.2-1.1,0.4-2.1,0.7-3H1655.5z"/>
	<path d="M299.1,36H321c1.4-1.1,3-2.1,4.7-3h-24.2C300.7,34,299.9,35,299.1,36z"/>
	<path d="M833.2,99h-89.3c0,0.1,0,0.2,0,0.2c0,0.9,0,1.9,0,2.8h89.2C833.2,101,833.2,100,833.2,99z"/>
	<path d="M852.4,90h17c0.1-1.1,0.2-2.1,0.3-3h-17.3V90z"/>
	<path d="M1056.1,96h89.1c-0.1-1-0.1-2-0.2-3h-88.6C1056.2,94,1056.1,95,1056.1,96z"/>
	<path d="M527.9,108H546c-0.1-1-0.2-2-0.3-3h-18.2C527.6,106,527.7,107,527.9,108z"/>
	<path d="M1283.6,96v-1.5c0-0.5,0-1.1,0-1.6h-17.2v3L1283.6,96L1283.6,96z"/>
	<polygon points="1497.4,105 1409.3,105 1408.1,108 1425.4,108 1425.7,107.1 1480.9,107.1 1481.2,108 1498.5,108 	"/>
	<path d="M616.2,102v-3h-16.1c0,1-0.1,2-0.2,3H616.2z"/>
	<rect x="1164.5" y="93" width="16.8" height="3"/>
	<rect x="491.1" y="93" width="16.6" height="3"/>
	<path d="M974.1,87h-17.2v3h16.9C973.9,89,974,88,974.1,87z"/>
	<rect x="1020.3" y="93" width="17.4" height="3"/>
	<path d="M915.8,90h17.4c0-1,0-2,0-3h-17.4C915.8,88,915.8,89,915.8,90z"/>
	<path d="M616.2,105h-16.6c-0.1,1-0.3,2-0.5,3h17L616.2,105L616.2,105z"/>
	<path d="M1206,96h16.6v-1.5c0-0.5,0-1.1,0-1.6H1206V96z"/>
	<path d="M1145.3,99H1056c0,0.1,0,0.2,0,0.2c0,0.9,0,1.9,0,2.8h89.2C1145.3,101,1145.3,100,1145.3,99z"/>
	<path d="M1586.2,108h13.8c-0.2-1.1-0.5-2.1-0.7-3h-13.9L1586.2,108z"/>
	<polygon points="1127.7,114 1127.6,114 1127.6,114 	"/>
	<path d="M507.7,108v-3h-16.6v0.2c0,1,0,1.9-0.1,2.8H507.7z"/>
	<path d="M616.2,69h-26.5c1.1,0.9,2.2,1.9,3.2,3h23.3V69z"/>
	<path d="M869.7,66h14.7c3.3-1.2,6.6-1.6,9.1-1.6c3.4,0,7.2,0.1,10.8,1.6h25c-0.5-1.1-1.1-2.1-1.8-3h-56.2
		C870.8,64,870.2,65,869.7,66z"/>
	<rect x="707.8" y="57" width="16.8" height="3"/>
	<path d="M1067.8,64.5c-0.5,0.5-0.9,1-1.3,1.6h23c3.3-1.2,7.2-1.9,11.6-1.9c4.5,0,8.4,0.6,11.8,1.9h22.4c-0.8-1.1-1.7-2.1-2.6-3
		h-63.5C1068.7,63.5,1068.2,64,1067.8,64.5z"/>
	<path d="M1532,114h15.4c-0.3-1.1-0.6-2.1-0.8-3H1531L1532,114z"/>
	<path d="M668.7,66c3.5-1.4,7.6-2.1,12.6-2.1c4.4,0,8.4,0.7,11.8,2.1h31.6v-3h-16.8v2.8c-0.6-1-1.3-1.9-2-2.8h-58.3
		c-0.9,1-1.7,2-2.5,3H668.7z"/>
	<rect x="1164.5" y="111" width="16.8" height="3"/>
	<path d="M1570,111h-13.8c-0.2,1-0.5,2-0.7,3h13.8L1570,111z"/>
	<path d="M809.2,72H827c-0.5-1.1-1.1-2.1-1.7-3H806C807.2,69.9,808.2,70.9,809.2,72z"/>
	<path d="M1121.3,72h17.8c-0.5-1.1-1.1-2.1-1.7-3h-19.2C1119.3,69.9,1120.3,70.9,1121.3,72z"/>
	<rect x="1266.4" y="99" width="17.2" height="3"/>
	<rect x="956.9" y="99" width="16.8" height="3"/>
	<path d="M815.9,90h16.6c-0.1-1-0.3-2-0.5-3h-16.5C815.7,88,815.8,89.1,815.9,90z"/>
	<rect x="1020.3" y="99" width="17.4" height="3"/>
	<rect x="915.8" y="99" width="17.4" height="3"/>
	<path d="M724.7,96v-3h-16.2c0.1,1,0.1,2,0.1,3H724.7z"/>
	<rect x="852.4" y="99" width="16.8" height="3"/>
	<path d="M724.7,102v-3h-16.1c0,1-0.1,2-0.2,3H724.7z"/>
	<path d="M724.7,90v-3h-16.9c0.2,1,0.3,2,0.4,3H724.7z"/>
	<rect x="1327.4" y="105" width="17.2" height="3"/>
	<polygon points="1411.6,99 1410.5,102 1496.2,102 1495,99 	"/>
	<rect x="1206" y="99" width="16.6" height="3"/>
	<rect x="1327.4" y="99" width="17.2" height="3"/>
	<rect x="1266.4" y="105" width="17.2" height="3"/>
	<rect x="1206" y="105" width="16.6" height="3"/>
	<rect x="1164.5" y="99" width="16.8" height="3"/>
	<rect x="915.8" y="93" width="17.4" height="3"/>
	<path d="M973.7,93.6c0-0.2,0-0.4,0-0.6h-16.8v3h16.8V93.6z"/>
	<path d="M869.2,94.6c0-0.5,0-1.1,0-1.6h-16.9v3h16.8v-1.4H869.2z"/>
	<path d="M833.1,96c-0.1-1-0.1-2-0.2-3h-88.6c-0.1,1-0.2,2-0.2,3H833.1z"/>
	<path d="M1020.3,87c0,1,0,2,0,3h17.4c0-1,0-2,0-3H1020.3z"/>
	<path d="M744.6,90h17.9c0-0.9,0.1-1.9,0.2-3H745C744.9,88,744.7,89,744.6,90z"/>
	<path d="M915.6,84H933c0-1-0.1-2-0.2-3h-17.5C915.5,82,915.6,83,915.6,84z"/>
	<path d="M814.9,84h16.4c-0.2-1-0.5-2-0.8-3H814C814.4,82,814.7,83,814.9,84z"/>
	<path d="M852.4,84h17.9c0.2-1.1,0.5-2.1,0.8-3h-18.7V84z"/>
	<path d="M1019.9,81c0.1,1,0.2,2,0.3,3h17.4c0-1-0.1-2-0.2-3H1019.9z"/>
	<path d="M745.7,84h17.5c0.2-1,0.5-2,0.8-3h-17.4C746.2,82,746,83,745.7,84z"/>
	<path d="M956.9,84h17.6c0.2-1.1,0.4-2.1,0.7-3h-18.3V84z"/>
	<path d="M707.2,84h17.5v-3h-18.3C706.6,82,706.9,83,707.2,84z"/>
	<rect x="1164.5" y="21" width="16.8" height="3"/>
	<rect x="852.4" y="141" width="16.8" height="3"/>
	<polygon points="1493.7,141 1494.8,144 1512.6,144 1511.4,141 	"/>
	<path d="M226.5,126v-3h-26.3c-1,1.1-2,2.1-3.1,3H226.5z"/>
	<polygon points="391.4,141 391.6,144 405.6,144 405.6,141 	"/>
	<path d="M1717.4,141c0.8,1.2,1.8,2.2,3,3h21.3l-0.1-3H1717.4z"/>
	<polygon points="1541,141 1542.1,144 1561.6,144 1562.4,141 	"/>
	<path d="M1757.5,99v3h16.8v-0.2c0-1,0-1.9,0-2.9L1757.5,99L1757.5,99z"/>
	<polygon points="1594.7,141 1595.5,144 1614.9,144 1615.9,141 	"/>
	<polygon points="1625.1,60 1643,60 1644,57 1626,57 	"/>
	<path d="M1657.2,69c-0.4,1-0.7,2-1,3h17.6c0.6-1.1,1.4-2.1,2.3-3H1657.2z"/>
	<polygon points="1529.7,52.7 1511.5,52.7 1512,54 1530.1,54 	"/>
	<path d="M1714.2,84h16.3v-2.7c0-0.1,0-0.2,0-0.3h-16.4C1714.2,81.9,1714.2,82.9,1714.2,84z"/>
	<polygon points="1626.9,54 1645,54 1645.4,52.7 1627.3,52.7 	"/>
	<path d="M1666.4,57.4c-1.2,0.8-2.3,1.7-3.3,2.7h60.3c-1-1.1-2.1-2.1-3.4-3h-53C1666.8,57.1,1666.6,57.2,1666.4,57.4z"/>
	<rect x="1327.4" y="93" width="17.2" height="3"/>
	<path d="M195.1,18c-2.9-1.2-5.9-2.2-9-3H152c-3.3,0.8-6.4,1.8-9.3,3H195.1z"/>
	<path d="M606.1,171h-67.9c0.9,1.1,1.9,2.1,2.9,3h61.7C604,173.1,605.1,172,606.1,171z"/>
	<path d="M1830.3,60h52.8c-1.1-1.1-2.3-2.1-3.6-3h-45.3C1832.9,57.9,1831.5,58.9,1830.3,60z"/>
	<path d="M1822.6,69c-0.6,1-1.2,2-1.7,3h19.3c0.9-1.1,2-2.1,3.1-3H1822.6z"/>
	<rect x="1887.2" y="15.3" width="16.8" height="2.7"/>
	<path d="M646.7,171c0.9,1.1,1.9,2.1,2.9,3h61.7c1.2-0.9,2.2-2,3.3-3H646.7z"/>
	<path d="M153.7,30c4.8-1.5,10.1-2.2,15.9-2.2c4.9,0,9.4,0.8,13.3,2.2h29.3c-1-1.1-2-2.1-3.1-3h-81c-1.1,1-2.2,2-3.2,3H153.7z"/>
	<path d="M1701.4,132h30.3c-0.7-0.7-1-1.7-1.1-3h-24.2C1704.9,130.2,1703.3,131.2,1701.4,132z"/>
	<rect x="1164.5" y="27" width="16.8" height="3"/>
	<path d="M1829.5,138h53.4c0.9-0.9,1.7-2,2.5-3H1864c-1.1,0.1-2.2,0.2-3.4,0.2c-1.3,0-2.6-0.1-3.8-0.2h-30.4
		C1827.5,136.1,1828.5,137.1,1829.5,138z"/>
	<path d="M1714.9,54c-3.2-1.4-6.9-2.5-11.2-3h-18.2c-4.7,0.6-8.9,1.6-12.6,3H1714.9z"/>
	<path d="M658.6,141c2.5,1.3,5.2,2.3,8.1,3H689c2.5-0.7,4.9-1.7,7.1-3H658.6z"/>
	<path d="M1809.5,54l0.1-3h-9.5c-3.9,0.6-7.5,1.6-10.7,3H1809.5z"/>
	<path d="M1260.8,69.5c0.8,0.8,1.5,1.6,2.1,2.5h26.7c0.8-1,1.7-1.9,2.6-2.7c0.1-0.1,0.3-0.2,0.4-0.3h-10.7c-0.2,0.4-0.4,0.8-0.5,1.3
		c-0.2-0.4-0.3-0.8-0.5-1.3h-20.6C1260.4,69.2,1260.6,69.3,1260.8,69.5z"/>
	<path d="M427.8,123c0.2,1,0.4,2,0.6,3h19.2c-0.6-1-1.1-2-1.5-3H427.8z"/>
	<path d="M430.4,132h23.7c-1.4-0.7-2.8-1.7-4.1-3h-20.8C429.6,130,430,131,430.4,132z"/>
	<path d="M405.6,126v-3h-26.3c-1,1.1-2,2.1-3.1,3H405.6z"/>
	<path d="M1082.7,129h-19.5c0.6,1,1.3,2,2,3h21.8C1085.4,131.2,1084,130.2,1082.7,129z"/>
	<path d="M586.4,54c-2.9-1.4-6.1-2.5-9.7-3H562c-3.7,0.6-7.2,1.6-10.4,3H586.4z"/>
	<path d="M1653.7,132h21c-1.3-0.8-2.4-1.8-3.3-3h-18.7C1652.9,130.1,1653.2,131.1,1653.7,132z"/>
	<rect x="852.4" y="52.7" width="16.8" height="1.3"/>
	<rect x="599.4" y="57" width="16.8" height="3"/>
	<rect x="1206" y="52.7" width="16.6" height="1.3"/>
	<path d="M694.8,54c-2.9-1.4-6.1-2.5-9.7-3h-14.6c-3.7,0.6-7.2,1.6-10.4,3H694.8z"/>
	<rect x="599.4" y="52.7" width="16.8" height="1.3"/>
	<path d="M1653.5,111c-0.4,1-0.7,2-1,3h17.9c0.6-1.2,1.4-2.2,2.4-3H1653.5z"/>
	<path d="M807.2,54c-3.5-1.5-7.2-2.5-11-3h-15.1c-3.9,0.6-7.5,1.6-10.9,3H807.2z"/>
	<path d="M770.6,129h-19.5c0.6,1,1.3,2,2,3h21.8C773.3,131.2,771.9,130.2,770.6,129z"/>
	<path d="M616.2,132v-3h-30.5c-3.6,1.9-7.9,3-13.3,3c-6,0-10.8-1-14.5-3h-21.7c0.8,1.1,1.6,2.1,2.4,3h58.9c0.6-0.9,1.3-1.7,1.9-2.7
		v2.7H616.2z"/>
	<path d="M432.1,135c0.7,1,1.5,2,2.3,3c0,0,0,0,0.1,0.1h52.8c0.8-0.9,1.5-2,2.2-3h-57.4V135z"/>
	<path d="M325.3,129h-24.4c0.9,1.1,1.8,2.1,2.7,3h29.5C330.3,131.3,327.7,130.3,325.3,129z"/>
	<path d="M286.4,84h18.9c0-1,0-2,0-3h-18.9C286.3,82,286.4,83,286.4,84z"/>
	<path d="M724.7,132v-3h-30.5c-3.6,1.9-7.9,3-13.3,3c-6,0-10.8-1-14.5-3h-21.7c0.8,1.1,1.6,2.1,2.4,3H706c0.6-0.9,1.3-1.7,1.9-2.7
		v2.7H724.7z"/>
	<path d="M1657.2,105c-0.8,0.9-1.5,1.9-2.2,3h22.8c2.4-1,5.2-1.7,8.2-2.4l2.8-0.6H1657.2z"/>
	<path d="M1655.2,135c0.7,1.1,1.4,2.1,2.2,3h53.5c0.8-0.9,1.5-2,2.2-3H1655.2z"/>
	<path d="M1229.6,57.5c-1,0.8-1.9,1.7-2.7,2.5h48.4c-1-1.1-2.1-2.1-3.2-3h-41.8C1230,57.2,1229.8,57.4,1229.6,57.5z"/>
	<polygon points="1589.6,66 1588.9,63 1568,63 1567.3,66 	"/>
	<polygon points="1569.6,57 1568.8,60 1588.2,60 1587.4,57 	"/>
	<path d="M1020.9,54c-3.1-1.5-6.5-2.5-10.4-3h-15.2c-3.4,0.6-6.6,1.6-9.5,3H1020.9z"/>
	<path d="M1267.4,54c-2.8-1.4-5.9-2.5-9.3-3h-13.7c-3.8,0.6-6.9,1.7-9.5,3H1267.4z"/>
	<path d="M1119.3,54c-3.5-1.5-7.2-2.5-11-3h-15.1c-3.9,0.6-7.5,1.6-10.9,3H1119.3z"/>
	<rect x="707.8" y="52.7" width="16.8" height="1.3"/>
	<path d="M1143.6,117h-16.5c-0.2,1.1-0.5,2.1-0.9,3h16.6C1143.1,119,1143.3,118,1143.6,117z"/>
	<rect x="1164.5" y="117" width="16.8" height="3"/>
	<rect x="1206" y="117" width="16.6" height="3"/>
	<rect x="1020.3" y="111" width="17.4" height="3"/>
	<path d="M1076.9,120c-0.4-1-0.7-2-1-3h-17.8c0.3,1,0.6,2,0.9,3H1076.9z"/>
	<rect x="1266.4" y="117" width="17.2" height="3"/>
	<path d="M1074.8,111h-17.9c0.2,1,0.3,2,0.5,3h17.8C1075.1,113.1,1074.9,112,1074.8,111z"/>
	<polygon points="1422,117 1404.6,117 1403.4,120 1420.9,120 	"/>
	<path d="M1568.5,117h-13.7c-0.2,1-0.5,2-0.7,3h13.7L1568.5,117z"/>
	<rect x="1327.4" y="117" width="17.2" height="3"/>
	<path d="M1548.2,117H1533l1,3h15C1548.8,119,1548.5,118,1548.2,117z"/>
	<path d="M1602,117h-13.5l0.8,3h13.4C1602.4,119,1602.2,118,1602,117z"/>
	<polygon points="1502,117 1484.6,117 1485.8,120 1503.2,120 	"/>
	<rect x="956.9" y="111" width="16.8" height="3"/>
	<path d="M527,96h18.3c0-1,0-2,0.1-3h-18.3C527.1,94,527,95,527,96z"/>
	<rect x="491.1" y="99" width="16.6" height="3"/>
	<path d="M616.2,90v-3h-16.9c0.2,1,0.3,2,0.4,3H616.2z"/>
	<path d="M507.7,114v-3h-16.9c-0.1,1.1-0.2,2.1-0.4,3H507.7z"/>
	<rect x="915.8" y="111" width="17.4" height="3"/>
	<path d="M1586.9,111l0.8,3h13.6c-0.2-1-0.5-2-0.7-3H1586.9z"/>
	<path d="M546.4,111h-18c0.2,1,0.5,2,0.7,3H547C546.8,113.1,546.6,112,546.4,111z"/>
	<path d="M616.2,96v-3H600c0.1,1,0.1,2,0.1,3H616.2z"/>
	<polygon points="815.5,114 815.5,114 815.6,114 	"/>
	<rect x="852.4" y="111" width="16.8" height="3"/>
	<path d="M762.7,111h-17.9c0.2,1,0.3,2,0.5,3h17.8C763,113.1,762.8,112,762.7,111z"/>
	<path d="M724.7,111H707c-0.3,1-0.6,2-0.9,3h18.6L724.7,111L724.7,111z"/>
	<path d="M654.9,111h-18c0.2,1,0.5,2,0.7,3h17.9C655.3,113.1,655.1,112,654.9,111z"/>
	<path d="M616.2,111h-17.7c-0.3,1-0.6,2-0.9,3h18.6L616.2,111L616.2,111z"/>
	<path d="M545.4,102c0-1-0.1-2-0.1-3H527c0,1,0.1,2,0.1,3H545.4z"/>
	<path d="M755.7,64.5c-0.5,0.5-0.9,1-1.3,1.6h23c3.3-1.2,7.2-1.9,11.6-1.9c4.5,0,8.4,0.6,11.8,1.9h22.4c-0.8-1.1-1.7-2.1-2.6-3
		h-63.5C756.6,63.5,756.1,64,755.7,64.5z"/>
	<path d="M764.4,57c-1.4,0.9-2.8,1.9-4.2,3h57c-1.4-1.1-2.8-2.1-4.3-3H764.4z"/>
	<path d="M1556.8,108h13.9l0.8-3h-13.9C1557.3,105.9,1557.1,106.9,1556.8,108z"/>
	<rect x="1164.5" y="63" width="16.8" height="3"/>
	<rect x="852.4" y="63" width="16.8" height="3"/>
	<path d="M542.2,60h52.5c-1.1-1.1-2.3-2.1-3.5-3h-45C544.8,57.9,543.4,58.9,542.2,60z"/>
	<rect x="956.9" y="63" width="16.8" height="3"/>
	<path d="M974.1,66H988c3.6-1.3,7.3-1.6,10.1-1.6c3.4,0,7.2,0.1,10.8,1.6h25c-0.5-1.1-1.1-2.1-1.8-3h-56.3
		C975.2,63.9,974.6,65,974.1,66z"/>
	<path d="M545.6,90c0.1-1,0.2-2,0.4-3h-18.2c-0.2,1-0.3,2-0.4,3H545.6z"/>
	<rect x="491.1" y="87" width="16.6" height="3"/>
	<path d="M546.5,84c0.2-1,0.5-2.1,0.8-3h-18.1c-0.3,1-0.5,2-0.8,3H546.5z"/>
	<path d="M548.4,78c0.4-1.1,0.9-2.1,1.5-3h-18.5c-0.4,1-0.8,2-1.2,3H548.4z"/>
	<path d="M560.2,66c3.5-1.4,7.6-2.1,12.6-2.1c4.4,0,8.4,0.7,11.8,2.1h31.6v-3h-16.8v2.8c-0.6-1-1.3-1.9-2-2.8h-58.3
		c-0.9,1-1.7,2-2.5,3H560.2z"/>
	<path d="M551.9,72c0.9-1.1,1.9-2.1,3.1-3h-20.5c-0.6,1-1.2,2-1.8,3H551.9z"/>
	<path d="M650.6,60h52.5c-1.1-1.1-2.3-2.1-3.5-3h-45C653.2,57.9,651.9,58.9,650.6,60z"/>
	<polygon points="1524,90 1540.6,90 1539.7,87 1523,87 	"/>
	<path d="M1562,87l-0.8,3h13.8c0.2-1,0.4-2,0.6-3H1562z"/>
	<polygon points="1521,81 1522,84 1538.8,84 1538,81 	"/>
	<polygon points="1559,99 1558.3,102 1572.2,102 1573,99 	"/>
	<polygon points="1472.4,84 1489.2,84 1488,81 1471.3,81 	"/>
	<path d="M1560.5,93l-0.8,3h13.9c0.2-1,0.4-2,0.7-3H1560.5z"/>
	<path d="M1206,78h19.2c0.4-1.1,0.9-2.1,1.4-3H1206V78z"/>
	<path d="M1265.5,78h20.7c0.4-1.1,0.9-2.1,1.4-3h-23.1C1264.9,76,1265.2,77,1265.5,78z"/>
	<rect x="1164.5" y="69" width="16.8" height="3"/>
	<polygon points="1469,75 1470.2,78 1486.8,78 1485.7,75 	"/>
	<rect x="1164.5" y="75" width="16.8" height="3"/>
	<polygon points="1419.9,78 1436.4,78 1437.5,75 1421,75 	"/>
	<path d="M1326.4,78h17.7c-0.1-1-0.3-2-0.5-3h-18.1C1325.9,76,1326.2,77,1326.4,78z"/>
	<polygon points="1499.7,111 1482.4,111 1483.5,114 1500.9,114 	"/>
	<path d="M653.8,96c0-1,0-2,0.1-3h-18.3c-0.1,1-0.1,2-0.1,3H653.8z"/>
	<path d="M705.1,78h19.5v-3h-21.1C704.1,75.9,704.7,77,705.1,78z"/>
	<path d="M654.1,105h-18.2c0.1,1,0.3,2,0.4,3h18.1C654.3,107,654.2,106,654.1,105z"/>
	<path d="M724.7,105h-16.6c-0.1,1-0.3,2-0.5,3h17L724.7,105L724.7,105z"/>
	<path d="M654.1,90c0.1-1,0.2-2,0.4-3h-18.2c-0.2,1-0.3,2-0.4,3H654.1z"/>
	<path d="M638.6,78h18.3c0.4-1.1,0.9-2.1,1.5-3h-18.5C639.3,76,638.9,77,638.6,78z"/>
	<path d="M655,84c0.2-1,0.5-2.1,0.8-3h-18.1c-0.3,1-0.5,2-0.8,3H655z"/>
	<path d="M653.9,102c0-1-0.1-2-0.1-3h-18.3c0,1,0.1,2,0.1,3H653.9z"/>
	<rect x="1020.3" y="105" width="17.4" height="3"/>
	<rect x="956.9" y="105" width="16.8" height="3"/>
	<path d="M1074.4,105h-18.1c0.1,1,0.2,2,0.3,3h18C1074.4,107,1074.4,106,1074.4,105z"/>
	<rect x="915.8" y="105" width="17.4" height="3"/>
	<path d="M762.3,105h-18.1c0.1,1,0.2,2,0.3,3h18C762.3,107,762.3,106,762.3,105z"/>
	<rect x="852.4" y="105" width="16.8" height="3"/>
	<path d="M852.4,78h19.7c0.5-1.1,1-2.1,1.5-3h-21.3L852.4,78L852.4,78z"/>
	<rect x="1164.5" y="87" width="16.8" height="3"/>
	<path d="M747.6,78H765c0.4-1,0.9-2,1.5-3h-17.6C748.4,76,748,77,747.6,78z"/>
	<path d="M1056.6,90h17.9c0-0.9,0.1-1.9,0.2-3h-17.6C1056.9,88,1056.8,89,1056.6,90z"/>
	<path d="M1128,90h16.6c-0.1-1-0.3-2-0.5-3h-16.5C1127.8,88,1127.9,89.1,1128,90z"/>
	<path d="M1266.4,90h17.4c0.1-1.1,0.2-2.1,0.3-3h-17.6C1266.4,88,1266.4,89,1266.4,90z"/>
	<path d="M1206,90h16.8c0.1-1.1,0.2-2.1,0.3-3H1206V90z"/>
	<path d="M1058.6,81c-0.3,1-0.6,2-0.8,3h17.5c0.2-1,0.5-2,0.8-3H1058.6z"/>
	<rect x="1164.5" y="105" width="16.8" height="3"/>
	<path d="M812.9,78h16.6c-0.4-1-0.8-2-1.2-3h-17C811.9,75.9,812.4,76.9,812.9,78z"/>
	<path d="M1060.9,75c-0.5,1-0.9,2-1.3,3h17.4c0.4-1,0.9-2,1.5-3H1060.9z"/>
	<path d="M914.8,78h17.8c-0.1-1-0.3-2-0.4-3h-18.4C914.2,76,914.5,77,914.8,78z"/>
	<path d="M1019.4,78h17.8c-0.1-1-0.3-2-0.4-3h-18.4C1018.8,76,1019.1,77,1019.4,78z"/>
	<path d="M956.9,78h19.3c0.4-1.1,0.9-2.1,1.4-3h-20.7V78z"/>
	<path d="M1062.5,72h18.1c0.9-1.1,2-2.1,3.3-3h-19.5C1063.7,70,1063,71,1062.5,72z"/>
	<path d="M616.2,84v-3h-18.3c0.3,1,0.6,2,0.9,3H616.2z"/>
	<path d="M1123.5,75c0.6,0.9,1.1,1.9,1.5,3h16.6c-0.4-1-0.8-2-1.2-3H1123.5z"/>
	<path d="M1206,84h17.5c0.2-1.1,0.4-2.1,0.7-3H1206V84z"/>
	<path d="M1127,84h16.4c-0.2-1-0.5-2-0.8-3h-16.5C1126.5,82,1126.8,83,1127,84z"/>
	<rect x="1164.5" y="81" width="16.8" height="3"/>
	<path d="M956.9,72h22.7c0.9-1.2,1.9-2.2,3-3h-25.7V72z"/>
	<path d="M1014.7,69.9c0.7,0.7,1.4,1.4,1.9,2.1h19.5c-0.3-1-0.6-2-0.9-3h-21.5C1014.1,69.3,1014.4,69.6,1014.7,69.9z"/>
	<path d="M701.4,72h23.3v-3h-26.5C699.4,69.9,700.4,70.9,701.4,72z"/>
	<path d="M660.4,72c0.9-1.1,1.9-2.1,3.1-3H643c-0.6,1-1.2,2-1.8,3H660.4z"/>
	<path d="M616.2,78v-3h-21.1c0.6,0.9,1.1,2,1.6,3H616.2z"/>
	<path d="M852.4,72h23.4c1-1.2,2.1-2.2,3.2-3h-26.6L852.4,72L852.4,72z"/>
	<path d="M750.4,72h18.1c0.9-1.1,2-2.1,3.3-3h-19.5C751.6,70,750.9,71,750.4,72z"/>
	<path d="M910.2,69.9c0.7,0.7,1.4,1.4,1.9,2.1h19.5c-0.3-1-0.6-2-0.9-3h-21.4C909.5,69.3,909.8,69.6,910.2,69.9z"/>
	<polygon points="1418.7,81 1417.5,84 1434.1,84 1435.3,81 	"/>
	<polygon points="1527,99 1528,102 1544.1,102 1543.2,99 	"/>
	<path d="M1266.3,84h18.2c0.2-1.1,0.4-2.1,0.7-3H1266C1266.1,82,1266.2,83,1266.3,84z"/>
	<polygon points="1424.3,111 1406.9,111 1405.8,114 1423.1,114 	"/>
	<path d="M1327.3,87c0,1,0,2,0,3h17.2v-3H1327.3z"/>
	<rect x="1327.4" y="111" width="17.2" height="3"/>
	<rect x="1266.4" y="111" width="17.2" height="3"/>
	<path d="M1529,105l1,3h15.8c-0.3-1.2-0.6-2.2-0.8-3H1529z"/>
	<polygon points="1415.2,90 1431.9,90 1433,87 1416.3,87 	"/>
	<rect x="1206" y="111" width="16.6" height="3"/>
	<path d="M1327.2,84h17.3c0-1-0.1-2-0.1-3H1327C1327.1,82,1327.2,83,1327.2,84z"/>
	<polygon points="1412.8,96 1493.9,96 1492.7,93 1414,93 	"/>
	<polygon points="1473.5,87 1474.7,90 1491.5,90 1490.3,87 	"/>
	<polygon points="1525,93 1526,96 1542.3,96 1541.5,93 	"/>
	<path d="M1530.9,1025.7c0,0.1,0,0.2,0,0.3h15.9c0-0.4,0-0.8,0-1.2c0-0.6,0-1.2-0.1-1.8h-16.3
		C1530.7,1023.8,1530.9,1024.7,1530.9,1025.7z"/>
	<path d="M801,966h59.6c-1.3-1.1-2.7-2.1-4.2-3h-51.1C803.8,963.9,802.4,964.9,801,966z"/>
	<rect x="728.1" y="963" width="49.2" height="3"/>
	<rect x="652" y="963" width="16.8" height="3"/>
	<path d="M1014.7,963c-1.4,0.9-2.8,1.9-4.1,3h57.6c-1.3-1.1-2.7-2.1-4.2-3H1014.7z"/>
	<rect x="610.5" y="1005" width="16.8" height="3"/>
	<path d="M919,966h29.5l0.1-3h-25.9C921.3,963.9,920.1,964.9,919,966z"/>
	<rect x="610.5" y="969" width="16.8" height="3"/>
	<rect x="1103" y="969" width="16.8" height="3"/>
	<rect x="610.5" y="975" width="16.8" height="3"/>
	<rect x="610.5" y="999" width="16.8" height="3"/>
	<rect x="610.5" y="987" width="16.8" height="3"/>
	<rect x="610.5" y="993" width="16.8" height="3"/>
	<rect x="610.5" y="981" width="16.8" height="3"/>
	<path d="M583.5,984c-0.1-1-0.2-2-0.3-3h-16.7c0.2,0.9,0.4,1.9,0.5,3H583.5z"/>
	<path d="M1006.4,970.2c-0.5,0.6-1,1.2-1.5,1.8h22.5c3.5-1.4,7.6-2.2,12.3-2.2c4.8,0,8.9,0.7,12.4,2.2h22c-0.8-1.1-1.7-2.1-2.6-3
		h-64C1007.1,969.4,1006.7,969.8,1006.4,970.2z"/>
	<rect x="1264.1" y="1011" width="16.8" height="3"/>
	<path d="M1264.1,999v3h17c0.1-1,0.2-2,0.3-3H1264.1z"/>
	<rect x="1264.1" y="1017" width="16.8" height="3"/>
	<path d="M1264.1,993v3h17.6c0.2-1,0.3-2.1,0.5-3H1264.1z"/>
	<rect x="1264.1" y="1023" width="16.8" height="3"/>
	<rect x="1264.1" y="1029" width="16.8" height="3"/>
	<rect x="1198.4" y="969" width="49.2" height="3"/>
	<path d="M1280.9,975L1280.9,975L1280.9,975H1264v3h26c1.4-1.2,2.9-2.2,4.5-3H1280.9z"/>
	<rect x="1264.1" y="969" width="16.8" height="3"/>
	<path d="M1264.1,984h21.3c0.6-1.1,1.2-2.1,1.9-3H1264L1264.1,984L1264.1,984z"/>
	<rect x="1330.1" y="981" width="16.8" height="3"/>
	<path d="M1264.1,987v3h18.9c0.3-1.1,0.7-2.1,1-3H1264.1z"/>
	<rect x="1330.1" y="987" width="16.8" height="3"/>
	<rect x="1330.1" y="1005" width="16.8" height="3"/>
	<rect x="1330.1" y="1041" width="16.8" height="3"/>
	<path d="M1393.1,1035h-19.6c0.6,1,1.3,2,2.1,3h22.1C1395.9,1037.2,1394.4,1036.2,1393.1,1035z"/>
	<path d="M1370.4,1029c0.4,1,0.9,2,1.4,3h18.6c-0.7-0.9-1.3-1.9-1.9-3H1370.4z"/>
	<rect x="1103" y="1047" width="16.8" height="3"/>
	<rect x="1166.4" y="1047" width="17.4" height="3"/>
	<rect x="1264.1" y="1047" width="16.8" height="3"/>
	<path d="M1451.9,1029H1435c-0.6,1.1-1.2,2.1-1.9,3h17.6C1451.1,1031,1451.5,1030,1451.9,1029z"/>
	<rect x="1330.1" y="1047" width="16.8" height="3"/>
	<rect x="1330.1" y="1029" width="16.8" height="3"/>
	<path d="M1369.3,1026h17.8c-0.4-1-0.7-2-1-3h-17.8C1368.6,1024,1368.9,1025,1369.3,1026z"/>
	<rect x="1330.1" y="993" width="16.8" height="3"/>
	<rect x="1330.1" y="1011" width="16.8" height="3"/>
	<rect x="1330.1" y="1023" width="16.8" height="3"/>
	<rect x="1330.1" y="1017" width="16.8" height="3"/>
	<rect x="652" y="1047" width="16.8" height="3"/>
	<path d="M505.5,1020h17.9c0.6-1.2,1.3-2.2,2.3-3h-19.2C506.1,1017.9,505.8,1018.9,505.5,1020z"/>
	<path d="M521.9,1026c0.1-1.1,0.2-2.1,0.4-3h-17.4c-0.1,1-0.2,2-0.3,3H521.9z"/>
	<path d="M522.8,1032c-0.4-0.9-0.7-1.9-0.8-3h-17.3c0.1,1,0.2,2,0.3,3H522.8z"/>
	<rect x="567.3" y="1011" width="16.3" height="3"/>
	<path d="M583.6,1031.7v-2.7h-19.3c-0.6,1.1-1.3,2.1-2.1,3h21.3C583.6,1031.9,583.6,1031.8,583.6,1031.7z"/>
	<path d="M583.6,1020v-3h-16.3c0,1-0.1,2-0.2,3H583.6z"/>
	<path d="M1066.8,1047h-53.6c1.7,1.1,3.4,2.2,5.3,3h42.9C1063.3,1049.1,1065.1,1048.1,1066.8,1047z"/>
	<path d="M857.1,1047h-53.3c1.8,1.1,3.6,2.1,5.6,3h42.1C853.5,1049.1,855.4,1048.1,857.1,1047z"/>
	<rect x="896.6" y="1047" width="16.8" height="3"/>
	<path d="M594.6,1044l-0.1-3h-26.4c0.2,1.1,0.5,2.1,0.9,3H594.6z"/>
	<rect x="741.6" y="1047" width="16.6" height="3"/>
	<rect x="610.5" y="1047" width="16.8" height="3"/>
	<rect x="610.5" y="1011" width="16.8" height="3"/>
	<rect x="1330.1" y="999" width="16.8" height="3"/>
	<rect x="1166.4" y="1035" width="17.4" height="3"/>
	<path d="M1228.5,1029h-16.6v2c0,0.3,0,0.7,0,1h16.7c0-0.5-0.1-1-0.1-1.6V1029z"/>
	<rect x="1211.9" y="1023" width="16.6" height="3"/>
	<path d="M1077.7,1035h-19c-1.4,1.2-3,2.2-4.7,3h21.8C1076.5,1037,1077.1,1036,1077.7,1035z"/>
	<rect x="896.6" y="1035" width="16.8" height="3"/>
	<rect x="1103" y="1035" width="16.8" height="3"/>
	<rect x="1211.9" y="1017" width="16.6" height="3"/>
	<path d="M811.9,1035h-20c0.7,1,1.4,2.1,2.1,3h22.5C814.8,1037.1,813.2,1036.1,811.9,1035z"/>
	<rect x="1211.9" y="993" width="16.6" height="3"/>
	<rect x="1211.9" y="987" width="16.6" height="3"/>
	<rect x="1211.9" y="981" width="16.6" height="3"/>
	<rect x="1211.9" y="1005" width="16.6" height="3"/>
	<rect x="1211.9" y="999" width="16.6" height="3"/>
	<rect x="1211.9" y="1011" width="16.6" height="3"/>
	<rect x="741.6" y="1017" width="16.6" height="3"/>
	<rect x="741.6" y="1005" width="16.6" height="3"/>
	<rect x="741.6" y="993" width="16.6" height="3"/>
	<rect x="741.6" y="999" width="16.6" height="3"/>
	<rect x="741.6" y="987" width="16.6" height="3"/>
	<path d="M790.9,978h18.5c0.9-1.1,1.9-2.1,3-3h-19.6C792.1,976,791.5,977,790.9,978z"/>
	<rect x="741.6" y="981" width="16.6" height="3"/>
	<rect x="741.6" y="1035" width="16.6" height="3"/>
	<rect x="652" y="1029" width="16.8" height="3"/>
	<rect x="1330.1" y="1035" width="16.8" height="3"/>
	<rect x="652" y="1023" width="16.8" height="3"/>
	<rect x="741.6" y="1023" width="16.6" height="3"/>
	<path d="M1160.8,975.6c0.8,0.8,1.5,1.6,2.1,2.4h19.4c-0.3-1-0.5-2-0.9-3h-21.2C1160.4,975.2,1160.6,975.4,1160.8,975.6z"/>
	<rect x="741.6" y="1011" width="16.6" height="3"/>
	<rect x="652" y="1035" width="16.8" height="3"/>
	<rect x="652" y="1041" width="16.8" height="3"/>
	<rect x="610.5" y="1041" width="16.8" height="3"/>
	<rect x="741.6" y="1041" width="16.6" height="3"/>
	<path d="M864.5,1041h-67.9c1,1.1,2.1,2.1,3.2,3h61.5C862.3,1043,863.4,1042,864.5,1041z"/>
	<rect x="610.5" y="1029" width="16.8" height="3"/>
	<rect x="610.5" y="1035" width="16.8" height="3"/>
	<rect x="610.5" y="1017" width="16.8" height="3"/>
	<rect x="1264.1" y="1041" width="16.8" height="3"/>
	<rect x="1264.1" y="1035" width="16.8" height="3"/>
	<path d="M1103,978h23.2c1-1.2,2-2.2,3.1-3H1103V978z"/>
	<rect x="1166.4" y="1041" width="17.4" height="3"/>
	<path d="M1073.5,1041h-67.1c1,1.1,1.9,2.1,3,3h61.2C1071.6,1043,1072.6,1042,1073.5,1041z"/>
	<rect x="1103" y="1041" width="16.8" height="3"/>
	<rect x="896.6" y="1041" width="16.8" height="3"/>
	<rect x="896.6" y="969" width="16.8" height="3"/>
	<rect x="728.1" y="969" width="49.2" height="3"/>
	<rect x="652" y="969" width="16.8" height="3"/>
	<path d="M1000.9,978h18.1c0.9-1.1,1.9-2.1,3.1-3h-19.4C1002.1,976,1001.5,977,1000.9,978z"/>
	<rect x="652" y="975" width="16.8" height="3"/>
	<path d="M913.4,975L913.4,975l-16.8-0.1v3h26c1.4-1.2,2.9-2.2,4.5-3L913.4,975L913.4,975z"/>
	<rect x="652" y="981" width="16.8" height="3"/>
	<rect x="652" y="1017" width="16.8" height="3"/>
	<rect x="652" y="1005" width="16.8" height="3"/>
	<rect x="652" y="1011" width="16.8" height="3"/>
	<rect x="652" y="999" width="16.8" height="3"/>
	<rect x="652" y="987" width="16.8" height="3"/>
	<rect x="652" y="993" width="16.8" height="3"/>
	<path d="M393.9,978c0.1-1,0.2-2,0.3-3h-19c-0.1,1-0.2,2-0.3,3H393.9z"/>
	<path d="M397.1,960c0.3-1,0.7-2,1.1-3h-18.9c-0.4,1-0.7,2-1,3H397.1z"/>
	<path d="M395.5,966c0.2-1,0.5-2,0.7-3h-18.8c-0.3,1-0.5,2-0.7,3H395.5z"/>
	<path d="M394.5,972c0.1-1,0.3-2,0.5-3h-18.9c-0.2,1-0.4,2-0.5,3H394.5z"/>
	<path d="M849.3,975c1.1,0.9,2.1,1.9,3,3h18.5c-0.6-1-1.2-2-1.9-3H849.3z"/>
	<path d="M408.9,942c1.4-1.1,2.9-2.1,4.5-3h-24c-0.8,1-1.6,2-2.3,3H408.9z"/>
	<path d="M399.6,954c0.5-1,1.1-2.1,1.6-3h-19.4c-0.5,1-0.9,2-1.4,3H399.6z"/>
	<path d="M403.2,948c0.8-1.1,1.6-2.1,2.5-3h-20.6c-0.6,1-1.2,2-1.8,3H403.2z"/>
	<path d="M473.6,930c-1.5-1.1-3-2.1-4.6-3h-65.5c-1.6,0.9-3.1,1.9-4.6,3H473.6z"/>
	<path d="M395.7,1008c-0.2-1-0.4-2-0.6-3h-19c0.2,1,0.4,2,0.6,3H395.7z"/>
	<path d="M394.6,1002c-0.1-1-0.3-2-0.4-3h-19c0.1,1,0.2,2,0.4,3H394.6z"/>
	<path d="M397.4,1014c-0.3-1-0.7-2-0.9-3h-19.1c0.3,1,0.5,2,0.8,3H397.4z"/>
	<path d="M393.9,996c-0.1-1-0.1-2-0.2-3h-19c0.1,1,0.1,2,0.2,3H393.9z"/>
	<path d="M399.9,1020c-0.5-1-0.9-2-1.4-3h-19.3c0.4,1,0.7,2,1.1,3H399.9z"/>
	<path d="M393.6,984c0-1,0-2,0.1-3h-19c-0.1,1-0.1,2-0.1,3H393.6z"/>
	<path d="M393.6,990c0-1,0-2,0-3h-19.1c0,1,0,2,0,3H393.6z"/>
	<path d="M1316.1,960l0.1-3h-11c-3.6,0.6-6.8,1.7-9.8,3H1316.1z"/>
	<path d="M1131.3,960h36.3c-2.8-1.4-5.9-2.4-9.3-3h-18.4C1136.7,957.6,1133.8,958.6,1131.3,960z"/>
	<polygon points="1211.9,957 1211.9,958.4 1198.4,958.4 1198.4,960 1247.6,960 1247.6,958.4 1228.5,958.4 1228.5,957 	"/>
	<path d="M1386.3,963c-1.4,0.9-2.8,1.9-4.1,3h57.6c-1.3-1.1-2.7-2.1-4.2-3H1386.3z"/>
	<path d="M1431.6,978h17.7c-0.5-1.1-1.1-2.1-1.7-3h-19.1C1429.7,975.9,1430.7,976.9,1431.6,978z"/>
	<path d="M1379.1,969c-0.4,0.4-0.8,0.8-1.1,1.2c-0.5,0.6-1,1.2-1.5,1.8h22.5c3.5-1.4,7.6-2.2,12.3-2.2c4.8,0,8.9,0.7,12.4,2.2h22
		c-0.8-1.1-1.7-2.1-2.6-3H1379.1z"/>
	<rect x="652" y="921" width="16.8" height="3"/>
	<path d="M743,933c-0.3,1-0.6,2-0.8,3h20.6c1.3-0.3,2.9-0.4,4.8-0.4c1.3,0,3.4,0.2,5.5,0.4h3.5l0.1-3H743z"/>
	<rect x="1211.9" y="933" width="16.6" height="3"/>
	<rect x="741.6" y="951" width="16.6" height="3"/>
	<path d="M746.5,927c-0.8,0.9-1.6,1.9-2.2,3h32.4l0.1-3H746.5z"/>
	<rect x="741.6" y="945" width="16.6" height="3"/>
	<path d="M741.7,939c-0.1,1-0.1,2-0.2,3h16.7c0.1-1.2,0.3-2.2,0.6-3H741.7z"/>
	<rect x="1330.1" y="939" width="16.8" height="1.8"/>
	<path d="M1475,969c-0.7,1-1.3,2-1.8,3h20.3c3.4-1.7,7.5-2.6,11.6-2.6c5.2,0,9.6,0.9,13.2,2.6h21.7c-0.6-1.1-1.3-2.1-2-3H1475z"/>
	<rect x="1211.9" y="951" width="16.6" height="3"/>
	<path d="M1522.8,975c1,0.9,1.9,1.9,2.6,3h17.2c-0.3-1.1-0.7-2.1-1.2-3H1522.8z"/>
	<path d="M1496.1,957c-3.4,0.6-6.8,1.6-9.8,3h39.9c-3.2-1.4-6.7-2.4-10.4-3H1496.1z"/>
	<path d="M1487.8,987h-16.9c0.1,1.1,0.3,2.1,0.5,3h19.5C1489.6,989.1,1488.5,988.1,1487.8,987z"/>
	<path d="M1527,981c0.4,0.9,0.7,2,1,3h16c-0.2-1-0.3-2.1-0.6-3H1527z"/>
	<path d="M1528.5,987c0.1,0.7,0.1,1.5,0.2,2.3l14.7-2.3H1528.5z"/>
	<path d="M403.6,1026c-0.2-0.3-0.4-0.6-0.6-0.8c-0.5-0.7-1-1.4-1.4-2.2h-19.9c0.5,1,1,2,1.5,3H403.6z"/>
	<rect x="1330.1" y="927" width="16.8" height="3"/>
	<rect x="1330.1" y="933" width="16.8" height="3"/>
	<path d="M1476.1,999c1,1.1,2.2,2.1,3.4,3h52.2c-2.7-1.2-5.7-2.2-8.8-3H1476.1z"/>
	<path d="M1472,975c-0.3,1-0.6,2-0.8,3h16.1c0.5-1.1,1.2-2.1,2.1-3H1472z"/>
	<rect x="1211.9" y="939" width="16.6" height="3"/>
	<rect x="1211.9" y="945" width="16.6" height="3"/>
	<path d="M750.3,924h26.6l0.1-2.4c-1-0.2-2.5-0.4-4.3-0.6h-12.3C756.3,921.5,753,922.5,750.3,924z"/>
	<path d="M461,1050c2.3-0.9,4.6-1.9,6.7-3h-63.6c2.2,1.1,4.4,2.2,6.8,3H461z"/>
	<path d="M472.7,1044c1.4-0.9,2.8-2,4.1-3h-81.5c1.3,1.1,2.6,2.1,4,3H472.7z"/>
	<path d="M450.2,1053h-28c4.5,0.8,9.3,1.2,14.4,1.2C441.4,1054.1,445.9,1053.7,450.2,1053z"/>
	<path d="M409.6,1032c-1.2-0.9-2.4-1.9-3.5-3h-21.3c0.6,1,1.3,2,2,3H409.6z"/>
	<path d="M1496.1,1053c3.9,0.8,8,1.2,12.1,1.2c4.4,0,8.8-0.4,13-1.2H1496.1z"/>
	<path d="M422.4,1038c-2.9-0.8-5.5-1.8-8-3h-25.2c0.9,1.1,1.8,2.1,2.8,3H422.4z"/>
	<path d="M1484.5,1005c2.4,1.2,5,2.2,7.8,3h48.4c-1.1-1.1-2.3-2.1-3.6-3H1484.5z"/>
	<path d="M1530.6,1029c-0.2,1.1-0.5,2.1-1,3h16.5c0.2-1,0.4-2,0.5-3H1530.6z"/>
	<path d="M1524.6,1017c1.6,0.9,3.1,1.8,4.1,3h17.7c-0.2-1.1-0.4-2.1-0.6-3H1524.6z"/>
	<path d="M1503.2,1011c4.3,1,8.9,1.9,13.2,3h28.4c-0.5-1.1-1-2.1-1.7-3H1503.2z"/>
	<path d="M1474.9,1041c0.9,1.1,1.8,2.1,2.8,3h62.1c0.9-0.9,1.7-1.9,2.5-3H1474.9z"/>
	<path d="M1368.7,987c-0.3,1-0.6,2-0.8,3h17.5c0.2-1,0.4-2,0.7-3H1368.7z"/>
	<path d="M1481.4,1047c1.7,1.2,3.5,2.2,5.4,3h44.1c1.9-0.9,3.7-1.9,5.3-3H1481.4z"/>
	<path d="M1527.6,1035c-1.1,1.2-2.5,2.2-4.1,3h20.5c0.5-1,0.9-2,1.3-3H1527.6z"/>
	<path d="M488.8,948c-0.5-1-1.1-2-1.7-3h-22.4c0.9,1,1.8,2,2.6,3H488.8z"/>
	<path d="M491.7,960l1.5-0.3c-0.2-0.9-0.5-1.8-0.8-2.7h-19.9c0.4,1,0.8,2,1.2,3H491.7z"/>
	<path d="M461.5,942h23.7c-0.7-1-1.5-2-2.3-3h-25.7C458.7,939.9,460.2,940.9,461.5,942z"/>
	<path d="M491.4,954c-0.4-1-0.8-2-1.2-3h-20.8c0.6,1,1.2,2,1.8,3H491.4z"/>
	<rect x="610.5" y="939" width="16.8" height="3"/>
	<rect x="652" y="927" width="16.8" height="3"/>
	<rect x="610.5" y="933" width="16.8" height="3"/>
	<polygon points="583.6,996 583.6,993 565.5,993 549.9,996 	"/>
	<path d="M524.7,984c0.2-1.1,0.4-2.1,0.7-3h-16.9c-0.2,1-0.3,2-0.4,3H524.7z"/>
	<path d="M583.6,987L583.6,987h-16.4c0,0.9,0.1,2,0.1,3h16.3L583.6,987L583.6,987z"/>
	<path d="M526.6,978c0.6-1.1,1.3-2.1,2.2-3h-18.7c-0.4,1-0.7,2-1,3H526.6z"/>
	<path d="M532.9,972c3.5-1.7,8.2-2.6,14.2-2.6c5.1,0,9.5,0.9,12.6,2.6h20.9c-0.5-1.1-1.1-2.1-1.7-3h-65.7c-0.7,0.9-1.3,2-1.9,3
		H532.9z"/>
	<rect x="652" y="933" width="16.8" height="3"/>
	<path d="M573.5,963h-53.9c-0.1,0-0.1,0.1-0.2,0.1c-1.3,0.9-2.5,1.8-3.6,2.9h60.9C575.8,964.9,574.7,963.9,573.5,963z"/>
	<path d="M476.2,963h-1.6c0,0.1,0.1,0.2,0.1,0.3L476.2,963z"/>
	<rect x="1330.1" y="969" width="16.8" height="3"/>
	<path d="M1286.5,966h29.5l0.1-3h-25.9C1288.8,963.9,1287.6,964.9,1286.5,966z"/>
	<rect x="1198.4" y="963" width="49.2" height="3"/>
	<path d="M1371,981c-0.4,1-0.9,2-1.3,3h17.4c0.4-1,0.9-2,1.4-3H1371z"/>
	<rect x="1330.1" y="975" width="16.8" height="3"/>
	<path d="M1124,966h51.9c-1.1-1.1-2.2-2.1-3.5-3H1127C1125.9,963.9,1124.9,964.9,1124,966z"/>
	<rect x="652" y="951" width="16.8" height="3"/>
	<path d="M1486.4,982.3c0-0.5,0-0.9,0.1-1.4h-15.7c-0.1,0.8-0.1,1.6-0.1,2.5c0,0.2,0,0.4,0,0.5h15.8
		C1486.4,983.5,1486.4,982.9,1486.4,982.3z"/>
	<rect x="652" y="945" width="16.8" height="3"/>
	<rect x="652" y="957" width="16.8" height="3"/>
	<path d="M948.7,960l0.1-3h-11c-3.6,0.6-6.8,1.7-9.8,3H948.7z"/>
	<rect x="1103" y="963" width="16.8" height="3"/>
	<polygon points="741.6,957 741.6,958.4 728.1,958.4 728.1,960 777.3,960 777.3,958.4 758.2,958.4 758.2,957 	"/>
	<rect x="652" y="939" width="16.8" height="3"/>
	<path d="M1490.1,1035h-18.9c0.5,1.1,1,2.1,1.6,3h21.7C1492.9,1037.1,1491.4,1036.1,1490.1,1035z"/>
	<path d="M1469.4,1029c0.2,1,0.5,2,0.8,3h17.3c-0.7-0.9-1.2-1.9-1.7-3H1469.4z"/>
	<path d="M1468.7,1023c0,1,0.1,2,0.2,3h15.8c-0.3-1-0.5-2-0.6-3H1468.7z"/>
	<path d="M583.6,1002v-3h-49c-3.7,0.8-7.4,1.7-11,3H583.6z"/>
	<path d="M1423.7,1053h-24.6c3.8,0.8,7.8,1.2,12.1,1.2C1415.7,1054.1,1419.9,1053.7,1423.7,1053z"/>
	<path d="M1430.3,1035c-1.4,1.2-3,2.2-4.7,3h21.8c0.7-1,1.3-2,1.9-3H1430.3z"/>
	<path d="M1433.8,981c0.5,0.9,1,2,1.5,3h16.6c-0.4-1-0.8-2-1.2-3H1433.8z"/>
	<path d="M1436.4,987c0.3,1,0.6,2,0.8,3h16.4c-0.2-1-0.5-2-0.8-3H1436.4z"/>
	<path d="M1437.8,993c0.2,1.1,0.3,2.1,0.3,3h16.6c-0.1-1-0.3-2-0.5-3H1437.8z"/>
	<path d="M1384.8,1047c1.7,1.1,3.4,2.2,5.3,3h42.9c1.9-0.9,3.7-1.9,5.4-3H1384.8z"/>
	<path d="M1366.4,999c-0.1,1-0.2,2-0.2,3h89.1c-0.1-1-0.1-2-0.2-3H1366.4z"/>
	<path d="M1367.6,1020h17.8c-0.2-1-0.4-2-0.5-3H1367C1367.2,1018,1367.4,1019,1367.6,1020z"/>
	<path d="M1366.4,1011c0.1,1,0.2,2,0.3,3h18c-0.1-1-0.1-2-0.1-3H1366.4z"/>
	<path d="M1481.3,1020h2.7c0-0.1,0-0.2,0-0.3L1481.3,1020z"/>
	<path d="M483.2,1014l-8.1-2.1c-0.2,0.7-0.5,1.4-0.8,2.1H483.2z"/>
	<path d="M492.9,1020c0.5-1,1-2,1.4-3H473c-0.5,1-1,2-1.6,3H492.9z"/>
	<path d="M489.6,1026c0.6-1,1.2-2,1.8-3h-21.8c-0.7,1-1.4,2.1-2.2,3H489.6z"/>
	<path d="M554.3,1008l13-2.8v2.8h16.3v-3h-66.3c-1.5,0.9-3,1.9-4.3,3H554.3z"/>
	<path d="M530.3,1014c2.5-1.1,5.5-1.9,8.8-2.7l1.6-0.3H510c-0.8,0.9-1.5,1.9-2.1,3H530.3z"/>
	<path d="M485.5,1032c0.8-1,1.5-2,2.2-3h-23c-1.1,1.1-2.2,2.1-3.4,3H485.5z"/>
	<path d="M556.1,1050c1.7-0.9,3.2-1.9,4.6-3h-46.9c1.4,1.1,2.9,2.2,4.6,3H556.1z"/>
	<path d="M1052.1,1053h-24.6c3.8,0.8,7.8,1.2,12.1,1.2C1044.1,1054.1,1048.3,1053.7,1052.1,1053z"/>
	<path d="M547.7,1053h-21.6c3.2,0.8,6.6,1.2,9.9,1.2C540.4,1054.1,544.2,1053.7,547.7,1053z"/>
	<path d="M480.1,1038c1-1,2-2,2.9-3h-26.3c-2.2,1.2-4.7,2.2-7.3,3H480.1z"/>
	<path d="M842.4,1053h-23.5c3.8,0.8,7.8,1.2,12.1,1.2C835,1054.1,838.8,1053.7,842.4,1053z"/>
	<path d="M524.6,1035h-18.9c0.3,1.1,0.7,2.1,1.1,3h21.3C526.7,1037.2,525.5,1036.1,524.6,1035z"/>
	<path d="M563.7,1044c0.8-0.9,1.6-2,2.3-3h-57.5c0.7,1.1,1.4,2.1,2.2,3H563.7z"/>
	<path d="M802.5,147h-26.7c4,1,8.4,1.4,13.2,1.4C793.9,148.4,798.4,147.9,802.5,147z"/>
	<rect x="19.1" y="123" width="16.8" height="3"/>
	<rect x="19.1" y="135" width="84.5" height="3"/>
	<polygon points="103.6,132 103.6,131.4 36,131.4 36,129 19.1,129 19.1,132 	"/>
	<rect x="19.1" y="117" width="16.8" height="3"/>
	<rect x="19.1" y="99" width="16.8" height="3"/>
	<rect x="19.1" y="93" width="16.8" height="3"/>
	<rect x="19.1" y="105" width="16.8" height="3"/>
	<rect x="19.1" y="111" width="16.8" height="3"/>
	<path d="M661.4,165h-18.5c0.5,1.1,1,2.1,1.6,3h21.3C664.2,167.2,662.7,166.2,661.4,165z"/>
	<path d="M598.3,153c-0.3,1-0.6,2-1,3h17.2c0.3-1,0.5-2,0.7-3H598.3z"/>
	<path d="M608.6,168c0.7-1,1.4-2,2-3h-19.8c-1.4,1.2-3,2.2-4.8,3H608.6z"/>
	<path d="M612.3,162c0.5-1,0.9-2,1.3-3h-17.7c-0.6,1.1-1.3,2.1-2.1,3H612.3z"/>
	<path d="M616.1,147h-16.8c-0.1,1-0.2,2-0.3,3h16.8C615.9,149,616,148,616.1,147z"/>
	<path d="M182.9,147h-29.2c4.9,0.9,10.1,1.4,15.6,1.4C174.1,148.4,178.6,147.9,182.9,147z"/>
	<rect x="19.1" y="141" width="84.5" height="3"/>
	<rect x="19.1" y="27" width="16.8" height="3"/>
	<rect x="19.1" y="33" width="16.8" height="3"/>
	<rect x="19.1" y="39" width="16.8" height="3"/>
	<rect x="19.1" y="45" width="16.8" height="3"/>
	<rect x="19.1" y="21" width="16.8" height="3"/>
	<rect x="19.1" y="87" width="16.8" height="3"/>
	<rect x="19.1" y="15.3" width="16.8" height="2.7"/>
	<rect x="19.1" y="75" width="16.8" height="3"/>
	<rect x="19.1" y="69" width="16.8" height="3"/>
	<rect x="19.1" y="81" width="16.8" height="3"/>
	<rect x="19.1" y="63" width="16.8" height="3"/>
	<rect x="19.1" y="51" width="16.8" height="3"/>
	<rect x="19.1" y="57" width="16.8" height="3"/>
	<path d="M1883,123c-0.6,1.1-1.2,2.1-1.9,3h23v-3H1883z"/>
	<path d="M1886.9,111c-0.2,1-0.4,2-0.6,3h17.7v-3H1886.9z"/>
	<path d="M1885.5,117c-0.3,1.1-0.7,2.1-1.1,3h19.6v-3H1885.5z"/>
	<path d="M1887.6,105c-0.1,1-0.2,2-0.3,3h16.7v-3H1887.6z"/>
	<rect x="1887.2" y="141" width="16.8" height="3"/>
	<path d="M132,24h73.6c-1.5-1.1-3-2.1-4.6-3h-64.3C135,21.9,133.5,22.9,132,24z"/>
	<rect x="1887.2" y="135" width="16.8" height="3"/>
	<path d="M1887.8,99c0,0.2,0,0.4,0,0.6c0,0.8,0,1.6,0,2.4h16.3v-3H1887.8z"/>
	<path d="M1878.4,129c-1.3,1.2-2.7,2.2-4.2,3h29.8v-3H1878.4z"/>
	<path d="M1882.8,75c0.6,1,1.1,2,1.5,3h19.7v-3H1882.8z"/>
	<path d="M1877.7,69c1.1,0.9,2.1,1.9,3,3h23.3v-3H1877.7z"/>
	<path d="M1887.6,93c0.1,1,0.1,2,0.2,3h16.3v-3H1887.6z"/>
	<path d="M1887.2,63v1.8c-0.5-0.6-0.9-1.2-1.4-1.8h-58.6c-0.9,1-1.7,2-2.5,3h23.9c3.5-1.4,7.6-2.1,12.5-2.1c4.6,0,8.5,0.8,11.7,2.1
		h31.3v-3H1887.2z"/>
	<path d="M1885.4,81c0.3,1,0.6,2,0.8,3h17.8v-3H1885.4z"/>
	<path d="M1886.9,87c0.2,1,0.3,2,0.4,3h16.8v-3H1886.9z"/>
	<path d="M592.6,180c2.2-0.9,4.2-1.9,6.1-3h-53.5c1.8,1.2,3.8,2.2,5.8,3H592.6z"/>
	<path d="M557.4,168c-1.7-0.8-3.2-1.8-4.5-3h-18.5c0.5,1.1,1,2.1,1.6,3H557.4z"/>
	<path d="M640.9,159c0.2,1,0.5,2.1,0.8,3H659c-0.6-0.9-1.1-1.9-1.5-3H640.9z"/>
	<path d="M550.5,162c-0.6-0.9-1.1-1.9-1.5-3h-16.7c0.2,1,0.5,2.1,0.8,3H550.5z"/>
	<path d="M581.7,183h-20.2c3.3,0.5,6.6,0.8,9.8,0.8C575,183.8,578.4,183.5,581.7,183z"/>
	<path d="M855.9,984h17.8c-0.4-1-0.8-2-1.3-3h-18C854.9,981.9,855.4,982.9,855.9,984z"/>
	<path d="M640,153c0.1,1,0.2,2,0.3,3h16.4c-0.2-0.9-0.4-1.9-0.5-3H640z"/>
	<path d="M707.7,147c-0.1,1-0.2,2-0.3,3h16.8c0.1-1,0.2-2,0.3-3H707.7z"/>
	<path d="M704.3,159c-0.6,1.1-1.3,2.1-2.1,3h18.5c0.5-1,0.9-2,1.3-3H704.3z"/>
	<path d="M706.8,153c-0.3,1-0.6,2-1,3H723c0.3-1,0.5-2,0.7-3H706.8z"/>
	<path d="M1846.2,147c3.6,0.9,7.5,1.4,11.5,1.4c3.8,0,7.3-0.5,10.6-1.4H1846.2z"/>
	<path d="M669.9,183c3.3,0.5,6.6,0.8,9.8,0.8c3.6,0,7.1-0.3,10.3-0.8H669.9z"/>
	<path d="M699.3,165c-1.4,1.2-3,2.2-4.8,3h22.6c0.7-1,1.4-2,2-3H699.3z"/>
	<path d="M653.5,177c1.8,1.2,3.8,2.2,5.8,3H701c2.2-0.9,4.2-1.9,6.1-3H653.5z"/>
	<path d="M1114.6,147h-26.7c4,1,8.4,1.4,13.2,1.4C1106,148.4,1110.5,147.9,1114.6,147z"/>
	<path d="M202.1,138c1.2-1,2.3-1.9,3.4-3h-78c1.3,1.1,2.6,2.1,3.9,3H202.1z"/>
	<path d="M154,132c-2.8-0.8-5.4-1.8-7.8-3h-24.4c0.9,1.1,1.8,2.1,2.7,3H154z"/>
	<path d="M129.9,108c-0.3-1-0.6-2-0.9-3h-19c0.3,1,0.5,2,0.8,3H129.9z"/>
	<rect x="956.9" y="27" width="16.8" height="3"/>
	<path d="M132.3,114c-0.5-1-0.9-2-1.3-3h-19.2c0.4,1,0.7,2,1.1,3H132.3z"/>
	<polygon points="226.5,141 212.2,141 212.5,144 226.5,144 	"/>
	<path d="M135.8,120c-0.1-0.1-0.1-0.1-0.2-0.2c-0.6-0.9-1.2-1.8-1.8-2.8h-19.7c0.5,1,1,2,1.5,3H135.8z"/>
	<path d="M192.1,144c2-0.9,4-1.9,5.8-3h-61.5c2.1,1.1,4.3,2.1,6.6,3H192.1z"/>
	<path d="M311.1,24h73.6c-1.5-1.1-3-2.1-4.6-3h-64.3C314.2,21.9,312.6,22.9,311.1,24z"/>
	<path d="M816.5,141h-54.3c1.6,1.1,3.4,2.2,5.2,3h43.9C813.1,143.1,814.9,142.1,816.5,141z"/>
	<path d="M616.2,143.4V141h-16.8v3h16.8C616.2,143.8,616.2,143.6,616.2,143.4z"/>
	<path d="M550.2,141c2.5,1.3,5.2,2.3,8.1,3h22.2c2.5-0.7,4.9-1.7,7.1-3H550.2z"/>
	<path d="M362,147h-29.2c4.9,0.9,10.1,1.4,15.6,1.4C353.2,148.4,357.8,147.9,362,147z"/>
	<path d="M473.1,147h-23.2c3.7,1,7.7,1.4,12.3,1.4C466,148.4,469.7,147.9,473.1,147z"/>
	<path d="M141.5,126c-1.2-0.9-2.3-1.9-3.3-3h-20.8c0.6,1,1.3,2,2,3H141.5z"/>
	<path d="M132.4,48c0.5-1,1.1-2,1.7-3h-19.4c-0.5,1-0.9,2-1.4,3H132.4z"/>
	<path d="M136.1,42c0.8-1.1,1.7-2.1,2.6-3H118c-0.6,1-1.2,2-1.8,3H136.1z"/>
	<path d="M128.2,60c0.2-1,0.5-2,0.8-3h-18.7c-0.3,1-0.5,2-0.8,3H128.2z"/>
	<path d="M129.9,54c0.4-1,0.7-2,1.2-3h-18.9c-0.4,1-0.7,2-1,3H129.9z"/>
	<path d="M141.9,36c1.4-1.1,3-2.1,4.7-3h-24.2c-0.8,1-1.6,2-2.4,3H141.9z"/>
	<path d="M128.2,102c-0.2-1-0.4-2-0.6-3h-18.9c0.2,1,0.4,2,0.6,3H128.2z"/>
	<path d="M304.2,30h28.7c4.8-1.5,10.1-2.2,15.9-2.2c4.9,0,9.4,0.8,13.3,2.2h29.3c-1-1.1-2-2.1-3.1-3h-81C306.3,28,305.2,29,304.2,30
		z"/>
	<path d="M127.1,66c0.1-1,0.3-2,0.5-3h-18.7c-0.2,1-0.4,2-0.5,3H127.1z"/>
	<path d="M126.1,84c0-1,0-2,0-3h-18.9c0,1,0,2,0,3H126.1z"/>
	<path d="M127.1,96c-0.1-1-0.3-2-0.4-3h-18.9c0.1,1,0.2,2,0.4,3H127.1z"/>
	<path d="M126.4,90c-0.1-1-0.1-2-0.2-3h-18.9c0.1,1,0.1,2,0.2,3H126.4z"/>
	<path d="M126.4,72c0.1-1,0.2-2,0.3-3h-18.8c-0.1,1-0.2,2-0.3,3H126.4z"/>
	<path d="M126.1,78c0-1,0.1-2,0.1-3h-18.8c-0.1,1-0.1,2-0.1,3H126.1z"/>
	<path d="M724.7,143.4V141h-16.8v3h16.8C724.7,143.8,724.7,143.6,724.7,143.4z"/>
	<path d="M1774.3,69.3V69h-16.8v3h26.3c1.4-1.2,3-2.2,4.7-3h-14.1C1774.4,69.1,1774.3,69.2,1774.3,69.3z"/>
	<path d="M1849.9,51c-3.7,0.6-7.1,1.6-10.3,3h34.9c-3.1-1.5-6.4-2.5-10-3H1849.9z"/>
	<path d="M1455.7,39c0.3,1,0.7,2,1.1,3h16l-1.2-3H1455.7z"/>
	<rect x="1887.2" y="57" width="16.8" height="3"/>
	<path d="M1777.5,63c-0.7,1-1.4,2-1.9,3h33.7l0.1-3H1777.5z"/>
	<path d="M1783.9,57c-1.4,0.9-2.6,2-3.8,3h29.3l0.1-3H1783.9z"/>
	<path d="M1453.7,33c0.3,1,0.7,2,1,3h15.7l-1.2-3H1453.7z"/>
	<rect x="956.9" y="15.3" width="16.8" height="2.7"/>
	<polygon points="1439.8,27 1438.6,30 1468.1,30 1466.9,27 	"/>
	<rect x="956.9" y="21" width="16.8" height="3"/>
	<rect x="1164.5" y="15.3" width="16.8" height="2.7"/>
	<polygon points="1444.4,15.3 1443.3,18 1463.4,18 1462.4,15.3 	"/>
	<polygon points="1442.2,21 1441,24 1465.8,24 1464.6,21 	"/>
	<path d="M1457.9,45c0.4,1,0.7,2,1.1,3h16.2l-1.2-3H1457.9z"/>
	<path d="M1822.1,129c0.6,1,1.3,2.1,2,3h21.8c-1.6-0.8-3-1.9-4.2-3H1822.1z"/>
	<path d="M1817,117c0.3,1,0.6,2,0.9,3h18.1c-0.4-1-0.7-2-1-3H1817z"/>
	<path d="M1819.1,123c0.4,1,0.9,2,1.4,3h18.6c-0.7-0.9-1.3-1.9-1.8-3H1819.1z"/>
	<path d="M1819.4,75c-0.4,1-0.8,2-1.2,3h18.4c0.5-1.1,1-2.1,1.5-3H1819.4z"/>
	<rect x="1757.5" y="141" width="16.8" height="3"/>
	<path d="M1695.7,147h-23.5c3.5,1,7.1,1.4,10.8,1.4C1687.7,148.4,1691.9,147.9,1695.7,147z"/>
	<path d="M1879.8,141h-46.6c1.6,1.1,3.3,2.1,5.1,3h37.1C1876.9,143.1,1878.4,142.1,1879.8,141z"/>
	<path d="M1815.8,87c-0.2,1-0.3,2-0.5,3h18.4c0.1-1,0.3-2,0.4-3H1815.8z"/>
	<path d="M1815,93c-0.1,1-0.2,2-0.2,3h18.5c0-1,0.1-2,0.2-3H1815z"/>
	<path d="M1817.2,81c-0.3,1-0.6,2-0.8,3h18.3c0.2-1,0.5-2.1,0.8-3H1817.2z"/>
	<path d="M1833.2,99h-18.5c0,0.1,0,0.3,0,0.4c0,0.9,0,1.7,0,2.6h18.5c0-0.9,0-1.7,0-2.6C1833.2,99.3,1833.2,99.1,1833.2,99z"/>
	<path d="M1815.6,111c0.2,1,0.4,2,0.6,3h18.1c-0.2-1-0.4-2-0.5-3H1815.6z"/>
	<path d="M1814.9,105c0.1,1,0.2,2,0.3,3h18.4c-0.1-1-0.2-2-0.2-3H1814.9z"/>
	<path d="M548.2,156c-0.2-0.9-0.4-1.9-0.5-3h-16.2c0.1,1,0.2,2,0.3,3H548.2z"/>
	<path d="M875.8,1020c0.2-1,0.5-2,0.7-3h-17.9c-0.2,1-0.4,2-0.6,3H875.8z"/>
	<path d="M876.9,1014c0.1-1,0.3-2,0.3-3h-18.1c-0.1,1-0.2,2-0.3,3H876.9z"/>
	<path d="M873.9,1026c0.4-1,0.7-2,1.1-3h-17.8c-0.3,1-0.7,2.1-1.1,3H873.9z"/>
	<path d="M858.9,996h18c-0.2-1-0.3-2-0.5-3h-17.9C858.6,994,858.8,995,858.9,996z"/>
	<path d="M896.6,996h17.6c0.2-1,0.3-2.1,0.5-3h-18.2v3H896.6z"/>
	<path d="M877.4,1002c0-1-0.1-2-0.2-3h-18c0.1,1,0.1,2,0.2,3H877.4z"/>
	<path d="M859.3,1008h18.1c0-0.9,0.1-1.9,0.1-2.8c0-0.1,0-0.1,0-0.2h-18.1c0,0.1,0,0.1,0,0.2C859.4,1006.1,859.4,1007.1,859.3,1008z
		"/>
	<rect x="896.6" y="1023" width="16.8" height="3"/>
	<path d="M1103,993v3h17c0.1-1,0.2-2.1,0.3-3H1103z"/>
	<rect x="1103" y="1005" width="16.8" height="3"/>
	<path d="M1014.6,1023h-17.8c0.3,1,0.6,2,0.9,3h17.8C1015.2,1025,1014.9,1024,1014.6,1023z"/>
	<rect x="1103" y="1017" width="16.8" height="3"/>
	<path d="M1082.1,1023h-16.5c-0.3,1.1-0.6,2.1-0.9,3h16.6C1081.6,1025,1081.8,1024,1082.1,1023z"/>
	<rect x="1103" y="1023" width="16.8" height="3"/>
	<rect x="1103" y="1011" width="16.8" height="3"/>
	<path d="M996.1,1020h17.8c-0.2-1-0.4-2-0.5-3h-17.9C995.7,1018,995.9,1019,996.1,1020z"/>
	<path d="M994.6,1008h89.2c0-1,0-2,0-3h-89.3C994.6,1006,994.6,1007,994.6,1008z"/>
	<path d="M1066.2,1019.7c0,0.1,0,0.2,0,0.3h3.3L1066.2,1019.7z"/>
	<path d="M1103,999v3h16.8v-1.7c0-0.4,0-0.9,0-1.3H1103z"/>
	<path d="M789.3,981c-0.5,1-0.9,2-1.3,3h17.8c0.5-1.1,1-2.1,1.5-3H789.3z"/>
	<path d="M913.4,1008v-0.4c0-0.9,0-1.8,0-2.6h-16.9v3H913.4z"/>
	<path d="M995.2,996h17.9c0-0.9,0.1-1.9,0.2-3h-17.7C995.5,994,995.3,995,995.2,996z"/>
	<path d="M994.9,999c-0.1,1-0.2,2-0.2,3h89.1c-0.1-1-0.1-2-0.2-3H994.9z"/>
	<path d="M1066.2,993c0.2,1.1,0.3,2.1,0.3,3h16.6c-0.1-1-0.3-2-0.5-3H1066.2z"/>
	<path d="M896.6,999v3h17c0.1-1,0.2-2,0.3-3H896.6z"/>
	<path d="M994.8,1011c0.1,1,0.2,2,0.3,3h18c-0.1-1-0.1-2-0.1-3H994.8z"/>
	<rect x="896.6" y="1017" width="16.8" height="3"/>
	<rect x="896.6" y="1011" width="16.8" height="3"/>
	<path d="M802.8,996c0.1-1,0.3-2,0.4-3h-17.9c-0.2,1-0.4,2-0.5,3H802.8z"/>
	<path d="M1166.4,993c0,1,0,2,0,3h17.4c0-1,0-2,0-3H1166.4z"/>
	<rect x="1166.4" y="1005" width="17.4" height="3"/>
	<rect x="1103" y="1029" width="16.8" height="3"/>
	<rect x="1166.4" y="1011" width="17.4" height="3"/>
	<rect x="1166.4" y="1029" width="17.4" height="3"/>
	<rect x="1166.4" y="1017" width="17.4" height="3"/>
	<path d="M1103,987v3h17.8c0.2-1.1,0.5-2.1,0.8-3H1103z"/>
	<rect x="1166.4" y="999" width="17.4" height="3"/>
	<path d="M998.1,984h17.4c0.4-1,0.9-2,1.4-3h-17.6C998.9,982,998.5,983,998.1,984z"/>
	<path d="M896.6,984h21.3c0.6-1.1,1.2-2.1,1.9-3h-23.3L896.6,984L896.6,984z"/>
	<path d="M1063.7,984h16.6c-0.4-1-0.8-2-1.2-3h-17C1062.7,981.9,1063.2,982.9,1063.7,984z"/>
	<path d="M1166.1,987c0.1,1,0.2,2,0.3,3h17.4c0-1-0.1-2-0.2-3H1166.1z"/>
	<path d="M1103,984h19.6c0.5-1.1,1-2.1,1.5-3H1103V984z"/>
	<path d="M1164.6,981c0.4,1,0.7,2,1,3h17.8c-0.1-1-0.3-2-0.4-3H1164.6z"/>
	<rect x="1166.4" y="1023" width="17.4" height="3"/>
	<path d="M857.9,990h17.8c-0.3-1-0.6-2-0.9-3H857C857.3,987.9,857.6,989,857.9,990z"/>
	<path d="M803.9,990c0.2-1,0.5-2.1,0.8-3H787c-0.3,1-0.6,2-0.9,3H803.9z"/>
	<path d="M802.4,1002c0-1,0.1-2,0.2-3h-18c-0.1,1-0.2,2-0.2,3H802.4z"/>
	<path d="M1080.3,1029h-16.9c-0.6,1.1-1.2,2.1-1.9,3h17.6C1079.6,1031,1080,1030,1080.3,1029z"/>
	<path d="M996.3,990h17.5c0.2-1,0.4-2,0.7-3h-17.4C996.8,988,996.5,989,996.3,990z"/>
	<path d="M1065.6,990h16.4c-0.2-1-0.5-2-0.8-3h-16.5C1065.1,988,1065.4,989,1065.6,990z"/>
	<path d="M896.6,990h18.9c0.3-1.1,0.7-2.1,1-3h-20L896.6,990L896.6,990z"/>
	<rect x="896.6" y="1029" width="16.8" height="3"/>
	<path d="M1016.9,1029h-18.1c0.4,1,0.9,2,1.4,3h18.6C1018.1,1031,1017.5,1030.1,1016.9,1029z"/>
	<path d="M872.6,1029h-18.1c-0.6,1.1-1.3,2.1-2,3H871C871.6,1031,872.1,1030,872.6,1029z"/>
	<path d="M803.8,1020c-0.2-1-0.4-2-0.6-3h-18c0.2,1,0.4,2,0.6,3H803.8z"/>
	<path d="M802.8,1014c-0.1-1-0.2-2-0.3-3h-18.1c0.1,1,0.2,2,0.3,3H802.8z"/>
	<path d="M805.6,1026c-0.4-1-0.8-2-1.1-3h-18c0.3,1,0.6,2,1,3H805.6z"/>
	<path d="M581.8,975h-18.2c0.2,0.2,0.3,0.4,0.5,0.6c0.5,0.8,1,1.6,1.4,2.4h17.2C582.4,977,582.1,975.9,581.8,975z"/>
	<path d="M850.7,960c-3.2-1.4-6.6-2.4-10.3-3h-19c-3.7,0.6-7.2,1.7-10.4,3H850.7z"/>
	<rect x="1264.1" y="958.4" width="16.8" height="1.6"/>
	<path d="M1378,1041c1,1.1,1.9,2.1,3,3h61.2c1-0.9,2-1.9,2.9-3H1378z"/>
	<path d="M1058.5,960c-3.2-1.4-6.6-2.4-10-3h-18.3c-3.5,0.6-6.8,1.6-9.9,3H1058.5z"/>
	<rect x="610.5" y="927" width="16.8" height="3"/>
	<path d="M524.4,987h-16.5c0,0.1,0,0.3,0,0.4l16.5,2.2C524.3,988.7,524.3,987.8,524.4,987z"/>
	<rect x="610.5" y="921" width="16.8" height="3"/>
	<rect x="1103" y="958.4" width="16.8" height="1.6"/>
	<path d="M1367.2,993c-0.2,1-0.3,2-0.5,3h17.9c0-0.9,0.1-1.9,0.2-3H1367.2z"/>
	<path d="M1374.3,975c-0.6,1-1.2,2-1.8,3h18.1c0.9-1.1,1.9-2.1,3.1-3H1374.3z"/>
	<rect x="1264.1" y="963" width="16.8" height="3"/>
	<path d="M1452.9,1026c0.3-1,0.5-2,0.8-3h-16.5c-0.3,1.1-0.6,2.1-0.9,3H1452.9z"/>
	<rect x="1330.1" y="958.4" width="16.8" height="1.6"/>
	<rect x="1330.1" y="963" width="16.8" height="3"/>
	<path d="M802.4,1005.2c0-0.1,0-0.1,0-0.2h-18.1c0,0.1,0,0.1,0,0.2c0,1,0,1.9,0.1,2.8h18.1C802.4,1007.1,802.4,1006.1,802.4,1005.2z
		"/>
	<rect x="1887.2" y="27" width="16.8" height="3"/>
	<path d="M1366.2,1008h89.2c0-1,0-2,0-3h-89.3C1366.2,1006,1366.2,1007,1366.2,1008z"/>
	<rect x="1887.2" y="21" width="16.8" height="3"/>
	<rect x="1887.2" y="45" width="16.8" height="3"/>
	<path d="M321.8,18h52.4c-2.9-1.2-5.9-2.2-9-3h-34.1C327.8,15.8,324.7,16.8,321.8,18z"/>
	<rect x="1887.2" y="39" width="16.8" height="3"/>
	<rect x="1887.2" y="33" width="16.8" height="3"/>
	<path d="M463.2,924c-2.8-1.2-5.7-2.2-8.8-3h-36.1c-3.1,0.8-6.1,1.8-8.9,3H463.2z"/>
	<path d="M1437.7,1020h3.3l-3.3-0.3C1437.8,1019.8,1437.7,1019.9,1437.7,1020z"/>
	<path d="M420.2,936c5-1.6,10.6-2.5,16.7-2.5c5.2,0,10,0.9,14.2,2.5h29.2c-1-1.1-2-2.1-3.1-3h-82c-1.1,1-2.1,2-3.2,3H420.2z"/>
	<path d="M1477.5,966h57.7c-1.2-1.1-2.4-2.1-3.7-3h-50.4C1479.8,963.9,1478.6,964.9,1477.5,966z"/>
	<rect x="1330.1" y="921" width="16.8" height="3"/>
	<path d="M1473.9,996h35.9c-0.3-0.1-0.6-0.1-1-0.2c-3.9-0.9-7.9-1.7-11.3-2.8h-25.1C1472.8,994.1,1473.3,995.1,1473.9,996z"/>
	<path d="M1430,960c-3.2-1.4-6.6-2.4-10-3h-18.3c-3.5,0.6-6.8,1.6-9.9,3H1430z"/>
	<path d="M817.2,972c3.7-1.7,8.3-2.6,13.7-2.6s9.8,0.9,13.5,2.6h22.1c-0.9-1.1-1.8-2.1-2.7-3h-66.2c-1,1-1.9,2-2.7,3H817.2z"/>
	<path d="M939.7,972c1.4-0.1,2.9-0.1,4.4-0.1s2.8,0,3.9,0.1h0.4l0.1-3h-32c-0.7,1-1.3,2-1.8,3H939.7z"/>
	<rect x="1211.9" y="975" width="16.6" height="3"/>
	<path d="M1217.2,1047c1.2,1.2,2.6,2.2,4.3,3h25.7l-0.1-3H1217.2z"/>
	<rect x="610.5" y="1023" width="16.8" height="3"/>
	<path d="M1247,1041h-33.5c0.4,1.1,0.9,2.1,1.5,3h32.2L1247,1041z"/>
	<path d="M565.7,1026h17.9v-3h-17C566.4,1024,566.1,1025,565.7,1026z"/>
	<path d="M807.1,1029h-18.3c0.4,1,0.9,2,1.4,3h18.9C808.3,1031,807.7,1030,807.1,1029z"/>
	<path d="M1212.6,1038h34.3v-1.2c-3.2,0.6-6.5,0.9-8.6,0.9c-4.7,0-7.4-0.5-8.8-2.7h-17.4C1212.2,1036,1212.4,1037,1212.6,1038z"/>
	<rect x="741.6" y="1029" width="16.6" height="3"/>
	<rect x="741.6" y="975" width="16.6" height="3"/>
	<path d="M1021.5,1035h-19.6c0.6,1,1.3,2,2.1,3h22.1C1024.4,1037.2,1022.9,1036.2,1021.5,1035z"/>
	<path d="M849.7,1035c-1.4,1.2-2.9,2.2-4.6,3H867c0.8-1,1.5-2,2.2-3H849.7z"/>
	<path d="M1060.1,978h17.7c-0.5-1.1-1.1-2.1-1.7-3H1057C1058.1,975.9,1059.1,976.9,1060.1,978z"/>
	<path d="M568.5,960c-2.9-1.4-6.2-2.4-10-3h-21.8c-4.2,0.6-8,1.7-11.4,3H568.5z"/>
	<rect x="610.5" y="951" width="16.8" height="3"/>
	<path d="M1264.1,1005v3h16.8v-0.4c0-0.9,0-1.8,0-2.6H1264.1z"/>
	<rect x="1887.2" y="51" width="16.8" height="3"/>
	<path d="M583.7,1035h-24.5c-1.5,1.2-3.2,2.2-5.2,3h13.7c0,0,0-0.1,0.1-0.1v0.1h17.4C584.2,1037.3,583.8,1036.3,583.7,1035z"/>
	<path d="M570.6,1047c0.9,1.2,1.9,2.2,3.1,3h21l-0.1-3H570.6z"/>
	<rect x="610.5" y="945" width="16.8" height="3"/>
	<path d="M1120.3,972h14.2c3.6-1.4,7.1-1.8,9.7-1.8c3.6,0,7.6,0.1,11.5,1.8h24.5c-0.5-1.1-1.1-2.1-1.8-3h-56.5
		C1121.3,969.9,1120.8,970.9,1120.3,972z"/>
	<rect x="896.6" y="963" width="16.8" height="3"/>
	<path d="M1307.2,972c1.4-0.1,2.9-0.1,4.4-0.1s2.8,0,3.9,0.1h0.4l0.1-3h-32c-0.7,1-1.3,2-1.8,3H1307.2z"/>
	<rect x="610.5" y="957" width="16.8" height="3"/>
	<rect x="610.5" y="963" width="16.8" height="3"/>
	<rect x="896.6" y="958.4" width="16.8" height="1.6"/>
</g>
</svg>
