<?xml version="1.0" encoding="utf-8"?>
<!-- Generator: Adobe Illustrator 26.2.1, SVG Export Plug-In . SVG Version: 6.00 Build 0)  -->
<svg version="1.1" id="Layer_1" xmlns="http://www.w3.org/2000/svg" xmlns:xlink="http://www.w3.org/1999/xlink" x="0px" y="0px"
	 viewBox="0 0 1920 1080" style="enable-background:new 0 0 1920 1080;" xml:space="preserve">
<style type="text/css">
	.st0{fill:#00FF00;}
</style>
<g>
	<path class="st0" d="M1354.1,366c0,1,0.1,2,0.1,3h36.7c0-1-0.1-2-0.1-3H1354.1z"/>
	<path class="st0" d="M1354.3,372c0.1,1,0.1,2,0.2,3h36.7c-0.1-1-0.1-2-0.2-3H1354.3z"/>
	<rect x="1613" y="390" class="st0" width="32.8" height="3"/>
	<rect x="1613" y="384" class="st0" width="32.8" height="3"/>
	<path class="st0" d="M1354.1,354c0,1-0.1,2-0.1,3h36.7c0-1,0-2,0-3H1354.1z"/>
	<path class="st0" d="M1355,381h36.7c-0.1-1-0.2-2-0.3-3h-36.7C1354.8,379,1354.9,380,1355,381z"/>
	<rect x="1613" y="378" class="st0" width="32.8" height="3"/>
	<path class="st0" d="M1354,360c0,1,0,2,0,3h36.7c0-1,0-2,0-3H1354z"/>
	<rect x="1613" y="324" class="st0" width="32.8" height="3"/>
	<rect x="1613" y="330" class="st0" width="32.8" height="3"/>
	<rect x="1613" y="318" class="st0" width="32.8" height="3"/>
	<rect x="1613" y="312" class="st0" width="32.8" height="3"/>
	<path class="st0" d="M1354.3,348c-0.1,1-0.1,2-0.2,3h36.7c0-1,0.1-2,0.1-3H1354.3z"/>
	<rect x="1613" y="336" class="st0" width="32.8" height="3"/>
	<path class="st0" d="M1355.5,336c-0.1,1-0.2,2-0.4,3h36.5c0.1-1,0.2-2,0.3-3H1355.5z"/>
	<path class="st0" d="M1354.8,342c-0.1,1-0.2,2-0.3,3h36.6c0.1-1,0.1-2,0.2-3H1354.8z"/>
	<rect x="1613" y="450" class="st0" width="32.8" height="3"/>
	<rect x="1613" y="456" class="st0" width="32.8" height="3"/>
	<rect x="1613" y="444" class="st0" width="32.8" height="3"/>
	<rect x="1613" y="438" class="st0" width="32.8" height="3"/>
	<rect x="1613" y="480" class="st0" width="32.8" height="3"/>
	<rect x="1613" y="462" class="st0" width="32.8" height="3"/>
	<rect x="1613" y="468" class="st0" width="32.8" height="3"/>
	<rect x="1613" y="474" class="st0" width="32.8" height="3"/>
	<rect x="1613" y="414" class="st0" width="32.8" height="3"/>
	<rect x="1613" y="432" class="st0" width="32.8" height="3"/>
	<rect x="1613" y="402" class="st0" width="32.8" height="3"/>
	<rect x="1613" y="408" class="st0" width="32.8" height="3"/>
	<rect x="1613" y="426" class="st0" width="32.8" height="3"/>
	<rect x="1613" y="420" class="st0" width="32.8" height="3"/>
	<rect x="1613" y="396" class="st0" width="32.8" height="3"/>
	<path class="st0" d="M243.4,279c0.3-1,0.7-2,1-3h-29.5l-1.2,3H243.4z"/>
	<path class="st0" d="M241.3,285c0.3-1,0.7-2,1-3h-29.8l-1.2,3H241.3z"/>
	<path class="st0" d="M245.4,273c0.3-1,0.7-2,1-3h-29.1l-1.2,3H245.4z"/>
	<path class="st0" d="M247.3,267c0.2-0.6,0.4-1.1,0.5-1.7h0.4c0.2,0.5,0.4,1.1,0.6,1.7h29.9l-1.2-3h-58l-1.2,3H247.3z"/>
	<rect x="1613" y="306" class="st0" width="32.8" height="3"/>
	<polygon class="st0" points="276.4,261 275.2,258 221.9,258 220.8,261 	"/>
	<path class="st0" d="M239.2,291c0.4-1,0.7-2,1.1-3h-30.1l-1.2,3H239.2z"/>
	<polygon class="st0" points="271.7,249 270.6,246 226.6,246 225.5,249 	"/>
	<path class="st0" d="M237.1,297c0.4-1,0.7-2,1.1-3h-30.3l-1.2,3H237.1z"/>
	<polygon class="st0" points="223.9,333 225,330 193.8,330 192.6,333 	"/>
	<polygon class="st0" points="228.3,321 229.4,318 198.4,318 197.3,321 	"/>
	<polygon class="st0" points="226.1,327 227.2,324 196.1,324 194.9,327 	"/>
	<polygon class="st0" points="230.5,315 231.6,312 200.8,312 199.6,315 	"/>
	<path class="st0" d="M234.9,303c0.4-1,0.7-2,1.1-3h-30.5l-1.2,3H234.9z"/>
	<polygon class="st0" points="232.7,309 233.8,306 203.1,306 202,309 	"/>
	<polygon class="st0" points="274.1,255 272.9,252 224.3,252 223.1,255 	"/>
	<rect x="1613" y="276" class="st0" width="32.8" height="3"/>
	<rect x="1613" y="270" class="st0" width="32.8" height="3"/>
	<polygon class="st0" points="269.4,243 268.2,240 229,240 227.8,243 	"/>
	<rect x="1613" y="282" class="st0" width="32.8" height="3"/>
	<rect x="1613" y="300" class="st0" width="32.8" height="3"/>
	<rect x="1613" y="294" class="st0" width="32.8" height="3"/>
	<rect x="1613" y="288" class="st0" width="32.8" height="3"/>
	<rect x="1613" y="264" class="st0" width="32.8" height="3"/>
	<path class="st0" d="M1428.1,237h89.6c-3.2-1.1-6.4-2.1-9.7-3h-70.1C1434.6,234.9,1431.3,235.9,1428.1,237z"/>
	<rect x="1174.7" y="234" class="st0" width="162.7" height="3"/>
	<rect x="1613" y="258" class="st0" width="32.8" height="3"/>
	<polygon class="st0" points="267.1,237 265.9,234 231.3,234 230.2,237 	"/>
	<rect x="1613" y="252" class="st0" width="32.8" height="3"/>
	<rect x="1613" y="240" class="st0" width="32.8" height="3"/>
	<rect x="1613" y="246" class="st0" width="32.8" height="3"/>
	<path class="st0" d="M1420.6,240c-2.1,0.9-4.2,1.9-6.3,3h117.1c-2-1.1-4.1-2.1-6.3-3H1420.6z"/>
	<path class="st0" d="M283.4,279l-1.2-3h-30.4c0.3,1,0.7,2,1,3H283.4z"/>
	<rect x="387.6" y="270" class="st0" width="32.4" height="3"/>
	<path class="st0" d="M250.8,273h30.3l-1.2-3h-30.1C250.2,271,250.5,272,250.8,273z"/>
	<rect x="387.6" y="264" class="st0" width="32.4" height="3"/>
	<path class="st0" d="M558.5,261c-0.8-1-1.7-2-2.5-3H387.6v3H558.5z"/>
	<path class="st0" d="M545.4,249c-1.6-1.1-3.3-2.1-5-3H387.6v3H545.4z"/>
	<polygon class="st0" points="302.2,327 301,324 269.4,324 270.5,327 	"/>
	<path class="st0" d="M292.8,303l-1.2-3h-31.2c0.4,1,0.7,2,1.1,3H292.8z"/>
	<polygon class="st0" points="297.5,315 296.3,312 264.9,312 266,315 	"/>
	<polygon class="st0" points="295.1,309 294,306 262.6,306 263.8,309 	"/>
	<polygon class="st0" points="299.8,321 298.6,318 267.1,318 268.3,321 	"/>
	<path class="st0" d="M285.8,285l-1.2-3H254c0.3,1,0.7,2,1.1,3H285.8z"/>
	<path class="st0" d="M288.1,291l-1.2-3h-30.9c0.4,1,0.7,2,1.1,3H288.1z"/>
	<path class="st0" d="M534.1,243c-2.7-1.1-5.4-2.1-8.3-3H387.6v3H534.1z"/>
	<path class="st0" d="M290.5,297l-1.2-3h-31.1c0.4,1,0.7,2,1.1,3H290.5z"/>
	<path class="st0" d="M553,255c-1.1-1-2.3-2.1-3.5-3H387.6v3H553z"/>
	<path class="st0" d="M1534.1,288c0.7,1,1.4,2,2.1,3h40.2c-0.5-1-0.9-2-1.4-3H1534.1z"/>
	<path class="st0" d="M1529.3,282c0.9,1,1.7,2,2.5,3h41.7c-0.5-1-1.1-2-1.6-3H1529.3z"/>
	<path class="st0" d="M1523.2,276c1.1,1,2.2,2,3.2,3h43.7c-0.6-1-1.3-2-1.9-3H1523.2z"/>
	<path class="st0" d="M1541.2,300c0.5,1,0.9,2,1.4,3h38.3c-0.3-1-0.7-2-1-3H1541.2z"/>
	<path class="st0" d="M1546,312c0.3,1,0.6,2,0.9,3h2l15.6-3H1546z"/>
	<path class="st0" d="M1538,294c0.6,1,1.1,2,1.7,3h39.2c-0.4-1-0.8-2-1.2-3H1538z"/>
	<path class="st0" d="M1515.5,270c1.4,1,2.8,2,4.2,3h46.5c-0.7-1-1.5-2-2.2-3H1515.5z"/>
	<path class="st0" d="M1504.3,264c2.1,0.9,4.2,1.9,6.2,3h51c-0.9-1-1.7-2-2.6-3H1504.3z"/>
	<rect x="1174.7" y="240" class="st0" width="162.7" height="3"/>
	<rect x="949.8" y="240" class="st0" width="200.5" height="3"/>
	<polygon class="st0" points="221.6,339 222.8,336 191.4,336 190.2,339 	"/>
	<path class="st0" d="M1408.9,246c-1.6,1-3.2,2-4.7,3h137.2c-1.5-1-3.1-2-4.7-3H1408.9z"/>
	<path class="st0" d="M1400,252c-1.3,1-2.6,2-3.8,3h153.2c-1.2-1-2.5-2-3.8-3H1400z"/>
	<rect x="588.7" y="234" class="st0" width="200.5" height="3"/>
	<rect x="387.6" y="414" class="st0" width="32.4" height="3"/>
	<polygon class="st0" points="349,447 347.8,444 314.1,444 315.2,447 	"/>
	<polygon class="st0" points="303.9,417 337.3,417 336.1,414 302.8,414 	"/>
	<polygon class="st0" points="351.3,453 350.1,450 316.4,450 317.5,453 	"/>
	<polygon class="st0" points="341.9,429 340.8,426 307.3,426 308.4,429 	"/>
	<polygon class="st0" points="344.3,435 343.1,432 309.6,432 310.7,435 	"/>
	<polygon class="st0" points="339.6,423 338.4,420 305,420 306.2,423 	"/>
	<polygon class="st0" points="353.6,459 352.5,456 318.6,456 319.8,459 	"/>
	<polygon class="st0" points="346.6,441 345.4,438 311.8,438 313,441 	"/>
	<rect x="1033.7" y="480" class="st0" width="32.8" height="3"/>
	<rect x="1174.7" y="480" class="st0" width="162.7" height="3"/>
	<rect x="672.6" y="480" class="st0" width="32.8" height="3"/>
	<polygon class="st0" points="356,465 354.8,462 320.9,462 322,465 	"/>
	<polygon class="st0" points="358.3,471 357.1,468 323.2,468 324.3,471 	"/>
	<polygon class="st0" points="304.5,333 303.3,330 271.6,330 272.8,333 	"/>
	<polygon class="st0" points="360.7,477 359.5,474 325.4,474 326.6,477 	"/>
	<rect x="387.6" y="480" class="st0" width="32.4" height="3"/>
	<polygon class="st0" points="316.2,363 315,360 282.9,360 284,363 	"/>
	<polygon class="st0" points="313.9,357 312.7,354 280.6,354 281.7,357 	"/>
	<polygon class="st0" points="318.5,369 317.4,366 285.1,366 286.2,369 	"/>
	<polygon class="st0" points="309.2,345 308,342 276.1,342 277.3,345 	"/>
	<polygon class="st0" points="306.8,339 305.7,336 273.9,336 275,339 	"/>
	<polygon class="st0" points="311.5,351 310.3,348 278.4,348 279.5,351 	"/>
	<polygon class="st0" points="320.9,375 319.7,372 287.4,372 288.5,375 	"/>
	<rect x="387.6" y="396" class="st0" width="32.4" height="3"/>
	<rect x="387.6" y="402" class="st0" width="32.4" height="3"/>
	<path class="st0" d="M548.3,378H387.6v3h164.1C550.6,380,549.5,379,548.3,378z"/>
	<path class="st0" d="M1526.2,480h-107.8c2.5,1.1,5.1,2.1,7.7,3h92.6C1521.2,482.1,1523.7,481.1,1526.2,480z"/>
	<rect x="387.6" y="408" class="st0" width="32.4" height="3"/>
	<rect x="387.6" y="384" class="st0" width="32.4" height="3"/>
	<rect x="387.6" y="390" class="st0" width="32.4" height="3"/>
	<rect x="1613" y="366" class="st0" width="191.9" height="3"/>
	<polygon class="st0" points="904.7,738 903.5,741 935.8,741 936.9,738 	"/>
	<path class="st0" d="M1436.4,741h31.8c-0.3-0.9-0.6-1.8-0.9-2.6l-0.1-0.4h-31.9L1436.4,741z"/>
	<rect x="792.6" y="624" class="st0" width="32.8" height="3"/>
	<rect x="792.6" y="630" class="st0" width="32.8" height="3"/>
	<rect x="792.6" y="780" class="st0" width="32.8" height="3"/>
	<path class="st0" d="M419.2,798h-30.5c0,1,0.1,2,0.1,3h30.3V798z"/>
	<path class="st0" d="M419.2,738h-32v1.1c0,0.6,0,1.2,0,1.9h32V738z"/>
	<polygon class="st0" points="921.6,780 888.2,780 887.1,783 920.5,783 	"/>
	<rect x="792.6" y="750" class="st0" width="32.8" height="3"/>
	<rect x="792.6" y="744" class="st0" width="32.8" height="3"/>
	<polygon class="st0" points="890.6,774 889.4,777 922.7,777 923.8,774 	"/>
	<rect x="792.6" y="756" class="st0" width="32.8" height="3"/>
	<rect x="792.6" y="762" class="st0" width="32.8" height="3"/>
	<rect x="792.6" y="774" class="st0" width="32.8" height="3"/>
	<rect x="792.6" y="768" class="st0" width="32.8" height="3"/>
	<polygon class="st0" points="378.8,840 380.7,843 419.2,843 419.2,840 	"/>
	<polygon class="st0" points="1638.3,816 1638.3,819 1801,819 1801,816.8 1670.7,816.8 1670.7,816 	"/>
	<polygon class="st0" points="1638.3,732 1638.3,735 1670.7,735 1670.7,733.3 1787.7,733.3 1787.7,732 	"/>
	<path class="st0" d="M1453.3,231h39.7c-6.3-0.9-12.8-1.3-19.5-1.3C1466.5,229.7,1459.7,230.1,1453.3,231z"/>
	<polygon class="st0" points="1638.3,702 1638.3,705 1787.7,705 1787.7,704.2 1670.7,704.2 1670.7,702 	"/>
	<rect x="1772.4" y="246" class="st0" width="32.4" height="3"/>
	<rect x="1772.4" y="240" class="st0" width="32.4" height="3"/>
	<rect x="1772.4" y="234" class="st0" width="32.4" height="3"/>
	<polygon class="st0" points="1472.4,840 1473.5,843 1509.5,843 1510.6,840 	"/>
	<polygon class="st0" points="1057.4,840 1058.5,843 1092.7,843 1091.5,840 	"/>
	<rect x="792.6" y="738" class="st0" width="32.8" height="3"/>
	<rect x="227.3" y="840" class="st0" width="32" height="3"/>
	<polygon class="st0" points="264.1,597 262.3,594 227.3,594 227.3,597 	"/>
	<polygon class="st0" points="996.8,597 995.6,594 961,594 959.9,597 	"/>
	<polygon class="st0" points="1419.4,597 1418.4,594 1383.1,594 1384.2,597 	"/>
	<polygon class="st0" points="1598.7,597 1599.8,594 1564.5,594 1563.5,597 	"/>
	<path class="st0" d="M942.3,642l-1.2,3H971c0.3-1,0.7-2,1-3H942.3z"/>
	<polygon class="st0" points="925.8,684 924.6,687 955.8,687 956.9,684 	"/>
	<polygon class="st0" points="928.2,678 927,681 958,681 959.1,678 	"/>
	<polygon class="st0" points="923.5,690 922.3,693 953.6,693 954.7,690 	"/>
	<polygon class="st0" points="914.1,714 912.9,717 944.7,717 945.8,714 	"/>
	<rect x="792.6" y="672" class="st0" width="32.8" height="3"/>
	<polygon class="st0" points="916.4,708 915.2,711 946.9,711 948,708 	"/>
	<polygon class="st0" points="918.8,702 917.6,705 949.1,705 950.3,702 	"/>
	<polygon class="st0" points="921.1,696 919.9,699 951.4,699 952.5,696 	"/>
	<rect x="1772.4" y="252" class="st0" width="32.4" height="3"/>
	<path class="st0" d="M944.6,636l-1.2,3h29.6c0.3-1,0.7-2,1-3H944.6z"/>
	<path class="st0" d="M947,630l-1.2,3h29.3c0.3-1,0.7-2,1-3H947z"/>
	<path class="st0" d="M939.9,648l-1.2,3h30.2c0.4-1,0.7-2,1.1-3H939.9z"/>
	<path class="st0" d="M935.2,660l-1.2,3h30.6c0.4-1,0.7-2,1.1-3H935.2z"/>
	<polygon class="st0" points="932.9,666 931.7,669 962.5,669 963.6,666 	"/>
	<path class="st0" d="M937.6,654l-1.2,3h30.4c0.4-1,0.7-2,1.1-3H937.6z"/>
	<polygon class="st0" points="930.5,672 929.3,675 960.2,675 961.3,672 	"/>
	<rect x="792.6" y="696" class="st0" width="32.8" height="3"/>
	<polygon class="st0" points="911.7,720 910.5,723 942.5,723 943.6,720 	"/>
	<rect x="792.6" y="708" class="st0" width="32.8" height="3"/>
	<rect x="792.6" y="702" class="st0" width="32.8" height="3"/>
	<rect x="792.6" y="684" class="st0" width="32.8" height="3"/>
	<rect x="792.6" y="666" class="st0" width="32.8" height="3"/>
	<rect x="792.6" y="678" class="st0" width="32.8" height="3"/>
	<rect x="792.6" y="690" class="st0" width="32.8" height="3"/>
	<rect x="792.6" y="732" class="st0" width="32.8" height="3"/>
	<polygon class="st0" points="907,732 905.8,735 938.1,735 939.2,732 	"/>
	<polygon class="st0" points="909.4,726 908.2,729 940.3,729 941.4,726 	"/>
	<rect x="792.6" y="720" class="st0" width="32.8" height="3"/>
	<rect x="792.6" y="714" class="st0" width="32.8" height="3"/>
	<rect x="792.6" y="726" class="st0" width="32.8" height="3"/>
	<rect x="1772.4" y="420" class="st0" width="32.4" height="3"/>
	<polygon class="st0" points="175.1,465 176.2,462 142.1,462 140.9,465 	"/>
	<polygon class="st0" points="172.8,471 174,468 139.7,468 138.6,471 	"/>
	<polygon class="st0" points="170.6,477 171.7,474 137.4,474 136.2,477 	"/>
	<polygon class="st0" points="186.3,435 187.4,432 153.8,432 152.7,435 	"/>
	<polygon class="st0" points="184,441 185.2,438 151.5,438 150.3,441 	"/>
	<rect x="792.6" y="636" class="st0" width="32.8" height="3"/>
	<polygon class="st0" points="179.6,453 180.7,450 146.8,450 145.6,453 	"/>
	<polygon class="st0" points="177.3,459 178.4,456 144.4,456 143.3,459 	"/>
	<rect x="1772.4" y="456" class="st0" width="32.4" height="3"/>
	<rect x="1772.4" y="462" class="st0" width="32.4" height="3"/>
	<rect x="1772.4" y="450" class="st0" width="32.4" height="3"/>
	<polygon class="st0" points="168.4,483 169.5,480 135,480 133.9,483 	"/>
	<rect x="1772.4" y="468" class="st0" width="32.4" height="3"/>
	<rect x="1772.4" y="480" class="st0" width="32.4" height="3"/>
	<rect x="1772.4" y="474" class="st0" width="32.4" height="3"/>
	<polygon class="st0" points="217.2,351 218.3,348 186.7,348 185.5,351 	"/>
	<rect x="1772.4" y="258" class="st0" width="32.4" height="3"/>
	<polygon class="st0" points="206.1,381 207.2,378 175,378 173.8,381 	"/>
	<polygon class="st0" points="210.6,369 211.7,366 179.7,366 178.5,369 	"/>
	<polygon class="st0" points="208.3,375 209.4,372 177.3,372 176.1,375 	"/>
	<rect x="1772.4" y="444" class="st0" width="32.4" height="3"/>
	<polygon class="st0" points="215,357 216.1,354 184.4,354 183.2,357 	"/>
	<polygon class="st0" points="212.8,363 213.9,360 182,360 180.8,363 	"/>
	<polygon class="st0" points="193,417 194.1,414 160.9,414 159.7,417 	"/>
	<polygon class="st0" points="188.5,429 189.6,426 156.2,426 155,429 	"/>
	<polygon class="st0" points="195.2,411 195.3,410.8 301.5,410.8 301.6,411 334.9,411 333.7,408 163.2,408 162,411 	"/>
	<polygon class="st0" points="190.8,423 191.9,420 158.5,420 157.3,423 	"/>
	<polygon class="st0" points="330.2,399 329.1,396 167.9,396 166.7,399 	"/>
	<polygon class="st0" points="327.9,393 326.7,390 170.3,390 169.1,393 	"/>
	<polygon class="st0" points="332.6,405 331.4,402 165.6,402 164.4,405 	"/>
	<polygon class="st0" points="325.6,387 324.4,384 172.6,384 171.4,387 	"/>
	<rect x="1772.4" y="318" class="st0" width="32.4" height="3"/>
	<rect x="1772.4" y="324" class="st0" width="32.4" height="3"/>
	<rect x="1772.4" y="306" class="st0" width="32.4" height="3"/>
	<rect x="1772.4" y="312" class="st0" width="32.4" height="3"/>
	<polygon class="st0" points="1772.4,342 1772.4,344.2 1645.7,344.2 1645.7,342 1613,342 1613,345 1804.8,345 1804.8,342 	"/>
	<rect x="1772.4" y="330" class="st0" width="32.4" height="3"/>
	<rect x="1772.4" y="336" class="st0" width="32.4" height="3"/>
	<rect x="1772.4" y="282" class="st0" width="32.4" height="3"/>
	<rect x="1772.4" y="270" class="st0" width="32.4" height="3"/>
	<rect x="1772.4" y="264" class="st0" width="32.4" height="3"/>
	<rect x="1772.4" y="276" class="st0" width="32.4" height="3"/>
	<rect x="1772.4" y="300" class="st0" width="32.4" height="3"/>
	<rect x="1772.4" y="294" class="st0" width="32.4" height="3"/>
	<rect x="1613" y="348" class="st0" width="191.9" height="3"/>
	<rect x="1772.4" y="288" class="st0" width="32.4" height="3"/>
	<rect x="1772.4" y="390" class="st0" width="32.4" height="3"/>
	<rect x="1772.4" y="408" class="st0" width="32.4" height="3"/>
	<rect x="1772.4" y="396" class="st0" width="32.4" height="3"/>
	<rect x="1772.4" y="402" class="st0" width="32.4" height="3"/>
	<rect x="1772.4" y="414" class="st0" width="32.4" height="3"/>
	<rect x="1613" y="354" class="st0" width="191.9" height="3"/>
	<polygon class="st0" points="219.4,345 220.5,342 189.1,342 187.9,345 	"/>
	<rect x="1772.4" y="426" class="st0" width="32.4" height="3"/>
	<rect x="1772.4" y="432" class="st0" width="32.4" height="3"/>
	<path class="st0" d="M1358.8,318c-0.2,1-0.5,2-0.7,3h36.3c0.2-1,0.4-2,0.7-3H1358.8z"/>
	<polygon class="st0" points="1613,372 1613,375 1645.7,375 1645.7,373.3 1772.4,373.3 1772.4,375 1804.8,375 1804.8,372 	"/>
	<rect x="1613" y="360" class="st0" width="191.9" height="3"/>
	<rect x="1772.4" y="438" class="st0" width="32.4" height="3"/>
	<rect x="1772.4" y="378" class="st0" width="32.4" height="3"/>
	<rect x="1772.4" y="384" class="st0" width="32.4" height="3"/>
	<polygon class="st0" points="181.8,447 182.9,444 149.1,444 148,447 	"/>
	<rect x="788.9" y="372" class="st0" width="161.3" height="3"/>
	<rect x="672.6" y="354" class="st0" width="32.8" height="3"/>
	<rect x="857.6" y="384" class="st0" width="24.1" height="3"/>
	<rect x="788.9" y="366" class="st0" width="161.3" height="3"/>
	<rect x="857.6" y="390" class="st0" width="24.1" height="3"/>
	<rect x="672.6" y="360" class="st0" width="32.8" height="3"/>
	<rect x="672.6" y="366" class="st0" width="32.8" height="3"/>
	<rect x="788.9" y="378" class="st0" width="161.3" height="3"/>
	<rect x="857.6" y="450" class="st0" width="24.1" height="1.1"/>
	<rect x="857.6" y="444" class="st0" width="24.1" height="3"/>
	<rect x="857.6" y="426" class="st0" width="24.1" height="3"/>
	<rect x="857.6" y="420" class="st0" width="24.1" height="3"/>
	<rect x="857.6" y="402" class="st0" width="24.1" height="3"/>
	<rect x="857.6" y="414" class="st0" width="24.1" height="3"/>
	<rect x="857.6" y="408" class="st0" width="24.1" height="3"/>
	<rect x="672.6" y="270" class="st0" width="32.8" height="3"/>
	<path class="st0" d="M570.9,291c-0.2-1-0.3-2-0.5-3h-33.6c0.4,1,0.7,2,1,3H570.9z"/>
	<path class="st0" d="M571.7,297c-0.1-1-0.2-2-0.3-3h-32.8c0.2,1,0.4,2,0.6,3H571.7z"/>
	<path class="st0" d="M572.2,309c0-0.3,0-0.6,0-0.8c0-0.7,0-1.4,0-2.2h-32.1c0,1,0.1,2,0.1,3H572.2z"/>
	<path class="st0" d="M572.1,303c0-1-0.1-2-0.2-3h-32.3c0.1,1,0.2,2,0.3,3H572.1z"/>
	<rect x="857.6" y="438" class="st0" width="24.1" height="3"/>
	<rect x="672.6" y="282" class="st0" width="32.8" height="3"/>
	<path class="st0" d="M535.5,285h34.2c-0.2-1-0.5-2-0.8-3h-35C534.5,283,535,284,535.5,285z"/>
	<path class="st0" d="M565.9,339c0.4-1,0.9-2,1.3-3h-34.5c-0.8,1.1-1.6,2.1-2.5,3H565.9z"/>
	<path class="st0" d="M562.8,345c0.6-1,1.1-2,1.7-3h-37.6c-1.4,1.1-2.8,2.1-4.3,3H562.8z"/>
	<rect x="672.6" y="348" class="st0" width="32.8" height="3"/>
	<path class="st0" d="M558.8,351c0.7-1,1.5-2,2.1-3h-44.4c-3,1.2-6.2,2.2-9.5,3H558.8z"/>
	<path class="st0" d="M571.2,321c0.2-1,0.3-2,0.4-3h-32c-0.1,1-0.3,2-0.5,3H571.2z"/>
	<path class="st0" d="M572,315c0.1-1,0.1-2,0.2-3h-32c0,1-0.1,2-0.2,3H572z"/>
	<path class="st0" d="M570,327c0.2-1,0.5-2,0.7-3h-32.3c-0.3,1-0.6,2-1,3H570z"/>
	<path class="st0" d="M568.3,333c0.3-1,0.7-2,1-3h-33c-0.5,1-1,2-1.6,3H568.3z"/>
	<rect x="672.6" y="276" class="st0" width="32.8" height="3"/>
	<rect x="1033.7" y="420" class="st0" width="32.8" height="3"/>
	<path class="st0" d="M1357.4,324c-0.2,1-0.4,2-0.6,3h36.3c0.2-1,0.4-2,0.6-3H1357.4z"/>
	<rect x="1033.7" y="414" class="st0" width="32.8" height="3"/>
	<rect x="1174.7" y="432" class="st0" width="32.4" height="3"/>
	<rect x="1174.7" y="438" class="st0" width="32.4" height="3"/>
	<rect x="1033.7" y="408" class="st0" width="32.8" height="3"/>
	<rect x="1174.7" y="426" class="st0" width="32.4" height="3"/>
	<rect x="857.6" y="396" class="st0" width="24.1" height="3"/>
	<rect x="672.6" y="396" class="st0" width="32.8" height="3"/>
	<rect x="672.6" y="402" class="st0" width="32.8" height="3"/>
	<rect x="672.6" y="408" class="st0" width="32.8" height="3"/>
	<rect x="1174.7" y="444" class="st0" width="32.4" height="3"/>
	<rect x="1033.7" y="396" class="st0" width="32.8" height="3"/>
	<rect x="1033.7" y="402" class="st0" width="32.8" height="3"/>
	<rect x="672.6" y="390" class="st0" width="32.8" height="3"/>
	<rect x="1174.7" y="420" class="st0" width="32.4" height="3"/>
	<rect x="672.6" y="432" class="st0" width="32.8" height="3"/>
	<rect x="672.6" y="438" class="st0" width="32.8" height="3"/>
	<rect x="672.6" y="414" class="st0" width="32.8" height="3"/>
	<rect x="672.6" y="444" class="st0" width="32.8" height="3"/>
	<rect x="1033.7" y="438" class="st0" width="32.8" height="3"/>
	<rect x="1033.7" y="432" class="st0" width="32.8" height="3"/>
	<rect x="1033.7" y="426" class="st0" width="32.8" height="3"/>
	<rect x="672.6" y="456" class="st0" width="32.8" height="3"/>
	<rect x="1033.7" y="462" class="st0" width="32.8" height="3"/>
	<rect x="1033.7" y="456" class="st0" width="32.8" height="3"/>
	<rect x="1033.7" y="450" class="st0" width="32.8" height="3"/>
	<rect x="672.6" y="450" class="st0" width="32.8" height="3"/>
	<rect x="1174.7" y="450" class="st0" width="32.4" height="3"/>
	<rect x="672.6" y="462" class="st0" width="32.8" height="3"/>
	<rect x="857.6" y="432" class="st0" width="24.1" height="3"/>
	<rect x="949.8" y="252" class="st0" width="200.5" height="3"/>
	<rect x="949.8" y="258" class="st0" width="200.5" height="3"/>
	<rect x="788.9" y="360" class="st0" width="161.3" height="3"/>
	<path class="st0" d="M1377.1,276c-0.7,1-1.3,2-2,3h40c1-1,2.1-2,3.2-3H1377.1z"/>
	<path class="st0" d="M566.1,426h-32.4c0,0.2,0,0.4,0,0.6c0,0.8,0,1.6,0,2.4h32.4C566.2,428,566.1,427,566.1,426z"/>
	<rect x="857.6" y="354" class="st0" width="24.1" height="3"/>
	<path class="st0" d="M1370,435h39.1c-0.1-0.2-0.2-0.3-0.4-0.5c-0.6-0.8-1.1-1.7-1.7-2.5h-38.6C1369,433,1369.5,434,1370,435z"/>
	<rect x="857.6" y="300" class="st0" width="24.1" height="3"/>
	<rect x="1033.7" y="288" class="st0" width="32.8" height="3"/>
	<rect x="857.6" y="306" class="st0" width="24.1" height="3"/>
	<rect x="857.6" y="312" class="st0" width="24.1" height="3"/>
	<rect x="857.6" y="342" class="st0" width="24.1" height="3"/>
	<rect x="1033.7" y="276" class="st0" width="32.8" height="3"/>
	<rect x="857.6" y="348" class="st0" width="24.1" height="3"/>
	<rect x="1033.7" y="282" class="st0" width="32.8" height="3"/>
	<rect x="588.7" y="240" class="st0" width="200.5" height="3"/>
	<polygon class="st0" points="322,378 289.6,378 290.7,381 323.2,381 	"/>
	<path class="st0" d="M513.6,237c-13.2-2.5-27.1-3-40.2-3h-85.8v3H513.6z"/>
	<polygon class="st0" points="327.7,480 328.8,483 363,483 361.8,480 	"/>
	<rect x="588.7" y="246" class="st0" width="200.5" height="3"/>
	<path class="st0" d="M1436.2,486c5.1,1.3,10.4,2.3,16,3h41.4c5.3-0.7,10.4-1.7,15.3-3H1436.2z"/>
	<path class="st0" d="M541,480c0.5,1,1.1,2,1.6,3h36.4c-0.7-1-1.4-2-2.1-3H541z"/>
	<rect x="949.8" y="234" class="st0" width="200.5" height="3"/>
	<rect x="1613" y="234" class="st0" width="32.8" height="3"/>
	<path class="st0" d="M1506.9,456c-2.6,1.1-5.3,2.1-8.1,3h58.6c1-1,2-2,3-3H1506.9z"/>
	<path class="st0" d="M1389.6,261h58.9c7.9-1.9,16.5-2.9,25.7-2.9c7.8,0,14.9,1,21.5,2.9h60.2c-1-1-2.1-2-3.1-3h-160.1
		C1391.7,259,1390.7,260,1389.6,261z"/>
	<polygon class="st0" points="1174.7,372 1174.7,375 1207.1,375 1207.1,373.3 1324.1,373.3 1324.1,372 	"/>
	<path class="st0" d="M558.6,390h-39.3c1.4,0.9,2.7,1.9,3.8,3h37C559.7,392,559.2,391,558.6,390z"/>
	<polygon class="st0" points="1174.7,342 1174.7,345 1324.1,345 1324.1,344.2 1207.1,344.2 1207.1,342 	"/>
	<path class="st0" d="M1545,309h35.1l2.5-0.5c-0.2-0.9-0.5-1.7-0.7-2.5h-38C1544.2,307,1544.6,308,1545,309z"/>
	<rect x="1033.7" y="270" class="st0" width="32.8" height="3"/>
	<rect x="1033.7" y="306" class="st0" width="32.8" height="3"/>
	<rect x="1033.7" y="312" class="st0" width="32.8" height="3"/>
	<rect x="1174.7" y="306" class="st0" width="32.4" height="3"/>
	<rect x="857.6" y="324" class="st0" width="24.1" height="3"/>
	<rect x="857.6" y="289.8" class="st0" width="24.1" height="1.2"/>
	<rect x="1174.7" y="300" class="st0" width="32.4" height="3"/>
	<rect x="857.6" y="330" class="st0" width="24.1" height="3"/>
	<rect x="857.6" y="318" class="st0" width="24.1" height="3"/>
	<rect x="1174.7" y="270" class="st0" width="32.4" height="3"/>
	<rect x="1174.7" y="264" class="st0" width="32.4" height="3"/>
	<rect x="1033.7" y="264" class="st0" width="32.8" height="3"/>
	<rect x="1174.7" y="294" class="st0" width="32.4" height="3"/>
	<rect x="1174.7" y="288" class="st0" width="32.4" height="3"/>
	<rect x="1174.7" y="282" class="st0" width="32.4" height="3"/>
	<rect x="1174.7" y="276" class="st0" width="32.4" height="3"/>
	<rect x="1033.7" y="318" class="st0" width="32.8" height="3"/>
	<rect x="672.6" y="294" class="st0" width="32.8" height="3"/>
	<rect x="672.6" y="306" class="st0" width="32.8" height="3"/>
	<rect x="672.6" y="288" class="st0" width="32.8" height="3"/>
	<rect x="672.6" y="300" class="st0" width="32.8" height="3"/>
	<rect x="857.6" y="294" class="st0" width="24.1" height="3"/>
	<rect x="1033.7" y="294" class="st0" width="32.8" height="3"/>
	<rect x="1033.7" y="300" class="st0" width="32.8" height="3"/>
	<rect x="672.6" y="312" class="st0" width="32.8" height="3"/>
	<rect x="672.6" y="336" class="st0" width="32.8" height="3"/>
	<rect x="672.6" y="342" class="st0" width="32.8" height="3"/>
	<rect x="672.6" y="330" class="st0" width="32.8" height="3"/>
	<rect x="672.6" y="324" class="st0" width="32.8" height="3"/>
	<rect x="672.6" y="318" class="st0" width="32.8" height="3"/>
	<rect x="857.6" y="336" class="st0" width="24.1" height="3"/>
	<rect x="1033.7" y="444" class="st0" width="32.8" height="3"/>
	<path class="st0" d="M565.9,417c-0.1-1-0.1-2-0.2-3h-32.8c0.1,1,0.3,2,0.4,3H565.9z"/>
	<path class="st0" d="M566.1,423C566.1,423,566.1,423,566.1,423c0-1,0-2,0-3h-32.6c0.1,1,0.1,2,0.1,3H566.1z"/>
	<rect x="387.6" y="468" class="st0" width="32.4" height="3"/>
	<path class="st0" d="M565.4,411c-0.1-1-0.3-2-0.5-3h-33.2c0.3,1,0.5,2,0.7,3H565.4z"/>
	<path class="st0" d="M513.8,387h42.9c-0.7-1-1.5-2-2.3-3h-50.3C507.7,384.8,510.9,385.8,513.8,387z"/>
	<path class="st0" d="M564.3,405c-0.2-1-0.5-2-0.8-3h-34c0.4,1,0.8,2,1.2,3H564.3z"/>
	<path class="st0" d="M562.7,399c-0.3-1-0.7-2-1.1-3H526c0.7,0.9,1.4,1.9,2,3H562.7z"/>
	<rect x="387.6" y="420" class="st0" width="32.4" height="3"/>
	<rect x="387.6" y="456" class="st0" width="32.4" height="3"/>
	<rect x="387.6" y="462" class="st0" width="32.4" height="3"/>
	<rect x="387.6" y="450" class="st0" width="32.4" height="3"/>
	<rect x="387.6" y="444" class="st0" width="32.4" height="3"/>
	<rect x="387.6" y="426" class="st0" width="32.4" height="3"/>
	<rect x="387.6" y="432" class="st0" width="32.4" height="3"/>
	<rect x="387.6" y="294" class="st0" width="32.4" height="3"/>
	<rect x="672.6" y="384" class="st0" width="32.8" height="3"/>
	<rect x="387.6" y="342" class="st0" width="32.4" height="3"/>
	<rect x="387.6" y="330" class="st0" width="32.4" height="3"/>
	<rect x="387.6" y="336" class="st0" width="32.4" height="3"/>
	<rect x="387.6" y="324" class="st0" width="32.4" height="3"/>
	<rect x="387.6" y="300" class="st0" width="32.4" height="3"/>
	<rect x="387.6" y="312" class="st0" width="32.4" height="3"/>
	<rect x="672.6" y="378" class="st0" width="32.8" height="3"/>
	<rect x="387.6" y="306" class="st0" width="32.4" height="3"/>
	<path class="st0" d="M544,375c-1.7-1.1-3.5-2.1-5.4-3H387.6v3H544z"/>
	<path class="st0" d="M535.3,369c2.2-0.8,4.3-1.9,6.4-3H387.6v3H535.3z"/>
	<rect x="672.6" y="372" class="st0" width="32.8" height="3"/>
	<rect x="387.6" y="348" class="st0" width="32.4" height="3"/>
	<path class="st0" d="M553.6,357c1-1,1.9-2,2.8-3H387.6v3H553.6z"/>
	<path class="st0" d="M546.4,363c1.3-0.9,2.6-1.9,3.9-3H387.6v3H546.4z"/>
	<rect x="387.6" y="438" class="st0" width="32.4" height="3"/>
	<path class="st0" d="M1546.9,411h8.5l-7.8-2C1547.4,409.6,1547.2,410.3,1546.9,411z"/>
	<path class="st0" d="M1355.3,384c0.1,1,0.2,2,0.4,3h36.6c-0.1-1-0.2-2-0.4-3H1355.3z"/>
	<rect x="1174.7" y="384" class="st0" width="32.4" height="3"/>
	<rect x="1174.7" y="378" class="st0" width="32.4" height="3"/>
	<path class="st0" d="M1360.5,411h36.9c-0.3-1-0.6-2-0.9-3h-36.8C1359.9,409,1360.2,410,1360.5,411z"/>
	<path class="st0" d="M1358.2,402c0.2,1,0.5,2,0.7,3h36.7c-0.3-1-0.5-2-0.7-3H1358.2z"/>
	<path class="st0" d="M1357,396c0.2,1,0.4,2,0.6,3h36.7c-0.2-1-0.4-2-0.6-3H1357z"/>
	<path class="st0" d="M1356,390c0.1,1,0.3,2,0.5,3h36.6c-0.2-1-0.3-2-0.4-3H1356z"/>
	<rect x="1174.7" y="336" class="st0" width="32.4" height="3"/>
	<rect x="1174.7" y="330" class="st0" width="32.4" height="3"/>
	<path class="st0" d="M1392.7,330h-36.4c-0.2,1-0.3,2-0.5,3h36.4C1392.4,332,1392.6,331,1392.7,330z"/>
	<rect x="1174.7" y="348" class="st0" width="149.4" height="3"/>
	<rect x="1174.7" y="360" class="st0" width="149.4" height="3"/>
	<rect x="1174.7" y="354" class="st0" width="149.4" height="3"/>
	<rect x="1174.7" y="366" class="st0" width="149.4" height="3"/>
	<path class="st0" d="M573.7,474h-35.2c0.4,1,0.8,2,1.2,3h35.6C574.7,476,574.2,475,573.7,474z"/>
	<path class="st0" d="M1545.8,414c-0.4,1-0.8,2-1.3,3h33.8l-11.4-3H1545.8z"/>
	<path class="st0" d="M1537.8,474h-131.3c1.8,1,3.6,2.1,5.4,3h120.4C1534.2,476,1536.1,475.1,1537.8,474z"/>
	<path class="st0" d="M1397.6,468c1.4,1,2.8,2,4.2,3h140.7c1.4-1,2.9-2,4.2-3H1397.6z"/>
	<rect x="1174.7" y="474" class="st0" width="162.7" height="3"/>
	<rect x="1033.7" y="474" class="st0" width="32.8" height="3"/>
	<rect x="387.6" y="474" class="st0" width="32.4" height="3"/>
	<rect x="672.6" y="474" class="st0" width="32.8" height="3"/>
	<path class="st0" d="M1484.3,462c-3.4,0.4-7,0.6-10.8,0.6c-4.1,0-8.1-0.2-12-0.6h-71c1.1,1,2.2,2,3.4,3h156.7c1.2-1,2.4-2,3.5-3
		H1484.3z"/>
	<path class="st0" d="M1539.8,426c-0.6,1-1.2,2-1.8,3h41.7c0.5-1,1.1-2,1.6-3H1539.8z"/>
	<path class="st0" d="M1543.1,420c-0.5,1-1,2-1.5,3h41.2c0.5-1,0.9-2,1.4-3H1543.1z"/>
	<path class="st0" d="M1536,432c-0.7,1-1.5,2-2.3,3h42.6c0.6-1,1.2-2,1.7-3H1536z"/>
	<path class="st0" d="M1525.3,444c-1.1,1-2.3,2-3.5,3h46.3c0.8-1,1.5-2,2.2-3H1525.3z"/>
	<path class="st0" d="M1517.7,450c-1.6,1.1-3.2,2.1-4.8,3h50.3c0.9-1,1.7-2,2.6-3H1517.7z"/>
	<path class="st0" d="M1531.2,438c-0.9,1-1.8,2-2.8,3h44c0.7-1,1.3-2,2-3H1531.2z"/>
	<rect x="1174.7" y="246" class="st0" width="162.7" height="3"/>
	<path class="st0" d="M1363.4,420c0.4,1,0.7,2,1.1,3h37.6c-0.5-1-0.9-2-1.4-3H1363.4z"/>
	<path class="st0" d="M1361.4,414c0.3,1,0.6,2,1,3h37.2c-0.4-1-0.7-2-1.1-3H1361.4z"/>
	<rect x="1174.7" y="414" class="st0" width="32.4" height="3"/>
	<rect x="1174.7" y="408" class="st0" width="32.4" height="3"/>
	<path class="st0" d="M1375.3,444c0.7,1,1.4,2,2.1,3h43.3c-1.2-1-2.4-2-3.6-3H1375.3z"/>
	<path class="st0" d="M1365.7,426c0.4,1,0.9,2,1.3,3h38.2c-0.6-1-1.1-2-1.6-3H1365.7z"/>
	<path class="st0" d="M1371.6,438c0.6,1,1.2,2,1.8,3h40.6c-0.9-1-1.8-2-2.7-3H1371.6z"/>
	<rect x="1174.7" y="396" class="st0" width="32.4" height="3"/>
	<rect x="1033.7" y="378" class="st0" width="32.8" height="3"/>
	<rect x="1033.7" y="384" class="st0" width="32.8" height="3"/>
	<rect x="1033.7" y="372" class="st0" width="32.8" height="3"/>
	<rect x="1174.7" y="390" class="st0" width="32.4" height="3"/>
	<path class="st0" d="M1379.6,450c0.8,1,1.6,2,2.4,3h48.1c-1.8-0.9-3.5-1.9-5.1-3H1379.6z"/>
	<rect x="1174.7" y="402" class="st0" width="32.4" height="3"/>
	<rect x="1033.7" y="390" class="st0" width="32.8" height="3"/>
	<rect x="672.6" y="426" class="st0" width="32.8" height="3"/>
	<path class="st0" d="M567.7,453c-0.1-1-0.3-2-0.4-3h-33c0.1,1,0.1,2,0.2,3H567.7z"/>
	<path class="st0" d="M567,447c-0.1-1-0.2-2-0.2-3H534c0,1,0.1,2,0.1,3H567z"/>
	<path class="st0" d="M570.2,465c-0.3-1-0.6-2-0.8-3h-33.8c0.2,1,0.3,2,0.5,3H570.2z"/>
	<path class="st0" d="M568.7,459c-0.2-1-0.4-2-0.6-3h-33.3c0.1,1,0.2,2,0.3,3H568.7z"/>
	<path class="st0" d="M566.5,441c-0.1-1-0.1-2-0.1-3h-32.6c0,1,0,2,0.1,3H566.5z"/>
	<rect x="1033.7" y="366" class="st0" width="32.8" height="3"/>
	<path class="st0" d="M566.3,435c0-1-0.1-2-0.1-3h-32.5c0,1,0,2,0,3H566.3z"/>
	<rect x="1174.7" y="462" class="st0" width="162.7" height="3"/>
	<path class="st0" d="M572.3,471c-0.4-1-0.8-2-1.1-3h-34.5c0.2,1,0.5,2,0.8,3H572.3z"/>
	<polygon class="st0" points="1207.1,456.8 1207.1,456 1174.7,456 1174.7,459 1337.4,459 1337.4,456.8 	"/>
	<rect x="1174.7" y="468" class="st0" width="162.7" height="3"/>
	<path class="st0" d="M1436.5,456h-51.9c0.9,1,1.9,2,2.8,3h57.9C1442.3,458.1,1439.3,457.1,1436.5,456z"/>
	<rect x="672.6" y="468" class="st0" width="32.8" height="3"/>
	<rect x="1033.7" y="468" class="st0" width="32.8" height="3"/>
	<rect x="1174.7" y="324" class="st0" width="32.4" height="3"/>
	<rect x="588.7" y="252" class="st0" width="200.5" height="3"/>
	<rect x="1174.7" y="252" class="st0" width="162.7" height="3"/>
	<rect x="949.8" y="246" class="st0" width="200.5" height="3"/>
	<rect x="1033.7" y="360" class="st0" width="32.8" height="3"/>
	<path class="st0" d="M1381.6,270c-0.8,1-1.6,2-2.3,3h42.8c1.4-1.1,2.9-2.1,4.4-3H1381.6z"/>
	<rect x="1174.7" y="258" class="st0" width="162.7" height="3"/>
	<path class="st0" d="M1386.7,264c-0.9,1-1.8,2-2.7,3h47.8c2.2-1.1,4.5-2.1,6.9-3H1386.7z"/>
	<rect x="387.6" y="276" class="st0" width="32.4" height="3"/>
	<path class="st0" d="M568,279c-0.3-1-0.7-2-1.1-3h-37.5c0.9,0.9,1.7,1.9,2.5,3H568z"/>
	<path class="st0" d="M1373.3,282c-0.6,1-1.2,2-1.7,3h38.3c0.8-1,1.6-2,2.5-3H1373.3z"/>
	<rect x="387.6" y="282" class="st0" width="32.4" height="3"/>
	<path class="st0" d="M515.6,267h47c-0.6-1-1.2-2-1.9-3h-55.9C508.6,264.7,512.2,265.7,515.6,267z"/>
	<path class="st0" d="M565.7,273c-0.5-1-0.9-2-1.4-3h-42.4c1.5,0.9,3,1.9,4.3,3H565.7z"/>
	<rect x="672.6" y="264" class="st0" width="32.8" height="3"/>
	<rect x="588.7" y="258" class="st0" width="200.5" height="3"/>
	<rect x="672.6" y="420" class="st0" width="32.8" height="3"/>
	<rect x="1033.7" y="330" class="st0" width="32.8" height="3"/>
	<rect x="1033.7" y="336" class="st0" width="32.8" height="3"/>
	<rect x="387.6" y="288" class="st0" width="32.4" height="3"/>
	<rect x="1033.7" y="324" class="st0" width="32.8" height="3"/>
	<rect x="1033.7" y="342" class="st0" width="32.8" height="3"/>
	<rect x="1033.7" y="354" class="st0" width="32.8" height="3"/>
	<rect x="1033.7" y="348" class="st0" width="32.8" height="3"/>
	<rect x="1174.7" y="318" class="st0" width="32.4" height="3"/>
	<path class="st0" d="M1362.3,306c-0.3,1-0.7,2-1,3h36.3c0.3-1,0.7-2,1.1-3H1362.3z"/>
	<path class="st0" d="M1364.4,300c-0.4,1-0.8,2-1.1,3h36.5c0.4-1,0.8-2,1.3-3H1364.4z"/>
	<path class="st0" d="M1367,294c-0.4,1-0.9,2-1.3,3h36.8c0.5-1,1-2,1.6-3H1367z"/>
	<rect x="1174.7" y="312" class="st0" width="32.4" height="3"/>
	<path class="st0" d="M1369.9,288c-0.5,1-1,2-1.5,3h37.4c0.6-1,1.3-2,1.9-3H1369.9z"/>
	<path class="st0" d="M1396.6,312h-36.3c-0.3,1-0.6,2-0.8,3h36.3C1396.1,314,1396.3,313,1396.6,312z"/>
	<rect x="387.6" y="318" class="st0" width="32.4" height="3"/>
	<path class="st0" d="M258.3,657c0-1-0.1-2-0.1-3h-30.9v3H258.3z"/>
	<path class="st0" d="M258.1,651c0-1-0.1-2-0.1-3h-30.7v3H258.1z"/>
	<path class="st0" d="M257.7,639c0-0.7-0.1-1.4-0.1-2.2h0.4c0.4,0.7,0.7,1.4,1.1,2.2h31.2l-1.9-3h-61v3H257.7z"/>
	<path class="st0" d="M257.9,645c0-1-0.1-2-0.1-3h-30.5v3H257.9z"/>
	<polygon class="st0" points="279,621 277.2,618 227.3,618 227.3,621 	"/>
	<polygon class="st0" points="282.8,627 280.9,624 227.3,624 227.3,627 	"/>
	<polygon class="st0" points="286.5,633 284.6,630 227.3,630 227.3,633 	"/>
	<path class="st0" d="M259.3,693c0-0.9,0-1.9-0.1-3h-31.9v3H259.3z"/>
	<polygon class="st0" points="275.3,615 273.5,612 227.3,612 227.3,615 	"/>
	<path class="st0" d="M259.4,699c0-0.9,0-1.9,0-3h-32v3H259.4z"/>
	<path class="st0" d="M259.2,687c0-1,0-2-0.1-3h-31.8v3H259.2z"/>
	<path class="st0" d="M258.7,669c0-1-0.1-2-0.1-3h-31.3v3H258.7z"/>
	<path class="st0" d="M258.5,663c0-1-0.1-2-0.1-3h-31.1v3H258.5z"/>
	<path class="st0" d="M258.9,675c0-1-0.1-2-0.1-3h-31.5v3H258.9z"/>
	<path class="st0" d="M259,681c0-1,0-2-0.1-3h-31.6v3H259z"/>
	<rect x="227.3" y="702" class="st0" width="32" height="3"/>
	<polygon class="st0" points="1387.5,606 1388.5,609 1423.5,609 1422.5,606 	"/>
	<polygon class="st0" points="271.6,609 269.7,606 227.3,606 227.3,609 	"/>
	<polygon class="st0" points="1385.3,600 1386.4,603 1421.4,603 1420.4,600 	"/>
	<rect x="1312.5" y="600" class="st0" width="32.8" height="3"/>
	<polygon class="st0" points="1396.2,630 1397.3,633 1431.6,633 1430.6,630 	"/>
	<polygon class="st0" points="1394,624 1395.1,627 1429.6,627 1428.6,624 	"/>
	<polygon class="st0" points="1391.8,618 1392.9,621 1427.5,621 1426.5,618 	"/>
	<polygon class="st0" points="1389.6,612 1390.7,615 1425.5,615 1424.5,612 	"/>
	<rect x="1073.2" y="600" class="st0" width="200.5" height="3"/>
	<rect x="387.2" y="600" class="st0" width="32" height="3"/>
	<polygon class="st0" points="227.3,603 267.9,603 266,600 227.3,600 	"/>
	<rect x="482.4" y="600" class="st0" width="32.8" height="3"/>
	<polygon class="st0" points="957.5,603 999.1,603 997.9,600 958.7,600 	"/>
	<rect x="553.3" y="600" class="st0" width="200.5" height="3"/>
	<rect x="792.6" y="600" class="st0" width="32.8" height="3"/>
	<rect x="227.3" y="822" class="st0" width="32" height="3"/>
	<rect x="227.3" y="828" class="st0" width="32" height="3"/>
	<polygon class="st0" points="1398.3,636 1399.4,639 1433.6,639 1432.6,636 	"/>
	<rect x="227.3" y="798" class="st0" width="32" height="3"/>
	<rect x="482.4" y="840" class="st0" width="32.8" height="3"/>
	<rect x="227.3" y="804" class="st0" width="32" height="3"/>
	<rect x="227.3" y="816" class="st0" width="32" height="3"/>
	<rect x="227.3" y="810" class="st0" width="32" height="3"/>
	<rect x="227.3" y="834" class="st0" width="32" height="3"/>
	<polygon class="st0" points="1470.2,834 1471.3,837 1511.6,837 1512.7,834 	"/>
	<rect x="1312.5" y="840" class="st0" width="32.8" height="3"/>
	<polygon class="st0" points="1468,828 1469.1,831 1513.8,831 1514.9,828 	"/>
	<polygon class="st0" points="864.7,840 863.6,843 898.1,843 899.2,840 	"/>
	<rect x="792.6" y="840" class="st0" width="32.8" height="3"/>
	<rect x="1157.1" y="840" class="st0" width="32.8" height="3"/>
	<rect x="637.2" y="840" class="st0" width="32.8" height="3"/>
	<rect x="227.3" y="786" class="st0" width="32" height="3"/>
	<rect x="227.3" y="738" class="st0" width="32" height="3"/>
	<rect x="227.3" y="750" class="st0" width="32" height="3"/>
	<rect x="227.3" y="732" class="st0" width="32" height="3"/>
	<rect x="227.3" y="744" class="st0" width="32" height="3"/>
	<rect x="227.3" y="714" class="st0" width="32" height="3"/>
	<rect x="227.3" y="726" class="st0" width="32" height="3"/>
	<rect x="227.3" y="720" class="st0" width="32" height="3"/>
	<rect x="227.3" y="780" class="st0" width="32" height="3"/>
	<rect x="227.3" y="774" class="st0" width="32" height="3"/>
	<rect x="227.3" y="792" class="st0" width="32" height="3"/>
	<rect x="227.3" y="756" class="st0" width="32" height="3"/>
	<polygon class="st0" points="331.3,705 329.4,702 294,702 295.8,705 	"/>
	<rect x="227.3" y="762" class="st0" width="32" height="3"/>
	<rect x="227.3" y="768" class="st0" width="32" height="3"/>
	<rect x="1312.5" y="822" class="st0" width="32.8" height="3"/>
	<polygon class="st0" points="419.2,825 419.2,822 367.7,822 369.6,825 	"/>
	<polygon class="st0" points="419.2,819 419.2,816 364.1,816 365.9,819 	"/>
	<rect x="1312.5" y="828" class="st0" width="32.8" height="3"/>
	<polygon class="st0" points="419.2,807 419.2,804 356.7,804 358.5,807 	"/>
	<polygon class="st0" points="419.2,813 419.2,810 360.4,810 362.2,813 	"/>
	<path class="st0" d="M387.5,801c-0.5-1-1.1-2-1.6-3H353l1.8,3H387.5z"/>
	<polygon class="st0" points="419.2,837 419.2,834 375.1,834 377,837 	"/>
	<rect x="482.4" y="834" class="st0" width="32.8" height="3"/>
	<polygon class="st0" points="1089.2,834 1055.1,834 1056.3,837 1090.4,837 	"/>
	<rect x="1157.1" y="834" class="st0" width="32.8" height="3"/>
	<path class="st0" d="M384.3,795c-0.5-1-1.1-2-1.6-3h-33.4l1.8,3H384.3z"/>
	<rect x="1312.5" y="834" class="st0" width="32.8" height="3"/>
	<rect x="637.2" y="834" class="st0" width="32.8" height="3"/>
	<rect x="792.6" y="834" class="st0" width="32.8" height="3"/>
	<polygon class="st0" points="901.4,834 867.1,834 865.9,837 900.3,837 	"/>
	<polygon class="st0" points="419.2,831 419.2,828 371.4,828 373.3,831 	"/>
	<polygon class="st0" points="349.9,735 348.1,732 312.4,732 314.3,735 	"/>
	<polygon class="st0" points="353.7,741 351.8,738 316.1,738 318,741 	"/>
	<polygon class="st0" points="346.2,729 344.3,726 308.7,726 310.6,729 	"/>
	<polygon class="st0" points="342.5,723 340.6,720 305.1,720 306.9,723 	"/>
	<polygon class="st0" points="335,711 333.1,708 297.7,708 299.5,711 	"/>
	<path class="st0" d="M357.4,747c-0.1-0.2-0.3-0.5-0.4-0.7l-1.4-2.3h-35.7l1.8,3H357.4z"/>
	<polygon class="st0" points="338.7,717 336.9,714 301.4,714 303.2,717 	"/>
	<path class="st0" d="M377.9,783c-0.5-1-1.1-2-1.6-3h-34.3l1.8,3H377.9z"/>
	<path class="st0" d="M371.3,771c-0.6-1-1.1-2-1.7-3h-35.1l1.8,3H371.3z"/>
	<path class="st0" d="M374.6,777c-0.5-1-1.1-2-1.6-3h-34.7l1.8,3H374.6z"/>
	<path class="st0" d="M381.1,789c-0.5-1-1.1-2-1.6-3h-33.9l1.8,3H381.1z"/>
	<path class="st0" d="M368,765c-0.6-1-1.1-2-1.7-3h-35.4l1.8,3H368z"/>
	<path class="st0" d="M361,753c-0.6-1-1.2-2-1.8-3h-35.7l1.8,3H361z"/>
	<path class="st0" d="M364.5,759c-0.6-1-1.2-2-1.7-3h-35.6l1.8,3H364.5z"/>
	<polygon class="st0" points="1413.6,678 1414.7,681 1447.9,681 1446.9,678 	"/>
	<polygon class="st0" points="1417.9,690 1419,693 1452,693 1450.9,690 	"/>
	<polygon class="st0" points="1422.3,702 1423.4,705 1456,705 1455,702 	"/>
	<polygon class="st0" points="1433.2,732 1434.3,735 1466.2,735 1465.2,732 	"/>
	<polygon class="st0" points="1424.5,708 1425.6,711 1458.1,711 1457,708 	"/>
	<polygon class="st0" points="1431,726 1432.1,729 1464.2,729 1463.1,726 	"/>
	<polygon class="st0" points="1426.6,714 1427.7,717 1460.1,717 1459.1,714 	"/>
	<polygon class="st0" points="1428.8,720 1429.9,723 1462.1,723 1461.1,720 	"/>
	<polygon class="st0" points="1420.1,696 1421.2,699 1454,699 1453,696 	"/>
	<polygon class="st0" points="1404.9,654 1406,657 1439.7,657 1438.7,654 	"/>
	<polygon class="st0" points="1407,660 1408.1,663 1441.8,663 1440.8,660 	"/>
	<polygon class="st0" points="1465.8,822 1466.9,825 1516,825 1517.1,822 	"/>
	<polygon class="st0" points="1411.4,672 1412.5,675 1445.9,675 1444.8,672 	"/>
	<polygon class="st0" points="1409.2,666 1410.3,669 1443.8,669 1442.8,666 	"/>
	<polygon class="st0" points="1400.5,642 1401.6,645 1435.7,645 1434.7,642 	"/>
	<polygon class="st0" points="1415.8,684 1416.8,687 1449.9,687 1448.9,684 	"/>
	<polygon class="st0" points="1402.7,648 1403.8,651 1437.7,651 1436.7,648 	"/>
	<path class="st0" d="M1457.1,798l1.1,3h30.4c-0.3-0.9-0.7-1.9-1-3H1457.1z"/>
	<path class="st0" d="M1454.9,792l1.1,3h30.5c-0.3-1-0.7-2-1-3H1454.9z"/>
	<path class="st0" d="M1489.6,804h-30.3l1.1,3h30.2C1490.3,806.1,1489.9,805.1,1489.6,804z"/>
	<rect x="1312.5" y="810" class="st0" width="32.8" height="3"/>
	<rect x="1312.5" y="816" class="st0" width="32.8" height="3"/>
	<path class="st0" d="M1437.5,744l1.1,3h31.7c-0.3-1-0.7-2-1-3H1437.5z"/>
	<rect x="1312.5" y="804" class="st0" width="32.8" height="3"/>
	<path class="st0" d="M1452.8,786l1.1,3h30.7c-0.3-1-0.7-2-1-3H1452.8z"/>
	<path class="st0" d="M1441.9,756l1.1,3h31.4c-0.3-1-0.7-2-1-3H1441.9z"/>
	<path class="st0" d="M1444.1,762l1.1,3h31.3c-0.3-1-0.7-2-1-3H1444.1z"/>
	<path class="st0" d="M1439.7,750l1.1,3h31.6c-0.3-1-0.7-2-1-3H1439.7z"/>
	<path class="st0" d="M1448.4,774l1.1,3h31c-0.3-1-0.7-2-1-3H1448.4z"/>
	<path class="st0" d="M1450.6,780l1.1,3h30.8c-0.3-1-0.7-2-1-3H1450.6z"/>
	<path class="st0" d="M1446.2,768l1.1,3h31.1c-0.3-1-0.7-2-1-3H1446.2z"/>
	<rect x="227.3" y="708" class="st0" width="32" height="3"/>
	<rect x="1638.3" y="786" class="st0" width="32.4" height="3"/>
	<rect x="132" y="834" class="st0" width="32.8" height="3"/>
	<rect x="132" y="840" class="st0" width="32.8" height="3"/>
	<rect x="132" y="822" class="st0" width="32.8" height="3"/>
	<rect x="132" y="810" class="st0" width="32.8" height="3"/>
	<rect x="132" y="816" class="st0" width="32.8" height="3"/>
	<rect x="1638.3" y="840" class="st0" width="162.7" height="3"/>
	<rect x="1638.3" y="804" class="st0" width="32.4" height="3"/>
	<rect x="132" y="804" class="st0" width="32.8" height="3"/>
	<rect x="1638.3" y="834" class="st0" width="162.7" height="3"/>
	<rect x="1638.3" y="792" class="st0" width="32.4" height="3"/>
	<rect x="1638.3" y="798" class="st0" width="32.4" height="3"/>
	<rect x="1638.3" y="828" class="st0" width="162.7" height="3"/>
	<rect x="1638.3" y="810" class="st0" width="32.4" height="3"/>
	<rect x="1638.3" y="822" class="st0" width="162.7" height="3"/>
	<rect x="132" y="828" class="st0" width="32.8" height="3"/>
	<rect x="132" y="732" class="st0" width="32.8" height="3"/>
	<rect x="132" y="738" class="st0" width="32.8" height="3"/>
	<rect x="132" y="744" class="st0" width="32.8" height="3"/>
	<rect x="132" y="750" class="st0" width="32.8" height="3"/>
	<rect x="132" y="714" class="st0" width="32.8" height="3"/>
	<rect x="132" y="798" class="st0" width="32.8" height="3"/>
	<rect x="132" y="720" class="st0" width="32.8" height="3"/>
	<rect x="132" y="726" class="st0" width="32.8" height="3"/>
	<rect x="132" y="780" class="st0" width="32.8" height="3"/>
	<rect x="132" y="786" class="st0" width="32.8" height="3"/>
	<rect x="132" y="792" class="st0" width="32.8" height="3"/>
	<rect x="132" y="768" class="st0" width="32.8" height="3"/>
	<rect x="132" y="762" class="st0" width="32.8" height="3"/>
	<rect x="132" y="756" class="st0" width="32.8" height="3"/>
	<rect x="132" y="774" class="st0" width="32.8" height="3"/>
	<rect x="1638.3" y="654" class="st0" width="32.4" height="3"/>
	<rect x="1638.3" y="648" class="st0" width="32.4" height="3"/>
	<rect x="1638.3" y="780" class="st0" width="32.4" height="3"/>
	<rect x="1638.3" y="642" class="st0" width="32.4" height="3"/>
	<rect x="132" y="708" class="st0" width="32.8" height="3"/>
	<rect x="1638.3" y="660" class="st0" width="32.4" height="3"/>
	<rect x="1638.3" y="672" class="st0" width="32.4" height="3"/>
	<rect x="1638.3" y="666" class="st0" width="32.4" height="3"/>
	<rect x="1638.3" y="630" class="st0" width="32.4" height="3"/>
	<rect x="1638.3" y="678" class="st0" width="32.4" height="3"/>
	<rect x="1638.3" y="606" class="st0" width="162.7" height="3"/>
	<rect x="1638.3" y="594" class="st0" width="162.7" height="3"/>
	<rect x="1638.3" y="600" class="st0" width="162.7" height="3"/>
	<rect x="1638.3" y="624" class="st0" width="32.4" height="3"/>
	<rect x="1638.3" y="612" class="st0" width="162.7" height="3"/>
	<rect x="1638.3" y="618" class="st0" width="162.7" height="3"/>
	<rect x="1638.3" y="636" class="st0" width="32.4" height="3"/>
	<rect x="1638.3" y="684" class="st0" width="32.4" height="3"/>
	<rect x="1638.3" y="756" class="st0" width="32.4" height="3"/>
	<rect x="1638.3" y="738" class="st0" width="32.4" height="3"/>
	<rect x="1638.3" y="744" class="st0" width="32.4" height="3"/>
	<rect x="1638.3" y="774" class="st0" width="32.4" height="3"/>
	<rect x="1638.3" y="762" class="st0" width="32.4" height="3"/>
	<rect x="1638.3" y="768" class="st0" width="32.4" height="3"/>
	<polygon class="st0" points="1463.7,816 1464.7,819 1518.2,819 1519.3,816 	"/>
	<rect x="1638.3" y="696" class="st0" width="32.4" height="3"/>
	<rect x="1638.3" y="708" class="st0" width="149.4" height="3"/>
	<rect x="1638.3" y="726" class="st0" width="149.4" height="3"/>
	<rect x="1638.3" y="690" class="st0" width="32.4" height="3"/>
	<rect x="1638.3" y="714" class="st0" width="149.4" height="3"/>
	<rect x="1638.3" y="720" class="st0" width="149.4" height="3"/>
	<rect x="1638.3" y="750" class="st0" width="32.4" height="3"/>
	<polygon class="st0" points="1519.8,726 1518.8,729 1550.8,729 1551.9,726 	"/>
	<polygon class="st0" points="1527.9,702 1526.9,705 1559.5,705 1560.6,702 	"/>
	<polygon class="st0" points="1534,684 1533,687 1566.1,687 1567.2,684 	"/>
	<polygon class="st0" points="1532,690 1531,693 1563.9,693 1565,690 	"/>
	<polygon class="st0" points="1525.9,708 1524.9,711 1557.4,711 1558.5,708 	"/>
	<polygon class="st0" points="1521.8,720 1520.8,723 1553,723 1554.1,720 	"/>
	<polygon class="st0" points="1523.8,714 1522.8,717 1555.2,717 1556.3,714 	"/>
	<polygon class="st0" points="1529.9,696 1528.9,699 1561.7,699 1562.8,696 	"/>
	<polygon class="st0" points="1546.2,648 1545.2,651 1579.1,651 1580.2,648 	"/>
	<polygon class="st0" points="1548.3,642 1547.2,645 1581.3,645 1582.4,642 	"/>
	<polygon class="st0" points="1536.1,678 1535,681 1568.3,681 1569.3,678 	"/>
	<polygon class="st0" points="1544.2,654 1543.2,657 1577,657 1578,654 	"/>
	<polygon class="st0" points="1538.1,672 1537.1,675 1570.4,675 1571.5,672 	"/>
	<polygon class="st0" points="1542.2,660 1541.1,663 1574.8,663 1575.9,660 	"/>
	<polygon class="st0" points="1540.1,666 1539.1,669 1572.6,669 1573.7,666 	"/>
	<path class="st0" d="M1499.6,786c-0.3,1-0.7,2-1,3h30.5l1.1-3H1499.6z"/>
	<polygon class="st0" points="1550.3,636 1549.3,639 1583.5,639 1584.6,636 	"/>
	<path class="st0" d="M1497.6,792c-0.3,1-0.7,2-1,3h30.3l1.1-3H1497.6z"/>
	<path class="st0" d="M1501.5,780c-0.3,1-0.7,2-1,3h30.7l1.1-3H1501.5z"/>
	<polygon class="st0" points="1461.5,810 1462.6,813 1520.4,813 1521.4,810 	"/>
	<path class="st0" d="M1495.6,798c-0.3,1.1-0.7,2.1-1,3h30.1l1.1-3H1495.6z"/>
	<path class="st0" d="M1503.5,774c-0.3,1-0.7,2-1,3h30.9l1.1-3H1503.5z"/>
	<path class="st0" d="M1493.7,804c-0.4,1.1-0.7,2.1-1,3h29.8l1.1-3H1493.7z"/>
	<path class="st0" d="M1513.7,744c-0.3,1-0.7,2-1,3h31.7l1.1-3H1513.7z"/>
	<polygon class="st0" points="1517.7,732 1516.7,735 1548.7,735 1549.7,732 	"/>
	<path class="st0" d="M1515.7,738l-0.1,0.4c-0.3,0.9-0.6,1.8-0.9,2.6h31.8l1.1-3H1515.7z"/>
	<path class="st0" d="M1511.6,750c-0.3,1-0.7,2-1,3h31.5l1.1-3H1511.6z"/>
	<path class="st0" d="M1509.6,756c-0.3,1-0.7,2-1,3h31.4l1.1-3H1509.6z"/>
	<path class="st0" d="M1505.5,768c-0.3,1-0.7,2-1,3h31.1l1.1-3H1505.5z"/>
	<path class="st0" d="M1507.6,762c-0.3,1-0.7,2-1,3h31.2l1.1-3H1507.6z"/>
	<polygon class="st0" points="1554.4,624 1553.3,627 1587.8,627 1588.9,624 	"/>
	<rect x="132" y="642" class="st0" width="32.8" height="3"/>
	<rect x="132" y="636" class="st0" width="32.8" height="3"/>
	<rect x="132" y="648" class="st0" width="32.8" height="3"/>
	<rect x="132" y="612" class="st0" width="32.8" height="3"/>
	<rect x="132" y="618" class="st0" width="32.8" height="3"/>
	<polygon class="st0" points="1552.3,630 1551.3,633 1585.7,633 1586.8,630 	"/>
	<rect x="132" y="630" class="st0" width="32.8" height="3"/>
	<rect x="132" y="624" class="st0" width="32.8" height="3"/>
	<rect x="132" y="660" class="st0" width="32.8" height="3"/>
	<rect x="132" y="684" class="st0" width="32.8" height="3"/>
	<rect x="132" y="696" class="st0" width="32.8" height="3"/>
	<rect x="132" y="690" class="st0" width="32.8" height="3"/>
	<rect x="132" y="678" class="st0" width="32.8" height="3"/>
	<rect x="132" y="666" class="st0" width="32.8" height="3"/>
	<rect x="132" y="672" class="st0" width="32.8" height="3"/>
	<rect x="132" y="654" class="st0" width="32.8" height="3"/>
	<polygon class="st0" points="1562.5,600 1561.5,603 1596.6,603 1597.6,600 	"/>
	<polygon class="st0" points="1560.5,606 1559.5,609 1594.4,609 1595.5,606 	"/>
	<rect x="1312.5" y="594" class="st0" width="32.8" height="3"/>
	<polygon class="st0" points="1558.4,612 1557.4,615 1592.2,615 1593.3,612 	"/>
	<rect x="132" y="702" class="st0" width="32.8" height="3"/>
	<polygon class="st0" points="1556.4,618 1555.4,621 1590,621 1591.1,618 	"/>
	<rect x="132" y="606" class="st0" width="32.8" height="3"/>
	<rect x="1073.2" y="594" class="st0" width="200.5" height="3"/>
	<rect x="387.2" y="594" class="st0" width="32" height="3"/>
	<rect x="792.6" y="594" class="st0" width="32.8" height="3"/>
	<rect x="132" y="600" class="st0" width="32.8" height="3"/>
	<rect x="132" y="594" class="st0" width="32.8" height="3"/>
	<rect x="482.4" y="594" class="st0" width="32.8" height="3"/>
	<rect x="553.3" y="594" class="st0" width="200.5" height="3"/>
	<rect x="637.2" y="678" class="st0" width="32.8" height="3"/>
	<rect x="482.4" y="702" class="st0" width="32.8" height="3"/>
	<rect x="482.4" y="708" class="st0" width="32.8" height="3"/>
	<rect x="482.4" y="672" class="st0" width="32.8" height="3"/>
	<rect x="482.4" y="684" class="st0" width="32.8" height="3"/>
	<rect x="482.4" y="678" class="st0" width="32.8" height="3"/>
	<rect x="482.4" y="714" class="st0" width="32.8" height="3"/>
	<rect x="482.4" y="690" class="st0" width="32.8" height="3"/>
	<rect x="482.4" y="696" class="st0" width="32.8" height="3"/>
	<rect x="482.4" y="750" class="st0" width="32.8" height="3"/>
	<rect x="482.4" y="756" class="st0" width="32.8" height="3"/>
	<rect x="482.4" y="744" class="st0" width="32.8" height="3"/>
	<rect x="482.4" y="726" class="st0" width="32.8" height="3"/>
	<rect x="482.4" y="762" class="st0" width="32.8" height="3"/>
	<rect x="482.4" y="732" class="st0" width="32.8" height="3"/>
	<rect x="482.4" y="738" class="st0" width="32.8" height="3"/>
	<rect x="482.4" y="720" class="st0" width="32.8" height="3"/>
	<polygon class="st0" points="951.6,618 950.5,621 1006.1,621 1005,618 	"/>
	<rect x="792.6" y="618" class="st0" width="32.8" height="3"/>
	<rect x="553.3" y="618" class="st0" width="200.5" height="3"/>
	<path class="st0" d="M983.7,642c0.3,1,0.7,2,1.1,3h30.8l-1.2-3H983.7z"/>
	<path class="st0" d="M981.6,636c0.3,1,0.7,2,1,3h30.5l-1.2-3H981.6z"/>
	<path class="st0" d="M979.5,630c0.3,1,0.7,2,1,3h30.3l-1.2-3H979.5z"/>
	<path class="st0" d="M949.3,624l-1.2,3h28.9c0.2-0.6,0.4-1.1,0.5-1.7h0.4c0.2,0.5,0.4,1.1,0.6,1.7h29.9l-1.2-3H949.3z"/>
	<rect x="637.2" y="636" class="st0" width="32.8" height="3"/>
	<rect x="637.2" y="654" class="st0" width="32.8" height="3"/>
	<rect x="482.4" y="654" class="st0" width="32.8" height="3"/>
	<rect x="637.2" y="630" class="st0" width="32.8" height="3"/>
	<rect x="482.4" y="660" class="st0" width="32.8" height="3"/>
	<rect x="482.4" y="666" class="st0" width="32.8" height="3"/>
	<rect x="637.2" y="642" class="st0" width="32.8" height="3"/>
	<rect x="637.2" y="648" class="st0" width="32.8" height="3"/>
	<rect x="637.2" y="624" class="st0" width="32.8" height="3"/>
	<rect x="1157.1" y="786" class="st0" width="32.8" height="3"/>
	<rect x="1157.1" y="792" class="st0" width="32.8" height="3"/>
	<rect x="1157.1" y="780" class="st0" width="32.8" height="3"/>
	<polygon class="st0" points="1046.1,810 1047.2,813 1081,813 1079.8,810 	"/>
	<polygon class="st0" points="1043.8,804 1044.9,807 1078.7,807 1077.5,804 	"/>
	<polygon class="st0" points="1039.3,792 1040.4,795 1074,795 1072.8,792 	"/>
	<polygon class="st0" points="1041.5,798 1042.7,801 1076.3,801 1075.2,798 	"/>
	<rect x="1157.1" y="774" class="st0" width="32.8" height="3"/>
	<rect x="1157.1" y="738" class="st0" width="32.8" height="3"/>
	<rect x="1157.1" y="768" class="st0" width="32.8" height="3"/>
	<rect x="1157.1" y="732" class="st0" width="32.8" height="3"/>
	<rect x="1157.1" y="744" class="st0" width="32.8" height="3"/>
	<rect x="1157.1" y="762" class="st0" width="32.8" height="3"/>
	<rect x="1157.1" y="750" class="st0" width="32.8" height="3"/>
	<rect x="1157.1" y="756" class="st0" width="32.8" height="3"/>
	<rect x="637.2" y="816" class="st0" width="32.8" height="3"/>
	<rect x="482.4" y="792" class="st0" width="32.8" height="3"/>
	<rect x="637.2" y="792" class="st0" width="32.8" height="3"/>
	<rect x="637.2" y="804" class="st0" width="32.8" height="3"/>
	<rect x="637.2" y="798" class="st0" width="32.8" height="3"/>
	<rect x="482.4" y="774" class="st0" width="32.8" height="3"/>
	<rect x="482.4" y="786" class="st0" width="32.8" height="3"/>
	<rect x="482.4" y="780" class="st0" width="32.8" height="3"/>
	<rect x="637.2" y="810" class="st0" width="32.8" height="3"/>
	<polygon class="st0" points="905.9,822 871.8,822 870.6,825 904.8,825 	"/>
	<polygon class="st0" points="1084.5,822 1050.6,822 1051.7,825 1085.7,825 	"/>
	<polygon class="st0" points="327.5,699 325.7,696 290.3,696 292.1,699 	"/>
	<rect x="792.6" y="822" class="st0" width="32.8" height="3"/>
	<rect x="482.4" y="768" class="st0" width="32.8" height="3"/>
	<rect x="637.2" y="822" class="st0" width="32.8" height="3"/>
	<rect x="637.2" y="774" class="st0" width="32.8" height="3"/>
	<rect x="637.2" y="756" class="st0" width="32.8" height="3"/>
	<rect x="637.2" y="750" class="st0" width="32.8" height="3"/>
	<rect x="637.2" y="762" class="st0" width="32.8" height="3"/>
	<rect x="637.2" y="732" class="st0" width="32.8" height="3"/>
	<rect x="637.2" y="726" class="st0" width="32.8" height="3"/>
	<rect x="637.2" y="744" class="st0" width="32.8" height="3"/>
	<rect x="637.2" y="738" class="st0" width="32.8" height="3"/>
	<rect x="637.2" y="768" class="st0" width="32.8" height="3"/>
	<rect x="792.6" y="792" class="st0" width="32.8" height="3"/>
	<rect x="792.6" y="798" class="st0" width="32.8" height="3"/>
	<rect x="792.6" y="804" class="st0" width="32.8" height="3"/>
	<rect x="792.6" y="786" class="st0" width="32.8" height="3"/>
	<rect x="1157.1" y="726" class="st0" width="32.8" height="3"/>
	<rect x="637.2" y="780" class="st0" width="32.8" height="3"/>
	<rect x="637.2" y="786" class="st0" width="32.8" height="3"/>
	<rect x="792.6" y="648" class="st0" width="32.8" height="3"/>
	<rect x="637.2" y="666" class="st0" width="32.8" height="3"/>
	<rect x="637.2" y="720" class="st0" width="32.8" height="3"/>
	<rect x="637.2" y="660" class="st0" width="32.8" height="3"/>
	<rect x="637.2" y="672" class="st0" width="32.8" height="3"/>
	<rect x="792.6" y="810" class="st0" width="32.8" height="3"/>
	<rect x="792.6" y="654" class="st0" width="32.8" height="3"/>
	<rect x="792.6" y="660" class="st0" width="32.8" height="3"/>
	<rect x="792.6" y="642" class="st0" width="32.8" height="3"/>
	<rect x="637.2" y="702" class="st0" width="32.8" height="3"/>
	<rect x="637.2" y="708" class="st0" width="32.8" height="3"/>
	<rect x="637.2" y="684" class="st0" width="32.8" height="3"/>
	<rect x="637.2" y="714" class="st0" width="32.8" height="3"/>
	<rect x="637.2" y="690" class="st0" width="32.8" height="3"/>
	<rect x="637.2" y="696" class="st0" width="32.8" height="3"/>
	<polygon class="st0" points="881.2,798 880,801 913.8,801 914.9,798 	"/>
	<polygon class="st0" points="1008.1,708 1009.2,711 1041.2,711 1040.1,708 	"/>
	<polygon class="st0" points="1019.3,738 1020.4,741 1052.9,741 1051.8,738 	"/>
	<polygon class="st0" points="1005.8,702 1007,705 1038.9,705 1037.7,702 	"/>
	<polygon class="st0" points="1017.1,732 1018.2,735 1050.6,735 1049.4,732 	"/>
	<polygon class="st0" points="1012.6,720 1013.7,723 1045.9,723 1044.7,720 	"/>
	<polygon class="st0" points="1003.6,696 1004.7,699 1036.6,699 1035.4,696 	"/>
	<polygon class="st0" points="1014.8,726 1015.9,729 1048.3,729 1047.1,726 	"/>
	<polygon class="st0" points="1010.3,714 1011.5,717 1043.6,717 1042.4,714 	"/>
	<path class="st0" d="M990.1,660c0.4,1,0.7,2,1.1,3h31.3l-1.2-3H990.1z"/>
	<path class="st0" d="M987.9,654c0.4,1,0.7,2,1.1,3h31.1l-1.2-3H987.9z"/>
	<polygon class="st0" points="1001.3,690 1002.5,693 1034.2,693 1033,690 	"/>
	<polygon class="st0" points="992.4,666 993.5,669 1024.9,669 1023.7,666 	"/>
	<polygon class="st0" points="994.6,672 995.7,675 1027.2,675 1026,672 	"/>
	<polygon class="st0" points="999.1,684 1000.2,687 1031.9,687 1030.7,684 	"/>
	<polygon class="st0" points="996.9,678 998,681 1029.5,681 1028.4,678 	"/>
	<polygon class="st0" points="885.9,786 884.7,789 918.2,789 919.4,786 	"/>
	<polygon class="st0" points="883.5,792 882.4,795 916,795 917.1,792 	"/>
	<path class="st0" d="M985.8,648c0.4,1,0.7,2,1.1,3h31l-1.2-3H985.8z"/>
	<polygon class="st0" points="1070.5,786 1037,786 1038.1,789 1071.7,789 	"/>
	<rect x="792.6" y="816" class="st0" width="32.8" height="3"/>
	<polygon class="st0" points="878.8,804 877.7,807 911.5,807 912.6,804 	"/>
	<polygon class="st0" points="908.2,816 874.1,816 873,819 907,819 	"/>
	<polygon class="st0" points="876.5,810 875.3,813 909.3,813 910.4,810 	"/>
	<polygon class="st0" points="895.3,762 894.1,765 1062.3,765 1061.1,762 	"/>
	<polygon class="st0" points="902.3,744 901.2,747 1055.3,747 1054.1,744 	"/>
	<polygon class="st0" points="897.6,756 896.5,759 1060,759 1058.8,756 	"/>
	<polygon class="st0" points="900,750 898.8,753 1057.6,753 1056.4,750 	"/>
	<polygon class="st0" points="1034.7,780 1035.9,783 1069.3,783 1068.1,780 	"/>
	<polygon class="st0" points="892.9,768 891.8,771 925,771 925,770.8 1031.2,770.8 1031.3,771 1064.6,771 1063.5,768 	"/>
	<polygon class="st0" points="1032.5,774 1033.6,777 1067,777 1065.8,774 	"/>
	<polygon class="st0" points="1048.3,816 1049.5,819 1083.4,819 1082.2,816 	"/>
	<rect x="1312.5" y="720" class="st0" width="32.8" height="3"/>
	<rect x="1312.5" y="714" class="st0" width="32.8" height="3"/>
	<rect x="1312.5" y="726" class="st0" width="32.8" height="3"/>
	<rect x="1312.5" y="738" class="st0" width="32.8" height="3"/>
	<rect x="1312.5" y="744" class="st0" width="32.8" height="3"/>
	<rect x="1312.5" y="708" class="st0" width="32.8" height="3"/>
	<rect x="1312.5" y="732" class="st0" width="32.8" height="3"/>
	<rect x="1312.5" y="702" class="st0" width="32.8" height="3"/>
	<rect x="1312.5" y="750" class="st0" width="32.8" height="3"/>
	<rect x="1312.5" y="678" class="st0" width="32.8" height="3"/>
	<rect x="1312.5" y="666" class="st0" width="32.8" height="3"/>
	<rect x="1312.5" y="672" class="st0" width="32.8" height="3"/>
	<rect x="1312.5" y="696" class="st0" width="32.8" height="3"/>
	<rect x="1312.5" y="684" class="st0" width="32.8" height="3"/>
	<polygon class="st0" points="1086.9,828 1052.9,828 1054,831 1088,831 	"/>
	<rect x="1312.5" y="660" class="st0" width="32.8" height="3"/>
	<rect x="1157.1" y="804" class="st0" width="32.8" height="3"/>
	<rect x="1157.1" y="798" class="st0" width="32.8" height="3"/>
	<rect x="1312.5" y="798" class="st0" width="32.8" height="3"/>
	<rect x="1157.1" y="810" class="st0" width="32.8" height="3"/>
	<rect x="1157.1" y="828" class="st0" width="32.8" height="3"/>
	<rect x="1157.1" y="822" class="st0" width="32.8" height="3"/>
	<rect x="1157.1" y="816" class="st0" width="32.8" height="3"/>
	<rect x="1312.5" y="780" class="st0" width="32.8" height="3"/>
	<rect x="1312.5" y="768" class="st0" width="32.8" height="3"/>
	<rect x="1312.5" y="774" class="st0" width="32.8" height="3"/>
	<rect x="1312.5" y="792" class="st0" width="32.8" height="3"/>
	<rect x="1312.5" y="762" class="st0" width="32.8" height="3"/>
	<rect x="1312.5" y="756" class="st0" width="32.8" height="3"/>
	<rect x="1312.5" y="786" class="st0" width="32.8" height="3"/>
	<rect x="1312.5" y="690" class="st0" width="32.8" height="3"/>
	<rect x="387.2" y="642" class="st0" width="32" height="3"/>
	<path class="st0" d="M262.1,645H294l-1.9-3h-31.5C261.1,643,261.6,644,262.1,645z"/>
	<rect x="387.2" y="636" class="st0" width="32" height="3"/>
	<rect x="387.2" y="612" class="st0" width="32" height="3"/>
	<path class="st0" d="M297.7,651l-1.9-3h-32.1c0.5,1,1,2,1.6,3H297.7z"/>
	<rect x="387.2" y="624" class="st0" width="32" height="3"/>
	<rect x="387.2" y="630" class="st0" width="32" height="3"/>
	<rect x="387.2" y="618" class="st0" width="32" height="3"/>
	<path class="st0" d="M316.4,681l-1.9-3h-34.6c0.6,1,1.1,2,1.7,3H316.4z"/>
	<path class="st0" d="M320.1,687l-1.9-3h-35c0.6,1,1.2,2.1,1.7,3H320.1z"/>
	<path class="st0" d="M323.8,693l-1.9-3h-35.3c0.7,1.1,1.3,2.1,1.8,3H323.8z"/>
	<path class="st0" d="M301.4,657l-1.9-3h-32.7c0.5,1,1.1,2,1.6,3H301.4z"/>
	<path class="st0" d="M305.2,663l-1.9-3h-33.2c0.5,1,1.1,2,1.6,3H305.2z"/>
	<path class="st0" d="M308.9,669l-1.9-3h-33.7c0.5,1,1.1,2,1.6,3H308.9z"/>
	<path class="st0" d="M312.6,675l-1.9-3h-34.2c0.6,1,1.1,2,1.6,3H312.6z"/>
	<rect x="387.2" y="606" class="st0" width="32" height="3"/>
	<rect x="1312.5" y="624" class="st0" width="32.8" height="3"/>
	<rect x="1312.5" y="630" class="st0" width="32.8" height="3"/>
	<rect x="1312.5" y="618" class="st0" width="32.8" height="3"/>
	<rect x="1312.5" y="612" class="st0" width="32.8" height="3"/>
	<rect x="1312.5" y="648" class="st0" width="32.8" height="3"/>
	<rect x="1312.5" y="642" class="st0" width="32.8" height="3"/>
	<rect x="1312.5" y="636" class="st0" width="32.8" height="3"/>
	<polygon class="st0" points="955.2,609 1001.5,609 1000.3,606 956.3,606 	"/>
	<rect x="1312.5" y="606" class="st0" width="32.8" height="3"/>
	<rect x="482.4" y="606" class="st0" width="32.8" height="3"/>
	<rect x="792.6" y="606" class="st0" width="32.8" height="3"/>
	<rect x="553.3" y="606" class="st0" width="200.5" height="3"/>
	<rect x="1312.5" y="654" class="st0" width="32.8" height="3"/>
	<rect x="1073.2" y="606" class="st0" width="200.5" height="3"/>
	<rect x="387.2" y="654" class="st0" width="32" height="3"/>
	<rect x="792.6" y="612" class="st0" width="32.8" height="3"/>
	<rect x="553.3" y="612" class="st0" width="200.5" height="3"/>
	<rect x="1157.1" y="630" class="st0" width="32.8" height="3"/>
	<rect x="482.4" y="612" class="st0" width="32.8" height="3"/>
	<rect x="1157.1" y="624" class="st0" width="32.8" height="3"/>
	<rect x="1073.2" y="612" class="st0" width="200.5" height="3"/>
	<rect x="1073.2" y="618" class="st0" width="200.5" height="3"/>
	<polygon class="st0" points="952.8,615 1003.8,615 1002.6,612 954,612 	"/>
	<rect x="482.4" y="648" class="st0" width="32.8" height="3"/>
	<rect x="482.4" y="618" class="st0" width="32.8" height="3"/>
	<rect x="482.4" y="642" class="st0" width="32.8" height="3"/>
	<rect x="387.2" y="648" class="st0" width="32" height="3"/>
	<rect x="482.4" y="624" class="st0" width="32.8" height="3"/>
	<rect x="482.4" y="630" class="st0" width="32.8" height="3"/>
	<rect x="482.4" y="636" class="st0" width="32.8" height="3"/>
	<rect x="1157.1" y="702" class="st0" width="32.8" height="3"/>
	<rect x="1157.1" y="690" class="st0" width="32.8" height="3"/>
	<rect x="1157.1" y="684" class="st0" width="32.8" height="3"/>
	<rect x="1157.1" y="678" class="st0" width="32.8" height="3"/>
	<rect x="1157.1" y="696" class="st0" width="32.8" height="3"/>
	<rect x="1157.1" y="720" class="st0" width="32.8" height="3"/>
	<rect x="1157.1" y="714" class="st0" width="32.8" height="3"/>
	<rect x="1157.1" y="708" class="st0" width="32.8" height="3"/>
	<rect x="1157.1" y="642" class="st0" width="32.8" height="3"/>
	<rect x="1157.1" y="648" class="st0" width="32.8" height="3"/>
	<rect x="1157.1" y="636" class="st0" width="32.8" height="3"/>
	<rect x="1157.1" y="654" class="st0" width="32.8" height="3"/>
	<rect x="1157.1" y="672" class="st0" width="32.8" height="3"/>
	<rect x="1157.1" y="666" class="st0" width="32.8" height="3"/>
	<rect x="1157.1" y="660" class="st0" width="32.8" height="3"/>
	<path class="st0" d="M419.2,783v-3H388c0,1,0.1,2,0.1,3H419.2z"/>
	<path class="st0" d="M419.2,789v-3h-31c0,1,0.1,2,0.1,3H419.2z"/>
	<polygon class="st0" points="903.7,828 869.4,828 868.3,831 902.6,831 	"/>
	<path class="st0" d="M419.2,795v-3h-30.7c0,1,0.1,2,0.1,3H419.2z"/>
	<path class="st0" d="M419.2,771v-3h-31.5c0,1,0.1,2,0.1,3H419.2z"/>
	<path class="st0" d="M419.2,765v-3h-31.7c0,1,0,2,0.1,3H419.2z"/>
	<rect x="482.4" y="798" class="st0" width="32.8" height="3"/>
	<path class="st0" d="M419.2,777v-3h-31.4c0,1,0.1,2,0.1,3H419.2z"/>
	<rect x="482.4" y="804" class="st0" width="32.8" height="3"/>
	<rect x="482.4" y="828" class="st0" width="32.8" height="3"/>
	<rect x="637.2" y="828" class="st0" width="32.8" height="3"/>
	<rect x="792.6" y="828" class="st0" width="32.8" height="3"/>
	<rect x="482.4" y="810" class="st0" width="32.8" height="3"/>
	<path class="st0" d="M419.2,759v-3h-31.8c0,1,0,2,0.1,3H419.2z"/>
	<rect x="482.4" y="816" class="st0" width="32.8" height="3"/>
	<rect x="482.4" y="822" class="st0" width="32.8" height="3"/>
	<rect x="387.2" y="684" class="st0" width="32" height="3"/>
	<rect x="387.2" y="690" class="st0" width="32" height="3"/>
	<path class="st0" d="M419.2,753v-3h-31.9c0,1,0,2,0.1,3H419.2z"/>
	<rect x="387.2" y="696" class="st0" width="32" height="3"/>
	<rect x="387.2" y="702" class="st0" width="32" height="3"/>
	<rect x="387.2" y="666" class="st0" width="32" height="3"/>
	<rect x="387.2" y="678" class="st0" width="32" height="3"/>
	<rect x="387.2" y="672" class="st0" width="32" height="3"/>
	<rect x="387.2" y="660" class="st0" width="32" height="3"/>
	<rect x="387.2" y="732" class="st0" width="32" height="3"/>
	<path class="st0" d="M419.2,747v-3h-32c0,0.9,0,1.9,0,3H419.2z"/>
	<rect x="387.2" y="708" class="st0" width="32" height="3"/>
	<rect x="387.2" y="726" class="st0" width="32" height="3"/>
	<rect x="387.2" y="720" class="st0" width="32" height="3"/>
	<rect x="387.2" y="714" class="st0" width="32" height="3"/>
</g>
</svg>
