<?xml version="1.0" encoding="utf-8"?>
<!-- Generator: Adobe Illustrator 26.2.1, SVG Export Plug-In . SVG Version: 6.00 Build 0)  -->
<svg version="1.1" id="Layer_1" xmlns="http://www.w3.org/2000/svg" xmlns:xlink="http://www.w3.org/1999/xlink" x="0px" y="0px"
	 viewBox="0 0 1920 1350" style="enable-background:new 0 0 1920 1350;" xml:space="preserve">
<style type="text/css">
	.st0{fill:#FFFFFF;}
</style>
<g>
	<path class="st0" d="M426,1049.4c2,0.2,4,0.3,6,0.4v-22.4c-2-0.1-4-0.4-6-0.6V1049.4z"/>
	<path class="st0" d="M474,1044.6c2-0.7,4-1.4,6-2.3v-28.9c-1.9,1.6-3.9,3.2-6,4.5V1044.6z"/>
	<path class="st0" d="M450,1049.5c2-0.2,4-0.4,6-0.7v-23.1c-1.9,0.5-3.9,0.9-6,1.2V1049.5z"/>
	<path class="st0" d="M102,1113.5h-6v33c1.8,5.3,3.9,11.2,6,17v-19c2.3,1.7,4.3,3.8,6,6.3v-29.1c-1.9-0.8-3.9-1.6-6-2.2V1113.5z"/>
	<path class="st0" d="M384,1000.5c-2.4-4.1-4.4-8.6-6-13.5v45.1c1.9,1.5,3.9,2.8,6,4.1V1000.5z"/>
	<polygon class="st0" points="72,1046.5 72,843.5 66,843.5 66,866.4 69.9,866.4 69.9,1046.5 	"/>
	<path class="st0" d="M480,848c-2-0.8-4-1.6-6-2.3v27.6c2.1,1.5,4.1,3.1,6,4.8V848z"/>
	<path class="st0" d="M126,508.5c2-0.4,4-0.8,6-1.3v-22c-1.9,0.5-3.9,1-6,1.3V508.5z"/>
	<rect x="516" y="573.5" class="st0" width="6" height="22.9"/>
	<path class="st0" d="M456,841.3c-2-0.3-4-0.5-6-0.7v23.2c2.1,0.3,4.1,0.7,6,1.2V841.3z"/>
	<path class="st0" d="M432,840.2c-2,0.1-4,0.3-6,0.5v23.2c2-0.3,4-0.5,6-0.7V840.2z"/>
	<path class="st0" d="M504,907.9v-44.1c-1.9-1.8-3.9-3.6-6-5.2v49.7c0.1,0.2,0.1,0.5,0.2,0.7L504,907.9z"/>
	<path class="st0" d="M522,889.6v14.9l4.9-0.9C525.6,898.6,523.9,893.9,522,889.6z"/>
	<path class="st0" d="M504,985.8l-5.2-1.4c-0.3,0.7-0.5,1.5-0.8,2.2v45.4c2.1-1.5,4.1-3.2,6-4.9v10.6l5.3,8.7h0.7v-42.6
		c-2-3.7-4-7.5-6-11.2V985.8z"/>
	<rect x="570" y="843.5" class="st0" width="6" height="203"/>
	<rect x="210" y="843.5" class="st0" width="6" height="203"/>
	<path class="st0" d="M300,506.5h6v-22.9h-6v1.9c-2-0.4-4.1-0.9-6-1.5v24.6c2,0.3,4,0.6,6,0.8V506.5z"/>
	<path class="st0" d="M324,605.7c2.4,2.1,4.4,4.6,6,7.7V581c-1.9-0.8-4-1.6-6-2.3V605.7z"/>
	<polygon class="st0" points="504,1200.6 510,1184.3 510,1120.4 504,1135.8 	"/>
	<rect x="234" y="1023" class="st0" width="6" height="23.5"/>
	<rect x="282" y="1023" class="st0" width="6" height="23.5"/>
	<rect x="258" y="1023" class="st0" width="6" height="23.5"/>
	<rect x="108" y="692.7" class="st0" width="6" height="23.2"/>
	<rect x="190.2" y="843.5" class="st0" width="1.8" height="203"/>
	<rect x="138" y="843.5" class="st0" width="6" height="22.9"/>
	<polygon class="st0" points="162,713 156,697.6 156,768 159.2,776.5 162,776.5 	"/>
	<rect x="114" y="843.5" class="st0" width="6" height="22.9"/>
	<polygon class="st0" points="180,776.5 186,776.5 186,774.6 180,759.2 	"/>
	<rect x="162" y="843.5" class="st0" width="1.8" height="22.9"/>
	<rect x="90" y="843.5" class="st0" width="6" height="203"/>
	<polygon class="st0" points="138,651.5 132,636.1 132,715.9 136.3,715.9 138,720.4 	"/>
	<path class="st0" d="M150,500.2c2.1-1.1,4.1-2.4,6-3.7V471c-1.8,2-3.8,3.9-6,5.5V500.2z"/>
	<polygon class="st0" points="114,596.4 120,596.4 120,573.5 114,573.5 114,589.9 108,574.6 108,639.6 114,655.6 	"/>
	<rect x="42" y="843.5" class="st0" width="6" height="22.9"/>
	<path class="st0" d="M1200,1129.6v88.9c2.1-2.1,4.1-4.3,6-6.6v-33.7l6,0.9v-41.6c-2.4,2.9-4.3,5.9-6,9.1v-11.1
		C1204.2,1133.4,1202.2,1131.4,1200,1129.6z"/>
	<path class="st0" d="M1074,1047.2c2-0.5,4-1,6-1.6v-24.2c-1.9,0.9-3.9,1.7-6,2.4V1047.2z"/>
	<polygon class="st0" points="288,1231.1 294,1209.8 294,1124.3 288,1146.3 	"/>
	<path class="st0" d="M312,1158c1.8,7,3.8,14.8,6,23v-67.4h-6V1158z"/>
	<polygon class="st0" points="432,1113.5 432,1132.8 437,1113.5 	"/>
	<path class="st0" d="M744,1236c2.2,0.8,4.2,1.8,6,2.9v-34.2c-1.9,0.9-3.9,1.6-6,2.3V1236z"/>
	<path class="st0" d="M792,1316.5h6v-3.3c-2.6-3.8-4.6-7.7-6-12.1V1316.5z"/>
	<path class="st0" d="M1176,1208v29.1c2-1.3,4-2.6,6-4v-30.9C1180.1,1204.2,1178.1,1206.1,1176,1208z"/>
	<path class="st0" d="M1002,1040.8c1.9,0.9,3.9,1.7,6,2.5v-27.1c-2.1-1.5-4.1-3.1-6-4.8V1040.8z"/>
	<path class="st0" d="M1128,1271.9c1.9-2.1,3.9-4.1,6-6v-30c-2,1.4-4,2.9-6,4.4V1271.9z"/>
	<path class="st0" d="M1104,1178.5l6,0.9v-44.3c-2.3,2.5-4.3,5.1-6,7.9V1178.5z"/>
	<path class="st0" d="M1176,1141.5c2.2,1,4.2,2.3,6,3.7v-25.5c-1.9-0.6-3.9-1.2-6-1.6V1141.5z"/>
	<path class="st0" d="M1104,996.9c-1.5,2.9-3.1,5.6-4.9,8.1c-0.3,0.5-0.7,1-1.1,1.5v31.5c2.1-1.2,4.1-2.4,6-3.7V996.9z"/>
	<path class="st0" d="M1128,1152c1.6-2.3,3.6-4.5,6-6.4v-25.4c-2.1,0.7-4.1,1.4-6,2.3V1152z"/>
	<path class="st0" d="M1152,1138.6c1.9-0.2,3.9-0.4,6-0.4v-21.7c-2.1,0-4.1,0.1-6,0.3V1138.6z"/>
	<path class="st0" d="M354,1002c1.8,3.8,3.8,7.3,6,10.7V879.5c-2.2,3.4-4.2,7-6,10.8V1002z"/>
	<path class="st0" d="M426,593.9c2-0.3,4-0.5,6-0.7v-23c-2,0.1-4,0.3-6,0.5v2.8h-6v22.9h6V593.9z"/>
	<path class="st0" d="M378,903.6c1.6-4.9,3.6-9.3,6-13.3v-35.2c-2.1,1.4-4.1,2.8-6,4.4V903.6z"/>
	<path class="st0" d="M564,477.5c-1.9,1.3-3.9,2.6-6,3.6v22.6c2.1-0.9,4.1-1.8,6-2.8V477.5z"/>
	<path class="st0" d="M534,509.5c2-0.2,4-0.5,6-0.8v-22c-1.9,0.3-3.9,0.5-6,0.7V509.5z"/>
	<polygon class="st0" points="42,669.9 36,685.3 36,755.4 42,739.3 	"/>
	<rect x="126" y="398.9" class="st0" width="6" height="24.6"/>
	<path class="st0" d="M528,1143.6c1.8,5.2,3.9,11.2,6,17.1v-47.3h-6V1143.6z"/>
	<path class="st0" d="M102,509.8c2,0.1,4,0.1,6,0.1v-22.4c-2,0-4.1-0.1-6-0.3V509.8z"/>
	<path class="st0" d="M78,506.4c2,0.5,4,0.9,6,1.3v-23.4c-2.1-0.6-4.1-1.2-6-2V506.4z"/>
	<path class="st0" d="M984,985.9h6v-23.2h-6v10.1c-1.5-8.3-2.4-17.6-2.4-27.8c0-10,0.8-19.3,2.4-27.6v-13.7l6,16V908l6,0.9v-39.7
		c-2.4,3.2-4.4,6.5-6,10v-24.9l-4.2-10.8H984v18.7c-2.1,1.9-4.1,3.8-6,5.9v155.6c1.9,2,3.9,3.9,6,5.7V985.9z"/>
	<rect x="150" y="398.9" class="st0" width="6" height="24.6"/>
	<path class="st0" d="M318,171.1c-1.3,7.1-3.3,13.4-6,18.8v30.4c2.1-2,4.1-4.1,6-6.4V171.1z"/>
	<polygon class="st0" points="180,398.9 174,398.9 174,485.6 175.7,506.5 180,506.5 	"/>
	<path class="st0" d="M270,231.7c1.9,0.9,3.9,1.7,6,2.5v-29.6c-2.2-1.9-4.2-4-6-6.3v18.9c-1.9,0.2-3.9,0.4-6,0.5v22.2
		c2-0.1,4-0.3,6-0.6V231.7z"/>
	<polygon class="st0" points="66,608.6 60,624 60,690.4 66,674.2 	"/>
	<path class="st0" d="M960,1302.6c2.1-1.3,4.1-2.6,6-4v-42c-1.6,4.3-3.6,8.3-6,12.2V1302.6z"/>
	<path class="st0" d="M984,1279.8c2.2-3.2,4.2-6.6,6-10.1v-108.9c-1.8-3.6-3.8-7-6-10.2V1279.8z"/>
	<rect x="888" y="1293.9" class="st0" width="6" height="22.6"/>
	<polygon class="st0" points="480,1265.9 483.7,1255.9 486,1255.9 486,1181.8 480,1197.1 	"/>
	<path class="st0" d="M912,1316.3c2-0.1,4-0.2,6-0.4v-23c-1.9,0.3-3.9,0.5-6,0.6V1316.3z"/>
	<rect x="1176" y="1293.6" class="st0" width="6" height="22.9"/>
	<path class="st0" d="M1254,1165.9c-2.8,8.1-4.7,17-6,26.6v52.9c1.3,10.1,3.3,19.1,6,27.2v-19c2-1.3,4-2.7,6-4V1222
		c-2,1.2-4.1,2.5-6,3.6V1165.9z"/>
	<rect x="1128" y="1293.6" class="st0" width="6" height="22.9"/>
	<rect x="1152" y="1293.6" class="st0" width="6" height="22.9"/>
	<rect x="864" y="1293.9" class="st0" width="6" height="22.6"/>
	<path class="st0" d="M936,1312.7c2-0.5,4-1.1,6-1.8v-25.2c-1.9,1-3.9,1.9-6,2.7V1312.7z"/>
	<polygon class="st0" points="576,1273.7 582,1289.6 582,1219.8 576,1204.4 	"/>
	<rect x="552" y="1232.7" class="st0" width="6" height="23.2"/>
	<rect x="528" y="1232.7" class="st0" width="6" height="23.2"/>
	<polygon class="st0" points="600,1316.5 606,1316.5 606,1281.3 600,1265.9 	"/>
	<rect x="504" y="1232.7" class="st0" width="6" height="23.2"/>
	<path class="st0" d="M768,1311.7c0.8,1.6,1.8,3.2,2.8,4.8h3.2v-86.9c-1.8-1.5-3.8-2.8-6-4V1311.7z"/>
	<rect x="672" y="1210.1" class="st0" width="6" height="22.3"/>
	<rect x="840" y="1113.5" class="st0" width="6" height="203"/>
	<rect x="696" y="1210.1" class="st0" width="6" height="22.3"/>
	<path class="st0" d="M1104,1316.5h6V1257c-2.1,2.4-4.1,5-6,7.7V1316.5z"/>
	<rect x="894" y="392.2" class="st0" width="6" height="23.5"/>
	<rect x="1680" y="1293.6" class="st0" width="6" height="22.9"/>
	<rect x="1632" y="1293.6" class="st0" width="6" height="22.9"/>
	<path class="st0" d="M684,465.5c-2.3-3.3-4.3-6.9-6-10.8V494c1.9,1.3,3.9,2.6,6,3.7V465.5z"/>
	<rect x="1656" y="1293.6" class="st0" width="6" height="22.9"/>
	<path class="st0" d="M1164,506.5v-203h-2v116.9c0,8.4,0.6,34.8,1.5,51.6h-0.3c-1.7-3.2-3.4-6.5-5.2-9.8v43.9l0.2,0.4H1164z"/>
	<polygon class="st0" points="486,167.6 480,161.6 480,189.3 486,195.3 	"/>
	<path class="st0" d="M84,302.5c-2,0.4-4,0.9-6,1.5v24.7c1.9-0.8,3.9-1.5,6-2.2V302.5z"/>
	<path class="st0" d="M192,218.9c1.9,1.7,3.9,3.2,6,4.7v-40.4c-2.7-6.3-4.7-13.4-6-21.4V218.9z"/>
	<path class="st0" d="M1584,1316.5h6v-61.9c-2.1,2.3-4.1,4.7-6,7.2V1316.5z"/>
	<path class="st0" d="M1440,1316.5h6v-22.9h-5.6c1.1-4.8,3-9.2,5.6-13.4v-34.9c-2.1,1.8-4.1,3.6-6,5.5V1316.5z"/>
	<path class="st0" d="M1368,1297.2c2.2-2.6,4.2-5.5,6-8.6v-140.7c-1.8-3.1-3.8-5.9-6-8.6V1297.2z"/>
	<path class="st0" d="M1416,1316.5h6v-41.4c-2.3,4.5-4.3,9.5-6,14.8V1316.5z"/>
	<path class="st0" d="M1320,1320c2,0,4-0.2,6-0.4v-21.9c-1.9,0.3-3.9,0.5-6,0.5V1320z"/>
	<path class="st0" d="M1344,1289.8v25.4c2.1-0.8,4.1-1.8,6-2.8V1283C1348.2,1285.5,1346.2,1287.8,1344,1289.8z"/>
	<path class="st0" d="M1566,1316.5v-10.4c-0.5,3.3-0.9,6.8-1.2,10.4H1566z"/>
	<rect x="1608" y="1293.6" class="st0" width="6" height="22.9"/>
	<rect x="1512" y="1293.6" class="st0" width="6" height="22.9"/>
	<rect x="1464" y="1293.6" class="st0" width="6" height="22.9"/>
	<rect x="1488" y="1293.6" class="st0" width="6" height="22.9"/>
	<polygon class="st0" points="336,1244.2 342,1265.2 342,1179.6 336,1158 	"/>
	<rect x="618" y="932.2" class="st0" width="6" height="23.5"/>
	<polygon class="st0" points="552,1209 558,1225.1 558,1158.2 552,1142.8 	"/>
	<rect x="642" y="932.2" class="st0" width="6" height="23.5"/>
	<rect x="60" y="692.7" class="st0" width="6" height="23.2"/>
	<polygon class="st0" points="660,673.8 660,693.3 666,693.3 666,685.7 672,685.7 672,710.6 678,733.6 678,633.4 672,607.3 
		672,662.2 666,662.2 666,673.8 	"/>
	<path class="st0" d="M792,1185.5c0.7-3.9,1.1-7.9,1.1-12.2c0-5.2-0.4-10-1.1-14.3V1185.5z"/>
	<path class="st0" d="M756,486.1c-1.9,0.4-3.9,0.7-6,1v22.1c2-0.3,4-0.6,6-1V486.1z"/>
	<path class="st0" d="M810,922.5c0.3,0.5,0.6,1,0.8,1.4l5.2,8.4v-45.9l-6-9.7V922.5z"/>
	<path class="st0" d="M780,474.8c-1.9,1.6-3.9,3.1-6,4.4v23c2.1-1,4.1-2.1,6-3.2V474.8z"/>
	<rect x="282" y="843.5" class="st0" width="6" height="23.5"/>
	<rect x="282" y="932.2" class="st0" width="6" height="23.5"/>
	<rect x="258" y="843.5" class="st0" width="6" height="23.5"/>
	<polygon class="st0" points="306,843.5 306,867 312,867 312,1023 306,1023 306,1046.5 312,1046.5 318,1046.5 318,843.5 312,843.5 	
		"/>
	<rect x="306" y="932.2" class="st0" width="4.6" height="23.5"/>
	<rect x="234" y="843.5" class="st0" width="6" height="23.5"/>
	<path class="st0" d="M324,660.2v45.3c3.7,5.6,5.1,13.1,5.1,23.1c0,9.8,0.2,17.4,0.9,23.5v-68.9c-0.4-0.2-0.8-0.3-1.1-0.5
		c0.4-0.1,0.8-0.3,1.1-0.4v-29.4C328.4,655.9,326.4,658.2,324,660.2z"/>
	<path class="st0" d="M768,1220.1c2.1-1.1,4.1-2.4,6-3.9v-88.8c-1.9-1.4-3.9-2.7-6-3.9V1220.1z"/>
	<rect x="258" y="932.2" class="st0" width="6" height="23.5"/>
	<rect x="234" y="932.2" class="st0" width="6" height="23.5"/>
	<polygon class="st0" points="768,866.4 774,866.4 774,843.5 768,843.5 762,843.5 762,1046.5 768,1046.5 	"/>
	<polygon class="st0" points="216,1239.3 222,1262.4 222,1160.7 216,1134.7 	"/>
	<path class="st0" d="M240,1316.5h6v-51c-1.3-5.9-3.1-13.9-6-26.7V1316.5z"/>
	<polygon class="st0" points="192,1147 198,1170.1 198,1113.5 192,1113.5 	"/>
	<polygon class="st0" points="264,1316.1 270,1294.9 270,1212.2 264,1234.2 	"/>
	<polygon class="st0" points="168,1316.5 174,1316.5 174,1283.8 168,1268.4 	"/>
	<path class="st0" d="M306,685.7h4.6v-23.5H306v5.9c-2,0.4-4,0.7-6,1v24.3c2.1,0.3,4.1,0.7,6,1.1V685.7z"/>
	<polygon class="st0" points="408,1118.8 408,1225.1 414,1202.1 414,1113.5 409.2,1113.5 	"/>
	<polygon class="st0" points="438,1316.5 438,1304.4 433.3,1316.5 	"/>
	<path class="st0" d="M360,1316.5h6v-49.3c-1.7-6.7-3.7-14.1-6-22.7V1316.5z"/>
	<polygon class="st0" points="144,1276.3 150,1292.1 150,1222.3 144,1206.9 	"/>
	<polygon class="st0" points="384,1316.5 384.2,1316.5 390,1294.4 390,1198.5 384,1225.1 	"/>
	<path class="st0" d="M54,1179.3l-6,15.3v68.6l2.7-7.4H54v10.8c1.9-1.8,3.9-3.5,6-5.2v-29c-2,1.3-4,2.7-6,4.1V1179.3z"/>
	<path class="st0" d="M726,1113.8c-2-0.1-4-0.2-6-0.2v22.6c2,0,4,0.1,6,0.2V1113.8z"/>
	<polygon class="st0" points="456,1316.5 461.1,1316.5 462,1314.1 462,1243.1 456,1258.4 	"/>
	<rect x="120" y="1232.7" class="st0" width="6" height="23.2"/>
	<rect x="666" y="932.2" class="st0" width="6" height="23.5"/>
	<path class="st0" d="M744,1138.9c2.1,0.6,4.1,1.4,6,2.3v-24.4c-2-0.5-4-0.9-6-1.2V1138.9z"/>
	<path class="st0" d="M786,1046.5h1V929.6c0-4.6-0.4-24-1-41.6V1046.5z"/>
	<path class="st0" d="M1152,1252.1c2-1.3,4-2.6,6-3.9v-27.5c-2,1.3-4,2.5-6,3.7V1252.1z"/>
	<path class="st0" d="M1710,303.5v43.6c2.1,6,4.1,11.7,6,17.1v-37.8h6v-22.9h-6L1710,303.5L1710,303.5z"/>
	<path class="st0" d="M1758,405.3v69l6,15.6v-68.5c-0.4-1-0.7-2-1.1-3L1758,405.3z"/>
	<polygon class="st0" points="1740,357.1 1734,341.1 1734,412 1740,427.6 	"/>
	<rect x="1566" y="303.5" class="st0" width="3.7" height="23.5"/>
	<polygon class="st0" points="1620,326.4 1626,326.4 1626,506.5 1632,506.5 1632,303.5 1626,303.5 1626,303.5 1620,303.5 
		1614,303.5 1614,506.5 1620,506.5 	"/>
	<path class="st0" d="M1860,303.5h-6v53.7c1.8-5.2,3.8-10.9,6-17.2V303.5z"/>
	<path class="st0" d="M1783.8,477.2c-0.5-1.7-1.1-3.4-1.8-5.3v34.6h6v-41.2c-1.5,4.5-2.9,8.5-4,11.9H1783.8z"/>
	<polygon class="st0" points="1356,412 1360,422.7 1356,422.7 1356,445.9 1362,445.9 1362,360.7 1356,345.3 1356,392.2 1350,392.2 
		1350,415.7 1356,415.7 	"/>
	<rect x="1302" y="392.2" class="st0" width="6" height="23.5"/>
	<rect x="1326" y="392.2" class="st0" width="6" height="23.5"/>
	<polygon class="st0" points="1476,326.1 1482,326.1 1482,303.5 1476,303.5 1470,303.5 1470,327 1476,327 	"/>
	<path class="st0" d="M1524,326.3c2,0.1,4,0.2,6,0.4v-22.6c-2-0.1-4-0.3-6-0.3v-0.2h-6V327h6V326.3z"/>
	<path class="st0" d="M1380,476.5l6,15.9v17.1c2-0.2,4-0.4,6-0.7v-23.2c-1.9,0.5-3.9,0.9-6,1.2v-64.6l-6-15.4V303.5h-6v203h6V476.5z
		"/>
	<path class="st0" d="M30,1240.6l-6,15.3v60.6h4.1l1.9-5v5h6v-65c-2.1,2.1-4.1,4.3-6,6.6V1240.6z"/>
	<path class="st0" d="M246,216.9c-2.1-0.2-4.1-0.5-6-0.9v22.9c2,0.2,4,0.5,6,0.6V216.9z"/>
	<path class="st0" d="M516,506.5h3.7V398.9H516v88.3c-2.1-0.2-4.1-0.4-6-0.7v22.7c2,0.2,4,0.4,6,0.5V506.5z"/>
	<path class="st0" d="M348,477.3c-1.9,1.3-3.9,2.4-6,3.5V507c2.1-0.5,4.1-1,6-1.6V477.3z"/>
	<rect x="534" y="398.9" class="st0" width="6" height="24.6"/>
	<polygon class="st0" points="612,618.5 612,748.4 618,748.4 618,685.7 624,685.7 624,662.2 618,662.2 618,618.5 	"/>
	<rect x="18" y="843.5" class="st0" width="6" height="22.9"/>
	<path class="st0" d="M588,398.9h-6v24.6h4.4c-0.1,10.9-1.6,20.5-4.4,28.6V487c2.1-2.3,4.1-4.8,6-7.4V398.9z"/>
	<rect x="558" y="398.9" class="st0" width="6" height="24.6"/>
	<rect x="606" y="398.9" class="st0" width="6" height="107.6"/>
	<path class="st0" d="M156,311.5c-2-1.1-4-2.1-6-3v30.8c2.2,2.2,4.2,4.6,6,7.1V311.5z"/>
	<path class="st0" d="M108,300c-2,0-4,0.1-6,0.2v23c2-0.1,4-0.2,6-0.2V300z"/>
	<path class="st0" d="M132,302.5c-2-0.4-4-0.8-6-1.1v23.8c2.1,0.6,4.1,1.3,6,2.1V302.5z"/>
	<path class="st0" d="M54,496.5c1.9,1.2,3.9,2.3,6,3.3v-29.6c-1.3-1.4-2.6-3-3.7-4.6c-0.8-1.1-1.5-2.3-2.3-3.5V496.5z"/>
	<polygon class="st0" points="18,731.2 12,746.6 12,776.5 18,776.5 	"/>
	<rect x="288" y="128.9" class="st0" width="6" height="24.6"/>
	<rect x="312" y="128.9" class="st0" width="6" height="24.6"/>
	<polygon class="st0" points="642,685.7 648,685.7 648,662.2 642,662.2 642,673.8 636,673.8 636,693.3 642,693.3 	"/>
	<rect x="1182" y="303.5" class="st0" width="5.8" height="203"/>
	<path class="st0" d="M216,233.1c1.9,0.7,4,1.4,6,2v-24.8c-2.1-1.1-4.1-2.2-6-3.6V233.1z"/>
	<path class="st0" d="M174,367.6l6-1.2V332c-1.9-2.4-3.9-4.8-6-6.9V367.6z"/>
	<rect x="264" y="128.9" class="st0" width="6" height="24.6"/>
	<path class="st0" d="M294,36.6c-2-0.8-4-1.4-6-2.1V61c2.1,1.3,4.1,2.7,6,4.2V36.6z"/>
	<path class="st0" d="M270,30.8c-2-0.2-4-0.4-6-0.5v23c2.1,0.2,4.1,0.5,6,0.9V30.8z"/>
	<path class="st0" d="M342,88.1c-1.7-5.1-3.7-9.8-6-14.2V95l6-1.2V88.1z"/>
	<path class="st0" d="M318,98.5V50.9c-1.9-1.7-3.9-3.3-6-4.7v43.6c1.3,3,2.4,6.1,3.2,9.3L318,98.5z"/>
	<path class="st0" d="M216,64.6c1.9-1.4,3.9-2.6,6-3.7V35.4c-2,0.7-4,1.4-6,2.2V64.6z"/>
	<polygon class="st0" points="462,143.4 462,143.4 462,143.4 462,115.8 456,121.8 456,165.3 462,171.3 	"/>
	<path class="st0" d="M192,108.7c1.3-7.7,3.3-14.6,6-20.7V47.8c-2.1,1.6-4.1,3.2-6,4.9V108.7z"/>
	<polygon class="st0" points="486,91.8 480,97.8 480,125.4 486,119.4 	"/>
	<polygon class="st0" points="408,195 409.2,196.2 414,191.4 414,163.8 408,169.8 	"/>
	<path class="st0" d="M390,464c2.1-7.3,3.2-15.5,3.2-24.5v-136H390V464z"/>
	<polygon class="st0" points="408,91.5 408,117.2 414,123.1 414,95.7 408.9,90.6 	"/>
	<path class="st0" d="M486,332.4c1.9-1.2,3.9-2.2,6-3.2v39.3l6-1.2v-40.6c-1.9-2.1-3.9-4-6-5.8v-16.6c-2,0.6-4,1.3-6,2V332.4z"/>
	<polygon class="st0" points="6,1316.5 6,1301.9 0.3,1316.5 	"/>
	<path class="st0" d="M54,226.5c1.9,1.2,3.9,2.3,6,3.3v-29.6c-1.3-1.4-2.6-3-3.7-4.6c-0.8-1.1-1.5-2.3-2.3-3.5v21.5h-3.8V33.5H48
		v203h6V226.5z"/>
	<path class="st0" d="M36,330.6c-2.1,2.5-4.1,5.2-6,8v135c1.9,2.7,3.9,5.3,6,7.8v-27.1l6,5.9v-15.4l-6,6v-74.5l6,6v-15.7l-6,6.1
		V330.6z"/>
	<path class="st0" d="M30,203.6c1.9,2.7,3.9,5.3,6,7.8V60.6c-2.1,2.5-4.1,5.2-6,8v-35h-5.9v203H30V203.6z"/>
	<path class="st0" d="M60,311.2c-2.1,1.1-4.1,2.3-6,3.5v34.6c0.7-1.2,1.5-2.3,2.3-3.5c1.2-1.6,2.4-3.1,3.7-4.6V311.2z"/>
	<path class="st0" d="M150,230.2c2.1-1.1,4.1-2.4,6-3.7V201c-1.8,2-3.8,3.9-6,5.5v7.1h-6v22.9h6V230.2z"/>
	<path class="st0" d="M78,236.4c2,0.5,4,0.9,6,1.3v-23.4c-2.1-0.6-4.1-1.2-6-2v1.2h-6v22.9H78L78,236.4z"/>
	<path class="st0" d="M684,313.4c-2.1,1.3-4.1,2.6-6,4v39.2c1.7-3.8,3.7-7.3,6-10.5V313.4z"/>
	<rect x="918" y="303.5" class="st0" width="6" height="23.5"/>
	<rect x="942" y="303.5" class="st0" width="6" height="23.5"/>
	<rect x="966" y="303.5" class="st0" width="6" height="23.5"/>
	<rect x="894" y="303.5" class="st0" width="6" height="23.5"/>
	<path class="st0" d="M516,300.3c-2,0.1-4,0.3-6,0.5V324c2-0.3,4-0.6,6-0.7V300.3z"/>
	<path class="st0" d="M822,360v3.7l1-0.2C822.7,362.3,822.3,361.2,822,360z"/>
	<polygon class="st0" points="1116,391.4 1110,381.7 1110,428 1116,437.8 	"/>
	<polygon class="st0" points="1086,389 1092,398.7 1092,352.8 1086,343.1 	"/>
	<rect x="1038" y="303.5" class="st0" width="6" height="203"/>
	<rect x="990" y="303.5" class="st0" width="5.6" height="23.5"/>
	<path class="st0" d="M1062,345.9c1.9,3.7,4,7.5,6,11.3v-43.1l-6-9.7V345.9z"/>
	<rect x="870" y="303.5" class="st0" width="6" height="203"/>
	<path class="st0" d="M660,335.4c-2.2,3-4.2,6.1-6,9.4v122.5c1.8,3.3,3.8,6.3,6,9.2V335.4z"/>
	<path class="st0" d="M804,327.5c-1.9-2.1-3.9-4.1-6-6v46.9l6-1.2V327.5z"/>
	<path class="st0" d="M606,350.6v13.8l4.4-0.9C609.2,359,607.7,354.7,606,350.6z"/>
	<path class="st0" d="M564,307.9c-2-0.9-4-1.6-6-2.3v27.6c2.1,1.5,4.1,3.2,6,4.9V307.9z"/>
	<path class="st0" d="M534,323.6c2.1,0.3,4.1,0.7,6,1.2v-23.7c-2-0.3-4-0.5-6-0.7V323.6z"/>
	<path class="st0" d="M588,367.9v-44c-1.9-1.9-3.9-3.6-6-5.3V369v0.1L588,367.9z"/>
	<path class="st0" d="M780,341.6v-32.1c-2-1-4-1.8-6-2.6v28.9C776.2,337.6,778.2,339.5,780,341.6z"/>
	<path class="st0" d="M756,301.7c-2-0.4-4-0.7-6-0.9v23.4c2.1,0.4,4.1,1,6,1.6V301.7z"/>
	<path class="st0" d="M726,323.5c2-0.2,4-0.4,6-0.5v-23c-2,0.1-4,0.2-6,0.3V323.5z"/>
	<path class="st0" d="M1140,430c-0.8-1.3-1.6-2.6-2.4-3.9l-3.7-5.9V467l6,9.8L1140,430L1140,430z"/>
	<path class="st0" d="M708,303.4c-2,0.5-4,1.1-6,1.7v25.3c1.9-1,3.9-1.9,6-2.7V303.4z"/>
	<path class="st0" d="M1488,1138.4c2.1,0.2,4.1,0.5,6,1V1117c-2-0.2-4-0.4-6-0.5V1138.4z"/>
	<path class="st0" d="M1632,1116.6v21.8c1.5-0.1,3.1-0.2,4.7-0.2c0.4,0,0.8,0,1.3,0v-21.8h-0.1
		C1635.9,1116.4,1633.9,1116.5,1632,1116.6z"/>
	<path class="st0" d="M1656,1142.6c2.2,1.3,4.2,2.8,6,4.6v-26.7c-1.9-0.7-3.9-1.3-6-1.9V1142.6z"/>
	<path class="st0" d="M1608,1149.3c1.7-1.9,3.7-3.7,6-5.3v-24.5c-2.1,0.6-4.1,1.3-6,2V1149.3z"/>
	<path class="st0" d="M1650,1047.9c2-0.4,4-0.9,6-1.5v-22.1c-1.9,0.6-3.9,1.2-6,1.6V1047.9z"/>
	<path class="st0" d="M1416,1027.6c-0.9,0-1.9,0.1-2.8,0.1c-1.1,0-2.1,0-3.2-0.1v22.3c1,0,2.1,0.1,3.2,0.1c1,0,1.9,0,2.8,0V1027.6z"
		/>
	<path class="st0" d="M1584,1178.8l6,0.9V1133c-2.2,2.2-4.2,4.5-6,6.9V1178.8z"/>
	<path class="st0" d="M1512,1151.8c3.7,5.9,5.6,13.5,5.6,22.9c0,7.5-2.1,14-5.6,19.7v34.5c2-1.5,4.1-3.1,6-4.7v-99.1
		c-1.9-1.2-3.9-2.2-6-3.2V1151.8z"/>
	<path class="st0" d="M1560,867.2c-2.1,2.3-4.1,4.6-6,7.1v143.3c1.9,2.4,3.9,4.7,6,6.9v21.9h6V1023h-6v-67.3h6v-23.5h-6V867.2z"/>
	<path class="st0" d="M1488,1244.6c1.9-1.2,3.9-2.4,5.8-3.5c0.1,0,0.2-0.1,0.2-0.1v-28.1c-2,1.4-4,2.8-6,4.2V1244.6z"/>
	<path class="st0" d="M1464,1232v28.9c1.9-1.5,3.9-3,6-4.5v-28.2c-0.7,0.4-1.4,0.9-2,1.3C1466.6,1230.3,1465.3,1231.2,1464,1232z"/>
	<path class="st0" d="M1608,1269.7c1.9-1.9,3.9-3.8,6-5.7v-29.5c-2,1.4-4,2.8-6,4.2V1269.7z"/>
	<path class="st0" d="M1536,916c-1.8,9.1-2.8,18.8-2.8,29c0,11.1,1,21.3,2.8,30.8v-20h6v-23.5h-6V916z"/>
	<path class="st0" d="M1632,1250.8c2-1.3,4-2.6,6-3.8v-27.5c-2,1.3-4,2.5-6,3.7V1250.8z"/>
	<path class="st0" d="M1584,1013.2c-2.2-2-4.2-4.2-6-6.6v31.6c1.9,1.1,3.9,2.1,6,3v5.3h6V1023h-6V1013.2z"/>
	<path class="st0" d="M1440,1180.3l4.8,0.7c0-3.9,0.3-8.7,1.2-13.6v-41.8c-2.2,1.3-4.1,2.7-6,4.2V1180.3z"/>
	<path class="st0" d="M1440,1023.5c-1.9,0.7-3.9,1.3-6,1.8v22.9c2-0.4,4-0.8,6-1.3V1023.5z"/>
	<rect x="1494" y="483" class="st0" width="6" height="23.5"/>
	<rect x="1518" y="483" class="st0" width="6" height="23.5"/>
	<path class="st0" d="M1632,1027.6c-2,0-4-0.1-6-0.2v22.4c1.2,0,2.3,0.1,3.5,0.1c0.8,0,1.7,0,2.5,0V1027.6z"/>
	<rect x="1674" y="938.9" class="st0" width="6" height="24.6"/>
	<path class="st0" d="M1656,1206.1v29.6c2-1.3,4-2.7,6-4.1v-31.9C1660.2,1201.9,1658.2,1204.1,1656,1206.1z"/>
	<rect x="1650" y="938.9" class="st0" width="6" height="24.6"/>
	<rect x="1631.8" y="938.9" class="st0" width="0.2" height="24.6"/>
	<path class="st0" d="M1674,1038.4c2.1-1.3,4.1-2.7,6-4.2v-26.8c-1.8,2.4-3.8,4.6-6,6.6V1038.4z"/>
	<path class="st0" d="M1422,1177.5v-20.9c-2.2,7.1-3.1,14.2-3,20.4L1422,1177.5z"/>
	<rect x="1290" y="1023.6" class="st0" width="6" height="22.9"/>
	<rect x="1266" y="1023.6" class="st0" width="6" height="22.9"/>
	<path class="st0" d="M1344,866.9c-2.1,2.2-4.1,4.6-6,7v144.2c1.9,2.4,3.9,4.7,6,6.8v-30.2l6,16.5v-72.1l-6-17.7V866.9z"/>
	<rect x="942" y="483" class="st0" width="6" height="23.5"/>
	<rect x="864" y="1113.5" class="st0" width="6" height="22.6"/>
	<path class="st0" d="M936,1141.8c2.1,0.8,4.1,1.7,6,2.8v-25.4c-2-0.7-4-1.3-6-1.8V1141.8z"/>
	<path class="st0" d="M912,1136.5c2,0.2,4,0.4,6,0.7v-23.1c-2-0.2-4-0.3-6-0.4V1136.5z"/>
	<rect x="888" y="1113.5" class="st0" width="6" height="22.6"/>
	<rect x="918" y="483" class="st0" width="6" height="23.5"/>
	<path class="st0" d="M1464,1142c1.8-0.9,3.8-1.6,6-2.2v-22.3c-2.1,0.3-4.1,0.7-6,1.1V1142z"/>
	<path class="st0" d="M1482,1023.1c2.1-2.2,4.1-4.6,6-7V874.2c-1.9-2.5-3.9-4.8-6-7.1V1023.1z"/>
	<path class="st0" d="M1368,878.2v-28.7c-2.1,1-4.1,2-6,3.2v31.8C1363.7,882.3,1365.7,880.2,1368,878.2z"/>
	<path class="st0" d="M1506,975.7c2.1-9.6,3.1-19.8,3.1-30.7c0-10.7-1.1-20.9-3.1-30.4V975.7z"/>
	<path class="st0" d="M1458,1012.1v28.4c2.1-1,4.1-2.1,6-3.2v-32.5l-0.1,0.1C1462.1,1007.6,1460.1,1010,1458,1012.1z"/>
	<path class="st0" d="M960,1161.6c2.4,3.8,4.4,7.8,6,12.1v-41.9c-1.9-1.5-3.9-2.8-6-4.1V1161.6z"/>
	<path class="st0" d="M1698,907.1l6-1.2v-29.7c-1.9-2.8-3.9-5.4-6-7.8V907.1z"/>
	<path class="st0" d="M1464,852.8c-1.9-1.1-3.9-2.2-6-3.2v29.1c2.1,2.2,4.1,4.5,5.9,7.1l0.1,0.1V852.8z"/>
	<rect x="1698" y="938.9" class="st0" width="6" height="107.6"/>
	<path class="st0" d="M1536,1203.4c2.7-4.7,4.8-9.9,6-15.6v-27c-1.2-6.1-3.2-11.8-6-16.8V1203.4z"/>
	<path class="st0" d="M1680,1131.4v85c2.1-2.3,4.2-4.7,6-7.2v-71C1684.2,1135.7,1682.2,1133.5,1680,1131.4z"/>
	<path class="st0" d="M1032,841.1c-2,0.3-4,0.6-6,1v24c1.9-0.6,3.9-1,6-1.5V841.1z"/>
	<path class="st0" d="M1002,879.2c1.8-1.7,3.8-3.3,6-4.8v-27.1c-2.1,0.8-4.1,1.7-6,2.7V879.2z"/>
	<rect x="990" y="483" class="st0" width="5.6" height="23.5"/>
	<rect x="966" y="483" class="st0" width="6" height="23.5"/>
	<path class="st0" d="M1392,841.9c-2,0.4-4,0.8-6,1.3v24.6c1.9-0.7,3.9-1.4,6-1.9V841.9z"/>
	<rect x="1470" y="483" class="st0" width="6" height="23.5"/>
	<path class="st0" d="M1416,863v-22.9c-0.9,0-1.9,0-2.8,0c-1.1,0-2.1,0-3.2,0v23c1.4-0.1,2.8-0.1,4.3-0.1
		C1414.9,862.9,1415.4,863,1416,863z"/>
	<path class="st0" d="M1440,843.1c-2-0.5-4-0.9-6-1.3v23.4c2.1,0.5,4.1,1.2,6,1.9v41.7l6-16.5v-48.8h-6V843.1z"/>
	<rect x="942" y="392.2" class="st0" width="6" height="23.5"/>
	<rect x="822" y="398.9" class="st0" width="3" height="107.6"/>
	<rect x="774" y="398.9" class="st0" width="6" height="24.6"/>
	<path class="st0" d="M804,398.9h-6v24.6h0.9c-0.1,4.7-0.4,9.2-0.9,13.4v46.2c1.1-1.4,2.2-2.9,3.3-4.4l2.3,27.8h0.4V398.9z"/>
	<rect x="750" y="398.9" class="st0" width="6" height="24.6"/>
	<path class="st0" d="M726,509.6c2,0.1,4,0.2,6,0.3v-22.4c-2-0.1-4.1-0.2-6-0.5V509.6z"/>
	<rect x="894" y="483" class="st0" width="6" height="23.5"/>
	<rect x="918" y="392.2" class="st0" width="6" height="23.5"/>
	<rect x="966" y="392.2" class="st0" width="6" height="23.5"/>
	<polygon class="st0" points="858,1000.6 864,1010.3 864,963.5 858,953.9 	"/>
	<rect x="1218" y="1023.6" class="st0" width="6" height="22.9"/>
	<polygon class="st0" points="1770,913.2 1776,922.8 1776,876 1770,865.9 	"/>
	<polygon class="st0" points="1746,874.9 1752,884.5 1752,843.5 1746,843.5 	"/>
	<polygon class="st0" points="1842,933.5 1848,923.9 1848,876.7 1842,886.9 	"/>
	<polygon class="st0" points="1866,846.2 1866,895.1 1872,885.5 1872,843.5 1867.6,843.5 	"/>
	<rect x="1536" y="1293.6" class="st0" width="6" height="22.9"/>
	<path class="st0" d="M1320,1138.8c2.1,0.1,4.1,0.2,6,0.5v-22.5c-2-0.2-4-0.3-6-0.4V1138.8z"/>
	<path class="st0" d="M1344,1146.8c2.3,1.9,4.2,4.1,6,6.6v-29.3c-1.9-1.1-3.9-2-6-2.9V1146.8z"/>
	<path class="st0" d="M708,483.1c-2.1-0.7-4.1-1.6-6-2.5v24.7c2,0.6,4,1.1,6,1.6V483.1z"/>
	<path class="st0" d="M1818,1046.5h6V917.9c-1.9,3.4-3.9,6.9-6,10.7V1046.5z"/>
	<path class="st0" d="M1632,840.1c-0.8,0-1.7,0-2.5,0c-1.2,0-2.3,0-3.5,0.1V863c1.3-0.1,2.7-0.1,4.1-0.1c0.7,0,1.3,0,1.9,0V840.1z"
		/>
	<path class="st0" d="M1608,841.9c-2,0.4-4,0.8-6,1.3v24.3c1.9-0.7,3.9-1.3,6-1.9v1.4h6v-23.5h-6V841.9z"/>
	<rect x="1566" y="483" class="st0" width="3.7" height="23.5"/>
	<rect x="1542" y="483" class="st0" width="6" height="23.5"/>
	<path class="st0" d="M1656,843.2c-2-0.5-4-0.9-6-1.3v24.2c2.1,0.7,4.1,1.5,6,2.4V843.2z"/>
	<polygon class="st0" points="1728,846.1 1728,843.5 1726.3,843.5 	"/>
	<polygon class="st0" points="1890,856.8 1896,847.2 1896,843.5 1890,843.5 	"/>
	<path class="st0" d="M1680,853.2c-1.9-1.2-3.9-2.3-6-3.3v32.6c2.2,2.6,4.2,5.4,6,8.3V853.2z"/>
	<path class="st0" d="M1794,951.6l5.1,8.2v86.7h0.9V917.2c-2.3-4-4.4-7.7-6-10.5V951.6z"/>
	<path class="st0" d="M882,724.8v44.8l4.2,6.9h1.8h6v-19.6l-6,15.3V736C886,732.3,884,728.5,882,724.8z"/>
	<path class="st0" d="M684,1118c-1.9-0.4-3.9-0.8-6-1v-3.5h-6v22.6h6v3.4c2.1,0.4,4.1,0.9,6,1.5v28.8c0.1,1.6,0.2,3.3,0.2,5.1
		c0,1.6-0.1,3.2-0.2,4.7v44.5c2.1-1.1,4.1-2.4,6-3.8v-92.4c-1.9-1.5-3.9-2.8-6-4V1118z"/>
	<path class="st0" d="M792,847.7l-2.6-4.2H786v34.7c1.8,3.5,3.9,7.5,6,11.5v-23.4h6v-22.9h-6V847.7z"/>
	<polygon class="st0" points="234,776.5 240,776.5 240,753 234,753 234,685.7 240,685.7 240,662.2 234,662.2 234,597 240,597 
		240,573.5 234,573.5 234,573.5 228,573.5 228,776.5 	"/>
	<polygon class="st0" points="264,573.5 258,573.5 258,573.5 252,573.5 252,596.1 258,596.1 258,597 264,597 	"/>
	<path class="st0" d="M1056,570.3c-2-0.1-4-0.2-6-0.2V593c2.1,0,4.1,0.1,6,0.2V570.3z"/>
	<polygon class="st0" points="606,1046.5 606,843.5 600,843.5 600,932.2 594,932.2 594,955.7 600,955.7 600,1046.5 	"/>
	<rect x="336" y="843.5" class="st0" width="0.2" height="203"/>
	<path class="st0" d="M528,992.1l-6-1.6v14.7c2.2-3.6,4.2-7.5,6-11.5v52.8h6v-203h-6V992.1z"/>
	<path class="st0" d="M1854,1138.8c2.1,0.3,4.1,0.8,6,1.5v-22.8c-2-0.3-4-0.6-6-0.8V1138.8z"/>
	<path class="st0" d="M1818,776.5h6V647.9c-1.9,3.4-3.9,6.9-6,10.7V776.5z"/>
	<polygon class="st0" points="1842,663.5 1848,653.9 1848,606.7 1842,616.9 	"/>
	<path class="st0" d="M1080,574.5c-2-0.6-4-1.1-6-1.6v23.9c2.1,0.7,4.1,1.6,6,2.5V574.5z"/>
	<path class="st0" d="M1794,681.6l5.1,8.2v86.7h0.9V647.2c-2.3-4-4.4-7.7-6-10.5V681.6z"/>
	<path class="st0" d="M1866,403.8h-6v-34.5c-0.2,6.7-0.3,12.1-0.3,14.5v122.7h0.3v-83.2h6V403.8z"/>
	<path class="st0" d="M1830,1140.7c1.8-0.7,3.8-1.2,6-1.6v-22c-2.1,0.2-4.1,0.5-6,0.9V1140.7z"/>
	<polygon class="st0" points="1866,576.2 1866,625.1 1872,615.5 1872,573.5 1867.6,573.5 	"/>
	<path class="st0" d="M276,483.6v-9.1c-2.2-1.9-4.2-4-6-6.3v33.4c1.9,0.9,3.9,1.7,6,2.5v2.3h6v-17.1l6-16.1v-69.6l-6,15.3v64.5h-6
		V483.6z"/>
	<path class="st0" d="M1392,571.9c-2,0.4-4,0.8-6,1.3v24.6c1.9-0.7,3.9-1.4,6-1.9v7.2c2.1,1,4.1,2,6,3.2v-26c-2-0.7-4-1.4-6-2V571.9
		z"/>
	<path class="st0" d="M402,602c1.9-1.1,3.9-2.2,6-3.1v-24.8c-2,0.6-4,1.2-6,1.9v-2.6h-6v22.9h6V602z"/>
	<path class="st0" d="M1632,570.1c-0.8,0-1.7,0-2.5,0c-1.2,0-2.3,0-3.5,0.1V593c1.3-0.1,2.7-0.1,4.1-0.1c0.7,0,1.3,0,1.9,0V570.1z"
		/>
	<path class="st0" d="M288,662.2h-6v7.8c-0.7,0-1.4,0-2.2,0H276v22.3h6v-6.7h6V662.2z"/>
	<path class="st0" d="M426,506.5h6v-5.7l-6-15.4v2c-2-0.1-4.1-0.3-6-0.5v22.6c2,0.2,4,0.3,6,0.3V506.5z"/>
	<path class="st0" d="M402,494.1l4.7,12.4h1.3v-67.3l-6-15.4v59.1c-2.1-0.8-4.1-1.6-6-2.6v24.8c2,0.6,4,1.1,6,1.6V494.1z"/>
	<path class="st0" d="M450,301.6c-2-0.3-4-0.6-6-0.8v23.3c2.1,0.4,4.1,0.9,6,1.5V301.6z"/>
	<path class="st0" d="M384,730.5c-2.4-4.1-4.4-8.6-6-13.5v45c1.9,1.5,3.9,2.8,6,4.1V730.5z"/>
	<path class="st0" d="M378,633.6c1.6-4.9,3.6-9.3,6-13.3v-35.2c-2.1,1.4-4.1,2.8-6,4.4v-16h-0.7v22.9h0.7V633.6z"/>
	<path class="st0" d="M402,774.5c2,0.6,4,1.2,6,1.8v-24.4c-2.1-0.9-4.1-1.9-6-3V774.5z"/>
	<path class="st0" d="M576,573.5h-6v100.3h-6v19.4h6v83.2h6v-60.6h6v-87.7l-6-15.4V573.5z M581,692.7h-5v-13.3L581,692.7z"/>
	<rect x="282" y="753" class="st0" width="6" height="23.5"/>
	<rect x="258" y="753" class="st0" width="6" height="23.5"/>
	<polygon class="st0" points="1842,478.4 1842,348.5 1837.1,348.5 1837.1,403.8 1836,403.8 1836,334.4 1830,350.5 1830,421.1 
		1836,405.5 1836,423.3 1837.1,423.3 1837.1,478.4 	"/>
	<rect x="306" y="753" class="st0" width="6" height="23.5"/>
	<path class="st0" d="M324,486.1c-2,0.3-4,0.5-6,0.6V510c2-0.1,4-0.2,6-0.3v-3.1h5.1v-22.9H324V486.1z"/>
	<path class="st0" d="M288,573.5h-6l0,0c-0.6,0-1.2,0-1.9,0H276v22.6h4.1c0.6,0,1.2,0,1.9,0v0.9h6V573.5z"/>
	<polygon class="st0" points="264,662.2 258,662.2 258,670.1 252,670.1 252,692.4 258,692.4 258,685.7 264,685.7 	"/>
	<path class="st0" d="M312,573.5h-6v1.3c-2-0.3-4-0.5-6-0.6v22.6c2,0.2,4,0.5,6,0.9V597h6V573.5z"/>
	<polygon class="st0" points="1890,586.8 1896,577.2 1896,573.5 1890,573.5 	"/>
	<path class="st0" d="M1464,734.9L1464,734.9c-1.9,2.7-3.9,5-6,7.2v28.4c2.1-1,4.1-2.1,6-3.2V734.9z"/>
	<polygon class="st0" points="1500,422.4 1506,422.4 1506,506.5 1512,506.5 1512,303.5 1506,303.5 1506,303.5 1500,303.5 
		1494,303.5 1494,327 1500,327 1500,326.1 1506,326.1 1506,400.1 1500,400.1 1500,392.2 1494,392.2 1494,415.7 1500,415.7 	"/>
	<path class="st0" d="M1506,705.7c2.1-9.6,3.1-19.8,3.1-30.7c0-10.7-1.1-20.9-3.1-30.4V705.7z"/>
	<path class="st0" d="M1488,604.2c-1.9-2.5-3.9-4.8-6-7.1v156c2.1-2.2,4.1-4.6,6-7V604.2z"/>
	<path class="st0" d="M1536,646c-1.8,9.1-2.8,18.8-2.8,29c0,11.1,1,21.3,2.8,30.8V646z"/>
	<rect x="1536" y="843.5" class="st0" width="6" height="23.5"/>
	<rect x="1560" y="843.5" class="st0" width="6" height="23.5"/>
	<path class="st0" d="M1578,736.5v31.6c1.9,1.1,3.9,2.1,6,3v-28C1581.8,741.2,1579.8,739,1578,736.5z"/>
	<path class="st0" d="M1548,428.1c2.3,1.3,4.3,2.9,6,4.7v-17.1h6v-23.5h-6v-0.4c-1.9,1.3-3.9,2.4-6,3.3v-2.9h-6v23.5h6V428.1z"/>
	<path class="st0" d="M1602,777.1c2,0.4,4,0.8,6,1.2v-23.2c-2.1-0.5-4.1-1.1-6-1.7V777.1z"/>
	<rect x="1631.8" y="668.9" class="st0" width="0.2" height="24.6"/>
	<path class="st0" d="M1656,754.3c-1.9,0.6-3.9,1.2-6,1.6v22c2-0.4,4-0.9,6-1.5V754.3z"/>
	<rect x="1698" y="668.9" class="st0" width="6" height="107.6"/>
	<path class="st0" d="M1680,737.4c-1.8,2.4-3.8,4.6-6,6.6v24.4c2.1-1.3,4.1-2.7,6-4.2V737.4z"/>
	<rect x="1650" y="668.9" class="st0" width="6" height="24.6"/>
	<path class="st0" d="M1584,849.7c-2.1,1-4.1,2.1-6,3.2v32c1.8-2.4,3.8-4.6,6-6.6V867h6v-23.5h-6V849.7z"/>
	<rect x="1674" y="668.9" class="st0" width="6" height="24.6"/>
	<path class="st0" d="M1632,757.6c-2,0-4-0.1-6-0.2v22.4c1.2,0,2.3,0.1,3.5,0.1c0.8,0,1.7,0,2.5,0V757.6z"/>
	<path class="st0" d="M1554,747.7c1.9,2.4,3.9,4.7,6,6.9V597.2c-2.1,2.3-4.1,4.6-6,7.1V747.7z"/>
	<polygon class="st0" points="1746,604.9 1752,614.5 1752,573.5 1746,573.5 	"/>
	<rect x="1584" y="932.2" class="st0" width="6" height="23.5"/>
	<path class="st0" d="M1278,1129.5c-2.1,1.7-4.1,3.5-6,5.5v167.9c1.9,1.9,3.9,3.6,6,5.1v8.6h6v-22.9h-6v-30.8
		c-2.7-12-3.8-26.9-3.8-44.6c0-17.6,1-32.5,3.8-44.5v-33.1c2.2,0.8,4.2,1.8,6,3.1v-24.6c-1.9-0.6-3.9-1-6-1.4V1129.5z"/>
	<rect x="1740" y="303.5" class="st0" width="6" height="22.9"/>
	<path class="st0" d="M1584,579.7c-2.1,1-4.1,2.1-6,3.2v32c1.8-2.4,3.8-4.6,6-6.6V579.7z"/>
	<rect x="1764" y="303.5" class="st0" width="6" height="22.9"/>
	<polygon class="st0" points="1770,643.2 1776,652.8 1776,606 1770,595.9 	"/>
	<rect x="1788" y="403.8" class="st0" width="6" height="19.4"/>
	<polygon class="st0" points="1818,403.8 1812,403.8 1812,398.6 1806,414.7 1806,483.4 1812,467.8 1812,423.3 1818,423.3 	"/>
	<polygon class="st0" points="1728,576.1 1728,573.5 1726.3,573.5 	"/>
	<rect x="1608" y="932.2" class="st0" width="1.9" height="23.5"/>
	<rect x="1332" y="422.7" class="st0" width="6" height="23.2"/>
	<path class="st0" d="M1254,843.5h-6v180.1h-6v22.9h6h6l0,0h6v-22.9h-6v-88.8c2.5-4.2,4.6-8.8,6-13.8v-33.8
		c-1.4-5.3-3.4-10.2-6-14.6V843.5z"/>
	<path class="st0" d="M1368,742.5c-2.2-1.9-4.2-4-6-6.2v32.1c1.9,1.1,3.9,2.1,6,3v4.8c2-0.1,4-0.3,6-0.6v-23.1
		c-1.9,0.3-3.9,0.6-6,0.8V742.5z"/>
	<path class="st0" d="M1254,1138.9c1.9-0.3,3.9-0.5,6-0.6v-21.7c-2.1,0.1-4.1,0.2-6,0.4V1138.9z"/>
	<polygon class="st0" points="1476,422.4 1482,422.4 1482,400.1 1476,400.1 1476,392.2 1470,392.2 1470,415.7 1476,415.7 	"/>
	<path class="st0" d="M1320,644.4c-2.1,9.6-3.1,19.8-3.1,30.6c0,11.7,1.1,22.5,3.1,32.4V644.4z"/>
	<rect x="1308" y="422.7" class="st0" width="6" height="23.2"/>
	<path class="st0" d="M1344,596.9c-2.1,2.2-4.1,4.6-6,7v144.2c1.9,2.4,3.9,4.7,6,6.8v21.6h6v-22.6h-6V596.9z"/>
	<path class="st0" d="M708,1129.1c-1.9-1.5-3.9-2.8-6-4.1v-11.5h-6v22.6h6v19.8c2.5,4.2,4.5,9.2,6,14.8v21c1.1-5,1.7-10.6,1.7-16.8
		c0-6.5-0.6-12.2-1.7-17.4V1129.1z"/>
	<polygon class="st0" points="456,959.7 462,969.5 462,923.1 456,913.5 	"/>
	<path class="st0" d="M726,843.5h-6v203h6l0,0h6v-22.9h-6v-47.1c2-1.2,4-2.5,6-3.7V945c-2,1.4-4,2.7-6,4v-80.7
		c2.1,0.1,4.1,0.3,6,0.6v-22.1c-2-0.2-4-0.3-6-0.3V843.5z"/>
	<polygon class="st0" points="480,998.8 486,1008.5 486,961.7 480,952.1 	"/>
	<path class="st0" d="M894,1046.5v2.7c2.1-0.3,4.1-0.7,6-1.1v-22.8c-1.9,0.8-3.9,1.3-6,1.8v-20.2l-6,15.3V1006c-2-3.7-4-7.5-6-11.2
		v44.8l4.2,6.9h1.8H894z"/>
	<path class="st0" d="M432,920.6c0.7,1.3,1.4,2.4,1.9,3.3l4.1,6.6v-45.9l-6-9.7V920.6z"/>
	<path class="st0" d="M90,776.5h6v-203h-6l0,0h-6v51.8c2.2-6.3,4.2-11.8,6-17.3v84.6h-6v23.2h6V776.5z"/>
	<polygon class="st0" points="138,450.8 132,444.7 132,460.2 138,454.3 	"/>
	<polygon class="st0" points="114,426.6 108,420.5 108,448.3 114,454.3 	"/>
	<polygon class="st0" points="108,406.3 114,400.3 114,372.8 108,378.8 	"/>
	<polygon class="st0" points="132,382.3 138,376.3 138,372.7 132,366.6 	"/>
	<path class="st0" d="M1698,637.1l6-1.2v-29.7c-1.9-2.8-3.9-5.4-6-7.8V637.1z"/>
	<rect x="384.4" y="843.5" class="st0" width="5.6" height="203"/>
	<path class="st0" d="M408,843.5v0.7c-2,0.6-4,1.2-6,1.9V872c1.9-1.1,3.9-2.2,6-3.1v152.9c-2.1-0.9-4.1-1.9-6-3v25.7
		c2,0.6,4,1.2,6,1.8v0.3h2.2v-117c0-5.5-0.6-32.2-1.5-51.6h0.3c1.5,3,3.2,6.3,5,9.6v-41.7l-1.5-2.4L408,843.5L408,843.5z"/>
	<path class="st0" d="M126,1160.7l-6-15.4v66.3l6,16V1213c2.2-2.6,4.2-5.4,6-8.4v-61.9c-1.7-3-3.7-5.7-6-8.2V1160.7z"/>
	<path class="st0" d="M1608,1025.1c-2.1-0.5-4.1-1.1-6-1.7v23.7c2,0.4,4,0.8,6,1.2v-1.8h6V1023h-6V1025.1z"/>
	<rect x="1536" y="1023" class="st0" width="6" height="23.5"/>
	<polygon class="st0" points="1512,1046.5 1518,1046.5 1518,1023 1515.6,1023 1515.6,955.7 1518,955.7 1518,932.2 1515.6,932.2 
		1515.6,867 1518,867 1518,843.5 1512,843.5 	"/>
	<rect x="894" y="122.2" class="st0" width="6" height="23.5"/>
	<path class="st0" d="M1086,843.5h-6v1c-2-0.6-4-1.1-6-1.6v23.9c2.1,0.7,4.1,1.6,6,2.5v-2.8h6v85.2c2.1-1.9,4.1-3.9,6-5.9V862
		c-1.9-1.8-3.9-3.5-6-5V843.5z"/>
	<path class="st0" d="M468,221.9c1.9,1.5,3.9,2.8,6,4.1v-35.2c-2.3-4.1-4.4-8.7-6-13.7v12.7c-2.4-4.4-4.4-9.2-6-14.4v46
		c1.9,1.5,3.9,2.9,6,4.2V221.9z"/>
	<path class="st0" d="M684,195.5c-2.3-3.3-4.3-6.9-6-10.8V224c1.9,1.3,3.9,2.6,6,3.7V195.5z"/>
	<path class="st0" d="M1164,236.5v-4.4c2.1-0.9,4.1-1.9,6-3v-39c-1.6,3.5-3.6,6.7-6,9.5v-166h-2v116.9c0,8.4,0.6,34.8,1.5,51.6h-0.3
		c-1.7-3.2-3.4-6.5-5.2-9.8v43.9l0.2,0.4h5.8V236.5z"/>
	<path class="st0" d="M1308,1133.2c-1.8-1.9-3.9-3.7-6-5.3v-9.8c-2.1,0.5-4.1,1-6,1.7v24.4c1.8-1.1,3.8-2.1,6-2.9v79.2
		c2.1-2,4.1-4,6-6.2v68.2c1.9,2.8,3.9,5.5,6,8v-149.2c-2.1,2.6-4.1,5.4-6,8.2V1133.2z"/>
	<rect x="1489.5" y="843.5" class="st0" width="4.5" height="203"/>
	<path class="st0" d="M1104,855.9c-1.9-1.3-3.9-2.6-6-3.8v32.2c0.4,0.5,0.7,1,1.1,1.5c1.8,2.6,3.4,5.2,4.9,8v-27.5h6v-22.9h-6V855.9
		z"/>
	<path class="st0" d="M1320,914.4c-2.1,9.6-3.1,19.8-3.1,30.6c0,11.7,1.1,22.5,3.1,32.4v-48.9l6,16.5v-76.7l-6-17.7V914.4z"/>
	<polygon class="st0" points="1416,975 1422,958.5 1422,882.7 1416,900.4 	"/>
	<path class="st0" d="M1392,971.1v53.9c-2.1-0.6-4.1-1.2-6-1.9v24.1c2,0.4,4,0.8,6,1.1v-7.2l6-16.5v-71.1l-2.1,6.3
		C1394.5,963.7,1393.2,967.5,1392,971.1z"/>
	<polygon class="st0" points="84,430.3 87,427.3 90,430.3 90,396.8 87,399.8 84,396.8 	"/>
	<path class="st0" d="M1368,1012.5c-2.2-1.9-4.2-4-6-6.2v32.1c1.9,1.1,3.9,2.1,6,3v5.1h6v-36.6c-1.5-4.4-3.5-10.4-6-17.8V1012.5z"/>
	<path class="st0" d="M528,722.1l-6-1.6v14.7c2.2-3.6,4.2-7.5,6-11.5V722.1z"/>
	<path class="st0" d="M378,497.4v-32.9c-2.3-3.4-4.3-7.2-6-11.3v-95.3c1.7-4,3.7-7.6,6-11v-33.2c-2.1,1.3-4.1,2.6-6,4.1v-14.3h-5.2
		v136c0,3.4-0.3,6.7-0.8,9.7V497c2.1-1.4,4.1-2.9,6-4.5v1C373.9,494.9,375.9,496.2,378,497.4z"/>
	<path class="st0" d="M450,398.9h-6v-58.4c-2.2,3.5-4.2,7.3-6,11.2v108.9c1.8,3.9,3.8,7.7,6,11.1v-48.1h6V398.9z"/>
	<path class="st0" d="M480,608.1V578c-2-0.8-4-1.6-6-2.3v-2.2h-6v203h3.2V596.4h2.8v6.9C476.1,604.8,478.1,606.4,480,608.1z"/>
	<path class="st0" d="M498.2,639l5.8-1.1v-44.1c-1.9-1.8-3.9-3.6-6-5.2v-15.1h-6v22.9h6v41.9C498.1,638.5,498.1,638.8,498.2,639z"/>
	<path class="st0" d="M792,577.7l-2.6-4.2H786v34.7c1.8,3.5,3.9,7.5,6,11.5V577.7z"/>
	<path class="st0" d="M816,662.2v-45.9l-6-9.7v45.8c0.3,0.5,0.6,1,0.8,1.4L816,662.2z"/>
	<path class="st0" d="M360,609.5c-2.2,3.4-4.2,7-6,10.8v-17.1c-1.7-3.4-3.7-6.4-6-9.1v75.5c2.3-2.7,4.3-5.8,6-9.1v51.9
		c-1.1-5.6-3.1-10.6-6-14.9v79.3h6V732c1.8,3.8,3.8,7.3,6,10.7V609.5z"/>
	<path class="st0" d="M756,216.1c-1.9,0.4-3.9,0.7-6,1v22.1c2-0.3,4-0.6,6-1V216.1z"/>
	<path class="st0" d="M780,204.8c-1.9,1.6-3.9,3.1-6,4.4v23c2.1-1,4.1-2.1,6-3.2V204.8z"/>
	<path class="st0" d="M516,363.9l1.6-0.3c-0.5-1.9-1.1-3.7-1.6-5.5V363.9z"/>
	<polygon class="st0" points="66,420.8 60,426.8 60,454.3 66,448.3 	"/>
	<path class="st0" d="M522,634.5l4.9-0.9c-1.3-4.9-3-9.6-4.9-14V634.5z"/>
	<path class="st0" d="M456,755.7c-1.9,0.5-3.9,0.9-6,1.2V593.7c2.1,0.3,4.1,0.7,6,1.2v-23.7c-2-0.3-4-0.5-6-0.7v3h-6v22.9h0.9v180.1
		h5.1v3c2-0.2,4-0.4,6-0.7v-2.3h6v-22l-6,15.3V755.7z"/>
	<path class="st0" d="M768,629.3c1.8,7.1,3.9,14.6,6,22.2v-78h-6h-6v203h6V629.3z"/>
	<path class="st0" d="M432,757.4c-2-0.1-4-0.4-6-0.6v22.6c2,0.2,4,0.3,6,0.4V757.4z"/>
	<path class="st0" d="M444,509.2c2-0.3,4-0.6,6-1v-22c-1.9,0.4-3.9,0.7-6,0.9V509.2z"/>
	<rect x="162" y="573.5" class="st0" width="1.8" height="22.9"/>
	<polygon class="st0" points="60,400.1 66,406.1 66,378.8 60,372.8 	"/>
	<path class="st0" d="M126,238.5c2-0.4,4-0.8,6-1.3v-22c-1.9,0.5-3.9,1-6,1.3v-2.9h-6v22.9h6V238.5z"/>
	<path class="st0" d="M54,1146.3c1.7-1.5,3.7-2.9,6-4v-23.6c-2.1,0.5-4.1,1.1-6,1.8V1146.3z"/>
	<polygon class="st0" points="72,776.5 72,573.5 66,573.5 66,596.4 69.9,596.4 69.9,776.5 	"/>
	<path class="st0" d="M78,1116.5v1.5l-6,15.3v64.7l6-16.2v-43.5c0.6,0,1.1,0,1.7,0c1.5,0,2.9,0.1,4.3,0.2v-21.9c-1,0-2-0.1-3.1-0.1
		C79.9,1116.4,79,1116.4,78,1116.5z"/>
	<rect x="138" y="573.5" class="st0" width="6" height="22.9"/>
	<rect x="42" y="573.5" class="st0" width="6" height="22.9"/>
	<rect x="648" y="843.5" class="st0" width="6" height="22.9"/>
	<path class="st0" d="M690,573.5v203h6h6v-37.2c-1.5-6.8-2.6-12.5-6-27.6V573.5H690z"/>
	<path class="st0" d="M787,659.6c0-4.6-0.4-24-1-41.6v158.5h1V659.6z"/>
	<path class="st0" d="M30,1136.2v43.1l6,0.9v-49.8C33.8,1132.2,31.8,1134.2,30,1136.2z"/>
	<path class="st0" d="M78,1232.7h-6v23.2h6v-7c2-1.3,4-2.5,6-3.8v-27.6c-2,1.3-4,2.6-6,3.8V1232.7z"/>
	<path class="st0" d="M102,1232.7h-6v23.2h6v-22.2c2-1.4,4-2.8,6-4.2v-33.9c-1.7,2.7-3.8,5.2-6,7.6V1232.7z"/>
	<rect x="1878" y="1293.6" class="st0" width="6" height="22.9"/>
	<path class="st0" d="M1860,33.5h-6v53.7c1.8-5.2,3.8-10.9,6-17.2V33.5z"/>
	<path class="st0" d="M1788,195.3c-1.5,4.5-2.9,8.5-4,11.9h-0.3c-0.5-1.7-1.1-3.4-1.8-5.3v34.6h6v-41.2H1788z"/>
	<rect x="1878" y="33.5" class="st0" width="6" height="203"/>
	<path class="st0" d="M1380,225.4c2.1-1.5,4.1-3.2,6-5v-30.3c-1.7,3.4-3.7,6.5-6,9.2v-45.8h6v-24.6h-6V78.4c2.3,3.5,4.3,7.3,6,11.1
		V46.1c-1.9-1.4-3.9-2.7-6-3.9v-8.7h-6v203h6V225.4z"/>
	<polygon class="st0" points="1836,64.4 1830,80.5 1830,151.1 1836,135.5 	"/>
	<rect x="1902" y="1293.6" class="st0" width="4.7" height="22.9"/>
	<path class="st0" d="M1782,1316.5h6v-46.8c-2.2,3.7-4.2,7.6-6,11.9V1316.5z"/>
	<path class="st0" d="M1302,1295.7c-2.1-0.8-4.1-1.7-6-2.9v24.1c1.9,0.6,3.9,1.1,6,1.5v-1.9h6v-22.9h-6V1295.7z"/>
	<rect x="1854" y="1293.6" class="st0" width="6" height="22.9"/>
	<rect x="1830" y="1293.6" class="st0" width="6" height="22.9"/>
	<rect x="1806" y="1293.6" class="st0" width="6" height="22.9"/>
	<path class="st0" d="M1548,53c2.1,0.1,4.1,0.3,6,0.6V30.5c-2-0.2-4-0.3-6-0.4v3.4h-6V57h6V53z"/>
	<path class="st0" d="M1524,55.1c1.9-0.5,4-0.8,6-1.1V30.8c-2,0.2-4,0.5-6,0.8v1.9h-6V57h6V55.1z"/>
	<path class="st0" d="M1452,173.9c1.6,6,3.6,11.6,6,16.9V81.4c-2.4,5.2-4.4,10.8-6,16.7V33.5h-6v203h6V173.9z"/>
	<path class="st0" d="M1764,151.4c-0.4-1-0.7-2-1.1-3l-4.9-13.1v69l6,15.6V151.4z"/>
	<polygon class="st0" points="1740,87.1 1734,71.1 1734,142 1740,157.6 	"/>
	<path class="st0" d="M1716,33.5h-6v43.6c2.1,6,4.1,11.7,6,17.1V33.5z"/>
	<rect x="1686" y="33.5" class="st0" width="6" height="203"/>
	<rect x="1566" y="33.5" class="st0" width="3.7" height="23.5"/>
	<polygon class="st0" points="1812,128.6 1806,144.7 1806,213.4 1812,197.8 	"/>
	<path class="st0" d="M102,239.8c2,0.1,4,0.1,6,0.1v-22.4c-2,0-4.1-0.1-6-0.3v-3.7h-6v22.9h6V239.8z"/>
	<rect x="18" y="573.5" class="st0" width="6" height="22.9"/>
	<path class="st0" d="M12,1316.5v-24.3c-2.1,7.3-3.5,15.3-4.2,24.3H12z"/>
	<rect x="1254" y="1293.6" class="st0" width="6" height="22.9"/>
	<rect x="54" y="1293.6" class="st0" width="6" height="22.9"/>
	<rect x="204" y="303.5" class="st0" width="6" height="203"/>
	<rect x="150" y="128.9" class="st0" width="6" height="24.6"/>
	<rect x="210" y="573.5" class="st0" width="6" height="203"/>
	<rect x="190.2" y="573.5" class="st0" width="1.8" height="203"/>
	<path class="st0" d="M174,215.6l1.7,20.9h4.3V128.9h-6V97.6l6-1.2V62.1c-1.9-2.4-3.9-4.8-6-6.9V76c-2.3,4.3-4.3,8.8-6,13.5v93
		c1.7,4.8,3.7,9.4,6,13.6V215.6z"/>
	<rect x="126" y="128.9" class="st0" width="6" height="24.6"/>
	<path class="st0" d="M678,1319.4c2.1-0.3,4.1-0.6,6-1v-22.6c-1.9,0.7-3.9,1.2-6,1.6V1319.4z"/>
	<path class="st0" d="M726,1209.7c-2,0.1-4,0.2-6,0.3v22.5c2.1,0,4.1,0.1,6,0.3v53.2c2.3-4.1,4.3-8.6,6-13.3v-108.4
		c-1.7-4.8-3.7-9.2-6-13.4V1209.7z"/>
	<path class="st0" d="M702,1311.4c2.1-1.2,4.1-2.6,6-4.1v-42.2c-1.5,5.8-3.5,10.9-6,15.2V1311.4z"/>
	<rect x="78" y="1293.6" class="st0" width="6" height="22.9"/>
	<rect x="126" y="1293.6" class="st0" width="6" height="22.9"/>
	<rect x="102" y="1293.6" class="st0" width="6" height="22.9"/>
	<path class="st0" d="M630,1309.1c1.9,1.3,3.9,2.5,6,3.6v-30.3c-2.5-3.8-4.4-8.3-6-13.5V1309.1z"/>
	<path class="st0" d="M612,1148.9c-2.3,3.9-4.3,8.1-6,12.6V1277c1.8,4.5,3.8,8.6,6,12.4v-55.2h6v-22.3h-6V1148.9z"/>
	<path class="st0" d="M438,190.6c1.8,3.9,3.8,7.7,6,11.1v-10c1.8,3.8,3.8,7.4,6,10.8V69.7c-2.2,3.4-4.2,7.1-6,10.9V70.5
		c-2.2,3.5-4.2,7.3-6,11.2v38l-6-6V141l2.4,2.4l-2.4,2.4v27.5l6-6V190.6z"/>
	<path class="st0" d="M390,194c2.1-7.3,3.2-15.5,3.2-24.5v-136H390V194z"/>
	<path class="st0" d="M342,237c2.1-0.5,4.1-1,6-1.6v1.1h6v-22.9h-6v-6.3c-1.9,1.3-3.9,2.4-6,3.5V129h-6v107.6h6V237z"/>
	<path class="st0" d="M540,53.7c2.1,0.3,4.1,0.7,6,1.3V31.3c-2-0.3-4-0.5-6-0.7v0.7c-2-0.3-4-0.5-6-0.7v23.2c2.1,0.3,4.1,0.7,6,1.2
		V53.7z"/>
	<path class="st0" d="M660,65.4c-2.2,3-4.2,6.1-6,9.4v122.5c1.8,3.3,3.8,6.3,6,9.2V65.4z"/>
	<path class="st0" d="M606,80.6v13.8l4.4-0.9C609.2,89,607.7,84.7,606,80.6z"/>
	<path class="st0" d="M564,63.5c2.1,1.5,4.1,3.2,6,5V38.1c-2-0.9-4-1.7-6-2.4v2.2c-2-0.9-4-1.6-6-2.3v27.6c2.1,1.5,4.1,3.2,6,4.9
		V63.5z"/>
	<path class="st0" d="M588,97.9V99l6-1.2V54.4c-1.9-1.9-3.9-3.7-6-5.4v4.9c-1.9-1.9-3.9-3.6-6-5.3V99v0.1L588,97.9z"/>
	<path class="st0" d="M132,32.5c-2-0.4-4-0.8-6-1.1v23.8c2.1,0.6,4.1,1.3,6,2.1V32.5z"/>
	<path class="st0" d="M84,32.5c-2,0.4-4,0.9-6,1.5v24.7c1.9-0.8,3.9-1.5,6-2.2V32.5z"/>
	<path class="st0" d="M108,30c-2,0-4,0.1-6,0.2v23c2-0.1,4-0.2,6-0.2V30z"/>
	<path class="st0" d="M60,71.3V41.2c-2.1,1.1-4.1,2.3-6,3.5v34.6c0.7-1.2,1.5-2.3,2.3-3.5C57.4,74.2,58.7,72.7,60,71.3z"/>
	<path class="st0" d="M318,239.9c2-0.1,4-0.2,6-0.3v-3.1h6v-22.9h-6v2.5c-2,0.3-4,0.5-6,0.6V239.9z"/>
	<path class="st0" d="M684,43.4c-2.1,1.3-4.1,2.6-6,4v39.2c1.7-3.8,3.7-7.3,6-10.5V43.4z"/>
	<path class="st0" d="M156,41.5c-2-1.1-4-2.1-6-3v30.8c2.2,2.2,4.2,4.6,6,7.1V41.5z"/>
	<path class="st0" d="M294,238.6c2,0.3,4,0.6,6,0.8v-2.8h6v-203h-6v182c-2-0.4-4-0.9-6-1.5v-4.5c-1.9,1.1-3.9,2.2-6,3v22.3
		c2.1-0.7,4.1-1.6,6-2.5V238.6z"/>
	<path class="st0" d="M246,211.7c1.8,2.6,3.8,5.1,6,7.3V33.5h-6v-3c-2,0.2-4,0.4-6,0.7v23.4c2-0.4,3.9-0.7,6-0.9V211.7z"/>
	<path class="st0" d="M1140,160c-0.8-1.3-1.6-2.6-2.4-3.9l-3.7-5.9V197l6,9.8L1140,160L1140,160z"/>
	<rect x="1182" y="33.5" class="st0" width="5.8" height="203"/>
	<polygon class="st0" points="1092,82.8 1086,73.1 1086,119 1092,128.7 	"/>
	<polygon class="st0" points="1116,121.4 1110,111.7 1110,158 1116,167.8 	"/>
	<rect x="1302" y="122.2" class="st0" width="6" height="23.5"/>
	<rect x="1326" y="122.2" class="st0" width="6" height="23.5"/>
	<path class="st0" d="M1680,583.2c-1.9-1.2-3.9-2.3-6-3.3v32.6c2.2,2.6,4.2,5.4,6,8.3V583.2z"/>
	<rect x="1278" y="122.2" class="st0" width="6" height="23.5"/>
	<path class="st0" d="M1236,155.8c1.2,9.6,3.2,18.5,6,26.5V89.9c-2.8,7.9-4.8,16.4-6,25.5V33.5l0,0v203l0,0V155.8z"/>
	<path class="st0" d="M732,30.1c-2,0.1-4,0.2-6,0.3v23.1c2-0.2,4-0.4,6-0.5V30.1z"/>
	<path class="st0" d="M804,57.5c-1.9-2.1-3.9-4.1-6-6v46.9l6-1.2V57.5z"/>
	<path class="st0" d="M780,71.6V39.5c-2-1-4-1.8-6-2.6v28.9C776.2,67.6,778.2,69.5,780,71.6z"/>
	<path class="st0" d="M756,31.7c-2-0.4-4-0.7-6-0.9v23.4c2.1,0.4,4.1,1,6,1.6V31.7z"/>
	<path class="st0" d="M822,90v3.7l1-0.2C822.7,92.3,822.3,91.2,822,90z"/>
	<path class="st0" d="M708,33.4c-2,0.5-4,1.1-6,1.7v25.3c1.9-1,3.9-1.9,6-2.7V33.4z"/>
	<path class="st0" d="M876,233.5c2,0.7,4,1.4,6,2v-24.6c-2.1-1-4.1-2.1-6-3.3V63.7c1.9-1.3,3.9-2.5,6-3.5V35c-2,0.7-4.1,1.4-6,2.2
		v-3.6h-6v203h6V233.5z"/>
	<rect x="228" y="483.6" class="st0" width="6" height="22.9"/>
	<rect x="990" y="33.5" class="st0" width="5.6" height="23.5"/>
	<path class="st0" d="M900,54.3c2-0.4,4-0.6,6-0.8V30.4c-2,0.2-4,0.4-6,0.6v2.5h-6V57h6V54.3z"/>
	<path class="st0" d="M1260,213c1.9,2.1,3.9,4,6,5.8v-57.6c-1.3-7.9-1.9-16.6-1.9-26.1c0-9.4,0.7-17.9,1.9-25.6V52.9
		c-2.1,1.9-4.1,3.9-6,6.1V33.5h-6v203h6V213z"/>
	<polygon class="st0" points="906,573.5 906,776.5 912,776.5 914.2,776.5 918,766.3 918,695.6 912,711 912,573.5 	"/>
	<path class="st0" d="M1014,915.8l-6-15.4v85.5h6v20.1c1.8-2.4,3.8-4.7,6-6.9v-30.8c-2,1.5-4,3-6,4.6V915.8z"/>
	<path class="st0" d="M1062,843.5h-6v-3.2c-2-0.1-4-0.2-6-0.2V863c2.1,0,4.1,0.1,6,0.2v3.2h6v3.8c2.2,0.7,4.2,1.6,6,2.7v-24.2
		c-1.9-0.5-3.9-0.9-6-1.3V843.5z"/>
	<path class="st0" d="M924,213h-6v23.5h6v3.2c2-0.2,4-0.4,6-0.7v-22c-1.9,0.2-3.9,0.4-6,0.5V213z"/>
	<path class="st0" d="M1008,746.2c-2.1-1.5-4.1-3.1-6-4.8v29.4c1.9,0.9,3.9,1.7,6,2.5V746.2z"/>
	<path class="st0" d="M1032,756.1c-2.1-0.4-4.1-0.9-6-1.5v23.5c2,0.3,4,0.6,6,0.9V756.1z"/>
	<path class="st0" d="M984,612.1c1.9,5.5,4,11.3,6,16.7v-55.3h-6v18.7c-2.1,1.9-4.1,3.8-6,5.9v155.6c1.9,2,3.9,3.9,6,5.7v-43.5h6
		v-23.2h-6v10.1c-1.5-8.3-2.4-17.6-2.4-27.8c0-10,0.8-19.3,2.4-27.6V612.1z"/>
	<polygon class="st0" points="1890,403.8 1884,403.8 1884,303.5 1878,303.5 1878,506.5 1884,506.5 1884,423.3 1890,423.3 	"/>
	<path class="st0" d="M1902,1150.3v47c2.8-6.6,4.4-14,4.4-22.3C1906.4,1165.9,1904.8,1157.6,1902,1150.3z"/>
	<path class="st0" d="M1830,1230.1v28.5c2-1.5,4-2.9,6-4.3v-28c-1.7,1.1-3.4,2.1-5,3.1C1830.6,1229.7,1830.3,1229.9,1830,1230.1z"/>
	<path class="st0" d="M1854,1242.8c0.9-0.6,1.9-1.1,2.8-1.7c1.1-0.7,2.1-1.3,3.2-2v-28.5c-1.9,1.5-4,3-6,4.4V1242.8z"/>
	<path class="st0" d="M1878,1158.1c1.7,4.8,2.6,10.3,2.6,16.6c0,5-0.9,9.5-2.6,13.6v38.3c2.1-1.6,4.1-3.3,6-5.1V1127
		c-1.9-1.3-3.9-2.6-6-3.7V1158.1z"/>
	<path class="st0" d="M1806,1285.9c1.6-3.5,3.6-6.9,6-10.1v-33c-2,1.6-4.1,3.4-6,5.1V1285.9z"/>
	<path class="st0" d="M1122,602.7v144.9c2.2-2.7,4.2-5.5,6-8.5v-46.7h6v-22.3h-6v-58.8C1126.2,608.3,1124.2,605.4,1122,602.7z"/>
	<polygon class="st0" points="1296,862.4 1302,878.9 1302,843.5 1296,843.5 	"/>
	<path class="st0" d="M1806,1180.8l1.8,0.3c0-6.5,0.7-15.3,4.2-23.3V1124c-2.1,1.1-4.1,2.3-6,3.6V1180.8z"/>
	<path class="st0" d="M1278,1238.3c2-1.3,4-2.6,6-3.9v-30.1c-1.9,1.9-3.9,3.7-6,5.4V1238.3z"/>
	<path class="st0" d="M1782,1177l6,0.9v-29c-4,8.4-5.7,17.4-6,25.3V1177z"/>
	<path class="st0" d="M948,234.5c2.1-0.8,4.1-1.6,6-2.6v-23c-1.9,1.2-3.9,2.3-6,3.2v0.9h-6v23.5h6V234.5z"/>
	<path class="st0" d="M1050,780c2,0,4-0.1,6-0.2v-3.2h6v-27.7l-6-15.4v24c-1.9,0.1-3.9,0.2-6,0.3V780z"/>
	<path class="st0" d="M1464,582.8c-1.9-1.1-3.9-2.2-6-3.2v29.1c2.1,2.2,4.1,4.5,5.9,7.1l0.1,0.1V582.8z"/>
	<path class="st0" d="M1458,506.5v-42.4c2.2-3.7,4.2-7.7,6-11.8l0,0l-6-1.6v-86.3l4.3-0.8c-1.2-4.4-2.6-8.5-4.3-12.5v-47.6h-6h-6
		v203h6L1458,506.5L1458,506.5z"/>
	<path class="st0" d="M1440,753.5c-1.9,0.7-3.9,1.3-6,1.8v22.9c2-0.4,4-0.8,6-1.3V753.5z"/>
	<path class="st0" d="M1578,424.4c-1.7-2.1-3.7-4-6-5.7v87.8h6V424.4z"/>
	<path class="st0" d="M1656,573.2c-2-0.5-4-0.9-6-1.3v24.2c2.1,0.7,4.1,1.5,6,2.4V573.2z"/>
	<path class="st0" d="M1608,571.9c-2,0.4-4,0.8-6,1.3v24.3c1.9-0.7,3.9-1.3,6-1.9V571.9z"/>
	<path class="st0" d="M1548,330.6c2.1,0.9,4.1,2,6,3.4v-26c-2-0.6-4-1.1-6-1.5v-3h-6V327h6V330.6z"/>
	<path class="st0" d="M1500,232c2,0.8,4,1.6,6,2.3v-25.4c-2.1-1.2-4.1-2.6-6-4.1v8.2h-6v23.5h6V232z"/>
	<path class="st0" d="M960,897.9c-2.7,7-4.7,14.6-6,22.6v50.4c1.3,8.4,3.3,16.2,6,23.4v-8.4h6v-23.2h-6v-61.2
		c2.3-6.3,4.2-11.7,6-16.9v-41.1h-6V897.9z"/>
	<path class="st0" d="M1074,777.2c2-0.5,4-1,6-1.6v-24.2c-1.9,0.9-3.9,1.7-6,2.4V777.2z"/>
	<path class="st0" d="M1290,445.9v17.5c1.8,3.6,3.8,7,6,10.3V338.5c-2.2,3.3-4.2,6.8-6,10.4v10.5l-6,15.3v17.5h-6v23.5h6v30.2H1290z
		"/>
	<rect x="1266" y="753.6" class="st0" width="6" height="22.9"/>
	<polygon class="st0" points="1266,420.7 1260,436 1260,303.5 1254,303.5 1254,506.5 1260,506.5 1260.3,506.5 1266,491.1 	"/>
	<path class="st0" d="M1242,753.6v22.9h6h4.6l0.3-0.9c-1.9-2.4-3.5-4.9-4.9-7.6v-14.5L1242,753.6L1242,753.6z"/>
	<rect x="822" y="128.9" class="st0" width="3" height="107.6"/>
	<polygon class="st0" points="864,693.5 858,683.9 858,730.6 864,740.3 	"/>
	<path class="st0" d="M803.6,236.5h0.4V128.9h-6v24.6h0.9c-0.1,4.7-0.4,9.2-0.9,13.4v46.2c1.1-1.4,2.2-2.9,3.3-4.4L803.6,236.5z"/>
	<rect x="774" y="128.9" class="st0" width="6" height="24.6"/>
	<rect x="750" y="128.9" class="st0" width="6" height="24.6"/>
	<path class="st0" d="M972,219.2c2.1-2.1,4.1-4.4,6-6.8V162c-0.8,9.8-2.8,18.2-6,25.4V213h-6v23.5h6V219.2z"/>
	<polygon class="st0" points="924,122.2 918,122.2 918,145.7 924,145.7 924,153.6 930,153.6 930,128.9 924,128.9 	"/>
	<rect x="1908" y="403.8" class="st0" width="3.6" height="19.4"/>
	<rect x="990" y="213" class="st0" width="5.6" height="23.5"/>
	<path class="st0" d="M492,234.4c2,0.7,4,1.3,6,1.8V212c-2.1-0.9-4.1-1.8-6-2.9v2.7c-2.1-0.9-4.1-1.9-6-3v25.4c2,0.7,4,1.3,6,1.9
		V234.4z"/>
	<path class="st0" d="M516,239.3c2,0.2,4,0.3,6,0.4v-22.5c-2.1-0.2-4.1-0.4-6-0.6v0.6c-2.1-0.2-4.1-0.4-6-0.7v22.7
		c2,0.2,4,0.4,6,0.5V239.3z"/>
	<path class="st0" d="M426,300.1c-2,0.1-4,0.2-6,0.4v23.1c2-0.2,4-0.4,6-0.5V300.1z"/>
	<path class="st0" d="M402,303.6c-2,0.5-4,1.1-6,1.8v25.5c1.9-1,3.9-2,6-2.8V303.6z"/>
	<path class="st0" d="M708,213.1c-2.1-0.7-4.1-1.6-6-2.5v24.7c2,0.6,4,1.1,6,1.6V213.1z"/>
	<path class="st0" d="M726,239.6c2,0.1,4,0.2,6,0.3v-22.4c-2-0.1-4.1-0.2-6-0.5V239.6z"/>
	<rect x="1566" y="213" class="st0" width="3.7" height="23.5"/>
	<path class="st0" d="M1578,401.8v13.9h6v-23.5h-6v-70.6c-1.9-1.9-3.9-3.6-6-5.1v90.6C1574.1,405.5,1576.1,403.8,1578,401.8z"/>
	<rect x="1518" y="122.2" class="st0" width="6" height="23.5"/>
	<path class="st0" d="M1599,505.6c-1.1-1.4-2.1-2.8-3-4.2v5.1h2.7L1599,505.6z"/>
	<path class="st0" d="M1860,236.5V99.3c-0.2,6.7-0.3,12.1-0.3,14.5v122.7H1860z"/>
	<polygon class="st0" points="1698,506.5 1698,303.5 1692,303.5 1686,303.5 1686,506.5 1692,506.5 	"/>
	<rect x="1644" y="303.5" class="st0" width="6" height="22.9"/>
	<rect x="1668" y="303.5" class="st0" width="6" height="22.9"/>
	<path class="st0" d="M1008,577.4c-2.1,0.8-4.1,1.7-6,2.7v29.1c1.8-1.7,3.8-3.3,6-4.8V577.4z"/>
	<path class="st0" d="M252,483.6V303.5h-6v178.2c1.8,2.6,3.8,5.1,6,7.3v17.4h6l0,0h6V465l-6,15.3v3.2h-6V483.6z"/>
	<polygon class="st0" points="1242,506.5 1242,506.5 1248,506.5 1248,483 1242,483 1242,482 1236,497.3 1236,303.5 1236,303.5 
		1236,506.5 1236,506.5 	"/>
	<path class="st0" d="M1200,573.5h-6v203h6v-79.3c2.3,1.1,4.3,2.3,6,3.8v-38c-1.9,1.1-3.9,2-6,2.8v-66c2.1,0.8,4.1,1.7,6,2.9v-25.2
		c-2-0.5-4-1-6-1.4V573.5z"/>
	<path class="st0" d="M1032,571.1c-2,0.3-4,0.6-6,1v24c1.9-0.6,3.9-1,6-1.5V571.1z"/>
	<path class="st0" d="M1416,570.1c-0.9,0-1.9,0-2.8,0c-1.1,0-2.1,0-3.2,0v23c1.4-0.1,2.8-0.1,4.3-0.1c0.6,0,1.1,0,1.7,0v33.7
		c2.6,5,4.5,10.3,6,16.3v-49c-1.9-1.6-3.9-3.1-6-4.5V570.1z"/>
	<path class="st0" d="M1476,216.4c1.9,1.8,3.9,3.5,6,5.1v-45.7c-3.6-11.4-5.4-25-5.4-40.8c0-15.7,1.8-28.9,5.4-39.9V49.9
		c-2.1,1.7-4.1,3.5-6,5.4V33.5h-6V57h6v65.2h-6v23.5h6V213h-6v23.5h6V216.4z"/>
	<path class="st0" d="M1440,573.1c-2-0.5-4-0.9-6-1.3v23.4c2.1,0.5,4.1,1.2,6,1.9V573.1z"/>
	<path class="st0" d="M1410,504.3c2-0.7,4-1.5,6-2.3v-29.2c-1.9,1.7-3.9,3.3-6,4.7v6.2l-6-15.4v38.2h6V504.3z"/>
	<rect x="1494" y="122.2" class="st0" width="6" height="23.5"/>
	<path class="st0" d="M660,901.9c-0.1,1.7-0.2,3.4-0.1,5.1h0.1V901.9z"/>
	<polygon class="st0" points="720,765.8 726,744.6 726,661.5 720,683.5 	"/>
	<path class="st0" d="M660,1011.3c-2.5,6.1-4.6,12.7-6,20.1v15h6V1011.3z"/>
	<polygon class="st0" points="750,573.7 744,595.6 744,680.8 750,659.5 	"/>
	<path class="st0" d="M552,614.8c2,5.6,4,11.3,6,16.5v-57.8h-6V614.8z"/>
	<polygon class="st0" points="528,585.8 528,650.1 534,633.8 534,573.5 532.8,573.5 	"/>
	<polygon class="st0" points="654,573.5 648,573.5 648,618.3 654,641.3 	"/>
	<polygon class="st0" points="606,689.7 600,674.3 600,662.2 594,662.2 594,673.8 588,673.8 588,693.3 594,693.3 594,685.7 
		600,685.7 600,744 606,759.9 	"/>
	<polygon class="st0" points="618,236.5 618,128.9 612,128.9 606,128.9 606,236.5 612,236.5 	"/>
	<polygon class="st0" points="570,153.6 570,128.9 564,128.9 558,128.9 558,153.6 564,153.6 	"/>
	<polygon class="st0" points="630,751.3 624,735.9 624,776.5 630,776.5 	"/>
	<path class="st0" d="M588,216.5c2.1-2.4,4.2-4.9,6-7.6v-80h-6h-6v24.6h4.4c-0.1,10.9-1.6,20.5-4.4,28.6V217c2.1-2.3,4.1-4.8,6-7.4
		V216.5z M588,153.6h3.9c-0.1,10.2-1.4,19.2-3.9,27V153.6z"/>
	<polygon class="st0" points="720,303.5 714,303.5 714,506.5 718.7,506.5 718.7,326.4 720,326.4 	"/>
	<path class="st0" d="M708,847.9c-2.1,0.4-4.1,0.9-6,1.4v-5.8h-6h-6v203h6V866.4h6v7.2c1.8-1.1,3.8-2.1,6-2.9V847.9z"/>
	<path class="st0" d="M684,857.5c-2.2,1.5-4.2,3.1-6,4.8v-18.8h-6v22.9h6v43.5l6,0.9V857.5z"/>
	<path class="st0" d="M780,880.6c-1.6-4.1-3.6-7.9-6-11.3V938c2.4-3.4,4.4-7,6-11V880.6z"/>
	<path class="st0" d="M552,398.4c-2,0.4-4,0.7-6,0.9v24c2.1,0.3,4.1,0.6,6,1V398.4z"/>
	<polygon class="st0" points="792,714.4 798,735.4 798,650.1 792,628.5 	"/>
	<path class="st0" d="M480,303.5h-6v5.6c-2-0.9-4-1.8-6-2.6v9c-2.1,1.4-4.1,2.9-6,4.5v45.4c1.6-5.1,3.6-9.8,6-14v-16.2
		c2.2,1.7,4.1,3.6,6,5.6v58h-6v24.6h6v51.8c-1.9,1.6-3.9,3-6,4.2v-19.7c-2.4-4.4-4.4-9.2-6-14.4v46c1.9,1.5,3.9,2.9,6,4.2v6.8
		c2.1-1,4.1-2,6-3.1v7.2h6V303.5z"/>
	<path class="st0" d="M756,853.5c-1.9-1-3.9-1.9-6-2.7v-7.2h-6v22.9h6V878c2.6,2.9,4.6,6.4,6,10.4V853.5z"/>
	<path class="st0" d="M504,400.1h-6v-1.2h-6v24.6h1.6c-0.1,6.3-0.6,12.1-1.6,17.5v40.7c-2.1-0.9-4.1-1.9-6-3v25.4c2,0.7,4,1.3,6,1.9
		v-22.2c1.4-1.7,2.7-3.4,3.9-5.2L498,504v-81.6h6V400.1z"/>
	<path class="st0" d="M546,326.7c2,0.2,4,0.4,6,0.8v-22.8c-2-0.2-4-0.4-6-0.6V326.7z"/>
	<path class="st0" d="M528,400.1c-0.2,0-0.5,0-0.7,0H522v22.3h6V400.1z"/>
	<polygon class="st0" points="948,153.6 954,153.6 954,128.9 948,128.9 948,122.2 942,122.2 942,145.7 948,145.7 	"/>
	<path class="st0" d="M480,743.4c-1.9,1.6-3.9,3.2-6,4.5v26.6c2-0.7,4-1.4,6-2.3v4.2h1.2l4.8-12.8v-70.5l-6,15.3V743.4z"/>
	<path class="st0" d="M900,239.1c2,0.2,4,0.4,6,0.5V217c-2.1-0.2-4.1-0.5-6-0.8V213h-6v23.5h6V239.1z"/>
	<path class="st0" d="M522,326.1h5.6c0.1,0,0.3,0,0.4,0v-22.6c-0.1,0-0.3,0-0.4,0H522V326.1z"/>
	<path class="st0" d="M546,238.6v-22c-1.9,0.3-3.9,0.5-6,0.7v-0.6c-1.9,0.3-3.9,0.5-6,0.7v22.1c2-0.2,4-0.5,6-0.8v0.7
		C542,239.2,544,238.9,546,238.6z"/>
	<path class="st0" d="M564,233.4c2.1-0.9,4.1-1.8,6-2.9V207c-1.9,1.4-3.9,2.6-6,3.7v-3.4c-1.9,1.3-3.9,2.6-6,3.6v22.6
		c2.1-0.9,4.1-1.8,6-2.8V233.4z"/>
	<path class="st0" d="M594,401.1c2.2-2.4,4.2-5.2,6-8.1v-62.7c-1.8-3-3.8-5.7-6-8V401.1z"/>
	<path class="st0" d="M600,436.5c-1.4-4.2-3.4-8-6-11.3v81.3h6V436.5z"/>
	<path class="st0" d="M570,433.6c3.2,3.9,5.1,8.9,6,15.2v-63.4c-1.7,2.4-3.7,4.3-6,6V433.6z"/>
	<path class="st0" d="M576,310.4c-2-0.8-4-1.5-6-2.1v26.3c2.3,1.8,4.3,3.9,6,6.4V310.4z"/>
	<polygon class="st0" points="546,153.6 546,128.9 540,128.9 534,128.9 534,153.6 540,153.6 	"/>
	<rect x="588" y="1113.5" class="st0" width="6" height="22.6"/>
	<path class="st0" d="M990,1046.5h6V991c-2.1,2.8-4.1,5.7-6,8.8V1046.5z"/>
	<path class="st0" d="M1284,230.5c2,0.9,3.9,1.8,6,2.6v-26.4c-2.1-1.5-4.2-3.2-6-5V230.5z"/>
	<rect x="1230" y="1023.6" class="st0" width="6" height="22.9"/>
	<path class="st0" d="M1038,977.3l-6-15.4v64.2c-2.1-0.4-4.1-0.9-6-1.5v23.5c2,0.3,4,0.6,6,0.9v-16.9l5.4,14.3h0.6l0,0h6v-22.9h-6
		v-39.2c2-1.4,4-2.7,6-4v-27.6c-2.1,1.2-4.1,2.5-6,3.6V977.3z"/>
	<path class="st0" d="M1416,757.6c-0.9,0-1.9,0.1-2.8,0.1c-1.1,0-2.1,0-3.2-0.1v22.3c1,0,2.1,0.1,3.2,0.1c1,0,1.9,0,2.8,0v-19.2
		c2.1-1.4,4.1-2.9,6-4.5V707c-1.5,6.1-3.4,11.5-6,16.5V757.6z"/>
	<path class="st0" d="M1062,969.1c2-1.3,4-2.5,6-3.9v-29.7c-1.9,1.8-3.9,3.5-6,5.2V969.1z"/>
	<path class="st0" d="M1320,461.6c-2.3-3.9-4.3-8.2-6-12.8v43.7c1.9,1.4,3.9,2.8,6,4V461.6z"/>
	<path class="st0" d="M1344,482.1c-2.1-0.9-4.1-1.9-6-2.9v25.6c2,0.6,4,1.2,6,1.7V482.1z"/>
	<path class="st0" d="M1368,579.5c-2.1,1-4.1,2-6,3.2v31.8c1.7-2.2,3.7-4.3,6-6.3v-11.4c2,0.2,4,0.5,6,0.8v-23.2c-2-0.2-4-0.4-6-0.6
		V579.5z"/>
	<rect x="1344" y="573.5" class="st0" width="6" height="22.6"/>
	<path class="st0" d="M1368,300.2c-2,0.1-4,0.3-6,0.4v23.2c2-0.3,4-0.5,6-0.6V300.2z"/>
	<path class="st0" d="M1362,509.4c2,0.2,4,0.3,6,0.4v-22.4c-2-0.1-4-0.3-6-0.6V509.4z"/>
	<rect x="552" y="692.7" class="st0" width="6" height="23.2"/>
	<path class="st0" d="M330,359.5c2.3-6.3,4.2-11.7,6-17v-38.9h-6V359.5z"/>
	<path class="st0" d="M252,1170.2c2.3-6.3,4.2-11.7,6-17v-39.8h-6V1170.2z"/>
	<rect x="330" y="422.7" class="st0" width="6" height="23.2"/>
	<rect x="420" y="1113.5" class="st0" width="6" height="22.6"/>
	<path class="st0" d="M444,1113.5v22.6h5.6c0.1,0,0.3,0,0.4,0v-22.6c-0.1,0-0.3,0-0.4,0H444z"/>
	<rect x="774" y="1023.6" class="st0" width="6" height="22.9"/>
	<path class="st0" d="M354,336.3c-2.2,3.1-4.2,6.3-6,9.7v120.2c1.8,3.4,3.8,6.6,6,9.6v-29.9h6v-23.2h-6v-57.1l6,16v-65.5l-4.9-12.7
		H354V336.3z"/>
	<polygon class="st0" points="378,445.9 383.8,445.9 384,446.5 384,377.7 378,362.3 	"/>
	<path class="st0" d="M468,1136.8c2,0.2,4,0.5,6,0.8v-22.7c-2-0.3-4-0.5-6-0.6V1136.8z"/>
	<path class="st0" d="M708,960c-2,1.3-4,2.6-6,3.9v29.4c1.9-1.6,3.9-3.2,6-4.8V960z"/>
	<path class="st0" d="M504,715.8l-5.2-1.4c-0.3,0.7-0.5,1.5-0.8,2.2V762c2.1-1.5,4.1-3.2,6-4.9V715.8l6,0.1v-84.1l-6,15.3V715.8z"/>
	<path class="st0" d="M756,918c-1.5,3.8-3.5,7.4-6,10.6V961c2-1.4,4-2.9,6-4.5V918z"/>
	<path class="st0" d="M684,977.8c-2.1,1.9-4.1,3.8-6,5.9v62.8h6v-22.9h-2.7c0.6-2.8,1.5-5.4,2.7-8V977.8z"/>
	<polygon class="st0" points="972,153.6 978,153.6 978,128.9 972,128.9 972,122.2 966,122.2 966,145.7 972,145.7 	"/>
	<path class="st0" d="M636,1124.4c-2.1,1.2-4.1,2.5-6,3.9v39.5c1.6-5.1,3.5-9.5,6-13.3v-18.3c2,0,4,0.1,6,0.2v-22.5
		c-2-0.1-4-0.2-6-0.2V1124.4z"/>
	<rect x="612" y="1113.5" class="st0" width="6" height="22.6"/>
	<rect x="954" y="303.5" class="st0" width="6" height="22.9"/>
	<path class="st0" d="M852,1043.4v-29.1c-2.4-3.3-4.4-7.1-6-11.5V894c1.6-4.3,3.6-8.2,6-11.4v-29c-2.1,1.1-4.1,2.3-6,3.7v-13.8h-6
		v81.4l-6-9.7v46.2l6,9.8v75.2h6v-6.5C847.9,1041.2,849.9,1042.3,852,1043.4z"/>
	<path class="st0" d="M876,846.7c-2.1,0.2-4.1,0.5-6,0.8v22.8c1.9-0.5,3.9-0.9,6-1.2V846.7z"/>
	<polygon class="st0" points="870,573.5 864,573.5 864,673.9 870,650.8 	"/>
	<path class="st0" d="M924,860.1c-1.9-1.6-3.9-3-6-4.3v32.4c2.6,5.1,4.6,11.1,6,18V860.1z"/>
	<polygon class="st0" points="942,715.9 942,634.3 936,649.6 936,718 936.8,715.9 	"/>
	<path class="st0" d="M900,848.3c-1.9-0.5-3.9-0.8-6-1.1v22.6c2.1,0.4,4.1,1,6,1.7V848.3z"/>
	<path class="st0" d="M1392,755c-2.1-0.6-4.1-1.2-6-1.9v24.1c2,0.4,4,0.8,6,1.1v-6.4c2-0.6,4-1.3,6-2v-25.8c-1.9,1.1-3.9,2.2-6,3.1
		V755z"/>
	<rect x="882" y="403.8" class="st0" width="6" height="19.4"/>
	<rect x="906" y="403.8" class="st0" width="6" height="19.4"/>
	<polygon class="st0" points="846,743.2 846,645.6 840,672.2 840,654.9 834,645.3 834,691.5 840,701.3 840,766.2 	"/>
	<path class="st0" d="M960,588.3v39.6c-2.7,7-4.7,14.6-6,22.6v50.4c1.3,8.4,3.3,16.2,6,23.4v-8.4h6v-23.2h-6v-40l6-16.2v-63h-0.2
		L960,588.3z"/>
	<path class="st0" d="M822,738.7c-1.7-6.8-3.6-14.4-6-23.3v61.1h6V738.7z"/>
	<path class="st0" d="M828,876.7c-2.2,3.6-4.2,7.5-6,11.6V1010c1.8,4.1,3.8,7.9,6,11.4V876.7z"/>
	<polygon class="st0" points="1014,625.7 1008,610.3 1008,676.8 1013.9,692.7 1008,692.7 1008,715.9 1014,715.9 	"/>
	<polygon class="st0" points="888,581.6 890.1,573.5 888,573.5 	"/>
	<path class="st0" d="M492,1144.8c2.3,1.7,4.3,3.8,6,6.3v-30c-2-0.8-4-1.6-6-2.3V1144.8z"/>
	<polygon class="st0" points="276,1113.5 276,1174.9 282,1190.9 282,1125.4 277.3,1113.5 	"/>
	<polygon class="st0" points="690,326.4 692.3,326.4 692.3,506.5 696,506.5 696,303.5 690,303.5 	"/>
	<rect x="528" y="692.7" class="st0" width="6" height="23.2"/>
	<polygon class="st0" points="762,171.4 756,165.3 756,193 759.2,196.2 762,193.4 	"/>
	<polygon class="st0" points="1032,741.4 1038,757.3 1038,687.2 1032,671.9 	"/>
	<path class="st0" d="M660,1116.9c-2.1,0.2-4.1,0.5-6,0.9v-4.3h-6v203h6v2.2c2,0.4,3.9,0.7,6,0.9v-22c-2.1-0.3-4.1-0.8-6-1.4v-155.5
		c1.9-0.6,3.9-1,6-1.4v-0.5c2.1,0.6,4.1,1.3,6,2.2v-24.1c-2-0.5-4-0.9-6-1.3V1116.9z"/>
	<path class="st0" d="M1428,1145.1c2.1,1.7,4.2,3.6,6,5.7v-30.2c-1.9-1-3.9-2-6-2.8V1145.1z"/>
	<rect x="858" y="348.5" class="st0" width="6" height="129.9"/>
	<path class="st0" d="M858,185.8c-2.5-5.4-4.5-11.4-6-18.1v52.1c1.9,1.6,3.9,3.1,6,4.5V185.8z"/>
	<rect x="1074" y="303.5" class="st0" width="6" height="22.9"/>
	<rect x="738" y="303.5" class="st0" width="6" height="22.9"/>
	<rect x="1170" y="303.5" class="st0" width="6" height="23.5"/>
	<rect x="1152" y="573.5" class="st0" width="6" height="22.6"/>
	<rect x="1170" y="483" class="st0" width="6" height="23.5"/>
	<path class="st0" d="M876,1027.8c-2.1-0.3-4.1-0.7-6-1.2v22.4c2,0.3,4,0.5,6,0.7V1027.8z"/>
	<path class="st0" d="M1188,958.7c-0.4,0.3-0.8,0.5-1.2,0.8c-1.6,1-3.2,2-4.8,3.1v29.1c1.9-1.6,3.9-3.1,6-4.6V958.7z"/>
	<path class="st0" d="M1140,1006.7c-2.4,4.9-4.4,10.1-6,15.9V843.5h-6v37.7c-1.8-3-3.8-5.8-6-8.5v144.9c2.2-2.7,4.2-5.5,6-8.5v37.4
		h6l0,0h6V1006.7z"/>
	<path class="st0" d="M1104,585.9c-1.9-1.3-3.9-2.6-6-3.8v32.2c0.4,0.5,0.7,1,1.1,1.5c1.8,2.6,3.4,5.2,4.9,8v103
		c-1.5,2.9-3.1,5.6-4.9,8.1c-0.3,0.5-0.7,1-1.1,1.5V768c2.1-1.2,4.1-2.4,6-3.7v12.2h6v-203h-6V585.9z"/>
	<rect x="1128" y="573.5" class="st0" width="6" height="22.6"/>
	<rect x="1218" y="483" class="st0" width="6" height="23.5"/>
	<path class="st0" d="M1230,692.3c-1.8-1.8-3.8-3.4-6-4.9v66.2h-6v22.9h6h6V692.3z"/>
	<path class="st0" d="M1212,943.5c-2,1.4-4,2.8-6,4.1v27.6c2-1.2,4-2.5,6-3.7V943.5z"/>
	<path class="st0" d="M1164,976c-2.1,1.8-4.1,3.7-6,5.6v64.9h6v-22.9h-4.8c1-4.3,2.6-8.3,4.8-12.1V976z"/>
	<rect x="1170" y="392.2" class="st0" width="6" height="23.5"/>
	<polygon class="st0" points="1146,506.5 1152,506.5 1152,483 1151.7,483 1151.7,415.7 1152,415.7 1152,392.2 1151.7,392.2 
		1151.7,327 1152,327 1152,303.5 1146,303.5 	"/>
	<rect x="1125.6" y="303.5" class="st0" width="2.4" height="203"/>
	<rect x="1098" y="303.5" class="st0" width="1.2" height="22.9"/>
	<rect x="1194" y="392.2" class="st0" width="6" height="23.5"/>
	<rect x="1242" y="392.2" class="st0" width="3.9" height="23.5"/>
	<path class="st0" d="M1236,910c-0.8,5.9-3,11.1-6,15.7v33.8c2-1.5,4-3.1,6-4.7V910z"/>
	<rect x="1206" y="1023.6" class="st0" width="6" height="22.9"/>
	<rect x="1182" y="1023.6" class="st0" width="6" height="22.9"/>
	<rect x="1218" y="392.2" class="st0" width="6" height="23.5"/>
	<rect x="1194" y="483" class="st0" width="6" height="23.5"/>
	<path class="st0" d="M1176,692.6c2.1,0.1,4.1,0.2,6,0.4v-23.4c-2,0.2-4,0.3-6,0.4V692.6z"/>
	<path class="st0" d="M1038,869.1c1.9-0.4,3.9-0.6,6-0.8v-21.8c-2.1,0.1-4.1,0.3-6,0.5V869.1z"/>
	<path class="st0" d="M1014,888.1c1.5-3.4,3.4-6.6,6-9.4v-27.3c-2.1,0.8-4.1,1.7-6,2.7V888.1z"/>
	<path class="st0" d="M1164,856.2c-2.2,1.3-4.2,2.8-6,4.3v-17h-6v22.9h6v43.8l5.6,0.9c0-2.5,0.1-5.3,0.4-8.2V856.2z"/>
	<path class="st0" d="M924,1036.4v-46.7c-1.4,7-3.4,13.1-6,18.3v-62.4l-6,15.3V843.5h-6v203h6v-15.1l6-16.1v25.4
		C920.1,1039.4,922.1,1037.9,924,1036.4z"/>
	<path class="st0" d="M942,1013.5c2.3-4.5,4.3-9.4,6-14.6v-101c-1.7-5.2-3.7-10.1-6-14.7v1.1l-6,15.3v86.3h6V1013.5z M937.4,962.7
		l4.6-12.5v12.5H937.4z"/>
	<path class="st0" d="M1236,854.6c-1.9-1.1-3.9-2.1-6-3v29c3.2,4.6,5.2,10.4,6,17.3V854.6z"/>
	<rect x="978" y="303.5" class="st0" width="6" height="22.9"/>
	<rect x="1152" y="670.1" class="st0" width="6" height="22.3"/>
	<path class="st0" d="M1140,889.3c-1.6,6.1-2.3,12.2-2.2,17.7l2.2,0.4V889.3z"/>
	<path class="st0" d="M1224,678.4c2.1-1.4,4.1-2.9,6-4.7v-83.9c-1.9-1.7-3.9-3.2-6-4.6V678.4z"/>
	<path class="st0" d="M1182,573.9c-2-0.1-4-0.2-6-0.3v22.6c2,0.1,4,0.1,6,0.3V573.9z"/>
	<path class="st0" d="M1212,846.9c-2-0.2-4-0.4-6-0.5v-3h-6h-6v203h6v-180h6v1.9c2.1,0.2,4.1,0.5,6,0.9V846.9z"/>
	<path class="st0" d="M1188,847.6c-2.1,0.3-4.1,0.7-6,1.2v-5.3h-6v22.9h6v6c1.8-0.9,3.8-1.8,6-2.4V847.6z"/>
	<rect x="498" y="303.5" class="st0" width="6" height="22.6"/>
	<rect x="396" y="1113.5" class="st0" width="6" height="203"/>
	<polygon class="st0" points="348,1316.5 354,1316.5 354,1310.1 348,1294.7 	"/>
	<path class="st0" d="M468,1233.5c2-0.2,4-0.4,6-0.6v-22.7c-2,0.4-4,0.6-6,0.9V1233.5z"/>
	<rect x="420" y="1211.8" class="st0" width="6" height="22.3"/>
	<polygon class="st0" points="324,1303.4 329,1316.5 330,1316.5 330,1248.5 324,1233.1 	"/>
	<path class="st0" d="M444,1211.8v22.3h5.3c0.2,0,0.5,0,0.7,0v-22.3c-0.2,0-0.5,0-0.7,0H444z"/>
	<polygon class="st0" points="300,1255.9 306,1255.9 306,1187 300,1171.6 	"/>
	<rect x="252" y="1232.7" class="st0" width="6" height="23.2"/>
	<polygon class="st0" points="228,1255.9 234,1255.9 234,1232.7 228.9,1232.7 234,1218.9 234,1153.1 228,1168.5 	"/>
	<rect x="276" y="1232.7" class="st0" width="6" height="23.2"/>
	<path class="st0" d="M636,1234.1c2,0,4-0.1,6-0.2v-22.3c-2,0.1-4,0.2-6,0.2V1234.1z"/>
	<polygon class="st0" points="204,1300.1 210,1284 210,1214.4 204,1229.8 	"/>
	<path class="st0" d="M660,1232c2-0.4,4-0.8,6-1.2v-24.1c-1.9,0.9-3.9,1.6-6,2.2V1232z"/>
	<rect x="702" y="1023.6" class="st0" width="6" height="22.9"/>
	<path class="st0" d="M516,1215c2.2-2.4,4.3-5,6-7.9v-65.3c-1.8-3.1-3.8-5.8-6-8.2V1215z"/>
	<path class="st0" d="M492,1203.1v26c2-0.6,4.1-1.4,6-2.2v-29.8C496.3,1199.5,494.3,1201.4,492,1203.1z"/>
	<rect x="564" y="1113.5" class="st0" width="6" height="203"/>
	<rect x="588" y="1211.8" class="st0" width="6" height="22.3"/>
	<path class="st0" d="M516,53.9c2-0.3,4-0.5,6-0.7v-23c-2,0.1-4,0.3-6,0.5v-0.5c-2,0.1-4,0.3-6,0.5V54c2-0.3,4-0.6,6-0.7V53.9z"/>
	<path class="st0" d="M468,93.8c1.6-4.8,3.7-9.2,6-13.3V45.2c-2.1,1.4-4.1,2.8-6,4.4v-4c-2.1,1.4-4.1,2.9-6,4.5v45.4
		c1.6-5.1,3.6-9.8,6-14V93.8z"/>
	<path class="st0" d="M492,62.1c1.9-1.1,3.9-2.2,6-3.1V34.2c-2,0.6-4,1.2-6,2v-1.8c-2,0.6-4,1.3-6,2v26.1c1.9-1.2,3.9-2.2,6-3.2
		V62.1z"/>
	<rect x="642" y="303.5" class="st0" width="6" height="22.9"/>
	<rect x="666" y="303.5" class="st0" width="6" height="22.9"/>
	<path class="st0" d="M612,81.8v12.5l3.9-0.8C614.8,89.4,613.5,85.5,612,81.8z"/>
	<polygon class="st0" points="312,342.4 306,357.7 306,445.9 312,445.9 312,422.7 306.6,422.7 312,408.2 	"/>
	<polygon class="st0" points="180,1316.5 186,1316.5 186,1275.7 180,1291.1 	"/>
	<rect x="420" y="213.6" class="st0" width="6" height="22.9"/>
	<rect x="396" y="213.6" class="st0" width="6" height="22.9"/>
	<path class="st0" d="M372,236.5h6v-22.9h-6V33.5h-5.2v136c0,3.4-0.3,6.7-0.8,9.7V227c2.1-1.4,4.1-2.9,6-4.5V236.5z"/>
	<path class="st0" d="M1476,1259.9c2.8-8,4.9-16.7,6-25.9v-37.7c-1.2-9.1-3.2-17.8-6-25.8V1259.9z"/>
	<path class="st0" d="M1380,1319.8c2,0.1,4,0.2,6,0.2v-22.3c-2,0-4-0.1-6-0.3V1319.8z"/>
	<path class="st0" d="M1428,1285.7v26.7c2.1-0.9,4.1-1.8,6-2.8V1280C1432.2,1282.1,1430.2,1284,1428,1285.7z"/>
	<path class="st0" d="M1404,1318.8c2-0.3,4-0.6,6-1v-23c-1.9,0.6-3.9,1-6,1.4V1318.8z"/>
	<polygon class="st0" points="690,160.1 684,166.1 684,193.7 690,187.6 	"/>
	<path class="st0" d="M1452,1133.2v59.4c1,6.8,1.6,14.2,1.6,22.4c0,8.1-0.5,15.6-1.6,22.5v59.6c2.1-1.9,4.1-4,6-6.1v-151.7
		C1456.1,1137.2,1454.1,1135.1,1452,1133.2z"/>
	<path class="st0" d="M1212,1259.4c-2.1,2.6-4.1,5.4-6,8.4v25.8h-6v22.9h6l0,0h6v-21.2l6,9.8v-45.4c-2-3.7-4-7.3-6-10.7V1259.4z"/>
	<polygon class="st0" points="1500,1118.1 1506,1141.2 1506,1113.5 1500,1113.5 	"/>
	<path class="st0" d="M1236,1120.9c-2.1,0.8-4.1,1.6-6,2.5v32c1.5-2.9,3.5-5.6,6-8v90c-2,1.5-4,2.9-6,4.5v32.5
		c1.8-2.3,3.8-4.4,6-6.5v25.8h-6v22.9h6h6v-203h-6V1120.9z"/>
	<path class="st0" d="M1332,1270.5v35.5c1.9,1.2,3.9,2.4,6,3.4v-30.9c-1.1-1.1-2.1-2.3-3-3.5C1334,1273.7,1333,1272.2,1332,1270.5z"
		/>
	<path class="st0" d="M1356,1316.2c2,0.5,4,1,6,1.4v-23.8c-2.1-0.7-4.1-1.5-6-2.3V1316.2z"/>
	<path class="st0" d="M1692,1259.3v57.2h6v-84.6l-0.8,3.7C1695.3,1243.9,1693.6,1251.9,1692,1259.3z"/>
	<path class="st0" d="M1668,1217.2v84.5l4.2,14.8h1.8v-77.6c-0.3-1.1-0.6-2.2-0.9-3.3L1668,1217.2z"/>
	<polygon class="st0" points="1716,1254.1 1722,1231 1722,1125.5 1716,1152.1 	"/>
	<polygon class="st0" points="1644,1217.9 1650,1238.9 1650,1152.5 1644,1130.9 	"/>
	<rect x="750" y="1023.6" class="st0" width="6" height="22.9"/>
	<polygon class="st0" points="1596,1257.8 1602,1236.5 1602,1151.9 1596,1173.9 	"/>
	<polygon class="st0" points="1548,1302.7 1551.6,1316.5 1554,1316.5 1554,1232.2 1548,1206.2 	"/>
	<path class="st0" d="M1620,1171.4c2-7.7,3.7-14.8,5.3-21.4h0.3c0.2,0.6,0.3,1.2,0.5,1.8v-38.4h-6v58H1620z"/>
	<path class="st0" d="M1572,1316.5h6v-76.6c-1.9,7.3-4,15.2-6,22.8V1316.5z"/>
	<polygon class="st0" points="1524,1113.5 1524,1210.4 1530,1233.5 1530,1128 1526.7,1113.5 	"/>
	<polygon class="st0" points="1740,1161.8 1746,1138.7 1746,1113.5 1740,1113.5 	"/>
	<path class="st0" d="M948,1181.3v45l6-9.6v-45.8l-0.4,0.7C951.8,1174.7,949.9,1177.9,948,1181.3z"/>
	<polygon class="st0" points="852,1122.1 858,1131.7 858,1113.5 852,1113.5 	"/>
	<rect x="852" y="1293.6" class="st0" width="6" height="22.9"/>
	<polygon class="st0" points="900,1198.8 906,1208.4 906,1162.6 900,1152.4 	"/>
	<path class="st0" d="M924,1316.5h6v-112c-1.9-3.4-4-7.1-6-10.7V1316.5z"/>
	<polygon class="st0" points="876,1113.5 876,1160.5 882,1170 882,1121.9 877.1,1113.5 	"/>
	<rect x="780" y="1293.6" class="st0" width="6" height="22.9"/>
	<rect x="756" y="1113.5" class="st0" width="6" height="203"/>
	<rect x="804" y="1293.6" class="st0" width="6" height="22.9"/>
	<rect x="828" y="1293.6" class="st0" width="6" height="22.9"/>
	<rect x="1086" y="1023.6" class="st0" width="6" height="22.9"/>
	<rect x="1116" y="1113.5" class="st0" width="6" height="203"/>
	<path class="st0" d="M1140,1176.8c2.2,4,4.3,7.7,6,10.8v-45.5l-6-9.7V1176.8z"/>
	<polygon class="st0" points="972,1187.9 978,1178.3 978,1130.2 972,1140.3 	"/>
	<polygon class="st0" points="1164,1217.2 1170,1226.9 1170,1180.7 1164,1171.1 	"/>
	<polygon class="st0" points="996,1149.6 1002,1140 1002,1113.5 996,1113.5 	"/>
	<rect x="1014" y="1023.6" class="st0" width="6" height="22.9"/>
	<polygon class="st0" points="1188,1256.2 1194,1266 1194,1219.3 1188,1209.7 	"/>
	<path class="st0" d="M1062,1038.9l-6-15.4v3.9c-1.9,0.1-3.9,0.2-6,0.3v22.3c2,0,4-0.1,6-0.2v-3.2h6l0,0h6v-22.9h-6V1038.9z"/>
	<path class="st0" d="M1602,217v-35.1c-1.6,4.7-3.6,9-6,12.8v28C1598.1,220.9,1600.1,219,1602,217z"/>
	<path class="st0" d="M1578,211c-1.9,1-3.9,1.9-6,2.6v22.2c2.1-0.7,4.1-1.4,6-2.2V211z"/>
	<path class="st0" d="M1548,239.9c2-0.1,4-0.2,6-0.4v-22.1c-1.9,0.2-4,0.2-6,0.3V213h-6v23.5h6V239.9z"/>
	<rect x="1596" y="128.9" class="st0" width="6" height="24.6"/>
	<path class="st0" d="M1536,415.7v-23.5h-6v7.1c-2,0.2-4,0.4-6,0.5v-7.6h-6v23.5h6v6.9c2.1,0.1,4.1,0.3,6,0.5v-7.4H1536z"/>
	<rect x="1602" y="392.2" class="st0" width="6" height="23.5"/>
	<rect x="1572" y="128.9" class="st0" width="6" height="24.6"/>
	<path class="st0" d="M1500,66.7c1.9-1.6,3.9-3,6-4.3V36.3c-2.1,0.8-4.1,1.6-6,2.5v-5.3h-6V57h6V66.7z"/>
	<path class="st0" d="M1602,99V48.7c-1.9-1.5-3.9-3-6-4.3v39.8C1598.5,88.9,1600.5,93.9,1602,99L1602,99z"/>
	<path class="st0" d="M1578,35.6c-2-0.7-4-1.3-6-1.9v25.8c2.1,1.1,4.1,2.4,6,3.7V35.6z"/>
	<polygon class="st0" points="1548,153.6 1554,153.6 1554,128.9 1548,128.9 1548,122.2 1542,122.2 1542,145.7 1548,145.7 	"/>
	<path class="st0" d="M1524,238.6c2,0.3,4,0.5,6,0.7v-22.7c-2.1-0.3-4.1-0.6-6-1V213h-6v23.5h6V238.6z"/>
	<path class="st0" d="M1626,236.5V128.9h-6V95.5l6-1.2V80.9c-1.8-4.2-3.8-8.1-6-11.8V33.5h-6v203h6H1626z"/>
	<polygon class="st0" points="1356,153.6 1362,153.6 1362,128.9 1356,128.9 1356,122.2 1350,122.2 1350,145.7 1356,145.7 	"/>
	<path class="st0" d="M1440,446l-5.9-1.5c0,0.1-0.1,0.3-0.1,0.4v46.8c2.1-1.6,4.1-3.2,6-5V446z"/>
	<path class="st0" d="M1440,735.3c2.3-3.8,4.2-7.8,6-12v-96.2c-1.7-4.2-3.7-8.2-6-12V735.3z"/>
	<path class="st0" d="M1386,323.8c2.1,0.3,4.1,0.8,6,1.3v-23.8c-2-0.3-4-0.6-6-0.8V323.8z"/>
	<path class="st0" d="M1320,314.7c-2.1,1.3-4.1,2.8-6,4.3v-15.4h-2.1l-3.9,9.9v64.1l5.9-16c0-0.1,0.1-0.2,0.1-0.3v0.6
		c1.7-4.6,3.7-8.8,6-12.6V314.7z"/>
	<path class="st0" d="M1344,304c-2,0.6-4,1.2-6,1.9v-2.4h-6v44c1.7,4.8,3.4,9.6,5.1,14l0.9,2.4v-32.3c1.9-1.1,3.9-2.1,6-3V304z"/>
	<rect x="1320" y="573.5" class="st0" width="6" height="22.6"/>
	<rect x="1320" y="753.9" class="st0" width="6" height="22.6"/>
	<path class="st0" d="M1380,1133.3c1.9-0.2,3.9-0.3,6-0.3v-23c-2,0-4,0.1-6,0.2V1133.3z"/>
	<path class="st0" d="M1332,1160.6c1.2-2.1,2.5-4.1,3.8-5.9c0.7-0.9,1.4-1.7,2.2-2.6v-30.5c-2.1,1.1-4.1,2.3-6,3.6V1160.6z"/>
	<path class="st0" d="M1356,1139.3c1.9-0.9,3.9-1.6,6-2.3v-24.3c-2,0.5-4,1-6,1.5V1139.3z"/>
	<polygon class="st0" points="684,120.9 690,126.8 690,99.5 684,93.5 	"/>
	<path class="st0" d="M1404,1134.3c2.1,0.4,4.1,0.9,6,1.5v-23.6c-2-0.4-4-0.8-6-1V1134.3z"/>
	<polygon class="st0" points="1302,573.5 1296,573.5 1296,753.6 1290,753.6 1290,776.5 1296,776.5 1302,776.5 	"/>
	<path class="st0" d="M1314,216c-2.1-0.4-4.1-0.8-6-1.3V238c2,0.4,4,0.7,6,0.9V216z"/>
	<rect x="1333.4" y="128.9" class="st0" width="4.6" height="24.6"/>
	<path class="st0" d="M1332,240c2,0,4-0.1,6-0.2v-22.2c-1.3,0.1-2.7,0.1-4.1,0.1c-0.7,0-1.3,0-2,0L1332,240L1332,240z"/>
	<rect x="996" y="128.9" class="st0" width="6" height="107.6"/>
	<path class="st0" d="M1002,91.9c-1.6-5.6-3.6-10.9-6-15.8v18.7l6-1.2V91.9z"/>
	<path class="st0" d="M972,92.7c0.8,2.1,1.5,4.2,2.1,6.4l3.9-0.8V52c-1.9-1.7-3.9-3.4-6-4.9V33.5h-6V57h6V92.7z"/>
	<path class="st0" d="M948,61.7c2.1,1.4,4.1,2.9,6,4.5V37c-2-0.8-4-1.5-6-2.2v-1.3h-6V57h6V61.7z"/>
	<path class="st0" d="M924,33.5h-6V57h6v-3.6c2.1,0.2,4.1,0.6,6,1V30.9c-2-0.2-4-0.4-6-0.6V33.5z"/>
	<polygon class="st0" points="1002,326.4 1005.2,326.4 1005.2,506.5 1008,506.5 1008,303.5 1002,303.5 	"/>
	<rect x="1050" y="303.5" class="st0" width="6" height="22.9"/>
	<path class="st0" d="M1050,33.5h-6h-6v203h6v-46.9c1.3,6.1,3.4,11.6,6,16.6V33.5z"/>
	<polygon class="st0" points="1031.6,326.4 1032,326.4 1032,303.5 1026,303.5 1026,506.5 1031.6,506.5 	"/>
	<rect x="834" y="403.8" class="st0" width="6" height="19.4"/>
	<rect x="762" y="303.5" class="st0" width="6" height="22.9"/>
	<polygon class="st0" points="756,121.7 762,115.6 762,93.2 759.5,90.6 756,94.1 	"/>
	<polygon class="st0" points="738,147.2 734.2,143.4 738,139.6 738,112.1 732,118.1 732,169 738,175 	"/>
	<polygon class="st0" points="708,169.7 714,163.6 714,123.5 708,117.5 	"/>
	<rect x="786" y="303.5" class="st0" width="0.3" height="22.9"/>
	<path class="st0" d="M834,73.9c-2.3,4-4.3,8.2-6,12.6v99.2c1.7,4.5,3.7,8.7,6,12.6V73.9z"/>
	<rect x="810" y="403.8" class="st0" width="6" height="19.4"/>
	<path class="st0" d="M858,47c-2.1,1.5-4.1,3.1-6,4.8V103c1.5-6.5,3.5-12.3,6-17.6V47z"/>
	<path class="st0" d="M1074,230v-36.8c-3.6-6.5-5.7-14.4-5.7-23.7v-136h-0.3v10.6l-6-9.7v41.4c1.9,3.7,4,7.5,6,11.3v139.1
		C1069.9,227.7,1071.9,228.9,1074,230z"/>
	<path class="st0" d="M1194,33.5h-6v179.7c2.3-3.1,4.3-6.5,6-10.2V33.5z"/>
	<path class="st0" d="M1362,34.5c-2-0.6-4-1.1-6-1.6v25c2.1,0.9,4.1,2,6,3.1V34.5z"/>
	<path class="st0" d="M1410,73.6c-1.8-3.4-3.8-6.6-6-9.7v32.2l6-1.2V73.6z"/>
	<path class="st0" d="M1362,212.6c-1.9,0.8-3.9,1.5-6,2.1v22.1c2.1-0.6,4-1.2,6-1.9V212.6z"/>
	<path class="st0" d="M1314,31.2c-2,0.3-4,0.6-6,1V56c1.9-0.6,3.9-1,6-1.4V31.2z"/>
	<path class="st0" d="M1338,30.2c-2-0.1-4-0.2-6-0.2v22.9c2.1,0,4.1,0.1,6,0.3V30.2z"/>
	<path class="st0" d="M1410,333.7c2.1,1.5,4.1,3.2,6,5v-30.4c-2-0.9-4-1.7-6-2.4V333.7z"/>
	<rect x="1404" y="128.9" class="st0" width="6" height="107.6"/>
	<path class="st0" d="M1440,324.4c-1.9-1.9-3.9-3.6-6-5.3V369l6-1.2V324.4z"/>
	<path class="st0" d="M1290,37.7c-2.1,0.9-4.1,1.8-6,2.8v29.4c1.9-1.9,3.9-3.6,6-5.1V37.7z"/>
	<rect x="1194" y="303.5" class="st0" width="6" height="23.5"/>
	<path class="st0" d="M1140,238.7c2.1-0.3,4.1-0.6,6-1v-25.4c-1.9,0.8-3.9,1.5-6,2V238.7z"/>
	<path class="st0" d="M1116,239.9c1.7,0.1,3.4,0.1,5.1,0.1c0.3,0,0.6,0,0.9,0v-23.2c-0.3,0-0.6,0-0.9,0c-1.7,0-3.4-0.1-5.1-0.2
		V239.9z"/>
	<path class="st0" d="M1098,212.9c-2.1-0.8-4.1-1.6-6-2.6v26.5c1.9,0.5,3.9,0.9,6,1.3V212.9z"/>
	<rect x="1242" y="303.5" class="st0" width="6" height="23.5"/>
	<rect x="1218" y="303.5" class="st0" width="6" height="23.5"/>
</g>
</svg>
