<?xml version="1.0" encoding="utf-8"?>
<!-- Generator: Adobe Illustrator 26.5.0, SVG Export Plug-In . SVG Version: 6.00 Build 0)  -->
<svg version="1.1" id="Layer_1" xmlns="http://www.w3.org/2000/svg" xmlns:xlink="http://www.w3.org/1999/xlink" x="0px" y="0px"
	 viewBox="0 0 1920 1350" style="enable-background:new 0 0 1920 1350;" xml:space="preserve">
<path d="M6,540h6v270h6v270H0V810V540V270h6V540z M30,270h-6V0H6v270h6v270h6v270h6v270h18V810h-6V540h-6V270z M54,270h-6V0H30v270
	h6v270h6v270h6v270h18V810h-6V540h-6V270z M78,270h-6V0H54v270h6v270h6v270h6v270h18V810h-6V540h-6V270z M102,270h-6V0H78v270h6v270
	h6v270h6v270h18V810h-6V540h-6V270z M126,270h-6V0h-18v270h6v270h6v270h6v270h18V810h-6V540h-6V270z M150,270h-6V0h-18v270h6v270h6
	v270h6v270h18V810h-6V540h-6V270z M174,270h-6V0h-18v270h6v270h6v270h6v270h18V810h-6V540h-6V270z M198,270h-6V0h-18v270h6v270h6
	v270h6v270h18V810h-6V540h-6V270z M222,270h-6V0h-18v270h6v270h6v270h6v270h18V810h-6V540h-6V270z M246,270h-6V0h-18v270h6v270h6
	v270h6v270h18V810h-6V540h-6V270z M270,270h-6V0h-18v270h6v270h6v270h6v270h18V810h-6V540h-6V270z M294,270h-6V0h-18v270h6v270h6
	v270h6v270h18V810h-6V540h-6V270z M318,270h-6V0h-18v270h6v270h6v270h6v270h18V810h-6V540h-6V270z M342,270h-6V0h-18v270h6v270h6
	v270h6v270h18V810h-6V540h-6V270z M366,270h-6V0h-18v270h6v270h6v270h6v270h18V810h-6V540h-6V270z M390,270h-6V0h-18v270h6v270h6
	v270h6v270h18V810h-6V540h-6V270z M414,270h-6V0h-18v270h6v270h6v270h6v270h18V810h-6V540h-6V270z M438,270h-6V0h-18v270h6v270h6
	v270h6v270h18V810h-6V540h-6V270z M462,270h-6V0h-18v270h6v270h6v270h6v270h18V810h-6V540h-6V270z M486,270h-6V0h-18v270h6v270h6
	v270h6v270h18V810h-6V540h-6V270z M510,270h-6V0h-18v270h6v270h6v270h6v270h18V810h-6V540h-6V270z M534,270h-6V0h-18v270h6v270h6
	v270h6v270h18V810h-6V540h-6V270z M558,270h-6V0h-18v270h6v270h6v270h6v270h18V810h-6V540h-6V270z M582,270h-6V0h-18v270h6v270h6
	v270h6v270h18V810h-6V540h-6V270z M606,270h-6V0h-18v270h6v270h6v270h6v270h18V810h-6V540h-6V270z M630,270h-6V0h-18v270h6v270h6
	v270h6v270h18V810h-6V540h-6V270z M654,270h-6V0h-18v270h6v270h6v270h6v270h18V810h-6V540h-6V270z M678,270h-6V0h-18v270h6v270h6
	v270h6v270h18V810h-6V540h-6V270z M702,270h-6V0h-18v270h6v270h6v270h6v270h18V810h-6V540h-6V270z M726,270h-6V0h-18v270h6v270h6
	v270h6v270h18V810h-6V540h-6V270z M750,270h-6V0h-18v270h6v270h6v270h6v270h18V810h-6V540h-6V270z M774,270h-6V0h-18v270h6v270h6
	v270h6v270h18V810h-6V540h-6V270z M798,270h-6V0h-18v270h6v270h6v270h6v270h18V810h-6V540h-6V270z M822,270h-6V0h-18v270h6v270h6
	v270h6v270h18V810h-6V540h-6V270z M846,270h-6V0h-18v270h6v270h6v270h6v270h18V810h-6V540h-6V270z M870,270h-6V0h-18v270h6v270h6
	v270h6v270h18V810h-6V540h-6V270z M894,270h-6V0h-18v270h6v270h6v270h6v270h18V810h-6V540h-6V270z M918,270h-6V0h-18v270h6v270h6
	v270h6v270h18V810h-6V540h-6V270z M942,270h-6V0h-18v270h6v270h6v270h6v270h18V810h-6V540h-6V270z M966,270h-6V0h-18v270h6v270h6
	v270h6v270h18V810h-6V540h-6V270z M990,270h-6V0h-18v270h6v270h6v270h6v270h18V810h-6V540h-6V270z M1014,270h-6V0h-18v270h6v270h6
	v270h6v270h18V810h-6V540h-6V270z M1038,270h-6V0h-18v270h6v270h6v270h6v270h18V810h-6V540h-6V270z M1062,270h-6V0h-18v270h6v270h6
	v270h6v270h18V810h-6V540h-6V270z M1086,270h-6V0h-18v270h6v270h6v270h6v270h18V810h-6V540h-6V270z M1110,270h-6V0h-18v270h6v270h6
	v270h6v270h18V810h-6V540h-6V270z M1134,270h-6V0h-18v270h6v270h6v270h6v270h18V810h-6V540h-6V270z M1158,270h-6V0h-18v270h6v270h6
	v270h6v270h18V810h-6V540h-6V270z M1182,270h-6V0h-18v270h6v270h6v270h6v270h18V810h-6V540h-6V270z M1206,270h-6V0h-18v270h6v270h6
	v270h6v270h18V810h-6V540h-6V270z M1230,270h-6V0h-18v270h6v270h6v270h6v270h18V810h-6V540h-6V270z M1254,270h-6V0h-18v270h6v270h6
	v270h6v270h18V810h-6V540h-6V270z M1278,270h-6V0h-18v270h6v270h6v270h6v270h18V810h-6V540h-6V270z M1302,270h-6V0h-18v270h6v270h6
	v270h6v270h18V810h-6V540h-6V270z M1326,270h-6V0h-18v270h6v270h6v270h6v270h18V810h-6V540h-6V270z M1350,270h-6V0h-18v270h6v270h6
	v270h6v270h18V810h-6V540h-6V270z M1374,270h-6V0h-18v270h6v270h6v270h6v270h18V810h-6V540h-6V270z M1398,270h-6V0h-18v270h6v270h6
	v270h6v270h18V810h-6V540h-6V270z M1422,270h-6V0h-18v270h6v270h6v270h6v270h18V810h-6V540h-6V270z M1446,270h-6V0h-18v270h6v270h6
	v270h6v270h18V810h-6V540h-6V270z M1470,270h-6V0h-18v270h6v270h6v270h6v270h18V810h-6V540h-6V270z M1494,270h-6V0h-18v270h6v270h6
	v270h6v270h18V810h-6V540h-6V270z M1518,270h-6V0h-18v270h6v270h6v270h6v270h18V810h-6V540h-6V270z M1542,270h-6V0h-18v270h6v270h6
	v270h6v270h18V810h-6V540h-6V270z M1566,270h-6V0h-18v270h6v270h6v270h6v270h18V810h-6V540h-6V270z M1590,270h-6V0h-18v270h6v270h6
	v270h6v270h18V810h-6V540h-6V270z M1614,270h-6V0h-18v270h6v270h6v270h6v270h18V810h-6V540h-6V270z M1638,270h-6V0h-18v270h6v270h6
	v270h6v270h18V810h-6V540h-6V270z M1662,270h-6V0h-18v270h6v270h6v270h6v270h18V810h-6V540h-6V270z M1686,270h-6V0h-18v270h6v270h6
	v270h6v270h18V810h-6V540h-6V270z M1710,270h-6V0h-18v270h6v270h6v270h6v270h18V810h-6V540h-6V270z M1734,270h-6V0h-18v270h6v270h6
	v270h6v270h18V810h-6V540h-6V270z M1758,270h-6V0h-18v270h6v270h6v270h6v270h18V810h-6V540h-6V270z M1782,270h-6V0h-18v270h6v270h6
	v270h6v270h18V810h-6V540h-6V270z M1806,270h-6V0h-18v270h6v270h6v270h6v270h18V810h-6V540h-6V270z M1830,270h-6V0h-18v270h6v270h6
	v270h6v270h18V810h-6V540h-6V270z M1854,270h-6V0h-18v270h6v270h6v270h6v270h18V810h-6V540h-6V270z M1878,270h-6V0h-18v270h6v270h6
	v270h6v270h18V810h-6V540h-6V270z M1902,270h-6V0h-18v270h6v270h6v270h6v270h18V810h-6V540h-6V270z M1902,0v270h6v270h6v270h6V540
	V270V0H1902z M24,1350v-270H6v270h6H24z M48,1350v-270H30v270h6H48z M72,1350v-270H54v270h6H72z M96,1350v-270H78v270h6H96z
	 M120,1350v-270h-18v270h6H120z M144,1350v-270h-18v270h6H144z M168,1350v-270h-18v270h6H168z M192,1350v-270h-18v270h6H192z
	 M216,1350v-270h-18v270h6H216z M240,1350v-270h-18v270h6H240z M264,1350v-270h-18v270h6H264z M288,1350v-270h-18v270h6H288z
	 M312,1350v-270h-18v270h6H312z M336,1350v-270h-18v270h6H336z M360,1350v-270h-18v270h6H360z M384,1350v-270h-18v270h6H384z
	 M408,1350v-270h-18v270h6H408z M432,1350v-270h-18v270h6H432z M456,1350v-270h-18v270h6H456z M480,1350v-270h-18v270h6H480z
	 M504,1350v-270h-18v270h6H504z M528,1350v-270h-18v270h6H528z M552,1350v-270h-18v270h6H552z M576,1350v-270h-18v270h6H576z
	 M600,1350v-270h-18v270h6H600z M624,1350v-270h-18v270h6H624z M648,1350v-270h-18v270h6H648z M672,1350v-270h-18v270h6H672z
	 M696,1350v-270h-18v270h6H696z M720,1350v-270h-18v270h6H720z M744,1350v-270h-18v270h6H744z M768,1350v-270h-18v270h6H768z
	 M792,1350v-270h-18v270h6H792z M816,1350v-270h-18v270h6H816z M840,1350v-270h-18v270h6H840z M864,1350v-270h-18v270h6H864z
	 M888,1350v-270h-18v270h6H888z M912,1350v-270h-18v270h6H912z M936,1350v-270h-18v270h6H936z M960,1350v-270h-18v270h6H960z
	 M984,1350v-270h-18v270h6H984z M1008,1350v-270h-18v270h6H1008z M1032,1350v-270h-18v270h6H1032z M1056,1350v-270h-18v270h6H1056z
	 M1080,1350v-270h-18v270h6H1080z M1104,1350v-270h-18v270h6H1104z M1128,1350v-270h-18v270h6H1128z M1152,1350v-270h-18v270h6H1152
	z M1176,1350v-270h-18v270h6H1176z M1200,1350v-270h-18v270h6H1200z M1224,1350v-270h-18v270h6H1224z M1248,1350v-270h-18v270h6
	H1248z M1272,1350v-270h-18v270h6H1272z M1296,1350v-270h-18v270h6H1296z M1320,1350v-270h-18v270h6H1320z M1344,1350v-270h-18v270
	h6H1344z M1368,1350v-270h-18v270h6H1368z M1392,1350v-270h-18v270h6H1392z M1416,1350v-270h-18v270h6H1416z M1440,1350v-270h-18
	v270h6H1440z M1464,1350v-270h-18v270h6H1464z M1488,1350v-270h-18v270h6H1488z M1512,1350v-270h-18v270h6H1512z M1536,1350v-270
	h-18v270h6H1536z M1560,1350v-270h-18v270h6H1560z M1584,1350v-270h-18v270h6H1584z M1608,1350v-270h-18v270h6H1608z M1632,1350
	v-270h-18v270h6H1632z M1656,1350v-270h-18v270h6H1656z M1680,1350v-270h-18v270h6H1680z M1704,1350v-270h-18v270h6H1704z
	 M1728,1350v-270h-18v270h6H1728z M1752,1350v-270h-18v270h6H1752z M1776,1350v-270h-18v270h6H1776z M1800,1350v-270h-18v270h6H1800
	z M1824,1350v-270h-18v270h6H1824z M1848,1350v-270h-18v270h6H1848z M1872,1350v-270h-18v270h6H1872z M1896,1350v-270h-18v270h6
	H1896z M1920,1350v-270h-18v270h6H1920z"/>
<g>
</g>
<g>
</g>
<g>
</g>
<g>
</g>
<g>
</g>
<g>
</g>
<g>
</g>
<g>
</g>
<g>
</g>
<g>
</g>
<g>
</g>
<g>
</g>
<g>
</g>
<g>
</g>
<g>
</g>
</svg>
