<?xml version="1.0" encoding="utf-8"?>
<!-- Generator: Adobe Illustrator 26.2.1, SVG Export Plug-In . SVG Version: 6.00 Build 0)  -->
<svg version="1.1" id="a" xmlns="http://www.w3.org/2000/svg" xmlns:xlink="http://www.w3.org/1999/xlink" x="0px" y="0px"
	 viewBox="0 0 1920 1080" style="enable-background:new 0 0 1920 1080;" xml:space="preserve">
<rect x="1363.1" y="150" width="18.6" height="6"/>
<path d="M1758.4,114h-21.2c0.6,2.1,1.2,4.1,1.9,6h21.5C1759.8,118.1,1759.1,116.1,1758.4,114z"/>
<rect x="1631.5" y="66" width="18.8" height="6"/>
<rect x="1631.5" y="54" width="18.8" height="6"/>
<rect x="1631.5" y="78" width="18.8" height="6"/>
<rect x="768" y="150" width="18.6" height="6"/>
<rect x="281.9" y="18" width="19" height="6"/>
<polygon points="1631.5,36 1650.4,36 1650.4,30 1634.8,30 1634.8,24 1650.4,24 1650.4,18 1634.8,18 1634.8,15 1540.2,15 1540.2,18 
	1631.5,18 1631.5,24 1540.2,24 1540.2,30 1631.5,30 "/>
<rect x="1631.5" y="102" width="18.8" height="6"/>
<rect x="1631.5" y="114" width="18.8" height="6"/>
<rect x="1631.5" y="126" width="18.8" height="6"/>
<rect x="1363.1" y="138" width="18.6" height="6"/>
<polygon points="1496.8,92.4 1493.1,96 1486.5,96 1486.5,102 1486.9,102 1480.8,108 1486.5,108 1486.5,114 1474.6,114 1468.5,119.9 
	1468.6,120 1486.5,120 1486.5,126 1505.3,126 1505.3,120 1488.3,120 1494.5,114 1505.3,114 1505.3,108 1500.6,108 1506.6,102.2 
	1512.6,108 1532.6,108 1526.4,102 1505.3,102 1505.3,96 1520.3,96 1516.7,92.4 1519.1,90 1505.3,90 1505.3,84 1525.2,84 1531.4,78 
	1511.5,78 1506.6,82.8 1501.7,78 1505.3,78 1505.3,72 1495.6,72 1489.4,66 1505.3,66 1505.3,60 1486.5,60 1486.5,66 1469.5,66 
	1475.7,72 1486.5,72 1486.5,77.5 1412.8,77.5 1412.8,72 1393.8,72 1393.8,78 1481.9,78 1488.1,84 1393.8,84 1393.8,90 1494.3,90 "/>
<rect x="1631.5" y="90" width="18.8" height="6"/>
<rect x="186.5" y="78" width="19" height="6"/>
<path d="M212.9,132c-1.6-1.8-2.9-3.8-4-6h-20.6c0.5,2.1,1.1,4.1,1.9,6H212.9L212.9,132z"/>
<path d="M348.1,144h39.6c-7.4-0.9-13.8-2.9-19-6h-26.2C344.2,140.1,346.1,142.1,348.1,144z"/>
<polygon points="1534.9,55.2 1530,60 1539.7,60 "/>
<polygon points="1543.7,66 1559.1,66 1559.1,60 1540.2,60 1540.2,66 1523.8,66 1517.7,72 1537.5,72 "/>
<path d="M383.6,30h-35.4c-2,1.9-3.8,3.9-5.5,6h25.7C372.8,33.2,377.9,31.2,383.6,30z"/>
<rect x="281.9" y="30" width="19" height="6"/>
<path d="M186.5,36h19v-6H191c4.2-0.9,8.7-1.3,13.5-1.3c4,0,7.8,0.5,11.2,1.3h35.4c-2.2-2.2-4.7-4.2-7.2-6h-38.4v-6h27.4
	c-8.6-3.6-18.4-5.4-28.9-5.4c-11.2,0-21.2,1.9-29.8,5.4h12.2v6h-23.3c-2.7,1.8-5.1,3.8-7.4,6h30.8V36z"/>
<path d="M421.6,36H449c-1.6-2.2-3.4-4.1-5.2-6h-35.4C413.4,31.2,417.8,33.3,421.6,36L421.6,36z"/>
<path d="M129.5,48h13.2c-0.9,1.9-1.8,3.9-2.6,6h-7.4c0.9,2,1.6,4,2.3,6h3.1c-0.6,2-1,4-1.5,6h21c0.4-2.1,0.9-4.1,1.5-6h-17.7
	l14.5-2.7c-0.3-1.1-0.6-2.2-1-3.3h6.4c0.9-2.1,1.9-4.1,3.1-6h-11.8c-0.9-2.1-1.9-4.1-3-6h19.2c2.1-2.3,4.5-4.3,7.1-6h-25.7
	c-1.5,1.9-2.9,3.9-4.2,6h-21C126.7,43.9,128.2,45.9,129.5,48z"/>
<path d="M1363.3,60h18.4v-6h-18.2C1363.4,56.1,1363.3,58.1,1363.3,60L1363.3,60z"/>
<path d="M118.2,36h27.4c-1.6-2.2-3.4-4.1-5.2-6h-35.4C110,31.2,114.4,33.3,118.2,36L118.2,36z"/>
<rect x="186.5" y="66" width="19" height="6"/>
<path d="M1007.1,36h18.8v-6h-6.8c4.2-0.9,8.7-1.3,13.5-1.3c4,0,7.8,0.5,11.2,1.3h17.1v6h-3.7c2.5,1.8,4.8,3.8,6.8,6h-3v6h7.6
	c1.2,1.9,2.3,3.9,3.2,6h-10.8v6h13c0.1,0.4,0.2,0.8,0.3,1.1l6-1.1h-0.6v-6h14.1c-0.7-2.1-1.4-4.1-2.3-6h-11.8v-6h8.8
	c-1.2-2.1-2.6-4.1-4-6h-4.8v-4.5h75.8V30h25.7v6h19v-6h21.7v-6h-21.7v-6h21.7v-3h-94.6v3h-66.3c-8.7-3.6-18.4-5.4-28.9-5.4
	c-11.2,0-21.2,1.9-29.8,5.4h4.7v6h-15.9c-2.7,1.8-5.1,3.8-7.4,6h23.3L1007.1,36L1007.1,36z M1181.2,18v6h-25.7v-6H1181.2z
	 M1127.4,24v6h-48.1c-2.2-2.2-4.7-4.2-7.2-6H1127.4z M1026,18h34.9v6H1026V18z"/>
<path d="M860.9,36h18.6v-6H863c4.2-0.9,8.7-1.3,13.5-1.3c4,0,7.8,0.5,11.2,1.3h26.8v6H901c2.5,1.8,4.8,3.8,6.8,6h6.7v6h-2.2
	c1.2,1.9,2.3,3.9,3.2,6h-1.1v6h3.3c0.1,0.4,0.2,0.8,0.3,1.1l6-1.1h9.3v-6h4.1c-0.7-2.1-1.4-4.1-2.3-6h-1.9v-6h-1.2
	c-1.2-2.1-2.5-4.1-4-6h5.1v-6h-10.4c-2.2-2.2-4.7-4.2-7.2-6h17.6v-6h-19v6h-34.9v-6h25.4c-8.7-3.6-18.4-5.4-28.9-5.4
	c-11.2,0-21.2,1.9-29.8,5.4h14.7v6h-25.8c-2.7,1.8-5.1,3.8-7.4,6h33.2L860.9,36L860.9,36z"/>
<path d="M679.6,294h-18.4c0,1.9,0.1,3.9,0.2,6h18.3V294z"/>
<path d="M845.7,271.2c0-0.4,0-0.8,0-1.2h-21.3c0,0.4,0,0.8,0,1.2c0,1.6,0,3.2-0.1,4.8h21.3C845.7,274.4,845.7,272.8,845.7,271.2z"/>
<path d="M707,271.2c0,1.6,0,3.2,0.1,4.8h21.4c-0.1-1.6-0.1-3.2-0.1-4.8c0-0.4,0-0.8,0-1.2H707C707,270.4,707,270.8,707,271.2
	L707,271.2z"/>
<path d="M730.7,294h-21.5c0.4,2.1,0.9,4.1,1.5,6h21.5C731.7,298.1,731.2,296.1,730.7,294L730.7,294z"/>
<path d="M206.6,120c-0.5-1.9-0.8-3.9-1-6h-19.1c0.1,2.1,0.3,4.1,0.5,6H206.6z"/>
<path d="M679.6,282H661c0,1.4,0,3.5,0.1,6h18.6V282z"/>
<path d="M729.6,288c-0.3-1.9-0.5-3.9-0.7-6h-21.4c0.2,2,0.4,4,0.7,6H729.6L729.6,288z"/>
<path d="M845.2,282h-21.3c-0.2,2.1-0.5,4.1-0.8,6h21.3C844.7,286,845,284,845.2,282L845.2,282z"/>
<rect x="568.1" y="270" width="18.6" height="6"/>
<path d="M586.7,260.4c0-0.5,0-1.3,0-2.4h-18.6v6h18.6L586.7,260.4L586.7,260.4z"/>
<rect x="568.1" y="282" width="18.6" height="6"/>
<rect x="661" y="246" width="18.6" height="6"/>
<path d="M679.6,306h-18.1c0.1,2,0.1,4,0.2,6h17.9L679.6,306L679.6,306z"/>
<rect x="568.1" y="306" width="18.6" height="6"/>
<path d="M707.2,264h21.3c0.1-2,0.3-4.1,0.5-6h-21.3C707.5,260,707.4,262,707.2,264z"/>
<path d="M1267.4,294h-19.6c-0.3,2.1-0.7,4.1-1.1,6h20.7L1267.4,294L1267.4,294z"/>
<path d="M1329.6,258h-19.5l3.8,6h19.1C1331.9,262.1,1330.7,260,1329.6,258L1329.6,258z"/>
<path d="M1267.4,282H1205v2.2h43.5c0,1.3-0.1,2.5-0.1,3.8h19L1267.4,282L1267.4,282z"/>
<rect x="1205" y="270" width="62.4" height="6"/>
<path d="M845.5,264c-0.1-2-0.3-4-0.6-6h-21.3c0.2,1.9,0.4,3.9,0.5,6H845.5L845.5,264z"/>
<polygon points="1272.7,199.7 1275.5,204 1297.3,204 1294.7,199.7 "/>
<path d="M1733.4,210h-24.4c-3.1-2.3-6.4-4.3-9.9-6h23.1c-10.3-3.7-22.4-4.3-33.4-4.3h-49.6v4.3h-4.5c-3.6,1.7-7,3.7-10.1,6h14.6v6
	h-21.5c-1.8,1.9-3.6,3.9-5.2,6h24.8c3.5-2.6,7.6-4.6,12.1-6h8.6v-0.4h30.8c4.2,0,8.5,0,12.8,0.4h-18.3c4.1,1.5,7.7,3.5,10.8,6h25.9
	c1.9,1.6,3.6,3.6,4.9,6h20.1c-0.6-2.2-1.3-4.2-2.1-6h-22.2c-1.5-2.1-3.2-4.1-4.9-6h23.6C1737.5,213.7,1735.5,211.7,1733.4,210z"/>
<path d="M1731.4,342v-6h16.1c-0.9-1.9-1.7-3.9-2.3-6h-13.8v-6h12.5c-0.3-1.9-0.5-3.9-0.6-6h-11.9v-6h11.6c0-1.6-0.1-3.3-0.1-5.1
	c0-0.3,0-0.6,0-0.9h-11.6v-6h11.1c-0.3-2.1-0.7-4.1-1.3-6h-9.8v-6h7.1c-1.4-2.2-3.1-4.2-5.2-6h-1.9v-6h-5.6c3.4-1.4,6.6-3.4,9.3-6
	h-3.7v-3.1H1669v3.1h-29.9v6h29.9v6h-29.9v6h18.8v-4.6h32.7c11.7,0,19.6,1.3,24.8,4.6h-3.1c-0.1,2.1-0.3,4.1-0.6,6h9.4
	c1,1.8,1.7,3.7,2.1,6h-12.6c-0.5,2.1-1.1,4.1-1.9,6h15.2c0.1,1,0.1,1.9,0.1,3s0,2.1,0,3h-18.2c-1.3,2.2-2.8,4.2-4.6,6h22.9
	c0.1,2.2,0.2,4.2,0.3,6h-10.3l0.5,6h10.5c0.4,2.3,0.9,4.2,1.6,6h-11.6l0.5,6h14.1c0.1,0.2,0.3,0.4,0.4,0.6h20.7l0.2-0.6l0,0
	L1731.4,342L1731.4,342z"/>
<polygon points="1598.9,342 1599.2,342.6 1619.1,342.6 1618.8,342 "/>
<path d="M65.4,216H66l-2.4,6h1.8v6h-4.2l-2.4,6h6.6v6h-9l-2.4,6h11.5v6H51.6l-2.4,6h16.3v6h19v-6H67.4l2.3-6h14.8v-6H71.9l2.1-5.4
	c0.1-0.2,0.1-0.4,0.2-0.6h10.3v-6h-8.1c0.8-2.1,1.5-4.1,2.2-6h5.9v-6h17.1l-2.4-6H84.5v-0.1h48.8V210H96.7l-2.4-6h38.9v-4.3H16.7
	v4.3h54.2l-2.4,6H16.7v5.9h48.8V216z M80.7,222c0.5-1.5,1-3,1.5-4.5h0.2c0.5,1.4,1,2.9,1.6,4.5C83.9,222,80.6,222,80.7,222z"/>
<rect x="65.4" y="342" width="19" height="0.6"/>
<path d="M1879.1,204v-4.3h-116.6v4.3h73.5l-3.6,6h-67.5l-3.6-6h-21.8l3.8,6h19.3v5.9h48.8v0.1h17.4l-3.6,6h-13.8v6h10.2l-3.6,6h-6.6
	v6h2.9l-0.3,0.6c-1.1,1.8-2.1,3.6-3.2,5.4h0.6v6h-4.1c-1.1,1.9-2.3,3.9-3.5,6h7.6v6h-11c-0.5,1-1.1,1.9-1.7,2.9
	c-0.5-0.9-1.1-1.9-1.7-2.9h-19.1l3.8,6h29.5v6h-25.7l3.6,5.6v0.4h19v-0.4l3.6-5.6h18.5v-6h-14.7l3.8-6h10.8v-6h-7l3.8-6h3.1v-6h0.7
	l3.8-6h-4.6v-6h8.4l3.8-6h-12.3v-6h16.1l3.8-6h-20v-0.1h48.8V210h-24.9l3.8-6H1879.1L1879.1,204z"/>
<rect x="1639.2" y="258" width="18.8" height="6"/>
<path d="M568.1,252h18.5c0-1.8-0.1-3.9-0.2-6h-18.3L568.1,252L568.1,252z"/>
<path d="M386.1,324c1.7-1.9,3.4-3.9,4.9-6h-25.9c-2.4,2.3-5.2,4.3-8.3,6H342v6h-55.1c2.6,2.2,5.5,4.2,8.5,6H342v6h-32
	c7.2,2,15.3,3.1,24.1,3.1c8.3,0,15.9-1,22.9-3.1h4.1v-6h10.1c3.1-1.8,6-3.8,8.6-6h-18.7v-6H386.1L386.1,324z"/>
<rect x="568.1" y="294" width="18.6" height="6"/>
<path d="M612.5,270l3.8,6h1.6v6h2.2l3.8,6h-6v6h9.8l3.8,6h-13.5v6h17.3l3.8,6h19.4c-1.1-2-2.2-4-3.3-6h-18.4v-6h15
	c-1.2-2-2.3-4-3.5-6h-11.5v-6h7.9c-0.4-0.6-0.8-1.3-1.2-1.9l-2.6-4.1h-4.1v-3.3h68V276h-25.1v-6h25.1v-6h-25.1v-6H661v6h-31.7
	l-3.8-6h11.2v-6h-15l-3.8-6h18.8v-6h-18.8v6h-20c1.2,2.2,2.4,4.2,3.4,6h16.6v6H605l3.8,6h9.1v6H612.5L612.5,270z M661,270v6h-24
	l-3.8-6H661z"/>
<path d="M1267.4,318h-30.1c-2.3,2.4-4.9,4.4-7.8,6h20c0.2-0.3,0.5-0.6,0.7-1l0.1,1h14.9c-6.6,3.6-14.7,5.4-24.8,5.4
	c-9.4,0-17.7-1.9-24.6-5.4h-28.5c1.8,2.2,3.9,4.2,6,6h-37.1c2.6,2.2,5.5,4.2,8.5,6h37.1c4.4,2.5,9.3,4.5,14.5,6h-37.1
	c7.2,2,15.3,3.1,24.1,3.1c7.6,0,14.6-1,21-3.1h27.5l0.1,0.6h15.5V342h-4c5.1-1.5,9.8-3.5,14.1-6h-10.1v-6h18.6
	c2.2-1.9,4.2-3.9,6.2-6h-24.8L1267.4,318L1267.4,318z M1251.3,336h-14.4c2.7-1.8,5.2-3.8,7.4-6h6.4L1251.3,336z"/>
<path d="M616.9,82.2h-62.4V84h19.8v6h-19.8v6h19.8v3.5h43.5c0,0.8,0,1.7-0.1,2.5h18.9v-6h-19.8v-6h19.8v-6h-19.8L616.9,82.2
	L616.9,82.2z"/>
<path d="M616.9,108v-6H598c-0.1,2.1-0.2,4.1-0.5,6H616.9L616.9,108z"/>
<path d="M914.4,84h-34.9v-6h-18.6v6h16.8v6h-16.8v6h16.8v3.5h43.5c0,0.8,0,1.7-0.1,2.5h-6.7v6h6.2c-0.2,2.1-0.6,4.1-1,6h-5.2v6h3.5
	c-0.8,2.1-1.7,4.1-2.7,6h-0.9v6h-3.3c-2,2.3-4.3,4.3-6.9,6h10.1v6h-27c-2.9,0.4-6,0.6-9.3,0.6c-3.9,0-7.6-0.2-11.1-0.6h12.4v-6
	h-31.4c-2.8-1.6-5.2-3.6-7.3-6h-23.1c1.3,2.1,2.7,4.1,4.2,6h23.8l3.8,6h-21.9c2.4,2.2,5,4.2,7.9,6h17.8l3.8,6h-9.1
	c8.3,2.9,17.7,4.4,28.1,4.4c9,0,17.3-1.5,24.5-4.4h-21v-6h32c2.5-1.8,4.7-3.8,6.8-6h5.1l0.5,6h-9.5v6h10l0.2,1.9h15.5V156h-6.6v-6
	h6.6v-6h-6.6v-6h6.6v-6h-6.6v-6h6.6v-6h-6.6v-6h6.6v-6h-6.6v-6h6.6v-6h-6.6v-2h73.7v2h18.8v-6h-42.1c0-1.2,0-2.3,0-3.5
	c0-0.8,0-1.6,0-2.5h42.1v-6h-41.8c0.1-2.1,0.3-4.1,0.6-6h-21c-0.3,2-0.5,4-0.7,6h-48.6L914.4,84L914.4,84z M879.5,96v-6h34.9v6
	H879.5z M962.8,84c0,0.8,0,1.6,0,2.5c0,1.2,0,2.4,0.1,3.5h-22.7v-6H962.8L962.8,84z"/>
<rect x="860.9" y="66" width="18.6" height="6"/>
<rect x="1007.1" y="66" width="18.8" height="6"/>
<rect x="914.4" y="66" width="19" height="6"/>
<path d="M879.5,102h-18.6c0,1.8,0.1,3.8,0.1,6h18.5L879.5,102L879.5,102z"/>
<polygon points="398.3,84 368.3,84 374.5,90 398.3,90 398.3,96 373.2,96 367.1,102 406.6,102 400.5,96 460.7,96 460.7,90 399.3,90 
	405.4,84 460.7,84 460.7,82.2 398.3,82.2 "/>
<rect x="1060.9" y="66" width="18.8" height="6"/>
<rect x="1007.1" y="102" width="18.8" height="6"/>
<rect x="1181.2" y="102" width="19" height="6"/>
<rect x="1181.2" y="66" width="19" height="6"/>
<path d="M1276.5,102l2.4,6h18.9c-0.7-1.9-1.5-3.9-2.3-6H1276.5z"/>
<path d="M421.2,156c4-1.6,7.6-3.6,11-6H356c3.8,2.4,8,4.4,12.6,6H421.2L421.2,156z"/>
<path d="M1775.1,156h2.1l0.8,1.9h19.2l0.8-1.9h29.8c4-1.6,7.6-3.6,10.9-6h-38.4l2.4-6h-8.4c-7.4-0.9-13.8-2.9-19-6h29.8l2.4-6h-17.8
	c-0.7,1.9-1.3,3.7-1.8,5.3h-0.2c-0.5-1.6-1.2-3.4-1.8-5.3H1768c-0.8-0.9-1.6-1.9-2.4-2.9c-0.7-1-1.4-2.1-2-3.1h-22
	c1,2.1,2.1,4.1,3.2,6h22.8l2.4,6h-21c1.7,2.1,3.6,4.1,5.6,6h17.7l2.4,6h-12.2C1766.4,152.4,1770.6,154.4,1775.1,156L1775.1,156z"/>
<polygon points="460.7,156 460.7,150 444.5,150 445.1,156 "/>
<polygon points="1318.6,156 1321,150 1295.5,150 1297.8,156 "/>
<path d="M1867.3,84v-1.8H1805V84h2.2l-2.3,6h0.1v6h-2.4c-0.8,2-1.5,4-2.2,6h18.9l2.4-6h20.8v6h6c-0.1,2.1-0.2,4.1-0.5,6h-5.5v6h4.5
	c-0.5,2.1-1,4.1-1.7,6h-2.8v6h0.1c-1.2,2.2-2.6,4.2-4.1,6h4v6h-10.9c-4.7,3.1-10.3,5.1-16.8,6h27.7v6h8.8l0.5,6h-9.3v1.9h18.6V156
	h6.3v-6h-6.3v-6h6.3v-6h-6.3v-6h6.3v-6h-6.3v-6h6.3v-6h-6.3v-6h6.3v-6h-6.3v-6h6.3v-6h-6.3v-6H1867.3L1867.3,84z M1845.5,144
	c1.7-1.8,3.2-3.6,4.6-5.7l0.5,5.7H1845.5L1845.5,144z M1842.4,90H1824l2.4-6h16V90z"/>
<path d="M425.5,18h-58.7c-4,1.6-7.7,3.7-11.2,6h80.8C433.1,21.6,429.4,19.6,425.5,18L425.5,18z"/>
<path d="M122.1,18H63.5c-4,1.6-7.7,3.7-11.2,6h80.8C129.7,21.6,126,19.6,122.1,18L122.1,18z"/>
<rect x="1363.1" y="114" width="18.6" height="6"/>
<polygon points="1482.2,126 1474.9,126 1478.6,129.5 "/>
<path d="M1363.1,71.6V72h18.6v-6h-18.5C1363.1,68.5,1363.1,70.4,1363.1,71.6z"/>
<polygon points="1478.4,55.2 1473.6,60 1483.2,60 "/>
<path d="M1290.9,90h-19.1l2.4,6h19.1l-0.1-0.2L1290.9,90L1290.9,90z"/>
<path d="M438.6,120h22.1v-6h-20.4C439.8,116.1,439.3,118.1,438.6,120L438.6,120z"/>
<rect x="1631.5" y="42" width="18.8" height="6"/>
<polygon points="157.3,150 141.1,150 141.7,156 157.3,156 "/>
<path d="M1381.7,42h-17.7c-0.1,1.9-0.2,4-0.3,6h18V42z"/>
<path d="M408.1,144h30.8c1.6-1.8,3.2-3.6,4.6-5.7l0.5,5.7h16.7v-6h-35.8C420.3,141.1,414.7,143.1,408.1,144L408.1,144z"/>
<rect x="1363.1" y="90" width="18.6" height="6"/>
<polygon points="1538.3,126 1531,126 1534.7,129.5 "/>
<rect x="1363.1" y="78" width="18.6" height="6"/>
<rect x="1363.1" y="126" width="18.6" height="6"/>
<rect x="1363.1" y="102" width="18.6" height="6"/>
<path d="M879.5,132v-6h-17.9c0.1,2.1,0.2,4.1,0.3,6H879.5z"/>
<path d="M860.8,132c-1.1-2-2.2-4-3.3-6H838l3.8,6H860.8z"/>
<rect x="1007.1" y="126" width="18.8" height="6"/>
<path d="M1304.3,126H1286l2.4,6h18.1C1305.8,130.1,1305.1,128.1,1304.3,126L1304.3,126z"/>
<rect x="1181.2" y="126" width="19" height="6"/>
<rect x="186.5" y="42" width="19" height="6"/>
<rect x="648" y="126" width="18.8" height="6"/>
<path d="M432.9,48h23c-0.9-2.1-1.9-4.1-3-6h-24.6C430.1,43.9,431.6,45.9,432.9,48L432.9,48z"/>
<rect x="281.9" y="54" width="19" height="6"/>
<rect x="281.9" y="42" width="19" height="6"/>
<path d="M359,44.8c0.7-1,1.5-1.9,2.3-2.8h-22.8c-1.2,1.9-2.3,3.9-3.3,6h21.6C357.6,46.9,358.3,45.8,359,44.8z"/>
<rect x="186.5" y="54" width="19" height="6"/>
<rect x="281.9" y="90" width="19" height="6"/>
<rect x="1181.2" y="42" width="19" height="6"/>
<rect x="186.5" y="90" width="19" height="6"/>
<rect x="281.9" y="78" width="19" height="6"/>
<rect x="281.9" y="66" width="19" height="6"/>
<rect x="860.9" y="42" width="18.6" height="6"/>
<rect x="1007.1" y="42" width="18.8" height="6"/>
<rect x="186.5" y="102" width="19" height="6"/>
<path d="M790.4,48h18.9l-3.8-6h-18.3C788.2,43.9,789.3,45.9,790.4,48z"/>
<polygon points="1267,78 1269.4,84 1288.6,84 1286.3,78 "/>
<path d="M1281.2,114l2.4,6h18.6c-0.7-1.9-1.4-3.9-2.2-6H1281.2L1281.2,114z"/>
<rect x="1181.2" y="54" width="19" height="6"/>
<rect x="1181.2" y="114" width="19" height="6"/>
<path d="M460.7,102h-18.9c-0.1,2.1-0.2,4.1-0.5,6h19.4L460.7,102L460.7,102z"/>
<path d="M879.5,114h-18.3c0,2,0.1,4,0.2,6h18.1V114z"/>
<rect x="1007.1" y="114" width="18.8" height="6"/>
<path d="M350.3,108c-0.4-1.9-0.7-3.9-1-6h-21.1c0.3,2.1,0.6,4.1,1,6H350.3z"/>
<rect x="281.9" y="102" width="19" height="6"/>
<path d="M327.2,90c0.1,2,0.2,4,0.3,6h21.1c-0.1-1.9-0.2-3.9-0.3-6H327.2z"/>
<path d="M300.9,114h-19.1c-0.2,2.1-0.5,4.1-1,6h19.6C300.6,118.1,300.8,116.1,300.9,114L300.9,114z"/>
<path d="M348.6,78h-21.1c-0.1,2-0.2,4-0.3,6h21.1C348.4,81.9,348.5,79.9,348.6,78L348.6,78z"/>
<path d="M338.2,132h23.1c-0.8-0.9-1.6-1.9-2.4-2.9c-0.7-1-1.4-2.1-2-3.1h5.4l6.1-6H354c-0.8-1.9-1.5-3.9-2.1-6h-21.2
	c0.6,2.1,1.2,4.1,1.9,6h16.3l6.3,6h-20C336,128.1,337.1,130.1,338.2,132L338.2,132z"/>
<path d="M431.8,132h28.9v-6h-24.8C434.7,128.2,433.4,130.2,431.8,132z"/>
<path d="M299.2,126h-20.6c-1.1,2.2-2.5,4.2-4,6h22.8C298,130.1,298.6,128.1,299.2,126L299.2,126z"/>
<rect x="1007.1" y="54" width="18.8" height="6"/>
<path d="M350.2,66h19.4l-6.1-6h-9.7l-5,5l1,1h-20.5c-0.4,2-0.8,4-1,6h21C349.5,69.9,349.8,67.9,350.2,66L350.2,66z"/>
<path d="M797,60h13c-0.6,2-1,4-1.5,6h-8.2c1.3,2.3,2.5,4.3,3.3,5.6L804,72h3.5c-0.3,2-0.5,4-0.7,6h0.9l3.8,6h-5c0,0.8,0,1.6,0,2.5
	c0,1.2,0,2.4,0.1,3.5h8.8l3.8,6h-12.2c0.2,2.1,0.4,4,0.6,6h15.4l3.8,6h-18.2c0.4,2.1,0.9,4.1,1.4,6h20.5l3.8,6h20
	c-1.1-2-2.3-4-3.4-6h-19.7c-0.6-1.9-1.1-3.9-1.5-6h17.7c-1.2-2.1-2.5-4.1-3.7-6h-15c-0.3-1.9-0.5-3.9-0.6-6h11.8l-3.8-6h-8.3
	c0-1.2,0-2.3,0-3.5c0-0.8,0-1.6,0-2.5h4.5l-3.8-6H828c0.1-2.1,0.3-4.1,0.6-6h-4l-3.8-6h8.8c0.4-2.1,0.9-4.1,1.5-6H817l-3.8-6h20.1
	c0.9-2.1,1.9-4.1,3.1-6h-21.7c-0.9,1.9-1.8,3.9-2.6,6h-18.4C794.8,56.1,796,58.1,797,60L797,60z"/>
<rect x="860.9" y="54" width="18.6" height="6"/>
<path d="M438.4,60h6.4l14.5-2.7c-0.3-1.1-0.6-2.2-1-3.3h-22.1C437,56,437.8,58,438.4,60L438.4,60z"/>
<path d="M353.8,54h-21.2c-0.7,2-1.4,3.9-2,6h21C352.3,57.9,353,55.9,353.8,54z"/>
<rect x="320.4" y="426" width="19" height="6"/>
<rect x="178.8" y="426" width="18.6" height="6"/>
<polygon points="523.4,426 525.7,432 544,432 541.6,426 "/>
<polygon points="339.5,486 320.4,486 320.4,492 337.7,492 335.3,498 320.4,498 320.4,504 332.9,504 330.5,510 320.4,510 320.4,516 
	328.1,516 325.7,522 320.4,522 320.4,527.4 339.5,527.4 339.5,522 345.7,522 348,516 339.5,516 339.5,510 350.3,510 352.5,504 
	339.5,504 339.5,498 354.9,498 357.1,492 339.5,492 "/>
<rect x="320.4" y="474" width="19" height="6"/>
<rect x="232.3" y="474" width="19" height="6"/>
<path d="M724.5,450H736c-0.1-2-0.3-4-0.5-6h-11v-6h10.1c-0.4-2-0.8-4-1.4-6h-8.7v-6h6.9c-0.7-2.1-1.6-4.1-2.5-6h-4.4v-6h1.2
	c-1.3-2.1-2.7-4.1-4.2-6h3v-6h-8.4c-2.3-2.2-4.8-4.2-7.4-6h15.9v-6h-19v6h-20.7v-6h12.6c-8.8-3.6-19.1-5.5-30.6-5.5h-49.8v5.5h-48.7
	v6h-38.6l-2.4-6h37.2c-10.9-4.8-24.4-5.5-36.6-5.5h-49.6v5.5h24.5l-2.4,6h-22.1v6H497v-1.6h30.8c7,0,14.5,0,21,1.6h30.3
	c-1.5-2.3-3.3-4.3-5.2-6h43v6h0.1v6h-0.1v6h0.1v6h-0.1v6h0.1v6h-0.1v6h0.1v6h-0.1v6h0.1v6h-0.1v6h0.1v6h-0.1v6h0.1v6h-0.1v6h0.1v6
	h-0.1v6h0.1v6h-0.1v6h0.1v6h-0.1v6h0.1v5.4h19V522h61.1c4.1-1.6,8-3.6,11.5-6h15.9v-6h-8.4c2-1.9,3.8-3.9,5.5-6h2.9v-6h1.3
	c1.2-1.9,2.2-3.9,3.2-6h-4.5v-6h6.9c0.7-1.9,1.3-3.9,1.8-6h-8.8v-6h10.1c0.4-2,0.7-4,0.9-6h-11v-6H736c0.1-2,0.2-4,0.2-6h-11.7
	L724.5,450L724.5,450z M714.7,462h-9.3v6h8.8c-0.2,2.1-0.5,4.1-0.8,6h-8v6h6.7c-0.6,2.1-1.2,4.1-2,6h-4.7v6h1.7
	c-0.8,1.5-1.8,2.9-2.8,4.3c-0.4,0.6-0.8,1.1-1.3,1.7h2.3v6h-9.3c-4.3,2.7-9.7,4.8-16,6h25.2v6H636v-6h-0.3v-6h0.3v-6h-0.3v-6h0.3v-6
	h-0.3v-6h0.3v-6h-0.3v-6h0.3v-6h-0.3v-6h0.3v-6h-0.3v-6h0.3v-6h-0.3v-6h0.3v-6h-0.3v-6h0.3v-6h-0.3v-6h0.3v-6h-0.3v-1.6h28.9
	c5.8,0,11.3,0.5,16.2,1.6h24.6v6h-9.3c2.7,1.7,5,3.7,6.9,6h2.4v6h1.7c1.1,1.9,2.1,3.9,3,6h-4.7v6h6.8c0.5,1.9,1,3.9,1.3,6h-8.1v6
	h8.9c0.2,1.9,0.3,3.9,0.4,6h-9.3v6h9.4C714.8,458.1,714.8,460.1,714.7,462L714.7,462z"/>
<rect x="320.4" y="414" width="19" height="6"/>
<path d="M518.9,414c0.7,2,1.5,4,2.2,6h18.1l-2.4-6H518.9z"/>
<rect x="65.4" y="318" width="19" height="6"/>
<rect x="232.3" y="498" width="19" height="6"/>
<path d="M197.5,486H189c-0.4-1.8-0.9-3.7-1.4-6h9.8v-6h-11.2c-0.3-1.1-0.6-2.3-0.9-3.6l-0.6-2.4h12.6v-6h-14l-1.4-6h15.4v-6h-16.9
	l-1.4-6h18.3v-6h-18.6v6h-17.9l1.6,6h16.4v6h-14.8l1.6,6h13.1v4.7c0,0.4,0,0.8,0,1.3h-11.6l1.6,6h10c0,1.8,0.1,3.9,0.1,6h-8.6l1.6,6
	h7.1c0.1,2,0.1,4,0.2,6h-5.7l1.6,6h-17.7l3.8,6h15.5l1.6,6h-13.3l3.8,6h11.1l1.6,6h-8.9l3.4,5.4h21.4V522h7.3l1.7-6h-9v-6h10.8
	l1.7-6h-12.5v-6h14.2l1.7-6h-16L197.5,486L197.5,486z M179.6,498c0.1,1.8,0.2,3.5,0.2,5.1h-0.2c-0.9-1.7-1.8-3.4-2.8-5.1H179.6z
	 M193.6,505.5h-0.2c-0.1-0.5-0.2-1-0.3-1.5h0.9C193.8,504.5,193.7,505,193.6,505.5z M195.6,498h-3.9c-0.4-1.8-0.8-3.6-1.3-6h6.8
	C196.6,494.1,196.1,496.1,195.6,498L195.6,498z"/>
<rect x="1811.3" y="282" width="19" height="6"/>
<polygon points="891,468 909.9,468 909.9,463.5 977.9,463.5 977.9,462 891,462 "/>
<polygon points="909.9,510 891,510 891,516 985.6,516 985.6,510.8 909.9,510.8 "/>
<polygon points="767,390 746.7,390 748.9,396 769.1,396 "/>
<polygon points="846,396 866.3,396 868.5,390 848.1,390 "/>
<rect x="1811.3" y="318" width="19" height="6"/>
<rect x="1811.3" y="330" width="19" height="6"/>
<rect x="65.4" y="330" width="19" height="6"/>
<rect x="1811.3" y="306" width="19" height="6"/>
<rect x="1811.3" y="342" width="19" height="0.6"/>
<rect x="1811.3" y="294" width="19" height="6"/>
<polygon points="548.8,444 546.4,438 528,438 530.3,444 "/>
<rect x="320.4" y="450" width="19" height="6"/>
<rect x="320.4" y="462" width="19" height="6"/>
<rect x="85.9" y="522" width="18.6" height="5.4"/>
<rect x="320.4" y="438" width="19" height="6"/>
<path d="M793.6,466.3l-1.5-4.3h-18.6l2.2,6h18.5C794,467.4,793.8,466.9,793.6,466.3L793.6,466.3z"/>
<polygon points="339.5,408 339.5,402 323.5,402 325.1,396 376.2,396 373.8,402 408,402 405.6,396 388.2,396 388.2,390 403.2,390 
	401,384.5 380.9,384.5 378.6,390 326.6,390 328.1,384.5 308,384.5 306.8,390 271.6,390 271.6,396 305.4,396 304,402 320.4,402 
	320.4,408 302.6,408 301.2,414 320.3,414 321.9,408 "/>
<path d="M140.4,438h-20.5c0.7,1.2,1.3,2.2,1.8,3l1.9,3h20.6L140.4,438L140.4,438z"/>
<rect x="232.3" y="486" width="19" height="6"/>
<polygon points="841.9,408 861.8,408 864,402 844,402 "/>
<polygon points="829.4,444 848.4,444 850.7,438 831.5,438 "/>
<polygon points="833.5,432 852.9,432 855.1,426 835.6,426 "/>
<rect x="408.9" y="522" width="19" height="5.4"/>
<rect x="178.8" y="390" width="18.6" height="6"/>
<rect x="408.9" y="390" width="19" height="6"/>
<path d="M821.6,466.3c-0.2,0.6-0.4,1.1-0.6,1.7h18.5l2.2-6h-18.6L821.6,466.3L821.6,466.3z"/>
<polygon points="793.5,516 821.7,516 823.9,510 791.3,510 "/>
<rect x="705.4" y="522" width="19" height="5.4"/>
<polygon points="797.8,527.4 817.4,527.4 819.4,522 795.8,522 "/>
<path d="M808.7,504h17.4l2.2-6h-17.6C809.9,500.5,809.2,502.5,808.7,504z"/>
<rect x="32.4" y="390" width="19" height="6"/>
<path d="M816.8,480H835l2.2-6h-18.3C818.2,476.1,817.5,478.1,816.8,480L816.8,480z"/>
<path d="M812.8,492h17.8l2.2-6h-18C814.1,488.1,813.4,490.1,812.8,492z"/>
<polygon points="825.2,456 844,456 846.2,450 827.3,450 "/>
<polygon points="837.7,420 857.3,420 859.6,414 839.8,414 "/>
<rect x="891" y="450" width="86.8" height="6"/>
<rect x="891" y="474" width="18.8" height="6"/>
<rect x="891" y="522" width="94.6" height="5.4"/>
<rect x="891" y="498" width="18.8" height="6"/>
<rect x="891" y="438" width="18.8" height="6"/>
<rect x="891" y="486" width="18.8" height="6"/>
<rect x="891" y="402" width="18.8" height="6"/>
<rect x="891" y="390" width="94.6" height="6"/>
<rect x="891" y="414" width="18.8" height="6"/>
<rect x="891" y="426" width="18.8" height="6"/>
<rect x="32.4" y="426" width="19" height="6"/>
<rect x="32.4" y="402" width="19" height="6"/>
<rect x="32.4" y="414" width="19" height="6"/>
<path d="M796.3,474h-18.3l2.2,6h18.2C797.7,478.1,797,476.1,796.3,474L796.3,474z"/>
<polygon points="452.1,516 433.8,516 436.1,522 449.7,522 447.6,527.4 467.6,527.4 469.7,522 456,522 453.5,516 472,516 474.3,510 
	454.5,510 "/>
<rect x="408.9" y="510" width="19" height="6"/>
<path d="M804.6,498h-17.8l2.2,6h17.6C806.1,502.4,805.4,500.4,804.6,498z"/>
<polygon points="787.9,450 769,450 771.2,456 790,456 "/>
<rect x="178.8" y="414" width="18.6" height="6"/>
<path d="M800.4,486h-18.1l2.2,6h17.9C801.9,490.1,801.2,488.1,800.4,486L800.4,486z"/>
<polygon points="151.8,456 148,450 127.4,450 131.2,456 "/>
<polygon points="134.9,462 138.7,468 159.5,468 155.6,462 "/>
<path d="M166.9,480c-1.2-2.1-2.4-4.1-3.6-6h-20.8l3.8,6H166.9z"/>
<polygon points="783.7,438 764.5,438 766.8,444 785.8,444 "/>
<path d="M106.5,414c1,2,2.1,4,3.2,6h19.1l-3.8-6H106.5L106.5,414z"/>
<path d="M136.5,432l-3.8-6h-19.7c1.2,2.1,2.3,4.1,3.4,6H136.5L136.5,432z"/>
<path d="M170.3,486h-20.2l3.8,6h19.8C172.5,490,171.4,488,170.3,486z"/>
<rect x="232.3" y="510" width="19" height="6"/>
<rect x="85.9" y="462" width="18.6" height="6"/>
<rect x="85.9" y="486" width="18.6" height="6"/>
<rect x="85.9" y="510" width="18.6" height="6"/>
<rect x="85.9" y="498" width="18.6" height="6"/>
<rect x="232.3" y="522" width="19" height="5.4"/>
<polygon points="775.4,414 755.6,414 757.8,420 777.5,420 "/>
<polygon points="771.2,402 751.1,402 753.4,408 773.3,408 "/>
<polygon points="779.5,426 760,426 762.3,432 781.6,432 "/>
<rect x="178.8" y="402" width="18.6" height="6"/>
<rect x="568.1" y="342" width="18.6" height="0.6"/>
<polygon points="1520.9,252 1539,252 1541.2,246 1523.3,246 "/>
<rect x="1428" y="234" width="14" height="6"/>
<path d="M1545.7,234h-17.6l-2.4,6h17.8C1544.3,237.9,1545,235.9,1545.7,234L1545.7,234z"/>
<path d="M1265.3,240c-0.6-2.1-1.3-4.1-2.1-6h-22.8c1.1,1.9,2.1,3.9,3,6H1265.3z"/>
<polygon points="1492,324 1511.7,324 1514,318 1494.4,318 "/>
<polygon points="1516.1,264 1534.4,264 1536.7,258 1518.4,258 "/>
<polygon points="1518.6,306 1499.2,306 1496.8,312 1516.3,312 "/>
<path d="M1108.8,240c-0.7-2.1-1.6-4.1-2.5-6h-22.2c1.1,1.9,2.1,3.9,3,6H1108.8L1108.8,240z"/>
<rect x="1428" y="318" width="14" height="4.8"/>
<rect x="1428" y="306" width="14" height="6"/>
<polygon points="1511.2,276 1529.9,276 1532.1,270 1513.6,270 "/>
<polygon points="1609.2,318 1589.6,318 1592,324 1611.6,324 "/>
<path d="M361.1,222c2.3,1.8,4.5,3.8,6.3,6h24.4c-1.2-2.1-2.4-4.1-3.8-6H361.1L361.1,222z"/>
<rect x="421.6" y="222" width="19" height="6"/>
<path d="M300.4,318h-24c1.4,2.1,2.9,4.1,4.5,6h28C305.8,322.4,302.9,320.4,300.4,318L300.4,318z"/>
<rect x="661" y="222" width="18.6" height="6"/>
<path d="M514.3,216h15.1v6h-15.1v6h15.1v6h-15.1v6h15.1v6h-15.1v6h15.1v6h-15.1v4.2h-73.7V258h11.7v-6h-11.7v-6h11.7v-6h-11.7v-6
	h11.7v-2.6h-14v2.6h-16.7v6h16.7v6h-16.7v6h16.7v6h-16.7v6h16.7v6h-16.7v6h-23.2v6h23.2v6h16.7v6h-16.7v6h16.7v6h-16.7v6h16.7v6
	h-16.7v6h19v-6h11.7v-6h-11.7v-6h11.7v-6h-11.7v-6h11.7v-6h-11.7v-6h51.5v-6h37.3v6h-15.1v6h15.1v6h-15.1v6h15.1v6h-15.1v6h15.1v6
	h-15.1v6h15.1v6h-15.1v6h15.1v6h-15.1v0.6h18.8V342h15.3v-6h-15.3v-6h15.3v-6h-15.3v-6h15.3v-6h-15.3v-6h15.3v-6h-15.3v-6h15.3v-6
	h-15.3v-6h15.3v-6h-15.3v-6h15.3v-6h-15.3v-6h15.3v-6h-15.3v-6h15.3v-6h-15.3v-6h15.3v-6h-15.3v-6h15.3v-6h-15.3v-6h34.9v6h30.7
	l-3.8-6h2.3v-6h-6.1l-2.7-4.3h-20.3v4.3h-34.9v-4.3h-18.8v4.3h-33.7v6h33.7V216z M529.4,270h-77v-6h77V270z"/>
<path d="M606.4,228l-3.8-6h-34.5v6h17.8c-0.1-1.4-0.1-2.7-0.2-4h0.2c0.7,1.3,1.4,2.6,2.1,4H606.4z"/>
<path d="M1322.6,246h-16.1c-0.6-2.1-1.2-4.1-1.9-6h14.4l-3.6-6h-13.3c-1-2.1-2-4.1-3.2-6h12.8l-3.6-6h-13.2c-1.6-2.1-3.3-4.1-5.2-6
	h14.8l-3.6-6h-18.1c-3.1-2.3-6.4-4.3-10.1-6H1235c-6.3-3-13.2-5-20.6-6h-22.7c-7.8,1-14.9,3-21.2,6h37.1c-3.6,1.7-7,3.7-10.1,6
	h-37.1c-2.5,1.8-4.8,3.8-6.9,6h31.7c5.5-1.7,11.7-2.6,18.4-2.6c5.8,0,10.9,0.9,15.4,2.6h-28.5c-1.8,1.9-3.6,3.9-5.2,6h25.1
	c3.4-2.4,7.6-4.5,12.5-6h28.6c-2.1-2.2-4.3-4.2-6.7-6h34.4l3.8,6h-24.4c4.2,1.4,7.9,3.4,11.2,6h17.1l3.8,6h-14.9
	c0.4,0.5,0.8,1,1.2,1.5c1,1.4,2,2.9,2.9,4.5h14.8l3.8,6H1283c0.8,1.9,1.5,3.9,2.2,6h17.3l3.8,6h-19.6c0.4,1.9,0.7,3.9,1,6h21.3
	c-0.3-2-0.6-4-1-6h18.2C1324.8,249.8,1323.6,247.8,1322.6,246L1322.6,246z"/>
<path d="M736,234h-21.6c-0.9,1.9-1.7,3.9-2.4,6h21.3C734.1,237.9,735,235.9,736,234L736,234z"/>
<path d="M708.7,252H730c0.4-2.1,0.8-4.1,1.4-6h-21.2C709.6,248,709.1,249.9,708.7,252L708.7,252z"/>
<path d="M821.1,246c0.6,1.9,1.1,3.9,1.5,6h21.3c-0.4-2.1-0.9-4-1.4-6H821.1z"/>
<path d="M1112.2,252c-0.4-2.1-0.9-4-1.4-6h-21.4c0.6,1.9,1.1,3.9,1.5,6H1112.2z"/>
<path d="M1161.2,306h-17.6v-6h15.3c-0.6-1.9-1.2-3.9-1.6-6h-13.6v-6h12.5c-0.3-1.9-0.5-3.9-0.7-6h-11.8v-6h11.4
	c-0.1-1.6-0.1-3.2-0.1-4.8c0-0.4,0-0.8,0-1.2h-11.4v-6h11.6c0.1-2.1,0.3-4.1,0.5-6h-12.1v-6h13c0.4-2.1,0.8-4.1,1.4-6h-14.3v-6h16.3
	c0.8-2.1,1.8-4.1,2.8-6h-19.2v-6H1125v6h16.3c-0.9,1.9-1.7,3.9-2.4,6H1125v6h12c-0.5,2-1,3.9-1.4,6H1125v6h9.7c-0.2,2-0.4,4-0.6,6
	h-9.1v6h8.9c0,0.4,0,0.8,0,1.2c0,1.6,0,3.2,0.1,4.8h-8.9v6h9.3c0.2,2,0.4,4,0.7,6h-9.9c0,1.8,0.1,3.8,0.1,6h10.9
	c0.4,2.1,0.9,4.1,1.5,6h-12.3c0.1,2,0.1,4,0.2,6h14.1c0.8,2.1,1.7,4.1,2.7,6h-16.5c0.1,2.1,0.2,4.1,0.3,6h17.6v-6h20.8
	C1163.2,310.1,1162.2,308.1,1161.2,306L1161.2,306z"/>
<path d="M1241.9,312h25.5v-6h-22.6C1244,308.1,1243,310.1,1241.9,312z"/>
<rect x="661" y="234" width="18.6" height="6"/>
<path d="M381.3,300l-4.1-1c-0.1,0.4-0.3,0.7-0.4,1H381.3z"/>
<path d="M398,306h-23.9c-1.1,2.1-2.3,4.1-3.7,6h24.5C396,310.1,397,308.1,398,306z"/>
<rect x="568.1" y="318" width="18.6" height="6"/>
<path d="M1011.3,318h-14.2v-6h8.8c-1.1-1.7-2.2-3.7-3.2-6h-5.6v-6h3.4c-0.6-1.9-1.1-3.9-1.6-6h-1.8v-6h0.6c-0.3-1.9-0.5-3.9-0.7-6
	h0.1v-6h-0.5c-0.1-1.6-0.1-3.2-0.1-4.8c0-0.4,0-0.8,0-1.2h0.6v-6h-0.4c0.1-2,0.3-4.1,0.5-6h-0.1v-6h1c0.4-2.1,0.8-4.1,1.4-6h-2.4v-6
	h4.3c0.8-2.1,1.7-4.1,2.7-6h-7.1v-6h11.1c1.8-2.1,4-4.1,6.6-6h-17.7v-6h30.2c5.2-1.6,11.3-2.6,18.2-2.6s12.4,0.9,17.4,2.6h31
	c-2.2-2.2-4.5-4.2-6.9-6H1059l-3.8-6h21.9c-6.2-3-13.2-5-21-6h-22.9c-7.8,1-14.9,3-21.2,6h20.1v6h-30.2c-2.5,1.8-4.8,3.8-7,6h-16.6
	v6h11.5c-1.4,1.9-2.8,3.9-4,6h-7.5v6h4.3c-0.9,1.9-1.7,3.9-2.4,6h-1.9v6h0c-0.5,2-1,3.9-1.4,6h1.4v6H976c-0.2,2-0.4,4-0.6,6h-83.7
	v-6h12.9v-6h-12.9v-6h12.9v-6h-12.9v-6h12.9v-6h-12.9v-6h12.9v-6h-12.9v-6h12.9v-6h-12.9v-4.3H873v4.3h12.7v6H873v6h12.7v6H873v6
	h12.7v6H873v6h12.7v6H873v6h12.7v6H873v6h12.7v6H873v6h12.7v6H873v6h12.7v6H873v6h12.7v6H873v6h12.7v6H873v6h12.7v6H873v6h12.7v6
	H873v0.6h94.6V342h-62.9v-6h62.9v-6h-62.9v-6h-12.9v-6h12.9v-6h-12.9v-6h12.9v-6h-12.9v-6h12.9v-6h-12.9v-6h12.9v-3.3h73.7v3.3h-2.6
	c0.2,2,0.4,4,0.7,6h2v6h-0.9c0.4,2.1,0.9,4.1,1.5,6h-0.6v6h2.7c0.8,2.1,1.7,4.1,2.7,6h-5.3v6h8.7c1.4,2.1,2.9,4.1,4.5,6h-13.2v6
	h18.8v-6h22.9C1016.9,322.4,1013.9,320.3,1011.3,318L1011.3,318z M891.8,276v-6h83.4c0,0.4,0,0.8,0,1.2c0,1.6,0,3.2,0.1,4.8H891.8
	L891.8,276z"/>
<path d="M661.7,318h-18.9l3.8,6h33.1v-6H662c0,0.1,0,0.2,0,0.3h-0.2C661.8,318.2,661.7,318.1,661.7,318L661.7,318z"/>
<path d="M1069.5,324h26.9c1.7-1.9,3.2-3.9,4.7-6h-23.6C1075.1,320.4,1072.5,322.4,1069.5,324L1069.5,324z"/>
<path d="M1169.2,318h-23.5c1.4,2.1,2.9,4.1,4.5,6h27.5C1174.5,322.4,1171.7,320.4,1169.2,318z"/>
<path d="M568.1,234v6h18.2c-0.1-2-0.1-4-0.2-6H568.1L568.1,234z"/>
<path d="M614.1,240l-3.8-6h-19c1.1,2,2.2,4,3.3,6H614.1L614.1,240z"/>
<rect x="65.4" y="306" width="19" height="6"/>
<path d="M394.8,234h-23c1.2,1.9,2.2,3.9,3,6h22.1C396.3,237.9,395.6,235.9,394.8,234L394.8,234z"/>
<path d="M248.5,336v-6h-59.8v-6h-16v-6h16v-6h-16v-6h16v-6h-16v-6h16v-6h-16v-6H264c-2.5-2.1-5.6-3.9-9.4-5.3
	c0.6-0.2,1.2-0.4,1.8-0.7h-15.7v-6h23.9c0,0.4,0,0.8,0,1.2c0,1.6,0,3.2,0.1,4.8H286c0-1.6-0.1-3.2-0.1-4.8c0-0.4,0-0.8,0-1.2h-20.1
	c1.9-1.8,3.6-3.8,5.1-6h15.2c0.1-2.1,0.3-4.1,0.5-6h-12.5c0.8-1.9,1.4-3.9,2-6h11.4c0.4-2.1,0.8-4.1,1.3-6H277
	c0.1-1.4,0.2-2.8,0.2-4.2c0-0.6,0-1.2,0-1.8h13.6c0.8-2.1,1.8-4.1,2.8-6h-16.9c-0.3-2.1-0.7-4.1-1.2-6h22c1.9-2.3,4-4.3,6.4-6h-24.8
	c-1.4,1.9-2.8,3.9-4,6h-19.7c0.9,1.7,1.7,3.7,2.2,6H272c-0.9,1.9-1.7,3.9-2.4,6h-11.1c0,0.8,0.1,1.7,0.1,2.6c0,1.2-0.1,2.3-0.2,3.4
	h9.3c-0.5,2-1,3.9-1.4,6h-9.2c-0.8,2.3-1.9,4.3-3.3,6h11.5c-0.2,2-0.4,4-0.6,6h-19.1c-7.6,3.4-17.5,3.7-26.5,3.7h-30.6V264h52.1
	v-1.8h-68V258h16v-6h-16v-6h16v-6h-16v-6h16v-6h-16v-6h16v-6h43.5c6.9,0.6,13.5,2.1,18.4,6h22.8c-1-2.2-2.2-4.2-3.5-6h-21.4v-6h15.6
	c-3.3-2.6-7.1-4.5-11.2-6h-4.4v-4.3h-94.6v4.3h16v6h-16v6h16v6h-16v6h16v6h-16v6h16v6h-16v6h16v6h-16v6h16v6h-16v6h16v6h-16v6h16v6
	h-16v6h16v6h-16v6h16v6h-16v6h16v6h-16v6h16v6h-16v0.6h94.6V342h-59.8v-6H248.5L248.5,336z"/>
<rect x="421.6" y="342" width="19" height="0.6"/>
<polygon points="65.4,300 84.5,300 84.5,294 130.3,294 127.9,288 84.5,288 84.5,282 65.4,282 65.4,288 37.1,288 34.7,294 65.4,294 
	"/>
<rect x="65.4" y="270" width="19" height="6"/>
<path d="M1746.3,246h-18.6c-0.2,2.2-0.6,4.2-1.2,6h18.9C1745.8,250.1,1746.1,248.1,1746.3,246z"/>
<path d="M1715,264h25.2c1.2-1.9,2.3-3.9,3.2-6h-20.2C1721,260.6,1718.2,262.6,1715,264z"/>
<path d="M1746,234h-18.8c-0.9-2.1-1.8-4.1-2.9-6h-24.2c1.6,1.9,3,3.9,4.2,6h22.6c0.4,1.8,0.7,3.8,0.8,6h-20.4
	c0.8,1.9,1.5,3.9,2.1,5.9l20.5-3.9c-0.2-0.7-0.4-1.3-0.6-2h17.1C1746.4,237.9,1746.3,235.9,1746,234L1746,234z"/>
<polygon points="1396.8,199.7 1374.6,199.7 1372,204 1394.1,204 "/>
<path d="M1230,222c2.3,1.8,4.3,3.8,6.2,6h24.2c-1.2-2.1-2.4-4.1-3.7-6H1230L1230,222z"/>
<rect x="1639.2" y="306" width="18.8" height="6"/>
<rect x="1639.2" y="294" width="18.8" height="6"/>
<polygon points="1614,330 1594.3,330 1596.6,336 1616.4,336 "/>
<rect x="1639.2" y="246" width="18.8" height="6"/>
<rect x="568.1" y="330" width="18.6" height="6"/>
<rect x="1639.2" y="234" width="18.8" height="6"/>
<rect x="1639.2" y="222" width="18.8" height="6"/>
<rect x="421.6" y="199.7" width="19" height="4.3"/>
<rect x="421.6" y="210" width="19" height="6"/>
<polygon points="1382.5,222 1361.2,222 1357.5,228 1378.7,228 "/>
<polygon points="1390.2,210 1368.4,210 1364.8,216 1386.4,216 "/>
<path d="M1173.2,222h-24.8c-1.4,1.9-2.8,3.9-4,6h22.4C1168.8,225.7,1170.9,223.7,1173.2,222z"/>
<path d="M1074.2,222c2.2,1.7,4.2,3.7,6,6h23.1c-1.2-2.1-2.6-4.1-4-6H1074.2L1074.2,222z"/>
<rect x="421.6" y="330" width="19" height="6"/>
<path d="M1222,156h-21.7v-6h21.7v-6h-21.7v-6h-19v6h-25.7v-2.6h-75.8V138h16.5v-6h-16.5v-6h16.5v-6h-16.5v-6h16.5v-6h-16.5v-6h16.5
	v-6h-16.5v-2h68v-4h33.5v6h19v-6h14v-6h-14v-6h14v-0.5h-68V72h-18.8v6h-66.5v6h-27v6h27v6h-27v3.5h43.5c0,0.8,0,1.7-0.1,2.5h-16.4v6
	h16c-0.2,2.1-0.6,4.1-1,6h-14.9v6h13.2c-0.8,2.1-1.7,4.1-2.7,6h-10.6v6h6.4c-2,2.3-4.3,4.3-6.9,6h0.4v6h-17.2
	c-2.9,0.4-6.1,0.6-9.3,0.6c-3.9,0-7.6-0.2-11.1-0.6h2.7v-6h-18.8v6h-23.5c2.4,2.2,5,4.2,7.9,6h15.6v6h-3.1
	c8.3,2.9,17.7,4.4,28.1,4.4c9.1,0,17.3-1.5,24.5-4.4H1026v-6h34.9v6h19.7l0.2,1.9h15.5V156h31.2v1.9h94.6L1222,156L1222,156z
	 M1181.2,78v6h-33.5v-6H1181.2z M1096.2,84h31.2v6h-31.2V84z M1067.7,150c2.4-1.8,4.7-3.8,6.8-6h5.1l0.5,6H1067.7L1067.7,150z
	 M1096.2,150v-6h31.2v6H1096.2z M1155.5,156v-6h25.7v6H1155.5z"/>
<rect x="1393.8" y="156" width="19" height="1.9"/>
<path d="M1634.8,156h25.7v1.9h19V156h34.5v1.9h18.6V156h-6.6v-6h6.6v-6h-6.6v-2.2h-75.8V138h-18.8v6h-91.3v6h91.3v6h-91.3v1.9h94.6
	L1634.8,156L1634.8,156z M1714.1,144v6h-34.5v-6H1714.1z M1634.8,144h25.7v6h-25.7V144z"/>
<rect x="1486.5" y="156" width="18.8" height="1.9"/>
<polygon points="1358.8,156 1336.3,156 1337.5,157.9 1358.8,157.9 "/>
<path d="M1247.3,157.9h18.6V156h-12.5v-6h12.5v-6h-12.5v-6h12.5v-6h-12.5v-6h12.5v-6h-12.5v-6h12.5v-6h-12.5v-6h12.5v-6h-12.5v-6
	h12.5v-6h-12.5v-6h12.5v-2.4c0-0.7,0-2,0-3.6h17.5l3.8,6h20.6l-3.8-6H1284l-2.3-6h18.4l-3.8-6h-16.9l-2.3-6h15.3l-3.8-6h-13.8
	l-2.3-6h12.3l-3.8-6h-10.8l-2.3-6h9.2l-3.8-6h-7.7l-2.3-6h6.2l-1.9-3h-20.3v3h-12.5v6h12.5v6h-12.5v6h12.5v6h-12.5v6h12.5v6h-12.5v6
	h12.5v6h-12.5v6h12.5v6h-12.5v6h12.5v6h-12.5v6h12.5v6h-12.5v6h12.5v6h-12.5v6h12.5v6h-12.5v6h12.5v6h-12.5v6h12.5v6h-12.5v6h12.5
	L1247.3,157.9L1247.3,157.9z M1279.8,66h-14c0-1.8-0.1-3.9-0.2-6h10.8C1277.6,62.2,1278.7,64.2,1279.8,66z M1273,54h-7.6
	c-0.1-2-0.1-4-0.2-6h4.5C1270.8,50,1271.9,52,1273,54L1273,54z M1265,42c0-0.9-0.1-1.8-0.1-2.7h0.2c0.4,0.9,0.9,1.8,1.4,2.7H1265z
	 M1252.5,42h1.2c0.7,2,1.4,4,2.2,6h-3.1C1252.7,46,1252.6,43.9,1252.5,42z M1253,54h5c0.8,2.1,1.5,4.1,2.2,6h-7
	C1253.1,58.1,1253.1,56.1,1253,54z M1253.3,66h9.1c0.8,2.1,1.5,4,2.1,5.6l0.2,0.4h-11.3v-0.4C1253.4,70.4,1253.4,68.5,1253.3,66
	L1253.3,66z"/>
<path d="M723,160.4c10.8,0,20.2-1.5,28-4.4h-8.3v-6h19.9c2.5-1.8,4.7-3.8,6.7-6h17.4v-6h-13c1.1-1.9,2.1-3.9,3-6h10v-6h-8.1
	c0.5-1.9,0.9-3.9,1.2-6h6.9v-6h-6.3c0-1.1,0.1-2.2,0.1-3.2V108h6.3v-6h-6.3v-6h6.3v-6h-6.3v-6h6.3v-6h-6.3v-6h6.2
	c0-1.7-0.1-3.7-0.1-6h-6.1v-6h6c0-1.9-0.1-4-0.2-6h-5.8v-6h5.6c-0.1-2-0.2-4-0.2-6h-5.3v-6h21.3l-3.8-6h-17.5v-6H794l-3.8-6h-9.9v-3
	h-19v3h6.7v6h-6.7v6h6.7v6h-6.7v6h6.7v6h-6.7v6h6.7v6h-6.7v6h6.7v6h-6.7v6h6.7v6h-6.7v6h6.7v6h-6.7v6h6.7v6h-6.7v2.8
	c0,1.1-0.1,2.2-0.1,3.2h6.8v6h-7.8c-0.6,2.2-1.3,4.2-2.2,6H768v6h-14.1c-2.1,2.4-4.5,4.4-7.2,6H768v6h-25.3v-2.6h-75.8V138h-18.8v6
	h28.8c2,2.2,4.2,4.2,6.7,6h-35.5v6h47C702.8,158.9,712.2,160.4,723,160.4L723,160.4z M724.9,144c-0.6,0-1.3,0-1.9,0s-1.3,0-1.9,0
	H724.9L724.9,144z"/>
<polygon points="636.7,157.9 636.7,156 621,156 621.2,157.9 "/>
<polygon points="1745,24 1714.1,24 1714.1,30 1747.3,30 "/>
<path d="M1835.7,60h-19.3l-2.3,6h19.4C1834.1,64.2,1834.8,62.2,1835.7,60L1835.7,60z"/>
<polygon points="1741.5,15 1714.1,15 1714.1,18 1742.7,18 "/>
<rect x="1486.5" y="15" width="18.8" height="3"/>
<rect x="1660.6" y="15" width="19" height="3"/>
<path d="M1731.7,38.9h0.2c0.4,1,0.7,2.1,1.1,3.1h12.1c-1.2,1.9-2.3,3.9-3.3,6h-6.7c0.7,2,1.5,4,2.2,6h1.9c-0.7,2-1.4,3.9-2,6h2.2
	c0.8,2.2,1.5,4.2,2.2,6h-5.9c-0.4,2-0.8,4-1,6h9.2l2.4,6h-12.3c-0.2,2-0.2,4-0.3,6h14.9l2.4,6h-17.3c0.1,2,0.2,4,0.3,6h19.3l2.4,6
	h-21.1c0.3,2.1,0.6,4.1,1,6h21.1c-0.4-1.9-0.7-3.9-1-6h18.9c-0.7-1.9-1.5-3.9-2.3-6h-17.3c-0.2-1.9-0.2-3.9-0.3-6h15.3l-2.3-6h-13
	c0-2.1,0.1-4.1,0.2-6h10.4l-2.3-6h-7.6c0.3-2.1,0.6-4.1,1-6h4.3l-2.3-6h-0.5c0.6-2.1,1.4-4.1,2.2-6h-4l-2.3-6h9.3
	c0.7-1.1,1.4-2.2,2.1-3.2c0.7-1,1.5-1.9,2.3-2.8h-16.1l-2.3-6h25.5c4.4-2.8,9.5-4.8,15.2-6h-35.3c-2,1.9-3.8,3.9-5.5,6h-35.2v6h17.7
	C1731.8,40.9,1731.7,39.9,1731.7,38.9L1731.7,38.9z"/>
<path d="M134.9,78H156c0.1-2.1,0.3-4.1,0.6-6h-21C135.3,74,135.1,76,134.9,78L134.9,78z"/>
<polygon points="1809.5,78 1828.8,78 1831.1,72 1811.8,72 "/>
<path d="M1791.7,126h18.1l2.4-6h-18.4C1793,122.1,1792.3,124.1,1791.7,126z"/>
<path d="M1816.9,108h-18.8c-0.7,2-1.5,4-2.2,6h18.6L1816.9,108L1816.9,108z"/>
<rect x="1714.1" y="132" width="18.6" height="6"/>
<rect x="1714.1" y="120" width="18.6" height="6"/>
<path d="M1783.7,126c-0.7-1.9-1.4-3.9-2.2-6H1763l2.4,6H1783.7L1783.7,126z"/>
<path d="M1758.2,108l2.4,6h18.7c-0.7-1.9-1.4-3.9-2.2-6H1758.2z"/>
<rect x="1393.8" y="144" width="19" height="6"/>
<polygon points="1358.8,144 1328.7,144 1332.5,150 1358.8,150 "/>
<rect x="1486.5" y="144" width="18.8" height="6"/>
<rect x="1393.8" y="15" width="19" height="3"/>
<rect x="1660.6" y="48" width="19" height="6"/>
<rect x="1660.6" y="36" width="19" height="6"/>
<rect x="1660.6" y="24" width="19" height="6"/>
<path d="M1732.1,48h-18v6h18.2C1732.2,52,1732.2,50,1732.1,48L1732.1,48z"/>
<path d="M1732.5,60h-18.4v6h18.5C1732.6,64.2,1732.6,62.2,1732.5,60L1732.5,60z"/>
<rect x="1393.8" y="24" width="19" height="6"/>
<rect x="1486.5" y="24" width="18.8" height="6"/>
<path d="M1669.4,329.4c-11.1,0-20.4-1.6-27.7-5.4h16.3v-6h-18.8v6h-24.9c1.8,2.2,3.9,4.2,6,6h18.9v6h-10.4c4.4,2.5,9.3,4.5,14.5,6
	h-4.1v0.6h18.8V342h30.3c4.6-1.5,8.8-3.5,12.6-6h-43v-6h50.4c1.9-1.8,3.6-3.8,5.1-6h-20C1687.1,327.6,1679,329.4,1669.4,329.4
	L1669.4,329.4z"/>
<path d="M1619.4,282c-0.2-1.9-0.3-3.9-0.4-6h-21.1c0.1,2,0.2,4,0.4,6H1619.4z"/>
<path d="M1609.7,318h23.5c-1.3-1.3-2.5-2.6-3.6-4.1c-0.4-0.6-0.8-1.2-1.2-1.9h-21.6l-2.4-6h20.8c-0.9-1.9-1.6-3.9-2.3-6H1602l-2.4-6
	h-24.2c0.5-2,0.9-4,1.2-6h20.6l-2.4-6h-17.4c0.2-2,0.3-4,0.4-6h14.6l-2.4-6h-12.1c0-2-0.1-4-0.2-6h9.9l-2.4-6h-8.1c-0.3-2-0.6-4-1-6
	h6.7l-2.4-6h-5.7c-0.6-2.1-1.2-4.1-1.9-6h5.2l-2.4-6h-5.2c-1-2.1-2-4.1-3.2-6h6l-2.4-6h-7.7c-1.6-2.1-3.3-4.1-5.2-6h10.4l-2.4-6h-15
	c-3.1-2.3-6.4-4.3-10.1-6h22.7l-1.7-4.3h-20.1l-1.7,4.3H1476c-3.6,1.7-7,3.7-10.1,6h71.8l-2.4,6h-8.3c4.2,1.4,7.9,3.4,11.2,6h-5.3
	l-2.4,6h13.7c0.4,0.5,0.8,1,1.2,1.5c1,1.4,2,2.9,2.9,4.5h9.4c0.8,2.1,1.5,4.1,2.3,6h-8.6c0.8,1.9,1.5,3.9,2.2,6h8.8l2.3,6h-9.6
	c0.4,1.9,0.7,3.9,1,6h10.9l2.3,6h-12.7c0.1,1.9,0.2,3.9,0.2,6h14.8l2.3,6h-17.1c-0.1,2.1-0.2,4.1-0.4,6h19.8l0.6,1.6H1527l0.6-1.6
	h-18.8l-2.4,6h48.9c-0.3,2.1-0.8,4.1-1.2,6H1504l-2.4,6h19.3v0h61.8v0h19c0.6,2.1,1.3,4.1,2,6H1585l2.3,6h19
	C1607.3,314.1,1608.4,316.1,1609.7,318L1609.7,318z M1547.9,228c0.7-2,1.4-4,2.1-6h3.3c0.7,1.9,1.4,3.9,2.1,6H1547.9z"/>
<path d="M90.5,240c0.1,0.2,0.1,0.4,0.2,0.6l2.1,5.4h18.3l-2.4-6H90.5L90.5,240z"/>
<polygon points="127.3,336 129.6,342 149.5,342 147.1,336 "/>
<polygon points="125.5,282 123.1,276 104.4,276 106.7,282 "/>
<path d="M282,342c-1.6-1.9-2.8-3.9-3.9-6h-20.5c0.8,2.2,1.8,4.1,3,6H282z"/>
<path d="M774,342h-21.6c7.2,2,15.3,3.1,24.1,3.1c8.3,0,16-1.1,22.9-3.1h21.6c5.1-1.5,9.8-3.5,14.2-6h-21.7c3.1-1.8,5.9-3.8,8.6-6
	h21.8c2.2-1.8,4.3-3.8,6.3-6h-21.9c1.7-1.9,3.2-3.9,4.7-6H855c1.4-1.9,2.7-3.9,3.9-6h-22.4c1-1.9,2-3.9,2.8-6H862
	c0.2-0.5,0.5-1,0.7-1.5l-17.4-4.5h-3.8c0.6-2,1.2-4,1.7-6h-21.4c-0.5,2.1-1.1,4.1-1.8,6h20.8c-0.8,2-1.7,4.1-2.7,6h-20.6
	c-1,2.1-2.2,4.1-3.4,6h20.3c-1.6,2.1-3.3,4.2-5.3,6h-19.9c-2.3,2.4-5,4.4-8,6h19.6c-6.2,3.4-13.7,5.4-22.8,5.4
	c-9.6,0-18.2-1.8-25.1-5.4h-21.1c-3.2-1.6-6.2-3.7-8.8-6h21.3c-1.5-1.4-2.8-2.9-4-4.6c-0.3-0.5-0.7-1-1-1.4h-21.7
	c-1.1-1.7-2.2-3.7-3.2-6h21.6c-0.9-1.9-1.7-3.9-2.3-6h-21.4c0.6,2.1,1.3,4.1,2,6h-21.6c0.8,2.1,1.7,4.1,2.7,6H737
	c1,2.1,2.2,4.1,3.4,6h-21.6c1.4,2.1,2.9,4.1,4.5,6H745c1.8,2.2,3.9,4.2,6,6h-21.6c2.6,2.2,5.5,4.2,8.5,6h21.6
	C763.9,338.5,768.7,340.5,774,342L774,342z"/>
<path d="M1629.7,229.5c0.4-0.5,0.8-1,1.2-1.5h-22.4c-1.1,1.9-2.2,3.9-3.1,6h21.5C1627.7,232.4,1628.6,230.9,1629.7,229.5
	L1629.7,229.5z"/>
<rect x="1337" y="204" width="18.8" height="6"/>
<rect x="1032.1" y="264" width="18.6" height="6"/>
<path d="M750,270c0-2.1,0.1-4.1,0.2-6h-21.3c-0.1,2-0.2,4-0.2,6H750L750,270z"/>
<polygon points="1121.9,342 1143.6,342 1143.6,336 1118.1,336 "/>
<rect x="1032.1" y="276" width="18.6" height="6"/>
<path d="M750,276h-21.3c0.1,2,0.2,4,0.4,6h21.3C750.2,280.1,750.1,278.1,750,276z"/>
<rect x="342" y="252" width="19" height="6"/>
<path d="M1471.7,228.7c0.2-0.2,0.4-0.5,0.6-0.7h-22.4c-1.1,1.9-2.2,3.9-3.1,6h21.6C1469.3,232.1,1470.4,230.3,1471.7,228.7z"/>
<path d="M32.4,90h-8.5c0.1,2,0.2,4,0.3,6h8.2v6h-7.6c0.3,2.1,0.6,4.1,1,6h6.6v6h-5.2c0.6,2.1,1.2,4.1,1.9,6h3.3v6h-0.8
	c1,2.1,2.1,4.1,3.2,6h-2.5v6h6.7c1.7,2.1,3.6,4.1,5.6,6H32.4v6h20.2c3.8,2.4,8,4.4,12.6,6H32.4v1.9H127V156h-9.2c4-1.6,7.6-3.6,11-6
	H127v-6h8.6c1.6-1.8,3.2-3.6,4.6-5.7l0.5,5.7h14.9c2.4,2.2,5,4.2,7.9,6h40.8c3.4,2.4,7.2,4.4,11.5,6H176c8.3,2.9,17.6,4.4,28.1,4.4
	c9.1,0,17.3-1.5,24.5-4.4h23.9l0.2,1.9h15.5V156h3.5c4.3-1.6,8.2-3.6,11.5-6h-15v-6h21.7c1.6-1.9,3.1-3.9,4.4-6h-26.1v-6h-28.9
	c-2,2.3-4.3,4.3-6.9,6h34.9c-6.1,3.8-13.7,5.7-21.8,6h-3.8c-8-0.3-15.6-2.2-21.7-6h-26.9c1.3,2.1,2.7,4.1,4.4,6h18.1
	c-2.9,0.4-6.1,0.6-9.4,0.6c-3.9,0-7.6-0.2-11.1-0.6h-37.8v-6h18.8c-2.8-1.6-5.2-3.6-7.3-6h-11.5v-6h7.1c-1.1-1.9-2.1-3.9-3-6h-4.1
	v-6h1.9c-0.6-1.9-1.1-3.9-1.5-6h-0.4v-6h-0.6c-0.3-1.9-0.5-3.9-0.6-6h1.2v-6h-1.5c0-1.2-0.1-2.3-0.1-3.5c0-0.8,0-1.6,0-2.5h1.5v-1.8
	H95V84h39.7c0,0.8,0,1.6,0,2.5c0,1.2,0,2.4,0.1,3.5H95v6H135c0.2,2.1,0.4,4,0.6,6h2.8c-0.1,2.1-0.2,4.1-0.5,6h-1.3
	c0.4,2.1,0.9,4.1,1.4,6h-1.1c-0.5,2.1-1,4.1-1.7,6h4.7c0.8,2.1,1.6,4.1,2.5,6h-9.9c-1.2,2.2-2.6,4.2-4.1,6h17.3
	c1.3,2.1,2.7,4.1,4.2,6h-28.4c-4.7,3.1-10.3,5.1-16.8,6H84.3c-7.4-0.9-13.8-2.9-19-6H51.2v-6H58c-0.8-0.9-1.6-1.9-2.4-2.9
	c-0.7-1-1.4-2.1-2-3.1h-2.4v-6h-0.6c-0.8-1.9-1.5-3.9-2.2-6h2.8v-6h-4.3c-0.4-1.9-0.7-3.9-1-6h5.3v-6h-5.9c-0.2-1.9-0.2-3.9-0.3-6
	h6.2v-6H45c0-2.1,0.1-4.1,0.2-6h6v-6h-5.4c0.3-2.1,0.6-4.1,1-6h4.4v-6h-2.9c0.6-2.1,1.4-4.1,2.2-6h0.8v-6h2.3
	c0.7-1.1,1.4-2.2,2.1-3.2c0.7-1,1.5-1.9,2.3-2.8h-6.7v-6h13.8c4.4-2.8,9.5-4.8,15.2-6h-29v-6H32.4v6h12.5c-2,1.9-3.8,3.9-5.5,6h-7v6
	h2.8c-1.2,1.9-2.3,3.9-3.3,6h0.5v6h-3.1c-0.7,2-1.4,3.9-2,6h5.1v6h-6.5c-0.4,2-0.8,4-1,6h7.6v6h-8.2c-0.1,2-0.2,4-0.3,6h8.5L32.4,90
	L32.4,90z M246.4,144h5.1l0.5,6h-12.4C242,148.2,244.3,146.2,246.4,144L246.4,144z"/>
<rect x="32.4" y="15" width="18.8" height="3"/>
<path d="M1192.8,282c-0.2-1.9-0.3-4-0.4-6h-21.4c0.1,2,0.2,4,0.4,6H1192.8L1192.8,282z"/>
<path d="M1827.9,30h-12.9c5.1,1.2,9.5,3.3,13.3,6h-2.7l-2.3,6h11.7c1.7,1.9,3.2,3.9,4.5,6H1821l-2.3,6h19.2c0.7-1.9,1.4-3.9,2.2-6h3
	c-0.1,2-0.2,4-0.2,6h-0.1c0.9,2,1.6,4,2.3,6h-2.4c-0.1,2.2-0.1,4.2-0.2,6h18.5v-6h-9.7l14.5-2.7c-0.3-1.1-0.6-2.2-1-3.3h-3.8v-6h1.6
	c-0.9-2.1-1.9-4.1-3-6h1.5v-6h-5.4c-1.6-2.2-3.4-4.1-5.2-6h10.7v-6h-17.9c-3.4-2.4-7.1-4.4-11-6h-58.7c-4,1.6-7.7,3.7-11.2,6h67.9
	L1827.9,30L1827.9,30z M1842.1,42c0.4-1,0.7-2,1.1-3.1h0.2c-0.1,1-0.1,2-0.2,3.1H1842.1L1842.1,42z"/>
<path d="M1783.4,240.6l-0.3-0.6h-20.5l3.8,6h20.2C1785,243.3,1783.8,241.3,1783.4,240.6L1783.4,240.6z"/>
<rect x="1842.4" y="72" width="18.6" height="6"/>
<path d="M987.3,114c-0.6-1.9-1.1-3.9-1.5-6h-21.1c0.4,2.1,0.9,4.1,1.4,6H987.3L987.3,114z"/>
<rect x="1127.4" y="108" width="18.8" height="6"/>
<rect x="1393.8" y="108" width="19" height="6"/>
<path d="M1358.8,108h-18.5c0,1.9,0.1,3.9,0.2,6h18.3V108z"/>
<path d="M614.3,60c0.1,0.4,0.2,0.8,0.3,1.1l6-1.1H614.3z"/>
<polygon points="392.8,108 398.9,114 418.8,114 412.7,108 "/>
<path d="M987.2,60h-21c-0.6,2-1,4-1.5,6h21C986.1,63.9,986.6,61.9,987.2,60z"/>
<rect x="1127.4" y="60" width="18.8" height="6"/>
<polygon points="1540.2,72 1540.2,78 1627.1,78 1627.1,77.5 1559.1,77.5 1559.1,72 "/>
<rect x="1540.2" y="132" width="18.8" height="6"/>
<path d="M1004.2,138c-2.8-1.6-5.2-3.6-7.3-6h-23.1c1.3,2.1,2.7,4.1,4.2,6H1004.2L1004.2,138z"/>
<rect x="1127.4" y="132" width="18.8" height="6"/>
<rect x="1393.8" y="60" width="19" height="6"/>
<polygon points="411.2,126 418.5,126 424.8,120 405.1,120 "/>
<path d="M503.1,86.5c0,1.2,0,2.4,0.1,3.5h-19.8c0.1,2,0.2,4,0.3,6h19.8c0.2,2.1,0.4,4,0.6,6h-19.8c0.3,2.1,0.6,4.1,1,6h19.8
	c0.4,2.1,0.9,4.1,1.4,6h-19.8c0.6,2.1,1.2,4.1,1.9,6h19.8c0.8,2.1,1.6,4.1,2.5,6h-19.8c1,2.1,2.1,4.1,3.2,6h19.8
	c1.3,2.1,2.7,4.1,4.2,6h-19.8c1.7,2.1,3.6,4.1,5.6,6H524c2.4,2.2,5,4.2,7.9,6h-19.8c3.8,2.4,8,4.4,12.6,6h19.8
	c8.3,2.9,17.7,4.4,28.1,4.4c9,0,17.3-1.5,24.5-4.4h-19.8c4-1.6,7.6-3.6,11-6h12.4l0.5,6h15.7v-6h-8.8c2.5-1.8,4.7-3.8,6.8-6h2v-6
	h19.8v-6h-19.8v-6h19.8v-6h-19.8v-6h19.8v-6h-19.4c-0.2,2.1-0.6,4.1-1,6h-19.8c-0.5,2.1-1,4.1-1.7,6h19.8c-0.8,2.1-1.7,4.1-2.7,6
	h-19.8c-1.2,2.2-2.6,4.2-4.1,6h19.8c-2,2.3-4.3,4.3-6.9,6h-19.8c-4.7,3.1-10.3,5.1-16.8,6H584c-2.9,0.4-6,0.6-9.3,0.6
	c-3.9,0-7.6-0.2-11.1-0.6h-19.8c-7.4-0.9-13.8-2.9-19-6h19.8c-2.8-1.6-5.2-3.6-7.3-6h-19.8c-0.8-0.9-1.6-1.9-2.4-2.9
	c-0.7-1-1.4-2.1-2-3.1h19.8c-1.1-1.9-2.1-3.9-3-6h-19.8c-0.8-1.9-1.5-3.9-2.1-6h19.8c-0.6-1.9-1.1-3.9-1.5-6h-19.8
	c-0.4-1.9-0.7-3.9-1-6h19.8c-0.3-1.9-0.5-3.9-0.6-6h-19.8c-0.1-1.9-0.2-3.9-0.3-6h19.8c0-1.2,0-2.3,0-3.5c0-0.8,0-1.6,0-2.5h-19.8
	c0-2.1,0.1-4.1,0.2-6h19.8c0.1-2.1,0.3-4.1,0.6-6h-19.8c0.3-2.1,0.6-4.1,1-6h19.8c0.4-2.1,0.9-4.1,1.5-6h-19.8
	c0.6-2.1,1.4-4.1,2.2-6h19.8c0.9-2.1,1.9-4.1,3.1-6h-19.8c0.7-1.1,1.4-2.2,2.1-3.2c0.7-1,1.5-1.9,2.3-2.8h19.8
	c2.1-2.3,4.5-4.3,7.1-6h-19.8c4.4-2.8,9.5-4.8,15.2-6h19.8c4.2-0.9,8.7-1.3,13.5-1.3c4,0,7.8,0.5,11.2,1.3h-19.8
	c5,1.2,9.5,3.3,13.3,6h19.8c2.5,1.8,4.8,3.8,6.8,6h-19.8c1.7,1.9,3.2,3.9,4.5,6h19.8c1.2,1.9,2.3,3.9,3.2,6h-19.8c0.9,2,1.6,4,2.3,6
	h6.4l14.5-2.7c-0.3-1.1-0.6-2.2-1-3.3h19.8c-0.7-2.1-1.4-4.1-2.3-6h-19.8c-0.9-2.1-1.9-4.1-3-6h19.8c-1.2-2.1-2.5-4.1-4-6h-19.8
	c-1.6-2.2-3.4-4.1-5.2-6h19.8c-2.2-2.2-4.7-4.2-7.2-6h-19.8c-3.4-2.4-7.1-4.4-11-6h19.8c-8.7-3.6-18.4-5.4-28.9-5.4
	c-11.2,0-21.2,1.9-29.8,5.4H523c-4,1.6-7.7,3.7-11.2,6h19.8c-2.7,1.8-5.1,3.8-7.4,6h-19.8c-2,1.9-3.8,3.9-5.5,6h19.8
	c-1.5,1.9-2.9,3.9-4.2,6h-19.8c-1.2,1.9-2.3,3.9-3.3,6h19.8c-0.9,1.9-1.8,3.9-2.6,6h-19.8c-0.7,2-1.4,3.9-2,6h19.8c-0.6,2-1,4-1.5,6
	h-19.8c-0.4,2-0.8,4-1,6h19.8c-0.3,2-0.5,4-0.7,6h-19.8c-0.1,2-0.2,4-0.3,6h19.8C503.2,84.8,503.1,85.6,503.1,86.5L503.1,86.5z
	 M599.7,138.3l0.5,5.7h-5.1C596.8,142.2,598.3,140.4,599.7,138.3L599.7,138.3z"/>
<polygon points="1861,15 1833.6,15 1832.5,18 1861,18 "/>
<path d="M268.1,96h-62.4v3.5h43.5c0,0.8,0,1.7-0.1,2.5h18.9L268.1,96L268.1,96z"/>
<path d="M847.8,36h-25.7c-1.5,1.9-2.9,3.9-4.2,6h22.8C842.8,39.7,845.1,37.7,847.8,36z"/>
<path d="M235.8,42h24.6c-1.2-2.1-2.5-4.1-4-6H229C231.6,37.8,233.8,39.8,235.8,42L235.8,42z"/>
<path d="M1302.3,102h18.7c-0.7,2-1.5,4-2.2,6h-12.7l3.8,6h6.8c-0.7,2-1.5,4.1-2.2,6h-0.8l3.8,6h-5.1c-0.8,2.1-1.4,4.1-2.1,6h10.9
	l3.8,6h-34.2l2.4,6h30.2l2.4-6h33.1v-6h-17.7c0,0.6,0.1,1.1,0.1,1.6h-0.2c-0.3-0.5-0.6-1.1-0.9-1.6h-12.1l2.4-6h6.5
	c-1.1-2-2.2-4-3.3-6h-0.8l2.4-6h-5c-1.2-2.1-2.3-4.1-3.5-6h10.8l2.4-6h-16.9c-0.1-0.2-0.3-0.4-0.4-0.6l-3.4-5.4h-20.7L1302.3,102
	L1302.3,102z"/>
<path d="M963.1,96c0.2,2.1,0.4,4,0.6,6h21.1c-0.3-1.9-0.5-3.9-0.6-6H963.1L963.1,96z"/>
<rect x="1127.4" y="96" width="18.8" height="6"/>
<polygon points="1294.7,90 1315.4,90 1311.6,84 1290.9,84 "/>
<rect x="1393.8" y="96" width="19" height="6"/>
<path d="M1340.2,97.3c0,1.2,0,2.8,0.1,4.7h18.6v-6h-16.5l2.4-6h14.2v-6H1347l2.4-6h9.4v-6h-7.1l0.2-0.4c0.7-1.7,1.3-3.5,2.1-5.6h4.8
	v-6h-2.5c0.7-1.9,1.4-3.9,2.2-6h0.4v-6h1.8c0.7-1.9,1.4-3.9,2.1-6h-3.9v-6h22.8v-6h-22.8v-6h22.8v-6h-22.8v-3h-18.6v3h12.9l-2.3,6
	h-10.6v6h8.3l-2.3,6h-6v6h3.7l-2.3,6h-1.4v6h-0.9l-2.3,6h3.2v6h-5.5l-2.3,6h7.8v6h-10.1l-2.3,6h12.4v6h-14.7l-2.2,5.8
	c0,0,0,0.1-0.1,0.2h17L1340.2,97.3L1340.2,97.3z"/>
<polygon points="374.7,114 380.8,108 360.9,108 354.8,114 "/>
<rect x="1714.1" y="72" width="18.6" height="6"/>
<rect x="1714.1" y="84" width="18.6" height="6"/>
<rect x="1714.1" y="96" width="18.6" height="6"/>
<rect x="1660.6" y="120" width="19" height="6"/>
<rect x="1660.6" y="108" width="19" height="6"/>
<rect x="1714.1" y="108" width="18.6" height="6"/>
<rect x="1660.6" y="72" width="19" height="6"/>
<rect x="1540.2" y="48" width="18.8" height="6"/>
<rect x="1660.6" y="60" width="19" height="6"/>
<rect x="1660.6" y="132" width="19" height="6"/>
<rect x="1540.2" y="36" width="18.8" height="6"/>
<path d="M669.5,132c0.8,2.1,1.8,4.1,3,6h26.9c-2.7-1.6-5.1-3.6-7.1-6H669.5L669.5,132z"/>
<rect x="1486.5" y="132" width="18.8" height="6"/>
<rect x="1393.8" y="132" width="19" height="6"/>
<path d="M1004,36h-25.7c-1.5,1.9-2.9,3.9-4.2,6h22.8C999,39.7,1001.3,37.7,1004,36z"/>
<rect x="205.8" y="84" width="62.4" height="6"/>
<polygon points="381.9,78 375.7,72 355.9,72 362.1,78 "/>
<path d="M245.8,60c0.1,0.4,0.2,0.8,0.3,1.1l6-1.1H245.8L245.8,60z"/>
<path d="M243.6,54h22.1c-0.7-2.1-1.4-4.1-2.3-6h-23.1C241.6,49.9,242.6,51.9,243.6,54z"/>
<path d="M243.4,126h24.8v-6H246C245.3,122.1,244.4,124.1,243.4,126L243.4,126z"/>
<path d="M268.1,108h-19.4c-0.2,2.1-0.6,4.1-1,6h20.4L268.1,108L268.1,108z"/>
<rect x="1127.4" y="36" width="18.8" height="6"/>
<rect x="1393.8" y="36" width="19" height="6"/>
<rect x="1486.5" y="36" width="18.8" height="6"/>
<rect x="1540.2" y="108" width="18.8" height="6"/>
<polygon points="1540.2,126 1559.1,126 1559.1,120 1544.6,120 1544.7,119.9 1538.7,114 1518.7,114 1524.9,120 1540.2,120 "/>
<rect x="1393.8" y="120" width="19" height="6"/>
<rect x="1540.2" y="96" width="18.8" height="6"/>
<path d="M1358.8,126v-6h-18.1c0.1,2,0.1,4,0.2,6H1358.8L1358.8,126z"/>
<rect x="1660.6" y="96" width="19" height="6"/>
<rect x="1540.2" y="84" width="86.8" height="6"/>
<rect x="1660.6" y="84" width="19" height="6"/>
<path d="M833.3,120h-21.5c0.8,2.1,1.6,4.1,2.5,6h22C835.2,124.1,834.2,122.1,833.3,120L833.3,120z"/>
<path d="M667.6,126h20.6c-0.9-1.8-1.7-3.8-2.2-6h-19.1v-6H685c-0.1-1.1-0.1-2.1-0.1-3.2V108h-18v-6h18v-6h-18v-2h68v-4h-50v-6h50v-6
	h-50v-6h-18v-6h18v-6h-18v-6h18v-6h-18v-6h18v-6h-18v-4.5h75.8V30h-57.8v-6h57.8v-6h-57.8v-3h-19v3H648v6h17.8v6H648v6h17.8v6H648v6
	h17.8v6H648v6h17.8v6H648v6h17.8v6H648v6h17.8v6H648v6h17.8v6H648v6h17.8v2.8c0,1.1,0,2.2,0.1,3.2h-17.9v6h18.4
	C666.7,122.1,667.1,124.1,667.6,126L667.6,126z"/>
<rect x="1127.4" y="120" width="18.8" height="6"/>
<path d="M992.5,126c-1.1-1.9-2.1-3.9-3-6H968c0.8,2.1,1.6,4.1,2.5,6H992.5L992.5,126z"/>
<polygon points="636.7,144 620,144 620.5,150 636.7,150 "/>
<rect x="1486.5" y="48" width="18.8" height="6"/>
<polygon points="424.9,65 419.8,60 410.1,60 404,66 423.9,66 "/>
<polygon points="391.7,78 411.6,78 417.7,72 397.8,72 "/>
<rect x="1393.8" y="48" width="19" height="6"/>
<path d="M992.4,48h-21.7c-0.9,1.9-1.8,3.9-2.6,6h21.2C990.3,51.9,991.3,49.9,992.4,48L992.4,48z"/>
<rect x="1127.4" y="48" width="18.8" height="6"/>
<path d="M130.8,480h-26.3v-6h23.9l-2.4-6h-18.9l0.1,0.4H57.7l0.1-0.4h-6.4v-6h8.7l2.3-6h-11v-6h13.2l2.3-6H51.4v-6h17.8l2.3-6h-18
	l-2.4,6H32.4v6h16.3l-2.4,6H32.4v6h11.5l-2.4,6h-9.1v6H39l-2.4,6h-4.2v6h1.8l-2.4,6h0.6v6h-3l-2.4,6h5.4v6h-7.8l-2.4,6h10.2v6H19.8
	l-2.4,6h15v5.4h19V522H37.3l2.3-6h11.8v-6h-9.5l2.3-6h7.2v-6h-4.9l2.3-6h2.6v-6h-0.3l0.5-1.3h61.7l0.5,1.3h19.4L130.8,480L130.8,480
	z M51.4,480v-6h34.5v6C85.9,480,51.4,480,51.4,480z"/>
<path d="M203,470.4c-0.3,1.2-0.6,2.4-1,3.6h16.6l1.7-6h-16.7L203,470.4z"/>
<path d="M288.2,470.4c-0.3,1.2-0.5,2.4-0.8,3.6h16.9l1.6-6h-17.1L288.2,470.4L288.2,470.4z"/>
<polygon points="292.9,450 310.7,450 312.3,444 294.3,444 "/>
<polygon points="290.1,462 307.5,462 309.1,456 291.5,456 "/>
<path d="M284.7,486h16.4l1.6-6H286C285.5,482,285.1,484,284.7,486z"/>
<polygon points="125.5,516 127.8,522 147.6,522 145.2,516 "/>
<polygon points="349.8,462 368.4,462 370.7,456 352.2,456 "/>
<polygon points="145,384.5 146.5,390 166.4,390 165.1,384.5 "/>
<path d="M584.5,516h-7l-2.4-6h7.9c-0.3-1.9-0.5-3.9-0.7-6h-9.6l-2.4-6H582c0-1.9-0.1-3.9-0.1-6h-14l-2.4-6h16.1
	c-0.2-2.1-0.6-4.1-1.1-6h-17.4l-2.4-6h17.4c-1.2-2.2-2.7-4.2-4.5-6h-15.3l-2.4-6h8.4c-0.5-0.2-0.9-0.4-1.4-0.6
	c3.5-1.2,6.8-3,9.7-5.4h-19.1l-2.4-6h27.1c1.3-1.8,2.5-3.8,3.5-6H561c-2.8,2.9-6.4,4.8-10.5,6h-18l2.3,6h-40.2l2.3-6h0v-6h2.3l2.3-6
	H497v-6h6.8l2.3-6H497v-6h11.3c0.8-2.1,1.5-4.1,2.2-6H497v-6h15.6c0.7-1.9,1.3-3.8,2-5.8h0.2c0.6,1.7,1.3,3.7,2,5.8h17.7l-2.4-6
	h-34.1l-2.4,6h-17.3v6H493l-2.4,6h-12.5v6h10l-2.4,6h-7.6v6h5.2l-2.4,6h-2.8v6h0.4l-2.4,6h2v6h-4.4l-2.4,6h6.8v6h-9.2l-2.4,6h11.6v6
	h-14l-2.4,6h16.4v6h-18.8l-2.4,6h19.6l2.3-6h18.1v-6h-15.8l2.3-6h13.5v-6h63.9c0.8,1.8,1.4,3.8,1.7,6h-16.4l2.3,6h14.6
	c0,0.5,0,1.1,0,1.7c0,1.5,0,3,0,4.3h-12.3l2.3,6h10.1c0.1,2.2,0.2,4.2,0.4,6h-8.2l2.3,6h6.8c0.5,2.3,1.1,4.2,1.8,6h-6.3l2.1,5.4H582
	l-2.1-5.4h7.2C586,520.1,585.1,518.1,584.5,516L584.5,516z M492.5,462h44.8l2.3,6h-49.3L492.5,462L492.5,462z M497,474v-5.9h32.7
	c13.1,0,21.5,1.7,26.6,5.9H497L497,474z"/>
<polygon points="268.6,522 291.5,522 293.1,516 266.8,516 "/>
<path d="M270.8,470.4l-0.7-2.4h-17.4l1.8,6h17.3C271.5,472.8,271.2,471.6,270.8,470.4L270.8,470.4z"/>
<path d="M444,492h-16v-6h13.6l-2.4-6h-11.2v-6h8.9l-2.4-6h-6.5v-6h4l-2.4-6h-1.6v-6h-0.7l-2.4-6h3.1v-6h-5.5l-2.4-6h7.9v-6h-10.3
	l-2.4-6h12.7v-6h-15.1l-2.4-6h17.5v-6h-19v6h-16.1c0.7,1.9,1.4,3.9,2.1,6h14v6h-11.8c0.7,1.8,1.4,3.6,2,5.3l0.3,0.7h9.5v6h-7.2
	l2.3,6h4.9v6h-2.6l2.3,6h0.3v6h2l2.3,6h-4.3v6h6.6l0.1,0.4H366l0.1-0.4h-18.8l-2.4,6h63.9v6h-66.3l-2.4,6h19.3l0.5-1.3h61.7l0.5,1.3
	h-13.3v6h15.6l2.3,6h-18v6h19v-6h18.4L444,492L444,492z"/>
<path d="M282,498h15.8l1.6-6h-16.1C282.9,494.1,282.5,496.1,282,498z"/>
<path d="M276.7,492h-16.9l1.8,6h16.7C277.8,496.1,277.3,494.1,276.7,492z"/>
<polygon points="375.2,444 357,444 354.6,450 373,450 "/>
<path d="M273.5,480h-17.2l1.8,6h17.1C274.6,484.1,274,482.1,273.5,480z"/>
<polygon points="295.7,438 313.9,438 315.5,432 297,432 "/>
<polygon points="298.4,426 317.1,426 318.7,420 299.8,420 "/>
<path d="M1678.5,198c-3.6-0.5-7.3-0.7-11.1-0.7c-4,0-7.8,0.2-11.5,0.7H1678.5z"/>
<polygon points="379.8,432 361.8,432 359.4,438 377.5,438 "/>
<path d="M266.7,456h-15.3v-6H265l-1.7-6h-11.9v-6h10.2l-1.7-6h-8.5v-6h6.8l-1.7-6h-5.1v-6h3.4l-1.7-6h-1.7v-6h0l-1.7-6h1.8v-6h-3.5
	l-1.6-5.5h-19.2l-1.6,5.5h6.8v6h-8.5l-1.7,6h10.2v6h-11.8l-1.7,6h13.5v6h-15.2l-1.7,6h16.9c0.5-2.1,1.1-4.1,1.6-6h5.2
	c0.5,1.9,1,3.9,1.6,6h-8.3v6h10c0.6,2,1.1,4,1.7,6h-11.6v6h13.4l1.8,6h-15.1v6h16.9l1.8,6h-18.7v6h19v-6h17L266.7,456L266.7,456z
	 M235.3,414c0.3-1.3,0.6-2.6,0.9-3.8h0.2c0.3,1.2,0.6,2.5,1,3.8H235.3L235.3,414z"/>
<path d="M212.1,438h17c0.6-2.1,1.1-4,1.6-6h-16.9L212.1,438z"/>
<rect x="978.3" y="336" width="18.8" height="6"/>
<path d="M1508.7,197.3c-4,0-7.8,0.2-11.5,0.7h22.9C1516.4,197.5,1512.6,197.3,1508.7,197.3z"/>
<polygon points="1775.8,228 1754.8,228 1758.7,234 1779.4,234 "/>
<polygon points="1772.2,222 1768.5,216 1747.2,216 1751,222 "/>
<path d="M1240.4,197.3c-4,0-7.8,0.2-11.5,0.7h22.9C1248.2,197.5,1244.4,197.3,1240.4,197.3z"/>
<path d="M1790.1,252h-19.8l3.8,6h19.5C1792.4,256,1791.2,253.9,1790.1,252z"/>
<path d="M1620.6,252h-21c-0.4,2-0.7,4-0.9,6h21C1619.9,255.9,1620.2,253.9,1620.6,252L1620.6,252z"/>
<path d="M1619.2,264h-21.1c-0.1,2-0.2,4-0.2,6h21.1C1619,267.9,1619.1,265.9,1619.2,264L1619.2,264z"/>
<rect x="1789.2" y="324" width="19" height="6"/>
<rect x="1789.2" y="300" width="19" height="6"/>
<rect x="1789.2" y="312" width="19" height="6"/>
<rect x="1789.2" y="288" width="19" height="6"/>
<polygon points="39.5,282 58.3,282 60.6,276 42,276 "/>
<polygon points="65.1,264 46.8,264 44.3,270 62.9,270 "/>
<polygon points="47,312 27.5,312 25.1,318 44.7,318 "/>
<polygon points="32.3,300 29.9,306 49.3,306 51.6,300 "/>
<polygon points="37.8,336 17.9,336 15.5,342 35.5,342 "/>
<polygon points="20.3,330 40.1,330 42.4,324 22.7,324 "/>
<rect x="1789.2" y="336" width="19" height="6"/>
<path d="M560.4,408c1.6,1.6,3,3.6,4.1,6h19.8c-0.5-2.1-1.1-4.1-1.9-6H560.4L560.4,408z"/>
<path d="M80.2,408H63.1l-2.4,6h17.4C78.8,412,79.5,410,80.2,408z"/>
<rect x="478.2" y="516" width="18.8" height="6"/>
<polygon points="140.4,504 120.8,504 123.2,510 142.8,510 "/>
<path d="M74,425.3c0.7-1.9,1.3-3.6,1.9-5.3H58.3l-2.4,6h17.9L74,425.3L74,425.3z"/>
<polygon points="135.6,492 116.2,492 118.5,498 138,498 "/>
<path d="M280.4,505.5h-0.2c-0.1-0.5-0.3-1-0.4-1.5h-16.5l1.8,6h29.6l1.6-6h-15.5C280.6,504.5,280.5,505,280.4,505.5L280.4,505.5z"/>
<path d="M198.8,486h16.4l1.7-6h-16.5C199.8,482,199.3,484,198.8,486L198.8,486z"/>
<rect x="478.2" y="504" width="18.8" height="6"/>
<polygon points="205.3,462 222.1,462 223.8,456 207,456 "/>
<path d="M388.5,408h-17.1l-2.4,6h17.4C387.2,412,387.9,410,388.5,408z"/>
<polygon points="208.7,450 225.6,450 227.3,444 210.4,444 "/>
<path d="M382.3,425.3c0.7-1.9,1.3-3.6,2-5.3h-17.7l-2.4,6H382L382.3,425.3L382.3,425.3z"/>
<polygon points="176.3,432 157.7,432 159.3,438 177.8,438 "/>
<polygon points="174.9,426 173.5,420 154.5,420 156.1,426 "/>
<polygon points="448.8,504 429.2,504 431.5,510 451.1,510 "/>
<path d="M1192.5,264h-21.3c-0.1,2-0.2,4-0.2,6h21.3C1192.4,268,1192.4,266,1192.5,264z"/>
<polygon points="151.3,408 152.9,414 172.1,414 170.7,408 "/>
<polygon points="148.1,396 149.7,402 169.3,402 167.8,396 "/>
<path d="M123.6,462l-2.4-6h-16.7v-6h14.3l-2.4-6h-11.9c0-1.4-0.1-3.5-0.1-6h9.6l-2.4-6h-7.4c-0.1-1.9-0.1-3.9-0.2-6h5.1l-2.4-6h-2.9
	c-0.1-2-0.1-4-0.2-6h0.7l-2.4-6h19.2l-3.8-6H99.6l-2.4-6h16.3l-3.8-6H94.8l-2.2-5.5H72.5l-2.2,5.5h15.6v6h-18l-2.4,6h20.4v6h-1.5
	c0.7,1.9,1.4,3.9,2.2,6h-0.6v6h2.8c0.7,1.8,1.3,3.6,2,5.3L91,426h-5.1v6h7.4l2.3,6h-9.7v6h12l2.3,6H85.9v6h16.6l2.3,6H123.6
	L123.6,462z"/>
<path d="M585.2,420h-18.9c0.3,1.8,0.5,3.8,0.6,6h18.7C585.5,423.9,585.4,421.9,585.2,420L585.2,420z"/>
<path d="M565,438h19c0.5-1.9,0.9-3.9,1.2-6h-18.6C566.3,434.2,565.7,436.2,565,438z"/>
<path d="M1032.1,228v6h18c-0.1-2-0.2-4-0.2-6H1032.1L1032.1,228z"/>
<path d="M1074.2,234l-3.8-6H1052c1,1.9,2.1,3.9,3.2,6H1074.2z"/>
<path d="M1198.5,306c-0.8-1.8-1.5-3.8-2.2-6h-21.6c0.6,2.1,1.3,4.1,2,6H1198.5z"/>
<rect x="1032.1" y="300" width="18.6" height="6"/>
<path d="M1281.5,306h21.8c0.8-1.9,1.6-3.9,2.2-6H1284C1283.3,302.1,1282.4,304.1,1281.5,306z"/>
<path d="M1464.5,300H1443c0.6,2.1,1.3,4.1,2,6h21.8C1465.9,304.2,1465.2,302.2,1464.5,300z"/>
<path d="M1461.8,288H1442v-4h39.8v-2h-20.7c-0.2-1.9-0.3-4-0.4-6h21.1v-5.6H1442V270h18.6c0-2,0.1-4,0.2-6H1442v-6h19.3
	c0.2-2.1,0.6-4.1,0.9-6H1442v-6h-14v6h13c-0.4,2-0.7,4-0.9,6h-12v6h11.5c-0.1,2-0.2,4-0.2,6H1428v0.4h-40v5.6h51.3
	c0.1,2,0.2,4,0.4,6H1388v2h40v4h12.4c0.3,2.1,0.7,4,1.1,6H1428v6h14v-6h20.9C1462.5,292.1,1462.1,290.1,1461.8,288L1461.8,288z"/>
<rect x="342" y="312" width="19" height="6"/>
<rect x="342" y="300" width="19" height="6"/>
<rect x="342" y="288" width="19" height="6"/>
<rect x="617.9" y="312" width="18.8" height="6"/>
<rect x="617.9" y="228" width="18.8" height="6"/>
<rect x="342" y="240" width="19" height="6"/>
<rect x="342" y="228" width="19" height="6"/>
<path d="M751,288h-21.3c0.3,2.1,0.7,4,1.1,6h21.3C751.7,292.1,751.3,290.1,751,288L751,288z"/>
<rect x="1032.1" y="288" width="18.6" height="6"/>
<path d="M1194.7,294c-0.4-1.9-0.8-3.9-1.1-6h-21.4c0.3,2.1,0.7,4,1.1,6H1194.7L1194.7,294z"/>
<path d="M1285.8,294h21.4c0.5-2,0.9-4,1.2-6H1287C1286.7,290.1,1286.3,292.1,1285.8,294L1285.8,294z"/>
<path d="M1069,258h20.6l-3.8-6h-20.4c1,1.8,1.9,3.2,2.6,4.3L1069,258L1069,258z"/>
<path d="M1032.1,258h18.6c0-1.5-0.1-3.6-0.1-6h-18.5V258z"/>
<path d="M1287.8,282h21.3c0.2-2,0.3-4,0.4-6h-21.3C1288.2,278.1,1288,280.1,1287.8,282z"/>
<path d="M751.5,252h-21.1c-0.4,2-0.7,4-0.9,6h21.2C750.8,255.9,751.1,253.9,751.5,252z"/>
<path d="M754.8,240h-21.1c-0.7,1.9-1.3,3.9-1.9,6h21.1C753.4,243.9,754,241.9,754.8,240L754.8,240z"/>
<path d="M1288.2,264c0.1,1.9,0.2,3.9,0.2,6h21.3c0-2-0.1-4-0.2-6H1288.2L1288.2,264z"/>
<path d="M1174.1,246h21.2c0.6-2.1,1.2-4.1,1.9-6H1176C1175.3,241.9,1174.7,243.9,1174.1,246L1174.1,246z"/>
<path d="M1171.8,258h21.3c0.2-2.1,0.6-4.1,0.9-6h-21.2C1172.4,254,1172.1,256,1171.8,258L1171.8,258z"/>
<path d="M860.9,240h-20.3c-0.7-2.1-1.6-4.1-2.5-6h20.6c-0.9-2.1-1.8-4.1-2.9-6H835c-1.2-2.1-2.6-4.1-4-6H852c-1.6-2.1-3.2-4.1-5-6
	h-21.2c-2.2-2.2-4.5-4.2-7-6h21.3c-3.1-2.3-6.5-4.3-10.1-6h-21.3c-6.2-3-13.2-5-21-6h21.5c-3.6-0.5-7.4-0.7-11.2-0.7
	c-4,0-7.8,0.2-11.5,0.7h-21.6c-7.8,1-14.9,3-21.2,6h21.6c-3.6,1.7-7,3.7-10.1,6h-21.6c-2.5,1.8-4.8,3.8-7,6h21.6
	c-1.8,1.9-3.6,3.9-5.2,6h-21.6c-1.4,1.9-2.8,3.9-4,6h21.6c-1.1,1.9-2.2,3.9-3.1,6h21.5c0.9-1.6,1.8-3.1,2.8-4.5
	c0.4-0.5,0.8-1,1.2-1.5H740c1.8-2.1,4-4.1,6.6-6H768c3.5-2.6,7.6-4.6,12.1-6h-21c5.2-1.6,11.3-2.6,18.2-2.6s12.4,0.9,17.5,2.6h19.3
	c4.1,1.5,7.8,3.5,11,6h-19.2c2.2,1.7,4.2,3.7,6,6h19.5c1.6,1.9,3,3.9,4.3,6H816c1.1,1.9,2.1,3.9,3,6h19.8c0.8,1.9,1.5,3.9,2,5.9
	l20.7-3.9C861.3,241.3,861.1,240.6,860.9,240L860.9,240z"/>
<path d="M1032.1,246h18.3c-0.1-1.9-0.1-3.9-0.2-6h-18.2L1032.1,246L1032.1,246z"/>
<path d="M1081.9,246l-3.8-6h-19.6c1.2,2.1,2.3,4.1,3.4,6H1081.9L1081.9,246z"/>
<path d="M1203.4,228.7c0.2-0.2,0.4-0.5,0.6-0.7h-22.4c-1.1,1.9-2.2,3.9-3.1,6h21.6C1201,232.1,1202.2,230.3,1203.4,228.7z"/>
<path d="M1624,240h-21.1c-0.7,1.9-1.3,3.9-1.9,6h21C1622.6,243.9,1623.2,241.9,1624,240L1624,240z"/>
<rect x="1125" y="204" width="18.6" height="6"/>
<path d="M1491.3,216H1459c-1.8,1.9-3.6,3.9-5.2,6h25.1C1482.3,219.6,1486.4,217.5,1491.3,216L1491.3,216z"/>
<path d="M1508.7,329.4c-9.4,0-17.7-1.9-24.6-5.4h-28.5c1.8,2.2,3.9,4.2,6,6h28l-2.4,6h-17.1c4.4,2.5,9.3,4.5,14.5,6h0.1l-0.3,0.6
	h20.1l0.2-0.6h26.8c5.1-1.5,9.8-3.5,14.1-6h-38.6l2.3-6h44.8c2.2-1.9,4.2-3.9,6.2-6h-26.9C1526.9,327.6,1518.8,329.4,1508.7,329.4
	L1508.7,329.4z"/>
<path d="M1050.7,324h-18.6v6h-34.5c2.6,2.2,5.5,4.2,8.5,6h26v6h-11.5c7.2,2,15.3,3.1,24.1,3.1c8.3,0,16-1.1,22.9-3.1h-16.9v-6h31
	c3.1-1.8,5.9-3.8,8.6-6h-39.5L1050.7,324L1050.7,324z"/>
<polygon points="1114.3,330 1143.6,330 1143.6,324 1110.6,324 "/>
<path d="M1621.3,294c-0.4-1.9-0.8-3.9-1.1-6H1599c0.3,2.1,0.7,4,1.1,6H1621.3L1621.3,294z"/>
<path d="M1355.8,324h-11.5v-6h11.5v-6h-11.5v-6h11.5v-6h-11.5v-6h11.5v-6h-11.5v-6h11.5v-6h-7.9l3.8-6h4.1v-6h-0.2l3.8-6h-3.6v-6
	h7.5l3.8-6h-11.3v-6h15.2l3.8-6h-19v-6H1337v6h16.9l-3.6,6H1337v6h9.8c-1.1,1.9-2.3,3.9-3.5,6h-6.3v6h2.8c-1.1,1.9-2.2,3.9-3.4,6
	h0.7v6h-19.2l3.8,6h15.3v6h-11.7v6h11.7v6h-11.7v6h11.7v6h-11.7v6h11.7v6h-11.7v6h11.7v6h-11.7v6h11.7v6h-11.7v0.6h19V342h87.3v-6
	h-87.3v-6h87.3v-3.5h-75.8L1355.8,324L1355.8,324z"/>
<rect x="978.3" y="204" width="18.8" height="6"/>
<polygon points="113.4,300 115.7,306 135.1,306 132.7,300 "/>
<polygon points="118,312 120.3,318 139.9,318 137.5,312 "/>
<polygon points="125,330 144.7,330 142.3,324 122.7,324 "/>
<path d="M293.3,210h-2c-2.5,1.8-4.8,3.8-7,6h31.7c5.5-1.7,11.7-2.6,18.4-2.6c5.8,0,10.9,0.9,15.6,2.6h-8v6h19v-6H383
	c-2.1-2.2-4.4-4.2-6.8-6h33.7v-6h-43.8c-6.4-3-13.4-5-20.8-6h-22.7c-7.8,1-14.9,3-21.2,6h-8.1L293.3,210L293.3,210z"/>
<polygon points="95.2,252 97.4,258 115.9,258 113.5,252 "/>
<polygon points="99.8,264 102.1,270 120.7,270 118.3,264 "/>
<path d="M86.1,228c0.7,2,1.4,4,2.2,6h18.1l-2.4-6H86.1z"/>
<polygon points="617.9,216 617.9,222 636.7,222 636.7,216.3 712.5,216.3 712.5,216 679.6,216 679.6,210 712.5,210 712.5,204 
	679.6,204 679.6,199.7 661,199.7 661,204 617.9,204 617.9,210 661,210 661,216 "/>
<path d="M1442.4,246h21.2c0.6-2.1,1.2-4.1,1.9-6h-21.3C1443.5,241.9,1442.9,243.9,1442.4,246L1442.4,246z"/>
<polygon points="1062.8,216 1032.1,216 1032.1,222 1066.6,222 "/>
<rect x="1125" y="216" width="18.6" height="6"/>
<rect x="1337" y="216" width="18.8" height="6"/>
<path d="M1207.1,318c-1.6-1.4-3-2.9-4.3-4.6c-0.3-0.5-0.7-0.9-1.1-1.4h-22.3c1.1,2.1,2.2,4.1,3.4,6H1207.1L1207.1,318z"/>
<path d="M1549.7,306h21.8c0.8-1.9,1.6-3.9,2.2-6h-21.5C1551.5,302.1,1550.7,304.1,1549.7,306z"/>
<path d="M1122.4,312h-17.7c1-1.9,2-3.9,2.8-6h11.6c-1.1-2-2.2-4-3.4-6h-6c0.6-2,1.2-4,1.7-6h0.8c-1.2-2.1-2.4-4.1-3.6-6h4
	c0.3-2,0.6-4,0.8-6h-8.6l-3.8-6h12.8c0.1-1.6,0.1-3.2,0.1-4.8c0-0.4,0-0.8,0-1.2h-16.8l-3.8-6h20.3c-0.1-2-0.3-4-0.6-6h-21.3
	c0.2,1.9,0.4,3.9,0.6,6h-19.7l3.8,6h16.1c0,0.4,0,0.8,0,1.2c0,1.6,0,3.2-0.1,4.8h-12.2l3.8,6h8c-0.2,2.1-0.5,4.1-0.8,6h-3.4l3.8,6
	h-1.6c-0.5,2.1-1.1,4.1-1.8,6h7.2l3.8,6h-13.5c-1,2.1-2.2,4.1-3.4,6h20.7l3.8,6h18.9C1124.6,316,1123.5,314,1122.4,312L1122.4,312z"
	/>
<path d="M1471,313.4c-0.3-0.5-0.7-0.9-1.1-1.4h-22.3c1.1,2.1,2.2,4.1,3.4,6h24.3C1473.8,316.6,1472.3,315.1,1471,313.4L1471,313.4z"
	/>
<path d="M1545.3,313.4c-1.2,1.6-2.5,3.2-3.8,4.6h23.6c1.3-1.9,2.5-3.9,3.6-6h-22.4C1546,312.5,1545.6,313,1545.3,313.4z"/>
<path d="M1277.1,313.4c-1.2,1.6-2.5,3.2-3.8,4.6h23.6c1.3-1.9,2.5-3.9,3.6-6H1278C1277.7,312.5,1277.4,313,1277.1,313.4z"/>
<rect x="1032.1" y="312" width="18.6" height="6"/>
<path d="M255,318h19c-0.1-1.9-0.2-3.9-0.2-6h21.7c-1.2-1.9-2.3-3.9-3.3-6h-18.5c0-2.1-0.2-4.1-0.4-6h16.6c-0.6-1.9-1.2-3.9-1.6-6
	h-16.3c-0.7-2.1-1.6-4.2-2.7-6H287c-0.3-1.9-0.5-3.9-0.7-6h-21.3c0.2,2,0.4,4,0.7,6h-19.6c2.5,1.5,4.4,3.5,5.7,6h14.9
	c0.4,2.1,0.9,4.1,1.5,6H254c0.4,1.8,0.6,3.8,0.7,6h15.6c0.8,2.1,1.7,4.1,2.6,6h-18.2C254.8,314.2,254.9,316.2,255,318L255,318z"/>
<path d="M275.8,330c-0.5-1.9-0.9-3.9-1.2-6h-19.3c0.2,2.2,0.4,4.2,0.8,6H275.8L275.8,330z"/>
<polygon points="712.5,330 712.5,326.1 636.7,326.1 636.7,324 617.9,324 617.9,330 650.3,330 654.1,336 617.9,336 617.9,342 
	657.9,342 658.3,342.6 679.6,342.6 679.6,342 712.5,342 712.5,336 679.6,336 679.6,330 "/>
<rect x="342" y="276" width="19" height="6"/>
<rect x="342" y="264" width="19" height="6"/>
</svg>
