<?xml version="1.0" encoding="utf-8"?>
<!-- Generator: Adobe Illustrator 26.2.1, SVG Export Plug-In . SVG Version: 6.00 Build 0)  -->
<svg version="1.1" id="a" xmlns="http://www.w3.org/2000/svg" xmlns:xlink="http://www.w3.org/1999/xlink" x="0px" y="0px"
	 viewBox="0 0 1920 1080" style="enable-background:new 0 0 1920 1080;" xml:space="preserve">
<style type="text/css">
	.st0{fill:#FFFFFF;}
</style>
<g>
	<rect class="st0" width="1920" height="6"/>
	<rect y="12" class="st0" width="1920" height="6"/>
	<rect y="24" class="st0" width="1920" height="6"/>
	<rect y="36" class="st0" width="1920" height="6"/>
	<rect y="48" class="st0" width="1920" height="6"/>
	<rect y="60" class="st0" width="1920" height="6"/>
	<rect y="72" class="st0" width="1920" height="6"/>
	<rect y="84" class="st0" width="1920" height="6"/>
	<rect y="96" class="st0" width="1920" height="6"/>
	<rect y="108" class="st0" width="1920" height="6"/>
	<rect y="120" class="st0" width="1920" height="6"/>
	<rect y="132" class="st0" width="1920" height="6"/>
	<rect y="144" class="st0" width="1920" height="6"/>
	<rect y="156" class="st0" width="1920" height="6"/>
	<rect y="168" class="st0" width="1920" height="6"/>
	<rect y="180" class="st0" width="1920" height="6"/>
	<rect y="192" class="st0" width="1920" height="6"/>
	<rect y="204" class="st0" width="1920" height="6"/>
	<rect y="216" class="st0" width="1920" height="6"/>
	<rect y="228" class="st0" width="1920" height="6"/>
	<rect y="240" class="st0" width="1920" height="6"/>
	<rect y="252" class="st0" width="1920" height="6"/>
	<rect y="264" class="st0" width="1920" height="6"/>
	<rect y="276" class="st0" width="1920" height="6"/>
	<rect y="288" class="st0" width="1920" height="6"/>
	<rect y="300" class="st0" width="1920" height="6"/>
	<rect y="312" class="st0" width="1920" height="6"/>
	<rect y="324" class="st0" width="1920" height="6"/>
	<rect y="336" class="st0" width="1920" height="6"/>
	<rect y="348" class="st0" width="1920" height="6"/>
	<rect y="360" class="st0" width="1920" height="6"/>
	<rect y="372" class="st0" width="1920" height="6"/>
	<rect y="384" class="st0" width="1920" height="6"/>
	<rect y="396" class="st0" width="1920" height="6"/>
	<rect y="408" class="st0" width="1920" height="6"/>
	<rect y="420" class="st0" width="1920" height="6"/>
	<rect y="432" class="st0" width="1920" height="6"/>
	<rect y="444" class="st0" width="1920" height="6"/>
	<rect y="456" class="st0" width="1920" height="6"/>
	<rect y="468" class="st0" width="1920" height="6"/>
	<rect y="480" class="st0" width="1920" height="6"/>
	<rect y="492" class="st0" width="1920" height="6"/>
	<rect y="504" class="st0" width="1920" height="6"/>
	<rect y="516" class="st0" width="1920" height="6"/>
	<rect y="528" class="st0" width="1920" height="6"/>
	<rect y="540" class="st0" width="1920" height="6"/>
	<rect y="552" class="st0" width="1920" height="6"/>
	<rect y="564" class="st0" width="1920" height="6"/>
	<rect y="576" class="st0" width="1920" height="6"/>
	<rect y="588" class="st0" width="1920" height="6"/>
	<rect y="600" class="st0" width="1920" height="6"/>
	<rect y="612" class="st0" width="1920" height="6"/>
	<rect y="624" class="st0" width="1920" height="6"/>
	<rect y="636" class="st0" width="1920" height="6"/>
	<rect y="648" class="st0" width="1920" height="6"/>
	<rect y="660" class="st0" width="1920" height="6"/>
	<rect y="672" class="st0" width="1920" height="6"/>
	<rect y="684" class="st0" width="1920" height="6"/>
	<rect y="696" class="st0" width="1920" height="6"/>
	<rect y="708" class="st0" width="1920" height="6"/>
	<rect y="720" class="st0" width="1920" height="6"/>
	<rect y="732" class="st0" width="1920" height="6"/>
	<rect y="744" class="st0" width="1920" height="6"/>
	<rect y="756" class="st0" width="1920" height="6"/>
	<rect y="768" class="st0" width="1920" height="6"/>
	<rect y="780" class="st0" width="1920" height="6"/>
	<rect y="792" class="st0" width="1920" height="6"/>
	<rect y="804" class="st0" width="1920" height="6"/>
	<rect y="816" class="st0" width="1920" height="6"/>
	<rect y="828" class="st0" width="1920" height="6"/>
	<rect y="840" class="st0" width="1920" height="6"/>
	<rect y="852" class="st0" width="1920" height="6"/>
	<rect y="864" class="st0" width="1920" height="6"/>
	<rect y="876" class="st0" width="1920" height="6"/>
	<rect y="888" class="st0" width="1920" height="6"/>
	<rect y="900" class="st0" width="1920" height="6"/>
	<rect y="912" class="st0" width="1920" height="6"/>
	<rect y="924" class="st0" width="1920" height="6"/>
	<rect y="936" class="st0" width="1920" height="6"/>
	<rect y="948" class="st0" width="1920" height="6"/>
	<rect y="960" class="st0" width="1920" height="6"/>
	<rect y="972" class="st0" width="1920" height="6"/>
	<rect y="984" class="st0" width="1920" height="6"/>
	<rect y="996" class="st0" width="1920" height="6"/>
	<rect y="1008" class="st0" width="1920" height="6"/>
	<rect y="1020" class="st0" width="1920" height="6"/>
	<rect y="1032" class="st0" width="1920" height="6"/>
	<rect y="1044" class="st0" width="1920" height="6"/>
	<rect y="1056" class="st0" width="1920" height="6"/>
	<rect y="1068" class="st0" width="1920" height="6"/>
</g>
</svg>
